<?xml version="1.0" encoding="UTF-8"?><svg xmlns="http://www.w3.org/2000/svg" viewBox="0 0 617.98 362.74"><defs><style>.d{fill:#515254;}.e{fill:#587187;}.e,.f,.g{stroke:#1b1b4c;stroke-miterlimit:10;stroke-width:3px;}.f{fill:#669ad2;}.h{fill:#c99f63;}.i{fill:#848689;}.g{fill:#abadb0;}.j{fill:#cc6e40;}</style></defs><g id="a"/><g id="b"><g id="c"><g><path class="f" d="M25.58,256.8v-70.29c0-22.66,15.48-42.41,37.5-47.74,17.81-4.31,43.64-6.76,80.82-3.73,0,0,11.06-96.21,97.68-123.13,56.7-17.63,339.82-37.15,354.96,163.03v81.86H25.58Z"/><rect class="g" x="1.5" y="241.67" width="614.98" height="50.9" rx="18.23" ry="18.23"/><circle class="d" cx="502.29" cy="292.57" r="70.17"/><circle class="i" cx="502.29" cy="292.57" r="49.61"/><circle class="d" cx="134.95" cy="292.57" r="70.17"/><circle class="i" cx="134.95" cy="292.57" r="49.61"/><path class="j" d="M596.53,183.19h-6.88c-14.44,0-26.14,11.7-26.14,26.14v32.33h34.74l-1.72-58.47Z"/><path class="h" d="M43.56,173.11h0c9.25,0,16.75,8.79,16.75,19.64v48.92H23.58l1.24-49.49c2.27-10.62,9.68-19.06,18.75-19.06Z"/><path class="e" d="M192.75,139.17s-3.63-105.25,101.54-106.62,242.96,13.37,252.03,106.62H192.75Z"/><polyline class="f" points="353.39 33.74 353.39 139.17 353.39 242.96"/><line class="f" x1="192.75" y1="139.17" x2="192.74" y2="242.96"/><rect class="f" x="282.01" y="161.72" width="58.09" height="10.39" rx="3.97" ry="3.97"/><rect class="d" x="197.89" y="107.79" width="58.09" height="10.39" rx="3.97" ry="3.97" transform="translate(146.37 -127.38) rotate(45)"/><rect class="d" x="198.45" y="115.86" width="33.97" height="10.39" rx="3.97" ry="3.97" transform="translate(442.86 24.38) rotate(127.64)"/><path class="d" d="M200.01,113.34l31.94,25.83h-36.86c-.56,0-1.01-.47-.97-1.03l1.38-22.95c.25-2.18,2.8-3.22,4.51-1.84Z"/></g></g></g></svg>