<?xml version="1.0" encoding="UTF-8"?><svg xmlns="http://www.w3.org/2000/svg" viewBox="0 0 335.95 886.24"><defs><style>.o{fill:#fff;}.p{fill:#ed7d6c;}.q{fill:#a5d28a;}.r{fill:#d0afb9;}.s{fill:#312938;}.t{fill:#d283b7;}.u{fill:none;stroke:#232a54;stroke-miterlimit:10;stroke-width:3px;}.v{fill:#f2a867;}.w{fill:#4f4644;}</style></defs><g id="a"/><g id="b"><g id="c"><g><g id="d"><path class="v" d="M323.9,779.36c28.86,56.66-1.16,67.76-26.69,18.55-67.24-129.55-173.19-322.7-182.46-349.44-6.34-18.27,13.34-26.79,24.22-12.18,27.85,37.46,126.97,229.3,184.93,343.07Z"/></g><g id="e"><g><path class="v" d="M94.03,58.51c17.3-4.94,41.7,2.92,41.7,2.92,1.53-19.79,16.15-43.97,31.86-54.65,2.76-1.88,6.54-4.09,9.23-2.04,2.08,1.58,8.28,65.27-2.69,88.92,0,0,4.6,5.21,5.66,7.73s1.66,9.11-1.61,11.77c-2.27,1.85-4.47,2.24-4.99,5.23-.48,2.77,1.31,5.37,2.14,8.07,1.07,3.47,.43,7.46-1.64,10.34-.05,.06-.09,.13-.14,.19-3.18-1.14-6.39-2.19-9.62-3.17-.43-4.51-2.8-8.87-6.57-11.43-5.42-3.69-13.27-3.31-18.32,.88-1.43,1.19-2.62,2.61-3.64,4.17-1.37,2.09-2.43,4.43-3.38,6.76-.54,1.34-1.03,2.69-1.45,4.07-1.91,6.1-2.61,12.53-1.52,18.84,.92,5.34,4.63,4.31,4.63,4.31,9.64-1.42,18.69-6.48,24.96-13.92,.3,.13,.61,.27,.91,.41-2.62,2.9-6.2,6.23-10.64,8.95-7.04,4.31-16.27,7.08-24.25,8.57-3.57,.66-6.88,1.07-9.65,1.24-3.78,.24-7.77,.26-11.83,0-13.88-.89-28.5-5.08-37.65-14.91-1.78-1.92-3.45-4.16-4.99-6.75,.08-.03,.16-.06,.23-.09,3.9,6.37,9.76,11.54,16.61,14.52,0,0,2.99,1.78,5.05-2.66,2.82-6.07,3.61-12.85,2.96-19.52-.04-.39-.08-.78-.13-1.17-.37-3.01-.92-6.08-2.18-8.81-.38-.83-.83-1.63-1.36-2.38-3.42-4.85-10.17-7.03-15.78-5.1-4.4,1.51-7.79,5.46-8.91,9.96-.88,.16-1.77,.32-2.65,.49-3.24-11.13-5.05-25.67-4.98-44.22,.07-19.2-2.5-44.91,6.78-71.15,1.62-4.56,4.17-12.32,8.67-13.35,5.29-1.22,25.71,37.15,28.82,53.55l.36,3.43Zm6.51,88.6c-2.58,.08-5.16,.27-7.72,.56h-.21v.02c1.54,3.24,3.59,7.52,5.13,10.75,.54-3.36,1.37-8.24,2.8-11.33ZM173.2,57.74c-.15-11.5,.24-26.44,.18-30.39-.1-5.7-5.36-5.15-5.36-5.15-8.44,3.44-15.75,20.41-18.87,32.81-.62,2.48-1.31,5.06-1.37,7.74-.16,6.75,8.06,13.91,13.78,16.61,5.72,2.71,8.7,2.17,10.2-3.86,1.31-5.29,1.48-14.61,1.44-17.76Zm-26.47,41.63c-.32-.5-.67-.99-1.05-1.45-4.2-5.19-11.64-7.64-18.09-5.76-1.02,.3-2,.7-2.93,1.19-5.44,2.86-9.25,8.79-9.31,14.97-.01,.07-.01,.13-.01,.2l.11,.39c-.9,1.53,.2,3.8,1.95,4.04,1.75,.25,3.43-1.64,2.98-3.35,3.29,4.03,9.52,4.83,14.26,2.68s12.09-12.91,12.09-12.91Zm-19.35-15.43c.6-.35,1.27-.84,1.25-1.53-.02-.68-.71-1.12-1.33-1.38-1.74-.73-5.57-.99-5.57-.99-4.34-.24-8.61,3.02-9.52,7.27-.21,1.03-.18,2.27,.63,2.93,1.01,.8,2.48,.26,3.63-.33,3.69-1.88,7.33-3.87,10.91-5.97Zm-15.53,75.01c1.44-3.46,2.87-6.93,4.3-10.4l-7.57-.79c.3,3.9,1.43,7.74,3.27,11.19Zm-2.36-33.49c.13-.36,.24-.76,0-1.06-.29-.37-.93-.36-1.46-.31-3.57,.34-7.13,.69-10.7,1.03,0,0,4.03,11.19,6.83,15.85,1.77-5.17,3.55-10.34,5.33-15.51Zm-12.51-33.52c.87-.59,1-1.82,.86-2.86-.56-4.31-4.55-7.91-8.89-8.02,0,0-3.84-.05-5.63,.53-.64,.21-1.36,.6-1.44,1.27-.08,.69,.55,1.23,1.12,1.63,3.4,2.38,6.86,4.66,10.39,6.83,1.1,.68,2.52,1.35,3.59,.62Zm-2.25,17.39c.25-6.46-3.39-12.95-9.07-15.75-2.01-.99-4.22-1.49-6.45-1.53-4.4-.1-8.88,1.56-12.09,4.71-.27,.26-.54,.53-.79,.82,0,0,5.15,11.63,9.27,14.47,4.13,2.83,10.16,3.05,13.95-.36-.71,1.59,.56,3.7,2.26,3.74,1.7,.03,3.12-2.01,2.53-3.63l.17-.36c.12-.7,.19-1.41,.22-2.11Z"/><path class="r" d="M173.38,27.35c.06,3.95-.33,18.89-.18,30.39,.04,3.15-.13,12.47-1.44,17.76-1.5,6.03-4.48,6.57-10.2,3.86-5.72-2.7-13.94-9.86-13.78-16.61,.06-2.68,.75-5.26,1.37-7.74,3.12-12.4,10.43-29.37,18.87-32.81,0,0,5.26-.55,5.36,5.15Z"/><path class="v" d="M173.55,136.99c-2.1,2.77-5.48,4.38-8.84,4.19,0,0-1.78,3-5.16,6.73-.3-.14-.61-.28-.91-.41,.28-.32,.55-.65,.82-.99,1.61-2.05,3.04-4.28,3.85-6.77,.62-1.91,.81-3.93,.62-5.92,3.23,.98,6.44,2.03,9.62,3.17Z"/><path class="p" d="M163.93,133.82c.19,1.99,0,4.01-.62,5.92-.81,2.49-2.24,4.72-3.85,6.77-.27,.34-.54,.67-.82,.99-8.94-3.99-18.45-6.83-28.07-9.23,.42-1.38,.91-2.73,1.45-4.07,.95-2.33,2.01-4.67,3.38-6.76,9.65,1.43,19.2,3.56,28.53,6.38Z"/><path class="p" d="M157.36,122.39c3.77,2.56,6.14,6.92,6.57,11.43-9.33-2.82-18.88-4.95-28.53-6.38,1.02-1.56,2.21-2.98,3.64-4.17,5.05-4.19,12.9-4.57,18.32-.88Z"/><path class="p" d="M158.64,147.5c-6.27,7.44-15.32,12.5-24.96,13.92,0,0-3.71,1.03-4.63-4.31-1.09-6.31-.39-12.74,1.52-18.84,9.62,2.4,19.13,5.24,28.07,9.23Z"/><path class="o" d="M145.68,97.92c.38,.46,.73,.95,1.05,1.45,0,0-7.35,10.76-12.09,12.91s-10.97,1.35-14.26-2.68c.45,1.71-1.23,3.6-2.98,3.35-1.75-.24-2.85-2.51-1.95-4.04l-.11-.39c0-.07,0-.13,.01-.2h.04c1.74-3.89,4.67-7.23,8.27-9.51-.19,1.28-.26,2.57-.13,3.86,.32,3.03,2.03,6.11,4.88,7.15,2.35,.85,5.1,.15,7.02-1.44,2.27-1.89,3.47-4.99,3.05-7.91-.26-1.88-1.19-3.66-2.54-5,3.34,.12,6.65,.98,9.59,2.57l.15-.12Z"/><path class="w" d="M145.68,97.92l-.15,.12c-2.94-1.59-6.25-2.45-9.59-2.57-.74-.73-1.61-1.33-2.57-1.75-2.71-1.19-6.01-.88-8.44,.8l-.29-.08c.06-.25,.13-.49,.2-.74l-.18-.35c.93-.49,1.91-.89,2.93-1.19,6.45-1.88,13.89,.57,18.09,5.76Z"/><path class="q" d="M138.48,100.47c.42,2.92-.78,6.02-3.05,7.91-1.92,1.59-4.67,2.29-7.02,1.44-2.85-1.04-4.56-4.12-4.88-7.15-.13-1.29-.06-2.58,.13-3.86,1.43-.91,2.96-1.65,4.56-2.2,2.48-.85,5.11-1.22,7.72-1.14,1.35,1.34,2.28,3.12,2.54,5Z"/><path class="w" d="M135.94,95.47c-2.61-.08-5.24,.29-7.72,1.14-1.6,.55-3.13,1.29-4.56,2.2,.21-1.47,.58-2.93,.98-4.37l.29,.08c2.43-1.68,5.73-1.99,8.44-.8,.96,.42,1.83,1.02,2.57,1.75Z"/><path class="v" d="M129.18,171.49c.45,3.61,.91,7.27,.37,10.87-.53,3.61-2.2,7.19-5.2,9.25-3.11,2.14-7.13,2.34-10.91,2.25-3.29-.08-7.18-.7-8.63-3.66-.57-1.16-.64-2.5-.7-3.8-.31-6.41-.61-12.82-.91-19.23l-.02-.5c4.06,.26,8.05,.24,11.83,0,2.77-.17,6.08-.58,9.65-1.24,.65,.03,1.27,.15,1.84,.45,1.92,.99,2.41,3.47,2.68,5.61Z"/><path class="w" d="M128.63,82.41c.02,.69-.65,1.18-1.25,1.53-3.58,2.1-7.22,4.09-10.91,5.97-1.15,.59-2.62,1.13-3.63,.33-.81-.66-.84-1.9-.63-2.93,.91-4.25,5.18-7.51,9.52-7.27,0,0,3.83,.26,5.57,.99,.62,.26,1.31,.7,1.33,1.38Z"/><path class="w" d="M124.66,93.35l.18,.35c-.07,.25-.14,.49-.2,.74-.4,1.44-.77,2.9-.98,4.37-3.6,2.28-6.53,5.62-8.27,9.51h-.04c.06-6.18,3.87-12.11,9.31-14.97Z"/><path class="o" d="M116.15,148.55c-1.43,3.47-2.86,6.94-4.3,10.4-1.84-3.45-2.97-7.29-3.27-11.19l7.57,.79Z"/><path class="w" d="M109.49,124.4c.24,.3,.13,.7,0,1.06-1.78,5.17-3.56,10.34-5.33,15.51-2.8-4.66-6.83-15.85-6.83-15.85,3.57-.34,7.13-.69,10.7-1.03,.53-.05,1.17-.06,1.46,.31Z"/><path class="o" d="M92.82,147.67l7.72-.56c-1.43,3.09-2.26,7.97-2.8,11.33-1.54-3.23-3.59-7.51-5.13-10.75,.07-.01,.14-.02,.21-.02Z"/><path class="w" d="M97.84,89.08c.14,1.04,.01,2.27-.86,2.86-1.07,.73-2.49,.06-3.59-.62-3.53-2.17-6.99-4.45-10.39-6.83-.57-.4-1.2-.94-1.12-1.63,.08-.67,.8-1.06,1.44-1.27,1.79-.58,5.63-.53,5.63-.53,4.34,.11,8.33,3.71,8.89,8.02Z"/><path class="w" d="M85.66,93.58c5.68,2.8,9.32,9.29,9.07,15.75h-.37c-.85-2.15-2.12-3.86-3.67-5.32,.16-1.52-.17-3.12-.86-4.49-1.08-2.15-2.94-3.82-4.99-5.09-1.2-.74-2.5-1.38-3.9-1.56-1.25-.16-2.6,.09-3.6,.84l-.54-.28c.67-.64,1.5-1.08,2.41-1.19v-.19c2.23,.04,4.44,.54,6.45,1.53Z"/><path class="o" d="M94.36,109.32h.37c-.03,.71-.1,1.42-.22,2.12l-.17,.36c.59,1.62-.83,3.66-2.53,3.63-1.7-.04-2.97-2.15-2.26-3.74-3.79,3.41-9.82,3.19-13.95,.36-4.12-2.84-9.27-14.47-9.27-14.47,.25-.29,.52-.56,.79-.82l.35,.36c2.49-.58,5.08-.73,7.63-.46-.17,.75-.23,1.54-.22,2.32,.02,2.54,.72,5.12,2.23,7.17,1.51,2.04,3.87,3.5,6.41,3.66,2.54,.15,5.18-1.13,6.41-3.35,.42-.76,.67-1.6,.76-2.45,1.55,1.46,2.82,3.17,3.67,5.31Z"/><path class="w" d="M77.34,93.71c1-.75,2.35-1,3.6-.84,1.4,.18,2.7,.82,3.9,1.56,2.05,1.27,3.91,2.94,4.99,5.09,.69,1.37,1.02,2.97,.86,4.49-2.09-1.96-4.69-3.46-7.45-4.9-2.52-1.32-5.31-2.14-8.14-2.45,.14-.68,.36-1.33,.69-1.93,.26-.48,.61-.93,1.01-1.3l.54,.28Z"/><path class="q" d="M83.24,99.11c2.76,1.44,5.36,2.94,7.45,4.9-.09,.85-.34,1.69-.76,2.45-1.23,2.22-3.87,3.5-6.41,3.35-2.54-.16-4.9-1.62-6.41-3.66-1.51-2.05-2.21-4.63-2.23-7.17-.01-.78,.05-1.57,.22-2.32,2.83,.31,5.62,1.13,8.14,2.45Z"/><path class="p" d="M85.39,137.26c.65,6.67-.14,13.45-2.96,19.52-2.06,4.44-5.05,2.66-5.05,2.66-6.85-2.98-12.71-8.15-16.61-14.52,8-3.16,16.23-5.73,24.62-7.66Z"/><path class="p" d="M85.26,136.09c.05,.39,.09,.78,.13,1.17-8.39,1.93-16.62,4.5-24.62,7.66-.89-1.46-1.68-2.99-2.35-4.57-.93-2.17-1.65-4.46-1.77-6.82-.06-1.27,.07-2.54,.38-3.77,8.6-1.51,17.32-2.34,26.05-2.48,1.26,2.73,1.81,5.8,2.18,8.81Z"/><path class="p" d="M81.72,124.9c.53,.75,.98,1.55,1.36,2.38-8.73,.14-17.45,.97-26.05,2.48,1.12-4.5,4.51-8.45,8.91-9.96,5.61-1.93,12.36,.25,15.78,5.1Z"/><path class="w" d="M79.21,92.05v.19c-.91,.11-1.74,.55-2.41,1.19-.4,.37-.75,.82-1.01,1.3-.33,.6-.55,1.25-.69,1.93-2.55-.27-5.14-.12-7.63,.46l-.35-.36c3.21-3.15,7.69-4.81,12.09-4.71Z"/><path class="v" d="M60.77,144.92c-.07,.03-.15,.06-.23,.09-2.4-4.04-4.48-8.93-6.16-14.76,.88-.17,1.77-.33,2.65-.49-.31,1.23-.44,2.5-.38,3.77,.12,2.36,.84,4.65,1.77,6.82,.67,1.58,1.46,3.11,2.35,4.57Z"/></g><g><path class="u" d="M81.39,64.91c4.67-2.65,8.47-5.21,12.64-6.4,17.3-4.94,41.7,2.92,41.7,2.92,1.53-19.79,16.15-43.97,31.86-54.65,2.76-1.88,6.54-4.09,9.23-2.04,2.08,1.58,8.28,65.27-2.69,88.92,0,0,4.6,5.21,5.66,7.73s1.66,9.11-1.61,11.77c-2.27,1.85-4.47,2.24-4.99,5.23-.48,2.77,1.31,5.37,2.14,8.07,1.07,3.47,.43,7.46-1.64,10.34-.05,.06-.09,.13-.14,.19-2.1,2.77-5.48,4.38-8.84,4.19,0,0-1.78,3-5.16,6.73-2.62,2.9-6.2,6.23-10.64,8.95-7.04,4.31-16.27,7.08-24.25,8.57-3.57,.66-6.88,1.07-9.65,1.24-3.78,.24-7.77,.26-11.83,0-13.88-.89-28.5-5.08-37.65-14.91-1.78-1.92-3.45-4.16-4.99-6.75-2.4-4.04-4.48-8.93-6.16-14.76-3.24-11.13-5.05-25.67-4.98-44.22,.07-19.2-2.5-44.91,6.78-71.15,1.62-4.56,4.17-12.32,8.67-13.35,5.29-1.22,25.71,37.15,28.82,53.55l.36,3.43"/><path class="u" d="M104.16,140.97c1.77-5.17,3.55-10.34,5.33-15.51,.13-.36,.24-.76,0-1.06-.29-.37-.93-.36-1.46-.31-3.57,.34-7.13,.69-10.7,1.03,0,0,4.03,11.19,6.83,15.85Z"/><path class="u" d="M89.47,148.1c1.04-.15,2.09-.29,3.14-.41,.07-.01,.14-.02,.21-.02,2.56-.29,5.14-.48,7.72-.56,6.68-.23,13.38,.24,19.97,1.39"/><path class="u" d="M92.82,147.67h-.21v.02c1.54,3.24,3.59,7.52,5.13,10.75,.54-3.36,1.37-8.24,2.8-11.33l-7.72,.56Z"/><path class="u" d="M115.35,108.32c-.01,.07-.01,.13-.01,.2l.11,.39c-.9,1.53,.2,3.8,1.95,4.04,1.75,.25,3.43-1.64,2.98-3.35,3.29,4.03,9.52,4.83,14.26,2.68s12.09-12.91,12.09-12.91c-.32-.5-.67-.99-1.05-1.45-4.2-5.19-11.64-7.64-18.09-5.76-1.02,.3-2,.7-2.93,1.19-5.44,2.86-9.25,8.79-9.31,14.97Z"/><path class="u" d="M94.73,109.33c-.03,.7-.1,1.41-.22,2.11l-.17,.36c.59,1.62-.83,3.66-2.53,3.63-1.7-.04-2.97-2.15-2.26-3.74-3.79,3.41-9.82,3.19-13.95,.36-4.12-2.84-9.27-14.47-9.27-14.47,.25-.29,.52-.56,.79-.82,3.21-3.15,7.69-4.81,12.09-4.71,2.23,.04,4.44,.54,6.45,1.53,5.68,2.8,9.32,9.29,9.07,15.75Z"/><path class="u" d="M158.64,147.5c-6.27,7.44-15.32,12.5-24.96,13.92,0,0-3.71,1.03-4.63-4.31-1.09-6.31-.39-12.74,1.52-18.84,.42-1.38,.91-2.73,1.45-4.07,.95-2.33,2.01-4.67,3.38-6.76,1.02-1.56,2.21-2.98,3.64-4.17,5.05-4.19,12.9-4.57,18.32-.88,3.77,2.56,6.14,6.92,6.57,11.43,.19,1.99,0,4.01-.62,5.92-.81,2.49-2.24,4.72-3.85,6.77-.27,.34-.54,.67-.82,.99Z"/><path class="u" d="M60.77,144.92c3.9,6.37,9.76,11.54,16.61,14.52,0,0,2.99,1.78,5.05-2.66,2.82-6.07,3.61-12.85,2.96-19.52-.04-.39-.08-.78-.13-1.17-.37-3.01-.92-6.08-2.18-8.81-.38-.83-.83-1.63-1.36-2.38-3.42-4.85-10.17-7.03-15.78-5.1-4.4,1.51-7.79,5.46-8.91,9.96-.31,1.23-.44,2.5-.38,3.77,.12,2.36,.84,4.65,1.77,6.82,.67,1.58,1.46,3.11,2.35,4.57Z"/><path class="u" d="M124.84,93.7c-.07,.25-.14,.49-.2,.74-.4,1.44-.77,2.9-.98,4.37-.19,1.28-.26,2.57-.13,3.86,.32,3.03,2.03,6.11,4.88,7.15,2.35,.85,5.1,.15,7.02-1.44,2.27-1.89,3.47-4.99,3.05-7.91-.26-1.88-1.19-3.66-2.54-5-.74-.73-1.61-1.33-2.57-1.75-2.71-1.19-6.01-.88-8.44,.8"/><path class="u" d="M79.21,92.24c-.91,.11-1.74,.55-2.41,1.19-.4,.37-.75,.82-1.01,1.3-.33,.6-.55,1.25-.69,1.93-.17,.75-.23,1.54-.22,2.32,.02,2.54,.72,5.12,2.23,7.17,1.51,2.04,3.87,3.5,6.41,3.66,2.54,.15,5.18-1.13,6.41-3.35,.42-.76,.67-1.6,.76-2.45,.16-1.52-.17-3.12-.86-4.49-1.08-2.15-2.94-3.82-4.99-5.09-1.2-.74-2.5-1.38-3.9-1.56-1.25-.16-2.6,.09-3.6,.84-.11,.09-.22,.18-.33,.28"/><path class="u" d="M115.39,108.32c1.74-3.89,4.67-7.23,8.27-9.51,1.43-.91,2.96-1.65,4.56-2.2,2.48-.85,5.11-1.22,7.72-1.14,3.34,.12,6.65,.98,9.59,2.57"/><path class="u" d="M94.36,109.32c-.85-2.14-2.12-3.85-3.67-5.31-2.09-1.96-4.69-3.46-7.45-4.9-2.52-1.32-5.31-2.14-8.14-2.45-2.55-.27-5.14-.12-7.63,.46"/><path class="u" d="M126.58,113.79c-.09,1.83-.17,3.67-.26,5.51"/><path class="u" d="M135.8,113.13l1.74,3.99"/><path class="u" d="M142.69,106.47c1.54,1.04,3.08,2.08,4.63,3.13"/><path class="u" d="M82.82,114.51l-1.02,3.87"/><path class="u" d="M74.29,111.43c-1.86,1.06-3.73,2.11-5.59,3.17"/><path class="u" d="M69.07,105.41c-1.51,.16-3.02,.32-4.52,.47"/><path class="u" d="M94.11,127.48c-3.67-.19-7.35-.26-11.03-.2-8.73,.14-17.45,.97-26.05,2.48-.88,.16-1.77,.32-2.65,.49-14.55,2.8-28.72,7.53-42,14.1"/><path class="u" d="M94.27,135.45c-2.98,.52-5.94,1.13-8.88,1.81-8.39,1.93-16.62,4.5-24.62,7.66-.07,.03-.15,.06-.23,.09-9.28,3.7-18.25,8.19-26.75,13.44"/><path class="u" d="M114.12,134.49c5.47,1.2,10.98,2.42,16.45,3.78,9.62,2.4,19.13,5.24,28.07,9.23,.3,.13,.61,.27,.91,.41,5.17,2.35,10.15,5.1,14.84,8.38"/><path class="u" d="M116.2,125.53c6.43,.33,12.84,.96,19.2,1.91,9.65,1.43,19.2,3.56,28.53,6.38,3.23,.98,6.44,2.03,9.62,3.17,4.6,1.65,9.15,3.47,13.62,5.45"/><path class="u" d="M173.38,27.35c.06,3.95-.33,18.89-.18,30.39,.04,3.15-.13,12.47-1.44,17.76-1.5,6.03-4.48,6.57-10.2,3.86-5.72-2.7-13.94-9.86-13.78-16.61,.06-2.68,.75-5.26,1.37-7.74,3.12-12.4,10.43-29.37,18.87-32.81,0,0,5.26-.55,5.36,5.15Z"/><path class="u" d="M127.3,81.03c.62,.26,1.31,.7,1.33,1.38,.02,.69-.65,1.18-1.25,1.53-3.58,2.1-7.22,4.09-10.91,5.97-1.15,.59-2.62,1.13-3.63,.33-.81-.66-.84-1.9-.63-2.93,.91-4.25,5.18-7.51,9.52-7.27,0,0,3.83,.26,5.57,.99Z"/><path class="u" d="M83.32,81.59c-.64,.21-1.36,.6-1.44,1.27-.08,.69,.55,1.23,1.12,1.63,3.4,2.38,6.86,4.66,10.39,6.83,1.1,.68,2.52,1.35,3.59,.62,.87-.59,1-1.82,.86-2.86-.56-4.31-4.55-7.91-8.89-8.02,0,0-3.84-.05-5.63,.53Z"/><path class="u" d="M108.58,147.76l7.57,.79c-1.43,3.47-2.86,6.94-4.3,10.4-1.84-3.45-2.97-7.29-3.27-11.19Z"/><path class="u" d="M103.2,167.17c.3,6.41,.6,12.82,.91,19.23,.06,1.3,.13,2.64,.7,3.8,1.45,2.96,5.34,3.58,8.63,3.66,3.78,.09,7.8-.11,10.91-2.25,3-2.06,4.67-5.64,5.2-9.25,.54-3.6,.08-7.26-.37-10.87-.27-2.14-.76-4.62-2.68-5.61-.57-.3-1.19-.42-1.84-.45-.59-.04-1.21,0-1.8,.04-5.57,.41-11.13,.81-16.7,1.22"/></g></g><g id="f"><path class="t" d="M90.38,520.1c3.09,40.03,3.8,106.26,3.52,170.97-1.01-1.64-2.16-3.2-3.48-4.68-4.79-5.35-12.13-9.18-19.34-9.55-6.24-.32-11.98,2.54-16.08,7.13-.93,1.04-1.78,2.13-2.56,3.28-1.45-73.62-3.13-140.76-3.47-161.16,0,0,.26-40.2,20.33-35.21,20.07,4.98,21.08,29.22,21.08,29.22Z"/></g><g id="g"><g><path class="t" d="M93.45,682.34c-.33,62.91-1.55,123.5-2.36,156.13l-1.91-.06c-9.1,3.08-19.38,2.54-28.1-1.49-2.09-.97-4.15-2.17-5.58-3.98l-1.5-.02c.18-.67,.28-1.37,.28-2.08-.2-43.88-1.11-99.96-2.15-153.2,3.39-6.89,8.74-12.69,16.7-13.06,6.71-.3,13.75,3.15,18.37,7.88,2.76,2.84,4.76,6.25,6.25,9.88Z"/><path class="v" d="M38.69,870.81l-.02,.02c-2.91-.63-4.85,.14-8.77-1.68-1.72-.8-3.32-2.49-4.42-4.56l-.76,.41c-6.55,2.38-12.71-4.36-13.25-11.32-.55-6.95,3.37-12.61,10.04-14.66,6.67-2.04,7.4-.78,19.97,1.92,4.46,.96,11.07-2.86,12.52-8.02l1.5,.02c1.43,1.81,3.49,3.01,5.58,3.98,8.72,4.03,19,4.57,28.1,1.49l1.91,.06c-.26,10.92-.48,18.71-.61,22.41-.13,3.97-.44,8.37-3.29,11.15-2.16,2.11-5.32,2.79-8.31,3.28-6.14,1-12.36,1.59-18.58,1.78-4.5,.13-9.09,.04-13.39-1.29-3.09-.96-6.06-2.63-8.22-4.99Z"/></g></g><g id="h"><path class="t" d="M176.25,528.95c3.09,40.03,3.8,106.26,3.52,170.97-1.01-1.64-2.16-3.2-3.48-4.68-4.79-5.35-12.13-9.18-19.34-9.55-6.24-.32-11.98,2.54-16.08,7.13-.93,1.04-1.78,2.13-2.56,3.28-1.45-73.62-3.13-140.76-3.47-161.16,0,0,.26-40.2,20.33-35.21,20.07,4.98,21.08,29.22,21.08,29.22Z"/></g><g id="i"><g><path class="t" d="M179.33,691.2c-.33,62.91-1.55,123.5-2.36,156.13l-1.91-.06c-9.1,3.08-19.38,2.54-28.1-1.49-2.09-.97-4.15-2.17-5.58-3.98l-1.5-.02c.18-.67,.28-1.37,.28-2.08-.2-43.88-1.11-99.96-2.15-153.2,3.39-6.89,8.74-12.69,16.7-13.06,6.71-.3,13.75,3.15,18.37,7.88,2.76,2.84,4.76,6.25,6.25,9.88Z"/><path class="v" d="M124.55,879.69c-2.91-.63-4.85,.14-8.77-1.68-1.72-.8-3.32-2.49-4.42-4.56l-.76,.41c-6.55,2.38-12.71-4.36-13.25-11.32-.55-6.95,3.37-12.61,10.04-14.66,6.67-2.04,7.4-.78,19.97,1.92,4.46,.96,11.07-2.86,12.52-8.02l1.5,.02c1.43,1.81,3.49,3.01,5.58,3.98,8.72,4.03,19,4.57,28.1,1.49l1.91,.06c-.26,10.92-.48,18.71-.61,22.41-.13,3.97-.44,8.37-3.29,11.15-2.16,2.11-5.32,2.79-8.31,3.28-6.14,1-12.36,1.59-18.58,1.78-4.5,.13-9.09,.04-13.39-1.29-3.09-.96-6.06-2.63-8.22-4.99l-.02,.02Z"/></g></g><g id="j"><path class="t" d="M20.5,318.82c7.97,.09,15.94-.15,23.92,.04,5.01-31.85,12.37-65.17,21.62-94.97,1.73-5.03,3.66-23.52-8.12-18.43-6.23,2.7-12.04,15.03-12.04,15.03-12.99,33.66-20.85,65.86-25.38,98.33Z"/></g><g id="k"><path class="t" d="M212.78,321.71c-7.97,.09-15.95-.15-23.92,.04-5.02-31.85-12.38-65.17-21.62-94.97-1.73-5.03-3.66-23.52,8.11-18.42,6.24,2.7,12.05,15.02,12.05,15.02,12.99,33.66,20.85,65.86,25.38,98.33Z"/></g><g id="l"><g><path class="t" d="M203.57,202.56c1.86,.72,1.95,3.32,.14,4.16-11.64,5.38-27.74,15.69-37.65,22.3-1.04-4.57-2.26-9.1-3.7-13.51l4.24-15.8,.09-.33c.71-2.58,1.39-5.1,2.04-7.57,.07-.26,.14-.52,.2-.77l.57-2.12,2.94,1.69,31.13,11.95Z"/><path class="t" d="M191.85,487.32c7.21,38.02,14.64,75.24,16.18,114.41-24.05,8-52.02,12.85-76.76,10.93-4.73-.37-9.64-.99-13.72-4.2-4.25-3.34-7.15-9.18-8.83-15.38-1.69-6.2-1.98-12.85-2.86-19.37-2.88-21.3-5.43-41.69-7.54-60.92,2.31,.26,4.66,.38,7.04,.36,2.41-.01,4.81-.04,7.22-.07,14.16-.21,29.34-1.02,40.6-9.33,13.32-9.82,17.4-27.26,19.67-43.31,3.8-26.88,5.52-51.33,6-73.31,.82,47.7,13,100.19,13,100.19Z"/><path class="t" d="M172.63,277.78c2.14,23.72,7.28,60.38,6.22,109.35-.48,21.98-2.2,46.43-6,73.31-2.27,16.05-6.35,33.49-19.67,43.31-11.26,8.31-26.44,9.12-40.6,9.33-2.41,.03-4.81,.06-7.22,.07-2.38,.02-4.73-.1-7.04-.36-3.09-28.11-5.24-53.72-6.15-75.99-.32-7.98-.49-15.54-.48-22.62l.17-1.23s0-.01,.01-.03c.81-2.04,46.38-117.46,70.32-197.9,.06,.16,.12,.33,.17,.49l-5.27,19.61s3.57-2.5,8.97-6.1c3.87,16.96,5.28,34.48,6.57,48.76Z"/><path class="t" d="M141.71,179.52c9.65,1.59,19.29,3.18,28.94,4.77-.54,2.19-1.11,4.44-1.72,6.75-.06,.25-.13,.51-.2,.77l-2.04,7.57-.09,.33c-1.37,4.93-2.84,10.04-4.41,15.31-1.66-5.03-3.62-9.91-5.95-14.52-3.57-7.07-8.46-14.11-15.08-18.37,.36-1.71,.55-2.61,.55-2.61Z"/><path class="t" d="M162.36,215.51c1.44,4.41,2.66,8.94,3.7,13.51-5.4,3.6-8.97,6.1-8.97,6.1l5.27-19.61Z"/><path class="t" d="M156.24,200.5c2.33,4.61,4.29,9.49,5.95,14.52-23.94,80.44-69.51,195.86-70.32,197.9,15.59-71.14,44.92-210.09,49.29-230.79,6.62,4.26,11.51,11.3,15.08,18.37Z"/><path class="s" d="M133.55,178.78c2.76,.7,5.29,1.85,7.61,3.35-4.37,20.7-33.7,159.65-49.29,230.79-.01,.02-.01,.03-.01,.03l-.17,1.23c-.01,7.08,.16,14.64,.48,22.62l-1.26,.05c-.33-7.26-.69-14.55-1.06-21.87l5.59-230.71c.4-.4,.81-.81,1.25-1.23,7.44-7.12,26.72-6.8,36.86-4.26Z"/><path class="t" d="M95.52,181.1l-.08,3.17c-6.42,6.43-8.34,10.82-12.18,19.6-5.19,11.86-10.04,31.72-14.44,56.37-1-25.24-.82-50.53,.54-75.76,8.72-1.12,17.44-2.25,26.16-3.38Z"/><path class="t" d="M95.44,184.27l-5.59,230.71c-11.95-50.74-18.99-102.63-21.03-154.73,0,0-.01,0,0,0,4.4-24.65,9.25-44.51,14.44-56.37,3.84-8.78,5.76-13.17,12.18-19.6Z"/><path class="t" d="M58.94,328.7c2.96-24.84,6.27-48.25,9.88-68.45,2.04,52.1,9.08,103.99,21.03,154.73,.37,7.32,.73,14.61,1.06,21.87,1.13,25.17,1.85,50.08,1.39,74.97-26.93-5.79-46.61-29.77-44.77-57.59,.85-12.75,1.82-25.89,2.89-39.18,0-.02,.01-.05,.01-.07v-.08l3.87-43.28,.04-.4c1.41-14.41,2.95-28.69,4.6-42.52Z"/><path class="t" d="M92.3,511.82c-.35,19.35-1.41,38.69-3.56,58.13-1.42,12.83-2.62,38.2-13.16,39.58-28.17,3.68-60-36.15-60-36.15-3.64-8,27.8-113.2,34.84-158.33-1.07,13.29-2.04,26.43-2.89,39.18-1.84,27.82,17.84,51.8,44.77,57.59Z"/><path class="t" d="M68.7,188.8l-.85,46.71c-14.01-10.56-39.82-33.7-39.95-35.06-.3-3.29,3.1-4.41,5.87-4.94,11.64-2.24,23.29-4.47,34.93-6.71Z"/></g><g><path class="u" d="M166.6,199.71l-4.24,15.8-5.27,19.61s3.57-2.5,8.97-6.1c9.91-6.61,26.01-16.92,37.65-22.3,1.81-.84,1.72-3.44-.14-4.16l-31.13-11.95-2.94-1.69-.57,2.12"/><line class="u" x1="168.73" y1="191.81" x2="166.69" y2="199.38"/><path class="u" d="M67.85,235.51c-14.01-10.56-39.82-33.7-39.95-35.06-.3-3.29,3.1-4.41,5.87-4.94,11.64-2.24,23.29-4.47,34.93-6.71l-.85,46.71Z"/><path class="u" d="M68.82,260.24c-1-25.24-.82-50.53,.54-75.76,8.72-1.12,17.44-2.25,26.16-3.38l-.08,3.17-5.59,230.71c-11.95-50.74-18.99-102.63-21.03-154.73"/><path class="u" d="M91.87,412.92c15.59-71.14,44.92-210.09,49.29-230.79,.36-1.71,.55-2.61,.55-2.61,9.65,1.59,19.29,3.18,28.94,4.77-.54,2.19-1.11,4.44-1.72,6.75-.06,.25-.13,.51-.2,.77-.65,2.47-1.33,4.99-2.04,7.57l-.09,.33c-1.37,4.93-2.84,10.04-4.41,15.31-23.94,80.44-69.51,195.86-70.32,197.9-.01,.02-.01,.03-.01,.03"/><path class="u" d="M91.69,414.18c-.01,7.08,.16,14.64,.48,22.62,.91,22.27,3.06,47.88,6.15,75.99,2.11,19.23,4.66,39.62,7.54,60.92,.88,6.52,1.17,13.17,2.86,19.37,1.68,6.2,4.58,12.04,8.83,15.38,4.08,3.21,8.99,3.83,13.72,4.2,24.74,1.92,52.71-2.93,76.76-10.93-1.54-39.17-8.97-76.39-16.18-114.41,0,0-12.18-52.49-13-100.19"/><line class="u" x1="50.44" y1="414.9" x2="54.3" y2="371.62"/><path class="u" d="M89.85,414.98c.37,7.32,.73,14.61,1.06,21.87,1.13,25.17,1.85,50.08,1.39,74.97-.35,19.35-1.41,38.69-3.56,58.13-1.42,12.83-2.62,38.2-13.16,39.58-28.17,3.68-60-36.15-60-36.15-3.64-8,27.8-113.2,34.84-158.33"/></g></g><g id="m"><g><path class="v" d="M15.98,436.54c-12.31,3.39-21.2,10.97-11.82,18.08,5.86,4.44,7.23-1.72,12.34-5.52-3.04,4.32-5.58,14.44,1.26,17.14,8.54,3.39,12.56-14.85,12.44-10.14-.21,8.57,12.24,20.35,16.01,7.26,.53-1.83-2.27-6.53-2.13-9.38,5.1,5.39,12.61,4.62,14.13-3.18,.72-3.7-6.98-11.28-13.29-11.76l-1.74-1.27c-1.18-.87-1.96-2.01-2.52-3.3l-.58,.29c-7.68,2.75-16.74,1.26-23.14-3.8l-1.11,.03c.05,1.84,.1,3.69,.15,5.55Z"/><path class="t" d="M20.82,313.91c-5.26,37.76-6,75.88-4.99,117.08l1.11-.03c6.4,5.06,15.46,6.55,23.14,3.8l.58-.29c-.55-1.28-.87-2.71-1.14-4.15-4.55-24.37-2.29-68.73,5.22-116.36-7.98-.19-15.95,.04-23.92-.05Z"/></g></g><g id="n"><g><path class="v" d="M217.29,439.44c12.31,3.39,21.2,10.96,11.82,18.07-5.86,4.44-7.23-1.71-12.34-5.51,3.04,4.32,5.58,14.43-1.26,17.14-8.55,3.38-12.56-14.85-12.44-10.15,.21,8.58-12.24,20.35-16.01,7.26-.53-1.82,2.26-6.53,2.13-9.38-5.1,5.39-12.61,4.62-14.13-3.17-.72-3.71,6.98-11.28,13.28-11.76l1.75-1.28c1.18-.86,1.96-2,2.51-3.29l.59,.29c7.68,2.74,16.73,1.26,23.14-3.81l1.11,.03c-.05,1.84-.1,3.7-.15,5.56Z"/><path class="t" d="M212.45,316.81c5.26,37.75,6,75.86,4.99,117.07l-1.11-.03c-6.41,5.07-15.46,6.55-23.14,3.81l-.59-.29c.55-1.29,.88-2.71,1.15-4.16,4.54-24.37,2.29-68.72-5.22-116.36,7.97-.19,15.95,.05,23.92-.04Z"/></g></g></g></g></g></svg>