<svg xmlns="http://www.w3.org/2000/svg" viewBox="0 0 176.06 168.36"><defs><style>.cls-1{fill:#f2a867;}.cls-2{fill:#d0afb9;}.cls-3{fill:#ed7d6c;}.cls-4{fill:#fff;}.cls-5{fill:#4f4644;}.cls-6{fill:#a5d28a;}.cls-7{fill:none;stroke:#232a54;stroke-miterlimit:10;stroke-width:3px;}</style></defs><g id="Layer_2" data-name="Layer 2"><g id="cecilia"><path class="cls-1" d="M71.37,127.28A14.77,14.77,0,0,0,70,124.9a13.76,13.76,0,0,0-24.69,4.86l-2.65.49c-3.24-11.13-5.05-25.67-5-44.22.07-19.2-2.51-44.91,6.78-71.15,1.61-4.56,4.16-12.32,8.67-13.35C58.43.31,78.85,38.68,82,55.08l.36,3.43c17.3-4.94,41.7,2.92,41.7,2.92,1.53-19.79,16.15-44,31.86-54.65,2.76-1.88,6.54-4.09,9.23-2,2.08,1.57,8.28,65.27-2.7,88.92,0,0,4.61,5.21,5.67,7.73s1.65,9.11-1.61,11.77c-2.27,1.85-4.47,2.24-5,5.23-.49,2.77,1.31,5.37,2.14,8.07A12.07,12.07,0,0,1,162,136.8c0,.06-.09.13-.15.19q-4.77-1.71-9.61-3.17a15.19,15.19,0,0,0-24.89-10.55,18.35,18.35,0,0,0-3.64,4.17,39.51,39.51,0,0,0-3.38,6.76c-.54,1.34-1,2.7-1.46,4.07a40.29,40.29,0,0,0-1.51,18.84c.92,5.34,4.63,4.31,4.63,4.31a40.76,40.76,0,0,0,25-13.92l.91.41a49.23,49.23,0,0,1-10.64,9c-10.19,6.23-24.93,9.24-33.9,9.81-16.71,1.07-37.65-2.2-49.48-14.91a39.78,39.78,0,0,1-5-6.75l.23-.1a36.83,36.83,0,0,0,16.6,14.53s3,1.78,5.06-2.66a37.56,37.56,0,0,0,3-19.52c0-.39-.08-.78-.13-1.17A29.65,29.65,0,0,0,71.37,127.28Zm9.53,20.41c1.53,3.24,3.59,7.52,5.13,10.75.54-3.36,1.37-8.24,2.79-11.33q-3.88.12-7.74.56H80.9Zm80.59-89.95c-.15-11.5.24-26.44.17-30.39a4.8,4.8,0,0,0-5.35-5.15c-8.44,3.44-15.75,20.41-18.87,32.81a35.23,35.23,0,0,0-1.37,7.74c-.17,6.75,8.06,13.91,13.78,16.61s8.7,2.17,10.2-3.86C161.36,70.21,161.53,60.89,161.49,57.74ZM135,99.37a13.23,13.23,0,0,0-1-1.44,17.55,17.55,0,0,0-18.08-5.77A15.92,15.92,0,0,0,113,93.35a17.58,17.58,0,0,0-9.32,15v.2l.1.39a2.7,2.7,0,1,0,4.94.69c3.28,4,9.52,4.83,14.26,2.68a13.75,13.75,0,0,0,3.38-2.44A74.1,74.1,0,0,0,135,99.37ZM115.67,83.94c.59-.35,1.27-.84,1.25-1.53s-.71-1.12-1.34-1.38A24.25,24.25,0,0,0,110,80a9.52,9.52,0,0,0-9.52,7.27,2.94,2.94,0,0,0,.63,2.93c1,.8,2.48.26,3.63-.33Q110.3,87.09,115.67,83.94Zm-15.53,75,4.29-10.4-7.56-.79A28.37,28.37,0,0,0,100.14,159Zm-2.36-33.49a1.11,1.11,0,0,0,0-1.06c-.29-.37-.93-.36-1.46-.31l-10.7,1s4,11.19,6.82,15.85ZM85.27,91.94a3,3,0,0,0,.86-2.86,9.52,9.52,0,0,0-8.89-8,24.56,24.56,0,0,0-5.63.53c-.65.21-1.36.6-1.44,1.27s.55,1.23,1.12,1.63q5.08,3.57,10.39,6.83C82.77,92,84.2,92.67,85.27,91.94ZM83,109.33A17.1,17.1,0,0,0,74,93.58a15.21,15.21,0,0,0-6.46-1.53,16.88,16.88,0,0,0-12.08,4.71c-.27.26-.54.53-.79.82,0,0,5.14,11.63,9.27,14.47s10.16,3,14-.36a2.76,2.76,0,0,0,2.26,3.74,2.84,2.84,0,0,0,2.53-3.63l.16-.36A16.6,16.6,0,0,0,83,109.33Z"/><path class="cls-2" d="M161.66,27.35c.07,3.95-.32,18.89-.17,30.39,0,3.15-.13,12.47-1.44,17.76-1.5,6-4.48,6.57-10.2,3.86S135.9,69.5,136.07,62.75A35.23,35.23,0,0,1,137.44,55c3.12-12.4,10.43-29.37,18.87-32.81A4.8,4.8,0,0,1,161.66,27.35Z"/><path class="cls-1" d="M161.83,137a10.5,10.5,0,0,1-8.83,4.19,46.76,46.76,0,0,1-5.16,6.73l-.91-.41q.42-.48.81-1a22.14,22.14,0,0,0,3.86-6.77,14.66,14.66,0,0,0,.62-5.92Q157.07,135.29,161.83,137Z"/><path class="cls-3" d="M152.22,133.82a14.66,14.66,0,0,1-.62,5.92,22.14,22.14,0,0,1-3.86,6.77q-.39.51-.81,1a169.36,169.36,0,0,0-28.08-9.23c.43-1.37.92-2.73,1.46-4.07a39.51,39.51,0,0,1,3.38-6.76A200.31,200.31,0,0,1,152.22,133.82Z"/><path class="cls-3" d="M145.65,122.39a15.71,15.71,0,0,1,6.57,11.43,200.31,200.31,0,0,0-28.53-6.38,18.35,18.35,0,0,1,3.64-4.17A15.69,15.69,0,0,1,145.65,122.39Z"/><path class="cls-3" d="M146.93,147.5a40.76,40.76,0,0,1-25,13.92s-3.71,1-4.63-4.31a40.29,40.29,0,0,1,1.51-18.84A169.36,169.36,0,0,1,146.93,147.5Z"/><path class="cls-4" d="M134,97.93a13.23,13.23,0,0,1,1,1.44,74.1,74.1,0,0,1-8.7,10.47l-2.59-1.46a8.91,8.91,0,0,0,3-7.91,8.8,8.8,0,0,0-2.55-5,21.8,21.8,0,0,1,9.6,2.57Z"/><path class="cls-5" d="M134,97.93l-.14.11a21.8,21.8,0,0,0-9.6-2.57,8.55,8.55,0,0,0-2.57-1.75,8.83,8.83,0,0,0-8.43.8l-.3-.08.21-.74-.18-.35a15.92,15.92,0,0,1,2.93-1.19A17.55,17.55,0,0,1,134,97.93Z"/><path class="cls-6" d="M126.77,100.47a8.91,8.91,0,0,1-3,7.91,7.38,7.38,0,0,1-7,1.44c-2.86-1-4.56-4.12-4.88-7.15a14.62,14.62,0,0,1,.13-3.85,21.1,21.1,0,0,1,4.56-2.21,21.71,21.71,0,0,1,7.71-1.14A8.8,8.8,0,0,1,126.77,100.47Z"/><path class="cls-4" d="M123.72,108.38l2.59,1.46a13.75,13.75,0,0,1-3.38,2.44c-4.74,2.15-11,1.35-14.26-2.68a2.7,2.7,0,1,1-4.94-.69l-.1-.39v-.2h.05a21.84,21.84,0,0,1,8.27-9.5,14.62,14.62,0,0,0-.13,3.85c.32,3,2,6.11,4.88,7.15A7.38,7.38,0,0,0,123.72,108.38Z"/><path class="cls-5" d="M124.22,95.47a21.71,21.71,0,0,0-7.71,1.14A21.1,21.1,0,0,0,112,98.82a36.85,36.85,0,0,1,1-4.38l.3.08a8.83,8.83,0,0,1,8.43-.8A8.55,8.55,0,0,1,124.22,95.47Z"/><path class="cls-5" d="M116.92,82.41c0,.69-.66,1.18-1.25,1.53q-5.37,3.15-10.91,6c-1.15.59-2.63,1.13-3.63.33a2.94,2.94,0,0,1-.63-2.93A9.52,9.52,0,0,1,110,80a24.25,24.25,0,0,1,5.56,1C116.21,81.29,116.89,81.73,116.92,82.41Z"/><path class="cls-5" d="M113,93.35l.18.35-.21.74a36.85,36.85,0,0,0-1,4.38,21.84,21.84,0,0,0-8.27,9.5h-.05A17.58,17.58,0,0,1,113,93.35Z"/><path class="cls-4" d="M104.43,148.55,100.14,159a28.37,28.37,0,0,1-3.27-11.19Z"/><path class="cls-5" d="M97.78,124.4a1.11,1.11,0,0,1,0,1.06L92.44,141c-2.79-4.66-6.82-15.85-6.82-15.85l10.7-1C96.85,124,97.49,124,97.78,124.4Z"/><path class="cls-4" d="M81.08,147.67l7.74-.56c-1.42,3.09-2.25,8-2.79,11.33-1.54-3.23-3.6-7.51-5.13-10.75Z"/><path class="cls-5" d="M86.13,89.08a3,3,0,0,1-.86,2.86c-1.07.73-2.5.06-3.59-.62q-5.3-3.25-10.39-6.83c-.57-.4-1.2-.94-1.12-1.63s.79-1.06,1.44-1.27a24.56,24.56,0,0,1,5.63-.53A9.52,9.52,0,0,1,86.13,89.08Z"/><path class="cls-5" d="M74,93.58A17.1,17.1,0,0,1,83,109.33h-.38A14.58,14.58,0,0,0,79,104a8.23,8.23,0,0,0-.86-4.49,13.26,13.26,0,0,0-5-5.09,10,10,0,0,0-3.9-1.56,5,5,0,0,0-3.61.84l-.54-.28a4.25,4.25,0,0,1,2.41-1.19v-.19A15.21,15.21,0,0,1,74,93.58Z"/><path class="cls-4" d="M82.64,109.32H83a16.6,16.6,0,0,1-.23,2.11l-.16.36a2.84,2.84,0,0,1-2.53,3.63,2.76,2.76,0,0,1-2.26-3.74c-3.79,3.41-9.83,3.19-14,.36s-9.27-14.47-9.27-14.47c.25-.29.52-.56.79-.82l.35.36a23,23,0,0,1,7.63-.46A10,10,0,0,0,63.17,99a12.27,12.27,0,0,0,2.22,7.17,8.89,8.89,0,0,0,6.42,3.66,7,7,0,0,0,6.41-3.35A6.48,6.48,0,0,0,79,104,14.58,14.58,0,0,1,82.64,109.32Z"/><path class="cls-5" d="M65.62,93.71a5,5,0,0,1,3.61-.84,10,10,0,0,1,3.9,1.56,13.26,13.26,0,0,1,5,5.09A8.23,8.23,0,0,1,79,104a33.15,33.15,0,0,0-7.45-4.9,23,23,0,0,0-8.14-2.45,6.65,6.65,0,0,1,.69-1.93,5.07,5.07,0,0,1,1-1.3Z"/><path class="cls-6" d="M71.53,99.11A33.15,33.15,0,0,1,79,104a6.48,6.48,0,0,1-.76,2.45,7,7,0,0,1-6.41,3.35,8.89,8.89,0,0,1-6.42-3.66A12.27,12.27,0,0,1,63.17,99a10,10,0,0,1,.22-2.32A23,23,0,0,1,71.53,99.11Z"/><path class="cls-3" d="M73.67,137.26a37.56,37.56,0,0,1-3,19.52c-2.06,4.44-5.06,2.66-5.06,2.66a36.83,36.83,0,0,1-16.6-14.53A172.21,172.21,0,0,1,73.67,137.26Z"/><path class="cls-3" d="M73.54,136.09c0,.39.09.78.13,1.17a172.21,172.21,0,0,0-24.61,7.65,35.06,35.06,0,0,1-2.35-4.56,20.05,20.05,0,0,1-1.77-6.82,12.93,12.93,0,0,1,.38-3.77,166.12,166.12,0,0,1,26.05-2.48A29.65,29.65,0,0,1,73.54,136.09Z"/><path class="cls-3" d="M70,124.9a14.77,14.77,0,0,1,1.36,2.38,166.12,166.12,0,0,0-26.05,2.48A13.76,13.76,0,0,1,70,124.9Z"/><path class="cls-5" d="M67.49,92.05v.19a4.25,4.25,0,0,0-2.41,1.19,5.07,5.07,0,0,0-1,1.3,6.65,6.65,0,0,0-.69,1.93,23,23,0,0,0-7.63.46l-.35-.36A16.88,16.88,0,0,1,67.49,92.05Z"/><path class="cls-1" d="M49.06,144.91l-.23.1a63,63,0,0,1-6.16-14.76l2.65-.49a12.93,12.93,0,0,0-.38,3.77,20.05,20.05,0,0,0,1.77,6.82A35.06,35.06,0,0,0,49.06,144.91Z"/><path class="cls-7" d="M69.68,64.91c4.67-2.65,8.47-5.21,12.64-6.4,17.3-4.94,41.7,2.92,41.7,2.92,1.53-19.79,16.15-44,31.86-54.65,2.76-1.88,6.54-4.09,9.23-2,2.08,1.57,8.28,65.27-2.7,88.92,0,0,4.61,5.21,5.67,7.73s1.65,9.11-1.61,11.77c-2.27,1.85-4.47,2.24-5,5.23-.49,2.77,1.31,5.37,2.14,8.07A12.07,12.07,0,0,1,162,136.8c0,.06-.09.13-.15.19a10.5,10.5,0,0,1-8.83,4.19,46.76,46.76,0,0,1-5.16,6.73,49.23,49.23,0,0,1-10.64,9c-10.19,6.23-24.93,9.24-33.9,9.81-16.71,1.07-37.65-2.2-49.48-14.91a39.78,39.78,0,0,1-5-6.75,63,63,0,0,1-6.16-14.76c-3.24-11.13-5.05-25.67-5-44.22.07-19.2-2.51-44.91,6.78-71.15,1.61-4.56,4.16-12.32,8.67-13.35C58.43.31,78.85,38.68,82,55.08l.36,3.43"/><path class="cls-7" d="M92.44,141l5.34-15.51a1.11,1.11,0,0,0,0-1.06c-.29-.37-.93-.36-1.46-.31l-10.7,1S89.65,136.31,92.44,141Z"/><path class="cls-7" d="M77.75,148.1c1-.15,2.1-.29,3.15-.41l.18,0q3.86-.43,7.74-.56a96.9,96.9,0,0,1,20,1.39"/><path class="cls-7" d="M81.08,147.67H80.9c1.53,3.24,3.59,7.52,5.13,10.75.54-3.36,1.37-8.24,2.79-11.33Z"/><path class="cls-7" d="M103.63,108.32v.2l.1.39a2.7,2.7,0,1,0,4.94.69c3.28,4,9.52,4.83,14.26,2.68a13.75,13.75,0,0,0,3.38-2.44A74.1,74.1,0,0,0,135,99.37a13.23,13.23,0,0,0-1-1.44,17.55,17.55,0,0,0-18.08-5.77A15.92,15.92,0,0,0,113,93.35,17.58,17.58,0,0,0,103.63,108.32Z"/><path class="cls-7" d="M83,109.33a16.6,16.6,0,0,1-.23,2.11l-.16.36a2.84,2.84,0,0,1-2.53,3.63,2.76,2.76,0,0,1-2.26-3.74c-3.79,3.41-9.83,3.19-14,.36s-9.27-14.47-9.27-14.47c.25-.29.52-.56.79-.82a16.88,16.88,0,0,1,12.08-4.71A15.21,15.21,0,0,1,74,93.58,17.1,17.1,0,0,1,83,109.33Z"/><path class="cls-7" d="M146.93,147.5a40.76,40.76,0,0,1-25,13.92s-3.71,1-4.63-4.31a40.29,40.29,0,0,1,1.51-18.84c.43-1.37.92-2.73,1.46-4.07a39.51,39.51,0,0,1,3.38-6.76,18.35,18.35,0,0,1,3.64-4.17,15.19,15.19,0,0,1,24.89,10.55,14.66,14.66,0,0,1-.62,5.92,22.14,22.14,0,0,1-3.86,6.77Q147.35,147,146.93,147.5Z"/><path class="cls-7" d="M49.06,144.91a36.83,36.83,0,0,0,16.6,14.53s3,1.78,5.06-2.66a37.56,37.56,0,0,0,3-19.52c0-.39-.08-.78-.13-1.17a29.65,29.65,0,0,0-2.17-8.81A14.77,14.77,0,0,0,70,124.9a13.76,13.76,0,0,0-24.69,4.86,12.93,12.93,0,0,0-.38,3.77,20.05,20.05,0,0,0,1.77,6.82A35.06,35.06,0,0,0,49.06,144.91Z"/><path class="cls-7" d="M113.13,93.7l-.21.74a36.85,36.85,0,0,0-1,4.38,14.62,14.62,0,0,0-.13,3.85c.32,3,2,6.11,4.88,7.15a7.38,7.38,0,0,0,7-1.44,8.91,8.91,0,0,0,3-7.91,8.8,8.8,0,0,0-2.55-5,8.55,8.55,0,0,0-2.57-1.75,8.83,8.83,0,0,0-8.43.8"/><path class="cls-7" d="M67.49,92.24a4.25,4.25,0,0,0-2.41,1.19,5.07,5.07,0,0,0-1,1.3,6.65,6.65,0,0,0-.69,1.93A10,10,0,0,0,63.17,99a12.27,12.27,0,0,0,2.22,7.17,8.89,8.89,0,0,0,6.42,3.66,7,7,0,0,0,6.41-3.35A6.48,6.48,0,0,0,79,104a8.23,8.23,0,0,0-.86-4.49,13.26,13.26,0,0,0-5-5.09,10,10,0,0,0-3.9-1.56,5,5,0,0,0-3.61.84l-.33.28"/><path class="cls-7" d="M103.68,108.32a21.84,21.84,0,0,1,8.27-9.5,21.1,21.1,0,0,1,4.56-2.21A21.87,21.87,0,0,1,133.82,98"/><path class="cls-7" d="M82.64,109.32A14.58,14.58,0,0,0,79,104a33.15,33.15,0,0,0-7.45-4.9,23,23,0,0,0-15.77-2"/><path class="cls-7" d="M114.87,113.79l-.27,5.51"/><path class="cls-7" d="M124.09,113.13l1.74,4"/><path class="cls-7" d="M131,106.47l4.63,3.13"/><path class="cls-7" d="M71.1,114.51c-.34,1.29-.67,2.58-1,3.87"/><path class="cls-7" d="M62.58,111.43,57,114.6"/><path class="cls-7" d="M57.36,105.41l-4.53.47"/><path class="cls-7" d="M82.4,127.48q-5.5-.28-11-.2a166.12,166.12,0,0,0-26.05,2.48l-2.65.49a165.21,165.21,0,0,0-42,14.1"/><path class="cls-7" d="M82.55,135.45c-3,.52-5.94,1.13-8.88,1.81a172.21,172.21,0,0,0-24.61,7.65l-.23.1a171.17,171.17,0,0,0-26.75,13.44"/><path class="cls-7" d="M102.41,134.49c5.47,1.2,11,2.42,16.44,3.78a169.36,169.36,0,0,1,28.08,9.23l.91.41a93.45,93.45,0,0,1,14.83,8.38"/><path class="cls-7" d="M104.49,125.53q9.65.5,19.2,1.91a200.31,200.31,0,0,1,28.53,6.38q4.84,1.47,9.61,3.17,6.91,2.47,13.63,5.45"/><path class="cls-7" d="M161.66,27.35c.07,3.95-.32,18.89-.17,30.39,0,3.15-.13,12.47-1.44,17.76-1.5,6-4.48,6.57-10.2,3.86S135.9,69.5,136.07,62.75A35.23,35.23,0,0,1,137.44,55c3.12-12.4,10.43-29.37,18.87-32.81A4.8,4.8,0,0,1,161.66,27.35Z"/><path class="cls-7" d="M115.58,81c.63.26,1.31.7,1.34,1.38s-.66,1.18-1.25,1.53q-5.37,3.15-10.91,6c-1.15.59-2.63,1.13-3.63.33a2.94,2.94,0,0,1-.63-2.93A9.52,9.52,0,0,1,110,80,24.25,24.25,0,0,1,115.58,81Z"/><path class="cls-7" d="M71.61,81.59c-.65.21-1.36.6-1.44,1.27s.55,1.23,1.12,1.63q5.08,3.57,10.39,6.83c1.09.68,2.52,1.35,3.59.62a3,3,0,0,0,.86-2.86,9.52,9.52,0,0,0-8.89-8A24.56,24.56,0,0,0,71.61,81.59Z"/><path class="cls-7" d="M96.87,147.76l7.56.79L100.14,159A28.37,28.37,0,0,1,96.87,147.76Z"/></g></g></svg>