<?xml version="1.0" encoding="UTF-8"?><svg xmlns="http://www.w3.org/2000/svg" viewBox="0 0 692.1 186.96"><defs><style>.d{fill:#9255a2;}.e,.f{fill:#fff;}.f{stroke:#f9f9f9;stroke-miterlimit:10;}.g{fill:#d283b7;}</style></defs><g id="a"/><g id="b"><g id="c"><g><path class="f" d="M146.9,136.12c-7.96,24.66-25.94,50.34-68.58,50.34C25.93,186.46,.5,145.11,.5,94.51S25.93,.5,79.87,.5c34.93,0,59.08,20.03,66.78,52.91h0c-3.11,0-5.87-1.99-6.84-4.94-8.56-26.01-29.47-43.1-59.94-43.1C27.98,5.38,5.89,46.99,5.89,94.51c0,44.95,22.35,87.07,72.69,87.07,32.71,0,51.69-17.35,61.14-40.65,1.18-2.92,4.03-4.82,7.19-4.82h0Z"/><path class="f" d="M402.36,128.04c5.04,24.92,19.58,37.38,48.66,37.38s44.21-15.43,44.21-34.12-7.71-29.67-45.69-39.76c-37.09-9.79-45.39-20.47-45.39-39.46s14.24-35.9,45.69-35.9,46.58,17.8,48.95,40.05h-5.93c-2.37-16.32-13.05-34.71-43.32-34.71-28.48,0-39.46,14.83-39.46,29.97,0,17.21,8.01,26.41,41.83,35.01,38.57,9.79,49.55,22.55,49.55,44.21,0,24.63-19.88,40.05-50.44,40.05-34.71,0-50.44-16.62-54.59-42.72h5.93Z"/><path class="f" d="M509.45,4.67h5.05V85.15h117.06V4.67h5.05V182.29h0c-2.79,0-5.05-2.26-5.05-5.05V89.7h-117.06v87.54c0,2.79-2.26,5.05-5.05,5.05h0V4.67Z"/><path class="e" d="M359.5,118.22h-70.8l-19.05,54.17c-1.67,4.76-6.17,7.94-11.21,7.94h0L320.55,6.63h7.37l62.11,173.7h0c-5.36,0-10.13-3.39-11.88-8.45l-18.64-53.66Zm-2.63-7.37l-12.11-34.74c-3.68-10.53-7.15-20.53-10.4-30-3.25-9.47-6.45-19.65-9.61-30.53h-1.05c-3.16,10.88-6.36,21.05-9.61,30.53-3.25,9.47-6.71,19.48-10.4,30l-12.37,34.74h65.53Z"/><path class="e" d="M244.48,159.17l-36.79-61.71h-32.69v68.92h-7.07V20.58h40.2c7.21,0,13.7,.7,19.44,2.1,5.74,1.4,10.64,3.61,14.69,6.63,4.05,3.02,7.18,6.89,9.39,11.6,2.21,4.71,3.31,10.46,3.31,17.23,0,11.64-3.5,20.73-10.49,27.28-7,6.55-16.61,10.42-28.83,11.6l41.53,69.36h0c-5.21,0-10.03-2.74-12.69-7.21Zm-39-67.9c13.55,0,23.93-2.69,31.15-8.06,7.21-5.37,10.82-13.73,10.82-25.07s-3.61-19.58-10.82-24.3c-7.22-4.71-17.6-7.07-31.15-7.07h-30.49V91.27h30.49Z"/><path class="e" d="M677.33,113.81h0c-1.59,0-2.88-.99-2.88-2.21V24.68c0-1.22,1.29-2.21,2.88-2.21h0c1.59,0,2.88,.99,2.88,2.21V111.6c0,1.22-1.29,2.21-2.88,2.21Z"/><g><g><path class="g" d="M677.33,126.37s33.24,4.89,0,38.12"/><path class="g" d="M677.33,164.49c-33.24-33.24,0-38.12,0-38.12"/></g><g><path class="d" d="M677.33,126.37s33.24,4.89,0,38.12"/><path class="d" d="M677.33,164.49c-33.24-33.24,0-38.12,0-38.12"/></g></g></g></g></g></svg>