<?xml version="1.0" encoding="UTF-8"?><svg xmlns="http://www.w3.org/2000/svg" viewBox="0 0 604.04 358.74"><defs><style>.d{fill:#9255a2;}.e{fill:#fff;}</style></defs><g id="a"/><g id="b"><g id="c"><g><path class="d" d="M593.04,232.89c-.5,93.33-132.76,125.84-296.52,125.84S.61,326.22,0,232.89C-.79,110.64,132.76,63.9,296.52,63.9s297.31,22.77,296.52,168.99Z"/><path class="d" d="M479.64,119.91c0,90.52-83.66,2.6-83.66,2.6,0,0,242.02-153.12,204.01-116.99l-120.35,114.39Z"/><g><path class="e" d="M79.55,212.41c-.86-.1-1.42-.55-1.66-1.37l-11.52-48.82c-.14-.48-.08-.92,.18-1.33,.26-.41,.64-.68,1.12-.83,.53-.1,1-.01,1.4,.25,.41,.26,.66,.64,.76,1.12l10.22,43.2,12.31-31.46c.29-.77,.84-1.15,1.66-1.15,.86,0,1.44,.38,1.73,1.15l12.31,31.46,10.15-43.27c.1-.48,.36-.85,.79-1.12s.89-.32,1.37-.18c.48,.1,.85,.35,1.12,.76,.26,.41,.32,.88,.18,1.4l-11.52,48.82c-.14,.82-.67,1.27-1.58,1.37-.91,.1-1.51-.29-1.8-1.15l-12.74-32.54-12.67,32.54c-.29,.86-.89,1.25-1.8,1.15Z"/><path class="e" d="M137.44,212.41c-4.08,0-7.3-1.4-9.65-4.21-2.35-2.81-3.53-6.61-3.53-11.41s1.18-8.66,3.53-11.45c2.35-2.78,5.57-4.18,9.65-4.18,3.55,0,6.54,1.22,8.96,3.67,2.42,2.45,3.73,5.76,3.92,9.94v.22c0,.43-.17,.82-.5,1.15-.29,.34-.7,.5-1.22,.5h-20.88c0,3.7,.78,6.67,2.34,8.93,1.56,2.26,4.02,3.38,7.38,3.38,1.73,0,3.35-.37,4.86-1.12,1.51-.74,2.68-1.72,3.49-2.92,.29-.38,.66-.62,1.12-.72,.46-.09,.88,0,1.26,.29,.38,.24,.62,.6,.72,1.08,.1,.48,0,.91-.29,1.3-1.15,1.68-2.73,3.02-4.72,4.03-1.99,1.01-4.14,1.51-6.44,1.51Zm-9.5-19.15h18.65c-.48-2.74-1.52-4.85-3.13-6.34-1.61-1.49-3.61-2.23-6.01-2.23-2.59,0-4.69,.75-6.3,2.23-1.61,1.49-2.68,3.6-3.2,6.34Z"/><path class="e" d="M166.17,212.05c-1.92,0-3.47-.56-4.64-1.69-1.18-1.13-1.76-2.63-1.76-4.5v-45.29c0-.48,.17-.89,.5-1.22,.34-.33,.74-.5,1.22-.5s.89,.17,1.22,.5c.33,.34,.5,.75,.5,1.22v45.29c0,.19,.04,.52,.11,.97,.07,.46,.32,.86,.76,1.22,.43,.36,1.13,.54,2.09,.54h5.69c.48,0,.89,.17,1.22,.5,.33,.34,.5,.75,.5,1.22s-.17,.89-.5,1.22c-.34,.33-.75,.5-1.22,.5h-5.69Z"/><path class="e" d="M186.83,212.05c-1.92,0-3.47-.56-4.64-1.69-1.18-1.13-1.76-2.63-1.76-4.5v-45.29c0-.48,.17-.89,.5-1.22,.34-.33,.74-.5,1.22-.5s.89,.17,1.22,.5c.33,.34,.5,.75,.5,1.22v45.29c0,.19,.04,.52,.11,.97,.07,.46,.32,.86,.76,1.22,.43,.36,1.13,.54,2.09,.54h5.69c.48,0,.89,.17,1.22,.5,.33,.34,.5,.75,.5,1.22s-.17,.89-.5,1.22c-.34,.33-.75,.5-1.22,.5h-5.69Z"/><path class="e" d="M202.81,222.13c-.48,0-.89-.16-1.22-.47-.34-.31-.5-.71-.5-1.19,0-.53,.17-.95,.5-1.26,.34-.31,.74-.47,1.22-.47,1.34,0,2.27-.28,2.77-.83,.5-.55,.76-1.5,.76-2.84v-2.74c-.1,0-.18,.01-.25,.04-.07,.02-.16,.04-.25,.04-1.2,0-2.16-.44-2.88-1.33-.72-.89-1.08-1.93-1.08-3.13s.36-2.3,1.08-3.17c.72-.86,1.68-1.3,2.88-1.3s2.15,.43,2.84,1.3c.7,.86,1.04,1.92,1.04,3.17v7.13c0,4.7-2.3,7.06-6.91,7.06Z"/><path class="e" d="M244.21,212.41c-.86-.1-1.37-.55-1.51-1.37l-5.33-27.86c-.05-.48,.05-.92,.29-1.33,.24-.41,.6-.66,1.08-.76,.48-.05,.91,.06,1.3,.32,.38,.26,.62,.61,.72,1.04l4.32,22.68,7.13-15.48c.34-.67,.86-1.01,1.58-1.01s1.25,.34,1.58,1.01l7.13,15.48,4.25-22.54c.1-.48,.34-.85,.72-1.12,.38-.26,.82-.35,1.3-.25,.48,.05,.85,.28,1.12,.68,.26,.41,.35,.85,.25,1.33l-5.33,27.79c-.14,.82-.62,1.27-1.44,1.37-.86,.1-1.46-.24-1.8-1.01l-7.78-16.92-7.85,16.92c-.34,.77-.91,1.1-1.73,1.01Z"/><path class="e" d="M280,212.48c-.48,0-.89-.16-1.22-.47-.34-.31-.5-.71-.5-1.19v-50.33c0-.48,.17-.89,.5-1.22,.34-.33,.74-.5,1.22-.5s.89,.17,1.22,.5c.33,.34,.5,.75,.5,1.22v24.62c1.1-1.25,2.42-2.22,3.96-2.92,1.54-.7,3.19-1.04,4.97-1.04,3.31,0,5.92,1.09,7.81,3.28,1.9,2.18,2.84,5.12,2.84,8.82v17.5c0,.48-.16,.88-.47,1.19-.31,.31-.71,.47-1.19,.47s-.89-.16-1.22-.47c-.34-.31-.5-.71-.5-1.19v-17.5c0-1.1-.17-2.33-.5-3.67-.34-1.34-1.02-2.51-2.05-3.49-1.03-.98-2.6-1.48-4.72-1.48-2.5,0-4.61,.77-6.34,2.3-1.73,1.54-2.59,3.72-2.59,6.55v17.35c0,.48-.17,.88-.5,1.19-.34,.31-.74,.47-1.22,.47Z"/><path class="e" d="M331.84,212.48c-.48,0-.89-.16-1.22-.47-.34-.31-.5-.71-.5-1.19v-.58l-8.86,1.73c-2.21,.43-4.08,.55-5.62,.36-1.54-.19-2.83-.67-3.89-1.44-.77-.62-1.38-1.4-1.84-2.34-.46-.94-.73-2-.83-3.2-.29-2.78,.32-5.08,1.84-6.88,1.51-1.8,3.85-2.96,7.02-3.49l12.17-2.09v-2.02c0-.96-.16-1.98-.47-3.06-.31-1.08-.95-1.88-1.91-2.41-.77-.48-1.75-.72-2.95-.72-2.98,0-6.65,1.34-11.02,4.03-.43,.24-.86,.3-1.3,.18-.43-.12-.77-.37-1.01-.76-.29-.43-.37-.88-.25-1.33,.12-.46,.37-.78,.76-.97,2.83-1.73,5.3-2.92,7.42-3.56,2.11-.65,3.91-.97,5.4-.97,1.01,0,1.88,.11,2.63,.32,.74,.22,1.38,.47,1.91,.76,1.39,.77,2.45,1.88,3.17,3.35,.72,1.46,1.08,3.18,1.08,5.15v19.94c0,.48-.16,.88-.47,1.19-.31,.31-.73,.47-1.26,.47Zm-11.16-3.96l9.43-1.73v-10.44l-11.52,1.94c-1.97,.34-3.4,.89-4.28,1.66-.89,.77-1.43,1.6-1.62,2.48-.19,.89-.26,1.74-.22,2.56,.14,1.49,.6,2.52,1.37,3.1,1.15,.86,3.43,1.01,6.84,.43Z"/><path class="e" d="M354.01,212.05c-1.97,0-3.52-.56-4.64-1.69-1.13-1.13-1.69-2.63-1.69-4.5v-20.23h-6.91c-.48,0-.88-.17-1.19-.5-.31-.34-.47-.74-.47-1.22s.16-.88,.47-1.19c.31-.31,.71-.47,1.19-.47h6.91v-10.58c0-.48,.16-.89,.47-1.22,.31-.33,.71-.5,1.19-.5s.89,.17,1.22,.5c.33,.34,.5,.75,.5,1.22v10.58h8.93c.48,0,.89,.16,1.22,.47,.34,.31,.5,.71,.5,1.19s-.17,.89-.5,1.22c-.34,.34-.74,.5-1.22,.5h-8.93v20.23c0,.19,.04,.52,.11,.97s.32,.86,.76,1.22c.43,.36,1.13,.54,2.09,.54h5.62c.53,0,.96,.17,1.3,.5,.34,.34,.5,.75,.5,1.22s-.17,.89-.5,1.22c-.34,.33-.77,.5-1.3,.5h-5.62Z"/><path class="e" d="M371.51,178.64c-.48,0-.89-.16-1.22-.47-.34-.31-.5-.71-.5-1.19,0-.53,.17-.95,.5-1.26,.34-.31,.74-.47,1.22-.47,1.34,0,2.27-.28,2.77-.83,.5-.55,.76-1.5,.76-2.84v-2.74c-.1,0-.18,.01-.25,.04-.07,.02-.16,.04-.25,.04-1.2,0-2.16-.44-2.88-1.33-.72-.89-1.08-1.93-1.08-3.13s.36-2.3,1.08-3.17c.72-.86,1.68-1.3,2.88-1.3s2.15,.43,2.84,1.3c.7,.86,1.04,1.92,1.04,3.17v7.13c0,4.7-2.3,7.06-6.91,7.06Z"/><path class="e" d="M389.72,212.41c-.48,0-.89-.17-1.22-.5-.34-.34-.5-.72-.5-1.15v-27.79c0-.48,.17-.89,.5-1.22,.34-.33,.74-.5,1.22-.5s.88,.17,1.19,.5c.31,.34,.47,.75,.47,1.22v1.8c.72-.86,1.73-1.62,3.02-2.27,1.3-.65,2.54-1.07,3.74-1.26,1.68-.24,3.38-.11,5.11,.4s3.28,1.36,4.64,2.56c1.37,1.2,2.31,2.78,2.84,4.75,.14,.43,.1,.85-.14,1.26-.24,.41-.58,.68-1.01,.83-.48,.1-.92,.03-1.33-.22-.41-.24-.66-.58-.76-1.01-.38-1.39-1.06-2.5-2.02-3.31-.96-.82-2.05-1.37-3.28-1.66-1.22-.29-2.41-.34-3.56-.14-2.06,.24-3.79,1.01-5.18,2.3-1.39,1.3-2.09,3.36-2.09,6.19v17.57c0,.43-.16,.82-.47,1.15-.31,.34-.71,.5-1.19,.5Z"/><path class="e" d="M430.04,212.41c-4.08,0-7.3-1.4-9.65-4.21-2.35-2.81-3.53-6.61-3.53-11.41s1.18-8.66,3.53-11.45c2.35-2.78,5.57-4.18,9.65-4.18,3.55,0,6.54,1.22,8.96,3.67,2.42,2.45,3.73,5.76,3.92,9.94v.22c0,.43-.17,.82-.5,1.15-.29,.34-.7,.5-1.22,.5h-20.88c0,3.7,.78,6.67,2.34,8.93,1.56,2.26,4.02,3.38,7.38,3.38,1.73,0,3.35-.37,4.86-1.12,1.51-.74,2.68-1.72,3.49-2.92,.29-.38,.66-.62,1.12-.72,.46-.09,.88,0,1.26,.29,.38,.24,.62,.6,.72,1.08,.1,.48,0,.91-.29,1.3-1.15,1.68-2.73,3.02-4.72,4.03-1.99,1.01-4.14,1.51-6.44,1.51Zm-9.5-19.15h18.65c-.48-2.74-1.52-4.85-3.13-6.34-1.61-1.49-3.61-2.23-6.01-2.23-2.59,0-4.69,.75-6.3,2.23-1.61,1.49-2.68,3.6-3.2,6.34Z"/><path class="e" d="M476.12,227.46c-.48-.19-.82-.5-1.01-.94-.19-.43-.19-.86,0-1.3l5.33-13.54-11.3-28.15c-.19-.43-.19-.86,0-1.3,.19-.43,.5-.74,.94-.94,.43-.14,.86-.13,1.3,.04,.43,.17,.74,.49,.94,.97l10.01,24.77,9.79-24.77c.19-.48,.49-.8,.9-.97,.41-.17,.85-.18,1.33-.04,.43,.19,.74,.5,.94,.94,.19,.43,.19,.86,0,1.3l-16.99,42.98c-.19,.43-.49,.73-.9,.9-.41,.17-.83,.18-1.26,.04Z"/><path class="e" d="M512.41,212.41c-4.08,0-7.3-1.4-9.65-4.21-2.35-2.81-3.53-6.61-3.53-11.41s1.18-8.66,3.53-11.45c2.35-2.78,5.57-4.18,9.65-4.18s7.24,1.39,9.61,4.18c2.38,2.78,3.56,6.6,3.56,11.45s-1.19,8.6-3.56,11.41c-2.38,2.81-5.58,4.21-9.61,4.21Zm0-3.46c3.12,0,5.52-1.06,7.2-3.17,1.68-2.11,2.52-5.11,2.52-9s-.84-6.81-2.52-8.93c-1.68-2.11-4.08-3.17-7.2-3.17s-5.47,1.06-7.2,3.17c-1.73,2.11-2.59,5.09-2.59,8.93s.86,6.89,2.59,9c1.73,2.11,4.13,3.17,7.2,3.17Z"/><path class="e" d="M543.73,212.41c-3.31,0-5.92-1.08-7.81-3.24-1.9-2.16-2.84-5.14-2.84-8.93v-17.21c0-.48,.16-.89,.47-1.22,.31-.33,.71-.5,1.19-.5s.89,.17,1.22,.5c.34,.34,.5,.75,.5,1.22v17.21c0,1.11,.17,2.34,.5,3.71,.33,1.37,1.02,2.56,2.05,3.56,1.03,1.01,2.6,1.51,4.72,1.51,2.83,0,5.03-.77,6.59-2.3,1.56-1.54,2.34-3.74,2.34-6.62v-17.14c0-.48,.17-.9,.5-1.26,.34-.36,.74-.54,1.22-.54s.88,.18,1.19,.54c.31,.36,.47,.78,.47,1.26v27.79c0,.48-.16,.88-.47,1.19-.31,.31-.71,.47-1.19,.47s-.89-.16-1.22-.47c-.34-.31-.5-.71-.5-1.19v-2.23c-1.1,1.2-2.41,2.15-3.92,2.84-1.51,.7-3.18,1.04-5,1.04Z"/><path class="e" d="M149.61,284.41c-.86-.1-1.37-.55-1.51-1.37l-5.33-27.86c-.05-.48,.05-.92,.29-1.33,.24-.41,.6-.66,1.08-.76,.48-.05,.91,.06,1.3,.32,.38,.26,.62,.61,.72,1.04l4.32,22.68,7.13-15.48c.34-.67,.86-1.01,1.58-1.01s1.25,.34,1.58,1.01l7.13,15.48,4.25-22.54c.1-.48,.34-.85,.72-1.12,.38-.26,.82-.35,1.3-.25,.48,.05,.85,.28,1.12,.68,.26,.41,.35,.85,.25,1.33l-5.33,27.79c-.14,.82-.62,1.27-1.44,1.37-.86,.1-1.46-.24-1.8-1.01l-7.78-16.92-7.85,16.92c-.34,.77-.91,1.1-1.73,1.01Z"/><path class="e" d="M203.25,284.48c-.48,0-.89-.16-1.22-.47-.34-.31-.5-.71-.5-1.19v-.58l-8.86,1.73c-2.21,.43-4.08,.55-5.62,.36-1.54-.19-2.83-.67-3.89-1.44-.77-.62-1.38-1.4-1.84-2.34-.46-.94-.73-2-.83-3.2-.29-2.78,.32-5.08,1.84-6.88,1.51-1.8,3.85-2.96,7.02-3.49l12.17-2.09v-2.02c0-.96-.16-1.98-.47-3.06-.31-1.08-.95-1.88-1.91-2.41-.77-.48-1.75-.72-2.95-.72-2.98,0-6.65,1.34-11.02,4.03-.43,.24-.86,.3-1.3,.18-.43-.12-.77-.37-1.01-.76-.29-.43-.37-.88-.25-1.33,.12-.46,.37-.78,.76-.97,2.83-1.73,5.3-2.92,7.42-3.56,2.11-.65,3.91-.97,5.4-.97,1.01,0,1.88,.11,2.63,.32,.74,.22,1.38,.47,1.91,.76,1.39,.77,2.45,1.88,3.17,3.35,.72,1.46,1.08,3.18,1.08,5.15v19.94c0,.48-.16,.88-.47,1.19-.31,.31-.73,.47-1.26,.47Zm-11.16-3.96l9.43-1.73v-10.44l-11.52,1.94c-1.97,.34-3.4,.89-4.28,1.66-.89,.77-1.43,1.6-1.62,2.48-.19,.89-.26,1.74-.22,2.56,.14,1.49,.6,2.52,1.37,3.1,1.15,.86,3.43,1.01,6.84,.43Z"/><path class="e" d="M222.18,284.48c-.48,0-.88-.16-1.19-.47-.31-.31-.47-.71-.47-1.19v-25.13h-8.28c-.48,0-.89-.18-1.22-.54-.34-.36-.5-.78-.5-1.26s.17-.88,.5-1.19c.34-.31,.74-.47,1.22-.47h9.94c.53,0,.96,.16,1.3,.47,.34,.31,.5,.71,.5,1.19v26.93c0,.48-.17,.88-.5,1.19-.34,.31-.77,.47-1.3,.47Zm-.86-43.27c-.67,0-1.22-.19-1.66-.58-.43-.38-.65-.82-.65-1.3v-4.46c0-.48,.22-.92,.65-1.33,.43-.41,.98-.61,1.66-.61s1.21,.21,1.62,.61c.41,.41,.61,.85,.61,1.33v4.46c0,.48-.21,.91-.61,1.3-.41,.38-.95,.58-1.62,.58Z"/><path class="e" d="M245.73,284.05c-1.97,0-3.52-.56-4.64-1.69-1.13-1.13-1.69-2.63-1.69-4.5v-20.23h-6.91c-.48,0-.88-.17-1.19-.5-.31-.34-.47-.74-.47-1.22s.16-.88,.47-1.19c.31-.31,.71-.47,1.19-.47h6.91v-10.58c0-.48,.16-.89,.47-1.22,.31-.33,.71-.5,1.19-.5s.89,.17,1.22,.5c.33,.34,.5,.75,.5,1.22v10.58h8.93c.48,0,.89,.16,1.22,.47,.34,.31,.5,.71,.5,1.19s-.17,.89-.5,1.22c-.34,.34-.74,.5-1.22,.5h-8.93v20.23c0,.19,.04,.52,.11,.97s.32,.86,.76,1.22c.43,.36,1.13,.54,2.09,.54h5.62c.53,0,.96,.17,1.3,.5,.34,.34,.5,.75,.5,1.22s-.17,.89-.5,1.22c-.34,.33-.77,.5-1.3,.5h-5.62Z"/><path class="e" d="M269.2,284.48c-.48,0-.88-.16-1.19-.47-.31-.31-.47-.71-.47-1.19v-25.13h-8.28c-.48,0-.89-.18-1.22-.54-.34-.36-.5-.78-.5-1.26s.17-.88,.5-1.19c.34-.31,.74-.47,1.22-.47h9.94c.53,0,.96,.16,1.3,.47,.34,.31,.5,.71,.5,1.19v26.93c0,.48-.17,.88-.5,1.19-.34,.31-.77,.47-1.3,.47Zm-.86-43.27c-.67,0-1.22-.19-1.66-.58-.43-.38-.65-.82-.65-1.3v-4.46c0-.48,.22-.92,.65-1.33,.43-.41,.98-.61,1.66-.61s1.21,.21,1.62,.61c.41,.41,.61,.85,.61,1.33v4.46c0,.48-.21,.91-.61,1.3-.41,.38-.95,.58-1.62,.58Z"/><path class="e" d="M282.16,284.41c-.48,0-.88-.16-1.19-.47-.31-.31-.47-.71-.47-1.19v-27.94c0-.48,.16-.89,.47-1.22,.31-.33,.71-.5,1.19-.5s.89,.17,1.22,.5c.34,.34,.5,.75,.5,1.22v2.38c1.1-1.25,2.42-2.23,3.96-2.95,1.54-.72,3.19-1.08,4.97-1.08,3.31,0,5.92,1.09,7.81,3.28,1.9,2.18,2.84,5.15,2.84,8.89v17.28c0,.48-.16,.89-.47,1.22-.31,.33-.71,.5-1.19,.5s-.89-.17-1.22-.5c-.34-.34-.5-.74-.5-1.22v-17.28c0-1.1-.17-2.33-.5-3.67-.34-1.34-1.02-2.51-2.05-3.49-1.03-.98-2.6-1.48-4.72-1.48-2.78,0-4.97,.77-6.55,2.3-1.58,1.54-2.38,3.72-2.38,6.55v17.21c0,.48-.17,.88-.5,1.19-.34,.31-.74,.47-1.22,.47Z"/><path class="e" d="M324.56,299.46c-2.54,0-4.74-.68-6.59-2.05-1.85-1.37-3.16-3.3-3.92-5.8-.14-.43-.12-.85,.07-1.26,.19-.41,.53-.68,1.01-.83,.48-.19,.92-.17,1.33,.07,.41,.24,.68,.58,.83,1.01,1.1,3.6,3.53,5.4,7.27,5.4,2.45,0,4.38-.89,5.8-2.66,1.42-1.78,2.12-4.2,2.12-7.27v-9.65c-2.11,2.26-5.09,3.38-8.93,3.38s-6.96-1.2-9.22-3.6c-2.26-2.4-3.38-5.64-3.38-9.72s1.13-7.31,3.38-9.68c2.26-2.38,5.33-3.56,9.22-3.56s6.86,1.15,8.93,3.46v-1.8c0-.48,.17-.9,.5-1.26,.34-.36,.74-.54,1.22-.54s.88,.18,1.19,.54c.31,.36,.47,.78,.47,1.26v31.18c0,3.94-1.03,7.15-3.1,9.65-2.06,2.5-4.8,3.74-8.21,3.74Zm-1.01-23.04c2.83,0,5.04-.83,6.62-2.48s2.38-4.14,2.38-7.45-.79-5.71-2.38-7.34c-1.58-1.63-3.79-2.45-6.62-2.45s-5.2,.85-6.8,2.56c-1.61,1.7-2.41,4.12-2.41,7.24s.8,5.62,2.41,7.34c1.61,1.73,3.88,2.59,6.8,2.59Z"/><path class="e" d="M369.49,284.48c-.48,0-.89-.16-1.22-.47-.34-.31-.5-.71-.5-1.19v-25.13h-5.18c-.48,0-.89-.18-1.22-.54-.34-.36-.5-.76-.5-1.19,0-.48,.17-.89,.5-1.22,.34-.34,.74-.5,1.22-.5h5.18v-10.58c0-7.06,3.58-10.58,10.73-10.58h4.25c.48,0,.88,.17,1.19,.5,.31,.34,.47,.75,.47,1.22s-.16,.89-.47,1.22c-.31,.34-.71,.5-1.19,.5h-4.25c-2.54,0-4.4,.57-5.58,1.69-1.18,1.13-1.76,2.94-1.76,5.44v10.58h11.66c.48,0,.89,.17,1.22,.5,.34,.34,.5,.74,.5,1.22,0,.43-.17,.83-.5,1.19-.34,.36-.74,.54-1.22,.54h-11.66v25.13c0,.48-.16,.88-.47,1.19-.31,.31-.71,.47-1.19,.47Z"/><path class="e" d="M400.38,284.41c-4.08,0-7.3-1.4-9.65-4.21-2.35-2.81-3.53-6.61-3.53-11.41s1.18-8.66,3.53-11.45c2.35-2.78,5.57-4.18,9.65-4.18s7.24,1.39,9.61,4.18c2.38,2.78,3.56,6.6,3.56,11.45s-1.19,8.6-3.56,11.41c-2.38,2.81-5.58,4.21-9.61,4.21Zm0-3.46c3.12,0,5.52-1.06,7.2-3.17,1.68-2.11,2.52-5.11,2.52-9s-.84-6.81-2.52-8.93c-1.68-2.11-4.08-3.17-7.2-3.17s-5.47,1.06-7.2,3.17c-1.73,2.11-2.59,5.09-2.59,8.93s.86,6.89,2.59,9c1.73,2.11,4.13,3.17,7.2,3.17Z"/><path class="e" d="M422.77,284.41c-.48,0-.89-.17-1.22-.5-.34-.34-.5-.72-.5-1.15v-27.79c0-.48,.17-.89,.5-1.22,.34-.33,.74-.5,1.22-.5s.88,.17,1.19,.5c.31,.34,.47,.75,.47,1.22v1.8c.72-.86,1.73-1.62,3.02-2.27,1.3-.65,2.54-1.07,3.74-1.26,1.68-.24,3.38-.11,5.11,.4s3.28,1.36,4.64,2.56c1.37,1.2,2.31,2.78,2.84,4.75,.14,.43,.1,.85-.14,1.26-.24,.41-.58,.68-1.01,.83-.48,.1-.92,.03-1.33-.22-.41-.24-.66-.58-.76-1.01-.38-1.39-1.06-2.5-2.02-3.31-.96-.82-2.05-1.37-3.28-1.66-1.22-.29-2.41-.34-3.56-.14-2.06,.24-3.79,1.01-5.18,2.3-1.39,1.3-2.09,3.36-2.09,6.19v17.57c0,.43-.16,.82-.47,1.15-.31,.34-.71,.5-1.19,.5Z"/><path class="e" d="M471.01,270.37c-2.59,0-4.82-.55-6.7-1.66-1.87-1.1-3.07-2.62-3.6-4.54-.14-.53-.24-1.27-.29-2.23-.05-.96,.16-2.08,.61-3.35,.46-1.27,1.31-2.65,2.56-4.14,1.25-1.49,3.07-3.02,5.47-4.61,3.17-2.11,5.2-4.15,6.08-6.12,.89-1.97,1.07-3.58,.54-4.82-.38-1.2-1.2-2.1-2.45-2.7-1.25-.6-2.71-.8-4.39-.61-5.86,.67-10.94,4.27-15.26,10.8-.24,.38-.61,.64-1.12,.76-.5,.12-.95,.06-1.33-.18-.43-.29-.7-.67-.79-1.15-.1-.48,0-.94,.29-1.37,2.4-3.79,5.1-6.72,8.1-8.78,3-2.06,6.25-3.29,9.76-3.67,2.54-.24,4.78,.16,6.7,1.19,1.92,1.03,3.24,2.53,3.96,4.5,.86,2.45,.59,5.03-.83,7.74-1.42,2.71-3.85,5.2-7.31,7.45-3.07,2.02-5.08,3.95-6.01,5.8-.94,1.85-1.24,3.35-.9,4.5,.38,1.1,1.19,1.98,2.41,2.63,1.22,.65,2.72,.97,4.5,.97,.53,0,.97,.17,1.33,.5,.36,.34,.54,.77,.54,1.3,0,.48-.18,.9-.54,1.26-.36,.36-.8,.54-1.33,.54Zm-4.18,14.11c-.82,0-1.44-.22-1.87-.65-.43-.43-.65-.89-.65-1.37v-3.74c0-.53,.22-1,.65-1.4,.43-.41,1.06-.61,1.87-.61s1.45,.2,1.91,.61c.46,.41,.68,.88,.68,1.4v3.74c0,.48-.23,.94-.68,1.37-.46,.43-1.09,.65-1.91,.65Z"/></g></g></g></g></svg>