<?xml version="1.0" encoding="UTF-8"?><svg xmlns="http://www.w3.org/2000/svg" viewBox="0 0 747.34 386.24"><defs><style>.d{fill:#9255a2;}.e{fill:#fff;}</style></defs><g id="a"/><g id="b"><g id="c"><g><path class="d" d="M636.58,251.15c-.54,100.18-142.5,135.08-318.29,135.08S.65,351.33,0,251.15C-.84,119.93,142.51,69.76,318.29,69.76s319.13,24.44,318.29,181.4Z"/><path class="d" d="M577.1,164.09c0,123.87-114.48,3.55-114.48,3.55,0,0,331.19-209.53,279.17-160.09l-164.69,156.54Z"/><g><path class="e" d="M79.53,208.6c-2.88,0-5.6-.5-8.16-1.5-2.56-1-4.68-2.4-6.36-4.2-.8-.68-.78-1.38,.06-2.1,.72-.64,1.4-.62,2.04,.06,1.4,1.48,3.2,2.64,5.4,3.48,2.2,.84,4.54,1.26,7.02,1.26,3.44,0,6.12-.7,8.04-2.1,1.92-1.4,2.88-3.34,2.88-5.82s-1-4.68-3-6.24c-2-1.56-5.12-2.66-9.36-3.3-4.12-.68-7.16-1.98-9.12-3.9-1.96-1.92-2.94-4.6-2.94-8.04s1.14-6.33,3.42-8.31c2.28-1.98,5.44-2.97,9.48-2.97,2.08,0,4.24,.4,6.48,1.2,2.24,.8,4.32,1.9,6.24,3.3,.76,.64,.84,1.34,.24,2.1-.6,.8-1.28,.9-2.04,.3-1.64-1.24-3.43-2.2-5.37-2.88-1.94-.68-3.79-1.02-5.55-1.02-3.12,0-5.55,.73-7.29,2.19-1.74,1.46-2.61,3.49-2.61,6.09s.77,4.57,2.31,6.03c1.54,1.46,3.95,2.45,7.23,2.97,5.12,.76,8.88,2.15,11.28,4.17,2.4,2.02,3.6,4.79,3.6,8.31s-1.22,6.07-3.66,8.01c-2.44,1.94-5.86,2.91-10.26,2.91Z"/><path class="e" d="M110.61,208.6c-3.4,0-6.08-1.17-8.04-3.51-1.96-2.34-2.94-5.51-2.94-9.51s.98-7.22,2.94-9.54c1.96-2.32,4.64-3.48,8.04-3.48s6.03,1.16,8.01,3.48c1.98,2.32,2.97,5.5,2.97,9.54s-.99,7.17-2.97,9.51c-1.98,2.34-4.65,3.51-8.01,3.51Zm0-2.88c2.6,0,4.6-.88,6-2.64,1.4-1.76,2.1-4.26,2.1-7.5s-.7-5.68-2.1-7.44c-1.4-1.76-3.4-2.64-6-2.64s-4.56,.88-6,2.64c-1.44,1.76-2.16,4.24-2.16,7.44s.72,5.74,2.16,7.5c1.44,1.76,3.44,2.64,6,2.64Z"/><path class="e" d="M150.45,208.3c-1.6,0-2.89-.47-3.87-1.41-.98-.94-1.47-2.19-1.47-3.75v-37.74c0-.4,.14-.74,.42-1.02s.62-.42,1.02-.42,.74,.14,1.02,.42c.28,.28,.42,.62,.42,1.02v37.74c0,.16,.03,.43,.09,.81,.06,.38,.27,.72,.63,1.02,.36,.3,.94,.45,1.74,.45h4.74c.4,0,.74,.14,1.02,.42,.28,.28,.42,.62,.42,1.02s-.14,.74-.42,1.02-.62,.42-1.02,.42h-4.74Z"/><path class="e" d="M171.63,208.6c-3.4,0-6.08-1.17-8.04-3.51-1.96-2.34-2.94-5.51-2.94-9.51s.98-7.22,2.94-9.54c1.96-2.32,4.64-3.48,8.04-3.48s6.03,1.16,8.01,3.48c1.98,2.32,2.97,5.5,2.97,9.54s-.99,7.17-2.97,9.51c-1.98,2.34-4.65,3.51-8.01,3.51Zm0-2.88c2.6,0,4.6-.88,6-2.64,1.4-1.76,2.1-4.26,2.1-7.5s-.7-5.68-2.1-7.44c-1.4-1.76-3.4-2.64-6-2.64s-4.56,.88-6,2.64c-1.44,1.76-2.16,4.24-2.16,7.44s.72,5.74,2.16,7.5c1.44,1.76,3.44,2.64,6,2.64Z"/><path class="e" d="M190.23,208.6c-.4,0-.73-.13-.99-.39s-.39-.59-.39-.99v-23.28c0-.4,.13-.74,.39-1.02,.26-.28,.59-.42,.99-.42s.74,.14,1.02,.42c.28,.28,.42,.62,.42,1.02v1.98c.92-1.04,2.02-1.86,3.3-2.46,1.28-.6,2.66-.9,4.14-.9,2.76,0,4.93,.91,6.51,2.73,1.58,1.82,2.37,4.29,2.37,7.41v14.4c0,.4-.13,.74-.39,1.02-.26,.28-.59,.42-.99,.42s-.74-.14-1.02-.42-.42-.62-.42-1.02v-14.4c0-.92-.14-1.94-.42-3.06-.28-1.12-.85-2.09-1.71-2.91-.86-.82-2.17-1.23-3.93-1.23-2.32,0-4.14,.64-5.46,1.92-1.32,1.28-1.98,3.1-1.98,5.46v14.34c0,.4-.14,.73-.42,.99-.28,.26-.62,.39-1.02,.39Z"/><path class="e" d="M225.57,221.14c-2.12,0-3.95-.57-5.49-1.71-1.54-1.14-2.63-2.75-3.27-4.83-.12-.36-.1-.71,.06-1.05,.16-.34,.44-.57,.84-.69,.4-.16,.77-.14,1.11,.06,.34,.2,.57,.48,.69,.84,.92,3,2.94,4.5,6.06,4.5,2.04,0,3.65-.74,4.83-2.22,1.18-1.48,1.77-3.5,1.77-6.06v-8.04c-1.76,1.88-4.24,2.82-7.44,2.82s-5.8-1-7.68-3c-1.88-2-2.82-4.7-2.82-8.1s.94-6.09,2.82-8.07c1.88-1.98,4.44-2.97,7.68-2.97s5.72,.96,7.44,2.88v-1.5c0-.4,.14-.75,.42-1.05,.28-.3,.62-.45,1.02-.45s.73,.15,.99,.45c.26,.3,.39,.65,.39,1.05v25.98c0,3.28-.86,5.96-2.58,8.04-1.72,2.08-4,3.12-6.84,3.12Zm-.84-19.2c2.36,0,4.2-.69,5.52-2.07,1.32-1.38,1.98-3.45,1.98-6.21s-.66-4.76-1.98-6.12c-1.32-1.36-3.16-2.04-5.52-2.04s-4.33,.71-5.67,2.13c-1.34,1.42-2.01,3.43-2.01,6.03s.67,4.68,2.01,6.12c1.34,1.44,3.23,2.16,5.67,2.16Z"/><path class="e" d="M244.35,216.7c-.4,0-.74-.13-1.02-.39-.28-.26-.42-.59-.42-.99,0-.44,.14-.79,.42-1.05,.28-.26,.62-.39,1.02-.39,1.12,0,1.89-.23,2.31-.69,.42-.46,.63-1.25,.63-2.37v-2.28c-.08,0-.15,0-.21,.03-.06,.02-.13,.03-.21,.03-1,0-1.8-.37-2.4-1.11-.6-.74-.9-1.61-.9-2.61s.3-1.92,.9-2.64,1.4-1.08,2.4-1.08,1.79,.36,2.37,1.08c.58,.72,.87,1.6,.87,2.64v5.94c0,3.92-1.92,5.88-5.76,5.88Z"/><path class="e" d="M275.67,221.2c-.4,0-.73-.14-.99-.42-.26-.28-.39-.62-.39-1.02v-35.76c0-.4,.13-.74,.39-1.02,.26-.28,.59-.42,.99-.42s.74,.14,1.02,.42c.28,.28,.42,.62,.42,1.02v2.22c.88-1.12,1.95-2.01,3.21-2.67,1.26-.66,2.73-.99,4.41-.99,3.4,0,6.08,1.16,8.04,3.48,1.96,2.32,2.94,5.5,2.94,9.54s-.98,7.17-2.94,9.51c-1.96,2.34-4.64,3.51-8.04,3.51-1.68,0-3.15-.32-4.41-.96-1.26-.64-2.33-1.52-3.21-2.64v14.76c0,.4-.14,.74-.42,1.02-.28,.28-.62,.42-1.02,.42Zm9.06-15.48c2.6,0,4.61-.88,6.03-2.64,1.42-1.76,2.13-4.26,2.13-7.5s-.71-5.68-2.13-7.44c-1.42-1.76-3.43-2.64-6.03-2.64-5.12,0-7.68,3.36-7.68,10.08s2.56,10.14,7.68,10.14Z"/><path class="e" d="M311.73,208.6c-3.4,0-6.08-1.17-8.04-3.51-1.96-2.34-2.94-5.51-2.94-9.51s.98-7.22,2.94-9.54c1.96-2.32,4.64-3.48,8.04-3.48s6.03,1.16,8.01,3.48c1.98,2.32,2.97,5.5,2.97,9.54s-.99,7.17-2.97,9.51c-1.98,2.34-4.65,3.51-8.01,3.51Zm0-2.88c2.6,0,4.6-.88,6-2.64,1.4-1.76,2.1-4.26,2.1-7.5s-.7-5.68-2.1-7.44c-1.4-1.76-3.4-2.64-6-2.64s-4.56,.88-6,2.64c-1.44,1.76-2.16,4.24-2.16,7.44s.72,5.74,2.16,7.5c1.44,1.76,3.44,2.64,6,2.64Z"/><path class="e" d="M338.73,208.6c-3.4,0-6.08-1.17-8.04-3.51-1.96-2.34-2.94-5.51-2.94-9.51s.98-7.22,2.94-9.54c1.96-2.32,4.64-3.48,8.04-3.48s6.03,1.16,8.01,3.48c1.98,2.32,2.97,5.5,2.97,9.54s-.99,7.17-2.97,9.51c-1.98,2.34-4.65,3.51-8.01,3.51Zm0-2.88c2.6,0,4.6-.88,6-2.64,1.4-1.76,2.1-4.26,2.1-7.5s-.7-5.68-2.1-7.44c-1.4-1.76-3.4-2.64-6-2.64s-4.56,.88-6,2.64c-1.44,1.76-2.16,4.24-2.16,7.44s.72,5.74,2.16,7.5c1.44,1.76,3.44,2.64,6,2.64Z"/><path class="e" d="M357.39,208.6c-.4,0-.74-.14-1.02-.42s-.42-.6-.42-.96v-23.16c0-.4,.14-.74,.42-1.02s.62-.42,1.02-.42,.73,.14,.99,.42c.26,.28,.39,.62,.39,1.02v1.5c.6-.72,1.44-1.35,2.52-1.89,1.08-.54,2.12-.89,3.12-1.05,1.4-.2,2.82-.09,4.26,.33s2.73,1.13,3.87,2.13c1.14,1,1.93,2.32,2.37,3.96,.12,.36,.08,.71-.12,1.05-.2,.34-.48,.57-.84,.69-.4,.08-.77,.02-1.11-.18-.34-.2-.55-.48-.63-.84-.32-1.16-.88-2.08-1.68-2.76-.8-.68-1.71-1.14-2.73-1.38s-2.01-.28-2.97-.12c-1.72,.2-3.16,.84-4.32,1.92-1.16,1.08-1.74,2.8-1.74,5.16v14.64c0,.36-.13,.68-.39,.96-.26,.28-.59,.42-.99,.42Z"/><path class="e" d="M406.29,208.6c-.64,0-1.08-.3-1.32-.9l-9.3-23.1c-.16-.36-.16-.72,0-1.08,.16-.36,.42-.62,.78-.78,.36-.12,.72-.11,1.08,.03,.36,.14,.62,.39,.78,.75l7.98,19.86,8.1-19.86c.16-.4,.42-.67,.78-.81,.36-.14,.72-.15,1.08-.03,.32,.16,.57,.42,.75,.78s.17,.72-.03,1.08l-9.3,23.16c-.24,.6-.7,.9-1.38,.9Z"/><path class="e" d="M430.17,208.66c-.4,0-.73-.13-.99-.39-.26-.26-.39-.59-.39-.99v-20.94h-6.9c-.4,0-.74-.15-1.02-.45-.28-.3-.42-.65-.42-1.05s.14-.73,.42-.99c.28-.26,.62-.39,1.02-.39h8.28c.44,0,.8,.13,1.08,.39,.28,.26,.42,.59,.42,.99v22.44c0,.4-.14,.73-.42,.99-.28,.26-.64,.39-1.08,.39Zm-.72-36.06c-.56,0-1.02-.16-1.38-.48-.36-.32-.54-.68-.54-1.08v-3.72c0-.4,.18-.77,.54-1.11,.36-.34,.82-.51,1.38-.51s1.01,.17,1.35,.51c.34,.34,.51,.71,.51,1.11v3.72c0,.4-.17,.76-.51,1.08-.34,.32-.79,.48-1.35,.48Z"/><path class="e" d="M449.97,208.6c-3.4,0-6.08-1.17-8.04-3.51-1.96-2.34-2.94-5.51-2.94-9.51s.98-7.22,2.94-9.54c1.96-2.32,4.64-3.48,8.04-3.48s5.96,1.14,7.92,3.42c.28,.28,.41,.62,.39,1.02-.02,.4-.19,.74-.51,1.02-.28,.24-.62,.35-1.02,.33-.4-.02-.74-.17-1.02-.45-1.36-1.6-3.28-2.4-5.76-2.4s-4.56,.88-6,2.64c-1.44,1.76-2.16,4.24-2.16,7.44s.72,5.74,2.16,7.5c1.44,1.76,3.44,2.64,6,2.64s4.44-.78,5.76-2.34c.28-.32,.62-.5,1.02-.54,.4-.04,.74,.08,1.02,.36,.32,.24,.49,.56,.51,.96,.02,.4-.11,.76-.39,1.08-2,2.24-4.64,3.36-7.92,3.36Z"/><path class="e" d="M473.79,208.3c-1.64,0-2.93-.47-3.87-1.41-.94-.94-1.41-2.19-1.41-3.75v-16.86h-5.76c-.4,0-.73-.14-.99-.42-.26-.28-.39-.62-.39-1.02s.13-.73,.39-.99c.26-.26,.59-.39,.99-.39h5.76v-8.82c0-.4,.13-.74,.39-1.02,.26-.28,.59-.42,.99-.42s.74,.14,1.02,.42c.28,.28,.42,.62,.42,1.02v8.82h7.44c.4,0,.74,.13,1.02,.39,.28,.26,.42,.59,.42,.99s-.14,.74-.42,1.02-.62,.42-1.02,.42h-7.44v16.86c0,.16,.03,.43,.09,.81,.06,.38,.27,.72,.63,1.02,.36,.3,.94,.45,1.74,.45h4.68c.44,0,.8,.14,1.08,.42,.28,.28,.42,.62,.42,1.02s-.14,.74-.42,1.02-.64,.42-1.08,.42h-4.68Z"/><path class="e" d="M493.35,208.66c-.4,0-.73-.13-.99-.39-.26-.26-.39-.59-.39-.99v-20.94h-6.9c-.4,0-.74-.15-1.02-.45-.28-.3-.42-.65-.42-1.05s.14-.73,.42-.99c.28-.26,.62-.39,1.02-.39h8.28c.44,0,.8,.13,1.08,.39,.28,.26,.42,.59,.42,.99v22.44c0,.4-.14,.73-.42,.99-.28,.26-.64,.39-1.08,.39Zm-.72-36.06c-.56,0-1.02-.16-1.38-.48-.36-.32-.54-.68-.54-1.08v-3.72c0-.4,.18-.77,.54-1.11,.36-.34,.82-.51,1.38-.51s1.01,.17,1.35,.51c.34,.34,.51,.71,.51,1.11v3.72c0,.4-.17,.76-.51,1.08-.34,.32-.79,.48-1.35,.48Z"/><path class="e" d="M504.14,208.66c-.4,0-.73-.14-.99-.42-.26-.28-.39-.6-.39-.96v-23.22c0-.36,.13-.69,.39-.99,.26-.3,.59-.45,.99-.45s.74,.15,1.02,.45c.28,.3,.42,.63,.42,.99v1.62c.88-.92,1.9-1.66,3.06-2.22,1.16-.56,2.4-.84,3.72-.84,1.64,0,3.08,.39,4.32,1.17,1.24,.78,2.2,1.87,2.88,3.27,.84-1.32,1.94-2.39,3.3-3.21,1.36-.82,2.88-1.23,4.56-1.23,2.56,0,4.59,.92,6.09,2.76,1.5,1.84,2.25,4.3,2.25,7.38v14.46c0,.36-.13,.68-.39,.96-.26,.28-.59,.42-.99,.42s-.74-.14-1.02-.42-.42-.6-.42-.96v-14.46c0-.56-.06-1.24-.18-2.04s-.36-1.6-.72-2.4c-.36-.8-.91-1.47-1.65-2.01-.74-.54-1.73-.81-2.97-.81-1.96,0-3.56,.69-4.8,2.07-1.24,1.38-1.86,3.11-1.86,5.19v14.46c0,.36-.13,.68-.39,.96-.26,.28-.59,.42-.99,.42s-.75-.14-1.05-.42c-.3-.28-.45-.6-.45-.96v-14.34c0-1.28-.19-2.48-.57-3.6-.38-1.12-.97-2.03-1.77-2.73-.8-.7-1.86-1.05-3.18-1.05-1.8,0-3.38,.55-4.74,1.65-1.36,1.1-2.04,2.53-2.04,4.29v15.84c0,.36-.14,.68-.42,.96-.28,.28-.62,.42-1.02,.42Z"/><path class="e" d="M546.98,208.6c-1,0-1.8-.37-2.4-1.11-.6-.74-.9-1.61-.9-2.61s.3-1.92,.9-2.64,1.4-1.08,2.4-1.08,1.85,.36,2.43,1.08c.58,.72,.87,1.6,.87,2.64s-.29,1.87-.87,2.61c-.58,.74-1.39,1.11-2.43,1.11Z"/><path class="e" d="M562.58,208.6c-1,0-1.8-.37-2.4-1.11-.6-.74-.9-1.61-.9-2.61s.3-1.92,.9-2.64,1.4-1.08,2.4-1.08,1.85,.36,2.43,1.08c.58,.72,.87,1.6,.87,2.64s-.29,1.87-.87,2.61c-.58,.74-1.39,1.11-2.43,1.11Z"/><path class="e" d="M578.18,208.6c-1,0-1.8-.37-2.4-1.11-.6-.74-.9-1.61-.9-2.61s.3-1.92,.9-2.64,1.4-1.08,2.4-1.08,1.85,.36,2.43,1.08c.58,.72,.87,1.6,.87,2.64s-.29,1.87-.87,2.61c-.58,.74-1.39,1.11-2.43,1.11Z"/><path class="e" d="M77.94,268.6c-2.88,0-5.6-.5-8.16-1.5-2.56-1-4.68-2.4-6.36-4.2-.8-.68-.78-1.38,.06-2.1,.72-.64,1.4-.62,2.04,.06,1.4,1.48,3.2,2.64,5.4,3.48,2.2,.84,4.54,1.26,7.02,1.26,3.44,0,6.12-.7,8.04-2.1,1.92-1.4,2.88-3.34,2.88-5.82s-1-4.68-3-6.24c-2-1.56-5.12-2.66-9.36-3.3-4.12-.68-7.16-1.98-9.12-3.9-1.96-1.92-2.94-4.6-2.94-8.04s1.14-6.33,3.42-8.31c2.28-1.98,5.44-2.97,9.48-2.97,2.08,0,4.24,.4,6.48,1.2,2.24,.8,4.32,1.9,6.24,3.3,.76,.64,.84,1.34,.24,2.1-.6,.8-1.28,.9-2.04,.3-1.64-1.24-3.43-2.2-5.37-2.88-1.94-.68-3.79-1.02-5.55-1.02-3.12,0-5.55,.73-7.29,2.19-1.74,1.46-2.61,3.49-2.61,6.09s.77,4.57,2.31,6.03c1.54,1.46,3.95,2.45,7.23,2.97,5.12,.76,8.88,2.15,11.28,4.17,2.4,2.02,3.6,4.79,3.6,8.31s-1.22,6.07-3.66,8.01c-2.44,1.94-5.86,2.91-10.26,2.91Z"/><path class="e" d="M101.16,268.66c-.4,0-.74-.13-1.02-.39-.28-.26-.42-.59-.42-.99v-41.94c0-.4,.14-.74,.42-1.02s.62-.42,1.02-.42,.74,.14,1.02,.42c.28,.28,.42,.62,.42,1.02v20.52c.92-1.04,2.02-1.85,3.3-2.43,1.28-.58,2.66-.87,4.14-.87,2.76,0,4.93,.91,6.51,2.73,1.58,1.82,2.37,4.27,2.37,7.35v14.58c0,.4-.13,.73-.39,.99-.26,.26-.59,.39-.99,.39s-.74-.13-1.02-.39c-.28-.26-.42-.59-.42-.99v-14.58c0-.92-.14-1.94-.42-3.06-.28-1.12-.85-2.09-1.71-2.91-.86-.82-2.17-1.23-3.93-1.23-2.08,0-3.84,.64-5.28,1.92-1.44,1.28-2.16,3.1-2.16,5.46v14.46c0,.4-.14,.73-.42,.99-.28,.26-.62,.39-1.02,.39Z"/><path class="e" d="M136.14,268.6c-3.4,0-6.08-1.17-8.04-3.51-1.96-2.34-2.94-5.51-2.94-9.51s.98-7.22,2.94-9.54c1.96-2.32,4.64-3.48,8.04-3.48s6.03,1.16,8.01,3.48c1.98,2.32,2.97,5.5,2.97,9.54s-.99,7.17-2.97,9.51c-1.98,2.34-4.65,3.51-8.01,3.51Zm0-2.88c2.6,0,4.6-.88,6-2.64,1.4-1.76,2.1-4.26,2.1-7.5s-.7-5.68-2.1-7.44c-1.4-1.76-3.4-2.64-6-2.64s-4.56,.88-6,2.64c-1.44,1.76-2.16,4.24-2.16,7.44s.72,5.74,2.16,7.5c1.44,1.76,3.44,2.64,6,2.64Z"/><path class="e" d="M162.24,268.6c-2.76,0-4.93-.9-6.51-2.7-1.58-1.8-2.37-4.28-2.37-7.44v-14.34c0-.4,.13-.74,.39-1.02,.26-.28,.59-.42,.99-.42s.74,.14,1.02,.42c.28,.28,.42,.62,.42,1.02v14.34c0,.92,.14,1.95,.42,3.09,.28,1.14,.85,2.13,1.71,2.97,.86,.84,2.17,1.26,3.93,1.26,2.36,0,4.19-.64,5.49-1.92,1.3-1.28,1.95-3.12,1.95-5.52v-14.28c0-.4,.14-.75,.42-1.05,.28-.3,.62-.45,1.02-.45s.73,.15,.99,.45c.26,.3,.39,.65,.39,1.05v23.16c0,.4-.13,.73-.39,.99-.26,.26-.59,.39-.99,.39s-.74-.13-1.02-.39c-.28-.26-.42-.59-.42-.99v-1.86c-.92,1-2.01,1.79-3.27,2.37-1.26,.58-2.65,.87-4.17,.87Z"/><path class="e" d="M185.76,268.3c-1.6,0-2.89-.47-3.87-1.41-.98-.94-1.47-2.19-1.47-3.75v-37.74c0-.4,.14-.74,.42-1.02s.62-.42,1.02-.42,.74,.14,1.02,.42c.28,.28,.42,.62,.42,1.02v37.74c0,.16,.03,.43,.09,.81,.06,.38,.27,.72,.63,1.02,.36,.3,.94,.45,1.74,.45h4.74c.4,0,.74,.14,1.02,.42,.28,.28,.42,.62,.42,1.02s-.14,.74-.42,1.02-.62,.42-1.02,.42h-4.74Z"/><path class="e" d="M216.24,268.66c-.4,0-.73-.13-.99-.39-.26-.26-.39-.59-.39-.99v-2.52c-.92,1.16-2.04,2.09-3.36,2.79-1.32,.7-2.84,1.05-4.56,1.05-3.4,0-6.08-1.17-8.04-3.51-1.96-2.34-2.94-5.51-2.94-9.51s.98-7.22,2.94-9.54c1.96-2.32,4.64-3.48,8.04-3.48,1.72,0,3.24,.36,4.56,1.08,1.32,.72,2.44,1.66,3.36,2.82v-21.06c0-.4,.13-.74,.39-1.02,.26-.28,.59-.42,.99-.42s.74,.14,1.02,.42c.28,.28,.42,.62,.42,1.02v41.88c0,.4-.14,.73-.42,.99-.28,.26-.62,.39-1.02,.39Zm-9.3-2.94c2.56,0,4.52-.88,5.88-2.64,1.36-1.76,2.04-4.26,2.04-7.5s-.68-5.68-2.04-7.44c-1.36-1.76-3.32-2.64-5.88-2.64s-4.56,.88-6,2.64c-1.44,1.76-2.16,4.24-2.16,7.44s.72,5.74,2.16,7.5c1.44,1.76,3.44,2.64,6,2.64Z"/><path class="e" d="M226.98,268.6c-.4,0-.73-.13-.99-.39s-.39-.59-.39-.99v-23.28c0-.4,.13-.74,.39-1.02,.26-.28,.59-.42,.99-.42s.74,.14,1.02,.42c.28,.28,.42,.62,.42,1.02v1.98c.92-1.04,2.02-1.86,3.3-2.46,1.28-.6,2.66-.9,4.14-.9,2.76,0,4.93,.91,6.51,2.73,1.58,1.82,2.37,4.29,2.37,7.41v14.4c0,.4-.13,.74-.39,1.02-.26,.28-.59,.42-.99,.42s-.74-.14-1.02-.42-.42-.62-.42-1.02v-14.4c0-.92-.14-1.94-.42-3.06-.28-1.12-.85-2.09-1.71-2.91-.86-.82-2.17-1.23-3.93-1.23-2.32,0-4.14,.64-5.46,1.92-1.32,1.28-1.98,3.1-1.98,5.46v14.34c0,.4-.14,.73-.42,.99-.28,.26-.62,.39-1.02,.39Z"/><path class="e" d="M251.7,240.46c-.4,0-.74-.13-1.02-.39-.28-.26-.42-.59-.42-.99,0-.44,.14-.79,.42-1.05,.28-.26,.62-.39,1.02-.39,1.12,0,1.89-.23,2.31-.69,.42-.46,.63-1.25,.63-2.37v-2.28c-.08,0-.15,0-.21,.03-.06,.02-.13,.03-.21,.03-1,0-1.8-.37-2.4-1.11-.6-.74-.9-1.61-.9-2.61s.3-1.92,.9-2.64c.6-.72,1.4-1.08,2.4-1.08s1.79,.36,2.37,1.08c.58,.72,.87,1.6,.87,2.64v5.94c0,3.92-1.92,5.88-5.76,5.88Z"/><path class="e" d="M275.64,268.3c-1.64,0-2.93-.47-3.87-1.41-.94-.94-1.41-2.19-1.41-3.75v-16.86h-5.76c-.4,0-.73-.14-.99-.42-.26-.28-.39-.62-.39-1.02s.13-.73,.39-.99c.26-.26,.59-.39,.99-.39h5.76v-8.82c0-.4,.13-.74,.39-1.02,.26-.28,.59-.42,.99-.42s.74,.14,1.02,.42c.28,.28,.42,.62,.42,1.02v8.82h7.44c.4,0,.74,.13,1.02,.39,.28,.26,.42,.59,.42,.99s-.14,.74-.42,1.02-.62,.42-1.02,.42h-7.44v16.86c0,.16,.03,.43,.09,.81,.06,.38,.27,.72,.63,1.02,.36,.3,.94,.45,1.74,.45h4.68c.44,0,.8,.14,1.08,.42,.28,.28,.42,.62,.42,1.02s-.14,.74-.42,1.02-.64,.42-1.08,.42h-4.68Z"/><path class="e" d="M308.46,268.6c-.72-.08-1.14-.46-1.26-1.14l-4.44-23.22c-.04-.4,.04-.77,.24-1.11,.2-.34,.5-.55,.9-.63,.4-.04,.76,.05,1.08,.27,.32,.22,.52,.51,.6,.87l3.6,18.9,5.94-12.9c.28-.56,.72-.84,1.32-.84s1.04,.28,1.32,.84l5.94,12.9,3.54-18.78c.08-.4,.28-.71,.6-.93,.32-.22,.68-.29,1.08-.21,.4,.04,.71,.23,.93,.57,.22,.34,.29,.71,.21,1.11l-4.44,23.16c-.12,.68-.52,1.06-1.2,1.14-.72,.08-1.22-.2-1.5-.84l-6.48-14.1-6.54,14.1c-.28,.64-.76,.92-1.44,.84Z"/><path class="e" d="M344.34,268.6c-3.4,0-6.08-1.17-8.04-3.51-1.96-2.34-2.94-5.51-2.94-9.51s.98-7.22,2.94-9.54c1.96-2.32,4.64-3.48,8.04-3.48,2.96,0,5.45,1.02,7.47,3.06,2.02,2.04,3.11,4.8,3.27,8.28v.18c0,.36-.14,.68-.42,.96-.24,.28-.58,.42-1.02,.42h-17.4c0,3.08,.65,5.56,1.95,7.44,1.3,1.88,3.35,2.82,6.15,2.82,1.44,0,2.79-.31,4.05-.93,1.26-.62,2.23-1.43,2.91-2.43,.24-.32,.55-.52,.93-.6,.38-.08,.73,0,1.05,.24,.32,.2,.52,.5,.6,.9,.08,.4,0,.76-.24,1.08-.96,1.4-2.27,2.52-3.93,3.36-1.66,.84-3.45,1.26-5.37,1.26Zm-7.92-15.96h15.54c-.4-2.28-1.27-4.04-2.61-5.28-1.34-1.24-3.01-1.86-5.01-1.86-2.16,0-3.91,.62-5.25,1.86-1.34,1.24-2.23,3-2.67,5.28Z"/><path class="e" d="M388.8,281.14c-2.12,0-3.95-.57-5.49-1.71-1.54-1.14-2.63-2.75-3.27-4.83-.12-.36-.1-.71,.06-1.05,.16-.34,.44-.57,.84-.69,.4-.16,.77-.14,1.11,.06,.34,.2,.57,.48,.69,.84,.92,3,2.94,4.5,6.06,4.5,2.04,0,3.65-.74,4.83-2.22,1.18-1.48,1.77-3.5,1.77-6.06v-8.04c-1.76,1.88-4.24,2.82-7.44,2.82s-5.8-1-7.68-3c-1.88-2-2.82-4.7-2.82-8.1s.94-6.09,2.82-8.07c1.88-1.98,4.44-2.97,7.68-2.97s5.72,.96,7.44,2.88v-1.5c0-.4,.14-.75,.42-1.05,.28-.3,.62-.45,1.02-.45s.73,.15,.99,.45c.26,.3,.39,.65,.39,1.05v25.98c0,3.28-.86,5.96-2.58,8.04-1.72,2.08-4,3.12-6.84,3.12Zm-.84-19.2c2.36,0,4.2-.69,5.52-2.07,1.32-1.38,1.98-3.45,1.98-6.21s-.66-4.76-1.98-6.12c-1.32-1.36-3.16-2.04-5.52-2.04s-4.33,.71-5.67,2.13c-1.34,1.42-2.01,3.43-2.01,6.03s.67,4.68,2.01,6.12c1.34,1.44,3.23,2.16,5.67,2.16Z"/><path class="e" d="M415.44,268.6c-3.4,0-6.08-1.17-8.04-3.51-1.96-2.34-2.94-5.51-2.94-9.51s.98-7.22,2.94-9.54c1.96-2.32,4.64-3.48,8.04-3.48s6.03,1.16,8.01,3.48c1.98,2.32,2.97,5.5,2.97,9.54s-.99,7.17-2.97,9.51c-1.98,2.34-4.65,3.51-8.01,3.51Zm0-2.88c2.6,0,4.6-.88,6-2.64,1.4-1.76,2.1-4.26,2.1-7.5s-.7-5.68-2.1-7.44c-1.4-1.76-3.4-2.64-6-2.64s-4.56,.88-6,2.64c-1.44,1.76-2.16,4.24-2.16,7.44s.72,5.74,2.16,7.5c1.44,1.76,3.44,2.64,6,2.64Z"/><path class="e" d="M459.06,268.3c-1.64,0-2.93-.47-3.87-1.41-.94-.94-1.41-2.19-1.41-3.75v-16.86h-5.76c-.4,0-.73-.14-.99-.42-.26-.28-.39-.62-.39-1.02s.13-.73,.39-.99c.26-.26,.59-.39,.99-.39h5.76v-8.82c0-.4,.13-.74,.39-1.02,.26-.28,.59-.42,.99-.42s.74,.14,1.02,.42c.28,.28,.42,.62,.42,1.02v8.82h7.44c.4,0,.74,.13,1.02,.39,.28,.26,.42,.59,.42,.99s-.14,.74-.42,1.02-.62,.42-1.02,.42h-7.44v16.86c0,.16,.03,.43,.09,.81,.06,.38,.27,.72,.63,1.02,.36,.3,.94,.45,1.74,.45h4.68c.44,0,.8,.14,1.08,.42,.28,.28,.42,.62,.42,1.02s-.14,.74-.42,1.02-.64,.42-1.08,.42h-4.68Z"/><path class="e" d="M480.3,268.6c-3.4,0-6.08-1.17-8.04-3.51-1.96-2.34-2.94-5.51-2.94-9.51s.98-7.22,2.94-9.54c1.96-2.32,4.64-3.48,8.04-3.48s6.03,1.16,8.01,3.48c1.98,2.32,2.97,5.5,2.97,9.54s-.99,7.17-2.97,9.51c-1.98,2.34-4.65,3.51-8.01,3.51Zm0-2.88c2.6,0,4.6-.88,6-2.64,1.4-1.76,2.1-4.26,2.1-7.5s-.7-5.68-2.1-7.44c-1.4-1.76-3.4-2.64-6-2.64s-4.56,.88-6,2.64c-1.44,1.76-2.16,4.24-2.16,7.44s.72,5.74,2.16,7.5c1.44,1.76,3.44,2.64,6,2.64Z"/><path class="e" d="M523.91,268.3c-1.64,0-2.93-.47-3.87-1.41-.94-.94-1.41-2.19-1.41-3.75v-16.86h-5.76c-.4,0-.73-.14-.99-.42-.26-.28-.39-.62-.39-1.02s.13-.73,.39-.99c.26-.26,.59-.39,.99-.39h5.76v-8.82c0-.4,.13-.74,.39-1.02,.26-.28,.59-.42,.99-.42s.74,.14,1.02,.42c.28,.28,.42,.62,.42,1.02v8.82h7.44c.4,0,.74,.13,1.02,.39,.28,.26,.42,.59,.42,.99s-.14,.74-.42,1.02-.62,.42-1.02,.42h-7.44v16.86c0,.16,.03,.43,.09,.81,.06,.38,.27,.72,.63,1.02,.36,.3,.94,.45,1.74,.45h4.68c.44,0,.8,.14,1.08,.42,.28,.28,.42,.62,.42,1.02s-.14,.74-.42,1.02-.64,.42-1.08,.42h-4.68Z"/><path class="e" d="M538.49,268.66c-.4,0-.74-.13-1.02-.39-.28-.26-.42-.59-.42-.99v-41.94c0-.4,.14-.74,.42-1.02s.62-.42,1.02-.42,.74,.14,1.02,.42c.28,.28,.42,.62,.42,1.02v20.52c.92-1.04,2.02-1.85,3.3-2.43,1.28-.58,2.66-.87,4.14-.87,2.76,0,4.93,.91,6.51,2.73,1.58,1.82,2.37,4.27,2.37,7.35v14.58c0,.4-.13,.73-.39,.99-.26,.26-.59,.39-.99,.39s-.74-.13-1.02-.39c-.28-.26-.42-.59-.42-.99v-14.58c0-.92-.14-1.94-.42-3.06-.28-1.12-.85-2.09-1.71-2.91-.86-.82-2.17-1.23-3.93-1.23-2.08,0-3.84,.64-5.28,1.92-1.44,1.28-2.16,3.1-2.16,5.46v14.46c0,.4-.14,.73-.42,.99-.28,.26-.62,.39-1.02,.39Z"/><path class="e" d="M573.47,268.6c-3.4,0-6.08-1.17-8.04-3.51-1.96-2.34-2.94-5.51-2.94-9.51s.98-7.22,2.94-9.54c1.96-2.32,4.64-3.48,8.04-3.48,2.96,0,5.45,1.02,7.47,3.06,2.02,2.04,3.11,4.8,3.27,8.28v.18c0,.36-.14,.68-.42,.96-.24,.28-.58,.42-1.02,.42h-17.4c0,3.08,.65,5.56,1.95,7.44,1.3,1.88,3.35,2.82,6.15,2.82,1.44,0,2.79-.31,4.05-.93,1.26-.62,2.23-1.43,2.91-2.43,.24-.32,.55-.52,.93-.6,.38-.08,.73,0,1.05,.24,.32,.2,.52,.5,.6,.9,.08,.4,0,.76-.24,1.08-.96,1.4-2.27,2.52-3.93,3.36-1.66,.84-3.45,1.26-5.37,1.26Zm-7.92-15.96h15.54c-.4-2.28-1.27-4.04-2.61-5.28-1.34-1.24-3.01-1.86-5.01-1.86-2.16,0-3.91,.62-5.25,1.86-1.34,1.24-2.23,3-2.67,5.28Z"/><path class="e" d="M218.73,328.3c-1.64,0-2.93-.47-3.87-1.41-.94-.94-1.41-2.19-1.41-3.75v-16.86h-5.76c-.4,0-.73-.14-.99-.42-.26-.28-.39-.62-.39-1.02s.13-.73,.39-.99c.26-.26,.59-.39,.99-.39h5.76v-8.82c0-.4,.13-.74,.39-1.02,.26-.28,.59-.42,.99-.42s.74,.14,1.02,.42c.28,.28,.42,.62,.42,1.02v8.82h7.44c.4,0,.74,.13,1.02,.39,.28,.26,.42,.59,.42,.99s-.14,.74-.42,1.02-.62,.42-1.02,.42h-7.44v16.86c0,.16,.03,.43,.09,.81,.06,.38,.27,.72,.63,1.02,.36,.3,.94,.45,1.74,.45h4.68c.44,0,.8,.14,1.08,.42,.28,.28,.42,.62,.42,1.02s-.14,.74-.42,1.02-.64,.42-1.08,.42h-4.68Z"/><path class="e" d="M238.29,328.66c-.4,0-.73-.13-.99-.39-.26-.26-.39-.59-.39-.99v-20.94h-6.9c-.4,0-.74-.15-1.02-.45-.28-.3-.42-.65-.42-1.05s.14-.73,.42-.99c.28-.26,.62-.39,1.02-.39h8.28c.44,0,.8,.13,1.08,.39,.28,.26,.42,.59,.42,.99v22.44c0,.4-.14,.73-.42,.99-.28,.26-.64,.39-1.08,.39Zm-.72-36.06c-.56,0-1.02-.16-1.38-.48-.36-.32-.54-.68-.54-1.08v-3.72c0-.4,.18-.77,.54-1.11,.36-.34,.82-.51,1.38-.51s1.01,.17,1.35,.51c.34,.34,.51,.71,.51,1.11v3.72c0,.4-.17,.76-.51,1.08-.34,.32-.79,.48-1.35,.48Z"/><path class="e" d="M257.91,328.3c-1.64,0-2.93-.47-3.87-1.41-.94-.94-1.41-2.19-1.41-3.75v-16.86h-5.76c-.4,0-.73-.14-.99-.42-.26-.28-.39-.62-.39-1.02s.13-.73,.39-.99c.26-.26,.59-.39,.99-.39h5.76v-8.82c0-.4,.13-.74,.39-1.02,.26-.28,.59-.42,.99-.42s.74,.14,1.02,.42c.28,.28,.42,.62,.42,1.02v8.82h7.44c.4,0,.74,.13,1.02,.39,.28,.26,.42,.59,.42,.99s-.14,.74-.42,1.02-.62,.42-1.02,.42h-7.44v16.86c0,.16,.03,.43,.09,.81,.06,.38,.27,.72,.63,1.02,.36,.3,.94,.45,1.74,.45h4.68c.44,0,.8,.14,1.08,.42,.28,.28,.42,.62,.42,1.02s-.14,.74-.42,1.02-.64,.42-1.08,.42h-4.68Z"/><path class="e" d="M276.39,328.3c-1.6,0-2.89-.47-3.87-1.41-.98-.94-1.47-2.19-1.47-3.75v-37.74c0-.4,.14-.74,.42-1.02s.62-.42,1.02-.42,.74,.14,1.02,.42c.28,.28,.42,.62,.42,1.02v37.74c0,.16,.03,.43,.09,.81,.06,.38,.27,.72,.63,1.02,.36,.3,.94,.45,1.74,.45h4.74c.4,0,.74,.14,1.02,.42,.28,.28,.42,.62,.42,1.02s-.14,.74-.42,1.02-.62,.42-1.02,.42h-4.74Z"/><path class="e" d="M297.57,328.6c-3.4,0-6.08-1.17-8.04-3.51-1.96-2.34-2.94-5.51-2.94-9.51s.98-7.22,2.94-9.54c1.96-2.32,4.64-3.48,8.04-3.48,2.96,0,5.45,1.02,7.47,3.06,2.02,2.04,3.11,4.8,3.27,8.28v.18c0,.36-.14,.68-.42,.96-.24,.28-.58,.42-1.02,.42h-17.4c0,3.08,.65,5.56,1.95,7.44,1.3,1.88,3.35,2.82,6.15,2.82,1.44,0,2.79-.31,4.05-.93,1.26-.62,2.23-1.43,2.91-2.43,.24-.32,.55-.52,.93-.6,.38-.08,.73,0,1.05,.24,.32,.2,.52,.5,.6,.9,.08,.4,0,.76-.24,1.08-.96,1.4-2.27,2.52-3.93,3.36-1.66,.84-3.45,1.26-5.37,1.26Zm-7.92-15.96h15.54c-.4-2.28-1.27-4.04-2.61-5.28-1.34-1.24-3.01-1.86-5.01-1.86-2.16,0-3.91,.62-5.25,1.86-1.34,1.24-2.23,3-2.67,5.28Z"/><path class="e" d="M332.67,328.6c-.4,0-.73-.13-.99-.39s-.39-.59-.39-.99v-23.28c0-.4,.13-.74,.39-1.02,.26-.28,.59-.42,.99-.42s.74,.14,1.02,.42c.28,.28,.42,.62,.42,1.02v1.98c.92-1.04,2.02-1.86,3.3-2.46,1.28-.6,2.66-.9,4.14-.9,2.76,0,4.93,.91,6.51,2.73,1.58,1.82,2.37,4.29,2.37,7.41v14.4c0,.4-.13,.74-.39,1.02-.26,.28-.59,.42-.99,.42s-.74-.14-1.02-.42-.42-.62-.42-1.02v-14.4c0-.92-.14-1.94-.42-3.06-.28-1.12-.85-2.09-1.71-2.91-.86-.82-2.17-1.23-3.93-1.23-2.32,0-4.14,.64-5.46,1.92-1.32,1.28-1.98,3.1-1.98,5.46v14.34c0,.4-.14,.73-.42,.99-.28,.26-.62,.39-1.02,.39Z"/><path class="e" d="M367.65,328.6c-3.4,0-6.08-1.17-8.04-3.51-1.96-2.34-2.94-5.51-2.94-9.51s.98-7.22,2.94-9.54c1.96-2.32,4.64-3.48,8.04-3.48s6.03,1.16,8.01,3.48c1.98,2.32,2.97,5.5,2.97,9.54s-.99,7.17-2.97,9.51c-1.98,2.34-4.65,3.51-8.01,3.51Zm0-2.88c2.6,0,4.6-.88,6-2.64,1.4-1.76,2.1-4.26,2.1-7.5s-.7-5.68-2.1-7.44c-1.4-1.76-3.4-2.64-6-2.64s-4.56,.88-6,2.64c-1.44,1.76-2.16,4.24-2.16,7.44s.72,5.74,2.16,7.5c1.44,1.76,3.44,2.64,6,2.64Z"/><path class="e" d="M387.63,328.6c-.72-.08-1.14-.46-1.26-1.14l-4.44-23.22c-.04-.4,.04-.77,.24-1.11,.2-.34,.5-.55,.9-.63,.4-.04,.76,.05,1.08,.27,.32,.22,.52,.51,.6,.87l3.6,18.9,5.94-12.9c.28-.56,.72-.84,1.32-.84s1.04,.28,1.32,.84l5.94,12.9,3.54-18.78c.08-.4,.28-.71,.6-.93,.32-.22,.68-.29,1.08-.21,.4,.04,.71,.23,.93,.57,.22,.34,.29,.71,.21,1.11l-4.44,23.16c-.12,.68-.52,1.06-1.2,1.14-.72,.08-1.22-.2-1.5-.84l-6.48-14.1-6.54,14.1c-.28,.64-.76,.92-1.44,.84Z"/><path class="e" d="M431.91,316.9c-2.16,0-4.02-.46-5.58-1.38-1.56-.92-2.56-2.18-3-3.78-.12-.44-.2-1.06-.24-1.86-.04-.8,.13-1.73,.51-2.79,.38-1.06,1.09-2.21,2.13-3.45,1.04-1.24,2.56-2.52,4.56-3.84,2.64-1.76,4.33-3.46,5.07-5.1,.74-1.64,.89-2.98,.45-4.02-.32-1-1-1.75-2.04-2.25-1.04-.5-2.26-.67-3.66-.51-4.88,.56-9.12,3.56-12.72,9-.2,.32-.51,.53-.93,.63-.42,.1-.79,.05-1.11-.15-.36-.24-.58-.56-.66-.96-.08-.4,0-.78,.24-1.14,2-3.16,4.25-5.6,6.75-7.32,2.5-1.72,5.21-2.74,8.13-3.06,2.12-.2,3.98,.13,5.58,.99,1.6,.86,2.7,2.11,3.3,3.75,.72,2.04,.49,4.19-.69,6.45-1.18,2.26-3.21,4.33-6.09,6.21-2.56,1.68-4.23,3.29-5.01,4.83-.78,1.54-1.03,2.79-.75,3.75,.32,.92,.99,1.65,2.01,2.19,1.02,.54,2.27,.81,3.75,.81,.44,0,.81,.14,1.11,.42,.3,.28,.45,.64,.45,1.08,0,.4-.15,.75-.45,1.05-.3,.3-.67,.45-1.11,.45Zm-3.48,11.76c-.68,0-1.2-.18-1.56-.54-.36-.36-.54-.74-.54-1.14v-3.12c0-.44,.18-.83,.54-1.17,.36-.34,.88-.51,1.56-.51s1.21,.17,1.59,.51c.38,.34,.57,.73,.57,1.17v3.12c0,.4-.19,.78-.57,1.14-.38,.36-.91,.54-1.59,.54Z"/></g></g></g></g></svg>