<?xml version="1.0" encoding="UTF-8"?><svg xmlns="http://www.w3.org/2000/svg" viewBox="0 0 1046.03 117.3"><defs><style>.d{fill:#fff;}</style></defs><g id="a"/><g id="b"><g id="c"><g><path class="d" d="M3.72,44.7c-.4,0-.75-.14-1.05-.42-.3-.28-.45-.62-.45-1.02V2.58c0-.44,.15-.81,.45-1.11,.3-.3,.65-.45,1.05-.45,.44,0,.8,.15,1.08,.45,.28,.3,.42,.67,.42,1.11V43.26c0,.4-.14,.74-.42,1.02-.28,.28-.64,.42-1.08,.42Z"/><path class="d" d="M24.54,44.4c-1.64,0-2.93-.47-3.87-1.41-.94-.94-1.41-2.19-1.41-3.75V22.38h-5.76c-.4,0-.73-.14-.99-.42-.26-.28-.39-.62-.39-1.02s.13-.73,.39-.99c.26-.26,.59-.39,.99-.39h5.76V10.74c0-.4,.13-.74,.39-1.02,.26-.28,.59-.42,.99-.42s.74,.14,1.02,.42c.28,.28,.42,.62,.42,1.02v8.82h7.44c.4,0,.74,.13,1.02,.39,.28,.26,.42,.59,.42,.99s-.14,.74-.42,1.02-.62,.42-1.02,.42h-7.44v16.86c0,.16,.03,.43,.09,.81,.06,.38,.27,.72,.63,1.02,.36,.3,.94,.45,1.74,.45h4.68c.44,0,.8,.14,1.08,.42,.28,.28,.42,.62,.42,1.02s-.14,.74-.42,1.02-.64,.42-1.08,.42h-4.68Z"/><path class="d" d="M39.12,16.56c-.4,0-.74-.13-1.02-.39-.28-.26-.42-.59-.42-.99,0-.44,.14-.79,.42-1.05,.28-.26,.62-.39,1.02-.39,1.12,0,1.89-.23,2.31-.69,.42-.46,.63-1.25,.63-2.37v-2.28c-.08,0-.15,0-.21,.03-.06,.02-.13,.03-.21,.03-1,0-1.8-.37-2.4-1.11-.6-.74-.9-1.61-.9-2.61s.3-1.92,.9-2.64c.6-.72,1.4-1.08,2.4-1.08s1.79,.36,2.37,1.08c.58,.72,.87,1.6,.87,2.64v5.94c0,3.92-1.92,5.88-5.76,5.88Z"/><path class="d" d="M56.58,44.7c-2.28,0-4.29-.5-6.03-1.5-1.74-1-2.97-2.34-3.69-4.02-.16-.36-.16-.72,0-1.08,.16-.36,.42-.62,.78-.78s.72-.16,1.08,0c.36,.16,.62,.42,.78,.78,.52,1.16,1.41,2.07,2.67,2.73,1.26,.66,2.73,.99,4.41,.99s3.06-.17,4.02-.51c.96-.34,1.65-.76,2.07-1.26,.42-.5,.68-1,.78-1.5,.1-.5,.15-.89,.15-1.17,0-.6-.14-1.18-.42-1.74-.28-.56-.88-1.09-1.8-1.59-.92-.5-2.34-.95-4.26-1.35-1.36-.28-2.77-.68-4.23-1.2-1.46-.52-2.69-1.25-3.69-2.19-1-.94-1.5-2.17-1.5-3.69,.04-2.04,.9-3.71,2.58-5.01,1.68-1.3,3.86-1.95,6.54-1.95,2,0,3.81,.43,5.43,1.29s2.81,2.03,3.57,3.51c.2,.32,.24,.67,.12,1.05-.12,.38-.34,.67-.66,.87-.4,.16-.78,.19-1.14,.09-.36-.1-.62-.33-.78-.69-.44-.8-1.2-1.53-2.28-2.19s-2.5-.99-4.26-.99c-1,0-1.98,.13-2.94,.39-.96,.26-1.75,.68-2.37,1.26-.62,.58-.95,1.39-.99,2.43,0,.24,.1,.61,.3,1.11,.2,.5,.8,1.03,1.8,1.59,1,.56,2.68,1.08,5.04,1.56,1.4,.28,2.77,.69,4.11,1.23,1.34,.54,2.46,1.3,3.36,2.28,.9,.98,1.33,2.29,1.29,3.93,0,.68-.12,1.44-.36,2.28-.24,.84-.7,1.64-1.38,2.4-.68,.76-1.67,1.39-2.97,1.89-1.3,.5-3.01,.75-5.13,.75Z"/><path class="d" d="M107.52,44.76c-.4,0-.74-.13-1.02-.39-.28-.26-.42-.59-.42-.99v-.48l-7.38,1.44c-1.84,.36-3.4,.46-4.68,.3-1.28-.16-2.36-.56-3.24-1.2-.64-.52-1.15-1.17-1.53-1.95-.38-.78-.61-1.67-.69-2.67-.24-2.32,.27-4.23,1.53-5.73,1.26-1.5,3.21-2.47,5.85-2.91l10.14-1.74v-1.68c0-.8-.13-1.65-.39-2.55-.26-.9-.79-1.57-1.59-2.01-.64-.4-1.46-.6-2.46-.6-2.48,0-5.54,1.12-9.18,3.36-.36,.2-.72,.25-1.08,.15-.36-.1-.64-.31-.84-.63-.24-.36-.31-.73-.21-1.11,.1-.38,.31-.65,.63-.81,2.36-1.44,4.42-2.43,6.18-2.97,1.76-.54,3.26-.81,4.5-.81,.84,0,1.57,.09,2.19,.27,.62,.18,1.15,.39,1.59,.63,1.16,.64,2.04,1.57,2.64,2.79,.6,1.22,.9,2.65,.9,4.29v16.62c0,.4-.13,.73-.39,.99-.26,.26-.61,.39-1.05,.39Zm-9.3-3.3l7.86-1.44v-8.7l-9.6,1.62c-1.64,.28-2.83,.74-3.57,1.38-.74,.64-1.19,1.33-1.35,2.07-.16,.74-.22,1.45-.18,2.13,.12,1.24,.5,2.1,1.14,2.58,.96,.72,2.86,.84,5.7,.36Z"/><path class="d" d="M151.44,57.3c-.4,0-.74-.14-1.02-.42s-.42-.62-.42-1.02v-14.76c-.88,1.12-1.95,2-3.21,2.64-1.26,.64-2.73,.96-4.41,.96-3.4,0-6.08-1.17-8.04-3.51-1.96-2.34-2.94-5.51-2.94-9.51s.98-7.22,2.94-9.54c1.96-2.32,4.64-3.48,8.04-3.48,1.68,0,3.15,.33,4.41,.99,1.26,.66,2.33,1.55,3.21,2.67v-2.22c0-.4,.14-.74,.42-1.02s.62-.42,1.02-.42,.74,.14,1.02,.42c.28,.28,.42,.62,.42,1.02V55.86c0,.4-.14,.74-.42,1.02-.28,.28-.62,.42-1.02,.42Zm-9.06-15.48c5.16,0,7.74-3.38,7.74-10.14s-2.58-10.08-7.74-10.08c-2.56,0-4.56,.88-6,2.64-1.44,1.76-2.16,4.24-2.16,7.44s.72,5.74,2.16,7.5c1.44,1.76,3.44,2.64,6,2.64Z"/><path class="d" d="M168.54,44.7c-2.76,0-4.93-.9-6.51-2.7-1.58-1.8-2.37-4.28-2.37-7.44v-14.34c0-.4,.13-.74,.39-1.02,.26-.28,.59-.42,.99-.42s.74,.14,1.02,.42c.28,.28,.42,.62,.42,1.02v14.34c0,.92,.14,1.95,.42,3.09,.28,1.14,.85,2.13,1.71,2.97,.86,.84,2.17,1.26,3.93,1.26,2.36,0,4.19-.64,5.49-1.92,1.3-1.28,1.95-3.12,1.95-5.52v-14.28c0-.4,.14-.75,.42-1.05,.28-.3,.62-.45,1.02-.45s.73,.15,.99,.45c.26,.3,.39,.65,.39,1.05v23.16c0,.4-.13,.73-.39,.99-.26,.26-.59,.39-.99,.39s-.74-.13-1.02-.39c-.28-.26-.42-.59-.42-.99v-1.86c-.92,1-2.01,1.79-3.27,2.37-1.26,.58-2.65,.87-4.17,.87Z"/><path class="d" d="M193.14,44.76c-.4,0-.73-.13-.99-.39-.26-.26-.39-.59-.39-.99V22.44h-6.9c-.4,0-.74-.15-1.02-.45-.28-.3-.42-.65-.42-1.05s.14-.73,.42-.99c.28-.26,.62-.39,1.02-.39h8.28c.44,0,.8,.13,1.08,.39,.28,.26,.42,.59,.42,.99v22.44c0,.4-.14,.73-.42,.99-.28,.26-.64,.39-1.08,.39Zm-.72-36.06c-.56,0-1.02-.16-1.38-.48-.36-.32-.54-.68-.54-1.08V3.42c0-.4,.18-.77,.54-1.11,.36-.34,.82-.51,1.38-.51s1.01,.17,1.35,.51c.34,.34,.51,.71,.51,1.11v3.72c0,.4-.17,.76-.51,1.08-.34,.32-.79,.48-1.35,.48Z"/><path class="d" d="M212.94,44.7c-3.4,0-6.08-1.17-8.04-3.51-1.96-2.34-2.94-5.51-2.94-9.51s.98-7.22,2.94-9.54c1.96-2.32,4.64-3.48,8.04-3.48,2.96,0,5.45,1.02,7.47,3.06,2.02,2.04,3.11,4.8,3.27,8.28v.18c0,.36-.14,.68-.42,.96-.24,.28-.58,.42-1.02,.42h-17.4c0,3.08,.65,5.56,1.95,7.44,1.3,1.88,3.35,2.82,6.15,2.82,1.44,0,2.79-.31,4.05-.93,1.26-.62,2.23-1.43,2.91-2.43,.24-.32,.55-.52,.93-.6,.38-.08,.73,0,1.05,.24,.32,.2,.52,.5,.6,.9,.08,.4,0,.76-.24,1.08-.96,1.4-2.27,2.52-3.93,3.36-1.66,.84-3.45,1.26-5.37,1.26Zm-7.92-15.96h15.54c-.4-2.28-1.27-4.04-2.61-5.28-1.34-1.24-3.01-1.86-5.01-1.86-2.16,0-3.91,.62-5.25,1.86-1.34,1.24-2.23,3-2.67,5.28Z"/><path class="d" d="M240.66,44.4c-1.64,0-2.93-.47-3.87-1.41-.94-.94-1.41-2.19-1.41-3.75V22.38h-5.76c-.4,0-.73-.14-.99-.42-.26-.28-.39-.62-.39-1.02s.13-.73,.39-.99c.26-.26,.59-.39,.99-.39h5.76V10.74c0-.4,.13-.74,.39-1.02,.26-.28,.59-.42,.99-.42s.74,.14,1.02,.42c.28,.28,.42,.62,.42,1.02v8.82h7.44c.4,0,.74,.13,1.02,.39,.28,.26,.42,.59,.42,.99s-.14,.74-.42,1.02-.62,.42-1.02,.42h-7.44v16.86c0,.16,.03,.43,.09,.81,.06,.38,.27,.72,.63,1.02,.36,.3,.94,.45,1.74,.45h4.68c.44,0,.8,.14,1.08,.42,.28,.28,.42,.62,.42,1.02s-.14,.74-.42,1.02-.64,.42-1.08,.42h-4.68Z"/><path class="d" d="M270.29,44.7c-.4,0-.73-.13-.99-.39s-.39-.59-.39-.99V20.04c0-.4,.13-.74,.39-1.02,.26-.28,.59-.42,.99-.42s.74,.14,1.02,.42c.28,.28,.42,.62,.42,1.02v1.98c.92-1.04,2.02-1.86,3.3-2.46,1.28-.6,2.66-.9,4.14-.9,2.76,0,4.93,.91,6.51,2.73,1.58,1.82,2.37,4.29,2.37,7.41v14.4c0,.4-.13,.74-.39,1.02-.26,.28-.59,.42-.99,.42s-.74-.14-1.02-.42-.42-.62-.42-1.02v-14.4c0-.92-.14-1.94-.42-3.06-.28-1.12-.85-2.09-1.71-2.91-.86-.82-2.17-1.23-3.93-1.23-2.32,0-4.14,.64-5.46,1.92-1.32,1.28-1.98,3.1-1.98,5.46v14.34c0,.4-.14,.73-.42,.99-.28,.26-.62,.39-1.02,.39Z"/><path class="d" d="M302.4,44.76c-.4,0-.73-.13-.99-.39-.26-.26-.39-.59-.39-.99V22.44h-6.9c-.4,0-.74-.15-1.02-.45-.28-.3-.42-.65-.42-1.05s.14-.73,.42-.99c.28-.26,.62-.39,1.02-.39h8.28c.44,0,.8,.13,1.08,.39,.28,.26,.42,.59,.42,.99v22.44c0,.4-.14,.73-.42,.99-.28,.26-.64,.39-1.08,.39Zm-.72-36.06c-.56,0-1.02-.16-1.38-.48-.36-.32-.54-.68-.54-1.08V3.42c0-.4,.18-.77,.54-1.11,.36-.34,.82-.51,1.38-.51s1.01,.17,1.35,.51c.34,.34,.51,.71,.51,1.11v3.72c0,.4-.17,.76-.51,1.08-.34,.32-.79,.48-1.35,.48Z"/><path class="d" d="M322.56,57.24c-2.12,0-3.95-.57-5.49-1.71-1.54-1.14-2.63-2.75-3.27-4.83-.12-.36-.1-.71,.06-1.05,.16-.34,.44-.57,.84-.69,.4-.16,.77-.14,1.11,.06,.34,.2,.57,.48,.69,.84,.92,3,2.94,4.5,6.06,4.5,2.04,0,3.65-.74,4.83-2.22,1.18-1.48,1.77-3.5,1.77-6.06v-8.04c-1.76,1.88-4.24,2.82-7.44,2.82s-5.8-1-7.68-3c-1.88-2-2.82-4.7-2.82-8.1s.94-6.09,2.82-8.07c1.88-1.98,4.44-2.97,7.68-2.97s5.72,.96,7.44,2.88v-1.5c0-.4,.14-.75,.42-1.05,.28-.3,.62-.45,1.02-.45s.73,.15,.99,.45c.26,.3,.39,.65,.39,1.05v25.98c0,3.28-.86,5.96-2.58,8.04-1.72,2.08-4,3.12-6.84,3.12Zm-.84-19.2c2.36,0,4.2-.69,5.52-2.07,1.32-1.38,1.98-3.45,1.98-6.21s-.66-4.76-1.98-6.12c-1.32-1.36-3.16-2.04-5.52-2.04s-4.33,.71-5.67,2.13c-1.34,1.42-2.01,3.43-2.01,6.03s.67,4.68,2.01,6.12c1.34,1.44,3.23,2.16,5.67,2.16Z"/><path class="d" d="M341.33,44.76c-.4,0-.74-.13-1.02-.39-.28-.26-.42-.59-.42-.99V1.44c0-.4,.14-.74,.42-1.02s.62-.42,1.02-.42,.74,.14,1.02,.42c.28,.28,.42,.62,.42,1.02V21.96c.92-1.04,2.02-1.85,3.3-2.43,1.28-.58,2.66-.87,4.14-.87,2.76,0,4.93,.91,6.51,2.73,1.58,1.82,2.37,4.27,2.37,7.35v14.58c0,.4-.13,.73-.39,.99-.26,.26-.59,.39-.99,.39s-.74-.13-1.02-.39c-.28-.26-.42-.59-.42-.99v-14.58c0-.92-.14-1.94-.42-3.06-.28-1.12-.85-2.09-1.71-2.91-.86-.82-2.17-1.23-3.93-1.23-2.08,0-3.84,.64-5.28,1.92-1.44,1.28-2.16,3.1-2.16,5.46v14.46c0,.4-.14,.73-.42,.99-.28,.26-.62,.39-1.02,.39Z"/><path class="d" d="M376.13,44.4c-1.64,0-2.93-.47-3.87-1.41-.94-.94-1.41-2.19-1.41-3.75V22.38h-5.76c-.4,0-.73-.14-.99-.42-.26-.28-.39-.62-.39-1.02s.13-.73,.39-.99c.26-.26,.59-.39,.99-.39h5.76V10.74c0-.4,.13-.74,.39-1.02,.26-.28,.59-.42,.99-.42s.74,.14,1.02,.42c.28,.28,.42,.62,.42,1.02v8.82h7.44c.4,0,.74,.13,1.02,.39,.28,.26,.42,.59,.42,.99s-.14,.74-.42,1.02-.62,.42-1.02,.42h-7.44v16.86c0,.16,.03,.43,.09,.81,.06,.38,.27,.72,.63,1.02,.36,.3,.94,.45,1.74,.45h4.68c.44,0,.8,.14,1.08,.42,.28,.28,.42,.62,.42,1.02s-.14,.74-.42,1.02-.64,.42-1.08,.42h-4.68Z"/><path class="d" d="M411.89,44.76c-.4,0-.73-.13-.99-.39-.26-.26-.39-.59-.39-.99V22.44h-6.9c-.4,0-.74-.15-1.02-.45-.28-.3-.42-.65-.42-1.05s.14-.73,.42-.99c.28-.26,.62-.39,1.02-.39h8.28c.44,0,.8,.13,1.08,.39,.28,.26,.42,.59,.42,.99v22.44c0,.4-.14,.73-.42,.99-.28,.26-.64,.39-1.08,.39Zm-.72-36.06c-.56,0-1.02-.16-1.38-.48-.36-.32-.54-.68-.54-1.08V3.42c0-.4,.18-.77,.54-1.11,.36-.34,.82-.51,1.38-.51s1.01,.17,1.35,.51c.34,.34,.51,.71,.51,1.11v3.72c0,.4-.17,.76-.51,1.08-.34,.32-.79,.48-1.35,.48Z"/><path class="d" d="M422.69,44.7c-.4,0-.73-.13-.99-.39s-.39-.59-.39-.99V20.04c0-.4,.13-.74,.39-1.02,.26-.28,.59-.42,.99-.42s.74,.14,1.02,.42c.28,.28,.42,.62,.42,1.02v1.98c.92-1.04,2.02-1.86,3.3-2.46,1.28-.6,2.66-.9,4.14-.9,2.76,0,4.93,.91,6.51,2.73,1.58,1.82,2.37,4.29,2.37,7.41v14.4c0,.4-.13,.74-.39,1.02-.26,.28-.59,.42-.99,.42s-.74-.14-1.02-.42-.42-.62-.42-1.02v-14.4c0-.92-.14-1.94-.42-3.06-.28-1.12-.85-2.09-1.71-2.91-.86-.82-2.17-1.23-3.93-1.23-2.32,0-4.14,.64-5.46,1.92-1.32,1.28-1.98,3.1-1.98,5.46v14.34c0,.4-.14,.73-.42,.99-.28,.26-.62,.39-1.02,.39Z"/><path class="d" d="M478.01,44.7c-2.88,0-5.6-.5-8.16-1.5-2.56-1-4.68-2.4-6.36-4.2-.8-.68-.78-1.38,.06-2.1,.72-.64,1.4-.62,2.04,.06,1.4,1.48,3.2,2.64,5.4,3.48,2.2,.84,4.54,1.26,7.02,1.26,3.44,0,6.12-.7,8.04-2.1,1.92-1.4,2.88-3.34,2.88-5.82s-1-4.68-3-6.24c-2-1.56-5.12-2.66-9.36-3.3-4.12-.68-7.16-1.98-9.12-3.9-1.96-1.92-2.94-4.6-2.94-8.04s1.14-6.33,3.42-8.31c2.28-1.98,5.44-2.97,9.48-2.97,2.08,0,4.24,.4,6.48,1.2,2.24,.8,4.32,1.9,6.24,3.3,.76,.64,.84,1.34,.24,2.1-.6,.8-1.28,.9-2.04,.3-1.64-1.24-3.43-2.2-5.37-2.88-1.94-.68-3.79-1.02-5.55-1.02-3.12,0-5.55,.73-7.29,2.19-1.74,1.46-2.61,3.49-2.61,6.09s.77,4.57,2.31,6.03c1.54,1.46,3.95,2.45,7.23,2.97,5.12,.76,8.88,2.15,11.28,4.17,2.4,2.02,3.6,4.79,3.6,8.31s-1.22,6.07-3.66,8.01c-2.44,1.94-5.86,2.91-10.26,2.91Z"/><path class="d" d="M507.59,44.7c-2.76,0-4.93-.9-6.51-2.7-1.58-1.8-2.37-4.28-2.37-7.44v-14.34c0-.4,.13-.74,.39-1.02,.26-.28,.59-.42,.99-.42s.74,.14,1.02,.42c.28,.28,.42,.62,.42,1.02v14.34c0,.92,.14,1.95,.42,3.09,.28,1.14,.85,2.13,1.71,2.97,.86,.84,2.17,1.26,3.93,1.26,2.36,0,4.19-.64,5.49-1.92,1.3-1.28,1.95-3.12,1.95-5.52v-14.28c0-.4,.14-.75,.42-1.05,.28-.3,.62-.45,1.02-.45s.73,.15,.99,.45c.26,.3,.39,.65,.39,1.05v23.16c0,.4-.13,.73-.39,.99-.26,.26-.59,.39-.99,.39s-.74-.13-1.02-.39c-.28-.26-.42-.59-.42-.99v-1.86c-.92,1-2.01,1.79-3.27,2.37-1.26,.58-2.65,.87-4.17,.87Z"/><path class="d" d="M526.07,44.7c-.4,0-.73-.13-.99-.39s-.39-.59-.39-.99V20.04c0-.4,.13-.74,.39-1.02,.26-.28,.59-.42,.99-.42s.74,.14,1.02,.42c.28,.28,.42,.62,.42,1.02v1.98c.92-1.04,2.02-1.86,3.3-2.46,1.28-.6,2.66-.9,4.14-.9,2.76,0,4.93,.91,6.51,2.73,1.58,1.82,2.37,4.29,2.37,7.41v14.4c0,.4-.13,.74-.39,1.02-.26,.28-.59,.42-.99,.42s-.74-.14-1.02-.42-.42-.62-.42-1.02v-14.4c0-.92-.14-1.94-.42-3.06-.28-1.12-.85-2.09-1.71-2.91-.86-.82-2.17-1.23-3.93-1.23-2.32,0-4.14,.64-5.46,1.92-1.32,1.28-1.98,3.1-1.98,5.46v14.34c0,.4-.14,.73-.42,.99-.28,.26-.62,.39-1.02,.39Z"/><path class="d" d="M550.85,44.7c-.4,0-.73-.13-.99-.39s-.39-.59-.39-.99V20.04c0-.4,.13-.74,.39-1.02,.26-.28,.59-.42,.99-.42s.74,.14,1.02,.42c.28,.28,.42,.62,.42,1.02v1.98c.92-1.04,2.02-1.86,3.3-2.46,1.28-.6,2.66-.9,4.14-.9,2.76,0,4.93,.91,6.51,2.73,1.58,1.82,2.37,4.29,2.37,7.41v14.4c0,.4-.13,.74-.39,1.02-.26,.28-.59,.42-.99,.42s-.74-.14-1.02-.42-.42-.62-.42-1.02v-14.4c0-.92-.14-1.94-.42-3.06-.28-1.12-.85-2.09-1.71-2.91-.86-.82-2.17-1.23-3.93-1.23-2.32,0-4.14,.64-5.46,1.92-1.32,1.28-1.98,3.1-1.98,5.46v14.34c0,.4-.14,.73-.42,.99-.28,.26-.62,.39-1.02,.39Z"/><path class="d" d="M582.95,44.76c-.4,0-.73-.13-.99-.39-.26-.26-.39-.59-.39-.99V22.44h-6.9c-.4,0-.74-.15-1.02-.45-.28-.3-.42-.65-.42-1.05s.14-.73,.42-.99c.28-.26,.62-.39,1.02-.39h8.28c.44,0,.8,.13,1.08,.39,.28,.26,.42,.59,.42,.99v22.44c0,.4-.14,.73-.42,.99-.28,.26-.64,.39-1.08,.39Zm-.72-36.06c-.56,0-1.02-.16-1.38-.48-.36-.32-.54-.68-.54-1.08V3.42c0-.4,.18-.77,.54-1.11,.36-.34,.82-.51,1.38-.51s1.01,.17,1.35,.51c.34,.34,.51,.71,.51,1.11v3.72c0,.4-.17,.76-.51,1.08-.34,.32-.79,.48-1.35,.48Z"/><path class="d" d="M593.75,44.7c-.4,0-.73-.13-.99-.39s-.39-.59-.39-.99V20.04c0-.4,.13-.74,.39-1.02,.26-.28,.59-.42,.99-.42s.74,.14,1.02,.42c.28,.28,.42,.62,.42,1.02v1.98c.92-1.04,2.02-1.86,3.3-2.46,1.28-.6,2.66-.9,4.14-.9,2.76,0,4.93,.91,6.51,2.73,1.58,1.82,2.37,4.29,2.37,7.41v14.4c0,.4-.13,.74-.39,1.02-.26,.28-.59,.42-.99,.42s-.74-.14-1.02-.42-.42-.62-.42-1.02v-14.4c0-.92-.14-1.94-.42-3.06-.28-1.12-.85-2.09-1.71-2.91-.86-.82-2.17-1.23-3.93-1.23-2.32,0-4.14,.64-5.46,1.92-1.32,1.28-1.98,3.1-1.98,5.46v14.34c0,.4-.14,.73-.42,.99-.28,.26-.62,.39-1.02,.39Z"/><path class="d" d="M629.09,57.24c-2.12,0-3.95-.57-5.49-1.71-1.54-1.14-2.63-2.75-3.27-4.83-.12-.36-.1-.71,.06-1.05,.16-.34,.44-.57,.84-.69,.4-.16,.77-.14,1.11,.06,.34,.2,.57,.48,.69,.84,.92,3,2.94,4.5,6.06,4.5,2.04,0,3.65-.74,4.83-2.22,1.18-1.48,1.77-3.5,1.77-6.06v-8.04c-1.76,1.88-4.24,2.82-7.44,2.82s-5.8-1-7.68-3c-1.88-2-2.82-4.7-2.82-8.1s.94-6.09,2.82-8.07c1.88-1.98,4.44-2.97,7.68-2.97s5.72,.96,7.44,2.88v-1.5c0-.4,.14-.75,.42-1.05,.28-.3,.62-.45,1.02-.45s.73,.15,.99,.45c.26,.3,.39,.65,.39,1.05v25.98c0,3.28-.86,5.96-2.58,8.04-1.72,2.08-4,3.12-6.84,3.12Zm-.84-19.2c2.36,0,4.2-.69,5.52-2.07,1.32-1.38,1.98-3.45,1.98-6.21s-.66-4.76-1.98-6.12c-1.32-1.36-3.16-2.04-5.52-2.04s-4.33,.71-5.67,2.13c-1.34,1.42-2.01,3.43-2.01,6.03s.67,4.68,2.01,6.12c1.34,1.44,3.23,2.16,5.67,2.16Z"/><path class="d" d="M647.93,43.92c-.4,0-.75-.15-1.05-.45-.3-.3-.45-.65-.45-1.05V3.42c0-.4,.15-.75,.45-1.05,.3-.3,.65-.45,1.05-.45h12.24c2.56,0,4.88,.63,6.96,1.89,2.08,1.26,3.75,2.93,5.01,5.01,1.26,2.08,1.89,4.4,1.89,6.96v14.22c0,2.56-.63,4.89-1.89,6.99-1.26,2.1-2.93,3.78-5.01,5.04-2.08,1.26-4.4,1.89-6.96,1.89h-12.24Zm1.5-3h10.74c2,0,3.82-.49,5.46-1.47,1.64-.98,2.95-2.3,3.93-3.96,.98-1.66,1.47-3.49,1.47-5.49V15.78c0-2-.49-3.82-1.47-5.46-.98-1.64-2.29-2.95-3.93-3.93-1.64-.98-3.46-1.47-5.46-1.47h-10.74V40.92Z"/><path class="d" d="M698.21,44.76c-.4,0-.74-.13-1.02-.39-.28-.26-.42-.59-.42-.99v-.48l-7.38,1.44c-1.84,.36-3.4,.46-4.68,.3-1.28-.16-2.36-.56-3.24-1.2-.64-.52-1.15-1.17-1.53-1.95-.38-.78-.61-1.67-.69-2.67-.24-2.32,.27-4.23,1.53-5.73,1.26-1.5,3.21-2.47,5.85-2.91l10.14-1.74v-1.68c0-.8-.13-1.65-.39-2.55-.26-.9-.79-1.57-1.59-2.01-.64-.4-1.46-.6-2.46-.6-2.48,0-5.54,1.12-9.18,3.36-.36,.2-.72,.25-1.08,.15-.36-.1-.64-.31-.84-.63-.24-.36-.31-.73-.21-1.11,.1-.38,.31-.65,.63-.81,2.36-1.44,4.42-2.43,6.18-2.97,1.76-.54,3.26-.81,4.5-.81,.84,0,1.57,.09,2.19,.27,.62,.18,1.15,.39,1.59,.63,1.16,.64,2.04,1.57,2.64,2.79,.6,1.22,.9,2.65,.9,4.29v16.62c0,.4-.13,.73-.39,.99-.26,.26-.61,.39-1.05,.39Zm-9.3-3.3l7.86-1.44v-8.7l-9.6,1.62c-1.64,.28-2.83,.74-3.57,1.38-.74,.64-1.19,1.33-1.35,2.07-.16,.74-.22,1.45-.18,2.13,.12,1.24,.5,2.1,1.14,2.58,.96,.72,2.86,.84,5.7,.36Z"/><path class="d" d="M712.91,44.4c-1.6,0-2.89-.47-3.87-1.41-.98-.94-1.47-2.19-1.47-3.75V1.5c0-.4,.14-.74,.42-1.02s.62-.42,1.02-.42,.74,.14,1.02,.42c.28,.28,.42,.62,.42,1.02V39.24c0,.16,.03,.43,.09,.81,.06,.38,.27,.72,.63,1.02,.36,.3,.94,.45,1.74,.45h4.74c.4,0,.74,.14,1.02,.42,.28,.28,.42,.62,.42,1.02s-.14,.74-.42,1.02-.62,.42-1.02,.42h-4.74Z"/><path class="d" d="M734.09,44.7c-3.4,0-6.08-1.17-8.04-3.51-1.96-2.34-2.94-5.51-2.94-9.51s.98-7.22,2.94-9.54c1.96-2.32,4.64-3.48,8.04-3.48,2.96,0,5.45,1.02,7.47,3.06,2.02,2.04,3.11,4.8,3.27,8.28v.18c0,.36-.14,.68-.42,.96-.24,.28-.58,.42-1.02,.42h-17.4c0,3.08,.65,5.56,1.95,7.44,1.3,1.88,3.35,2.82,6.15,2.82,1.44,0,2.79-.31,4.05-.93,1.26-.62,2.23-1.43,2.91-2.43,.24-.32,.55-.52,.93-.6,.38-.08,.73,0,1.05,.24,.32,.2,.52,.5,.6,.9,.08,.4,0,.76-.24,1.08-.96,1.4-2.27,2.52-3.93,3.36-1.66,.84-3.45,1.26-5.37,1.26Zm-7.92-15.96h15.54c-.4-2.28-1.27-4.04-2.61-5.28-1.34-1.24-3.01-1.86-5.01-1.86-2.16,0-3.91,.62-5.25,1.86-1.34,1.24-2.23,3-2.67,5.28Z"/><path class="d" d="M754.13,52.8c-.4,0-.74-.13-1.02-.39-.28-.26-.42-.59-.42-.99,0-.44,.14-.79,.42-1.05,.28-.26,.62-.39,1.02-.39,1.12,0,1.89-.23,2.31-.69,.42-.46,.63-1.25,.63-2.37v-2.28c-.08,0-.15,0-.21,.03-.06,.02-.13,.03-.21,.03-1,0-1.8-.37-2.4-1.11-.6-.74-.9-1.61-.9-2.61s.3-1.92,.9-2.64,1.4-1.08,2.4-1.08,1.79,.36,2.37,1.08c.58,.72,.87,1.6,.87,2.64v5.94c0,3.92-1.92,5.88-5.76,5.88Z"/><path class="d" d="M794.27,44.4c-1.64,0-2.93-.47-3.87-1.41-.94-.94-1.41-2.19-1.41-3.75V22.38h-5.76c-.4,0-.73-.14-.99-.42-.26-.28-.39-.62-.39-1.02s.13-.73,.39-.99c.26-.26,.59-.39,.99-.39h5.76V10.74c0-.4,.13-.74,.39-1.02,.26-.28,.59-.42,.99-.42s.74,.14,1.02,.42c.28,.28,.42,.62,.42,1.02v8.82h7.44c.4,0,.74,.13,1.02,.39,.28,.26,.42,.59,.42,.99s-.14,.74-.42,1.02-.62,.42-1.02,.42h-7.44v16.86c0,.16,.03,.43,.09,.81,.06,.38,.27,.72,.63,1.02,.36,.3,.94,.45,1.74,.45h4.68c.44,0,.8,.14,1.08,.42,.28,.28,.42,.62,.42,1.02s-.14,.74-.42,1.02-.64,.42-1.08,.42h-4.68Z"/><path class="d" d="M808.85,44.76c-.4,0-.74-.13-1.02-.39-.28-.26-.42-.59-.42-.99V1.44c0-.4,.14-.74,.42-1.02s.62-.42,1.02-.42,.74,.14,1.02,.42c.28,.28,.42,.62,.42,1.02V21.96c.92-1.04,2.02-1.85,3.3-2.43,1.28-.58,2.66-.87,4.14-.87,2.76,0,4.93,.91,6.51,2.73,1.58,1.82,2.37,4.27,2.37,7.35v14.58c0,.4-.13,.73-.39,.99-.26,.26-.59,.39-.99,.39s-.74-.13-1.02-.39c-.28-.26-.42-.59-.42-.99v-14.58c0-.92-.14-1.94-.42-3.06-.28-1.12-.85-2.09-1.71-2.91-.86-.82-2.17-1.23-3.93-1.23-2.08,0-3.84,.64-5.28,1.92-1.44,1.28-2.16,3.1-2.16,5.46v14.46c0,.4-.14,.73-.42,.99-.28,.26-.62,.39-1.02,.39Z"/><path class="d" d="M843.83,44.7c-3.4,0-6.08-1.17-8.04-3.51-1.96-2.34-2.94-5.51-2.94-9.51s.98-7.22,2.94-9.54c1.96-2.32,4.64-3.48,8.04-3.48,2.96,0,5.45,1.02,7.47,3.06,2.02,2.04,3.11,4.8,3.27,8.28v.18c0,.36-.14,.68-.42,.96-.24,.28-.58,.42-1.02,.42h-17.4c0,3.08,.65,5.56,1.95,7.44,1.3,1.88,3.35,2.82,6.15,2.82,1.44,0,2.79-.31,4.05-.93,1.26-.62,2.23-1.43,2.91-2.43,.24-.32,.55-.52,.93-.6,.38-.08,.73,0,1.05,.24,.32,.2,.52,.5,.6,.9,.08,.4,0,.76-.24,1.08-.96,1.4-2.27,2.52-3.93,3.36-1.66,.84-3.45,1.26-5.37,1.26Zm-7.92-15.96h15.54c-.4-2.28-1.27-4.04-2.61-5.28-1.34-1.24-3.01-1.86-5.01-1.86-2.16,0-3.91,.62-5.25,1.86-1.34,1.24-2.23,3-2.67,5.28Z"/><path class="d" d="M878.93,57.3c-.4,0-.73-.14-.99-.42-.26-.28-.39-.62-.39-1.02V20.1c0-.4,.13-.74,.39-1.02,.26-.28,.59-.42,.99-.42s.74,.14,1.02,.42c.28,.28,.42,.62,.42,1.02v2.22c.88-1.12,1.95-2.01,3.21-2.67,1.26-.66,2.73-.99,4.41-.99,3.4,0,6.08,1.16,8.04,3.48,1.96,2.32,2.94,5.5,2.94,9.54s-.98,7.17-2.94,9.51c-1.96,2.34-4.64,3.51-8.04,3.51-1.68,0-3.15-.32-4.41-.96-1.26-.64-2.33-1.52-3.21-2.64v14.76c0,.4-.14,.74-.42,1.02-.28,.28-.62,.42-1.02,.42Zm9.06-15.48c2.6,0,4.61-.88,6.03-2.64,1.42-1.76,2.13-4.26,2.13-7.5s-.71-5.68-2.13-7.44c-1.42-1.76-3.43-2.64-6.03-2.64-5.12,0-7.68,3.36-7.68,10.08s2.56,10.14,7.68,10.14Z"/><path class="d" d="M914.99,44.7c-3.4,0-6.08-1.17-8.04-3.51-1.96-2.34-2.94-5.51-2.94-9.51s.98-7.22,2.94-9.54c1.96-2.32,4.64-3.48,8.04-3.48,2.96,0,5.45,1.02,7.47,3.06,2.02,2.04,3.11,4.8,3.27,8.28v.18c0,.36-.14,.68-.42,.96-.24,.28-.58,.42-1.02,.42h-17.4c0,3.08,.65,5.56,1.95,7.44,1.3,1.88,3.35,2.82,6.15,2.82,1.44,0,2.79-.31,4.05-.93,1.26-.62,2.23-1.43,2.91-2.43,.24-.32,.55-.52,.93-.6,.38-.08,.73,0,1.05,.24,.32,.2,.52,.5,.6,.9,.08,.4,0,.76-.24,1.08-.96,1.4-2.27,2.52-3.93,3.36-1.66,.84-3.45,1.26-5.37,1.26Zm-7.92-15.96h15.54c-.4-2.28-1.27-4.04-2.61-5.28-1.34-1.24-3.01-1.86-5.01-1.86-2.16,0-3.91,.62-5.25,1.86-1.34,1.24-2.23,3-2.67,5.28Z"/><path class="d" d="M933.95,44.7c-.4,0-.74-.14-1.02-.42s-.42-.6-.42-.96V20.16c0-.4,.14-.74,.42-1.02s.62-.42,1.02-.42,.73,.14,.99,.42c.26,.28,.39,.62,.39,1.02v1.5c.6-.72,1.44-1.35,2.52-1.89,1.08-.54,2.12-.89,3.12-1.05,1.4-.2,2.82-.09,4.26,.33s2.73,1.13,3.87,2.13c1.14,1,1.93,2.32,2.37,3.96,.12,.36,.08,.71-.12,1.05-.2,.34-.48,.57-.84,.69-.4,.08-.77,.02-1.11-.18-.34-.2-.55-.48-.63-.84-.32-1.16-.88-2.08-1.68-2.76-.8-.68-1.71-1.14-2.73-1.38s-2.01-.28-2.97-.12c-1.72,.2-3.16,.84-4.32,1.92-1.16,1.08-1.74,2.8-1.74,5.16v14.64c0,.36-.13,.68-.39,.96-.26,.28-.59,.42-.99,.42Z"/><path class="d" d="M962.15,44.76c-.4,0-.74-.13-1.02-.39-.28-.26-.42-.59-.42-.99V22.44h-4.32c-.4,0-.74-.15-1.02-.45-.28-.3-.42-.63-.42-.99,0-.4,.14-.74,.42-1.02s.62-.42,1.02-.42h4.32V10.74c0-5.88,2.98-8.82,8.94-8.82h3.54c.4,0,.73,.14,.99,.42,.26,.28,.39,.62,.39,1.02s-.13,.74-.39,1.02c-.26,.28-.59,.42-.99,.42h-3.54c-2.12,0-3.67,.47-4.65,1.41-.98,.94-1.47,2.45-1.47,4.53v8.82h9.72c.4,0,.74,.14,1.02,.42,.28,.28,.42,.62,.42,1.02,0,.36-.14,.69-.42,.99-.28,.3-.62,.45-1.02,.45h-9.72v20.94c0,.4-.13,.73-.39,.99-.26,.26-.59,.39-.99,.39Z"/><path class="d" d="M987.89,44.7c-3.4,0-6.08-1.17-8.04-3.51-1.96-2.34-2.94-5.51-2.94-9.51s.98-7.22,2.94-9.54c1.96-2.32,4.64-3.48,8.04-3.48,2.96,0,5.45,1.02,7.47,3.06,2.02,2.04,3.11,4.8,3.27,8.28v.18c0,.36-.14,.68-.42,.96-.24,.28-.58,.42-1.02,.42h-17.4c0,3.08,.65,5.56,1.95,7.44,1.3,1.88,3.35,2.82,6.15,2.82,1.44,0,2.79-.31,4.05-.93,1.26-.62,2.23-1.43,2.91-2.43,.24-.32,.55-.52,.93-.6,.38-.08,.73,0,1.05,.24,.32,.2,.52,.5,.6,.9,.08,.4,0,.76-.24,1.08-.96,1.4-2.27,2.52-3.93,3.36-1.66,.84-3.45,1.26-5.37,1.26Zm-7.92-15.96h15.54c-.4-2.28-1.27-4.04-2.61-5.28-1.34-1.24-3.01-1.86-5.01-1.86-2.16,0-3.91,.62-5.25,1.86-1.34,1.24-2.23,3-2.67,5.28Z"/><path class="d" d="M1015.79,44.7c-3.4,0-6.08-1.17-8.04-3.51-1.96-2.34-2.94-5.51-2.94-9.51s.98-7.22,2.94-9.54c1.96-2.32,4.64-3.48,8.04-3.48s5.96,1.14,7.92,3.42c.28,.28,.41,.62,.39,1.02-.02,.4-.19,.74-.51,1.02-.28,.24-.62,.35-1.02,.33-.4-.02-.74-.17-1.02-.45-1.36-1.6-3.28-2.4-5.76-2.4s-4.56,.88-6,2.64c-1.44,1.76-2.16,4.24-2.16,7.44s.72,5.74,2.16,7.5c1.44,1.76,3.44,2.64,6,2.64s4.44-.78,5.76-2.34c.28-.32,.62-.5,1.02-.54,.4-.04,.74,.08,1.02,.36,.32,.24,.49,.56,.51,.96,.02,.4-.11,.76-.39,1.08-2,2.24-4.64,3.36-7.92,3.36Z"/><path class="d" d="M1039.61,44.4c-1.64,0-2.93-.47-3.87-1.41-.94-.94-1.41-2.19-1.41-3.75V22.38h-5.76c-.4,0-.73-.14-.99-.42-.26-.28-.39-.62-.39-1.02s.13-.73,.39-.99c.26-.26,.59-.39,.99-.39h5.76V10.74c0-.4,.13-.74,.39-1.02,.26-.28,.59-.42,.99-.42s.74,.14,1.02,.42c.28,.28,.42,.62,.42,1.02v8.82h7.44c.4,0,.74,.13,1.02,.39,.28,.26,.42,.59,.42,.99s-.14,.74-.42,1.02-.62,.42-1.02,.42h-7.44v16.86c0,.16,.03,.43,.09,.81,.06,.38,.27,.72,.63,1.02,.36,.3,.94,.45,1.74,.45h4.68c.44,0,.8,.14,1.08,.42,.28,.28,.42,.62,.42,1.02s-.14,.74-.42,1.02-.64,.42-1.08,.42h-4.68Z"/><path class="d" d="M1.38,104.7c-.4,0-.73-.13-.99-.39s-.39-.59-.39-.99v-23.28c0-.4,.13-.74,.39-1.02,.26-.28,.59-.42,.99-.42s.74,.14,1.02,.42c.28,.28,.42,.62,.42,1.02v1.98c.92-1.04,2.02-1.86,3.3-2.46,1.28-.6,2.66-.9,4.14-.9,2.76,0,4.93,.91,6.51,2.73,1.58,1.82,2.37,4.29,2.37,7.41v14.4c0,.4-.13,.74-.39,1.02-.26,.28-.59,.42-.99,.42s-.74-.14-1.02-.42-.42-.62-.42-1.02v-14.4c0-.92-.14-1.94-.42-3.06-.28-1.12-.85-2.09-1.71-2.91-.86-.82-2.17-1.23-3.93-1.23-2.32,0-4.14,.64-5.46,1.92-1.32,1.28-1.98,3.1-1.98,5.46v14.34c0,.4-.14,.73-.42,.99-.28,.26-.62,.39-1.02,.39Z"/><path class="d" d="M33.48,104.76c-.4,0-.73-.13-.99-.39-.26-.26-.39-.59-.39-.99v-20.94h-6.9c-.4,0-.74-.15-1.02-.45-.28-.3-.42-.65-.42-1.05s.14-.73,.42-.99c.28-.26,.62-.39,1.02-.39h8.28c.44,0,.8,.13,1.08,.39,.28,.26,.42,.59,.42,.99v22.44c0,.4-.14,.73-.42,.99-.28,.26-.64,.39-1.08,.39Zm-.72-36.06c-.56,0-1.02-.16-1.38-.48-.36-.32-.54-.68-.54-1.08v-3.72c0-.4,.18-.77,.54-1.11,.36-.34,.82-.51,1.38-.51s1.01,.17,1.35,.51c.34,.34,.51,.71,.51,1.11v3.72c0,.4-.17,.76-.51,1.08-.34,.32-.79,.48-1.35,.48Z"/><path class="d" d="M53.64,117.24c-2.12,0-3.95-.57-5.49-1.71-1.54-1.14-2.63-2.75-3.27-4.83-.12-.36-.1-.71,.06-1.05,.16-.34,.44-.57,.84-.69,.4-.16,.77-.14,1.11,.06,.34,.2,.57,.48,.69,.84,.92,3,2.94,4.5,6.06,4.5,2.04,0,3.65-.74,4.83-2.22,1.18-1.48,1.77-3.5,1.77-6.06v-8.04c-1.76,1.88-4.24,2.82-7.44,2.82s-5.8-1-7.68-3c-1.88-2-2.82-4.7-2.82-8.1s.94-6.09,2.82-8.07c1.88-1.98,4.44-2.97,7.68-2.97s5.72,.96,7.44,2.88v-1.5c0-.4,.14-.75,.42-1.05,.28-.3,.62-.45,1.02-.45s.73,.15,.99,.45c.26,.3,.39,.65,.39,1.05v25.98c0,3.28-.86,5.96-2.58,8.04-1.72,2.08-4,3.12-6.84,3.12Zm-.84-19.2c2.36,0,4.2-.69,5.52-2.07,1.32-1.38,1.98-3.45,1.98-6.21s-.66-4.76-1.98-6.12c-1.32-1.36-3.16-2.04-5.52-2.04s-4.33,.71-5.67,2.13c-1.34,1.42-2.01,3.43-2.01,6.03s.67,4.68,2.01,6.12c1.34,1.44,3.23,2.16,5.67,2.16Z"/><path class="d" d="M72.42,104.76c-.4,0-.74-.13-1.02-.39-.28-.26-.42-.59-.42-.99V61.44c0-.4,.14-.74,.42-1.02s.62-.42,1.02-.42,.74,.14,1.02,.42c.28,.28,.42,.62,.42,1.02v20.52c.92-1.04,2.02-1.85,3.3-2.43,1.28-.58,2.66-.87,4.14-.87,2.76,0,4.93,.91,6.51,2.73,1.58,1.82,2.37,4.27,2.37,7.35v14.58c0,.4-.13,.73-.39,.99-.26,.26-.59,.39-.99,.39s-.74-.13-1.02-.39c-.28-.26-.42-.59-.42-.99v-14.58c0-.92-.14-1.94-.42-3.06-.28-1.12-.85-2.09-1.71-2.91-.86-.82-2.17-1.23-3.93-1.23-2.08,0-3.84,.64-5.28,1.92-1.44,1.28-2.16,3.1-2.16,5.46v14.46c0,.4-.14,.73-.42,.99-.28,.26-.62,.39-1.02,.39Z"/><path class="d" d="M107.22,104.4c-1.64,0-2.93-.47-3.87-1.41-.94-.94-1.41-2.19-1.41-3.75v-16.86h-5.76c-.4,0-.73-.14-.99-.42-.26-.28-.39-.62-.39-1.02s.13-.73,.39-.99c.26-.26,.59-.39,.99-.39h5.76v-8.82c0-.4,.13-.74,.39-1.02,.26-.28,.59-.42,.99-.42s.74,.14,1.02,.42c.28,.28,.42,.62,.42,1.02v8.82h7.44c.4,0,.74,.13,1.02,.39,.28,.26,.42,.59,.42,.99s-.14,.74-.42,1.02-.62,.42-1.02,.42h-7.44v16.86c0,.16,.03,.43,.09,.81,.06,.38,.27,.72,.63,1.02,.36,.3,.94,.45,1.74,.45h4.68c.44,0,.8,.14,1.08,.42,.28,.28,.42,.62,.42,1.02s-.14,.74-.42,1.02-.64,.42-1.08,.42h-4.68Z"/><path class="d" d="M140.46,104.76c-.4,0-.74-.13-1.02-.39-.28-.26-.42-.59-.42-.99v-20.94h-4.32c-.4,0-.74-.15-1.02-.45-.28-.3-.42-.63-.42-.99,0-.4,.14-.74,.42-1.02s.62-.42,1.02-.42h4.32v-8.82c0-5.88,2.98-8.82,8.94-8.82h3.54c.4,0,.73,.14,.99,.42,.26,.28,.39,.62,.39,1.02s-.13,.74-.39,1.02c-.26,.28-.59,.42-.99,.42h-3.54c-2.12,0-3.67,.47-4.65,1.41-.98,.94-1.47,2.45-1.47,4.53v8.82h9.72c.4,0,.74,.14,1.02,.42,.28,.28,.42,.62,.42,1.02,0,.36-.14,.69-.42,.99-.28,.3-.62,.45-1.02,.45h-9.72v20.94c0,.4-.13,.73-.39,.99-.26,.26-.59,.39-.99,.39Z"/><path class="d" d="M166.2,104.7c-3.4,0-6.08-1.17-8.04-3.51-1.96-2.34-2.94-5.51-2.94-9.51s.98-7.22,2.94-9.54c1.96-2.32,4.64-3.48,8.04-3.48s6.03,1.16,8.01,3.48c1.98,2.32,2.97,5.5,2.97,9.54s-.99,7.17-2.97,9.51c-1.98,2.34-4.65,3.51-8.01,3.51Zm0-2.88c2.6,0,4.6-.88,6-2.64,1.4-1.76,2.1-4.26,2.1-7.5s-.7-5.68-2.1-7.44c-1.4-1.76-3.4-2.64-6-2.64s-4.56,.88-6,2.64c-1.44,1.76-2.16,4.24-2.16,7.44s.72,5.74,2.16,7.5c1.44,1.76,3.44,2.64,6,2.64Z"/><path class="d" d="M184.86,104.7c-.4,0-.74-.14-1.02-.42s-.42-.6-.42-.96v-23.16c0-.4,.14-.74,.42-1.02s.62-.42,1.02-.42,.73,.14,.99,.42c.26,.28,.39,.62,.39,1.02v1.5c.6-.72,1.44-1.35,2.52-1.89,1.08-.54,2.12-.89,3.12-1.05,1.4-.2,2.82-.09,4.26,.33s2.73,1.13,3.87,2.13c1.14,1,1.93,2.32,2.37,3.96,.12,.36,.08,.71-.12,1.05-.2,.34-.48,.57-.84,.69-.4,.08-.77,.02-1.11-.18-.34-.2-.55-.48-.63-.84-.32-1.16-.88-2.08-1.68-2.76-.8-.68-1.71-1.14-2.73-1.38s-2.01-.28-2.97-.12c-1.72,.2-3.16,.84-4.32,1.92-1.16,1.08-1.74,2.8-1.74,5.16v14.64c0,.36-.13,.68-.39,.96-.26,.28-.59,.42-.99,.42Z"/><path class="d" d="M242.88,104.76c-.4,0-.74-.13-1.02-.39-.28-.26-.42-.59-.42-.99v-.48l-7.38,1.44c-1.84,.36-3.4,.46-4.68,.3-1.28-.16-2.36-.56-3.24-1.2-.64-.52-1.15-1.17-1.53-1.95-.38-.78-.61-1.67-.69-2.67-.24-2.32,.27-4.23,1.53-5.73,1.26-1.5,3.21-2.47,5.85-2.91l10.14-1.74v-1.68c0-.8-.13-1.65-.39-2.55-.26-.9-.79-1.57-1.59-2.01-.64-.4-1.46-.6-2.46-.6-2.48,0-5.54,1.12-9.18,3.36-.36,.2-.72,.25-1.08,.15-.36-.1-.64-.31-.84-.63-.24-.36-.31-.73-.21-1.11,.1-.38,.31-.65,.63-.81,2.36-1.44,4.42-2.43,6.18-2.97,1.76-.54,3.26-.81,4.5-.81,.84,0,1.57,.09,2.19,.27,.62,.18,1.15,.39,1.59,.63,1.16,.64,2.04,1.57,2.64,2.79,.6,1.22,.9,2.65,.9,4.29v16.62c0,.4-.13,.73-.39,.99-.26,.26-.61,.39-1.05,.39Zm-9.3-3.3l7.86-1.44v-8.7l-9.6,1.62c-1.64,.28-2.83,.74-3.57,1.38-.74,.64-1.19,1.33-1.35,2.07-.16,.74-.22,1.45-.18,2.13,.12,1.24,.5,2.1,1.14,2.58,.96,.72,2.86,.84,5.7,.36Z"/><path class="d" d="M268.79,104.7c-.4,0-.74-.14-1.02-.42s-.42-.6-.42-.96v-23.16c0-.4,.14-.74,.42-1.02s.62-.42,1.02-.42,.73,.14,.99,.42c.26,.28,.39,.62,.39,1.02v1.5c.6-.72,1.44-1.35,2.52-1.89,1.08-.54,2.12-.89,3.12-1.05,1.4-.2,2.82-.09,4.26,.33s2.73,1.13,3.87,2.13c1.14,1,1.93,2.32,2.37,3.96,.12,.36,.08,.71-.12,1.05-.2,.34-.48,.57-.84,.69-.4,.08-.77,.02-1.11-.18-.34-.2-.55-.48-.63-.84-.32-1.16-.88-2.08-1.68-2.76-.8-.68-1.71-1.14-2.73-1.38s-2.01-.28-2.97-.12c-1.72,.2-3.16,.84-4.32,1.92-1.16,1.08-1.74,2.8-1.74,5.16v14.64c0,.36-.13,.68-.39,.96-.26,.28-.59,.42-.99,.42Z"/><path class="d" d="M302.39,104.7c-3.4,0-6.08-1.17-8.04-3.51-1.96-2.34-2.94-5.51-2.94-9.51s.98-7.22,2.94-9.54c1.96-2.32,4.64-3.48,8.04-3.48,2.96,0,5.45,1.02,7.47,3.06,2.02,2.04,3.11,4.8,3.27,8.28v.18c0,.36-.14,.68-.42,.96-.24,.28-.58,.42-1.02,.42h-17.4c0,3.08,.65,5.56,1.95,7.44,1.3,1.88,3.35,2.82,6.15,2.82,1.44,0,2.79-.31,4.05-.93,1.26-.62,2.23-1.43,2.91-2.43,.24-.32,.55-.52,.93-.6,.38-.08,.73,0,1.05,.24,.32,.2,.52,.5,.6,.9,.08,.4,0,.76-.24,1.08-.96,1.4-2.27,2.52-3.93,3.36-1.66,.84-3.45,1.26-5.37,1.26Zm-7.92-15.96h15.54c-.4-2.28-1.27-4.04-2.61-5.28-1.34-1.24-3.01-1.86-5.01-1.86-2.16,0-3.91,.62-5.25,1.86-1.34,1.24-2.23,3-2.67,5.28Z"/><path class="d" d="M338.51,104.76c-.4,0-.74-.13-1.02-.39-.28-.26-.42-.59-.42-.99v-.48l-7.38,1.44c-1.84,.36-3.4,.46-4.68,.3-1.28-.16-2.36-.56-3.24-1.2-.64-.52-1.15-1.17-1.53-1.95-.38-.78-.61-1.67-.69-2.67-.24-2.32,.27-4.23,1.53-5.73,1.26-1.5,3.21-2.47,5.85-2.91l10.14-1.74v-1.68c0-.8-.13-1.65-.39-2.55-.26-.9-.79-1.57-1.59-2.01-.64-.4-1.46-.6-2.46-.6-2.48,0-5.54,1.12-9.18,3.36-.36,.2-.72,.25-1.08,.15-.36-.1-.64-.31-.84-.63-.24-.36-.31-.73-.21-1.11,.1-.38,.31-.65,.63-.81,2.36-1.44,4.42-2.43,6.18-2.97,1.76-.54,3.26-.81,4.5-.81,.84,0,1.57,.09,2.19,.27,.62,.18,1.15,.39,1.59,.63,1.16,.64,2.04,1.57,2.64,2.79,.6,1.22,.9,2.65,.9,4.29v16.62c0,.4-.13,.73-.39,.99-.26,.26-.61,.39-1.05,.39Zm-9.3-3.3l7.86-1.44v-8.7l-9.6,1.62c-1.64,.28-2.83,.74-3.57,1.38-.74,.64-1.19,1.33-1.35,2.07-.16,.74-.22,1.45-.18,2.13,.12,1.24,.5,2.1,1.14,2.58,.96,.72,2.86,.84,5.7,.36Z"/><path class="d" d="M348.17,117.3c-.4,0-.73-.14-.99-.42-.26-.28-.39-.62-.39-1.02v-35.76c0-.4,.13-.74,.39-1.02,.26-.28,.59-.42,.99-.42s.74,.14,1.02,.42c.28,.28,.42,.62,.42,1.02v2.22c.88-1.12,1.95-2.01,3.21-2.67,1.26-.66,2.73-.99,4.41-.99,3.4,0,6.08,1.16,8.04,3.48,1.96,2.32,2.94,5.5,2.94,9.54s-.98,7.17-2.94,9.51c-1.96,2.34-4.64,3.51-8.04,3.51-1.68,0-3.15-.32-4.41-.96-1.26-.64-2.33-1.52-3.21-2.64v14.76c0,.4-.14,.74-.42,1.02-.28,.28-.62,.42-1.02,.42Zm9.06-15.48c2.6,0,4.61-.88,6.03-2.64,1.42-1.76,2.13-4.26,2.13-7.5s-.71-5.68-2.13-7.44c-1.42-1.76-3.43-2.64-6.03-2.64-5.12,0-7.68,3.36-7.68,10.08s2.56,10.14,7.68,10.14Z"/><path class="d" d="M384.23,104.7c-3.4,0-6.08-1.17-8.04-3.51-1.96-2.34-2.94-5.51-2.94-9.51s.98-7.22,2.94-9.54c1.96-2.32,4.64-3.48,8.04-3.48,2.96,0,5.45,1.02,7.47,3.06,2.02,2.04,3.11,4.8,3.27,8.28v.18c0,.36-.14,.68-.42,.96-.24,.28-.58,.42-1.02,.42h-17.4c0,3.08,.65,5.56,1.95,7.44,1.3,1.88,3.35,2.82,6.15,2.82,1.44,0,2.79-.31,4.05-.93,1.26-.62,2.23-1.43,2.91-2.43,.24-.32,.55-.52,.93-.6,.38-.08,.73,0,1.05,.24,.32,.2,.52,.5,.6,.9,.08,.4,0,.76-.24,1.08-.96,1.4-2.27,2.52-3.93,3.36-1.66,.84-3.45,1.26-5.37,1.26Zm-7.92-15.96h15.54c-.4-2.28-1.27-4.04-2.61-5.28-1.34-1.24-3.01-1.86-5.01-1.86-2.16,0-3.91,.62-5.25,1.86-1.34,1.24-2.23,3-2.67,5.28Z"/><path class="d" d="M403.19,104.7c-.4,0-.74-.14-1.02-.42s-.42-.6-.42-.96v-23.16c0-.4,.14-.74,.42-1.02s.62-.42,1.02-.42,.73,.14,.99,.42c.26,.28,.39,.62,.39,1.02v1.5c.6-.72,1.44-1.35,2.52-1.89,1.08-.54,2.12-.89,3.12-1.05,1.4-.2,2.82-.09,4.26,.33s2.73,1.13,3.87,2.13c1.14,1,1.93,2.32,2.37,3.96,.12,.36,.08,.71-.12,1.05-.2,.34-.48,.57-.84,.69-.4,.08-.77,.02-1.11-.18-.34-.2-.55-.48-.63-.84-.32-1.16-.88-2.08-1.68-2.76-.8-.68-1.71-1.14-2.73-1.38s-2.01-.28-2.97-.12c-1.72,.2-3.16,.84-4.32,1.92-1.16,1.08-1.74,2.8-1.74,5.16v14.64c0,.36-.13,.68-.39,.96-.26,.28-.59,.42-.99,.42Z"/><path class="d" d="M452.81,104.4c-1.64,0-2.93-.47-3.87-1.41-.94-.94-1.41-2.19-1.41-3.75v-16.86h-5.76c-.4,0-.73-.14-.99-.42-.26-.28-.39-.62-.39-1.02s.13-.73,.39-.99c.26-.26,.59-.39,.99-.39h5.76v-8.82c0-.4,.13-.74,.39-1.02,.26-.28,.59-.42,.99-.42s.74,.14,1.02,.42c.28,.28,.42,.62,.42,1.02v8.82h7.44c.4,0,.74,.13,1.02,.39,.28,.26,.42,.59,.42,.99s-.14,.74-.42,1.02-.62,.42-1.02,.42h-7.44v16.86c0,.16,.03,.43,.09,.81,.06,.38,.27,.72,.63,1.02,.36,.3,.94,.45,1.74,.45h4.68c.44,0,.8,.14,1.08,.42,.28,.28,.42,.62,.42,1.02s-.14,.74-.42,1.02-.64,.42-1.08,.42h-4.68Z"/><path class="d" d="M474.05,104.7c-3.4,0-6.08-1.17-8.04-3.51-1.96-2.34-2.94-5.51-2.94-9.51s.98-7.22,2.94-9.54c1.96-2.32,4.64-3.48,8.04-3.48s6.03,1.16,8.01,3.48c1.98,2.32,2.97,5.5,2.97,9.54s-.99,7.17-2.97,9.51c-1.98,2.34-4.65,3.51-8.01,3.51Zm0-2.88c2.6,0,4.6-.88,6-2.64,1.4-1.76,2.1-4.26,2.1-7.5s-.7-5.68-2.1-7.44c-1.4-1.76-3.4-2.64-6-2.64s-4.56,.88-6,2.64c-1.44,1.76-2.16,4.24-2.16,7.44s.72,5.74,2.16,7.5c1.44,1.76,3.44,2.64,6,2.64Z"/><path class="d" d="M508.37,103.92c-.56,0-.98-.26-1.26-.78-.16-.2-.24-.44-.24-.72,0-.32,.08-.58,.24-.78,3.84-6.56,7.06-12.04,9.66-16.44,2.6-4.4,4.69-7.95,6.27-10.65,1.58-2.7,2.78-4.74,3.6-6.12,.82-1.38,1.51-2.55,2.07-3.51h-18.78c-.4,0-.74-.15-1.02-.45-.28-.3-.42-.65-.42-1.05s.14-.75,.42-1.05c.28-.3,.62-.45,1.02-.45h21.42c.6,0,1.02,.26,1.26,.78,.12,.16,.18,.4,.18,.72,0,.2-.06,.46-.18,.78-3.84,6.56-7.06,12.04-9.66,16.44-2.6,4.4-4.69,7.95-6.27,10.65-1.58,2.7-2.78,4.74-3.6,6.12-.82,1.38-1.51,2.55-2.07,3.51h19.8c.44,0,.8,.14,1.08,.42,.28,.28,.42,.64,.42,1.08,0,.4-.14,.75-.42,1.05-.28,.3-.64,.45-1.08,.45h-22.44Z"/><path class="d" d="M554.45,104.7c-3,0-5.61-.62-7.83-1.86-2.22-1.24-3.95-2.98-5.19-5.22-1.24-2.24-1.86-4.84-1.86-7.8v-13.92c0-3,.62-5.61,1.86-7.83,1.24-2.22,2.97-3.95,5.19-5.19,2.22-1.24,4.83-1.86,7.83-1.86s5.61,.62,7.83,1.86c2.22,1.24,3.95,2.97,5.19,5.19,1.24,2.22,1.86,4.83,1.86,7.83v13.92c0,2.96-.62,5.56-1.86,7.8-1.24,2.24-2.97,3.98-5.19,5.22-2.22,1.24-4.83,1.86-7.83,1.86Zm0-3c2.4,0,4.49-.49,6.27-1.47,1.78-.98,3.16-2.37,4.14-4.17,.98-1.8,1.47-3.88,1.47-6.24v-13.92c0-2.4-.49-4.49-1.47-6.27-.98-1.78-2.36-3.16-4.14-4.14-1.78-.98-3.87-1.47-6.27-1.47s-4.49,.49-6.27,1.47c-1.78,.98-3.16,2.36-4.14,4.14-.98,1.78-1.47,3.87-1.47,6.27v13.92c0,2.36,.49,4.44,1.47,6.24,.98,1.8,2.36,3.19,4.14,4.17,1.78,.98,3.87,1.47,6.27,1.47Z"/><path class="d" d="M592.13,104.7c-3,0-5.61-.62-7.83-1.86-2.22-1.24-3.95-2.98-5.19-5.22-1.24-2.24-1.86-4.84-1.86-7.8v-13.92c0-3,.62-5.61,1.86-7.83,1.24-2.22,2.97-3.95,5.19-5.19,2.22-1.24,4.83-1.86,7.83-1.86s5.61,.62,7.83,1.86c2.22,1.24,3.95,2.97,5.19,5.19,1.24,2.22,1.86,4.83,1.86,7.83v13.92c0,2.96-.62,5.56-1.86,7.8-1.24,2.24-2.97,3.98-5.19,5.22-2.22,1.24-4.83,1.86-7.83,1.86Zm0-3c2.4,0,4.49-.49,6.27-1.47,1.78-.98,3.16-2.37,4.14-4.17,.98-1.8,1.47-3.88,1.47-6.24v-13.92c0-2.4-.49-4.49-1.47-6.27-.98-1.78-2.36-3.16-4.14-4.14-1.78-.98-3.87-1.47-6.27-1.47s-4.49,.49-6.27,1.47c-1.78,.98-3.16,2.36-4.14,4.14-.98,1.78-1.47,3.87-1.47,6.27v13.92c0,2.36,.49,4.44,1.47,6.24,.98,1.8,2.36,3.19,4.14,4.17,1.78,.98,3.87,1.47,6.27,1.47Z"/><path class="d" d="M616.97,104.7c-.4,0-.75-.14-1.05-.42-.3-.28-.45-.62-.45-1.02V62.52c0-.72,.38-1.22,1.14-1.5,.72-.2,1.28,.04,1.68,.72l14.34,25.08,14.4-25.08c.16-.32,.41-.54,.75-.66,.34-.12,.65-.14,.93-.06,.76,.28,1.14,.78,1.14,1.5v40.74c0,.4-.15,.74-.45,1.02-.3,.28-.67,.42-1.11,.42-.4,0-.74-.14-1.02-.42-.28-.28-.42-.62-.42-1.02v-35.16l-12.9,22.44c-.24,.52-.68,.78-1.32,.78-.56,0-1-.26-1.32-.78l-12.84-22.44v35.16c0,.4-.14,.74-.42,1.02-.28,.28-.64,.42-1.08,.42Z"/><path class="d" d="M692.57,104.76c-.4,0-.74-.13-1.02-.39-.28-.26-.42-.59-.42-.99v-.48l-7.38,1.44c-1.84,.36-3.4,.46-4.68,.3-1.28-.16-2.36-.56-3.24-1.2-.64-.52-1.15-1.17-1.53-1.95-.38-.78-.61-1.67-.69-2.67-.24-2.32,.27-4.23,1.53-5.73,1.26-1.5,3.21-2.47,5.85-2.91l10.14-1.74v-1.68c0-.8-.13-1.65-.39-2.55-.26-.9-.79-1.57-1.59-2.01-.64-.4-1.46-.6-2.46-.6-2.48,0-5.54,1.12-9.18,3.36-.36,.2-.72,.25-1.08,.15-.36-.1-.64-.31-.84-.63-.24-.36-.31-.73-.21-1.11,.1-.38,.31-.65,.63-.81,2.36-1.44,4.42-2.43,6.18-2.97,1.76-.54,3.26-.81,4.5-.81,.84,0,1.57,.09,2.19,.27,.62,.18,1.15,.39,1.59,.63,1.16,.64,2.04,1.57,2.64,2.79,.6,1.22,.9,2.65,.9,4.29v16.62c0,.4-.13,.73-.39,.99-.26,.26-.61,.39-1.05,.39Zm-9.3-3.3l7.86-1.44v-8.7l-9.6,1.62c-1.64,.28-2.83,.74-3.57,1.38-.74,.64-1.19,1.33-1.35,2.07-.16,.74-.22,1.45-.18,2.13,.12,1.24,.5,2.1,1.14,2.58,.96,.72,2.86,.84,5.7,.36Z"/><path class="d" d="M701.03,104.7c-.4,0-.73-.13-.99-.39s-.39-.59-.39-.99v-23.28c0-.4,.13-.74,.39-1.02,.26-.28,.59-.42,.99-.42s.74,.14,1.02,.42c.28,.28,.42,.62,.42,1.02v1.98c.92-1.04,2.02-1.86,3.3-2.46,1.28-.6,2.66-.9,4.14-.9,2.76,0,4.93,.91,6.51,2.73,1.58,1.82,2.37,4.29,2.37,7.41v14.4c0,.4-.13,.74-.39,1.02-.26,.28-.59,.42-.99,.42s-.74-.14-1.02-.42-.42-.62-.42-1.02v-14.4c0-.92-.14-1.94-.42-3.06-.28-1.12-.85-2.09-1.71-2.91-.86-.82-2.17-1.23-3.93-1.23-2.32,0-4.14,.64-5.46,1.92-1.32,1.28-1.98,3.1-1.98,5.46v14.34c0,.4-.14,.73-.42,.99-.28,.26-.62,.39-1.02,.39Z"/><path class="d" d="M745.31,104.76c-.4,0-.73-.13-.99-.39-.26-.26-.39-.59-.39-.99v-2.52c-.92,1.16-2.04,2.09-3.36,2.79-1.32,.7-2.84,1.05-4.56,1.05-3.4,0-6.08-1.17-8.04-3.51-1.96-2.34-2.94-5.51-2.94-9.51s.98-7.22,2.94-9.54c1.96-2.32,4.64-3.48,8.04-3.48,1.72,0,3.24,.36,4.56,1.08,1.32,.72,2.44,1.66,3.36,2.82v-21.06c0-.4,.13-.74,.39-1.02,.26-.28,.59-.42,.99-.42s.74,.14,1.02,.42c.28,.28,.42,.62,.42,1.02v41.88c0,.4-.14,.73-.42,.99-.28,.26-.62,.39-1.02,.39Zm-9.3-2.94c2.56,0,4.52-.88,5.88-2.64,1.36-1.76,2.04-4.26,2.04-7.5s-.68-5.68-2.04-7.44c-1.36-1.76-3.32-2.64-5.88-2.64s-4.56,.88-6,2.64c-1.44,1.76-2.16,4.24-2.16,7.44s.72,5.74,2.16,7.5c1.44,1.76,3.44,2.64,6,2.64Z"/><path class="d" d="M779.99,104.7c-2.28,0-4.29-.5-6.03-1.5-1.74-1-2.97-2.34-3.69-4.02-.16-.36-.16-.72,0-1.08,.16-.36,.42-.62,.78-.78s.72-.16,1.08,0c.36,.16,.62,.42,.78,.78,.52,1.16,1.41,2.07,2.67,2.73,1.26,.66,2.73,.99,4.41,.99s3.06-.17,4.02-.51c.96-.34,1.65-.76,2.07-1.26,.42-.5,.68-1,.78-1.5,.1-.5,.15-.89,.15-1.17,0-.6-.14-1.18-.42-1.74-.28-.56-.88-1.09-1.8-1.59-.92-.5-2.34-.95-4.26-1.35-1.36-.28-2.77-.68-4.23-1.2-1.46-.52-2.69-1.25-3.69-2.19-1-.94-1.5-2.17-1.5-3.69,.04-2.04,.9-3.71,2.58-5.01,1.68-1.3,3.86-1.95,6.54-1.95,2,0,3.81,.43,5.43,1.29s2.81,2.03,3.57,3.51c.2,.32,.24,.67,.12,1.05-.12,.38-.34,.67-.66,.87-.4,.16-.78,.19-1.14,.09-.36-.1-.62-.33-.78-.69-.44-.8-1.2-1.53-2.28-2.19s-2.5-.99-4.26-.99c-1,0-1.98,.13-2.94,.39-.96,.26-1.75,.68-2.37,1.26-.62,.58-.95,1.39-.99,2.43,0,.24,.1,.61,.3,1.11,.2,.5,.8,1.03,1.8,1.59,1,.56,2.68,1.08,5.04,1.56,1.4,.28,2.77,.69,4.11,1.23,1.34,.54,2.46,1.3,3.36,2.28,.9,.98,1.33,2.29,1.29,3.93,0,.68-.12,1.44-.36,2.28-.24,.84-.7,1.64-1.38,2.4-.68,.76-1.67,1.39-2.97,1.89-1.3,.5-3.01,.75-5.13,.75Z"/><path class="d" d="M806.33,104.4c-1.64,0-2.93-.47-3.87-1.41-.94-.94-1.41-2.19-1.41-3.75v-16.86h-5.76c-.4,0-.73-.14-.99-.42-.26-.28-.39-.62-.39-1.02s.13-.73,.39-.99c.26-.26,.59-.39,.99-.39h5.76v-8.82c0-.4,.13-.74,.39-1.02,.26-.28,.59-.42,.99-.42s.74,.14,1.02,.42c.28,.28,.42,.62,.42,1.02v8.82h7.44c.4,0,.74,.13,1.02,.39,.28,.26,.42,.59,.42,.99s-.14,.74-.42,1.02-.62,.42-1.02,.42h-7.44v16.86c0,.16,.03,.43,.09,.81,.06,.38,.27,.72,.63,1.02,.36,.3,.94,.45,1.74,.45h4.68c.44,0,.8,.14,1.08,.42,.28,.28,.42,.62,.42,1.02s-.14,.74-.42,1.02-.64,.42-1.08,.42h-4.68Z"/><path class="d" d="M819.83,104.7c-.4,0-.74-.14-1.02-.42s-.42-.6-.42-.96v-23.16c0-.4,.14-.74,.42-1.02s.62-.42,1.02-.42,.73,.14,.99,.42c.26,.28,.39,.62,.39,1.02v1.5c.6-.72,1.44-1.35,2.52-1.89,1.08-.54,2.12-.89,3.12-1.05,1.4-.2,2.82-.09,4.26,.33s2.73,1.13,3.87,2.13c1.14,1,1.93,2.32,2.37,3.96,.12,.36,.08,.71-.12,1.05-.2,.34-.48,.57-.84,.69-.4,.08-.77,.02-1.11-.18-.34-.2-.55-.48-.63-.84-.32-1.16-.88-2.08-1.68-2.76-.8-.68-1.71-1.14-2.73-1.38s-2.01-.28-2.97-.12c-1.72,.2-3.16,.84-4.32,1.92-1.16,1.08-1.74,2.8-1.74,5.16v14.64c0,.36-.13,.68-.39,.96-.26,.28-.59,.42-.99,.42Z"/><path class="d" d="M850.55,104.76c-.4,0-.73-.13-.99-.39-.26-.26-.39-.59-.39-.99v-20.94h-6.9c-.4,0-.74-.15-1.02-.45-.28-.3-.42-.65-.42-1.05s.14-.73,.42-.99c.28-.26,.62-.39,1.02-.39h8.28c.44,0,.8,.13,1.08,.39,.28,.26,.42,.59,.42,.99v22.44c0,.4-.14,.73-.42,.99-.28,.26-.64,.39-1.08,.39Zm-.72-36.06c-.56,0-1.02-.16-1.38-.48-.36-.32-.54-.68-.54-1.08v-3.72c0-.4,.18-.77,.54-1.11,.36-.34,.82-.51,1.38-.51s1.01,.17,1.35,.51c.34,.34,.51,.71,.51,1.11v3.72c0,.4-.17,.76-.51,1.08-.34,.32-.79,.48-1.35,.48Z"/><path class="d" d="M862.49,104.7c-.4,0-.74-.13-1.02-.39-.28-.26-.42-.59-.42-.99V61.44c0-.4,.14-.74,.42-1.02s.62-.42,1.02-.42,.74,.14,1.02,.42c.28,.28,.42,.62,.42,1.02v28.74l13.56-11.16c.32-.24,.67-.34,1.05-.3,.38,.04,.71,.22,.99,.54,.2,.28,.29,.61,.27,.99-.02,.38-.19,.71-.51,.99l-9.24,7.56,10.2,13.62c.28,.28,.38,.62,.3,1.02-.08,.4-.28,.72-.6,.96-.28,.24-.62,.33-1.02,.27-.4-.06-.72-.23-.96-.51l-10.08-13.56-3.96,3.24v9.48c0,.4-.14,.73-.42,.99-.28,.26-.62,.39-1.02,.39Z"/><path class="d" d="M896.33,104.7c-3.4,0-6.08-1.17-8.04-3.51-1.96-2.34-2.94-5.51-2.94-9.51s.98-7.22,2.94-9.54c1.96-2.32,4.64-3.48,8.04-3.48,2.96,0,5.45,1.02,7.47,3.06,2.02,2.04,3.11,4.8,3.27,8.28v.18c0,.36-.14,.68-.42,.96-.24,.28-.58,.42-1.02,.42h-17.4c0,3.08,.65,5.56,1.95,7.44,1.3,1.88,3.35,2.82,6.15,2.82,1.44,0,2.79-.31,4.05-.93,1.26-.62,2.23-1.43,2.91-2.43,.24-.32,.55-.52,.93-.6,.38-.08,.73,0,1.05,.24,.32,.2,.52,.5,.6,.9,.08,.4,0,.76-.24,1.08-.96,1.4-2.27,2.52-3.93,3.36-1.66,.84-3.45,1.26-5.37,1.26Zm-7.92-15.96h15.54c-.4-2.28-1.27-4.04-2.61-5.28-1.34-1.24-3.01-1.86-5.01-1.86-2.16,0-3.91,.62-5.25,1.86-1.34,1.24-2.23,3-2.67,5.28Z"/><path class="d" d="M918.23,104.7c-1,0-1.8-.37-2.4-1.11-.6-.74-.9-1.61-.9-2.61s.3-1.92,.9-2.64,1.4-1.08,2.4-1.08,1.85,.36,2.43,1.08c.58,.72,.87,1.6,.87,2.64s-.29,1.87-.87,2.61c-.58,.74-1.39,1.11-2.43,1.11Z"/></g></g></g></svg>