<?xml version="1.0" encoding="UTF-8"?><svg xmlns="http://www.w3.org/2000/svg" viewBox="0 0 292.95 848.74"><defs><style>.d{fill:#fff;}.e{fill:#ed7d6c;}.f{fill:#cea1c1;}.g{fill:#d0afb9;}.h{fill:#a85a5a;}.i{fill:#8c4b4b;}.j,.k{fill:#e2b0d1;}.l{fill:#c1f2f4;}.m{fill:#bc6c6c;}.n,.o{fill:none;}.n,.o,.k{stroke:#1b1b4c;stroke-width:3px;}.n,.k{stroke-miterlimit:10;}.o{stroke-linecap:round;stroke-linejoin:round;}</style></defs><g id="a"/><g id="b"><g id="c"><g><g><g><path class="d" d="M283.99,726.22c21.42,41.75-8.19,53.67-27.24,17.46-4.59-8.72-9.42-17.83-14.44-27.19l.88-.47c0-14.14-.85-28.27-2.53-42.31,1.27,7.55,6.56,14.36,13.64,17.32,.21-3.43,.43-6.86,.64-10.3,3.7,4.4,7.41,8.79,11.12,13.19l1.01-.53c6,11.59,11.69,22.63,16.92,32.83Z"/><path class="m" d="M267.07,693.39l-1.01,.53c-3.71-4.4-7.42-8.79-11.12-13.19-.21,3.44-.43,6.87-.64,10.3-7.08-2.96-12.37-9.77-13.64-17.32-.08-.67-.17-1.34-.25-2.01,.05,.68,.13,1.35,.25,2.01,1.68,14.04,2.53,28.17,2.53,42.31l-.88,.47c-49.76-93.03-116.44-211.53-121.87-229.86-4.1-13.77,15.45-22.57,24.22-12.15,19.75,23.43,79.12,135.24,122.41,218.91Z"/></g><g><path class="o" d="M267.07,693.39c6,11.59,11.69,22.63,16.92,32.83,21.42,41.75-8.19,53.67-27.24,17.46-4.59-8.72-9.42-17.83-14.44-27.19-49.76-93.03-116.44-211.53-121.87-229.86-4.1-13.77,15.45-22.57,24.22-12.15,19.75,23.43,79.12,135.24,122.41,218.91Z"/><path class="o" d="M240.66,673.71c1.27,7.55,6.56,14.36,13.64,17.32,.21-3.43,.43-6.86,.64-10.3,3.7,4.4,7.41,8.79,11.12,13.19"/><path class="o" d="M240.66,673.71c-.08-.67-.17-1.34-.25-2.01,.05,.68,.13,1.35,.25,2.01Z"/><path class="o" d="M243.19,716.02c0-14.14-.85-28.27-2.53-42.31"/></g></g><g><g><path class="j" d="M188.04,227.72c14.08,36.47,22.14,71.23,26.45,106.48-7.85,1.52-15.5,3.8-22.74,7.19-4.93-36.3-13.13-75.66-23.87-110.27-1.73-5.03-3.65-23.52,8.12-18.42,6.23,2.69,12.04,15.02,12.04,15.02Z"/><path class="m" d="M105.53,68.2c15.57-2.19,30.39,4.73,30.39,4.73,1.53-19.79,16.15-43.97,31.86-54.65,2.76-1.87,16.89-10.06,19.58-8.02,2.08,1.58-2.07,71.25-13.04,94.9,0,0,3.34,8.03,1.22,19.11-2.13,11.09-10.18,21.25-10.18,21.25,0,0-5.63,9.45-15.81,15.68-6.61,4.04-15.15,7.28-22.77,8.85-1.02-.39-2.18-.32-3.28-.24-3.99,.29-7.97,.58-11.95,.87-2.46-.19-5-.39-7.6-.59-5.66-.45-11.6-.91-17.64-1.42l.18-2.14c.59-3.7,1.18-7.41,1.77-11.11l-6.94,.89-.6,.08s.02,.05,.03,.08c-7.45,2.05-15.05,5.31-20.87,8.67l-.11,1.03c-34.99-3.78-65.14-9.62-56.9-20.62,4.98-6.63,27.6-14.98,45.18-30.64,3.87-3.44,20.77-19.25,20.32-25.04-1.5-19.14-21.28-37.25-12-63.48,1.62-4.57,10.81-23.84,15.32-24.87,5.29-1.22,30.17,45.19,33.29,61.59l.55,5.09Zm73.54-33.67c.62-5.66-4.67-5.77-4.67-5.77-8.8,2.36-20.54,24.05-25.18,35.97-.93,2.38-1.93,4.86-2.33,7.51-1,6.67,6.27,14.8,11.6,18.2,5.34,3.4,8.37,3.24,10.6-2.56,1.96-5.08,3.3-14.31,3.65-17.44,1.28-11.43,5.9-31.97,6.33-35.91Zm-15.12,109.55c2.03-6.24-.51-13.67-5.94-17.35-5.43-3.69-13.28-3.31-18.33,.88-3.36,2.79-5.36,6.88-7.01,10.93-2.96,7.27-4.31,15.18-2.97,22.91,.91,5.34,4.63,4.31,4.63,4.31,10.05-1.48,19.47-6.93,25.77-14.91,1.62-2.05,3.05-4.29,3.85-6.77Zm-43.02-28.8c-.32-.5-.66-.98-1.05-1.44-4.19-5.2-11.63-7.65-18.08-5.77-1.02,.3-2,.7-2.93,1.19-5.45,2.87-9.25,8.8-9.32,14.98v.2l.1,.39c-.89,1.52,.21,3.79,1.96,4.04,1.74,.24,3.42-1.65,2.98-3.36,3.28,4.04,9.52,4.83,14.26,2.68,1.04-.47,2.2-1.35,3.38-2.44,4.22-3.9,8.7-10.47,8.7-10.47Zm-19.22-16.82c.59-.35,1.27-.84,1.25-1.53-.03-.68-.71-1.12-1.34-1.39-1.74-.72-5.56-.98-5.56-.98-4.34-.24-8.61,3.02-9.52,7.27-.22,1.03-.19,2.26,.63,2.92,1,.81,2.48,.26,3.63-.32,3.69-1.88,7.33-3.87,10.91-5.97ZM23.09,141.6c.24-.29,.23-.76,0-1.06-.29-.37-.93-.36-1.47-.31-3.56,.34-7.13,.68-10.7,1.03-14,5.02-9.63,15.24,6.83,15.85-.96-4.31,.15-9.28,5.34-15.51Z"/><path class="g" d="M174.4,28.76s5.29,.11,4.67,5.77c-.43,3.94-5.05,24.48-6.33,35.91-.35,3.13-1.69,12.36-3.65,17.44-2.23,5.8-5.26,5.96-10.6,2.56-5.33-3.4-12.6-11.53-11.6-18.2,.4-2.65,1.4-5.13,2.33-7.51,4.64-11.92,16.38-33.61,25.18-35.97Z"/><path class="e" d="M158.01,126.73c5.43,3.68,7.97,11.11,5.94,17.35-.8,2.48-2.23,4.72-3.85,6.77-6.3,7.98-15.72,13.43-25.77,14.91,0,0-3.72,1.03-4.63-4.31-1.34-7.73,.01-15.64,2.97-22.91,1.65-4.05,3.65-8.14,7.01-10.93,5.05-4.19,12.9-4.57,18.33-.88Z"/><path class="m" d="M111.55,170.68c1.4,.11,2.77,.22,4.11,.33,3.14,.26,7-.11,11.12-.96,.13,.04,.25,.1,.37,.16,1.91,1,2.4,3.47,2.67,5.62,.46,3.61,.91,7.27,.38,10.87-.54,3.6-2.21,7.19-5.21,9.25-3.11,2.14-7.13,2.34-10.91,2.25-3.29-.08-7.17-.7-8.62-3.66-.58-1.16-.65-2.5-.71-3.8-.3-6.41-.6-12.82-.91-19.23l.11-1.42c2.6,.2,5.14,.4,7.6,.59Z"/><path class="d" d="M119.88,113.84c.39,.46,.73,.94,1.05,1.44,0,0-4.48,6.57-8.7,10.47l-2.6-1.46c2.27-1.88,3.47-4.98,3.06-7.9-.26-1.89-1.2-3.66-2.55-5,3.34,.12,6.65,.98,9.6,2.56l.14-.11Z"/><path class="h" d="M119.88,113.84l-.14,.11c-2.95-1.58-6.26-2.44-9.6-2.56-.74-.74-1.61-1.34-2.57-1.76-2.7-1.19-6.01-.87-8.43,.8l-.3-.08c.07-.25,.14-.49,.21-.74l-.18-.35c.93-.49,1.91-.89,2.93-1.19,6.45-1.88,13.89,.57,18.08,5.77Z"/><path class="l" d="M112.69,116.39c.41,2.92-.79,6.02-3.06,7.9-1.92,1.6-4.66,2.3-7.01,1.44-2.86-1.04-4.57-4.12-4.88-7.15-.14-1.28-.07-2.57,.13-3.85,1.42-.92,2.95-1.66,4.55-2.21,2.48-.84,5.11-1.21,7.72-1.13,1.35,1.34,2.29,3.11,2.55,5Z"/><path class="d" d="M109.63,124.29l2.6,1.46c-1.18,1.09-2.34,1.97-3.38,2.44-4.74,2.15-10.98,1.36-14.26-2.68,.44,1.71-1.24,3.6-2.98,3.36-1.75-.25-2.85-2.52-1.96-4.04l-.1-.39v-.2h.05c1.73-3.89,4.67-7.23,8.27-9.51-.2,1.28-.27,2.57-.13,3.85,.31,3.03,2.02,6.11,4.88,7.15,2.35,.86,5.09,.16,7.01-1.44Z"/><path class="h" d="M110.14,111.39c-2.61-.08-5.24,.29-7.72,1.13-1.6,.55-3.13,1.29-4.55,2.21,.21-1.47,.58-2.94,.97-4.38l.3,.08c2.42-1.67,5.73-1.99,8.43-.8,.96,.42,1.83,1.02,2.57,1.76Z"/><path class="i" d="M102.96,96.93c.02,.69-.66,1.18-1.25,1.53-3.58,2.1-7.22,4.09-10.91,5.97-1.15,.58-2.63,1.13-3.63,.32-.82-.66-.85-1.89-.63-2.92,.91-4.25,5.18-7.51,9.52-7.27,0,0,3.82,.26,5.56,.98,.63,.27,1.31,.71,1.34,1.39Z"/><path class="h" d="M98.87,109.26l.18,.35c-.07,.25-.14,.49-.21,.74-.39,1.44-.76,2.91-.97,4.38-3.6,2.28-6.54,5.62-8.27,9.51h-.05c.07-6.18,3.87-12.11,9.32-14.98Z"/><path class="d" d="M88.26,155.42c-.59,3.7-1.18,7.41-1.77,11.11-2.58-2.91-4.55-6.36-5.74-10.06,.19-.06,.38-.11,.57-.16l6.94-.89Z"/><path class="m" d="M86.49,166.53l-.18,2.14c-8.8-.73-17.82-1.55-26.54-2.5l.11-1.03c5.82-3.36,13.42-6.62,20.87-8.67,1.19,3.7,3.16,7.15,5.74,10.06Z"/><path class="i" d="M23.09,140.54c.23,.3,.24,.77,0,1.06-5.19,6.23-6.3,11.2-5.34,15.51-16.46-.61-20.83-10.83-6.83-15.85,3.57-.35,7.14-.69,10.7-1.03,.54-.05,1.18-.06,1.47,.31Z"/></g><g><path class="n" d="M78.23,82.21c1.98-4.2,17.87-11.71,22.05-12.9,1.74-.5,3.5-.86,5.25-1.11,15.57-2.19,30.39,4.73,30.39,4.73,1.53-19.79,16.15-43.97,31.86-54.65,2.76-1.87,16.89-10.06,19.58-8.02,2.08,1.58-2.07,71.25-13.04,94.9,0,0,3.34,8.03,1.22,19.11-2.13,11.09-10.18,21.25-10.18,21.25,0,0-5.63,9.45-15.81,15.68-6.61,4.04-15.15,7.28-22.77,8.85-4.12,.85-7.98,1.22-11.12,.96-1.34-.11-2.71-.22-4.11-.33-2.46-.19-5-.39-7.6-.59-5.66-.45-11.6-.91-17.64-1.42-8.8-.73-17.82-1.55-26.54-2.5-34.99-3.78-65.14-9.62-56.9-20.62,4.98-6.63,27.6-14.98,45.18-30.64,3.87-3.44,20.77-19.25,20.32-25.04-1.5-19.14-21.28-37.25-12-63.48,1.62-4.57,10.81-23.84,15.32-24.87,5.29-1.22,30.17,45.19,33.29,61.59l.55,5.09h0"/><path class="n" d="M17.75,157.11c-.96-4.31,.15-9.28,5.34-15.51,.24-.29,.23-.76,0-1.06-.29-.37-.93-.36-1.47-.31-3.56,.34-7.13,.68-10.7,1.03-14,5.02-9.63,15.24,6.83,15.85Z"/><path class="n" d="M92.5,154.36c-3.49,.21-7.31,.91-11.18,1.95-.19,.05-.38,.1-.57,.16-7.45,2.05-15.05,5.31-20.87,8.67"/><path class="n" d="M89.55,124.24v.2l.1,.39c-.89,1.52,.21,3.79,1.96,4.04,1.74,.24,3.42-1.65,2.98-3.36,3.28,4.04,9.52,4.83,14.26,2.68,1.04-.47,2.2-1.35,3.38-2.44,4.22-3.9,8.7-10.47,8.7-10.47-.32-.5-.66-.98-1.05-1.44-4.19-5.2-11.63-7.65-18.08-5.77-1.02,.3-2,.7-2.93,1.19-5.45,2.87-9.25,8.8-9.32,14.98Z"/><path class="n" d="M129.7,161.45c-1.34-7.73,.01-15.64,2.97-22.91,1.65-4.05,3.65-8.14,7.01-10.93,5.05-4.19,12.9-4.57,18.33-.88,5.43,3.68,7.97,11.11,5.94,17.35-.8,2.48-2.23,4.72-3.85,6.77-6.3,7.98-15.72,13.43-25.77,14.91,0,0-3.72,1.03-4.63-4.31Z"/><path class="n" d="M99.05,109.61c-.07,.25-.14,.49-.21,.74-.39,1.44-.76,2.91-.97,4.38-.2,1.28-.27,2.57-.13,3.85,.31,3.03,2.02,6.11,4.88,7.15,2.35,.86,5.09,.16,7.01-1.44,2.27-1.88,3.47-4.98,3.06-7.9-.26-1.89-1.2-3.66-2.55-5-.74-.74-1.61-1.34-2.57-1.76-2.7-1.19-6.01-.87-8.43,.8"/><path class="n" d="M89.6,124.24c1.73-3.89,4.67-7.23,8.27-9.51,1.42-.92,2.95-1.66,4.55-2.21,2.48-.84,5.11-1.21,7.72-1.13,3.34,.12,6.65,.98,9.6,2.56"/><path class="n" d="M100.79,129.7c-.09,1.84-.18,3.67-.27,5.51"/><path class="n" d="M110.01,129.05c.58,1.32,1.16,2.65,1.74,3.98"/><path class="n" d="M116.89,122.38c1.55,1.04,3.09,2.09,4.63,3.13"/><path class="n" d="M179.07,34.53c-.43,3.94-5.05,24.48-6.33,35.91-.35,3.13-1.69,12.36-3.65,17.44-2.23,5.8-5.26,5.96-10.6,2.56-5.33-3.4-12.6-11.53-11.6-18.2,.4-2.65,1.4-5.13,2.33-7.51,4.64-11.92,16.38-33.61,25.18-35.97,0,0,5.29,.11,4.67,5.77Z"/><path class="n" d="M80.72,156.39l.6-.08,6.94-.89c-.59,3.7-1.18,7.41-1.77,11.11-2.58-2.91-4.55-6.36-5.74-10.06,0-.03-.02-.05-.03-.08"/><path class="n" d="M103.84,171.51c.31,6.41,.61,12.82,.91,19.23,.06,1.3,.13,2.64,.71,3.8,1.45,2.96,5.33,3.58,8.62,3.66,3.78,.09,7.8-.11,10.91-2.25,3-2.06,4.67-5.65,5.21-9.25,.53-3.6,.08-7.26-.38-10.87-.27-2.15-.76-4.62-2.67-5.62-.12-.06-.24-.12-.37-.16-1.02-.39-2.18-.32-3.28-.24-3.99,.29-7.97,.58-11.95,.87-1.58,.12-3.17,.23-4.75,.35"/><path class="n" d="M101.62,95.54c.63,.27,1.31,.71,1.34,1.39,.02,.69-.66,1.18-1.25,1.53-3.58,2.1-7.22,4.09-10.91,5.97-1.15,.58-2.63,1.13-3.63,.32-.82-.66-.85-1.89-.63-2.92,.91-4.25,5.18-7.51,9.52-7.27,0,0,3.82,.26,5.56,.98Z"/></g></g><path class="k" d="M204.21,206.9l-31.13-11.95-2.93-1.69-12.41,46.2s28.63-20.09,46.62-28.41c1.81-.84,1.72-3.44-.14-4.15Z"/><path class="j" d="M46.59,226.97c-14.08,36.47-22.14,71.23-26.45,106.48,7.85,1.52,15.49,3.8,22.73,7.19,4.94-36.3,13.13-75.66,23.87-110.27,1.73-5.03,3.66-23.52-8.11-18.42-6.24,2.69-12.04,15.02-12.04,15.02Z"/><g><path class="m" d="M16.68,442.01c-12.31,3.39-21.2,10.96-11.82,18.07,5.85,4.45,7.23-1.71,12.34-5.51-3.04,4.32-5.58,14.43,1.26,17.14,8.54,3.38,12.56-14.85,12.44-10.15-.21,8.58,12.23,20.35,16.01,7.26,.53-1.82-2.27-6.52-2.13-9.37,5.1,5.39,12.61,4.61,14.13-3.18,.72-3.71-6.98-11.28-13.29-11.76l-1.74-1.28c-1.18-.86-1.97-2-2.52-3.29l-.58,.29c-7.68,2.75-16.74,1.26-23.14-3.8l-1.11,.03c.05,1.84,.1,3.69,.15,5.55Z"/><path class="j" d="M20.45,327.53c-4.29,35.1-4.86,70.69-3.92,108.93l1.11-.03c6.4,5.06,15.46,6.55,23.14,3.8l.58-.29c-.55-1.28-.88-2.71-1.14-4.15-4.05-21.74-2.7-59.38,2.97-101.07-7.24-3.39-14.89-5.67-22.74-7.19Z"/></g><path class="k" d="M68.5,239.85c-14.01-10.56-39.83-33.7-39.95-35.06-.3-3.29,3.1-4.41,5.86-4.94l34.94-6.7-.85,46.71Z"/><g><path class="f" d="M171.38,668.21c-.43,57.57-1.52,111.48-2.26,141.6l-1.93-.04c-9.1,3.09-19.37,2.54-28.1-1.49-2.09-.97-4.14-2.17-5.58-3.97l-1.49-.03c.18-.67,.28-1.37,.28-2.08-.18-39.58-1.97-136.37-1.97-136.37,24.54-41.61,41.05,2.38,41.05,2.38Z"/><path class="m" d="M103.5,835.95l-.75,.41c-6.56,2.38-12.71-4.37-13.26-11.32-.54-6.95,3.38-12.62,10.05-14.66,6.66-2.04,7.39-.78,19.97,1.92,4.46,.96,11.06-2.86,12.51-8.02l1.49,.03c1.44,1.8,3.49,3,5.58,3.97,8.73,4.03,19,4.58,28.1,1.49l1.93,.04c-.27,10.94-.49,18.73-.61,22.43-.14,3.97-.45,8.36-3.29,11.14-2.17,2.12-5.32,2.8-8.31,3.28-6.15,1-12.36,1.6-18.59,1.78-4.5,.14-9.08,.05-13.39-1.28-3.09-.96-6.04-2.63-8.22-4.98h-.02c-2.91-.62-4.85,.15-8.78-1.67-1.72-.8-3.31-2.49-4.41-4.56Z"/></g><g><path class="f" d="M167.92,491.81c3.38,43.73,3.91,118.73,3.42,188.85l-41.02-4.6c-1.52-80.1-3.44-156.29-3.82-178.26,0,0,.26-40.2,20.33-35.22,20.07,4.99,21.09,29.23,21.09,29.23Z"/><path class="f" d="M167.92,491.81c3.38,43.73,3.91,118.73,3.42,188.85l-41.02-4.6c-1.52-80.1-3.44-156.29-3.82-178.26,0,0,.26-40.2,20.33-35.22,20.07,4.99,21.09,29.23,21.09,29.23Z"/></g><g><path class="f" d="M95.42,660.82c-.43,57.57-1.52,111.48-2.26,141.6l-1.93-.04c-9.1,3.09-19.37,2.54-28.1-1.49-2.09-.97-4.14-2.17-5.58-3.97l-1.49-.03c.18-.67,.28-1.37,.28-2.08-.18-39.58-1.97-136.37-1.97-136.37,24.54-41.61,41.05,2.38,41.05,2.38Z"/><path class="m" d="M27.54,828.56l-.75,.41c-6.56,2.38-12.71-4.37-13.26-11.32-.54-6.95,3.38-12.62,10.05-14.66,6.66-2.04,7.39-.78,19.97,1.92,4.46,.96,11.06-2.86,12.51-8.02l1.49,.03c1.44,1.8,3.49,3,5.58,3.97,8.73,4.03,19,4.58,28.1,1.49l1.93,.04c-.27,10.94-.49,18.73-.61,22.43-.14,3.97-.45,8.36-3.29,11.14-2.17,2.12-5.32,2.8-8.31,3.28-6.15,1-12.36,1.6-18.59,1.78-4.5,.14-9.08,.05-13.39-1.28-3.09-.96-6.04-2.63-8.22-4.98h-.02c-2.91-.62-4.85,.15-8.78-1.67-1.72-.8-3.31-2.49-4.41-4.56Z"/></g><g><path class="f" d="M91.96,484.42c3.38,43.73,3.91,118.73,3.42,188.85l-41.02-4.6c-1.52-80.1-3.44-156.29-3.82-178.26,0,0,.26-40.2,20.33-35.22,20.07,4.99,21.09,29.23,21.09,29.23Z"/><path class="f" d="M91.96,484.42c3.38,43.73,3.91,118.73,3.42,188.85l-41.02-4.6c-1.52-80.1-3.44-156.29-3.82-178.26,0,0,.26-40.2,20.33-35.22,20.07,4.99,21.09,29.23,21.09,29.23Z"/></g><g><g><path class="j" d="M192.5,491.66c7.2,38.01,11.62,76.98,13.16,116.14-24.05,8.01-49,11.12-73.74,9.2-4.74-.37-9.64-.99-13.73-4.2-4.25-3.34-7.15-9.18-8.83-15.38s-2.28-12.82-2.86-19.37c-1.8-20.24-3.59-40.48-5.39-60.72,1.62,.12,3.24,.17,4.89,.16,2.41-.02,4.82-.04,7.22-.08,14.16-.2,29.34-1.02,40.6-9.32,13.33-9.83,17.4-27.27,19.67-43.31,3.8-26.87,5.53-51.33,6-73.31h0c.81,47.7,13,100.19,13,100.19Z"/><path class="j" d="M173.28,282.11c2.13,23.72,7.28,60.39,6.21,109.36-.47,21.98-2.2,46.44-6,73.31-2.27,16.04-6.34,33.48-19.67,43.31-11.26,8.3-26.44,9.12-40.6,9.32-2.4,.04-4.81,.06-7.22,.08-1.65,.01-3.27-.04-4.89-.16-2.92-32.94-5.85-65.87-8.77-98.81l.16-1.23s0-.01,.01-.03c.81-2.04,46.38-117.44,70.33-197.88,6.94,20.91,8.79,44.47,10.44,62.73Z"/><path class="j" d="M142.35,183.86l28.95,4.77c-2.3,9.34-5.18,19.72-8.46,30.75-1.66-5.04-3.63-9.92-5.96-14.54-3.57-7.07-8.46-14.11-15.08-18.37,.36-1.71,.55-2.61,.55-2.61Z"/><path class="j" d="M156.88,204.84c2.33,4.62,4.3,9.5,5.96,14.54-23.95,80.44-69.52,195.84-70.33,197.88,10.28-46.91,26.53-123.31,37.67-175.84,2.23-10.5,4.25-20.05,5.97-28.21,2.74-12.94,4.74-22.42,5.65-26.74,6.62,4.26,11.51,11.3,15.08,18.37Z"/><path class="m" d="M141.8,186.47c-.91,4.32-2.91,13.8-5.65,26.74l-.98-.21c-7.9,4.47-15.8,8.93-23.7,13.39l-.26,.07c-.05-.04-.1-.09-.15-.13-5.16-4.45-10.33-8.89-15.5-13.34h-.07l.59-24.39c.4-.39,.81-.8,1.25-1.22,7.44-7.12,26.73-6.81,36.86-4.26,2.76,.7,5.29,1.85,7.61,3.35Z"/><path class="l" d="M111.44,227.34c-.24-.2-.48-.41-.72-.61l.34-.4s.1,.09,.15,.13l.26-.07c7.9-4.46,15.8-8.92,23.7-13.39l.98,.21c-1.72,8.16-3.74,17.71-5.97,28.21l-2.22-.06c-5.51-4.68-11.01-9.35-16.52-14.02Z"/><path class="l" d="M127.96,241.36l2.22,.06c-11.14,52.53-27.39,128.93-37.67,175.84-.01,.02-.01,.03-.01,.03l-.16,1.23-1.83-.04,4.32-178.23,1.35,.03c5.09-4.32,10.17-8.62,15.26-12.94,5.51,4.67,11.01,9.34,16.52,14.02Z"/><path class="l" d="M111.44,227.34c-5.09,4.32-10.17,8.62-15.26,12.94l-1.35-.03,.66-27.26h.07c5.17,4.45,10.34,8.89,15.5,13.34l-.34,.4c.24,.2,.48,.41,.72,.61Z"/><path class="j" d="M96.16,185.44l-.08,3.16c-6.42,6.44-8.34,10.83-12.18,19.61-5.2,11.86-10.04,31.72-14.44,56.36-1-25.24-.82-50.53,.54-75.75,8.72-1.12,17.44-2.25,26.16-3.38Z"/><path class="j" d="M96.08,188.6l-.59,24.39-.66,27.26-4.32,178.23-.02,.84c-11.94-50.75-18.99-102.65-21.03-154.75,4.4-24.64,9.24-44.5,14.44-56.36,3.84-8.78,5.76-13.17,12.18-19.61Z"/><path class="j" d="M90.49,419.32c1.68,32.65,3.05,64.76,2.46,96.84-26.93-5.79-46.62-29.77-44.78-57.59,.85-12.75,1.81-25.89,2.89-39.18,0-.02,.01-.05,.01-.07l3.91-43.76c3.96-40.3,8.85-79.54,14.48-110.99,2.04,52.1,9.09,104,21.03,154.75Z"/><path class="j" d="M92.95,516.16c-.35,19.35-1.42,38.69-3.57,58.13-1.41,12.83-2.61,38.2-13.15,39.58-28.18,3.68-60.01-36.15-60.01-36.15-3.63-8,27.8-113.2,34.84-158.33-1.08,13.29-2.04,26.43-2.89,39.18-1.84,27.82,17.85,51.8,44.78,57.59Z"/></g><g><path class="n" d="M90.49,419.32c-11.94-50.75-18.99-102.65-21.03-154.75-1-25.24-.82-50.53,.54-75.75,8.72-1.12,17.44-2.25,26.16-3.38l-.08,3.16-.59,24.39-.66,27.26-4.32,178.23-.02,.84Z"/><path class="n" d="M92.51,417.26c10.28-46.91,26.53-123.31,37.67-175.84,2.23-10.5,4.25-20.05,5.97-28.21,2.74-12.94,4.74-22.42,5.65-26.74,.36-1.71,.55-2.61,.55-2.61l28.95,4.77c-2.3,9.34-5.18,19.72-8.46,30.75-23.95,80.44-69.52,195.84-70.33,197.88-.01,.02-.01,.03-.01,.03"/><path class="n" d="M92.34,418.52c2.92,32.94,5.85,65.87,8.77,98.81,1.8,20.24,3.59,40.48,5.39,60.72,.58,6.55,1.18,13.17,2.86,19.37s4.58,12.04,8.83,15.38c4.09,3.21,8.99,3.83,13.73,4.2,24.74,1.92,49.69-1.19,73.74-9.2-1.54-39.16-5.96-78.13-13.16-116.14,0,0-12.19-52.49-13-100.19"/><path class="n" d="M90.49,419.32c1.68,32.65,3.05,64.76,2.46,96.84-.35,19.35-1.42,38.69-3.57,58.13-1.41,12.83-2.61,38.2-13.15,39.58-28.18,3.68-60.01-36.15-60.01-36.15-3.63-8,27.8-113.2,34.84-158.33,0-.02,.01-.05,.01-.07l3.91-43.76"/><path class="n" d="M95.56,212.99c5.17,4.45,10.34,8.89,15.5,13.34,.05,.04,.1,.09,.15,.13"/><path class="n" d="M111.47,226.39c7.9-4.46,15.8-8.92,23.7-13.39"/><path class="n" d="M110.72,226.73c.24,.2,.48,.41,.72,.61,5.51,4.67,11.01,9.34,16.52,14.02"/><path class="n" d="M111.45,227.34h-.01c-5.09,4.32-10.17,8.62-15.26,12.94"/></g></g><g><path class="m" d="M217.93,445.24c12.31,3.39,21.2,10.96,11.83,18.07-5.86,4.45-7.23-1.71-12.34-5.51,3.03,4.32,5.57,14.43-1.27,17.14-8.54,3.38-12.55-14.85-12.44-10.15,.21,8.58-12.23,20.35-16.01,7.26-.53-1.82,2.27-6.52,2.14-9.38-5.1,5.4-12.62,4.62-14.14-3.17-.72-3.71,6.99-11.28,13.29-11.76l1.74-1.28c1.19-.86,1.97-2,2.52-3.29l.58,.29c7.69,2.74,16.74,1.26,23.14-3.8l1.11,.03c-.05,1.84-.1,3.69-.15,5.55Z"/><path class="j" d="M214.16,330.76c4.29,35.1,4.86,70.69,3.92,108.93l-1.11-.03c-6.4,5.06-15.45,6.54-23.14,3.8l-.58-.29c.55-1.28,.88-2.71,1.15-4.15,4.05-21.75,2.69-59.39-2.98-101.07,7.25-3.39,14.89-5.67,22.74-7.19Z"/></g></g></g></g></svg>