<svg xmlns="http://www.w3.org/2000/svg" viewBox="0 0 189.38 172.6"><defs><style>.cls-1{fill:#fff;}.cls-2{fill:#bc6c6c;}.cls-3{fill:#d0afb9;}.cls-4{fill:#ed7d6c;}.cls-5{fill:#8c4b4b;}.cls-6{fill:#c1f2f4;}.cls-7{fill:none;stroke:#1b1b4c;stroke-linecap:round;stroke-linejoin:round;stroke-width:3px;}</style></defs><g id="Layer_2" data-name="Layer 2"><g id="fox"><path class="cls-1" d="M120.93,115.29a74.06,74.06,0,0,1-8.71,10.46l-2.59-1.46a8.67,8.67,0,0,0,.5-12.9,21.9,21.9,0,0,1,9.6,2.57l.15-.12A14.84,14.84,0,0,1,120.93,115.29Z"/><path class="cls-1" d="M109.63,124.29l2.59,1.46a13.55,13.55,0,0,1-3.38,2.45c-4.74,2.14-11,1.35-14.26-2.68a2.7,2.7,0,1,1-4.93-.69l-.11-.39a1.34,1.34,0,0,1,0-.2h0a22,22,0,0,1,8.27-9.51,15.59,15.59,0,0,0-.13,3.86c.32,3,2,6.1,4.88,7.15A7.35,7.35,0,0,0,109.63,124.29Z"/><path class="cls-2" d="M164,144.09a15.27,15.27,0,0,0-24.27-16.48c-3.37,2.8-5.37,6.88-7,10.93a42,42,0,0,0-3,22.91c.92,5.34,4.63,4.31,4.63,4.31a40.73,40.73,0,0,0,25.77-14.91A22.21,22.21,0,0,0,164,144.09Zm-146.21,13c-1-4.32.16-9.28,5.34-15.52a.87.87,0,0,0,0-1.06c-.29-.37-.93-.36-1.46-.31l-10.7,1C-3.09,146.28,1.29,156.5,17.74,157.12Zm63.51-.79-.54.07,0,.07a92.94,92.94,0,0,0-20.86,8.68l-.11,1c-35-3.78-65.15-9.63-56.9-20.62,5-6.64,27.59-15,45.18-30.64,3.87-3.44,20.77-19.25,20.32-25-1.5-19.14-21.29-37.26-12-63.49C58,21.83,67.18,2.56,71.68,1.52,77,.31,101.86,46.72,105,63.12l.56,5.09c15.56-2.19,30.39,4.72,30.39,4.72,1.52-19.78,16.15-44,31.86-54.65,2.76-1.87,16.88-10.06,19.58-8,2.08,1.58-2.08,71.24-13.05,94.9a36,36,0,0,1,1.22,19.11c-2.12,11.08-10.18,21.25-10.18,21.25a51.61,51.61,0,0,1-15.8,15.67c-10.19,6.23-24.94,10.54-33.9,9.82s-19-1.48-29.34-2.35l.17-2.14q.88-5.55,1.78-11.1Zm13.33-30.81c3.29,4,9.52,4.82,14.26,2.68a13.55,13.55,0,0,0,3.38-2.45,74.06,74.06,0,0,0,8.71-10.46,14.84,14.84,0,0,0-1.05-1.45,17.61,17.61,0,0,0-18.09-5.77,15.29,15.29,0,0,0-2.93,1.2,17.59,17.59,0,0,0-9.31,15,1.34,1.34,0,0,0,0,.2l.11.39a2.7,2.7,0,1,0,4.93.69Zm84.48-91a4.8,4.8,0,0,0-4.67-5.78c-8.8,2.36-20.53,24.06-25.17,36a35.46,35.46,0,0,0-2.34,7.51c-1,6.67,6.27,14.81,11.61,18.21s8.36,3.23,10.59-2.56c2-5.09,3.3-14.32,3.65-17.44C174,59,178.64,38.47,179.06,34.54ZM101.7,98.46c.6-.35,1.27-.83,1.25-1.53s-.71-1.12-1.33-1.38a24.11,24.11,0,0,0-5.57-1,9.49,9.49,0,0,0-9.51,7.26,3,3,0,0,0,.62,2.93c1,.81,2.48.26,3.63-.33Q96.34,101.61,101.7,98.46Z"/><path class="cls-3" d="M174.39,28.76a4.8,4.8,0,0,1,4.67,5.78c-.42,3.93-5,24.48-6.33,35.91-.35,3.12-1.68,12.35-3.65,17.44-2.23,5.79-5.26,6-10.59,2.56s-12.61-11.54-11.61-18.21a35.46,35.46,0,0,1,2.34-7.51C153.86,52.82,165.59,31.12,174.39,28.76Z"/><path class="cls-4" d="M158,126.73A15.71,15.71,0,0,1,164,144.09a22.21,22.21,0,0,1-3.86,6.76,40.73,40.73,0,0,1-25.77,14.91s-3.71,1-4.63-4.31a42,42,0,0,1,3-22.91c1.65-4,3.65-8.13,7-10.93A15.71,15.71,0,0,1,158,126.73Z"/><path class="cls-5" d="M119.88,113.84l-.15.12a21.9,21.9,0,0,0-9.6-2.57,8.36,8.36,0,0,0-2.56-1.76,8.88,8.88,0,0,0-8.44.81l-.3-.08.21-.75-.18-.34a15.29,15.29,0,0,1,2.93-1.2A17.61,17.61,0,0,1,119.88,113.84Z"/><path class="cls-6" d="M112.68,116.39a8.83,8.83,0,0,1-3.05,7.9,7.35,7.35,0,0,1-7,1.45c-2.85-1-4.56-4.13-4.88-7.15a15.59,15.59,0,0,1,.13-3.86,21.1,21.1,0,0,1,4.56-2.21,21.92,21.92,0,0,1,7.71-1.13A8.77,8.77,0,0,1,112.68,116.39Z"/><path class="cls-5" d="M110.13,111.39a21.92,21.92,0,0,0-7.71,1.13,21.1,21.1,0,0,0-4.56,2.21,36.69,36.69,0,0,1,1-4.37l.3.08a8.88,8.88,0,0,1,8.44-.81A8.36,8.36,0,0,1,110.13,111.39Z"/><path class="cls-5" d="M103,96.93c0,.7-.65,1.18-1.25,1.53q-5.37,3.15-10.91,6c-1.15.59-2.62,1.14-3.63.33a3,3,0,0,1-.62-2.93,9.49,9.49,0,0,1,9.51-7.26,24.11,24.11,0,0,1,5.57,1C102.24,95.81,102.93,96.25,103,96.93Z"/><path class="cls-5" d="M98.86,109.27l.18.34-.21.75a36.69,36.69,0,0,0-1,4.37,22,22,0,0,0-8.27,9.51h0A17.59,17.59,0,0,1,98.86,109.27Z"/><path class="cls-1" d="M88.26,155.43q-.89,5.55-1.78,11.1a28.42,28.42,0,0,1-5.74-10.06l.51-.14Z"/><path class="cls-2" d="M86.48,166.53l-.17,2.14c-8.8-.73-17.82-1.54-26.54-2.49l.11-1a92.94,92.94,0,0,1,20.86-8.68A28.42,28.42,0,0,0,86.48,166.53Z"/><path class="cls-5" d="M23.08,140.54a.87.87,0,0,1,0,1.06c-5.18,6.24-6.3,11.2-5.34,15.52-16.45-.62-20.83-10.84-6.82-15.86l10.7-1C22.15,140.18,22.79,140.17,23.08,140.54Z"/><path class="cls-7" d="M78.23,82.21c2-4.2,17.87-11.7,22-12.89a39.43,39.43,0,0,1,5.26-1.11c15.56-2.19,30.39,4.72,30.39,4.72,1.52-19.78,16.15-44,31.86-54.65,2.76-1.87,16.88-10.06,19.58-8,2.08,1.58-2.08,71.24-13.05,94.9a36,36,0,0,1,1.22,19.11c-2.12,11.08-10.18,21.25-10.18,21.25a51.61,51.61,0,0,1-15.8,15.67c-10.19,6.23-24.94,10.54-33.9,9.82s-19-1.48-29.34-2.35c-8.8-.73-17.82-1.54-26.54-2.49-35-3.78-65.15-9.63-56.9-20.62,5-6.64,27.59-15,45.18-30.64,3.87-3.44,20.77-19.25,20.32-25-1.5-19.14-21.29-37.26-12-63.49C58,21.83,67.18,2.56,71.68,1.52,77,.31,101.86,46.72,105,63.12l.56,5.09h0"/><path class="cls-7" d="M17.74,157.12c-1-4.32.16-9.28,5.34-15.52a.87.87,0,0,0,0-1.06c-.29-.37-.93-.36-1.46-.31l-10.7,1C-3.09,146.28,1.29,156.5,17.74,157.12Z"/><path class="cls-7" d="M92.49,154.36a57.8,57.8,0,0,0-11.24,2l-.51.14a92.94,92.94,0,0,0-20.86,8.68"/><path class="cls-7" d="M89.55,124.24a1.34,1.34,0,0,0,0,.2l.11.39a2.7,2.7,0,1,0,4.93.69c3.29,4,9.52,4.82,14.26,2.68a13.55,13.55,0,0,0,3.38-2.45,74.06,74.06,0,0,0,8.71-10.46,14.84,14.84,0,0,0-1.05-1.45,17.61,17.61,0,0,0-18.09-5.77,15.29,15.29,0,0,0-2.93,1.2A17.59,17.59,0,0,0,89.55,124.24Z"/><path class="cls-7" d="M129.69,161.45a42,42,0,0,1,3-22.91c1.65-4,3.65-8.13,7-10.93A15.27,15.27,0,0,1,164,144.09a22.21,22.21,0,0,1-3.86,6.76,40.73,40.73,0,0,1-25.77,14.91S130.61,166.79,129.69,161.45Z"/><path class="cls-7" d="M99,109.61l-.21.75a36.69,36.69,0,0,0-1,4.37,15.59,15.59,0,0,0-.13,3.86c.32,3,2,6.1,4.88,7.15a7.35,7.35,0,0,0,7-1.45,8.67,8.67,0,0,0,.5-12.9,8.36,8.36,0,0,0-2.56-1.76,8.88,8.88,0,0,0-8.44.81"/><path class="cls-7" d="M89.59,124.24a22,22,0,0,1,8.27-9.51,21.1,21.1,0,0,1,4.56-2.21A21.93,21.93,0,0,1,119.73,114"/><path class="cls-7" d="M100.78,129.7c-.08,1.84-.17,3.68-.26,5.52"/><path class="cls-7" d="M110,129.05l1.74,4"/><path class="cls-7" d="M116.89,122.38l4.63,3.14"/><path class="cls-7" d="M179.06,34.54c-.42,3.93-5,24.48-6.33,35.91-.35,3.12-1.68,12.35-3.65,17.44-2.23,5.79-5.26,6-10.59,2.56s-12.61-11.54-11.61-18.21a35.46,35.46,0,0,1,2.34-7.51c4.64-11.91,16.37-33.61,25.17-36A4.8,4.8,0,0,1,179.06,34.54Z"/><path class="cls-7" d="M80.71,156.4l.54-.07,7-.9q-.89,5.55-1.78,11.1a28.42,28.42,0,0,1-5.74-10.06l0-.07"/><path class="cls-7" d="M101.62,95.55c.62.26,1.31.7,1.33,1.38s-.65,1.18-1.25,1.53q-5.37,3.15-10.91,6c-1.15.59-2.62,1.14-3.63.33a3,3,0,0,1-.62-2.93,9.49,9.49,0,0,1,9.51-7.26A24.11,24.11,0,0,1,101.62,95.55Z"/></g></g></svg>