<svg xmlns="http://www.w3.org/2000/svg" xmlns:xlink="http://www.w3.org/1999/xlink" viewBox="0 0 213.17 385.82"><defs><style>.cls-1{fill:url(#radial-gradient);}.cls-2{fill:#b2c478;}.cls-3{fill:none;stroke:#282f59;stroke-miterlimit:10;stroke-width:3px;}</style><radialGradient id="radial-gradient" cx="106.59" cy="192.62" r="154.22" gradientUnits="userSpaceOnUse"><stop offset="0" stop-color="#a5d28a"/><stop offset="1" stop-color="#8fdaa3"/></radialGradient></defs><g id="Layer_2" data-name="Layer 2"><g id="ghosts"><path class="cls-1" d="M119,56.87c62.66,27.2,100.39,95.73,91.39,164.73-1,15-6,29-15,43-4,5-7,10-12,15-11,9-22,17-35,22-20,6-42,7-61,16-11,6-18,16-18,28,1,16,10,32,26.27,37.61a48,48,0,0,0-5.42.48h-.06c-32,1.17-60.84-26.95-58.52-59.55a59.16,59.16,0,0,1,21-41.08c13.87-11.33,32.67-15.3,49.15-21.28,14.59-5.29,27.18-13.91,34.72-27.82,8-14.71,8.89-32.65,1.05-47.63-16.83-32.17-61.56-28.46-91.8-33.55-15.22-2.56-31.67-8.58-39.18-23.12C-.13,116.77.15,100,5.43,86.71A46.85,46.85,0,0,1,12.15,75c-.8-22.43,1.2-44.43,8.2-65.43,1-2,2-4,4-4,6,1,8,8,12,12a74.86,74.86,0,0,1,13,32c10-1,21-1,30.75-1.33,0,0,8.63-33.19,19.74-45.08.87-.93,2-1.93,3.25-1.64S104.81,3,105.27,4C116.39,29.12,119,56.87,119,56.87Zm-11.31,9.84a127.45,127.45,0,0,0-1.1-32.47c-.86-5.59-2.17-11.35-5.66-15.8L89.49,55.62Zm-6.09,24.63c.1-3.67-2.14-7.5-5.67-8.51s-7.21.88-10,3.23A29.16,29.16,0,0,0,76,111.48a109.8,109.8,0,0,0,11.61-4.57,42.28,42.28,0,0,0,9.19-6C99.42,98.4,101.47,95,101.56,91.34ZM51.33,111.48A29.13,29.13,0,0,0,41.4,86.06c-2.79-2.35-6.5-4.23-10-3.23s-5.77,4.84-5.67,8.51,2.14,7.06,4.82,9.57a42,42,0,0,0,9.18,6A109.8,109.8,0,0,0,51.33,111.48Zm-8.6-55.36L26.94,20.59C24,25.42,23.41,31.3,23.22,37a128,128,0,0,0,2.83,32.37Z"/><path class="cls-2" d="M106.55,34.24a127.45,127.45,0,0,1,1.1,32.47L89.49,55.62l11.4-37.18C104.38,22.89,105.69,28.65,106.55,34.24Z"/><path class="cls-2" d="M95.89,82.83c3.53,1,5.77,4.84,5.67,8.51s-2.14,7.06-4.81,9.57a42.28,42.28,0,0,1-9.19,6A109.8,109.8,0,0,1,76,111.48a29.16,29.16,0,0,1,9.93-25.42C88.68,83.71,92.38,81.83,95.89,82.83Z"/><path class="cls-2" d="M41.4,86.06a29.13,29.13,0,0,1,9.93,25.42,109.8,109.8,0,0,1-11.61-4.57,42,42,0,0,1-9.18-6c-2.68-2.51-4.72-5.9-4.82-9.57s2.14-7.5,5.67-8.51S38.61,83.71,41.4,86.06Z"/><path class="cls-2" d="M26.94,20.59,42.73,56.12,26.05,69.32A128,128,0,0,1,23.22,37C23.41,31.3,24,25.42,26.94,20.59Z"/><path class="cls-3" d="M87.56,106.91a42.28,42.28,0,0,0,9.19-6c2.67-2.51,4.72-5.9,4.81-9.57s-2.14-7.5-5.67-8.51-7.21.88-10,3.23A29.16,29.16,0,0,0,76,111.48,109.8,109.8,0,0,0,87.56,106.91Z"/><path class="cls-3" d="M39.72,106.91a42,42,0,0,1-9.18-6c-2.68-2.51-4.72-5.9-4.82-9.57s2.14-7.5,5.67-8.51,7.22.88,10,3.23a29.13,29.13,0,0,1,9.93,25.42A109.8,109.8,0,0,1,39.72,106.91Z"/><path class="cls-3" d="M65.08,121.63c.28,3.28.54,6.66-.48,9.79s-3.66,6-6.95,6.18"/><path class="cls-3" d="M65.13,121.63a32.41,32.41,0,0,0,2.24,11c1.51,3.42,4.23,6.48,7.8,7.6"/><path class="cls-3" d="M26.05,69.32A128,128,0,0,1,23.22,37c.19-5.65.78-11.53,3.72-16.36L42.73,56.12Z"/><path class="cls-3" d="M107.65,66.71a127.45,127.45,0,0,0-1.1-32.47c-.86-5.59-2.17-11.35-5.66-15.8L89.49,55.62Z"/><path class="cls-3" d="M35.68,122.64l-15.6-2.09"/><path class="cls-3" d="M37.3,128.74l-12,5.42"/><path class="cls-3" d="M90.11,128.3a60,60,0,0,1,14.4,9.3"/><path class="cls-3" d="M91,122.7l15.67-4.32"/><path class="cls-3" d="M90.14,383.7c-1.09.16-2.17.37-3.21.62,2.9-.17,5.81-.7,8.69-1.11C79.35,377.6,70.35,361.6,69.35,345.6c0-12,7-22,18-28,19-9,41-10,61-16,13-5,24-13,35-22,5-5,8-10,12-15,9-14,14-28,15-43,9-69-28.73-137.53-91.39-164.73,0,0-2.57-27.75-13.69-52.87-.46-1-1.07-2.19-2.18-2.45s-2.38.71-3.25,1.64C88.73,15.08,80.1,48.27,80.1,48.27c-9.75.33-20.75.33-30.75,1.33a74.86,74.86,0,0,0-13-32c-4-4-6-11-12-12-2,0-3,2-4,4-7,21-9,43-8.2,65.43"/><path class="cls-3" d="M90.2,383.69a52.42,52.42,0,0,0,5.42-.48,48,48,0,0,0-5.42.48"/><path class="cls-3" d="M90.2,383.69h-.06"/><path class="cls-3" d="M12.15,75A46.85,46.85,0,0,0,5.43,86.71C.15,100-.13,116.77,6.54,129.67c7.51,14.54,24,20.56,39.18,23.12,30.24,5.09,75,1.38,91.8,33.55,7.84,15,6.91,32.92-1.05,47.63-7.54,13.91-20.13,22.53-34.72,27.82-16.48,6-35.28,9.95-49.15,21.28a59.16,59.16,0,0,0-21,41.08c-2.32,32.6,26.47,60.72,58.52,59.55"/></g></g></svg>