<svg xmlns="http://www.w3.org/2000/svg" viewBox="0 0 146.1 204.15"><defs><style>.cls-1{fill:#69695c;}.cls-2{fill:#d2d1b8;}.cls-3{fill:#d0afb9;}.cls-4{fill:#ed7d6c;}.cls-5{fill:#fff;}.cls-6{fill:#3b1f1b;}.cls-7{fill:#9e9d8a;}.cls-8{fill:none;stroke:#1b1b4c;stroke-linecap:round;stroke-linejoin:round;stroke-width:3px;}</style></defs><g id="Layer_2" data-name="Layer 2"><g id="mae"><path class="cls-1" d="M144.59,58.26c0,1.14-.05,2.45-.94,3.15a3.76,3.76,0,0,1-2.46.51l-6.34-.15c0-2.11,0-4.21,0-6.29l6.53-.25a3.41,3.41,0,0,1,2.59.62A3.41,3.41,0,0,1,144.59,58.26Z"/><path class="cls-1" d="M141.19,69.36a2.26,2.26,0,0,1-2.7,2.91l-3.76-.09c0-1.7.07-3.39.09-5.08l3.79-.14a2,2,0,0,1,2.58,2.4Z"/><path class="cls-2" d="M64.92,184.65a10.75,10.75,0,0,0-6-2.91,16.51,16.51,0,0,0-9.17,1.66A8.73,8.73,0,0,0,47,185.21a3.83,3.83,0,0,0-1.11,3l1.49,1.39c.84.12,1.69.23,2.53.32a80.19,80.19,0,0,0,14.2.32c2.39-.16,3.66-1.83,2.08-4a2.77,2.77,0,0,0-1.7-1.12ZM44.36,94.3c17.3-4.94,41.7,2.91,41.7,2.91-5.21-12,18.58-72.55,34.49-90.45,4.7-5.28,9.23,1,9.23,1,2.47,2.81,4.68,23.8,5,47.76l-5,.19a14.28,14.28,0,0,0-1.59,4.16,1.85,1.85,0,0,0,.09,1.21c.3.52,1,.6,1.63.61l4.93.12c0,1.77,0,3.55,0,5.33l-5.37.21a11.2,11.2,0,0,0-1.26,3.29,1.43,1.43,0,0,0,.07,1c.24.42.81.48,1.3.49l5.17.13c-.6,24.78-3.47,49.05-10.27,57.15l0,9.84a87.19,87.19,0,0,1-1.59,16.53,69,69,0,0,1-5.56,16.58L115,177a51.59,51.59,0,0,1-15.8,15.68c-10.18,6.23-24.93,9.24-33.9,9.81-16.71,1.07-37.65-2.21-49.48-14.92C6,176.92,2.78,161.79,2.9,127.31c.08-19.2-3.62-47.9.68-81.72C7,18.87,13.21,2,17.81,1.51,28.58.33,50.26,78,44.36,94.3Zm80.07-42c.08-4.47-1-19.49-1.53-25.74a1.46,1.46,0,0,0-2.58-.83C112.1,35.76,102.1,79.13,98.87,90.32A35.41,35.41,0,0,0,97.23,98c-.4,6.73,7.58,14.17,13.2,17.07s8.62,2.47,10.32-3.5c1.5-5.25,2-14.56,2.06-17.7C123.05,82.38,124.36,56.23,124.43,52.27ZM113.64,175.53a15.27,15.27,0,0,0-24.27-16.47c-3.37,2.79-5.37,6.87-7,10.93a42.13,42.13,0,0,0-3,22.91c.92,5.34,4.63,4.31,4.63,4.31a40.78,40.78,0,0,0,25.78-14.91A22.44,22.44,0,0,0,113.64,175.53Zm-25.29-29.9a74.5,74.5,0,0,0,8.71-10.47,17.54,17.54,0,0,0-19.14-7.22,15.29,15.29,0,0,0-2.93,1.2,17.6,17.6,0,0,0-9.32,15.17l.11.39a2.7,2.7,0,1,0,4.93.69c3.29,4,9.52,4.82,14.26,2.68A13.75,13.75,0,0,0,88.35,145.63Zm-7-25c.55-2.31-1.37-4.63-3.63-5.37s-4.71-.35-7,.07c0,0-3.76.47-4.86,1.17A3.88,3.88,0,0,0,64,119.83c0,2,1.77,3.73,3.7,4.41a15.28,15.28,0,0,0,6.07.4,14.7,14.7,0,0,0,4.48-.79A4.89,4.89,0,0,0,81.3,120.67Zm-24.22,52.8s6-10.43,3.66-11.61c-2-1-9,.46-9,.46a1.51,1.51,0,0,0-1.28,2c.85,2.24,2.35,6.12,3.82,9.26A1.52,1.52,0,0,0,57.08,173.47ZM48.23,120a3.86,3.86,0,0,0-1.7-3.31c-1.09-.72-4.84-1.25-4.84-1.25-2.34-.45-4.79-.89-7-.18s-4.23,3-3.72,5.32a4.91,4.91,0,0,0,3,3.23,14.7,14.7,0,0,0,4.47.85,15.15,15.15,0,0,0,6.08-.31C46.4,123.67,48.15,122,48.23,120Zm-3.39,27.27c1.24-7.12-2.55-14.77-8.85-17.87a16.67,16.67,0,0,0-19.32,4s5.14,11.64,9.26,14.47,10.16,3,14-.35a2.75,2.75,0,0,0,2.26,3.73,2.83,2.83,0,0,0,2.53-3.62ZM32.76,192.56a38,38,0,0,0,2.83-20.68c-.48-3.93-1.26-8-3.54-11.19a14.2,14.2,0,0,0-15.78-5.11A14.21,14.21,0,0,0,7,169.32a19.76,19.76,0,0,0,1.76,6.81,36.8,36.8,0,0,0,19,19.1S30.7,197,32.76,192.56Z"/><path class="cls-1" d="M134.85,61.77l-4.93-.12c-.61,0-1.33-.09-1.63-.61a1.85,1.85,0,0,1-.09-1.21,14.28,14.28,0,0,1,1.59-4.16l5-.19C134.83,57.56,134.85,59.66,134.85,61.77Z"/><path class="cls-1" d="M129.45,67.31l5.37-.21c0,1.69,0,3.38-.09,5.08l-5.17-.13c-.49,0-1.06-.07-1.3-.49a1.43,1.43,0,0,1-.07-1A11.2,11.2,0,0,1,129.45,67.31Z"/><path class="cls-3" d="M122.9,26.53c.49,6.25,1.61,21.27,1.53,25.74-.07,4-1.38,30.11-1.62,41.61-.07,3.14-.56,12.45-2.06,17.7-1.7,6-4.7,6.41-10.32,3.5S96.83,104.74,97.23,98a35.41,35.41,0,0,1,1.64-7.69c3.23-11.19,13.23-54.56,21.45-64.62A1.46,1.46,0,0,1,122.9,26.53Z"/><path class="cls-4" d="M107.7,158.18a15.71,15.71,0,0,1,5.94,17.35,22.44,22.44,0,0,1-3.85,6.77A40.78,40.78,0,0,1,84,197.21s-3.71,1-4.63-4.31a42.13,42.13,0,0,1,3-22.91c1.65-4.06,3.65-8.14,7-10.93A15.71,15.71,0,0,1,107.7,158.18Z"/><path class="cls-5" d="M97.06,135.16a74.5,74.5,0,0,1-8.71,10.47l-2.59-1.47a8.7,8.7,0,0,0-10.5-13.85l-.3-.08.21-.75-.18-.34a15.29,15.29,0,0,1,2.93-1.2A17.54,17.54,0,0,1,97.06,135.16Z"/><path class="cls-6" d="M88.82,136.26a8.86,8.86,0,0,1-3.06,7.9,7.35,7.35,0,0,1-7,1.45c-2.85-1.05-4.56-4.13-4.88-7.15a22.93,22.93,0,0,1,1.1-8.23l.3.08a8.7,8.7,0,0,1,13.56,5.95Z"/><path class="cls-5" d="M85.76,144.16l2.59,1.47A13.75,13.75,0,0,1,85,148.07c-4.74,2.14-11,1.35-14.26-2.68a2.7,2.7,0,1,1-4.93-.69l-.11-.39A17.6,17.6,0,0,1,75,129.14l.18.34-.21.75a22.93,22.93,0,0,0-1.1,8.23c.32,3,2,6.1,4.88,7.15A7.35,7.35,0,0,0,85.76,144.16Z"/><path class="cls-6" d="M77.67,115.3c2.26.74,4.18,3.06,3.63,5.37a4.89,4.89,0,0,1-3,3.18,14.7,14.7,0,0,1-4.48.79,15.28,15.28,0,0,1-6.07-.4c-1.93-.68-3.66-2.37-3.7-4.41a3.88,3.88,0,0,1,1.75-3.29c1.1-.7,4.86-1.17,4.86-1.17C73,115,75.41,114.55,77.67,115.3Z"/><path class="cls-6" d="M66.2,186.22c1.58,2.19.31,3.86-2.08,4a80.19,80.19,0,0,1-14.2-.32l.15-1.26c3.2-3.88,7.67-4.49,12.34-3.85a20.27,20.27,0,0,1,2.09.29A2.77,2.77,0,0,1,66.2,186.22Z"/><path class="cls-4" d="M64.92,184.65l-.42.45a20.27,20.27,0,0,0-2.09-.29c-4.67-.64-9.14,0-12.34,3.85l-.15,1.26c-.84-.09-1.69-.2-2.53-.32l-1.49-1.39a3.83,3.83,0,0,1,1.11-3,8.73,8.73,0,0,1,2.73-1.81,16.51,16.51,0,0,1,9.17-1.66A10.75,10.75,0,0,1,64.92,184.65Z"/><path class="cls-7" d="M60.74,161.86c2.38,1.18-3.66,11.61-3.66,11.61a1.52,1.52,0,0,1-2.81.15c-1.47-3.14-3-7-3.82-9.26a1.51,1.51,0,0,1,1.28-2S58.71,160.86,60.74,161.86Z"/><path class="cls-6" d="M46.53,116.65a3.86,3.86,0,0,1,1.7,3.31c-.08,2-1.83,3.71-3.77,4.35a15.15,15.15,0,0,1-6.08.31,14.7,14.7,0,0,1-4.47-.85,4.91,4.91,0,0,1-3-3.23c-.51-2.32,1.45-4.61,3.72-5.32s4.71-.27,7,.18C41.69,115.4,45.44,115.93,46.53,116.65Z"/><path class="cls-5" d="M27.13,129.21a5.59,5.59,0,0,0-1,1.31,8.7,8.7,0,0,0-.91,4.24,12.23,12.23,0,0,0,2.23,7.17,8.81,8.81,0,0,0,6.41,3.66,6.93,6.93,0,0,0,6.41-3.35,7.54,7.54,0,0,0-.1-6.93,13.19,13.19,0,0,0-5-5.09,9.87,9.87,0,0,0-3.89-1.56,5,5,0,0,0-3.61.84Zm8.86.15c6.3,3.1,10.09,10.75,8.85,17.87l-.17.36a2.83,2.83,0,0,1-2.53,3.62,2.75,2.75,0,0,1-2.26-3.73c-3.79,3.4-9.82,3.19-14,.35s-9.26-14.47-9.26-14.47A16.67,16.67,0,0,1,36,129.36Z"/><path class="cls-6" d="M27.67,129.5a5,5,0,0,1,3.61-.84,9.87,9.87,0,0,1,3.89,1.56,13.19,13.19,0,0,1,5,5.09,7.54,7.54,0,0,1,.1,6.93,6.93,6.93,0,0,1-6.41,3.35,8.81,8.81,0,0,1-6.41-3.66,12.23,12.23,0,0,1-2.23-7.17,8.7,8.7,0,0,1,.91-4.24,5.59,5.59,0,0,1,1-1.31Z"/><path class="cls-4" d="M35.59,171.88a38,38,0,0,1-2.83,20.68c-2.06,4.44-5,2.67-5,2.67a36.8,36.8,0,0,1-19-19.1A19.76,19.76,0,0,1,7,169.32a14.21,14.21,0,0,1,9.28-13.74,14.2,14.2,0,0,1,15.78,5.11C34.33,163.92,35.11,168,35.59,171.88Z"/><path class="cls-8" d="M44.36,94.3C50.26,78,28.58.33,17.81,1.51,13.21,2,7,18.87,3.58,45.59c-4.3,33.82-.6,62.52-.68,81.72-.12,34.48,3.08,49.61,13,60.23,11.83,12.71,32.77,16,49.48,14.92,9-.57,23.72-3.58,33.9-9.81A51.59,51.59,0,0,0,115,177l2.24-4.69a69,69,0,0,0,5.56-16.58,87.19,87.19,0,0,0,1.59-16.53l0-9.84c6.8-8.1,9.67-32.37,10.27-57.15,0-1.7.07-3.39.09-5.08s0-3.56,0-5.33c0-2.11,0-4.21,0-6.29-.35-24-2.56-44.95-5-47.76,0,0-4.53-6.24-9.23-1-15.91,17.9-39.7,78.45-34.49,90.45,0,0-24.4-7.85-41.7-2.91-4.17,1.19-8,3.75-12.64,6.39"/><path class="cls-8" d="M54.27,173.62a1.52,1.52,0,0,0,2.81-.15s6-10.43,3.66-11.61c-2-1-9,.46-9,.46a1.51,1.51,0,0,0-1.28,2C51.3,166.6,52.8,170.48,54.27,173.62Z"/><path class="cls-8" d="M75,129.14a17.6,17.6,0,0,0-9.32,15.17l.11.39a2.7,2.7,0,1,0,4.93.69c3.29,4,9.52,4.82,14.26,2.68a13.75,13.75,0,0,0,3.38-2.44,74.5,74.5,0,0,0,8.71-10.47,17.54,17.54,0,0,0-19.14-7.22A15.29,15.29,0,0,0,75,129.14Z"/><path class="cls-8" d="M44.67,147.59a2.83,2.83,0,0,1-2.53,3.62,2.75,2.75,0,0,1-2.26-3.73c-3.79,3.4-9.82,3.19-14,.35s-9.26-14.47-9.26-14.47a16.67,16.67,0,0,1,19.32-4c6.3,3.1,10.09,10.75,8.85,17.87Z"/><path class="cls-8" d="M79.38,192.9a42.13,42.13,0,0,1,3-22.91c1.65-4.06,3.65-8.14,7-10.93a15.27,15.27,0,0,1,24.27,16.47,22.44,22.44,0,0,1-3.85,6.77A40.78,40.78,0,0,1,84,197.21S80.3,198.24,79.38,192.9Z"/><path class="cls-8" d="M32.76,192.56a38,38,0,0,0,2.83-20.68c-.48-3.93-1.26-8-3.54-11.19a14.2,14.2,0,0,0-15.78-5.11A14.21,14.21,0,0,0,7,169.32a19.76,19.76,0,0,0,1.76,6.81,36.8,36.8,0,0,0,19,19.1S30.7,197,32.76,192.56Z"/><path class="cls-8" d="M75.17,129.48l-.21.75a22.93,22.93,0,0,0-1.1,8.23c.32,3,2,6.1,4.88,7.15a7.35,7.35,0,0,0,7-1.45,8.7,8.7,0,0,0-10.5-13.85"/><path class="cls-8" d="M29.54,128a4.31,4.31,0,0,0-2.41,1.19,5.59,5.59,0,0,0-1,1.31,8.7,8.7,0,0,0-.91,4.24,12.23,12.23,0,0,0,2.23,7.17,8.81,8.81,0,0,0,6.41,3.66,6.93,6.93,0,0,0,6.41-3.35,7.54,7.54,0,0,0-.1-6.93,13.19,13.19,0,0,0-5-5.09,9.87,9.87,0,0,0-3.89-1.56,5,5,0,0,0-3.61.84l-.33.28"/><path class="cls-8" d="M76.91,149.57c-.08,1.84-.17,3.68-.26,5.52"/><path class="cls-8" d="M86.13,148.92l1.74,4"/><path class="cls-8" d="M93,142.25l4.63,3.14"/><path class="cls-8" d="M33.15,150.3l-1,3.86"/><path class="cls-8" d="M24.62,147.22,19,150.39"/><path class="cls-8" d="M19.4,141.2l-4.52.47"/><path class="cls-8" d="M124.43,52.27c-.07,4-1.38,30.11-1.62,41.61-.07,3.14-.56,12.45-2.06,17.7-1.7,6-4.7,6.41-10.32,3.5S96.83,104.74,97.23,98a35.41,35.41,0,0,1,1.64-7.69c3.23-11.19,13.23-54.56,21.45-64.62a1.46,1.46,0,0,1,2.58.83C123.39,32.78,124.51,47.8,124.43,52.27Z"/><path class="cls-8" d="M50.07,188.66c3.2-3.88,7.67-4.49,12.34-3.85a20.27,20.27,0,0,1,2.09.29,2.77,2.77,0,0,1,1.7,1.12c1.58,2.19.31,3.86-2.08,4a80.19,80.19,0,0,1-14.2-.32c-.84-.09-1.69-.2-2.53-.32l-1.49-1.39a3.83,3.83,0,0,1,1.11-3,8.73,8.73,0,0,1,2.73-1.81,16.51,16.51,0,0,1,9.17-1.66,10.75,10.75,0,0,1,6,2.91l.11.1"/><path class="cls-8" d="M65.76,116.54A3.88,3.88,0,0,0,64,119.83c0,2,1.77,3.73,3.7,4.41a15.28,15.28,0,0,0,6.07.4,14.7,14.7,0,0,0,4.48-.79,4.89,4.89,0,0,0,3-3.18c.55-2.31-1.37-4.63-3.63-5.37s-4.71-.35-7,.07C70.62,115.37,66.86,115.84,65.76,116.54Z"/><path class="cls-8" d="M46.53,116.65a3.86,3.86,0,0,1,1.7,3.31c-.08,2-1.83,3.71-3.77,4.35a15.15,15.15,0,0,1-6.08.31,14.7,14.7,0,0,1-4.47-.85,4.91,4.91,0,0,1-3-3.23c-.51-2.32,1.45-4.61,3.72-5.32s4.71-.27,7,.18C41.69,115.4,45.44,115.93,46.53,116.65Z"/><path class="cls-8" d="M134.85,61.77l-4.93-.12c-.61,0-1.33-.09-1.63-.61a1.85,1.85,0,0,1-.09-1.21,14.28,14.28,0,0,1,1.59-4.16l5-.19,6.53-.25a3.41,3.41,0,0,1,2.59.62,3.41,3.41,0,0,1,.66,2.41c0,1.14-.05,2.45-.94,3.15a3.76,3.76,0,0,1-2.46.51Z"/><path class="cls-8" d="M134.73,72.18l-5.17-.13c-.49,0-1.06-.07-1.3-.49a1.43,1.43,0,0,1-.07-1,11.2,11.2,0,0,1,1.26-3.29l5.37-.21,3.79-.14a2,2,0,0,1,2.58,2.4,2.26,2.26,0,0,1-2.7,2.91Z"/></g></g></svg>