<?xml version="1.0" encoding="UTF-8"?><svg xmlns="http://www.w3.org/2000/svg" viewBox="0 0 945.68 748.43"><defs><style>.d{fill:#fff;}</style></defs><g id="a"/><g id="b"><g id="c"><g><path class="d" d="M34.89,59.6c-.53,0-1-.19-1.4-.56-.4-.37-.6-.83-.6-1.36v-23.12L14.09,4.48c-.32-.48-.41-.99-.28-1.52,.13-.53,.41-.96,.84-1.28,.53-.27,1.07-.35,1.6-.24,.53,.11,.93,.4,1.2,.88l17.44,27.84L52.09,2.32c.32-.48,.75-.79,1.28-.92,.53-.13,1.04-.04,1.52,.28,.43,.32,.71,.75,.84,1.28,.13,.53,.04,1.04-.28,1.52l-18.56,30.08v23.12c0,.53-.19,.99-.56,1.36-.37,.37-.85,.56-1.44,.56Z"/><path class="d" d="M68.89,59.6c-4.53,0-8.11-1.56-10.72-4.68-2.61-3.12-3.92-7.35-3.92-12.68s1.31-9.63,3.92-12.72c2.61-3.09,6.19-4.64,10.72-4.64s8.04,1.55,10.68,4.64c2.64,3.09,3.96,7.33,3.96,12.72s-1.32,9.56-3.96,12.68-6.2,4.68-10.68,4.68Zm0-3.84c3.47,0,6.13-1.17,8-3.52,1.87-2.35,2.8-5.68,2.8-10s-.93-7.57-2.8-9.92c-1.87-2.35-4.53-3.52-8-3.52s-6.08,1.17-8,3.52c-1.92,2.35-2.88,5.65-2.88,9.92s.96,7.65,2.88,10c1.92,2.35,4.59,3.52,8,3.52Z"/><path class="d" d="M103.69,59.6c-3.68,0-6.57-1.2-8.68-3.6-2.11-2.4-3.16-5.71-3.16-9.92V26.96c0-.53,.17-.99,.52-1.36,.35-.37,.79-.56,1.32-.56s.99,.19,1.36,.56c.37,.37,.56,.83,.56,1.36v19.12c0,1.23,.19,2.6,.56,4.12,.37,1.52,1.13,2.84,2.28,3.96,1.15,1.12,2.89,1.68,5.24,1.68,3.15,0,5.59-.85,7.32-2.56,1.73-1.71,2.6-4.16,2.6-7.36V26.88c0-.53,.19-1,.56-1.4,.37-.4,.83-.6,1.36-.6s.97,.2,1.32,.6c.35,.4,.52,.87,.52,1.4v30.88c0,.53-.17,.97-.52,1.32-.35,.35-.79,.52-1.32,.52s-.99-.17-1.36-.52c-.37-.35-.56-.79-.56-1.32v-2.48c-1.23,1.33-2.68,2.39-4.36,3.16s-3.53,1.16-5.56,1.16Z"/><path class="d" d="M172.89,59.68c-.53,0-.99-.17-1.36-.52-.37-.35-.56-.79-.56-1.32v-.64l-9.84,1.92c-2.45,.48-4.53,.61-6.24,.4-1.71-.21-3.15-.75-4.32-1.6-.85-.69-1.53-1.56-2.04-2.6-.51-1.04-.81-2.23-.92-3.56-.32-3.09,.36-5.64,2.04-7.64,1.68-2,4.28-3.29,7.8-3.88l13.52-2.32v-2.24c0-1.07-.17-2.2-.52-3.4-.35-1.2-1.05-2.09-2.12-2.68-.85-.53-1.95-.8-3.28-.8-3.31,0-7.39,1.49-12.24,4.48-.48,.27-.96,.33-1.44,.2-.48-.13-.85-.41-1.12-.84-.32-.48-.41-.97-.28-1.48,.13-.51,.41-.87,.84-1.08,3.15-1.92,5.89-3.24,8.24-3.96,2.35-.72,4.35-1.08,6-1.08,1.12,0,2.09,.12,2.92,.36,.83,.24,1.53,.52,2.12,.84,1.55,.85,2.72,2.09,3.52,3.72,.8,1.63,1.2,3.53,1.2,5.72v22.16c0,.53-.17,.97-.52,1.32-.35,.35-.81,.52-1.4,.52Zm-12.4-4.4l10.48-1.92v-11.6l-12.8,2.16c-2.19,.37-3.77,.99-4.76,1.84-.99,.85-1.59,1.77-1.8,2.76-.21,.99-.29,1.93-.24,2.84,.16,1.65,.67,2.8,1.52,3.44,1.28,.96,3.81,1.12,7.6,.48Z"/><path class="d" d="M184.25,59.6c-.53,0-.99-.19-1.36-.56-.37-.37-.56-.8-.56-1.28V26.88c0-.53,.19-.99,.56-1.36,.37-.37,.83-.56,1.36-.56s.97,.19,1.32,.56c.35,.37,.52,.83,.52,1.36v2c.8-.96,1.92-1.8,3.36-2.52s2.83-1.19,4.16-1.4c1.87-.27,3.76-.12,5.68,.44,1.92,.56,3.64,1.51,5.16,2.84,1.52,1.33,2.57,3.09,3.16,5.28,.16,.48,.11,.95-.16,1.4-.27,.45-.64,.76-1.12,.92-.53,.11-1.03,.03-1.48-.24-.45-.27-.73-.64-.84-1.12-.43-1.55-1.17-2.77-2.24-3.68-1.07-.91-2.28-1.52-3.64-1.84-1.36-.32-2.68-.37-3.96-.16-2.29,.27-4.21,1.12-5.76,2.56-1.55,1.44-2.32,3.73-2.32,6.88v19.52c0,.48-.17,.91-.52,1.28-.35,.37-.79,.56-1.32,.56Z"/><path class="d" d="M229.05,59.6c-4.53,0-8.11-1.56-10.72-4.68-2.61-3.12-3.92-7.35-3.92-12.68s1.31-9.63,3.92-12.72c2.61-3.09,6.19-4.64,10.72-4.64,3.95,0,7.27,1.36,9.96,4.08,2.69,2.72,4.15,6.4,4.36,11.04v.24c0,.48-.19,.91-.56,1.28-.32,.37-.77,.56-1.36,.56h-23.2c0,4.11,.87,7.41,2.6,9.92,1.73,2.51,4.47,3.76,8.2,3.76,1.92,0,3.72-.41,5.4-1.24,1.68-.83,2.97-1.91,3.88-3.24,.32-.43,.73-.69,1.24-.8,.51-.11,.97,0,1.4,.32,.43,.27,.69,.67,.8,1.2,.11,.53,0,1.01-.32,1.44-1.28,1.87-3.03,3.36-5.24,4.48-2.21,1.12-4.6,1.68-7.16,1.68Zm-10.56-21.28h20.72c-.53-3.04-1.69-5.39-3.48-7.04-1.79-1.65-4.01-2.48-6.68-2.48-2.88,0-5.21,.83-7,2.48-1.79,1.65-2.97,4-3.56,7.04Z"/><path class="d" d="M294.57,60c-6.24,0-11.11-1.75-14.6-5.24-3.49-3.49-5.24-8.36-5.24-14.6V21.04c0-6.24,1.75-11.11,5.24-14.6,3.49-3.49,8.36-5.24,14.6-5.24,3.04,0,5.92,.67,8.64,2,2.72,1.33,5.01,3.2,6.88,5.6,.37,.43,.53,.91,.48,1.44-.05,.53-.29,.99-.72,1.36-.48,.32-1,.44-1.56,.36s-1-.31-1.32-.68c-1.49-1.92-3.33-3.41-5.52-4.48-2.19-1.07-4.48-1.6-6.88-1.6-4.96,0-8.84,1.4-11.64,4.2s-4.2,6.68-4.2,11.64v19.12c0,4.96,1.4,8.84,4.2,11.64s6.68,4.2,11.64,4.2c2.4,0,4.69-.52,6.88-1.56,2.19-1.04,4.03-2.52,5.52-4.44,.32-.43,.76-.68,1.32-.76s1.08,.07,1.56,.44c.43,.32,.67,.76,.72,1.32,.05,.56-.11,1.05-.48,1.48-1.87,2.4-4.16,4.25-6.88,5.56-2.72,1.31-5.6,1.96-8.64,1.96Z"/><path class="d" d="M333.05,59.6c-4.53,0-8.11-1.56-10.72-4.68-2.61-3.12-3.92-7.35-3.92-12.68s1.31-9.63,3.92-12.72c2.61-3.09,6.19-4.64,10.72-4.64,3.95,0,7.27,1.36,9.96,4.08,2.69,2.72,4.15,6.4,4.36,11.04v.24c0,.48-.19,.91-.56,1.28-.32,.37-.77,.56-1.36,.56h-23.2c0,4.11,.87,7.41,2.6,9.92,1.73,2.51,4.47,3.76,8.2,3.76,1.92,0,3.72-.41,5.4-1.24,1.68-.83,2.97-1.91,3.88-3.24,.32-.43,.73-.69,1.24-.8,.51-.11,.97,0,1.4,.32,.43,.27,.69,.67,.8,1.2,.11,.53,0,1.01-.32,1.44-1.28,1.87-3.03,3.36-5.24,4.48-2.21,1.12-4.6,1.68-7.16,1.68Zm-10.56-21.28h20.72c-.53-3.04-1.69-5.39-3.48-7.04-1.79-1.65-4.01-2.48-6.68-2.48-2.88,0-5.21,.83-7,2.48-1.79,1.65-2.97,4-3.56,7.04Z"/><path class="d" d="M370.25,59.6c-4.53,0-8.11-1.56-10.72-4.68-2.61-3.12-3.92-7.35-3.92-12.68s1.31-9.63,3.92-12.72c2.61-3.09,6.19-4.64,10.72-4.64s7.95,1.52,10.56,4.56c.37,.37,.55,.83,.52,1.36-.03,.53-.25,.99-.68,1.36-.37,.32-.83,.47-1.36,.44-.53-.03-.99-.23-1.36-.6-1.81-2.13-4.37-3.2-7.68-3.2s-6.08,1.17-8,3.52c-1.92,2.35-2.88,5.65-2.88,9.92s.96,7.65,2.88,10c1.92,2.35,4.59,3.52,8,3.52s5.92-1.04,7.68-3.12c.37-.43,.83-.67,1.36-.72,.53-.05,.99,.11,1.36,.48,.43,.32,.65,.75,.68,1.28,.03,.53-.15,1.01-.52,1.44-2.67,2.99-6.19,4.48-10.56,4.48Z"/><path class="d" d="M398.41,59.68c-.53,0-.97-.17-1.32-.52-.35-.35-.52-.79-.52-1.32V29.92h-9.2c-.53,0-.99-.2-1.36-.6-.37-.4-.56-.87-.56-1.4s.19-.97,.56-1.32c.37-.35,.83-.52,1.36-.52h11.04c.59,0,1.07,.17,1.44,.52,.37,.35,.56,.79,.56,1.32v29.92c0,.53-.19,.97-.56,1.32-.37,.35-.85,.52-1.44,.52Zm-.96-48.08c-.75,0-1.36-.21-1.84-.64-.48-.43-.72-.91-.72-1.44V4.56c0-.53,.24-1.03,.72-1.48,.48-.45,1.09-.68,1.84-.68s1.35,.23,1.8,.68c.45,.45,.68,.95,.68,1.48v4.96c0,.53-.23,1.01-.68,1.44-.45,.43-1.05,.64-1.8,.64Z"/><path class="d" d="M419.53,59.2c-2.13,0-3.85-.63-5.16-1.88-1.31-1.25-1.96-2.92-1.96-5V2c0-.53,.19-.99,.56-1.36,.37-.37,.83-.56,1.36-.56s.99,.19,1.36,.56c.37,.37,.56,.83,.56,1.36V52.32c0,.21,.04,.57,.12,1.08,.08,.51,.36,.96,.84,1.36,.48,.4,1.25,.6,2.32,.6h6.32c.53,0,.99,.19,1.36,.56,.37,.37,.56,.83,.56,1.36s-.19,.99-.56,1.36c-.37,.37-.83,.56-1.36,.56h-6.32Z"/><path class="d" d="M443.93,59.68c-.53,0-.97-.17-1.32-.52-.35-.35-.52-.79-.52-1.32V29.92h-9.2c-.53,0-.99-.2-1.36-.6-.37-.4-.56-.87-.56-1.4s.19-.97,.56-1.32c.37-.35,.83-.52,1.36-.52h11.04c.59,0,1.07,.17,1.44,.52,.37,.35,.56,.79,.56,1.32v29.92c0,.53-.19,.97-.56,1.32-.37,.35-.85,.52-1.44,.52Zm-.96-48.08c-.75,0-1.36-.21-1.84-.64-.48-.43-.72-.91-.72-1.44V4.56c0-.53,.24-1.03,.72-1.48,.48-.45,1.09-.68,1.84-.68s1.35,.23,1.8,.68c.45,.45,.68,.95,.68,1.48v4.96c0,.53-.23,1.01-.68,1.44-.45,.43-1.05,.64-1.8,.64Z"/><path class="d" d="M481.29,59.68c-.53,0-.99-.17-1.36-.52-.37-.35-.56-.79-.56-1.32v-.64l-9.84,1.92c-2.45,.48-4.53,.61-6.24,.4-1.71-.21-3.15-.75-4.32-1.6-.85-.69-1.53-1.56-2.04-2.6-.51-1.04-.81-2.23-.92-3.56-.32-3.09,.36-5.64,2.04-7.64,1.68-2,4.28-3.29,7.8-3.88l13.52-2.32v-2.24c0-1.07-.17-2.2-.52-3.4-.35-1.2-1.05-2.09-2.12-2.68-.85-.53-1.95-.8-3.28-.8-3.31,0-7.39,1.49-12.24,4.48-.48,.27-.96,.33-1.44,.2-.48-.13-.85-.41-1.12-.84-.32-.48-.41-.97-.28-1.48,.13-.51,.41-.87,.84-1.08,3.15-1.92,5.89-3.24,8.24-3.96,2.35-.72,4.35-1.08,6-1.08,1.12,0,2.09,.12,2.92,.36,.83,.24,1.53,.52,2.12,.84,1.55,.85,2.72,2.09,3.52,3.72,.8,1.63,1.2,3.53,1.2,5.72v22.16c0,.53-.17,.97-.52,1.32-.35,.35-.81,.52-1.4,.52Zm-12.4-4.4l10.48-1.92v-11.6l-12.8,2.16c-2.19,.37-3.77,.99-4.76,1.84-.99,.85-1.59,1.77-1.8,2.76-.21,.99-.29,1.93-.24,2.84,.16,1.65,.67,2.8,1.52,3.44,1.28,.96,3.81,1.12,7.6,.48Z"/><path class="d" d="M495.69,70.4c-.53,0-.99-.17-1.36-.52-.37-.35-.56-.79-.56-1.32,0-.59,.19-1.05,.56-1.4,.37-.35,.83-.52,1.36-.52,1.49,0,2.52-.31,3.08-.92,.56-.61,.84-1.67,.84-3.16v-3.04c-.11,0-.2,.01-.28,.04-.08,.03-.17,.04-.28,.04-1.33,0-2.4-.49-3.2-1.48-.8-.99-1.2-2.15-1.2-3.48s.4-2.56,1.2-3.52c.8-.96,1.87-1.44,3.2-1.44s2.39,.48,3.16,1.44c.77,.96,1.16,2.13,1.16,3.52v7.92c0,5.23-2.56,7.84-7.68,7.84Z"/><path class="d" d="M560.4,59.68c-.53,0-.99-.17-1.36-.52-.37-.35-.56-.79-.56-1.32v-.64l-9.84,1.92c-2.45,.48-4.53,.61-6.24,.4-1.71-.21-3.15-.75-4.32-1.6-.85-.69-1.53-1.56-2.04-2.6-.51-1.04-.81-2.23-.92-3.56-.32-3.09,.36-5.64,2.04-7.64,1.68-2,4.28-3.29,7.8-3.88l13.52-2.32v-2.24c0-1.07-.17-2.2-.52-3.4-.35-1.2-1.05-2.09-2.12-2.68-.85-.53-1.95-.8-3.28-.8-3.31,0-7.39,1.49-12.24,4.48-.48,.27-.96,.33-1.44,.2-.48-.13-.85-.41-1.12-.84-.32-.48-.41-.97-.28-1.48,.13-.51,.41-.87,.84-1.08,3.15-1.92,5.89-3.24,8.24-3.96,2.35-.72,4.35-1.08,6-1.08,1.12,0,2.09,.12,2.92,.36,.83,.24,1.53,.52,2.12,.84,1.55,.85,2.72,2.09,3.52,3.72,.8,1.63,1.2,3.53,1.2,5.72v22.16c0,.53-.17,.97-.52,1.32-.35,.35-.81,.52-1.4,.52Zm-12.4-4.4l10.48-1.92v-11.6l-12.8,2.16c-2.19,.37-3.77,.99-4.76,1.84-.99,.85-1.59,1.77-1.8,2.76-.21,.99-.29,1.93-.24,2.84,.16,1.65,.67,2.8,1.52,3.44,1.28,.96,3.81,1.12,7.6,.48Z"/><path class="d" d="M594.96,59.6c-.53,0-.99-.19-1.36-.56-.37-.37-.56-.8-.56-1.28V26.88c0-.53,.19-.99,.56-1.36,.37-.37,.83-.56,1.36-.56s.97,.19,1.32,.56c.35,.37,.52,.83,.52,1.36v2c.8-.96,1.92-1.8,3.36-2.52s2.83-1.19,4.16-1.4c1.87-.27,3.76-.12,5.68,.44,1.92,.56,3.64,1.51,5.16,2.84,1.52,1.33,2.57,3.09,3.16,5.28,.16,.48,.11,.95-.16,1.4-.27,.45-.64,.76-1.12,.92-.53,.11-1.03,.03-1.48-.24-.45-.27-.73-.64-.84-1.12-.43-1.55-1.17-2.77-2.24-3.68-1.07-.91-2.28-1.52-3.64-1.84-1.36-.32-2.68-.37-3.96-.16-2.29,.27-4.21,1.12-5.76,2.56-1.55,1.44-2.32,3.73-2.32,6.88v19.52c0,.48-.17,.91-.52,1.28-.35,.37-.79,.56-1.32,.56Z"/><path class="d" d="M639.76,59.6c-4.53,0-8.11-1.56-10.72-4.68-2.61-3.12-3.92-7.35-3.92-12.68s1.31-9.63,3.92-12.72c2.61-3.09,6.19-4.64,10.72-4.64,3.95,0,7.27,1.36,9.96,4.08,2.69,2.72,4.15,6.4,4.36,11.04v.24c0,.48-.19,.91-.56,1.28-.32,.37-.77,.56-1.36,.56h-23.2c0,4.11,.87,7.41,2.6,9.92,1.73,2.51,4.47,3.76,8.2,3.76,1.92,0,3.72-.41,5.4-1.24,1.68-.83,2.97-1.91,3.88-3.24,.32-.43,.73-.69,1.24-.8,.51-.11,.97,0,1.4,.32,.43,.27,.69,.67,.8,1.2,.11,.53,0,1.01-.32,1.44-1.28,1.87-3.03,3.36-5.24,4.48-2.21,1.12-4.6,1.68-7.16,1.68Zm-10.56-21.28h20.72c-.53-3.04-1.69-5.39-3.48-7.04-1.79-1.65-4.01-2.48-6.68-2.48-2.88,0-5.21,.83-7,2.48-1.79,1.65-2.97,4-3.56,7.04Z"/><path class="d" d="M687.92,59.68c-.53,0-.99-.17-1.36-.52-.37-.35-.56-.79-.56-1.32v-.64l-9.84,1.92c-2.45,.48-4.53,.61-6.24,.4-1.71-.21-3.15-.75-4.32-1.6-.85-.69-1.53-1.56-2.04-2.6-.51-1.04-.81-2.23-.92-3.56-.32-3.09,.36-5.64,2.04-7.64,1.68-2,4.28-3.29,7.8-3.88l13.52-2.32v-2.24c0-1.07-.17-2.2-.52-3.4-.35-1.2-1.05-2.09-2.12-2.68-.85-.53-1.95-.8-3.28-.8-3.31,0-7.39,1.49-12.24,4.48-.48,.27-.96,.33-1.44,.2-.48-.13-.85-.41-1.12-.84-.32-.48-.41-.97-.28-1.48,.13-.51,.41-.87,.84-1.08,3.15-1.92,5.89-3.24,8.24-3.96,2.35-.72,4.35-1.08,6-1.08,1.12,0,2.09,.12,2.92,.36,.83,.24,1.53,.52,2.12,.84,1.55,.85,2.72,2.09,3.52,3.72,.8,1.63,1.2,3.53,1.2,5.72v22.16c0,.53-.17,.97-.52,1.32-.35,.35-.81,.52-1.4,.52Zm-12.4-4.4l10.48-1.92v-11.6l-12.8,2.16c-2.19,.37-3.77,.99-4.76,1.84-.99,.85-1.59,1.77-1.8,2.76-.21,.99-.29,1.93-.24,2.84,.16,1.65,.67,2.8,1.52,3.44,1.28,.96,3.81,1.12,7.6,.48Z"/><path class="d" d="M700.8,76.4c-.53,0-.97-.19-1.32-.56-.35-.37-.52-.83-.52-1.36V26.8c0-.53,.17-.99,.52-1.36,.35-.37,.79-.56,1.32-.56s.99,.19,1.36,.56c.37,.37,.56,.83,.56,1.36v2.96c1.17-1.49,2.6-2.68,4.28-3.56,1.68-.88,3.64-1.32,5.88-1.32,4.53,0,8.11,1.55,10.72,4.64,2.61,3.09,3.92,7.33,3.92,12.72s-1.31,9.56-3.92,12.68c-2.61,3.12-6.19,4.68-10.72,4.68-2.24,0-4.2-.43-5.88-1.28-1.68-.85-3.11-2.03-4.28-3.52v19.68c0,.53-.19,.99-.56,1.36-.37,.37-.83,.56-1.36,.56Zm12.08-20.64c3.47,0,6.15-1.17,8.04-3.52,1.89-2.35,2.84-5.68,2.84-10s-.95-7.57-2.84-9.92c-1.89-2.35-4.57-3.52-8.04-3.52-6.83,0-10.24,4.48-10.24,13.44s3.41,13.52,10.24,13.52Z"/><path class="d" d="M748.88,59.6c-4.53,0-8.11-1.56-10.72-4.68-2.61-3.12-3.92-7.35-3.92-12.68s1.31-9.63,3.92-12.72c2.61-3.09,6.19-4.64,10.72-4.64,3.95,0,7.27,1.36,9.96,4.08,2.69,2.72,4.15,6.4,4.36,11.04v.24c0,.48-.19,.91-.56,1.28-.32,.37-.77,.56-1.36,.56h-23.2c0,4.11,.87,7.41,2.6,9.92,1.73,2.51,4.47,3.76,8.2,3.76,1.92,0,3.72-.41,5.4-1.24,1.68-.83,2.97-1.91,3.88-3.24,.32-.43,.73-.69,1.24-.8,.51-.11,.97,0,1.4,.32,.43,.27,.69,.67,.8,1.2,.11,.53,0,1.01-.32,1.44-1.28,1.87-3.03,3.36-5.24,4.48-2.21,1.12-4.6,1.68-7.16,1.68Zm-10.56-21.28h20.72c-.53-3.04-1.69-5.39-3.48-7.04-1.79-1.65-4.01-2.48-6.68-2.48-2.88,0-5.21,.83-7,2.48-1.79,1.65-2.97,4-3.56,7.04Z"/><path class="d" d="M774.16,59.6c-.53,0-.99-.19-1.36-.56-.37-.37-.56-.8-.56-1.28V26.88c0-.53,.19-.99,.56-1.36,.37-.37,.83-.56,1.36-.56s.97,.19,1.32,.56c.35,.37,.52,.83,.52,1.36v2c.8-.96,1.92-1.8,3.36-2.52s2.83-1.19,4.16-1.4c1.87-.27,3.76-.12,5.68,.44,1.92,.56,3.64,1.51,5.16,2.84,1.52,1.33,2.57,3.09,3.16,5.28,.16,.48,.11,.95-.16,1.4-.27,.45-.64,.76-1.12,.92-.53,.11-1.03,.03-1.48-.24-.45-.27-.73-.64-.84-1.12-.43-1.55-1.17-2.77-2.24-3.68-1.07-.91-2.28-1.52-3.64-1.84-1.36-.32-2.68-.37-3.96-.16-2.29,.27-4.21,1.12-5.76,2.56-1.55,1.44-2.32,3.73-2.32,6.88v19.52c0,.48-.17,.91-.52,1.28-.35,.37-.79,.56-1.32,.56Z"/><path class="d" d="M832.8,59.6c-.96-.11-1.52-.61-1.68-1.52l-5.92-30.96c-.05-.53,.05-1.03,.32-1.48,.27-.45,.67-.73,1.2-.84,.53-.05,1.01,.07,1.44,.36,.43,.29,.69,.68,.8,1.16l4.8,25.2,7.92-17.2c.37-.75,.96-1.12,1.76-1.12s1.39,.37,1.76,1.12l7.92,17.2,4.72-25.04c.11-.53,.37-.95,.8-1.24,.43-.29,.91-.39,1.44-.28,.53,.05,.95,.31,1.24,.76,.29,.45,.39,.95,.28,1.48l-5.92,30.88c-.16,.91-.69,1.41-1.6,1.52-.96,.11-1.63-.27-2-1.12l-8.64-18.8-8.72,18.8c-.37,.85-1.01,1.23-1.92,1.12Z"/><path class="d" d="M872.56,59.68c-.53,0-.99-.17-1.36-.52-.37-.35-.56-.79-.56-1.32V1.92c0-.53,.19-.99,.56-1.36,.37-.37,.83-.56,1.36-.56s.99,.19,1.36,.56c.37,.37,.56,.83,.56,1.36V29.28c1.23-1.39,2.69-2.47,4.4-3.24,1.71-.77,3.55-1.16,5.52-1.16,3.68,0,6.57,1.21,8.68,3.64,2.11,2.43,3.16,5.69,3.16,9.8v19.44c0,.53-.17,.97-.52,1.32-.35,.35-.79,.52-1.32,.52s-.99-.17-1.36-.52c-.37-.35-.56-.79-.56-1.32v-19.44c0-1.23-.19-2.59-.56-4.08-.37-1.49-1.13-2.79-2.28-3.88-1.15-1.09-2.89-1.64-5.24-1.64-2.77,0-5.12,.85-7.04,2.56-1.92,1.71-2.88,4.13-2.88,7.28v19.28c0,.53-.19,.97-.56,1.32-.37,.35-.83,.52-1.36,.52Z"/><path class="d" d="M919.2,59.6c-4.53,0-8.11-1.56-10.72-4.68-2.61-3.12-3.92-7.35-3.92-12.68s1.31-9.63,3.92-12.72c2.61-3.09,6.19-4.64,10.72-4.64s8.04,1.55,10.68,4.64c2.64,3.09,3.96,7.33,3.96,12.72s-1.32,9.56-3.96,12.68-6.2,4.68-10.68,4.68Zm0-3.84c3.47,0,6.13-1.17,8-3.52,1.87-2.35,2.8-5.68,2.8-10s-.93-7.57-2.8-9.92c-1.87-2.35-4.53-3.52-8-3.52s-6.08,1.17-8,3.52c-1.92,2.35-2.88,5.65-2.88,9.92s.96,7.65,2.88,10c1.92,2.35,4.59,3.52,8,3.52Z"/><path class="d" d="M66.57,155.6c-.96-.11-1.52-.61-1.68-1.52l-5.92-30.96c-.05-.53,.05-1.03,.32-1.48,.27-.45,.67-.73,1.2-.84,.53-.05,1.01,.07,1.44,.36,.43,.29,.69,.68,.8,1.16l4.8,25.2,7.92-17.2c.37-.75,.96-1.12,1.76-1.12s1.39,.37,1.76,1.12l7.92,17.2,4.72-25.04c.11-.53,.37-.95,.8-1.24,.43-.29,.91-.39,1.44-.28,.53,.05,.95,.31,1.24,.76,.29,.45,.39,.95,.28,1.48l-5.92,30.88c-.16,.91-.69,1.41-1.6,1.52-.96,.11-1.63-.27-2-1.12l-8.64-18.8-8.72,18.8c-.37,.85-1.01,1.23-1.92,1.12Z"/><path class="d" d="M114.41,155.6c-4.53,0-8.11-1.56-10.72-4.68-2.61-3.12-3.92-7.35-3.92-12.68s1.31-9.63,3.92-12.72c2.61-3.09,6.19-4.64,10.72-4.64s8.04,1.55,10.68,4.64c2.64,3.09,3.96,7.33,3.96,12.72s-1.32,9.56-3.96,12.68-6.2,4.68-10.68,4.68Zm0-3.84c3.47,0,6.13-1.17,8-3.52,1.87-2.35,2.8-5.68,2.8-10s-.93-7.57-2.8-9.92c-1.87-2.35-4.53-3.52-8-3.52s-6.08,1.17-8,3.52c-1.92,2.35-2.88,5.65-2.88,9.92s.96,7.65,2.88,10c1.92,2.35,4.59,3.52,8,3.52Z"/><path class="d" d="M139.29,155.6c-.53,0-.99-.19-1.36-.56-.37-.37-.56-.8-.56-1.28v-30.88c0-.53,.19-.99,.56-1.36,.37-.37,.83-.56,1.36-.56s.97,.19,1.32,.56c.35,.37,.52,.83,.52,1.36v2c.8-.96,1.92-1.8,3.36-2.52s2.83-1.19,4.16-1.4c1.87-.27,3.76-.12,5.68,.44,1.92,.56,3.64,1.51,5.16,2.84,1.52,1.33,2.57,3.09,3.16,5.28,.16,.48,.11,.95-.16,1.4-.27,.45-.64,.76-1.12,.92-.53,.11-1.03,.03-1.48-.24-.45-.27-.73-.64-.84-1.12-.43-1.55-1.17-2.77-2.24-3.68-1.07-.91-2.28-1.52-3.64-1.84-1.36-.32-2.68-.37-3.96-.16-2.29,.27-4.21,1.12-5.76,2.56-1.55,1.44-2.32,3.73-2.32,6.88v19.52c0,.48-.17,.91-.52,1.28-.35,.37-.79,.56-1.32,.56Z"/><path class="d" d="M173.61,155.6c-.53,0-.99-.17-1.36-.52-.37-.35-.56-.79-.56-1.32v-55.84c0-.53,.19-.99,.56-1.36,.37-.37,.83-.56,1.36-.56s.99,.19,1.36,.56c.37,.37,.56,.83,.56,1.36v38.32l18.08-14.88c.43-.32,.89-.45,1.4-.4,.51,.05,.95,.29,1.32,.72,.27,.37,.39,.81,.36,1.32-.03,.51-.25,.95-.68,1.32l-12.32,10.08,13.6,18.16c.37,.37,.51,.83,.4,1.36-.11,.53-.37,.96-.8,1.28-.37,.32-.83,.44-1.36,.36-.53-.08-.96-.31-1.28-.68l-13.44-18.08-5.28,4.32v12.64c0,.53-.19,.97-.56,1.32-.37,.35-.83,.52-1.36,.52Z"/><path class="d" d="M217.05,155.6c-3.04,0-5.72-.67-8.04-2-2.32-1.33-3.96-3.12-4.92-5.36-.21-.48-.21-.96,0-1.44,.21-.48,.56-.83,1.04-1.04,.48-.21,.96-.21,1.44,0,.48,.21,.83,.56,1.04,1.04,.69,1.55,1.88,2.76,3.56,3.64,1.68,.88,3.64,1.32,5.88,1.32s4.08-.23,5.36-.68c1.28-.45,2.2-1.01,2.76-1.68,.56-.67,.91-1.33,1.04-2,.13-.67,.2-1.19,.2-1.56,0-.8-.19-1.57-.56-2.32-.37-.75-1.17-1.45-2.4-2.12-1.23-.67-3.12-1.27-5.68-1.8-1.81-.37-3.69-.91-5.64-1.6-1.95-.69-3.59-1.67-4.92-2.92-1.33-1.25-2-2.89-2-4.92,.05-2.72,1.2-4.95,3.44-6.68,2.24-1.73,5.15-2.6,8.72-2.6,2.67,0,5.08,.57,7.24,1.72,2.16,1.15,3.75,2.71,4.76,4.68,.27,.43,.32,.89,.16,1.4-.16,.51-.45,.89-.88,1.16-.53,.21-1.04,.25-1.52,.12-.48-.13-.83-.44-1.04-.92-.59-1.07-1.6-2.04-3.04-2.92-1.44-.88-3.33-1.32-5.68-1.32-1.33,0-2.64,.17-3.92,.52-1.28,.35-2.33,.91-3.16,1.68-.83,.77-1.27,1.85-1.32,3.24,0,.32,.13,.81,.4,1.48,.27,.67,1.07,1.37,2.4,2.12,1.33,.75,3.57,1.44,6.72,2.08,1.87,.37,3.69,.92,5.48,1.64,1.79,.72,3.28,1.73,4.48,3.04,1.2,1.31,1.77,3.05,1.72,5.24,0,.91-.16,1.92-.48,3.04-.32,1.12-.93,2.19-1.84,3.2-.91,1.01-2.23,1.85-3.96,2.52-1.73,.67-4.01,1-6.84,1Z"/><path class="d" d="M266.81,155.68c-.53,0-.99-.17-1.36-.52-.37-.35-.56-.79-.56-1.32v-27.92h-5.76c-.53,0-.99-.2-1.36-.6-.37-.4-.56-.84-.56-1.32,0-.53,.19-.99,.56-1.36,.37-.37,.83-.56,1.36-.56h5.76v-11.76c0-7.84,3.97-11.76,11.92-11.76h4.72c.53,0,.97,.19,1.32,.56,.35,.37,.52,.83,.52,1.36s-.17,.99-.52,1.36c-.35,.37-.79,.56-1.32,.56h-4.72c-2.83,0-4.89,.63-6.2,1.88-1.31,1.25-1.96,3.27-1.96,6.04v11.76h12.96c.53,0,.99,.19,1.36,.56,.37,.37,.56,.83,.56,1.36,0,.48-.19,.92-.56,1.32-.37,.4-.83,.6-1.36,.6h-12.96v27.92c0,.53-.17,.97-.52,1.32-.35,.35-.79,.52-1.32,.52Z"/><path class="d" d="M301.13,155.6c-4.53,0-8.11-1.56-10.72-4.68-2.61-3.12-3.92-7.35-3.92-12.68s1.31-9.63,3.92-12.72c2.61-3.09,6.19-4.64,10.72-4.64s8.04,1.55,10.68,4.64c2.64,3.09,3.96,7.33,3.96,12.72s-1.32,9.56-3.96,12.68-6.2,4.68-10.68,4.68Zm0-3.84c3.47,0,6.13-1.17,8-3.52,1.87-2.35,2.8-5.68,2.8-10s-.93-7.57-2.8-9.92c-1.87-2.35-4.53-3.52-8-3.52s-6.08,1.17-8,3.52c-1.92,2.35-2.88,5.65-2.88,9.92s.96,7.65,2.88,10c1.92,2.35,4.59,3.52,8,3.52Z"/><path class="d" d="M326.01,155.6c-.53,0-.99-.19-1.36-.56-.37-.37-.56-.8-.56-1.28v-30.88c0-.53,.19-.99,.56-1.36,.37-.37,.83-.56,1.36-.56s.97,.19,1.32,.56c.35,.37,.52,.83,.52,1.36v2c.8-.96,1.92-1.8,3.36-2.52s2.83-1.19,4.16-1.4c1.87-.27,3.76-.12,5.68,.44,1.92,.56,3.64,1.51,5.16,2.84,1.52,1.33,2.57,3.09,3.16,5.28,.16,.48,.11,.95-.16,1.4-.27,.45-.64,.76-1.12,.92-.53,.11-1.03,.03-1.48-.24-.45-.27-.73-.64-.84-1.12-.43-1.55-1.17-2.77-2.24-3.68-1.07-.91-2.28-1.52-3.64-1.84-1.36-.32-2.68-.37-3.96-.16-2.29,.27-4.21,1.12-5.76,2.56-1.55,1.44-2.32,3.73-2.32,6.88v19.52c0,.48-.17,.91-.52,1.28-.35,.37-.79,.56-1.32,.56Z"/><path class="d" d="M404.81,155.68c-.53,0-.97-.17-1.32-.52-.35-.35-.52-.79-.52-1.32v-3.36c-1.23,1.55-2.72,2.79-4.48,3.72-1.76,.93-3.79,1.4-6.08,1.4-4.53,0-8.11-1.56-10.72-4.68-2.61-3.12-3.92-7.35-3.92-12.68s1.31-9.63,3.92-12.72c2.61-3.09,6.19-4.64,10.72-4.64,2.29,0,4.32,.48,6.08,1.44,1.76,.96,3.25,2.21,4.48,3.76v-28.08c0-.53,.17-.99,.52-1.36,.35-.37,.79-.56,1.32-.56s.99,.19,1.36,.56c.37,.37,.56,.83,.56,1.36v55.84c0,.53-.19,.97-.56,1.32-.37,.35-.83,.52-1.36,.52Zm-12.4-3.92c3.41,0,6.03-1.17,7.84-3.52,1.81-2.35,2.72-5.68,2.72-10s-.91-7.57-2.72-9.92c-1.81-2.35-4.43-3.52-7.84-3.52s-6.08,1.17-8,3.52c-1.92,2.35-2.88,5.65-2.88,9.92s.96,7.65,2.88,10c1.92,2.35,4.59,3.52,8,3.52Z"/><path class="d" d="M431.13,155.6c-4.53,0-8.11-1.56-10.72-4.68-2.61-3.12-3.92-7.35-3.92-12.68s1.31-9.63,3.92-12.72c2.61-3.09,6.19-4.64,10.72-4.64,3.95,0,7.27,1.36,9.96,4.08,2.69,2.72,4.15,6.4,4.36,11.04v.24c0,.48-.19,.91-.56,1.28-.32,.37-.77,.56-1.36,.56h-23.2c0,4.11,.87,7.41,2.6,9.92,1.73,2.51,4.47,3.76,8.2,3.76,1.92,0,3.72-.41,5.4-1.24,1.68-.83,2.97-1.91,3.88-3.24,.32-.43,.73-.69,1.24-.8,.51-.11,.97,0,1.4,.32,.43,.27,.69,.67,.8,1.2,.11,.53,0,1.01-.32,1.44-1.28,1.87-3.03,3.36-5.24,4.48-2.21,1.12-4.6,1.68-7.16,1.68Zm-10.56-21.28h20.72c-.53-3.04-1.69-5.39-3.48-7.04-1.79-1.65-4.01-2.48-6.68-2.48-2.88,0-5.21,.83-7,2.48-1.79,1.65-2.97,4-3.56,7.04Z"/><path class="d" d="M479.29,155.68c-.53,0-.99-.17-1.36-.52-.37-.35-.56-.79-.56-1.32v-.64l-9.84,1.92c-2.45,.48-4.53,.61-6.24,.4-1.71-.21-3.15-.75-4.32-1.6-.85-.69-1.53-1.56-2.04-2.6-.51-1.04-.81-2.23-.92-3.56-.32-3.09,.36-5.64,2.04-7.64,1.68-2,4.28-3.29,7.8-3.88l13.52-2.32v-2.24c0-1.07-.17-2.2-.52-3.4-.35-1.2-1.05-2.09-2.12-2.68-.85-.53-1.95-.8-3.28-.8-3.31,0-7.39,1.49-12.24,4.48-.48,.27-.96,.33-1.44,.2-.48-.13-.85-.41-1.12-.84-.32-.48-.41-.97-.28-1.48,.13-.51,.41-.87,.84-1.08,3.15-1.92,5.89-3.24,8.24-3.96,2.35-.72,4.35-1.08,6-1.08,1.12,0,2.09,.12,2.92,.36,.83,.24,1.53,.52,2.12,.84,1.55,.85,2.72,2.09,3.52,3.72,.8,1.63,1.2,3.53,1.2,5.72v22.16c0,.53-.17,.97-.52,1.32-.35,.35-.81,.52-1.4,.52Zm-12.4-4.4l10.48-1.92v-11.6l-12.8,2.16c-2.19,.37-3.77,.99-4.76,1.84-.99,.85-1.59,1.77-1.8,2.76-.21,.99-.29,1.93-.24,2.84,.16,1.65,.67,2.8,1.52,3.44,1.28,.96,3.81,1.12,7.6,.48Z"/><path class="d" d="M503.93,155.2c-2.19,0-3.91-.63-5.16-1.88-1.25-1.25-1.88-2.92-1.88-5v-22.48h-7.68c-.53,0-.97-.19-1.32-.56-.35-.37-.52-.83-.52-1.36s.17-.97,.52-1.32c.35-.35,.79-.52,1.32-.52h7.68v-11.76c0-.53,.17-.99,.52-1.36,.35-.37,.79-.56,1.32-.56s.99,.19,1.36,.56c.37,.37,.56,.83,.56,1.36v11.76h9.92c.53,0,.99,.17,1.36,.52,.37,.35,.56,.79,.56,1.32s-.19,.99-.56,1.36c-.37,.37-.83,.56-1.36,.56h-9.92v22.48c0,.21,.04,.57,.12,1.08,.08,.51,.36,.96,.84,1.36,.48,.4,1.25,.6,2.32,.6h6.24c.59,0,1.07,.19,1.44,.56,.37,.37,.56,.83,.56,1.36s-.19,.99-.56,1.36c-.37,.37-.85,.56-1.44,.56h-6.24Z"/><path class="d" d="M523.37,155.68c-.53,0-.99-.17-1.36-.52-.37-.35-.56-.79-.56-1.32v-55.92c0-.53,.19-.99,.56-1.36,.37-.37,.83-.56,1.36-.56s.99,.19,1.36,.56c.37,.37,.56,.83,.56,1.36v27.36c1.23-1.39,2.69-2.47,4.4-3.24,1.71-.77,3.55-1.16,5.52-1.16,3.68,0,6.57,1.21,8.68,3.64,2.11,2.43,3.16,5.69,3.16,9.8v19.44c0,.53-.17,.97-.52,1.32-.35,.35-.79,.52-1.32,.52s-.99-.17-1.36-.52c-.37-.35-.56-.79-.56-1.32v-19.44c0-1.23-.19-2.59-.56-4.08-.37-1.49-1.13-2.79-2.28-3.88-1.15-1.09-2.89-1.64-5.24-1.64-2.77,0-5.12,.85-7.04,2.56-1.92,1.71-2.88,4.13-2.88,7.28v19.28c0,.53-.19,.97-.56,1.32-.37,.35-.83,.52-1.36,.52Z"/><path class="d" d="M581.12,155.68c-.53,0-.99-.17-1.36-.52-.37-.35-.56-.79-.56-1.32v-56.08c0-.53,.19-1,.56-1.4,.37-.4,.83-.6,1.36-.6s.99,.2,1.36,.6c.37,.4,.56,.87,.56,1.4v28.32c1.23-1.55,2.72-2.8,4.48-3.76,1.76-.96,3.81-1.44,6.16-1.44,4.48,0,8.03,1.55,10.64,4.64,2.61,3.09,3.92,7.33,3.92,12.72s-1.31,9.56-3.92,12.68c-2.61,3.12-6.16,4.68-10.64,4.68-2.35,0-4.4-.47-6.16-1.4-1.76-.93-3.25-2.17-4.48-3.72v3.36c0,.53-.19,.97-.56,1.32-.37,.35-.83,.52-1.36,.52Zm12.56-3.92c3.41,0,6.05-1.17,7.92-3.52,1.87-2.35,2.8-5.68,2.8-10s-.93-7.57-2.8-9.92c-1.87-2.35-4.51-3.52-7.92-3.52s-6.09,1.17-7.88,3.52c-1.79,2.35-2.68,5.65-2.68,9.92s.89,7.65,2.68,10c1.79,2.35,4.41,3.52,7.88,3.52Z"/><path class="d" d="M622.8,172.32c-.53-.21-.91-.56-1.12-1.04-.21-.48-.21-.96,0-1.44l5.92-15.04-12.56-31.28c-.21-.48-.21-.96,0-1.44,.21-.48,.56-.83,1.04-1.04,.48-.16,.96-.15,1.44,.04,.48,.19,.83,.55,1.04,1.08l11.12,27.52,10.88-27.52c.21-.53,.55-.89,1-1.08,.45-.19,.95-.2,1.48-.04,.48,.21,.83,.56,1.04,1.04,.21,.48,.21,.96,0,1.44l-18.88,47.76c-.21,.48-.55,.81-1,1-.45,.19-.92,.2-1.4,.04Z"/><path class="d" d="M676.64,155.68c-.53,0-.99-.17-1.36-.52-.37-.35-.56-.79-.56-1.32v-55.92c0-.53,.19-.99,.56-1.36,.37-.37,.83-.56,1.36-.56s.99,.19,1.36,.56c.37,.37,.56,.83,.56,1.36v27.36c1.23-1.39,2.69-2.47,4.4-3.24,1.71-.77,3.55-1.16,5.52-1.16,3.68,0,6.57,1.21,8.68,3.64,2.11,2.43,3.16,5.69,3.16,9.8v19.44c0,.53-.17,.97-.52,1.32-.35,.35-.79,.52-1.32,.52s-.99-.17-1.36-.52c-.37-.35-.56-.79-.56-1.32v-19.44c0-1.23-.19-2.59-.56-4.08-.37-1.49-1.13-2.79-2.28-3.88-1.15-1.09-2.89-1.64-5.24-1.64-2.77,0-5.12,.85-7.04,2.56-1.92,1.71-2.88,4.13-2.88,7.28v19.28c0,.53-.19,.97-.56,1.32-.37,.35-.83,.52-1.36,.52Z"/><path class="d" d="M723.28,155.6c-4.53,0-8.11-1.56-10.72-4.68-2.61-3.12-3.92-7.35-3.92-12.68s1.31-9.63,3.92-12.72c2.61-3.09,6.19-4.64,10.72-4.64,3.95,0,7.27,1.36,9.96,4.08,2.69,2.72,4.15,6.4,4.36,11.04v.24c0,.48-.19,.91-.56,1.28-.32,.37-.77,.56-1.36,.56h-23.2c0,4.11,.87,7.41,2.6,9.92,1.73,2.51,4.47,3.76,8.2,3.76,1.92,0,3.72-.41,5.4-1.24,1.68-.83,2.97-1.91,3.88-3.24,.32-.43,.73-.69,1.24-.8,.51-.11,.97,0,1.4,.32,.43,.27,.69,.67,.8,1.2,.11,.53,0,1.01-.32,1.44-1.28,1.87-3.03,3.36-5.24,4.48-2.21,1.12-4.6,1.68-7.16,1.68Zm-10.56-21.28h20.72c-.53-3.04-1.69-5.39-3.48-7.04-1.79-1.65-4.01-2.48-6.68-2.48-2.88,0-5.21,.83-7,2.48-1.79,1.65-2.97,4-3.56,7.04Z"/><path class="d" d="M755.2,155.2c-2.13,0-3.85-.63-5.16-1.88-1.31-1.25-1.96-2.92-1.96-5v-50.32c0-.53,.19-.99,.56-1.36,.37-.37,.83-.56,1.36-.56s.99,.19,1.36,.56c.37,.37,.56,.83,.56,1.36v50.32c0,.21,.04,.57,.12,1.08,.08,.51,.36,.96,.84,1.36,.48,.4,1.25,.6,2.32,.6h6.32c.53,0,.99,.19,1.36,.56,.37,.37,.56,.83,.56,1.36s-.19,.99-.56,1.36c-.37,.37-.83,.56-1.36,.56h-6.32Z"/><path class="d" d="M771.44,172.4c-.53,0-.97-.19-1.32-.56-.35-.37-.52-.83-.52-1.36v-47.68c0-.53,.17-.99,.52-1.36,.35-.37,.79-.56,1.32-.56s.99,.19,1.36,.56c.37,.37,.56,.83,.56,1.36v2.96c1.17-1.49,2.6-2.68,4.28-3.56,1.68-.88,3.64-1.32,5.88-1.32,4.53,0,8.11,1.55,10.72,4.64,2.61,3.09,3.92,7.33,3.92,12.72s-1.31,9.56-3.92,12.68c-2.61,3.12-6.19,4.68-10.72,4.68-2.24,0-4.2-.43-5.88-1.28-1.68-.85-3.11-2.03-4.28-3.52v19.68c0,.53-.19,.99-.56,1.36-.37,.37-.83,.56-1.36,.56Zm12.08-20.64c3.47,0,6.15-1.17,8.04-3.52,1.89-2.35,2.84-5.68,2.84-10s-.95-7.57-2.84-9.92c-1.89-2.35-4.57-3.52-8.04-3.52-6.83,0-10.24,4.48-10.24,13.44s3.41,13.52,10.24,13.52Z"/><path class="d" d="M814.08,155.68c-.53,0-.97-.17-1.32-.52-.35-.35-.52-.79-.52-1.32v-27.92h-9.2c-.53,0-.99-.2-1.36-.6-.37-.4-.56-.87-.56-1.4s.19-.97,.56-1.32c.37-.35,.83-.52,1.36-.52h11.04c.59,0,1.07,.17,1.44,.52,.37,.35,.56,.79,.56,1.32v29.92c0,.53-.19,.97-.56,1.32-.37,.35-.85,.52-1.44,.52Zm-.96-48.08c-.75,0-1.36-.21-1.84-.64-.48-.43-.72-.91-.72-1.44v-4.96c0-.53,.24-1.03,.72-1.48,.48-.45,1.09-.68,1.84-.68s1.35,.23,1.8,.68c.45,.45,.68,.95,.68,1.48v4.96c0,.53-.23,1.01-.68,1.44-.45,.43-1.05,.64-1.8,.64Z"/><path class="d" d="M828.48,155.6c-.53,0-.97-.17-1.32-.52-.35-.35-.52-.79-.52-1.32v-31.04c0-.53,.17-.99,.52-1.36,.35-.37,.79-.56,1.32-.56s.99,.19,1.36,.56c.37,.37,.56,.83,.56,1.36v2.64c1.23-1.39,2.69-2.48,4.4-3.28,1.71-.8,3.55-1.2,5.52-1.2,3.68,0,6.57,1.21,8.68,3.64,2.11,2.43,3.16,5.72,3.16,9.88v19.2c0,.53-.17,.99-.52,1.36-.35,.37-.79,.56-1.32,.56s-.99-.19-1.36-.56c-.37-.37-.56-.83-.56-1.36v-19.2c0-1.23-.19-2.59-.56-4.08-.37-1.49-1.13-2.79-2.28-3.88-1.15-1.09-2.89-1.64-5.24-1.64-3.09,0-5.52,.85-7.28,2.56-1.76,1.71-2.64,4.13-2.64,7.28v19.12c0,.53-.19,.97-.56,1.32-.37,.35-.83,.52-1.36,.52Z"/><path class="d" d="M875.6,172.32c-2.83,0-5.27-.76-7.32-2.28-2.05-1.52-3.51-3.67-4.36-6.44-.16-.48-.13-.95,.08-1.4,.21-.45,.59-.76,1.12-.92,.53-.21,1.03-.19,1.48,.08,.45,.27,.76,.64,.92,1.12,1.23,4,3.92,6,8.08,6,2.72,0,4.87-.99,6.44-2.96,1.57-1.97,2.36-4.67,2.36-8.08v-10.72c-2.35,2.51-5.65,3.76-9.92,3.76s-7.73-1.33-10.24-4c-2.51-2.67-3.76-6.27-3.76-10.8s1.25-8.12,3.76-10.76c2.51-2.64,5.92-3.96,10.24-3.96s7.63,1.28,9.92,3.84v-2c0-.53,.19-1,.56-1.4,.37-.4,.83-.6,1.36-.6s.97,.2,1.32,.6c.35,.4,.52,.87,.52,1.4v34.64c0,4.37-1.15,7.95-3.44,10.72-2.29,2.77-5.33,4.16-9.12,4.16Zm-1.12-25.6c3.15,0,5.6-.92,7.36-2.76,1.76-1.84,2.64-4.6,2.64-8.28s-.88-6.35-2.64-8.16c-1.76-1.81-4.21-2.72-7.36-2.72s-5.77,.95-7.56,2.84c-1.79,1.89-2.68,4.57-2.68,8.04s.89,6.24,2.68,8.16c1.79,1.92,4.31,2.88,7.56,2.88Z"/><path class="d" d="M232.81,251.6c-.53,0-.99-.19-1.36-.56-.37-.37-.56-.8-.56-1.28v-30.88c0-.53,.19-.99,.56-1.36,.37-.37,.83-.56,1.36-.56s.97,.19,1.32,.56c.35,.37,.52,.83,.52,1.36v2c.8-.96,1.92-1.8,3.36-2.52s2.83-1.19,4.16-1.4c1.87-.27,3.76-.12,5.68,.44,1.92,.56,3.64,1.51,5.16,2.84,1.52,1.33,2.57,3.09,3.16,5.28,.16,.48,.11,.95-.16,1.4-.27,.45-.64,.76-1.12,.92-.53,.11-1.03,.03-1.48-.24-.45-.27-.73-.64-.84-1.12-.43-1.55-1.17-2.77-2.24-3.68-1.07-.91-2.28-1.52-3.64-1.84-1.36-.32-2.68-.37-3.96-.16-2.29,.27-4.21,1.12-5.76,2.56-1.55,1.44-2.32,3.73-2.32,6.88v19.52c0,.48-.17,.91-.52,1.28-.35,.37-.79,.56-1.32,.56Z"/><path class="d" d="M277.61,251.6c-4.53,0-8.11-1.56-10.72-4.68-2.61-3.12-3.92-7.35-3.92-12.68s1.31-9.63,3.92-12.72c2.61-3.09,6.19-4.64,10.72-4.64,3.95,0,7.27,1.36,9.96,4.08,2.69,2.72,4.15,6.4,4.36,11.04v.24c0,.48-.19,.91-.56,1.28-.32,.37-.77,.56-1.36,.56h-23.2c0,4.11,.87,7.41,2.6,9.92,1.73,2.51,4.47,3.76,8.2,3.76,1.92,0,3.72-.41,5.4-1.24,1.68-.83,2.97-1.91,3.88-3.24,.32-.43,.73-.69,1.24-.8,.51-.11,.97,0,1.4,.32,.43,.27,.69,.67,.8,1.2,.11,.53,0,1.01-.32,1.44-1.28,1.87-3.03,3.36-5.24,4.48-2.21,1.12-4.6,1.68-7.16,1.68Zm-10.56-21.28h20.72c-.53-3.04-1.69-5.39-3.48-7.04-1.79-1.65-4.01-2.48-6.68-2.48-2.88,0-5.21,.83-7,2.48-1.79,1.65-2.97,4-3.56,7.04Z"/><path class="d" d="M313.13,251.6c-3.04,0-5.72-.67-8.04-2-2.32-1.33-3.96-3.12-4.92-5.36-.21-.48-.21-.96,0-1.44,.21-.48,.56-.83,1.04-1.04,.48-.21,.96-.21,1.44,0,.48,.21,.83,.56,1.04,1.04,.69,1.55,1.88,2.76,3.56,3.64,1.68,.88,3.64,1.32,5.88,1.32s4.08-.23,5.36-.68c1.28-.45,2.2-1.01,2.76-1.68,.56-.67,.91-1.33,1.04-2,.13-.67,.2-1.19,.2-1.56,0-.8-.19-1.57-.56-2.32-.37-.75-1.17-1.45-2.4-2.12-1.23-.67-3.12-1.27-5.68-1.8-1.81-.37-3.69-.91-5.64-1.6-1.95-.69-3.59-1.67-4.92-2.92-1.33-1.25-2-2.89-2-4.92,.05-2.72,1.2-4.95,3.44-6.68,2.24-1.73,5.15-2.6,8.72-2.6,2.67,0,5.08,.57,7.24,1.72,2.16,1.15,3.75,2.71,4.76,4.68,.27,.43,.32,.89,.16,1.4-.16,.51-.45,.89-.88,1.16-.53,.21-1.04,.25-1.52,.12-.48-.13-.83-.44-1.04-.92-.59-1.07-1.6-2.04-3.04-2.92-1.44-.88-3.33-1.32-5.68-1.32-1.33,0-2.64,.17-3.92,.52-1.28,.35-2.33,.91-3.16,1.68-.83,.77-1.27,1.85-1.32,3.24,0,.32,.13,.81,.4,1.48,.27,.67,1.07,1.37,2.4,2.12,1.33,.75,3.57,1.44,6.72,2.08,1.87,.37,3.69,.92,5.48,1.64,1.79,.72,3.28,1.73,4.48,3.04,1.2,1.31,1.77,3.05,1.72,5.24,0,.91-.16,1.92-.48,3.04-.32,1.12-.93,2.19-1.84,3.2-.91,1.01-2.23,1.85-3.96,2.52-1.73,.67-4.01,1-6.84,1Z"/><path class="d" d="M348.25,251.2c-2.19,0-3.91-.63-5.16-1.88-1.25-1.25-1.88-2.92-1.88-5v-22.48h-7.68c-.53,0-.97-.19-1.32-.56-.35-.37-.52-.83-.52-1.36s.17-.97,.52-1.32c.35-.35,.79-.52,1.32-.52h7.68v-11.76c0-.53,.17-.99,.52-1.36,.35-.37,.79-.56,1.32-.56s.99,.19,1.36,.56c.37,.37,.56,.83,.56,1.36v11.76h9.92c.53,0,.99,.17,1.36,.52,.37,.35,.56,.79,.56,1.32s-.19,.99-.56,1.36c-.37,.37-.83,.56-1.36,.56h-9.92v22.48c0,.21,.04,.57,.12,1.08,.08,.51,.36,.96,.84,1.36,.48,.4,1.25,.6,2.32,.6h6.24c.59,0,1.07,.19,1.44,.56,.37,.37,.56,.83,.56,1.36s-.19,.99-.56,1.36c-.37,.37-.85,.56-1.44,.56h-6.24Z"/><path class="d" d="M376.57,251.6c-4.53,0-8.11-1.56-10.72-4.68-2.61-3.12-3.92-7.35-3.92-12.68s1.31-9.63,3.92-12.72c2.61-3.09,6.19-4.64,10.72-4.64s8.04,1.55,10.68,4.64c2.64,3.09,3.96,7.33,3.96,12.72s-1.32,9.56-3.96,12.68-6.2,4.68-10.68,4.68Zm0-3.84c3.47,0,6.13-1.17,8-3.52,1.87-2.35,2.8-5.68,2.8-10s-.93-7.57-2.8-9.92c-1.87-2.35-4.53-3.52-8-3.52s-6.08,1.17-8,3.52c-1.92,2.35-2.88,5.65-2.88,9.92s.96,7.65,2.88,10c1.92,2.35,4.59,3.52,8,3.52Z"/><path class="d" d="M401.45,251.6c-.53,0-.99-.19-1.36-.56-.37-.37-.56-.8-.56-1.28v-30.88c0-.53,.19-.99,.56-1.36,.37-.37,.83-.56,1.36-.56s.97,.19,1.32,.56c.35,.37,.52,.83,.52,1.36v2c.8-.96,1.92-1.8,3.36-2.52s2.83-1.19,4.16-1.4c1.87-.27,3.76-.12,5.68,.44,1.92,.56,3.64,1.51,5.16,2.84,1.52,1.33,2.57,3.09,3.16,5.28,.16,.48,.11,.95-.16,1.4-.27,.45-.64,.76-1.12,.92-.53,.11-1.03,.03-1.48-.24-.45-.27-.73-.64-.84-1.12-.43-1.55-1.17-2.77-2.24-3.68-1.07-.91-2.28-1.52-3.64-1.84-1.36-.32-2.68-.37-3.96-.16-2.29,.27-4.21,1.12-5.76,2.56-1.55,1.44-2.32,3.73-2.32,6.88v19.52c0,.48-.17,.91-.52,1.28-.35,.37-.79,.56-1.32,.56Z"/><path class="d" d="M446.25,251.6c-4.53,0-8.11-1.56-10.72-4.68-2.61-3.12-3.92-7.35-3.92-12.68s1.31-9.63,3.92-12.72c2.61-3.09,6.19-4.64,10.72-4.64,3.95,0,7.27,1.36,9.96,4.08,2.69,2.72,4.15,6.4,4.36,11.04v.24c0,.48-.19,.91-.56,1.28-.32,.37-.77,.56-1.36,.56h-23.2c0,4.11,.87,7.41,2.6,9.92,1.73,2.51,4.47,3.76,8.2,3.76,1.92,0,3.72-.41,5.4-1.24,1.68-.83,2.97-1.91,3.88-3.24,.32-.43,.73-.69,1.24-.8,.51-.11,.97,0,1.4,.32,.43,.27,.69,.67,.8,1.2,.11,.53,0,1.01-.32,1.44-1.28,1.87-3.03,3.36-5.24,4.48-2.21,1.12-4.6,1.68-7.16,1.68Zm-10.56-21.28h20.72c-.53-3.04-1.69-5.39-3.48-7.04-1.79-1.65-4.01-2.48-6.68-2.48-2.88,0-5.21,.83-7,2.48-1.79,1.65-2.97,4-3.56,7.04Z"/><path class="d" d="M494.57,251.68c-.53,0-.99-.17-1.36-.52-.37-.35-.56-.79-.56-1.32v-56.08c0-.53,.19-1,.56-1.4,.37-.4,.83-.6,1.36-.6s.99,.2,1.36,.6c.37,.4,.56,.87,.56,1.4v28.32c1.23-1.55,2.72-2.8,4.48-3.76,1.76-.96,3.81-1.44,6.16-1.44,4.48,0,8.03,1.55,10.64,4.64,2.61,3.09,3.92,7.33,3.92,12.72s-1.31,9.56-3.92,12.68c-2.61,3.12-6.16,4.68-10.64,4.68-2.35,0-4.4-.47-6.16-1.4-1.76-.93-3.25-2.17-4.48-3.72v3.36c0,.53-.19,.97-.56,1.32-.37,.35-.83,.52-1.36,.52Zm12.56-3.92c3.41,0,6.05-1.17,7.92-3.52,1.87-2.35,2.8-5.68,2.8-10s-.93-7.57-2.8-9.92c-1.87-2.35-4.51-3.52-7.92-3.52s-6.09,1.17-7.88,3.52c-1.79,2.35-2.68,5.65-2.68,9.92s.89,7.65,2.68,10c1.79,2.35,4.41,3.52,7.88,3.52Z"/><path class="d" d="M554.8,251.68c-.53,0-.99-.17-1.36-.52-.37-.35-.56-.79-.56-1.32v-.64l-9.84,1.92c-2.45,.48-4.53,.61-6.24,.4-1.71-.21-3.15-.75-4.32-1.6-.85-.69-1.53-1.56-2.04-2.6-.51-1.04-.81-2.23-.92-3.56-.32-3.09,.36-5.64,2.04-7.64,1.68-2,4.28-3.29,7.8-3.88l13.52-2.32v-2.24c0-1.07-.17-2.2-.52-3.4-.35-1.2-1.05-2.09-2.12-2.68-.85-.53-1.95-.8-3.28-.8-3.31,0-7.39,1.49-12.24,4.48-.48,.27-.96,.33-1.44,.2-.48-.13-.85-.41-1.12-.84-.32-.48-.41-.97-.28-1.48,.13-.51,.41-.87,.84-1.08,3.15-1.92,5.89-3.24,8.24-3.96,2.35-.72,4.35-1.08,6-1.08,1.12,0,2.09,.12,2.92,.36,.83,.24,1.53,.52,2.12,.84,1.55,.85,2.72,2.09,3.52,3.72,.8,1.63,1.2,3.53,1.2,5.72v22.16c0,.53-.17,.97-.52,1.32-.35,.35-.81,.52-1.4,.52Zm-12.4-4.4l10.48-1.92v-11.6l-12.8,2.16c-2.19,.37-3.77,.99-4.76,1.84-.99,.85-1.59,1.77-1.8,2.76-.21,.99-.29,1.93-.24,2.84,.16,1.65,.67,2.8,1.52,3.44,1.28,.96,3.81,1.12,7.6,.48Z"/><path class="d" d="M574.4,251.2c-2.13,0-3.85-.63-5.16-1.88-1.31-1.25-1.96-2.92-1.96-5v-50.32c0-.53,.19-.99,.56-1.36,.37-.37,.83-.56,1.36-.56s.99,.19,1.36,.56c.37,.37,.56,.83,.56,1.36v50.32c0,.21,.04,.57,.12,1.08,.08,.51,.36,.96,.84,1.36,.48,.4,1.25,.6,2.32,.6h6.32c.53,0,.99,.19,1.36,.56,.37,.37,.56,.83,.56,1.36s-.19,.99-.56,1.36c-.37,.37-.83,.56-1.36,.56h-6.32Z"/><path class="d" d="M613.6,251.68c-.53,0-.99-.17-1.36-.52-.37-.35-.56-.79-.56-1.32v-.64l-9.84,1.92c-2.45,.48-4.53,.61-6.24,.4-1.71-.21-3.15-.75-4.32-1.6-.85-.69-1.53-1.56-2.04-2.6-.51-1.04-.81-2.23-.92-3.56-.32-3.09,.36-5.64,2.04-7.64,1.68-2,4.28-3.29,7.8-3.88l13.52-2.32v-2.24c0-1.07-.17-2.2-.52-3.4-.35-1.2-1.05-2.09-2.12-2.68-.85-.53-1.95-.8-3.28-.8-3.31,0-7.39,1.49-12.24,4.48-.48,.27-.96,.33-1.44,.2-.48-.13-.85-.41-1.12-.84-.32-.48-.41-.97-.28-1.48,.13-.51,.41-.87,.84-1.08,3.15-1.92,5.89-3.24,8.24-3.96,2.35-.72,4.35-1.08,6-1.08,1.12,0,2.09,.12,2.92,.36,.83,.24,1.53,.52,2.12,.84,1.55,.85,2.72,2.09,3.52,3.72,.8,1.63,1.2,3.53,1.2,5.72v22.16c0,.53-.17,.97-.52,1.32-.35,.35-.81,.52-1.4,.52Zm-12.4-4.4l10.48-1.92v-11.6l-12.8,2.16c-2.19,.37-3.77,.99-4.76,1.84-.99,.85-1.59,1.77-1.8,2.76-.21,.99-.29,1.93-.24,2.84,.16,1.65,.67,2.8,1.52,3.44,1.28,.96,3.81,1.12,7.6,.48Z"/><path class="d" d="M624.88,251.6c-.53,0-.97-.17-1.32-.52-.35-.35-.52-.79-.52-1.32v-31.04c0-.53,.17-.99,.52-1.36,.35-.37,.79-.56,1.32-.56s.99,.19,1.36,.56c.37,.37,.56,.83,.56,1.36v2.64c1.23-1.39,2.69-2.48,4.4-3.28,1.71-.8,3.55-1.2,5.52-1.2,3.68,0,6.57,1.21,8.68,3.64,2.11,2.43,3.16,5.72,3.16,9.88v19.2c0,.53-.17,.99-.52,1.36-.35,.37-.79,.56-1.32,.56s-.99-.19-1.36-.56c-.37-.37-.56-.83-.56-1.36v-19.2c0-1.23-.19-2.59-.56-4.08-.37-1.49-1.13-2.79-2.28-3.88-1.15-1.09-2.89-1.64-5.24-1.64-3.09,0-5.52,.85-7.28,2.56-1.76,1.71-2.64,4.13-2.64,7.28v19.12c0,.53-.19,.97-.56,1.32-.37,.35-.83,.52-1.36,.52Z"/><path class="d" d="M671.52,251.6c-4.53,0-8.11-1.56-10.72-4.68-2.61-3.12-3.92-7.35-3.92-12.68s1.31-9.63,3.92-12.72c2.61-3.09,6.19-4.64,10.72-4.64s7.95,1.52,10.56,4.56c.37,.37,.55,.83,.52,1.36-.03,.53-.25,.99-.68,1.36-.37,.32-.83,.47-1.36,.44-.53-.03-.99-.23-1.36-.6-1.81-2.13-4.37-3.2-7.68-3.2s-6.08,1.17-8,3.52c-1.92,2.35-2.88,5.65-2.88,9.92s.96,7.65,2.88,10c1.92,2.35,4.59,3.52,8,3.52s5.92-1.04,7.68-3.12c.37-.43,.83-.67,1.36-.72,.53-.05,.99,.11,1.36,.48,.43,.32,.65,.75,.68,1.28,.03,.53-.15,1.01-.52,1.44-2.67,2.99-6.19,4.48-10.56,4.48Z"/><path class="d" d="M703.52,251.6c-4.53,0-8.11-1.56-10.72-4.68-2.61-3.12-3.92-7.35-3.92-12.68s1.31-9.63,3.92-12.72c2.61-3.09,6.19-4.64,10.72-4.64,3.95,0,7.27,1.36,9.96,4.08,2.69,2.72,4.15,6.4,4.36,11.04v.24c0,.48-.19,.91-.56,1.28-.32,.37-.77,.56-1.36,.56h-23.2c0,4.11,.87,7.41,2.6,9.92,1.73,2.51,4.47,3.76,8.2,3.76,1.92,0,3.72-.41,5.4-1.24,1.68-.83,2.97-1.91,3.88-3.24,.32-.43,.73-.69,1.24-.8,.51-.11,.97,0,1.4,.32,.43,.27,.69,.67,.8,1.2,.11,.53,0,1.01-.32,1.44-1.28,1.87-3.03,3.36-5.24,4.48-2.21,1.12-4.6,1.68-7.16,1.68Zm-10.56-21.28h20.72c-.53-3.04-1.69-5.39-3.48-7.04-1.79-1.65-4.01-2.48-6.68-2.48-2.88,0-5.21,.83-7,2.48-1.79,1.65-2.97,4-3.56,7.04Z"/><path class="d" d="M101.25,347.2c-2.19,0-3.91-.63-5.16-1.88-1.25-1.25-1.88-2.92-1.88-5v-22.48h-7.68c-.53,0-.97-.19-1.32-.56-.35-.37-.52-.83-.52-1.36s.17-.97,.52-1.32c.35-.35,.79-.52,1.32-.52h7.68v-11.76c0-.53,.17-.99,.52-1.36,.35-.37,.79-.56,1.32-.56s.99,.19,1.36,.56c.37,.37,.56,.83,.56,1.36v11.76h9.92c.53,0,.99,.17,1.36,.52,.37,.35,.56,.79,.56,1.32s-.19,.99-.56,1.36c-.37,.37-.83,.56-1.36,.56h-9.92v22.48c0,.21,.04,.57,.12,1.08,.08,.51,.36,.96,.84,1.36,.48,.4,1.25,.6,2.32,.6h6.24c.59,0,1.07,.19,1.44,.56,.37,.37,.56,.83,.56,1.36s-.19,.99-.56,1.36c-.37,.37-.85,.56-1.44,.56h-6.24Z"/><path class="d" d="M129.57,347.6c-4.53,0-8.11-1.56-10.72-4.68-2.61-3.12-3.92-7.35-3.92-12.68s1.31-9.63,3.92-12.72c2.61-3.09,6.19-4.64,10.72-4.64s8.04,1.55,10.68,4.64c2.64,3.09,3.96,7.33,3.96,12.72s-1.32,9.56-3.96,12.68-6.2,4.68-10.68,4.68Zm0-3.84c3.47,0,6.13-1.17,8-3.52,1.87-2.35,2.8-5.68,2.8-10s-.93-7.57-2.8-9.92c-1.87-2.35-4.53-3.52-8-3.52s-6.08,1.17-8,3.52c-1.92,2.35-2.88,5.65-2.88,9.92s.96,7.65,2.88,10c1.92,2.35,4.59,3.52,8,3.52Z"/><path class="d" d="M177.49,347.68c-.53,0-.99-.17-1.36-.52-.37-.35-.56-.79-.56-1.32v-55.92c0-.53,.19-.99,.56-1.36,.37-.37,.83-.56,1.36-.56s.99,.19,1.36,.56c.37,.37,.56,.83,.56,1.36v27.36c1.23-1.39,2.69-2.47,4.4-3.24,1.71-.77,3.55-1.16,5.52-1.16,3.68,0,6.57,1.21,8.68,3.64,2.11,2.43,3.16,5.69,3.16,9.8v19.44c0,.53-.17,.97-.52,1.32-.35,.35-.79,.52-1.32,.52s-.99-.17-1.36-.52c-.37-.35-.56-.79-.56-1.32v-19.44c0-1.23-.19-2.59-.56-4.08-.37-1.49-1.13-2.79-2.28-3.88-1.15-1.09-2.89-1.64-5.24-1.64-2.77,0-5.12,.85-7.04,2.56-1.92,1.71-2.88,4.13-2.88,7.28v19.28c0,.53-.19,.97-.56,1.32-.37,.35-.83,.52-1.36,.52Z"/><path class="d" d="M222.13,347.6c-3.68,0-6.57-1.2-8.68-3.6-2.11-2.4-3.16-5.71-3.16-9.92v-19.12c0-.53,.17-.99,.52-1.36,.35-.37,.79-.56,1.32-.56s.99,.19,1.36,.56c.37,.37,.56,.83,.56,1.36v19.12c0,1.23,.19,2.6,.56,4.12,.37,1.52,1.13,2.84,2.28,3.96,1.15,1.12,2.89,1.68,5.24,1.68,3.15,0,5.59-.85,7.32-2.56,1.73-1.71,2.6-4.16,2.6-7.36v-19.04c0-.53,.19-1,.56-1.4,.37-.4,.83-.6,1.36-.6s.97,.2,1.32,.6c.35,.4,.52,.87,.52,1.4v30.88c0,.53-.17,.97-.52,1.32-.35,.35-.79,.52-1.32,.52s-.99-.17-1.36-.52c-.37-.35-.56-.79-.56-1.32v-2.48c-1.23,1.33-2.68,2.39-4.36,3.16s-3.53,1.16-5.56,1.16Z"/><path class="d" d="M246.77,347.68c-.53,0-.97-.19-1.32-.56-.35-.37-.52-.8-.52-1.28v-30.96c0-.48,.17-.92,.52-1.32,.35-.4,.79-.6,1.32-.6s.99,.2,1.36,.6c.37,.4,.56,.84,.56,1.32v2.16c1.17-1.23,2.53-2.21,4.08-2.96,1.55-.75,3.2-1.12,4.96-1.12,2.19,0,4.11,.52,5.76,1.56,1.65,1.04,2.93,2.49,3.84,4.36,1.12-1.76,2.59-3.19,4.4-4.28,1.81-1.09,3.84-1.64,6.08-1.64,3.41,0,6.12,1.23,8.12,3.68,2,2.45,3,5.73,3,9.84v19.28c0,.48-.17,.91-.52,1.28-.35,.37-.79,.56-1.32,.56s-.99-.19-1.36-.56c-.37-.37-.56-.8-.56-1.28v-19.28c0-.75-.08-1.65-.24-2.72-.16-1.07-.48-2.13-.96-3.2-.48-1.07-1.21-1.96-2.2-2.68-.99-.72-2.31-1.08-3.96-1.08-2.61,0-4.75,.92-6.4,2.76-1.65,1.84-2.48,4.15-2.48,6.92v19.28c0,.48-.17,.91-.52,1.28-.35,.37-.79,.56-1.32,.56s-1-.19-1.4-.56c-.4-.37-.6-.8-.6-1.28v-19.12c0-1.71-.25-3.31-.76-4.8-.51-1.49-1.29-2.71-2.36-3.64-1.07-.93-2.48-1.4-4.24-1.4-2.4,0-4.51,.73-6.32,2.2-1.81,1.47-2.72,3.37-2.72,5.72v21.12c0,.48-.19,.91-.56,1.28-.37,.37-.83,.56-1.36,.56Z"/><path class="d" d="M322.85,347.68c-.53,0-.99-.17-1.36-.52-.37-.35-.56-.79-.56-1.32v-.64l-9.84,1.92c-2.45,.48-4.53,.61-6.24,.4-1.71-.21-3.15-.75-4.32-1.6-.85-.69-1.53-1.56-2.04-2.6-.51-1.04-.81-2.23-.92-3.56-.32-3.09,.36-5.64,2.04-7.64,1.68-2,4.28-3.29,7.8-3.88l13.52-2.32v-2.24c0-1.07-.17-2.2-.52-3.4-.35-1.2-1.05-2.09-2.12-2.68-.85-.53-1.95-.8-3.28-.8-3.31,0-7.39,1.49-12.24,4.48-.48,.27-.96,.33-1.44,.2-.48-.13-.85-.41-1.12-.84-.32-.48-.41-.97-.28-1.48,.13-.51,.41-.87,.84-1.08,3.15-1.92,5.89-3.24,8.24-3.96,2.35-.72,4.35-1.08,6-1.08,1.12,0,2.09,.12,2.92,.36,.83,.24,1.53,.52,2.12,.84,1.55,.85,2.72,2.09,3.52,3.72,.8,1.63,1.2,3.53,1.2,5.72v22.16c0,.53-.17,.97-.52,1.32-.35,.35-.81,.52-1.4,.52Zm-12.4-4.4l10.48-1.92v-11.6l-12.8,2.16c-2.19,.37-3.77,.99-4.76,1.84-.99,.85-1.59,1.77-1.8,2.76-.21,.99-.29,1.93-.24,2.84,.16,1.65,.67,2.8,1.52,3.44,1.28,.96,3.81,1.12,7.6,.48Z"/><path class="d" d="M334.13,347.6c-.53,0-.97-.17-1.32-.52-.35-.35-.52-.79-.52-1.32v-31.04c0-.53,.17-.99,.52-1.36,.35-.37,.79-.56,1.32-.56s.99,.19,1.36,.56c.37,.37,.56,.83,.56,1.36v2.64c1.23-1.39,2.69-2.48,4.4-3.28,1.71-.8,3.55-1.2,5.52-1.2,3.68,0,6.57,1.21,8.68,3.64,2.11,2.43,3.16,5.72,3.16,9.88v19.2c0,.53-.17,.99-.52,1.36-.35,.37-.79,.56-1.32,.56s-.99-.19-1.36-.56c-.37-.37-.56-.83-.56-1.36v-19.2c0-1.23-.19-2.59-.56-4.08-.37-1.49-1.13-2.79-2.28-3.88-1.15-1.09-2.89-1.64-5.24-1.64-3.09,0-5.52,.85-7.28,2.56-1.76,1.71-2.64,4.13-2.64,7.28v19.12c0,.53-.19,.97-.56,1.32-.37,.35-.83,.52-1.36,.52Z"/><path class="d" d="M376.93,347.68c-.53,0-.97-.17-1.32-.52-.35-.35-.52-.79-.52-1.32v-27.92h-9.2c-.53,0-.99-.2-1.36-.6-.37-.4-.56-.87-.56-1.4s.19-.97,.56-1.32c.37-.35,.83-.52,1.36-.52h11.04c.59,0,1.07,.17,1.44,.52,.37,.35,.56,.79,.56,1.32v29.92c0,.53-.19,.97-.56,1.32-.37,.35-.85,.52-1.44,.52Zm-.96-48.08c-.75,0-1.36-.21-1.84-.64-.48-.43-.72-.91-.72-1.44v-4.96c0-.53,.24-1.03,.72-1.48,.48-.45,1.09-.68,1.84-.68s1.35,.23,1.8,.68c.45,.45,.68,.95,.68,1.48v4.96c0,.53-.23,1.01-.68,1.44-.45,.43-1.05,.64-1.8,.64Z"/><path class="d" d="M403.09,347.2c-2.19,0-3.91-.63-5.16-1.88-1.25-1.25-1.88-2.92-1.88-5v-22.48h-7.68c-.53,0-.97-.19-1.32-.56-.35-.37-.52-.83-.52-1.36s.17-.97,.52-1.32c.35-.35,.79-.52,1.32-.52h7.68v-11.76c0-.53,.17-.99,.52-1.36,.35-.37,.79-.56,1.32-.56s.99,.19,1.36,.56c.37,.37,.56,.83,.56,1.36v11.76h9.92c.53,0,.99,.17,1.36,.52,.37,.35,.56,.79,.56,1.32s-.19,.99-.56,1.36c-.37,.37-.83,.56-1.36,.56h-9.92v22.48c0,.21,.04,.57,.12,1.08,.08,.51,.36,.96,.84,1.36,.48,.4,1.25,.6,2.32,.6h6.24c.59,0,1.07,.19,1.44,.56,.37,.37,.56,.83,.56,1.36s-.19,.99-.56,1.36c-.37,.37-.85,.56-1.44,.56h-6.24Z"/><path class="d" d="M425.41,364.32c-.53-.21-.91-.56-1.12-1.04-.21-.48-.21-.96,0-1.44l5.92-15.04-12.56-31.28c-.21-.48-.21-.96,0-1.44,.21-.48,.56-.83,1.04-1.04,.48-.16,.96-.15,1.44,.04,.48,.19,.83,.55,1.04,1.08l11.12,27.52,10.88-27.52c.21-.53,.55-.89,1-1.08,.45-.19,.95-.2,1.48-.04,.48,.21,.83,.56,1.04,1.04,.21,.48,.21,.96,0,1.44l-18.88,47.76c-.21,.48-.55,.81-1,1-.45,.19-.92,.2-1.4,.04Z"/><path class="d" d="M456.05,310.08c-.53,0-.99-.17-1.36-.52-.37-.35-.56-.79-.56-1.32,0-.59,.19-1.05,.56-1.4,.37-.35,.83-.52,1.36-.52,1.49,0,2.52-.31,3.08-.92,.56-.61,.84-1.67,.84-3.16v-3.04c-.11,0-.2,.01-.28,.04-.08,.03-.17,.04-.28,.04-1.33,0-2.4-.49-3.2-1.48-.8-.99-1.2-2.15-1.2-3.48s.4-2.56,1.2-3.52c.8-.96,1.87-1.44,3.2-1.44s2.39,.48,3.16,1.44c.77,.96,1.16,2.13,1.16,3.52v7.92c0,5.23-2.56,7.84-7.68,7.84Z"/><path class="d" d="M479.33,347.6c-3.04,0-5.72-.67-8.04-2-2.32-1.33-3.96-3.12-4.92-5.36-.21-.48-.21-.96,0-1.44,.21-.48,.56-.83,1.04-1.04,.48-.21,.96-.21,1.44,0,.48,.21,.83,.56,1.04,1.04,.69,1.55,1.88,2.76,3.56,3.64,1.68,.88,3.64,1.32,5.88,1.32s4.08-.23,5.36-.68c1.28-.45,2.2-1.01,2.76-1.68,.56-.67,.91-1.33,1.04-2,.13-.67,.2-1.19,.2-1.56,0-.8-.19-1.57-.56-2.32-.37-.75-1.17-1.45-2.4-2.12-1.23-.67-3.12-1.27-5.68-1.8-1.81-.37-3.69-.91-5.64-1.6-1.95-.69-3.59-1.67-4.92-2.92-1.33-1.25-2-2.89-2-4.92,.05-2.72,1.2-4.95,3.44-6.68,2.24-1.73,5.15-2.6,8.72-2.6,2.67,0,5.08,.57,7.24,1.72,2.16,1.15,3.75,2.71,4.76,4.68,.27,.43,.32,.89,.16,1.4-.16,.51-.45,.89-.88,1.16-.53,.21-1.04,.25-1.52,.12-.48-.13-.83-.44-1.04-.92-.59-1.07-1.6-2.04-3.04-2.92-1.44-.88-3.33-1.32-5.68-1.32-1.33,0-2.64,.17-3.92,.52-1.28,.35-2.33,.91-3.16,1.68-.83,.77-1.27,1.85-1.32,3.24,0,.32,.13,.81,.4,1.48,.27,.67,1.07,1.37,2.4,2.12,1.33,.75,3.57,1.44,6.72,2.08,1.87,.37,3.69,.92,5.48,1.64,1.79,.72,3.28,1.73,4.48,3.04,1.2,1.31,1.77,3.05,1.72,5.24,0,.91-.16,1.92-.48,3.04-.32,1.12-.93,2.19-1.84,3.2-.91,1.01-2.23,1.85-3.96,2.52-1.73,.67-4.01,1-6.84,1Z"/><path class="d" d="M524.29,364.4c-.53,0-.97-.19-1.32-.56-.35-.37-.52-.83-.52-1.36v-47.68c0-.53,.17-.99,.52-1.36,.35-.37,.79-.56,1.32-.56s.99,.19,1.36,.56c.37,.37,.56,.83,.56,1.36v2.96c1.17-1.49,2.6-2.68,4.28-3.56,1.68-.88,3.64-1.32,5.88-1.32,4.53,0,8.11,1.55,10.72,4.64,2.61,3.09,3.92,7.33,3.92,12.72s-1.31,9.56-3.92,12.68c-2.61,3.12-6.19,4.68-10.72,4.68-2.24,0-4.2-.43-5.88-1.28-1.68-.85-3.11-2.03-4.28-3.52v19.68c0,.53-.19,.99-.56,1.36-.37,.37-.83,.56-1.36,.56Zm12.08-20.64c3.47,0,6.15-1.17,8.04-3.52,1.89-2.35,2.84-5.68,2.84-10s-.95-7.57-2.84-9.92c-1.89-2.35-4.57-3.52-8.04-3.52-6.83,0-10.24,4.48-10.24,13.44s3.41,13.52,10.24,13.52Z"/><path class="d" d="M572.37,347.6c-4.53,0-8.11-1.56-10.72-4.68-2.61-3.12-3.92-7.35-3.92-12.68s1.31-9.63,3.92-12.72c2.61-3.09,6.19-4.64,10.72-4.64s8.04,1.55,10.68,4.64c2.64,3.09,3.96,7.33,3.96,12.72s-1.32,9.56-3.96,12.68-6.2,4.68-10.68,4.68Zm0-3.84c3.47,0,6.13-1.17,8-3.52,1.87-2.35,2.8-5.68,2.8-10s-.93-7.57-2.8-9.92c-1.87-2.35-4.53-3.52-8-3.52s-6.08,1.17-8,3.52c-1.92,2.35-2.88,5.65-2.88,9.92s.96,7.65,2.88,10c1.92,2.35,4.59,3.52,8,3.52Z"/><path class="d" d="M597.17,364.4c-.53,0-.97-.19-1.32-.56-.35-.37-.52-.83-.52-1.36v-47.68c0-.53,.17-.99,.52-1.36,.35-.37,.79-.56,1.32-.56s.99,.19,1.36,.56c.37,.37,.56,.83,.56,1.36v2.96c1.17-1.49,2.6-2.68,4.28-3.56,1.68-.88,3.64-1.32,5.88-1.32,4.53,0,8.11,1.55,10.72,4.64,2.61,3.09,3.92,7.33,3.92,12.72s-1.31,9.56-3.92,12.68c-2.61,3.12-6.19,4.68-10.72,4.68-2.24,0-4.2-.43-5.88-1.28-1.68-.85-3.11-2.03-4.28-3.52v19.68c0,.53-.19,.99-.56,1.36-.37,.37-.83,.56-1.36,.56Zm12.08-20.64c3.47,0,6.15-1.17,8.04-3.52,1.89-2.35,2.84-5.68,2.84-10s-.95-7.57-2.84-9.92c-1.89-2.35-4.57-3.52-8.04-3.52-6.83,0-10.24,4.48-10.24,13.44s3.41,13.52,10.24,13.52Z"/><path class="d" d="M644.05,347.6c-3.68,0-6.57-1.2-8.68-3.6-2.11-2.4-3.16-5.71-3.16-9.92v-19.12c0-.53,.17-.99,.52-1.36,.35-.37,.79-.56,1.32-.56s.99,.19,1.36,.56c.37,.37,.56,.83,.56,1.36v19.12c0,1.23,.19,2.6,.56,4.12,.37,1.52,1.13,2.84,2.28,3.96,1.15,1.12,2.89,1.68,5.24,1.68,3.15,0,5.59-.85,7.32-2.56,1.73-1.71,2.6-4.16,2.6-7.36v-19.04c0-.53,.19-1,.56-1.4,.37-.4,.83-.6,1.36-.6s.97,.2,1.32,.6c.35,.4,.52,.87,.52,1.4v30.88c0,.53-.17,.97-.52,1.32-.35,.35-.79,.52-1.32,.52s-.99-.17-1.36-.52c-.37-.35-.56-.79-.56-1.32v-2.48c-1.23,1.33-2.68,2.39-4.36,3.16s-3.53,1.16-5.56,1.16Z"/><path class="d" d="M675.41,347.2c-2.13,0-3.85-.63-5.16-1.88-1.31-1.25-1.96-2.92-1.96-5v-50.32c0-.53,.19-.99,.56-1.36,.37-.37,.83-.56,1.36-.56s.99,.19,1.36,.56c.37,.37,.56,.83,.56,1.36v50.32c0,.21,.04,.57,.12,1.08,.08,.51,.36,.96,.84,1.36,.48,.4,1.25,.6,2.32,.6h6.32c.53,0,.99,.19,1.36,.56,.37,.37,.56,.83,.56,1.36s-.19,.99-.56,1.36c-.37,.37-.83,.56-1.36,.56h-6.32Z"/><path class="d" d="M714.6,347.68c-.53,0-.99-.17-1.36-.52-.37-.35-.56-.79-.56-1.32v-.64l-9.84,1.92c-2.45,.48-4.53,.61-6.24,.4-1.71-.21-3.15-.75-4.32-1.6-.85-.69-1.53-1.56-2.04-2.6-.51-1.04-.81-2.23-.92-3.56-.32-3.09,.36-5.64,2.04-7.64,1.68-2,4.28-3.29,7.8-3.88l13.52-2.32v-2.24c0-1.07-.17-2.2-.52-3.4-.35-1.2-1.05-2.09-2.12-2.68-.85-.53-1.95-.8-3.28-.8-3.31,0-7.39,1.49-12.24,4.48-.48,.27-.96,.33-1.44,.2-.48-.13-.85-.41-1.12-.84-.32-.48-.41-.97-.28-1.48,.13-.51,.41-.87,.84-1.08,3.15-1.92,5.89-3.24,8.24-3.96,2.35-.72,4.35-1.08,6-1.08,1.12,0,2.09,.12,2.92,.36,.83,.24,1.53,.52,2.12,.84,1.55,.85,2.72,2.09,3.52,3.72,.8,1.63,1.2,3.53,1.2,5.72v22.16c0,.53-.17,.97-.52,1.32-.35,.35-.81,.52-1.4,.52Zm-12.4-4.4l10.48-1.92v-11.6l-12.8,2.16c-2.19,.37-3.77,.99-4.76,1.84-.99,.85-1.59,1.77-1.8,2.76-.21,.99-.29,1.93-.24,2.84,.16,1.65,.67,2.8,1.52,3.44,1.28,.96,3.81,1.12,7.6,.48Z"/><path class="d" d="M739.24,347.2c-2.19,0-3.91-.63-5.16-1.88-1.25-1.25-1.88-2.92-1.88-5v-22.48h-7.68c-.53,0-.97-.19-1.32-.56-.35-.37-.52-.83-.52-1.36s.17-.97,.52-1.32c.35-.35,.79-.52,1.32-.52h7.68v-11.76c0-.53,.17-.99,.52-1.36,.35-.37,.79-.56,1.32-.56s.99,.19,1.36,.56c.37,.37,.56,.83,.56,1.36v11.76h9.92c.53,0,.99,.17,1.36,.52,.37,.35,.56,.79,.56,1.32s-.19,.99-.56,1.36c-.37,.37-.83,.56-1.36,.56h-9.92v22.48c0,.21,.04,.57,.12,1.08,.08,.51,.36,.96,.84,1.36,.48,.4,1.25,.6,2.32,.6h6.24c.59,0,1.07,.19,1.44,.56,.37,.37,.56,.83,.56,1.36s-.19,.99-.56,1.36c-.37,.37-.85,.56-1.44,.56h-6.24Z"/><path class="d" d="M765.32,347.68c-.53,0-.97-.17-1.32-.52-.35-.35-.52-.79-.52-1.32v-27.92h-9.2c-.53,0-.99-.2-1.36-.6-.37-.4-.56-.87-.56-1.4s.19-.97,.56-1.32c.37-.35,.83-.52,1.36-.52h11.04c.59,0,1.07,.17,1.44,.52,.37,.35,.56,.79,.56,1.32v29.92c0,.53-.19,.97-.56,1.32-.37,.35-.85,.52-1.44,.52Zm-.96-48.08c-.75,0-1.36-.21-1.84-.64-.48-.43-.72-.91-.72-1.44v-4.96c0-.53,.24-1.03,.72-1.48,.48-.45,1.09-.68,1.84-.68s1.35,.23,1.8,.68c.45,.45,.68,.95,.68,1.48v4.96c0,.53-.23,1.01-.68,1.44-.45,.43-1.05,.64-1.8,.64Z"/><path class="d" d="M791.72,347.6c-4.53,0-8.11-1.56-10.72-4.68-2.61-3.12-3.92-7.35-3.92-12.68s1.31-9.63,3.92-12.72c2.61-3.09,6.19-4.64,10.72-4.64s8.04,1.55,10.68,4.64c2.64,3.09,3.96,7.33,3.96,12.72s-1.32,9.56-3.96,12.68-6.2,4.68-10.68,4.68Zm0-3.84c3.47,0,6.13-1.17,8-3.52,1.87-2.35,2.8-5.68,2.8-10s-.93-7.57-2.8-9.92c-1.87-2.35-4.53-3.52-8-3.52s-6.08,1.17-8,3.52c-1.92,2.35-2.88,5.65-2.88,9.92s.96,7.65,2.88,10c1.92,2.35,4.59,3.52,8,3.52Z"/><path class="d" d="M816.52,347.6c-.53,0-.97-.17-1.32-.52-.35-.35-.52-.79-.52-1.32v-31.04c0-.53,.17-.99,.52-1.36,.35-.37,.79-.56,1.32-.56s.99,.19,1.36,.56c.37,.37,.56,.83,.56,1.36v2.64c1.23-1.39,2.69-2.48,4.4-3.28,1.71-.8,3.55-1.2,5.52-1.2,3.68,0,6.57,1.21,8.68,3.64,2.11,2.43,3.16,5.72,3.16,9.88v19.2c0,.53-.17,.99-.52,1.36-.35,.37-.79,.56-1.32,.56s-.99-.19-1.36-.56c-.37-.37-.56-.83-.56-1.36v-19.2c0-1.23-.19-2.59-.56-4.08-.37-1.49-1.13-2.79-2.28-3.88-1.15-1.09-2.89-1.64-5.24-1.64-3.09,0-5.52,.85-7.28,2.56-1.76,1.71-2.64,4.13-2.64,7.28v19.12c0,.53-.19,.97-.56,1.32-.37,.35-.83,.52-1.36,.52Z"/><path class="d" d="M855.16,347.6c-1.33,0-2.4-.49-3.2-1.48-.8-.99-1.2-2.15-1.2-3.48s.4-2.56,1.2-3.52c.8-.96,1.87-1.44,3.2-1.44s2.47,.48,3.24,1.44c.77,.96,1.16,2.13,1.16,3.52s-.39,2.49-1.16,3.48c-.77,.99-1.85,1.48-3.24,1.48Z"/><path class="d" d="M28.41,539.6c-.53,0-1-.19-1.4-.56-.4-.37-.6-.83-.6-1.36v-23.12l-18.8-30.08c-.32-.48-.41-.99-.28-1.52,.13-.53,.41-.96,.84-1.28,.53-.27,1.07-.35,1.6-.24,.53,.11,.93,.4,1.2,.88l17.44,27.84,17.2-27.84c.32-.48,.75-.79,1.28-.92,.53-.13,1.04-.04,1.52,.28,.43,.32,.71,.75,.84,1.28,.13,.53,.04,1.04-.28,1.52l-18.56,30.08v23.12c0,.53-.19,.99-.56,1.36-.37,.37-.85,.56-1.44,.56Z"/><path class="d" d="M62.41,539.6c-4.53,0-8.11-1.56-10.72-4.68-2.61-3.12-3.92-7.35-3.92-12.68s1.31-9.63,3.92-12.72c2.61-3.09,6.19-4.64,10.72-4.64s8.04,1.55,10.68,4.64c2.64,3.09,3.96,7.33,3.96,12.72s-1.32,9.56-3.96,12.68-6.2,4.68-10.68,4.68Zm0-3.84c3.47,0,6.13-1.17,8-3.52,1.87-2.35,2.8-5.68,2.8-10s-.93-7.57-2.8-9.92c-1.87-2.35-4.53-3.52-8-3.52s-6.08,1.17-8,3.52c-1.92,2.35-2.88,5.65-2.88,9.92s.96,7.65,2.88,10c1.92,2.35,4.59,3.52,8,3.52Z"/><path class="d" d="M97.21,539.6c-3.68,0-6.57-1.2-8.68-3.6-2.11-2.4-3.16-5.71-3.16-9.92v-19.12c0-.53,.17-.99,.52-1.36,.35-.37,.79-.56,1.32-.56s.99,.19,1.36,.56c.37,.37,.56,.83,.56,1.36v19.12c0,1.23,.19,2.6,.56,4.12,.37,1.52,1.13,2.84,2.28,3.96,1.15,1.12,2.89,1.68,5.24,1.68,3.15,0,5.59-.85,7.32-2.56,1.73-1.71,2.6-4.16,2.6-7.36v-19.04c0-.53,.19-1,.56-1.4,.37-.4,.83-.6,1.36-.6s.97,.2,1.32,.6c.35,.4,.52,.87,.52,1.4v30.88c0,.53-.17,.97-.52,1.32-.35,.35-.79,.52-1.32,.52s-.99-.17-1.36-.52c-.37-.35-.56-.79-.56-1.32v-2.48c-1.23,1.33-2.68,2.39-4.36,3.16s-3.53,1.16-5.56,1.16Z"/><path class="d" d="M144.97,539.68c-.53,0-.99-.17-1.36-.52-.37-.35-.56-.79-.56-1.32v-55.92c0-.53,.19-.99,.56-1.36,.37-.37,.83-.56,1.36-.56s.99,.19,1.36,.56c.37,.37,.56,.83,.56,1.36v27.36c1.23-1.39,2.69-2.47,4.4-3.24,1.71-.77,3.55-1.16,5.52-1.16,3.68,0,6.57,1.21,8.68,3.64,2.11,2.43,3.16,5.69,3.16,9.8v19.44c0,.53-.17,.97-.52,1.32-.35,.35-.79,.52-1.32,.52s-.99-.17-1.36-.52c-.37-.35-.56-.79-.56-1.32v-19.44c0-1.23-.19-2.59-.56-4.08-.37-1.49-1.13-2.79-2.28-3.88-1.15-1.09-2.89-1.64-5.24-1.64-2.77,0-5.12,.85-7.04,2.56-1.92,1.71-2.88,4.13-2.88,7.28v19.28c0,.53-.19,.97-.56,1.32-.37,.35-.83,.52-1.36,.52Z"/><path class="d" d="M202.57,539.68c-.53,0-.99-.17-1.36-.52-.37-.35-.56-.79-.56-1.32v-.64l-9.84,1.92c-2.45,.48-4.53,.61-6.24,.4-1.71-.21-3.15-.75-4.32-1.6-.85-.69-1.53-1.56-2.04-2.6-.51-1.04-.81-2.23-.92-3.56-.32-3.09,.36-5.64,2.04-7.64,1.68-2,4.28-3.29,7.8-3.88l13.52-2.32v-2.24c0-1.07-.17-2.2-.52-3.4-.35-1.2-1.05-2.09-2.12-2.68-.85-.53-1.95-.8-3.28-.8-3.31,0-7.39,1.49-12.24,4.48-.48,.27-.96,.33-1.44,.2-.48-.13-.85-.41-1.12-.84-.32-.48-.41-.97-.28-1.48,.13-.51,.41-.87,.84-1.08,3.15-1.92,5.89-3.24,8.24-3.96,2.35-.72,4.35-1.08,6-1.08,1.12,0,2.09,.12,2.92,.36,.83,.24,1.53,.52,2.12,.84,1.55,.85,2.72,2.09,3.52,3.72,.8,1.63,1.2,3.53,1.2,5.72v22.16c0,.53-.17,.97-.52,1.32-.35,.35-.81,.52-1.4,.52Zm-12.4-4.4l10.48-1.92v-11.6l-12.8,2.16c-2.19,.37-3.77,.99-4.76,1.84-.99,.85-1.59,1.77-1.8,2.76-.21,.99-.29,1.93-.24,2.84,.16,1.65,.67,2.8,1.52,3.44,1.28,.96,3.81,1.12,7.6,.48Z"/><path class="d" d="M224.65,539.6c-.85,0-1.44-.4-1.76-1.2l-12.4-30.8c-.21-.48-.21-.96,0-1.44,.21-.48,.56-.83,1.04-1.04,.48-.16,.96-.15,1.44,.04,.48,.19,.83,.52,1.04,1l10.64,26.48,10.8-26.48c.21-.53,.56-.89,1.04-1.08,.48-.19,.96-.2,1.44-.04,.43,.21,.76,.56,1,1.04s.23,.96-.04,1.44l-12.4,30.88c-.32,.8-.93,1.2-1.84,1.2Z"/><path class="d" d="M257.93,539.6c-4.53,0-8.11-1.56-10.72-4.68-2.61-3.12-3.92-7.35-3.92-12.68s1.31-9.63,3.92-12.72c2.61-3.09,6.19-4.64,10.72-4.64,3.95,0,7.27,1.36,9.96,4.08,2.69,2.72,4.15,6.4,4.36,11.04v.24c0,.48-.19,.91-.56,1.28-.32,.37-.77,.56-1.36,.56h-23.2c0,4.11,.87,7.41,2.6,9.92,1.73,2.51,4.47,3.76,8.2,3.76,1.92,0,3.72-.41,5.4-1.24,1.68-.83,2.97-1.91,3.88-3.24,.32-.43,.73-.69,1.24-.8,.51-.11,.97,0,1.4,.32,.43,.27,.69,.67,.8,1.2,.11,.53,0,1.01-.32,1.44-1.28,1.87-3.03,3.36-5.24,4.48-2.21,1.12-4.6,1.68-7.16,1.68Zm-10.56-21.28h20.72c-.53-3.04-1.69-5.39-3.48-7.04-1.79-1.65-4.01-2.48-6.68-2.48-2.88,0-5.21,.83-7,2.48-1.79,1.65-2.97,4-3.56,7.04Z"/><path class="d" d="M304.73,539.68c-.53,0-.97-.19-1.32-.56-.35-.37-.52-.8-.52-1.28v-30.96c0-.48,.17-.92,.52-1.32,.35-.4,.79-.6,1.32-.6s.99,.2,1.36,.6c.37,.4,.56,.84,.56,1.32v2.16c1.17-1.23,2.53-2.21,4.08-2.96,1.55-.75,3.2-1.12,4.96-1.12,2.19,0,4.11,.52,5.76,1.56,1.65,1.04,2.93,2.49,3.84,4.36,1.12-1.76,2.59-3.19,4.4-4.28,1.81-1.09,3.84-1.64,6.08-1.64,3.41,0,6.12,1.23,8.12,3.68,2,2.45,3,5.73,3,9.84v19.28c0,.48-.17,.91-.52,1.28-.35,.37-.79,.56-1.32,.56s-.99-.19-1.36-.56c-.37-.37-.56-.8-.56-1.28v-19.28c0-.75-.08-1.65-.24-2.72-.16-1.07-.48-2.13-.96-3.2-.48-1.07-1.21-1.96-2.2-2.68-.99-.72-2.31-1.08-3.96-1.08-2.61,0-4.75,.92-6.4,2.76-1.65,1.84-2.48,4.15-2.48,6.92v19.28c0,.48-.17,.91-.52,1.28-.35,.37-.79,.56-1.32,.56s-1-.19-1.4-.56c-.4-.37-.6-.8-.6-1.28v-19.12c0-1.71-.25-3.31-.76-4.8-.51-1.49-1.29-2.71-2.36-3.64-1.07-.93-2.48-1.4-4.24-1.4-2.4,0-4.51,.73-6.32,2.2-1.81,1.47-2.72,3.37-2.72,5.72v21.12c0,.48-.19,.91-.56,1.28-.37,.37-.83,.56-1.36,.56Z"/><path class="d" d="M366.01,539.68c-.53,0-.97-.17-1.32-.52-.35-.35-.52-.79-.52-1.32v-27.92h-9.2c-.53,0-.99-.2-1.36-.6-.37-.4-.56-.87-.56-1.4s.19-.97,.56-1.32c.37-.35,.83-.52,1.36-.52h11.04c.59,0,1.07,.17,1.44,.52,.37,.35,.56,.79,.56,1.32v29.92c0,.53-.19,.97-.56,1.32-.37,.35-.85,.52-1.44,.52Zm-.96-48.08c-.75,0-1.36-.21-1.84-.64-.48-.43-.72-.91-.72-1.44v-4.96c0-.53,.24-1.03,.72-1.48,.48-.45,1.09-.68,1.84-.68s1.35,.23,1.8,.68c.45,.45,.68,.95,.68,1.48v4.96c0,.53-.23,1.01-.68,1.44-.45,.43-1.05,.64-1.8,.64Z"/><path class="d" d="M380.41,539.6c-.53,0-.97-.17-1.32-.52-.35-.35-.52-.79-.52-1.32v-31.04c0-.53,.17-.99,.52-1.36,.35-.37,.79-.56,1.32-.56s.99,.19,1.36,.56c.37,.37,.56,.83,.56,1.36v2.64c1.23-1.39,2.69-2.48,4.4-3.28,1.71-.8,3.55-1.2,5.52-1.2,3.68,0,6.57,1.21,8.68,3.64,2.11,2.43,3.16,5.72,3.16,9.88v19.2c0,.53-.17,.99-.52,1.36-.35,.37-.79,.56-1.32,.56s-.99-.19-1.36-.56c-.37-.37-.56-.83-.56-1.36v-19.2c0-1.23-.19-2.59-.56-4.08-.37-1.49-1.13-2.79-2.28-3.88-1.15-1.09-2.89-1.64-5.24-1.64-3.09,0-5.52,.85-7.28,2.56-1.76,1.71-2.64,4.13-2.64,7.28v19.12c0,.53-.19,.97-.56,1.32-.37,.35-.83,.52-1.36,.52Z"/><path class="d" d="M423.21,539.68c-.53,0-.97-.17-1.32-.52-.35-.35-.52-.79-.52-1.32v-27.92h-9.2c-.53,0-.99-.2-1.36-.6-.37-.4-.56-.87-.56-1.4s.19-.97,.56-1.32c.37-.35,.83-.52,1.36-.52h11.04c.59,0,1.07,.17,1.44,.52,.37,.35,.56,.79,.56,1.32v29.92c0,.53-.19,.97-.56,1.32-.37,.35-.85,.52-1.44,.52Zm-.96-48.08c-.75,0-1.36-.21-1.84-.64-.48-.43-.72-.91-.72-1.44v-4.96c0-.53,.24-1.03,.72-1.48,.48-.45,1.09-.68,1.84-.68s1.35,.23,1.8,.68c.45,.45,.68,.95,.68,1.48v4.96c0,.53-.23,1.01-.68,1.44-.45,.43-1.05,.64-1.8,.64Z"/><path class="d" d="M449.61,539.6c-4.53,0-8.11-1.56-10.72-4.68-2.61-3.12-3.92-7.35-3.92-12.68s1.31-9.63,3.92-12.72c2.61-3.09,6.19-4.64,10.72-4.64s8.04,1.55,10.68,4.64c2.64,3.09,3.96,7.33,3.96,12.72s-1.32,9.56-3.96,12.68-6.2,4.68-10.68,4.68Zm0-3.84c3.47,0,6.13-1.17,8-3.52,1.87-2.35,2.8-5.68,2.8-10s-.93-7.57-2.8-9.92c-1.87-2.35-4.53-3.52-8-3.52s-6.08,1.17-8,3.52c-1.92,2.35-2.88,5.65-2.88,9.92s.96,7.65,2.88,10c1.92,2.35,4.59,3.52,8,3.52Z"/><path class="d" d="M474.41,539.6c-.53,0-.97-.17-1.32-.52-.35-.35-.52-.79-.52-1.32v-31.04c0-.53,.17-.99,.52-1.36,.35-.37,.79-.56,1.32-.56s.99,.19,1.36,.56c.37,.37,.56,.83,.56,1.36v2.64c1.23-1.39,2.69-2.48,4.4-3.28,1.71-.8,3.55-1.2,5.52-1.2,3.68,0,6.57,1.21,8.68,3.64,2.11,2.43,3.16,5.72,3.16,9.88v19.2c0,.53-.17,.99-.52,1.36-.35,.37-.79,.56-1.32,.56s-.99-.19-1.36-.56c-.37-.37-.56-.83-.56-1.36v-19.2c0-1.23-.19-2.59-.56-4.08-.37-1.49-1.13-2.79-2.28-3.88-1.15-1.09-2.89-1.64-5.24-1.64-3.09,0-5.52,.85-7.28,2.56-1.76,1.71-2.64,4.13-2.64,7.28v19.12c0,.53-.19,.97-.56,1.32-.37,.35-.83,.52-1.36,.52Z"/><path class="d" d="M519.37,539.6c-3.04,0-5.72-.67-8.04-2-2.32-1.33-3.96-3.12-4.92-5.36-.21-.48-.21-.96,0-1.44,.21-.48,.56-.83,1.04-1.04,.48-.21,.96-.21,1.44,0,.48,.21,.83,.56,1.04,1.04,.69,1.55,1.88,2.76,3.56,3.64,1.68,.88,3.64,1.32,5.88,1.32s4.08-.23,5.36-.68c1.28-.45,2.2-1.01,2.76-1.68,.56-.67,.91-1.33,1.04-2,.13-.67,.2-1.19,.2-1.56,0-.8-.19-1.57-.56-2.32-.37-.75-1.17-1.45-2.4-2.12-1.23-.67-3.12-1.27-5.68-1.8-1.81-.37-3.69-.91-5.64-1.6-1.95-.69-3.59-1.67-4.92-2.92-1.33-1.25-2-2.89-2-4.92,.05-2.72,1.2-4.95,3.44-6.68,2.24-1.73,5.15-2.6,8.72-2.6,2.67,0,5.08,.57,7.24,1.72,2.16,1.15,3.75,2.71,4.76,4.68,.27,.43,.32,.89,.16,1.4-.16,.51-.45,.89-.88,1.16-.53,.21-1.04,.25-1.52,.12-.48-.13-.83-.44-1.04-.92-.59-1.07-1.6-2.04-3.04-2.92-1.44-.88-3.33-1.32-5.68-1.32-1.33,0-2.64,.17-3.92,.52-1.28,.35-2.33,.91-3.16,1.68-.83,.77-1.27,1.85-1.32,3.24,0,.32,.13,.81,.4,1.48,.27,.67,1.07,1.37,2.4,2.12,1.33,.75,3.57,1.44,6.72,2.08,1.87,.37,3.69,.92,5.48,1.64,1.79,.72,3.28,1.73,4.48,3.04,1.2,1.31,1.77,3.05,1.72,5.24,0,.91-.16,1.92-.48,3.04-.32,1.12-.93,2.19-1.84,3.2-.91,1.01-2.23,1.85-3.96,2.52-1.73,.67-4.01,1-6.84,1Z"/><path class="d" d="M542.65,550.4c-.53,0-.99-.17-1.36-.52-.37-.35-.56-.79-.56-1.32,0-.59,.19-1.05,.56-1.4,.37-.35,.83-.52,1.36-.52,1.49,0,2.52-.31,3.08-.92,.56-.61,.84-1.67,.84-3.16v-3.04c-.11,0-.2,.01-.28,.04-.08,.03-.17,.04-.28,.04-1.33,0-2.4-.49-3.2-1.48-.8-.99-1.2-2.15-1.2-3.48s.4-2.56,1.2-3.52c.8-.96,1.87-1.44,3.2-1.44s2.39,.48,3.16,1.44c.77,.96,1.16,2.13,1.16,3.52v7.92c0,5.23-2.56,7.84-7.68,7.84Z"/><path class="d" d="M596.16,539.2c-2.19,0-3.91-.63-5.16-1.88-1.25-1.25-1.88-2.92-1.88-5v-22.48h-7.68c-.53,0-.97-.19-1.32-.56-.35-.37-.52-.83-.52-1.36s.17-.97,.52-1.32c.35-.35,.79-.52,1.32-.52h7.68v-11.76c0-.53,.17-.99,.52-1.36,.35-.37,.79-.56,1.32-.56s.99,.19,1.36,.56c.37,.37,.56,.83,.56,1.36v11.76h9.92c.53,0,.99,.17,1.36,.52,.37,.35,.56,.79,.56,1.32s-.19,.99-.56,1.36c-.37,.37-.83,.56-1.36,.56h-9.92v22.48c0,.21,.04,.57,.12,1.08,.08,.51,.36,.96,.84,1.36,.48,.4,1.25,.6,2.32,.6h6.24c.59,0,1.07,.19,1.44,.56,.37,.37,.56,.83,.56,1.36s-.19,.99-.56,1.36c-.37,.37-.85,.56-1.44,.56h-6.24Z"/><path class="d" d="M615.6,539.68c-.53,0-.99-.17-1.36-.52-.37-.35-.56-.79-.56-1.32v-55.92c0-.53,.19-.99,.56-1.36,.37-.37,.83-.56,1.36-.56s.99,.19,1.36,.56c.37,.37,.56,.83,.56,1.36v27.36c1.23-1.39,2.69-2.47,4.4-3.24,1.71-.77,3.55-1.16,5.52-1.16,3.68,0,6.57,1.21,8.68,3.64,2.11,2.43,3.16,5.69,3.16,9.8v19.44c0,.53-.17,.97-.52,1.32-.35,.35-.79,.52-1.32,.52s-.99-.17-1.36-.52c-.37-.35-.56-.79-.56-1.32v-19.44c0-1.23-.19-2.59-.56-4.08-.37-1.49-1.13-2.79-2.28-3.88-1.15-1.09-2.89-1.64-5.24-1.64-2.77,0-5.12,.85-7.04,2.56-1.92,1.71-2.88,4.13-2.88,7.28v19.28c0,.53-.19,.97-.56,1.32-.37,.35-.83,.52-1.36,.52Z"/><path class="d" d="M662.24,539.6c-4.53,0-8.11-1.56-10.72-4.68-2.61-3.12-3.92-7.35-3.92-12.68s1.31-9.63,3.92-12.72c2.61-3.09,6.19-4.64,10.72-4.64,3.95,0,7.27,1.36,9.96,4.08,2.69,2.72,4.15,6.4,4.36,11.04v.24c0,.48-.19,.91-.56,1.28-.32,.37-.77,.56-1.36,.56h-23.2c0,4.11,.87,7.41,2.6,9.92,1.73,2.51,4.47,3.76,8.2,3.76,1.92,0,3.72-.41,5.4-1.24,1.68-.83,2.97-1.91,3.88-3.24,.32-.43,.73-.69,1.24-.8,.51-.11,.97,0,1.4,.32,.43,.27,.69,.67,.8,1.2,.11,.53,0,1.01-.32,1.44-1.28,1.87-3.03,3.36-5.24,4.48-2.21,1.12-4.6,1.68-7.16,1.68Zm-10.56-21.28h20.72c-.53-3.04-1.69-5.39-3.48-7.04-1.79-1.65-4.01-2.48-6.68-2.48-2.88,0-5.21,.83-7,2.48-1.79,1.65-2.97,4-3.56,7.04Z"/><path class="d" d="M719.04,539.6c-3.68,0-6.57-1.2-8.68-3.6-2.11-2.4-3.16-5.71-3.16-9.92v-19.12c0-.53,.17-.99,.52-1.36,.35-.37,.79-.56,1.32-.56s.99,.19,1.36,.56c.37,.37,.56,.83,.56,1.36v19.12c0,1.23,.19,2.6,.56,4.12,.37,1.52,1.13,2.84,2.28,3.96,1.15,1.12,2.89,1.68,5.24,1.68,3.15,0,5.59-.85,7.32-2.56,1.73-1.71,2.6-4.16,2.6-7.36v-19.04c0-.53,.19-1,.56-1.4,.37-.4,.83-.6,1.36-.6s.97,.2,1.32,.6c.35,.4,.52,.87,.52,1.4v30.88c0,.53-.17,.97-.52,1.32-.35,.35-.79,.52-1.32,.52s-.99-.17-1.36-.52c-.37-.35-.56-.79-.56-1.32v-2.48c-1.23,1.33-2.68,2.39-4.36,3.16s-3.53,1.16-5.56,1.16Z"/><path class="d" d="M743.68,539.6c-.53,0-.97-.17-1.32-.52-.35-.35-.52-.79-.52-1.32v-31.04c0-.53,.17-.99,.52-1.36,.35-.37,.79-.56,1.32-.56s.99,.19,1.36,.56c.37,.37,.56,.83,.56,1.36v2.64c1.23-1.39,2.69-2.48,4.4-3.28,1.71-.8,3.55-1.2,5.52-1.2,3.68,0,6.57,1.21,8.68,3.64,2.11,2.43,3.16,5.72,3.16,9.88v19.2c0,.53-.17,.99-.52,1.36-.35,.37-.79,.56-1.32,.56s-.99-.19-1.36-.56c-.37-.37-.56-.83-.56-1.36v-19.2c0-1.23-.19-2.59-.56-4.08-.37-1.49-1.13-2.79-2.28-3.88-1.15-1.09-2.89-1.64-5.24-1.64-3.09,0-5.52,.85-7.28,2.56-1.76,1.71-2.64,4.13-2.64,7.28v19.12c0,.53-.19,.97-.56,1.32-.37,.35-.83,.52-1.36,.52Z"/><path class="d" d="M802.72,539.68c-.53,0-.97-.17-1.32-.52-.35-.35-.52-.79-.52-1.32v-3.36c-1.23,1.55-2.72,2.79-4.48,3.72-1.76,.93-3.79,1.4-6.08,1.4-4.53,0-8.11-1.56-10.72-4.68-2.61-3.12-3.92-7.35-3.92-12.68s1.31-9.63,3.92-12.72c2.61-3.09,6.19-4.64,10.72-4.64,2.29,0,4.32,.48,6.08,1.44,1.76,.96,3.25,2.21,4.48,3.76v-28.08c0-.53,.17-.99,.52-1.36,.35-.37,.79-.56,1.32-.56s.99,.19,1.36,.56c.37,.37,.56,.83,.56,1.36v55.84c0,.53-.19,.97-.56,1.32-.37,.35-.83,.52-1.36,.52Zm-12.4-3.92c3.41,0,6.03-1.17,7.84-3.52,1.81-2.35,2.72-5.68,2.72-10s-.91-7.57-2.72-9.92c-1.81-2.35-4.43-3.52-7.84-3.52s-6.08,1.17-8,3.52c-1.92,2.35-2.88,5.65-2.88,9.92s.96,7.65,2.88,10c1.92,2.35,4.59,3.52,8,3.52Z"/><path class="d" d="M829.04,539.6c-4.53,0-8.11-1.56-10.72-4.68-2.61-3.12-3.92-7.35-3.92-12.68s1.31-9.63,3.92-12.72c2.61-3.09,6.19-4.64,10.72-4.64,3.95,0,7.27,1.36,9.96,4.08,2.69,2.72,4.15,6.4,4.36,11.04v.24c0,.48-.19,.91-.56,1.28-.32,.37-.77,.56-1.36,.56h-23.2c0,4.11,.87,7.41,2.6,9.92,1.73,2.51,4.47,3.76,8.2,3.76,1.92,0,3.72-.41,5.4-1.24,1.68-.83,2.97-1.91,3.88-3.24,.32-.43,.73-.69,1.24-.8,.51-.11,.97,0,1.4,.32,.43,.27,.69,.67,.8,1.2,.11,.53,0,1.01-.32,1.44-1.28,1.87-3.03,3.36-5.24,4.48-2.21,1.12-4.6,1.68-7.16,1.68Zm-10.56-21.28h20.72c-.53-3.04-1.69-5.39-3.48-7.04-1.79-1.65-4.01-2.48-6.68-2.48-2.88,0-5.21,.83-7,2.48-1.79,1.65-2.97,4-3.56,7.04Z"/><path class="d" d="M877.2,539.68c-.53,0-.99-.17-1.36-.52-.37-.35-.56-.79-.56-1.32v-.64l-9.84,1.92c-2.45,.48-4.53,.61-6.24,.4-1.71-.21-3.15-.75-4.32-1.6-.85-.69-1.53-1.56-2.04-2.6-.51-1.04-.81-2.23-.92-3.56-.32-3.09,.36-5.64,2.04-7.64,1.68-2,4.28-3.29,7.8-3.88l13.52-2.32v-2.24c0-1.07-.17-2.2-.52-3.4-.35-1.2-1.05-2.09-2.12-2.68-.85-.53-1.95-.8-3.28-.8-3.31,0-7.39,1.49-12.24,4.48-.48,.27-.96,.33-1.44,.2-.48-.13-.85-.41-1.12-.84-.32-.48-.41-.97-.28-1.48,.13-.51,.41-.87,.84-1.08,3.15-1.92,5.89-3.24,8.24-3.96,2.35-.72,4.35-1.08,6-1.08,1.12,0,2.09,.12,2.92,.36,.83,.24,1.53,.52,2.12,.84,1.55,.85,2.72,2.09,3.52,3.72,.8,1.63,1.2,3.53,1.2,5.72v22.16c0,.53-.17,.97-.52,1.32-.35,.35-.81,.52-1.4,.52Zm-12.4-4.4l10.48-1.92v-11.6l-12.8,2.16c-2.19,.37-3.77,.99-4.76,1.84-.99,.85-1.59,1.77-1.8,2.76-.21,.99-.29,1.93-.24,2.84,.16,1.65,.67,2.8,1.52,3.44,1.28,.96,3.81,1.12,7.6,.48Z"/><path class="d" d="M914.48,539.68c-.53,0-.97-.17-1.32-.52-.35-.35-.52-.79-.52-1.32v-3.36c-1.23,1.55-2.72,2.79-4.48,3.72-1.76,.93-3.79,1.4-6.08,1.4-4.53,0-8.11-1.56-10.72-4.68-2.61-3.12-3.92-7.35-3.92-12.68s1.31-9.63,3.92-12.72c2.61-3.09,6.19-4.64,10.72-4.64,2.29,0,4.32,.48,6.08,1.44,1.76,.96,3.25,2.21,4.48,3.76v-28.08c0-.53,.17-.99,.52-1.36,.35-.37,.79-.56,1.32-.56s.99,.19,1.36,.56c.37,.37,.56,.83,.56,1.36v55.84c0,.53-.19,.97-.56,1.32-.37,.35-.83,.52-1.36,.52Zm-12.4-3.92c3.41,0,6.03-1.17,7.84-3.52,1.81-2.35,2.72-5.68,2.72-10s-.91-7.57-2.72-9.92c-1.81-2.35-4.43-3.52-7.84-3.52s-6.08,1.17-8,3.52c-1.92,2.35-2.88,5.65-2.88,9.92s.96,7.65,2.88,10c1.92,2.35,4.59,3.52,8,3.52Z"/><path class="d" d="M930.32,550.4c-.53,0-.99-.17-1.36-.52-.37-.35-.56-.79-.56-1.32,0-.59,.19-1.05,.56-1.4,.37-.35,.83-.52,1.36-.52,1.49,0,2.52-.31,3.08-.92,.56-.61,.84-1.67,.84-3.16v-3.04c-.11,0-.2,.01-.28,.04-.08,.03-.17,.04-.28,.04-1.33,0-2.4-.49-3.2-1.48-.8-.99-1.2-2.15-1.2-3.48s.4-2.56,1.2-3.52c.8-.96,1.87-1.44,3.2-1.44s2.39,.48,3.16,1.44c.77,.96,1.16,2.13,1.16,3.52v7.92c0,5.23-2.56,7.84-7.68,7.84Z"/><path class="d" d="M7.61,635.6c-.96-.11-1.52-.61-1.68-1.52L.01,603.12c-.05-.53,.05-1.03,.32-1.48,.27-.45,.67-.73,1.2-.84,.53-.05,1.01,.07,1.44,.36,.43,.29,.69,.68,.8,1.16l4.8,25.2,7.92-17.2c.37-.75,.96-1.12,1.76-1.12s1.39,.37,1.76,1.12l7.92,17.2,4.72-25.04c.11-.53,.37-.95,.8-1.24,.43-.29,.91-.39,1.44-.28,.53,.05,.95,.31,1.24,.76,.29,.45,.39,.95,.28,1.48l-5.92,30.88c-.16,.91-.69,1.41-1.6,1.52-.96,.11-1.63-.27-2-1.12l-8.64-18.8-8.72,18.8c-.37,.85-1.01,1.23-1.92,1.12Z"/><path class="d" d="M47.37,635.68c-.53,0-.99-.17-1.36-.52-.37-.35-.56-.79-.56-1.32v-55.92c0-.53,.19-.99,.56-1.36,.37-.37,.83-.56,1.36-.56s.99,.19,1.36,.56c.37,.37,.56,.83,.56,1.36v27.36c1.23-1.39,2.69-2.47,4.4-3.24,1.71-.77,3.55-1.16,5.52-1.16,3.68,0,6.57,1.21,8.68,3.64,2.11,2.43,3.16,5.69,3.16,9.8v19.44c0,.53-.17,.97-.52,1.32-.35,.35-.79,.52-1.32,.52s-.99-.17-1.36-.52c-.37-.35-.56-.79-.56-1.32v-19.44c0-1.23-.19-2.59-.56-4.08-.37-1.49-1.13-2.79-2.28-3.88-1.15-1.09-2.89-1.64-5.24-1.64-2.77,0-5.12,.85-7.04,2.56-1.92,1.71-2.88,4.13-2.88,7.28v19.28c0,.53-.19,.97-.56,1.32-.37,.35-.83,.52-1.36,.52Z"/><path class="d" d="M94.01,635.6c-4.53,0-8.11-1.56-10.72-4.68-2.61-3.12-3.92-7.35-3.92-12.68s1.31-9.63,3.92-12.72c2.61-3.09,6.19-4.64,10.72-4.64s8.04,1.55,10.68,4.64c2.64,3.09,3.96,7.33,3.96,12.72s-1.32,9.56-3.96,12.68-6.2,4.68-10.68,4.68Zm0-3.84c3.47,0,6.13-1.17,8-3.52,1.87-2.35,2.8-5.68,2.8-10s-.93-7.57-2.8-9.92c-1.87-2.35-4.53-3.52-8-3.52s-6.08,1.17-8,3.52c-1.92,2.35-2.88,5.65-2.88,9.92s.96,7.65,2.88,10c1.92,2.35,4.59,3.52,8,3.52Z"/><path class="d" d="M163.37,635.68c-.53,0-.99-.17-1.36-.52-.37-.35-.56-.79-.56-1.32v-.64l-9.84,1.92c-2.45,.48-4.53,.61-6.24,.4-1.71-.21-3.15-.75-4.32-1.6-.85-.69-1.53-1.56-2.04-2.6-.51-1.04-.81-2.23-.92-3.56-.32-3.09,.36-5.64,2.04-7.64,1.68-2,4.28-3.29,7.8-3.88l13.52-2.32v-2.24c0-1.07-.17-2.2-.52-3.4-.35-1.2-1.05-2.09-2.12-2.68-.85-.53-1.95-.8-3.28-.8-3.31,0-7.39,1.49-12.24,4.48-.48,.27-.96,.33-1.44,.2-.48-.13-.85-.41-1.12-.84-.32-.48-.41-.97-.28-1.48,.13-.51,.41-.87,.84-1.08,3.15-1.92,5.89-3.24,8.24-3.96,2.35-.72,4.35-1.08,6-1.08,1.12,0,2.09,.12,2.92,.36,.83,.24,1.53,.52,2.12,.84,1.55,.85,2.72,2.09,3.52,3.72,.8,1.63,1.2,3.53,1.2,5.72v22.16c0,.53-.17,.97-.52,1.32-.35,.35-.81,.52-1.4,.52Zm-12.4-4.4l10.48-1.92v-11.6l-12.8,2.16c-2.19,.37-3.77,.99-4.76,1.84-.99,.85-1.59,1.77-1.8,2.76-.21,.99-.29,1.93-.24,2.84,.16,1.65,.67,2.8,1.52,3.44,1.28,.96,3.81,1.12,7.6,.48Z"/><path class="d" d="M188.25,635.6c-4.53,0-8.11-1.56-10.72-4.68-2.61-3.12-3.92-7.35-3.92-12.68s1.31-9.63,3.92-12.72c2.61-3.09,6.19-4.64,10.72-4.64s7.95,1.52,10.56,4.56c.37,.37,.55,.83,.52,1.36-.03,.53-.25,.99-.68,1.36-.37,.32-.83,.47-1.36,.44-.53-.03-.99-.23-1.36-.6-1.81-2.13-4.37-3.2-7.68-3.2s-6.08,1.17-8,3.52c-1.92,2.35-2.88,5.65-2.88,9.92s.96,7.65,2.88,10c1.92,2.35,4.59,3.52,8,3.52s5.92-1.04,7.68-3.12c.37-.43,.83-.67,1.36-.72,.53-.05,.99,.11,1.36,.48,.43,.32,.65,.75,.68,1.28,.03,.53-.15,1.01-.52,1.44-2.67,2.99-6.19,4.48-10.56,4.48Z"/><path class="d" d="M220.01,635.2c-2.19,0-3.91-.63-5.16-1.88-1.25-1.25-1.88-2.92-1.88-5v-22.48h-7.68c-.53,0-.97-.19-1.32-.56-.35-.37-.52-.83-.52-1.36s.17-.97,.52-1.32c.35-.35,.79-.52,1.32-.52h7.68v-11.76c0-.53,.17-.99,.52-1.36,.35-.37,.79-.56,1.32-.56s.99,.19,1.36,.56c.37,.37,.56,.83,.56,1.36v11.76h9.92c.53,0,.99,.17,1.36,.52,.37,.35,.56,.79,.56,1.32s-.19,.99-.56,1.36c-.37,.37-.83,.56-1.36,.56h-9.92v22.48c0,.21,.04,.57,.12,1.08,.08,.51,.36,.96,.84,1.36,.48,.4,1.25,.6,2.32,.6h6.24c.59,0,1.07,.19,1.44,.56,.37,.37,.56,.83,.56,1.36s-.19,.99-.56,1.36c-.37,.37-.85,.56-1.44,.56h-6.24Z"/><path class="d" d="M282.49,635.68c-.53,0-.99-.17-1.36-.52-.37-.35-.56-.79-.56-1.32v-.64l-9.84,1.92c-2.45,.48-4.53,.61-6.24,.4-1.71-.21-3.15-.75-4.32-1.6-.85-.69-1.53-1.56-2.04-2.6-.51-1.04-.81-2.23-.92-3.56-.32-3.09,.36-5.64,2.04-7.64,1.68-2,4.28-3.29,7.8-3.88l13.52-2.32v-2.24c0-1.07-.17-2.2-.52-3.4-.35-1.2-1.05-2.09-2.12-2.68-.85-.53-1.95-.8-3.28-.8-3.31,0-7.39,1.49-12.24,4.48-.48,.27-.96,.33-1.44,.2-.48-.13-.85-.41-1.12-.84-.32-.48-.41-.97-.28-1.48,.13-.51,.41-.87,.84-1.08,3.15-1.92,5.89-3.24,8.24-3.96,2.35-.72,4.35-1.08,6-1.08,1.12,0,2.09,.12,2.92,.36,.83,.24,1.53,.52,2.12,.84,1.55,.85,2.72,2.09,3.52,3.72,.8,1.63,1.2,3.53,1.2,5.72v22.16c0,.53-.17,.97-.52,1.32-.35,.35-.81,.52-1.4,.52Zm-12.4-4.4l10.48-1.92v-11.6l-12.8,2.16c-2.19,.37-3.77,.99-4.76,1.84-.99,.85-1.59,1.77-1.8,2.76-.21,.99-.29,1.93-.24,2.84,.16,1.65,.67,2.8,1.52,3.44,1.28,.96,3.81,1.12,7.6,.48Z"/><path class="d" d="M305.69,635.6c-3.04,0-5.72-.67-8.04-2-2.32-1.33-3.96-3.12-4.92-5.36-.21-.48-.21-.96,0-1.44,.21-.48,.56-.83,1.04-1.04,.48-.21,.96-.21,1.44,0,.48,.21,.83,.56,1.04,1.04,.69,1.55,1.88,2.76,3.56,3.64,1.68,.88,3.64,1.32,5.88,1.32s4.08-.23,5.36-.68c1.28-.45,2.2-1.01,2.76-1.68,.56-.67,.91-1.33,1.04-2,.13-.67,.2-1.19,.2-1.56,0-.8-.19-1.57-.56-2.32-.37-.75-1.17-1.45-2.4-2.12-1.23-.67-3.12-1.27-5.68-1.8-1.81-.37-3.69-.91-5.64-1.6-1.95-.69-3.59-1.67-4.92-2.92-1.33-1.25-2-2.89-2-4.92,.05-2.72,1.2-4.95,3.44-6.68,2.24-1.73,5.15-2.6,8.72-2.6,2.67,0,5.08,.57,7.24,1.72,2.16,1.15,3.75,2.71,4.76,4.68,.27,.43,.32,.89,.16,1.4-.16,.51-.45,.89-.88,1.16-.53,.21-1.04,.25-1.52,.12-.48-.13-.83-.44-1.04-.92-.59-1.07-1.6-2.04-3.04-2.92-1.44-.88-3.33-1.32-5.68-1.32-1.33,0-2.64,.17-3.92,.52-1.28,.35-2.33,.91-3.16,1.68-.83,.77-1.27,1.85-1.32,3.24,0,.32,.13,.81,.4,1.48,.27,.67,1.07,1.37,2.4,2.12,1.33,.75,3.57,1.44,6.72,2.08,1.87,.37,3.69,.92,5.48,1.64,1.79,.72,3.28,1.73,4.48,3.04,1.2,1.31,1.77,3.05,1.72,5.24,0,.91-.16,1.92-.48,3.04-.32,1.12-.93,2.19-1.84,3.2-.91,1.01-2.23,1.85-3.96,2.52-1.73,.67-4.01,1-6.84,1Z"/><path class="d" d="M355.05,652.32c-.53-.21-.91-.56-1.12-1.04-.21-.48-.21-.96,0-1.44l5.92-15.04-12.56-31.28c-.21-.48-.21-.96,0-1.44,.21-.48,.56-.83,1.04-1.04,.48-.16,.96-.15,1.44,.04,.48,.19,.83,.55,1.04,1.08l11.12,27.52,10.88-27.52c.21-.53,.55-.89,1-1.08,.45-.19,.95-.2,1.48-.04,.48,.21,.83,.56,1.04,1.04,.21,.48,.21,.96,0,1.44l-18.88,47.76c-.21,.48-.55,.81-1,1-.45,.19-.92,.2-1.4,.04Z"/><path class="d" d="M395.37,635.6c-4.53,0-8.11-1.56-10.72-4.68-2.61-3.12-3.92-7.35-3.92-12.68s1.31-9.63,3.92-12.72c2.61-3.09,6.19-4.64,10.72-4.64s8.04,1.55,10.68,4.64c2.64,3.09,3.96,7.33,3.96,12.72s-1.32,9.56-3.96,12.68-6.2,4.68-10.68,4.68Zm0-3.84c3.47,0,6.13-1.17,8-3.52,1.87-2.35,2.8-5.68,2.8-10s-.93-7.57-2.8-9.92c-1.87-2.35-4.53-3.52-8-3.52s-6.08,1.17-8,3.52c-1.92,2.35-2.88,5.65-2.88,9.92s.96,7.65,2.88,10c1.92,2.35,4.59,3.52,8,3.52Z"/><path class="d" d="M430.17,635.6c-3.68,0-6.57-1.2-8.68-3.6-2.11-2.4-3.16-5.71-3.16-9.92v-19.12c0-.53,.17-.99,.52-1.36,.35-.37,.79-.56,1.32-.56s.99,.19,1.36,.56c.37,.37,.56,.83,.56,1.36v19.12c0,1.23,.19,2.6,.56,4.12,.37,1.52,1.13,2.84,2.28,3.96,1.15,1.12,2.89,1.68,5.24,1.68,3.15,0,5.59-.85,7.32-2.56,1.73-1.71,2.6-4.16,2.6-7.36v-19.04c0-.53,.19-1,.56-1.4,.37-.4,.83-.6,1.36-.6s.97,.2,1.32,.6c.35,.4,.52,.87,.52,1.4v30.88c0,.53-.17,.97-.52,1.32-.35,.35-.79,.52-1.32,.52s-.99-.17-1.36-.52c-.37-.35-.56-.79-.56-1.32v-2.48c-1.23,1.33-2.68,2.39-4.36,3.16s-3.53,1.16-5.56,1.16Z"/><path class="d" d="M454.89,635.6c-.53,0-.99-.19-1.36-.56-.37-.37-.56-.8-.56-1.28v-30.88c0-.53,.19-.99,.56-1.36,.37-.37,.83-.56,1.36-.56s.97,.19,1.32,.56c.35,.37,.52,.83,.52,1.36v2c.8-.96,1.92-1.8,3.36-2.52s2.83-1.19,4.16-1.4c1.87-.27,3.76-.12,5.68,.44,1.92,.56,3.64,1.51,5.16,2.84,1.52,1.33,2.57,3.09,3.16,5.28,.16,.48,.11,.95-.16,1.4-.27,.45-.64,.76-1.12,.92-.53,.11-1.03,.03-1.48-.24-.45-.27-.73-.64-.84-1.12-.43-1.55-1.17-2.77-2.24-3.68-1.07-.91-2.28-1.52-3.64-1.84-1.36-.32-2.68-.37-3.96-.16-2.29,.27-4.21,1.12-5.76,2.56-1.55,1.44-2.32,3.73-2.32,6.88v19.52c0,.48-.17,.91-.52,1.28-.35,.37-.79,.56-1.32,.56Z"/><path class="d" d="M521.28,635.6c-4.53,0-8.11-1.56-10.72-4.68-2.61-3.12-3.92-7.35-3.92-12.68s1.31-9.63,3.92-12.72c2.61-3.09,6.19-4.64,10.72-4.64,3.95,0,7.27,1.36,9.96,4.08,2.69,2.72,4.15,6.4,4.36,11.04v.24c0,.48-.19,.91-.56,1.28-.32,.37-.77,.56-1.36,.56h-23.2c0,4.11,.87,7.41,2.6,9.92,1.73,2.51,4.47,3.76,8.2,3.76,1.92,0,3.72-.41,5.4-1.24,1.68-.83,2.97-1.91,3.88-3.24,.32-.43,.73-.69,1.24-.8,.51-.11,.97,0,1.4,.32,.43,.27,.69,.67,.8,1.2,.11,.53,0,1.01-.32,1.44-1.28,1.87-3.03,3.36-5.24,4.48-2.21,1.12-4.6,1.68-7.16,1.68Zm-10.56-21.28h20.72c-.53-3.04-1.69-5.39-3.48-7.04-1.79-1.65-4.01-2.48-6.68-2.48-2.88,0-5.21,.83-7,2.48-1.79,1.65-2.97,4-3.56,7.04Z"/><path class="d" d="M550.88,652.32c-.53-.21-.91-.56-1.12-1.04-.21-.48-.21-.96,0-1.44l5.92-15.04-12.56-31.28c-.21-.48-.21-.96,0-1.44,.21-.48,.56-.83,1.04-1.04,.48-.16,.96-.15,1.44,.04,.48,.19,.83,.55,1.04,1.08l11.12,27.52,10.88-27.52c.21-.53,.55-.89,1-1.08,.45-.19,.95-.2,1.48-.04,.48,.21,.83,.56,1.04,1.04,.21,.48,.21,.96,0,1.44l-18.88,47.76c-.21,.48-.55,.81-1,1-.45,.19-.92,.2-1.4,.04Z"/><path class="d" d="M591.2,635.6c-4.53,0-8.11-1.56-10.72-4.68-2.61-3.12-3.92-7.35-3.92-12.68s1.31-9.63,3.92-12.72c2.61-3.09,6.19-4.64,10.72-4.64,3.95,0,7.27,1.36,9.96,4.08,2.69,2.72,4.15,6.4,4.36,11.04v.24c0,.48-.19,.91-.56,1.28-.32,.37-.77,.56-1.36,.56h-23.2c0,4.11,.87,7.41,2.6,9.92,1.73,2.51,4.47,3.76,8.2,3.76,1.92,0,3.72-.41,5.4-1.24,1.68-.83,2.97-1.91,3.88-3.24,.32-.43,.73-.69,1.24-.8,.51-.11,.97,0,1.4,.32,.43,.27,.69,.67,.8,1.2,.11,.53,0,1.01-.32,1.44-1.28,1.87-3.03,3.36-5.24,4.48-2.21,1.12-4.6,1.68-7.16,1.68Zm-10.56-21.28h20.72c-.53-3.04-1.69-5.39-3.48-7.04-1.79-1.65-4.01-2.48-6.68-2.48-2.88,0-5.21,.83-7,2.48-1.79,1.65-2.97,4-3.56,7.04Z"/><path class="d" d="M626.72,635.6c-3.04,0-5.72-.67-8.04-2-2.32-1.33-3.96-3.12-4.92-5.36-.21-.48-.21-.96,0-1.44,.21-.48,.56-.83,1.04-1.04,.48-.21,.96-.21,1.44,0,.48,.21,.83,.56,1.04,1.04,.69,1.55,1.88,2.76,3.56,3.64,1.68,.88,3.64,1.32,5.88,1.32s4.08-.23,5.36-.68c1.28-.45,2.2-1.01,2.76-1.68,.56-.67,.91-1.33,1.04-2,.13-.67,.2-1.19,.2-1.56,0-.8-.19-1.57-.56-2.32-.37-.75-1.17-1.45-2.4-2.12-1.23-.67-3.12-1.27-5.68-1.8-1.81-.37-3.69-.91-5.64-1.6-1.95-.69-3.59-1.67-4.92-2.92-1.33-1.25-2-2.89-2-4.92,.05-2.72,1.2-4.95,3.44-6.68,2.24-1.73,5.15-2.6,8.72-2.6,2.67,0,5.08,.57,7.24,1.72,2.16,1.15,3.75,2.71,4.76,4.68,.27,.43,.32,.89,.16,1.4-.16,.51-.45,.89-.88,1.16-.53,.21-1.04,.25-1.52,.12-.48-.13-.83-.44-1.04-.92-.59-1.07-1.6-2.04-3.04-2.92-1.44-.88-3.33-1.32-5.68-1.32-1.33,0-2.64,.17-3.92,.52-1.28,.35-2.33,.91-3.16,1.68-.83,.77-1.27,1.85-1.32,3.24,0,.32,.13,.81,.4,1.48,.27,.67,1.07,1.37,2.4,2.12,1.33,.75,3.57,1.44,6.72,2.08,1.87,.37,3.69,.92,5.48,1.64,1.79,.72,3.28,1.73,4.48,3.04,1.2,1.31,1.77,3.05,1.72,5.24,0,.91-.16,1.92-.48,3.04-.32,1.12-.93,2.19-1.84,3.2-.91,1.01-2.23,1.85-3.96,2.52-1.73,.67-4.01,1-6.84,1Z"/><path class="d" d="M694.64,635.68c-.53,0-.99-.17-1.36-.52-.37-.35-.56-.79-.56-1.32v-.64l-9.84,1.92c-2.45,.48-4.53,.61-6.24,.4-1.71-.21-3.15-.75-4.32-1.6-.85-.69-1.53-1.56-2.04-2.6-.51-1.04-.81-2.23-.92-3.56-.32-3.09,.36-5.64,2.04-7.64,1.68-2,4.28-3.29,7.8-3.88l13.52-2.32v-2.24c0-1.07-.17-2.2-.52-3.4-.35-1.2-1.05-2.09-2.12-2.68-.85-.53-1.95-.8-3.28-.8-3.31,0-7.39,1.49-12.24,4.48-.48,.27-.96,.33-1.44,.2-.48-.13-.85-.41-1.12-.84-.32-.48-.41-.97-.28-1.48,.13-.51,.41-.87,.84-1.08,3.15-1.92,5.89-3.24,8.24-3.96,2.35-.72,4.35-1.08,6-1.08,1.12,0,2.09,.12,2.92,.36,.83,.24,1.53,.52,2.12,.84,1.55,.85,2.72,2.09,3.52,3.72,.8,1.63,1.2,3.53,1.2,5.72v22.16c0,.53-.17,.97-.52,1.32-.35,.35-.81,.52-1.4,.52Zm-12.4-4.4l10.48-1.92v-11.6l-12.8,2.16c-2.19,.37-3.77,.99-4.76,1.84-.99,.85-1.59,1.77-1.8,2.76-.21,.99-.29,1.93-.24,2.84,.16,1.65,.67,2.8,1.52,3.44,1.28,.96,3.81,1.12,7.6,.48Z"/><path class="d" d="M705.92,635.6c-.53,0-.97-.17-1.32-.52-.35-.35-.52-.79-.52-1.32v-31.04c0-.53,.17-.99,.52-1.36,.35-.37,.79-.56,1.32-.56s.99,.19,1.36,.56c.37,.37,.56,.83,.56,1.36v2.64c1.23-1.39,2.69-2.48,4.4-3.28,1.71-.8,3.55-1.2,5.52-1.2,3.68,0,6.57,1.21,8.68,3.64,2.11,2.43,3.16,5.72,3.16,9.88v19.2c0,.53-.17,.99-.52,1.36-.35,.37-.79,.56-1.32,.56s-.99-.19-1.36-.56c-.37-.37-.56-.83-.56-1.36v-19.2c0-1.23-.19-2.59-.56-4.08-.37-1.49-1.13-2.79-2.28-3.88-1.15-1.09-2.89-1.64-5.24-1.64-3.09,0-5.52,.85-7.28,2.56-1.76,1.71-2.64,4.13-2.64,7.28v19.12c0,.53-.19,.97-.56,1.32-.37,.35-.83,.52-1.36,.52Z"/><path class="d" d="M764.96,635.68c-.53,0-.97-.17-1.32-.52-.35-.35-.52-.79-.52-1.32v-3.36c-1.23,1.55-2.72,2.79-4.48,3.72-1.76,.93-3.79,1.4-6.08,1.4-4.53,0-8.11-1.56-10.72-4.68-2.61-3.12-3.92-7.35-3.92-12.68s1.31-9.63,3.92-12.72c2.61-3.09,6.19-4.64,10.72-4.64,2.29,0,4.32,.48,6.08,1.44,1.76,.96,3.25,2.21,4.48,3.76v-28.08c0-.53,.17-.99,.52-1.36,.35-.37,.79-.56,1.32-.56s.99,.19,1.36,.56c.37,.37,.56,.83,.56,1.36v55.84c0,.53-.19,.97-.56,1.32-.37,.35-.83,.52-1.36,.52Zm-12.4-3.92c3.41,0,6.03-1.17,7.84-3.52,1.81-2.35,2.72-5.68,2.72-10s-.91-7.57-2.72-9.92c-1.81-2.35-4.43-3.52-7.84-3.52s-6.08,1.17-8,3.52c-1.92,2.35-2.88,5.65-2.88,9.92s.96,7.65,2.88,10c1.92,2.35,4.59,3.52,8,3.52Z"/><path class="d" d="M812.88,635.6c-4.53,0-8.11-1.56-10.72-4.68-2.61-3.12-3.92-7.35-3.92-12.68s1.31-9.63,3.92-12.72c2.61-3.09,6.19-4.64,10.72-4.64,3.95,0,7.27,1.36,9.96,4.08,2.69,2.72,4.15,6.4,4.36,11.04v.24c0,.48-.19,.91-.56,1.28-.32,.37-.77,.56-1.36,.56h-23.2c0,4.11,.87,7.41,2.6,9.92,1.73,2.51,4.47,3.76,8.2,3.76,1.92,0,3.72-.41,5.4-1.24,1.68-.83,2.97-1.91,3.88-3.24,.32-.43,.73-.69,1.24-.8,.51-.11,.97,0,1.4,.32,.43,.27,.69,.67,.8,1.2,.11,.53,0,1.01-.32,1.44-1.28,1.87-3.03,3.36-5.24,4.48-2.21,1.12-4.6,1.68-7.16,1.68Zm-10.56-21.28h20.72c-.53-3.04-1.69-5.39-3.48-7.04-1.79-1.65-4.01-2.48-6.68-2.48-2.88,0-5.21,.83-7,2.48-1.79,1.65-2.97,4-3.56,7.04Z"/><path class="d" d="M861.04,635.68c-.53,0-.99-.17-1.36-.52-.37-.35-.56-.79-.56-1.32v-.64l-9.84,1.92c-2.45,.48-4.53,.61-6.24,.4-1.71-.21-3.15-.75-4.32-1.6-.85-.69-1.53-1.56-2.04-2.6-.51-1.04-.81-2.23-.92-3.56-.32-3.09,.36-5.64,2.04-7.64,1.68-2,4.28-3.29,7.8-3.88l13.52-2.32v-2.24c0-1.07-.17-2.2-.52-3.4-.35-1.2-1.05-2.09-2.12-2.68-.85-.53-1.95-.8-3.28-.8-3.31,0-7.39,1.49-12.24,4.48-.48,.27-.96,.33-1.44,.2-.48-.13-.85-.41-1.12-.84-.32-.48-.41-.97-.28-1.48,.13-.51,.41-.87,.84-1.08,3.15-1.92,5.89-3.24,8.24-3.96,2.35-.72,4.35-1.08,6-1.08,1.12,0,2.09,.12,2.92,.36,.83,.24,1.53,.52,2.12,.84,1.55,.85,2.72,2.09,3.52,3.72,.8,1.63,1.2,3.53,1.2,5.72v22.16c0,.53-.17,.97-.52,1.32-.35,.35-.81,.52-1.4,.52Zm-12.4-4.4l10.48-1.92v-11.6l-12.8,2.16c-2.19,.37-3.77,.99-4.76,1.84-.99,.85-1.59,1.77-1.8,2.76-.21,.99-.29,1.93-.24,2.84,.16,1.65,.67,2.8,1.52,3.44,1.28,.96,3.81,1.12,7.6,.48Z"/><path class="d" d="M872.4,635.6c-.53,0-.99-.19-1.36-.56-.37-.37-.56-.8-.56-1.28v-30.88c0-.53,.19-.99,.56-1.36,.37-.37,.83-.56,1.36-.56s.97,.19,1.32,.56c.35,.37,.52,.83,.52,1.36v2c.8-.96,1.92-1.8,3.36-2.52s2.83-1.19,4.16-1.4c1.87-.27,3.76-.12,5.68,.44,1.92,.56,3.64,1.51,5.16,2.84,1.52,1.33,2.57,3.09,3.16,5.28,.16,.48,.11,.95-.16,1.4-.27,.45-.64,.76-1.12,.92-.53,.11-1.03,.03-1.48-.24-.45-.27-.73-.64-.84-1.12-.43-1.55-1.17-2.77-2.24-3.68-1.07-.91-2.28-1.52-3.64-1.84-1.36-.32-2.68-.37-3.96-.16-2.29,.27-4.21,1.12-5.76,2.56-1.55,1.44-2.32,3.73-2.32,6.88v19.52c0,.48-.17,.91-.52,1.28-.35,.37-.79,.56-1.32,.56Z"/><path class="d" d="M915.52,635.6c-3.04,0-5.72-.67-8.04-2-2.32-1.33-3.96-3.12-4.92-5.36-.21-.48-.21-.96,0-1.44,.21-.48,.56-.83,1.04-1.04,.48-.21,.96-.21,1.44,0,.48,.21,.83,.56,1.04,1.04,.69,1.55,1.88,2.76,3.56,3.64,1.68,.88,3.64,1.32,5.88,1.32s4.08-.23,5.36-.68c1.28-.45,2.2-1.01,2.76-1.68,.56-.67,.91-1.33,1.04-2,.13-.67,.2-1.19,.2-1.56,0-.8-.19-1.57-.56-2.32-.37-.75-1.17-1.45-2.4-2.12-1.23-.67-3.12-1.27-5.68-1.8-1.81-.37-3.69-.91-5.64-1.6-1.95-.69-3.59-1.67-4.92-2.92-1.33-1.25-2-2.89-2-4.92,.05-2.72,1.2-4.95,3.44-6.68,2.24-1.73,5.15-2.6,8.72-2.6,2.67,0,5.08,.57,7.24,1.72,2.16,1.15,3.75,2.71,4.76,4.68,.27,.43,.32,.89,.16,1.4-.16,.51-.45,.89-.88,1.16-.53,.21-1.04,.25-1.52,.12-.48-.13-.83-.44-1.04-.92-.59-1.07-1.6-2.04-3.04-2.92-1.44-.88-3.33-1.32-5.68-1.32-1.33,0-2.64,.17-3.92,.52-1.28,.35-2.33,.91-3.16,1.68-.83,.77-1.27,1.85-1.32,3.24,0,.32,.13,.81,.4,1.48,.27,.67,1.07,1.37,2.4,2.12,1.33,.75,3.57,1.44,6.72,2.08,1.87,.37,3.69,.92,5.48,1.64,1.79,.72,3.28,1.73,4.48,3.04,1.2,1.31,1.77,3.05,1.72,5.24,0,.91-.16,1.92-.48,3.04-.32,1.12-.93,2.19-1.84,3.2-.91,1.01-2.23,1.85-3.96,2.52-1.73,.67-4.01,1-6.84,1Z"/><path class="d" d="M941.28,635.6c-1.33,0-2.4-.49-3.2-1.48-.8-.99-1.2-2.15-1.2-3.48s.4-2.56,1.2-3.52c.8-.96,1.87-1.44,3.2-1.44s2.47,.48,3.24,1.44c.77,.96,1.16,2.13,1.16,3.52s-.39,2.49-1.16,3.48c-.77,.99-1.85,1.48-3.24,1.48Z"/><path class="d" d="M71.53,731.68c-.59,0-1.08-.19-1.48-.56s-.6-.83-.6-1.36v-51.2h-17.36c-.53,0-.99-.2-1.36-.6-.37-.4-.56-.87-.56-1.4s.19-1,.56-1.4c.37-.4,.83-.6,1.36-.6h38.72c.53,0,1,.2,1.4,.6,.4,.4,.6,.87,.6,1.4s-.2,1-.6,1.4c-.4,.4-.87,.6-1.4,.6h-17.36v51.2c0,.53-.19,.99-.56,1.36-.37,.37-.83,.56-1.36,.56Z"/><path class="d" d="M103.69,731.68c-.53,0-.99-.17-1.36-.52-.37-.35-.56-.79-.56-1.32v-55.92c0-.53,.19-.99,.56-1.36,.37-.37,.83-.56,1.36-.56s.99,.19,1.36,.56c.37,.37,.56,.83,.56,1.36v27.36c1.23-1.39,2.69-2.47,4.4-3.24,1.71-.77,3.55-1.16,5.52-1.16,3.68,0,6.57,1.21,8.68,3.64,2.11,2.43,3.16,5.69,3.16,9.8v19.44c0,.53-.17,.97-.52,1.32-.35,.35-.79,.52-1.32,.52s-.99-.17-1.36-.52c-.37-.35-.56-.79-.56-1.32v-19.44c0-1.23-.19-2.59-.56-4.08-.37-1.49-1.13-2.79-2.28-3.88-1.15-1.09-2.89-1.64-5.24-1.64-2.77,0-5.12,.85-7.04,2.56-1.92,1.71-2.88,4.13-2.88,7.28v19.28c0,.53-.19,.97-.56,1.32-.37,.35-.83,.52-1.36,.52Z"/><path class="d" d="M150.33,731.6c-4.53,0-8.11-1.56-10.72-4.68-2.61-3.12-3.92-7.35-3.92-12.68s1.31-9.63,3.92-12.72c2.61-3.09,6.19-4.64,10.72-4.64,3.95,0,7.27,1.36,9.96,4.08,2.69,2.72,4.15,6.4,4.36,11.04v.24c0,.48-.19,.91-.56,1.28-.32,.37-.77,.56-1.36,.56h-23.2c0,4.11,.87,7.41,2.6,9.92,1.73,2.51,4.47,3.76,8.2,3.76,1.92,0,3.72-.41,5.4-1.24,1.68-.83,2.97-1.91,3.88-3.24,.32-.43,.73-.69,1.24-.8,.51-.11,.97,0,1.4,.32,.43,.27,.69,.67,.8,1.2,.11,.53,0,1.01-.32,1.44-1.28,1.87-3.03,3.36-5.24,4.48-2.21,1.12-4.6,1.68-7.16,1.68Zm-10.56-21.28h20.72c-.53-3.04-1.69-5.39-3.48-7.04-1.79-1.65-4.01-2.48-6.68-2.48-2.88,0-5.21,.83-7,2.48-1.79,1.65-2.97,4-3.56,7.04Z"/><path class="d" d="M179.93,748.32c-.53-.21-.91-.56-1.12-1.04-.21-.48-.21-.96,0-1.44l5.92-15.04-12.56-31.28c-.21-.48-.21-.96,0-1.44,.21-.48,.56-.83,1.04-1.04,.48-.16,.96-.15,1.44,.04,.48,.19,.83,.55,1.04,1.08l11.12,27.52,10.88-27.52c.21-.53,.55-.89,1-1.08,.45-.19,.95-.2,1.48-.04,.48,.21,.83,.56,1.04,1.04,.21,.48,.21,.96,0,1.44l-18.88,47.76c-.21,.48-.55,.81-1,1-.45,.19-.92,.2-1.4,.04Z"/><path class="d" d="M255.21,731.68c-.53,0-.99-.17-1.36-.52-.37-.35-.56-.79-.56-1.32v-.64l-9.84,1.92c-2.45,.48-4.53,.61-6.24,.4-1.71-.21-3.15-.75-4.32-1.6-.85-.69-1.53-1.56-2.04-2.6-.51-1.04-.81-2.23-.92-3.56-.32-3.09,.36-5.64,2.04-7.64,1.68-2,4.28-3.29,7.8-3.88l13.52-2.32v-2.24c0-1.07-.17-2.2-.52-3.4-.35-1.2-1.05-2.09-2.12-2.68-.85-.53-1.95-.8-3.28-.8-3.31,0-7.39,1.49-12.24,4.48-.48,.27-.96,.33-1.44,.2-.48-.13-.85-.41-1.12-.84-.32-.48-.41-.97-.28-1.48,.13-.51,.41-.87,.84-1.08,3.15-1.92,5.89-3.24,8.24-3.96,2.35-.72,4.35-1.08,6-1.08,1.12,0,2.09,.12,2.92,.36,.83,.24,1.53,.52,2.12,.84,1.55,.85,2.72,2.09,3.52,3.72,.8,1.63,1.2,3.53,1.2,5.72v22.16c0,.53-.17,.97-.52,1.32-.35,.35-.81,.52-1.4,.52Zm-12.4-4.4l10.48-1.92v-11.6l-12.8,2.16c-2.19,.37-3.77,.99-4.76,1.84-.99,.85-1.59,1.77-1.8,2.76-.21,.99-.29,1.93-.24,2.84,.16,1.65,.67,2.8,1.52,3.44,1.28,.96,3.81,1.12,7.6,.48Z"/><path class="d" d="M266.57,731.6c-.53,0-.99-.19-1.36-.56-.37-.37-.56-.8-.56-1.28v-30.88c0-.53,.19-.99,.56-1.36,.37-.37,.83-.56,1.36-.56s.97,.19,1.32,.56c.35,.37,.52,.83,.52,1.36v2c.8-.96,1.92-1.8,3.36-2.52s2.83-1.19,4.16-1.4c1.87-.27,3.76-.12,5.68,.44,1.92,.56,3.64,1.51,5.16,2.84,1.52,1.33,2.57,3.09,3.16,5.28,.16,.48,.11,.95-.16,1.4-.27,.45-.64,.76-1.12,.92-.53,.11-1.03,.03-1.48-.24-.45-.27-.73-.64-.84-1.12-.43-1.55-1.17-2.77-2.24-3.68-1.07-.91-2.28-1.52-3.64-1.84-1.36-.32-2.68-.37-3.96-.16-2.29,.27-4.21,1.12-5.76,2.56-1.55,1.44-2.32,3.73-2.32,6.88v19.52c0,.48-.17,.91-.52,1.28-.35,.37-.79,.56-1.32,.56Z"/><path class="d" d="M311.37,731.6c-4.53,0-8.11-1.56-10.72-4.68-2.61-3.12-3.92-7.35-3.92-12.68s1.31-9.63,3.92-12.72c2.61-3.09,6.19-4.64,10.72-4.64,3.95,0,7.27,1.36,9.96,4.08,2.69,2.72,4.15,6.4,4.36,11.04v.24c0,.48-.19,.91-.56,1.28-.32,.37-.77,.56-1.36,.56h-23.2c0,4.11,.87,7.41,2.6,9.92,1.73,2.51,4.47,3.76,8.2,3.76,1.92,0,3.72-.41,5.4-1.24,1.68-.83,2.97-1.91,3.88-3.24,.32-.43,.73-.69,1.24-.8,.51-.11,.97,0,1.4,.32,.43,.27,.69,.67,.8,1.2,.11,.53,0,1.01-.32,1.44-1.28,1.87-3.03,3.36-5.24,4.48-2.21,1.12-4.6,1.68-7.16,1.68Zm-10.56-21.28h20.72c-.53-3.04-1.69-5.39-3.48-7.04-1.79-1.65-4.01-2.48-6.68-2.48-2.88,0-5.21,.83-7,2.48-1.79,1.65-2.97,4-3.56,7.04Z"/><path class="d" d="M366.33,731.68c-.53,0-.97-.17-1.32-.52-.35-.35-.52-.79-.52-1.32v-27.92h-9.2c-.53,0-.99-.2-1.36-.6-.37-.4-.56-.87-.56-1.4s.19-.97,.56-1.32c.37-.35,.83-.52,1.36-.52h11.04c.59,0,1.07,.17,1.44,.52,.37,.35,.56,.79,.56,1.32v29.92c0,.53-.19,.97-.56,1.32-.37,.35-.85,.52-1.44,.52Zm-.96-48.08c-.75,0-1.36-.21-1.84-.64-.48-.43-.72-.91-.72-1.44v-4.96c0-.53,.24-1.03,.72-1.48,.48-.45,1.09-.68,1.84-.68s1.35,.23,1.8,.68c.45,.45,.68,.95,.68,1.48v4.96c0,.53-.23,1.01-.68,1.44-.45,.43-1.05,.64-1.8,.64Z"/><path class="d" d="M380.73,731.6c-.53,0-.97-.17-1.32-.52-.35-.35-.52-.79-.52-1.32v-31.04c0-.53,.17-.99,.52-1.36,.35-.37,.79-.56,1.32-.56s.99,.19,1.36,.56c.37,.37,.56,.83,.56,1.36v2.64c1.23-1.39,2.69-2.48,4.4-3.28,1.71-.8,3.55-1.2,5.52-1.2,3.68,0,6.57,1.21,8.68,3.64,2.11,2.43,3.16,5.72,3.16,9.88v19.2c0,.53-.17,.99-.52,1.36-.35,.37-.79,.56-1.32,.56s-.99-.19-1.36-.56c-.37-.37-.56-.83-.56-1.36v-19.2c0-1.23-.19-2.59-.56-4.08-.37-1.49-1.13-2.79-2.28-3.88-1.15-1.09-2.89-1.64-5.24-1.64-3.09,0-5.52,.85-7.28,2.56-1.76,1.71-2.64,4.13-2.64,7.28v19.12c0,.53-.19,.97-.56,1.32-.37,.35-.83,.52-1.36,.52Z"/><path class="d" d="M424.57,731.6c-.85,0-1.44-.4-1.76-1.2l-12.4-30.8c-.21-.48-.21-.96,0-1.44,.21-.48,.56-.83,1.04-1.04,.48-.16,.96-.15,1.44,.04,.48,.19,.83,.52,1.04,1l10.64,26.48,10.8-26.48c.21-.53,.56-.89,1.04-1.08,.48-.19,.96-.2,1.44-.04,.43,.21,.76,.56,1,1.04s.23,.96-.04,1.44l-12.4,30.88c-.32,.8-.93,1.2-1.84,1.2Z"/><path class="d" d="M469.61,731.68c-.53,0-.99-.17-1.36-.52-.37-.35-.56-.79-.56-1.32v-.64l-9.84,1.92c-2.45,.48-4.53,.61-6.24,.4-1.71-.21-3.15-.75-4.32-1.6-.85-.69-1.53-1.56-2.04-2.6-.51-1.04-.81-2.23-.92-3.56-.32-3.09,.36-5.64,2.04-7.64,1.68-2,4.28-3.29,7.8-3.88l13.52-2.32v-2.24c0-1.07-.17-2.2-.52-3.4-.35-1.2-1.05-2.09-2.12-2.68-.85-.53-1.95-.8-3.28-.8-3.31,0-7.39,1.49-12.24,4.48-.48,.27-.96,.33-1.44,.2-.48-.13-.85-.41-1.12-.84-.32-.48-.41-.97-.28-1.48,.13-.51,.41-.87,.84-1.08,3.15-1.92,5.89-3.24,8.24-3.96,2.35-.72,4.35-1.08,6-1.08,1.12,0,2.09,.12,2.92,.36,.83,.24,1.53,.52,2.12,.84,1.55,.85,2.72,2.09,3.52,3.72,.8,1.63,1.2,3.53,1.2,5.72v22.16c0,.53-.17,.97-.52,1.32-.35,.35-.81,.52-1.4,.52Zm-12.4-4.4l10.48-1.92v-11.6l-12.8,2.16c-2.19,.37-3.77,.99-4.76,1.84-.99,.85-1.59,1.77-1.8,2.76-.21,.99-.29,1.93-.24,2.84,.16,1.65,.67,2.8,1.52,3.44,1.28,.96,3.81,1.12,7.6,.48Z"/><path class="d" d="M489.21,731.2c-2.13,0-3.85-.63-5.16-1.88-1.31-1.25-1.96-2.92-1.96-5v-50.32c0-.53,.19-.99,.56-1.36,.37-.37,.83-.56,1.36-.56s.99,.19,1.36,.56c.37,.37,.56,.83,.56,1.36v50.32c0,.21,.04,.57,.12,1.08,.08,.51,.36,.96,.84,1.36,.48,.4,1.25,.6,2.32,.6h6.32c.53,0,.99,.19,1.36,.56,.37,.37,.56,.83,.56,1.36s-.19,.99-.56,1.36c-.37,.37-.83,.56-1.36,.56h-6.32Z"/><path class="d" d="M515.45,731.6c-3.68,0-6.57-1.2-8.68-3.6-2.11-2.4-3.16-5.71-3.16-9.92v-19.12c0-.53,.17-.99,.52-1.36,.35-.37,.79-.56,1.32-.56s.99,.19,1.36,.56c.37,.37,.56,.83,.56,1.36v19.12c0,1.23,.19,2.6,.56,4.12,.37,1.52,1.13,2.84,2.28,3.96,1.15,1.12,2.89,1.68,5.24,1.68,3.15,0,5.59-.85,7.32-2.56,1.73-1.71,2.6-4.16,2.6-7.36v-19.04c0-.53,.19-1,.56-1.4,.37-.4,.83-.6,1.36-.6s.97,.2,1.32,.6c.35,.4,.52,.87,.52,1.4v30.88c0,.53-.17,.97-.52,1.32-.35,.35-.79,.52-1.32,.52s-.99-.17-1.36-.52c-.37-.35-.56-.79-.56-1.32v-2.48c-1.23,1.33-2.68,2.39-4.36,3.16s-3.53,1.16-5.56,1.16Z"/><path class="d" d="M563.05,731.68c-.53,0-.99-.17-1.36-.52-.37-.35-.56-.79-.56-1.32v-.64l-9.84,1.92c-2.45,.48-4.53,.61-6.24,.4-1.71-.21-3.15-.75-4.32-1.6-.85-.69-1.53-1.56-2.04-2.6-.51-1.04-.81-2.23-.92-3.56-.32-3.09,.36-5.64,2.04-7.64,1.68-2,4.28-3.29,7.8-3.88l13.52-2.32v-2.24c0-1.07-.17-2.2-.52-3.4-.35-1.2-1.05-2.09-2.12-2.68-.85-.53-1.95-.8-3.28-.8-3.31,0-7.39,1.49-12.24,4.48-.48,.27-.96,.33-1.44,.2-.48-.13-.85-.41-1.12-.84-.32-.48-.41-.97-.28-1.48,.13-.51,.41-.87,.84-1.08,3.15-1.92,5.89-3.24,8.24-3.96,2.35-.72,4.35-1.08,6-1.08,1.12,0,2.09,.12,2.92,.36,.83,.24,1.53,.52,2.12,.84,1.55,.85,2.72,2.09,3.52,3.72,.8,1.63,1.2,3.53,1.2,5.72v22.16c0,.53-.17,.97-.52,1.32-.35,.35-.81,.52-1.4,.52Zm-12.4-4.4l10.48-1.92v-11.6l-12.8,2.16c-2.19,.37-3.77,.99-4.76,1.84-.99,.85-1.59,1.77-1.8,2.76-.21,.99-.29,1.93-.24,2.84,.16,1.65,.67,2.8,1.52,3.44,1.28,.96,3.81,1.12,7.6,.48Z"/><path class="d" d="M577.45,731.68c-.53,0-.99-.17-1.36-.52-.37-.35-.56-.79-.56-1.32v-56.08c0-.53,.19-1,.56-1.4,.37-.4,.83-.6,1.36-.6s.99,.2,1.36,.6c.37,.4,.56,.87,.56,1.4v28.32c1.23-1.55,2.72-2.8,4.48-3.76,1.76-.96,3.81-1.44,6.16-1.44,4.48,0,8.03,1.55,10.64,4.64,2.61,3.09,3.92,7.33,3.92,12.72s-1.31,9.56-3.92,12.68c-2.61,3.12-6.16,4.68-10.64,4.68-2.35,0-4.4-.47-6.16-1.4-1.76-.93-3.25-2.17-4.48-3.72v3.36c0,.53-.19,.97-.56,1.32-.37,.35-.83,.52-1.36,.52Zm12.56-3.92c3.41,0,6.05-1.17,7.92-3.52,1.87-2.35,2.8-5.68,2.8-10s-.93-7.57-2.8-9.92c-1.87-2.35-4.51-3.52-7.92-3.52s-6.09,1.17-7.88,3.52c-1.79,2.35-2.68,5.65-2.68,9.92s.89,7.65,2.68,10c1.79,2.35,4.41,3.52,7.88,3.52Z"/><path class="d" d="M621.45,731.2c-2.13,0-3.85-.63-5.16-1.88-1.31-1.25-1.96-2.92-1.96-5v-50.32c0-.53,.19-.99,.56-1.36,.37-.37,.83-.56,1.36-.56s.99,.19,1.36,.56c.37,.37,.56,.83,.56,1.36v50.32c0,.21,.04,.57,.12,1.08,.08,.51,.36,.96,.84,1.36,.48,.4,1.25,.6,2.32,.6h6.32c.53,0,.99,.19,1.36,.56,.37,.37,.56,.83,.56,1.36s-.19,.99-.56,1.36c-.37,.37-.83,.56-1.36,.56h-6.32Z"/><path class="d" d="M649.69,731.6c-4.53,0-8.11-1.56-10.72-4.68-2.61-3.12-3.92-7.35-3.92-12.68s1.31-9.63,3.92-12.72c2.61-3.09,6.19-4.64,10.72-4.64,3.95,0,7.27,1.36,9.96,4.08,2.69,2.72,4.15,6.4,4.36,11.04v.24c0,.48-.19,.91-.56,1.28-.32,.37-.77,.56-1.36,.56h-23.2c0,4.11,.87,7.41,2.6,9.92,1.73,2.51,4.47,3.76,8.2,3.76,1.92,0,3.72-.41,5.4-1.24,1.68-.83,2.97-1.91,3.88-3.24,.32-.43,.73-.69,1.24-.8,.51-.11,.97,0,1.4,.32,.43,.27,.69,.67,.8,1.2,.11,.53,0,1.01-.32,1.44-1.28,1.87-3.03,3.36-5.24,4.48-2.21,1.12-4.6,1.68-7.16,1.68Zm-10.56-21.28h20.72c-.53-3.04-1.69-5.39-3.48-7.04-1.79-1.65-4.01-2.48-6.68-2.48-2.88,0-5.21,.83-7,2.48-1.79,1.65-2.97,4-3.56,7.04Z"/><path class="d" d="M708.24,731.2c-2.19,0-3.91-.63-5.16-1.88-1.25-1.25-1.88-2.92-1.88-5v-22.48h-7.68c-.53,0-.97-.19-1.32-.56-.35-.37-.52-.83-.52-1.36s.17-.97,.52-1.32c.35-.35,.79-.52,1.32-.52h7.68v-11.76c0-.53,.17-.99,.52-1.36,.35-.37,.79-.56,1.32-.56s.99,.19,1.36,.56c.37,.37,.56,.83,.56,1.36v11.76h9.92c.53,0,.99,.17,1.36,.52,.37,.35,.56,.79,.56,1.32s-.19,.99-.56,1.36c-.37,.37-.83,.56-1.36,.56h-9.92v22.48c0,.21,.04,.57,.12,1.08,.08,.51,.36,.96,.84,1.36,.48,.4,1.25,.6,2.32,.6h6.24c.59,0,1.07,.19,1.44,.56,.37,.37,.56,.83,.56,1.36s-.19,.99-.56,1.36c-.37,.37-.85,.56-1.44,.56h-6.24Z"/><path class="d" d="M736.56,731.6c-4.53,0-8.11-1.56-10.72-4.68-2.61-3.12-3.92-7.35-3.92-12.68s1.31-9.63,3.92-12.72c2.61-3.09,6.19-4.64,10.72-4.64s8.04,1.55,10.68,4.64c2.64,3.09,3.96,7.33,3.96,12.72s-1.32,9.56-3.96,12.68-6.2,4.68-10.68,4.68Zm0-3.84c3.47,0,6.13-1.17,8-3.52,1.87-2.35,2.8-5.68,2.8-10s-.93-7.57-2.8-9.92c-1.87-2.35-4.53-3.52-8-3.52s-6.08,1.17-8,3.52c-1.92,2.35-2.88,5.65-2.88,9.92s.96,7.65,2.88,10c1.92,2.35,4.59,3.52,8,3.52Z"/><path class="d" d="M787.36,748.32c-.53-.21-.91-.56-1.12-1.04-.21-.48-.21-.96,0-1.44l5.92-15.04-12.56-31.28c-.21-.48-.21-.96,0-1.44,.21-.48,.56-.83,1.04-1.04,.48-.16,.96-.15,1.44,.04,.48,.19,.83,.55,1.04,1.08l11.12,27.52,10.88-27.52c.21-.53,.55-.89,1-1.08,.45-.19,.95-.2,1.48-.04,.48,.21,.83,.56,1.04,1.04,.21,.48,.21,.96,0,1.44l-18.88,47.76c-.21,.48-.55,.81-1,1-.45,.19-.92,.2-1.4,.04Z"/><path class="d" d="M827.68,731.6c-4.53,0-8.11-1.56-10.72-4.68-2.61-3.12-3.92-7.35-3.92-12.68s1.31-9.63,3.92-12.72c2.61-3.09,6.19-4.64,10.72-4.64s8.04,1.55,10.68,4.64c2.64,3.09,3.96,7.33,3.96,12.72s-1.32,9.56-3.96,12.68-6.2,4.68-10.68,4.68Zm0-3.84c3.47,0,6.13-1.17,8-3.52,1.87-2.35,2.8-5.68,2.8-10s-.93-7.57-2.8-9.92c-1.87-2.35-4.53-3.52-8-3.52s-6.08,1.17-8,3.52c-1.92,2.35-2.88,5.65-2.88,9.92s.96,7.65,2.88,10c1.92,2.35,4.59,3.52,8,3.52Z"/><path class="d" d="M862.48,731.6c-3.68,0-6.57-1.2-8.68-3.6-2.11-2.4-3.16-5.71-3.16-9.92v-19.12c0-.53,.17-.99,.52-1.36,.35-.37,.79-.56,1.32-.56s.99,.19,1.36,.56c.37,.37,.56,.83,.56,1.36v19.12c0,1.23,.19,2.6,.56,4.12,.37,1.52,1.13,2.84,2.28,3.96,1.15,1.12,2.89,1.68,5.24,1.68,3.15,0,5.59-.85,7.32-2.56,1.73-1.71,2.6-4.16,2.6-7.36v-19.04c0-.53,.19-1,.56-1.4,.37-.4,.83-.6,1.36-.6s.97,.2,1.32,.6c.35,.4,.52,.87,.52,1.4v30.88c0,.53-.17,.97-.52,1.32-.35,.35-.79,.52-1.32,.52s-.99-.17-1.36-.52c-.37-.35-.56-.79-.56-1.32v-2.48c-1.23,1.33-2.68,2.39-4.36,3.16s-3.53,1.16-5.56,1.16Z"/><path class="d" d="M891.12,731.6c-1.33,0-2.4-.49-3.2-1.48-.8-.99-1.2-2.15-1.2-3.48s.4-2.56,1.2-3.52c.8-.96,1.87-1.44,3.2-1.44s2.47,.48,3.24,1.44c.77,.96,1.16,2.13,1.16,3.52s-.39,2.49-1.16,3.48c-.77,.99-1.85,1.48-3.24,1.48Z"/></g></g></g></svg>