<?xml version="1.0" encoding="UTF-8"?><svg xmlns="http://www.w3.org/2000/svg" viewBox="0 0 604.43 188.11"><defs><style>.d{fill:#9255a2;}.e{fill:#fff;}.f{fill:#d283b7;}</style></defs><g id="a"/><g id="b"><g id="c"><g><g><path class="f" d="M348.93,70.26s-27.86-4.1,0-31.95"/><path class="f" d="M348.93,38.31c27.86,27.86,0,31.95,0,31.95"/></g><g><path class="d" d="M348.93,70.26s-27.86-4.1,0-31.95"/><path class="d" d="M348.93,38.31c27.86,27.86,0,31.95,0,31.95"/></g></g><g><path class="e" d="M171.88,31.91h-47.27v-6.19h101.61v6.19h-47.27V171.52h-7.07V31.91Z"/><path class="e" d="M311.05,164.31l-36.79-61.71h-32.69v68.92h-7.07V25.73h40.2c7.21,0,13.7,.7,19.44,2.1,5.74,1.4,10.64,3.61,14.69,6.63,4.05,3.02,7.18,6.89,9.39,11.6,2.21,4.71,3.31,10.46,3.31,17.23,0,11.64-3.5,20.73-10.49,27.28-7,6.55-16.61,10.42-28.83,11.6l41.53,69.36h0c-5.21,0-10.03-2.74-12.69-7.21Zm-39-67.9c13.55,0,23.93-2.69,31.15-8.06,7.21-5.37,10.82-13.73,10.82-25.07s-3.61-19.58-10.82-24.3c-7.22-4.71-17.6-7.07-31.15-7.07h-30.49V96.41h30.49Z"/><path class="e" d="M348.93,82.38h0c1.33,0,2.42,.83,2.42,1.86v72.85c0,1.03-1.08,1.86-2.42,1.86h0c-1.33,0-2.42-.83-2.42-1.86V84.23c0-1.03,1.08-1.86,2.42-1.86Z"/><path class="e" d="M507.76,8.77h94.01v2.32c0,2.83-2.29,5.12-5.12,5.12h-80.4V86.85h71.71v2.32c0,2.83-2.29,5.12-5.12,5.12h-66.59v82.33h88.17v2.32c0,2.83-2.29,5.12-5.12,5.12h-91.55V8.77Z"/><g><path class="e" d="M380.98,25.62h4.19V106.61c13.81-11.93,60.9-53.99,90.41-80.99h6.07l-70.53,63.2,74.71,84.13h-5.65l-71.99-81.41-23.02,20.09v61.32h-4.19V25.62Z"/><path class="e" d="M489.17,174.45h-3.86c-3.69,0-7.21-1.58-9.65-4.35l-67.6-76.45-21.38,18.66v62.14h-7.19V24.12h7.19V103.32c16.71-14.57,60.67-53.9,87.89-78.81l.43-.39h10.57l-72.33,64.82,75.94,85.51Zm-8.31-3h1.64l-73.49-82.75,68.72-61.58h-1.56c-28.77,26.31-75.71,68.28-90.01,80.62l-2.48,2.14V27.12h-1.19V171.45h1.19v-60.5l24.66-21.52,72.53,82.02Z"/></g><g><path class="e" d="M7.15,137.26c5.37,29.15,26.33,44.74,57.02,44.74,32.22,0,52.67-16.11,52.67-42.7s-10.99-37.33-52.67-48.58C27.86,81.02,10.73,70.53,10.73,43.94S30.93,1.5,63.4,1.5c39.37,0,52.67,23.52,55.48,43.46h-5.11C109.17,21.19,93.06,6.1,63.14,6.1c-27.87,0-47.04,12.53-47.04,37.33,0,23.27,13.81,33.24,48.58,42.19,47.81,12.27,57.53,28.12,57.53,53.18,0,29.4-21.99,47.81-58.29,47.81S6.89,166.92,1.78,137.26H7.15Z"/><path class="e" d="M63.91,188.11c-35.39,0-57.98-17.97-63.61-50.59l-.3-1.75H8.4l.23,1.23c5.17,28.06,24.89,43.52,55.54,43.52s51.17-15.79,51.17-41.2-12.05-36.46-51.56-47.13C28.4,82.71,9.23,72.22,9.23,43.94S29.99,0,63.4,0c45.72,0,55.07,31.3,56.97,44.76l.24,1.71h-8.08l-.24-1.21C107.53,20.62,90.53,7.6,63.14,7.6c-28.94,0-45.54,13.06-45.54,35.83,0,21.59,11.53,31.49,47.45,40.73,49.06,12.59,58.65,29.57,58.65,54.63,0,30.42-22.91,49.31-59.79,49.31ZM3.58,138.76c5.85,29.91,27.21,46.35,60.33,46.35,35.03,0,56.79-17.75,56.79-46.31,0-24.16-8.99-39.56-56.4-51.73-32.24-8.3-49.71-17.71-49.71-43.64C14.6,19.12,32.75,4.6,63.14,4.6c28.56,0,46.46,13.43,51.85,38.86h2.14c-2.7-15.88-13.4-40.46-53.73-40.46C31.84,3,12.23,18.69,12.23,43.94c0,26.49,17.62,36.05,52.32,45.34,40.71,10.99,53.78,23.15,53.78,50.03s-20.76,44.2-54.17,44.2c-31.34,0-52.51-16.29-58.25-44.74H3.58Z"/></g></g></g></g></svg>