<?xml version="1.0" encoding="UTF-8"?><svg xmlns="http://www.w3.org/2000/svg" viewBox="0 0 747.45 77.7"><defs><style>.f{fill:#9255a2;}.g{fill:#fff;}.h{isolation:isolate;}</style></defs><g id="a"/><g id="b"><g id="c"><g id="d"><g id="e"><rect class="f" width="747.45" height="77.7" rx="13.06" ry="13.06"/><g class="h" transform="translate(51.26 57.66)"><g class="h"><path class="g" d="M70.1,58.74c-4.68,0-8.33-1.31-10.95-3.93-2.62-2.62-3.93-6.27-3.93-10.95v-14.34c0-4.68,1.31-8.33,3.93-10.95,2.62-2.62,6.27-3.93,10.95-3.93,2.28,0,4.44,.5,6.48,1.5s3.76,2.4,5.16,4.2c.28,.32,.4,.68,.36,1.08-.04,.4-.22,.74-.54,1.02-.36,.24-.75,.33-1.17,.27-.42-.06-.75-.23-.99-.51-1.12-1.44-2.5-2.56-4.14-3.36-1.64-.8-3.36-1.2-5.16-1.2-3.72,0-6.63,1.05-8.73,3.15-2.1,2.1-3.15,5.01-3.15,8.73v14.34c0,3.72,1.05,6.63,3.15,8.73,2.1,2.1,5.01,3.15,8.73,3.15,1.8,0,3.52-.39,5.16-1.17,1.64-.78,3.02-1.89,4.14-3.33,.24-.32,.57-.51,.99-.57,.42-.06,.81,.05,1.17,.33,.32,.24,.5,.57,.54,.99,.04,.42-.08,.79-.36,1.11-1.4,1.8-3.12,3.19-5.16,4.17-2.04,.98-4.2,1.47-6.48,1.47Z"/><path class="g" d="M95,58.14c-1.6,0-2.89-.47-3.87-1.41-.98-.94-1.47-2.19-1.47-3.75V15.24c0-.4,.14-.74,.42-1.02s.62-.42,1.02-.42,.74,.14,1.02,.42c.28,.28,.42,.62,.42,1.02V52.98c0,.16,.03,.43,.09,.81,.06,.38,.27,.72,.63,1.02,.36,.3,.94,.45,1.74,.45h4.74c.4,0,.74,.14,1.02,.42,.28,.28,.42,.62,.42,1.02s-.14,.74-.42,1.02-.62,.42-1.02,.42h-4.74Z"/><path class="g" d="M113.3,58.5c-.4,0-.73-.13-.99-.39-.26-.26-.39-.59-.39-.99v-20.94h-6.9c-.4,0-.74-.15-1.02-.45-.28-.3-.42-.65-.42-1.05s.14-.73,.42-.99c.28-.26,.62-.39,1.02-.39h8.28c.44,0,.8,.13,1.08,.39,.28,.26,.42,.59,.42,.99v22.44c0,.4-.14,.73-.42,.99-.28,.26-.64,.39-1.08,.39Zm-.72-36.06c-.56,0-1.02-.16-1.38-.48-.36-.32-.54-.68-.54-1.08v-3.72c0-.4,.18-.77,.54-1.11,.36-.34,.82-.51,1.38-.51s1.01,.17,1.35,.51c.34,.34,.51,.71,.51,1.11v3.72c0,.4-.17,.76-.51,1.08-.34,.32-.79,.48-1.35,.48Z"/><path class="g" d="M133.1,58.44c-3.4,0-6.08-1.17-8.04-3.51-1.96-2.34-2.94-5.51-2.94-9.51s.98-7.22,2.94-9.54c1.96-2.32,4.64-3.48,8.04-3.48s5.96,1.14,7.92,3.42c.28,.28,.41,.62,.39,1.02-.02,.4-.19,.74-.51,1.02-.28,.24-.62,.35-1.02,.33-.4-.02-.74-.17-1.02-.45-1.36-1.6-3.28-2.4-5.76-2.4s-4.56,.88-6,2.64c-1.44,1.76-2.16,4.24-2.16,7.44s.72,5.74,2.16,7.5c1.44,1.76,3.44,2.64,6,2.64s4.44-.78,5.76-2.34c.28-.32,.62-.5,1.02-.54,.4-.04,.74,.08,1.02,.36,.32,.24,.49,.56,.51,.96,.02,.4-.11,.76-.39,1.08-2,2.24-4.64,3.36-7.92,3.36Z"/><path class="g" d="M149.24,58.44c-.4,0-.74-.13-1.02-.39-.28-.26-.42-.59-.42-.99V15.18c0-.4,.14-.74,.42-1.02s.62-.42,1.02-.42,.74,.14,1.02,.42c.28,.28,.42,.62,.42,1.02v28.74l13.56-11.16c.32-.24,.67-.34,1.05-.3,.38,.04,.71,.22,.99,.54,.2,.28,.29,.61,.27,.99-.02,.38-.19,.71-.51,.99l-9.24,7.56,10.2,13.62c.28,.28,.38,.62,.3,1.02-.08,.4-.28,.72-.6,.96-.28,.24-.62,.33-1.02,.27-.4-.06-.72-.23-.96-.51l-10.08-13.56-3.96,3.24v9.48c0,.4-.14,.73-.42,.99-.28,.26-.62,.39-1.02,.39Z"/></g><g class="h"><path class="g" d="M207.5,58.5c-.4,0-.74-.13-1.02-.39-.28-.26-.42-.59-.42-.99v-.48l-7.38,1.44c-1.84,.36-3.4,.46-4.68,.3-1.28-.16-2.36-.56-3.24-1.2-.64-.52-1.15-1.17-1.53-1.95-.38-.78-.61-1.67-.69-2.67-.24-2.32,.27-4.23,1.53-5.73,1.26-1.5,3.21-2.47,5.85-2.91l10.14-1.74v-1.68c0-.8-.13-1.65-.39-2.55-.26-.9-.79-1.57-1.59-2.01-.64-.4-1.46-.6-2.46-.6-2.48,0-5.54,1.12-9.18,3.36-.36,.2-.72,.25-1.08,.15-.36-.1-.64-.31-.84-.63-.24-.36-.31-.73-.21-1.11,.1-.38,.31-.65,.63-.81,2.36-1.44,4.42-2.43,6.18-2.97,1.76-.54,3.26-.81,4.5-.81,.84,0,1.57,.09,2.19,.27,.62,.18,1.15,.39,1.59,.63,1.16,.64,2.04,1.57,2.64,2.79,.6,1.22,.9,2.65,.9,4.29v16.62c0,.4-.13,.73-.39,.99-.26,.26-.61,.39-1.05,.39Zm-9.3-3.3l7.86-1.44v-8.7l-9.6,1.62c-1.64,.28-2.83,.74-3.57,1.38-.74,.64-1.19,1.33-1.35,2.07-.16,.74-.22,1.45-.18,2.13,.12,1.24,.5,2.1,1.14,2.58,.96,.72,2.86,.84,5.7,.36Z"/></g><g class="h"><path class="g" d="M215.96,58.44c-.4,0-.73-.13-.99-.39s-.39-.59-.39-.99v-23.28c0-.4,.13-.74,.39-1.02,.26-.28,.59-.42,.99-.42s.74,.14,1.02,.42c.28,.28,.42,.62,.42,1.02v1.98c.92-1.04,2.02-1.86,3.3-2.46,1.28-.6,2.66-.9,4.14-.9,2.76,0,4.93,.91,6.51,2.73,1.58,1.82,2.37,4.29,2.37,7.41v14.4c0,.4-.13,.74-.39,1.02-.26,.28-.59,.42-.99,.42s-.74-.14-1.02-.42-.42-.62-.42-1.02v-14.4c0-.92-.14-1.94-.42-3.06-.28-1.12-.85-2.09-1.71-2.91-.86-.82-2.17-1.23-3.93-1.23-2.32,0-4.14,.64-5.46,1.92-1.32,1.28-1.98,3.1-1.98,5.46v14.34c0,.4-.14,.73-.42,.99-.28,.26-.62,.39-1.02,.39Z"/><path class="g" d="M245.24,70.98c-.4-.16-.68-.42-.84-.78-.16-.36-.16-.72,0-1.08l4.44-11.28-9.42-23.46c-.16-.36-.16-.72,0-1.08,.16-.36,.42-.62,.78-.78,.36-.12,.72-.11,1.08,.03,.36,.14,.62,.41,.78,.81l8.34,20.64,8.16-20.64c.16-.4,.41-.67,.75-.81,.34-.14,.71-.15,1.11-.03,.36,.16,.62,.42,.78,.78,.16,.36,.16,.72,0,1.08l-14.16,35.82c-.16,.36-.41,.61-.75,.75-.34,.14-.69,.15-1.05,.03Z"/><path class="g" d="M271.46,58.44c-.72-.08-1.14-.46-1.26-1.14l-4.44-23.22c-.04-.4,.04-.77,.24-1.11,.2-.34,.5-.55,.9-.63,.4-.04,.76,.05,1.08,.27,.32,.22,.52,.51,.6,.87l3.6,18.9,5.94-12.9c.28-.56,.72-.84,1.32-.84s1.04,.28,1.32,.84l5.94,12.9,3.54-18.78c.08-.4,.28-.71,.6-.93,.32-.22,.68-.29,1.08-.21,.4,.04,.71,.23,.93,.57,.22,.34,.29,.71,.21,1.11l-4.44,23.16c-.12,.68-.52,1.06-1.2,1.14-.72,.08-1.22-.2-1.5-.84l-6.48-14.1-6.54,14.1c-.28,.64-.76,.92-1.44,.84Z"/><path class="g" d="M301.28,58.5c-.4,0-.74-.13-1.02-.39-.28-.26-.42-.59-.42-.99V15.18c0-.4,.14-.74,.42-1.02s.62-.42,1.02-.42,.74,.14,1.02,.42c.28,.28,.42,.62,.42,1.02v20.52c.92-1.04,2.02-1.85,3.3-2.43,1.28-.58,2.66-.87,4.14-.87,2.76,0,4.93,.91,6.51,2.73,1.58,1.82,2.37,4.27,2.37,7.35v14.58c0,.4-.13,.73-.39,.99-.26,.26-.59,.39-.99,.39s-.74-.13-1.02-.39c-.28-.26-.42-.59-.42-.99v-14.58c0-.92-.14-1.94-.42-3.06-.28-1.12-.85-2.09-1.71-2.91-.86-.82-2.17-1.23-3.93-1.23-2.08,0-3.84,.64-5.28,1.92-1.44,1.28-2.16,3.1-2.16,5.46v14.46c0,.4-.14,.73-.42,.99-.28,.26-.62,.39-1.02,.39Z"/><path class="g" d="M336.26,58.44c-3.4,0-6.08-1.17-8.04-3.51-1.96-2.34-2.94-5.51-2.94-9.51s.98-7.22,2.94-9.54c1.96-2.32,4.64-3.48,8.04-3.48,2.96,0,5.45,1.02,7.47,3.06,2.02,2.04,3.11,4.8,3.27,8.28v.18c0,.36-.14,.68-.42,.96-.24,.28-.58,.42-1.02,.42h-17.4c0,3.08,.65,5.56,1.95,7.44,1.3,1.88,3.35,2.82,6.15,2.82,1.44,0,2.79-.31,4.05-.93,1.26-.62,2.23-1.43,2.91-2.43,.24-.32,.55-.52,.93-.6,.38-.08,.73,0,1.05,.24,.32,.2,.52,.5,.6,.9,.08,.4,0,.76-.24,1.08-.96,1.4-2.27,2.52-3.93,3.36-1.66,.84-3.45,1.26-5.37,1.26Zm-7.92-15.96h15.54c-.4-2.28-1.27-4.04-2.61-5.28-1.34-1.24-3.01-1.86-5.01-1.86-2.16,0-3.91,.62-5.25,1.86-1.34,1.24-2.23,3-2.67,5.28Z"/><path class="g" d="M355.22,58.44c-.4,0-.74-.14-1.02-.42s-.42-.6-.42-.96v-23.16c0-.4,.14-.74,.42-1.02s.62-.42,1.02-.42,.73,.14,.99,.42c.26,.28,.39,.62,.39,1.02v1.5c.6-.72,1.44-1.35,2.52-1.89,1.08-.54,2.12-.89,3.12-1.05,1.4-.2,2.82-.09,4.26,.33s2.73,1.13,3.87,2.13c1.14,1,1.93,2.32,2.37,3.96,.12,.36,.08,.71-.12,1.05-.2,.34-.48,.57-.84,.69-.4,.08-.77,.02-1.11-.18-.34-.2-.55-.48-.63-.84-.32-1.16-.88-2.08-1.68-2.76-.8-.68-1.71-1.14-2.73-1.38s-2.01-.28-2.97-.12c-1.72,.2-3.16,.84-4.32,1.92-1.16,1.08-1.74,2.8-1.74,5.16v14.64c0,.36-.13,.68-.39,.96-.26,.28-.59,.42-.99,.42Z"/><path class="g" d="M388.82,58.44c-3.4,0-6.08-1.17-8.04-3.51-1.96-2.34-2.94-5.51-2.94-9.51s.98-7.22,2.94-9.54c1.96-2.32,4.64-3.48,8.04-3.48,2.96,0,5.45,1.02,7.47,3.06,2.02,2.04,3.11,4.8,3.27,8.28v.18c0,.36-.14,.68-.42,.96-.24,.28-.58,.42-1.02,.42h-17.4c0,3.08,.65,5.56,1.95,7.44,1.3,1.88,3.35,2.82,6.15,2.82,1.44,0,2.79-.31,4.05-.93,1.26-.62,2.23-1.43,2.91-2.43,.24-.32,.55-.52,.93-.6s.73,0,1.05,.24c.32,.2,.52,.5,.6,.9,.08,.4,0,.76-.24,1.08-.96,1.4-2.27,2.52-3.93,3.36-1.66,.84-3.45,1.26-5.37,1.26Zm-7.92-15.96h15.54c-.4-2.28-1.27-4.04-2.61-5.28-1.34-1.24-3.01-1.86-5.01-1.86-2.16,0-3.91,.62-5.25,1.86-1.34,1.24-2.23,3-2.67,5.28Z"/></g><g class="h"><path class="g" d="M432.74,58.14c-1.64,0-2.93-.47-3.87-1.41-.94-.94-1.41-2.19-1.41-3.75v-16.86h-5.76c-.4,0-.73-.14-.99-.42-.26-.28-.39-.62-.39-1.02s.13-.73,.39-.99,.59-.39,.99-.39h5.76v-8.82c0-.4,.13-.74,.39-1.02,.26-.28,.59-.42,.99-.42s.74,.14,1.02,.42c.28,.28,.42,.62,.42,1.02v8.82h7.44c.4,0,.74,.13,1.02,.39,.28,.26,.42,.59,.42,.99s-.14,.74-.42,1.02-.62,.42-1.02,.42h-7.44v16.86c0,.16,.03,.43,.09,.81,.06,.38,.27,.72,.63,1.02,.36,.3,.94,.45,1.74,.45h4.68c.44,0,.8,.14,1.08,.42,.28,.28,.42,.62,.42,1.02s-.14,.74-.42,1.02-.64,.42-1.08,.42h-4.68Z"/></g><g class="h"><path class="g" d="M453.98,58.44c-3.4,0-6.08-1.17-8.04-3.51-1.96-2.34-2.94-5.51-2.94-9.51s.98-7.22,2.94-9.54c1.96-2.32,4.64-3.48,8.04-3.48s6.03,1.16,8.01,3.48c1.98,2.32,2.97,5.5,2.97,9.54s-.99,7.17-2.97,9.51c-1.98,2.34-4.65,3.51-8.01,3.51Zm0-2.88c2.6,0,4.6-.88,6-2.64,1.4-1.76,2.1-4.26,2.1-7.5s-.7-5.68-2.1-7.44c-1.4-1.76-3.4-2.64-6-2.64s-4.56,.88-6,2.64c-1.44,1.76-2.16,4.24-2.16,7.44s.72,5.74,2.16,7.5c1.44,1.76,3.44,2.64,6,2.64Z"/><path class="g" d="M497.78,58.44c-3.4,0-6.08-1.17-8.04-3.51-1.96-2.34-2.94-5.51-2.94-9.51s.98-7.22,2.94-9.54c1.96-2.32,4.64-3.48,8.04-3.48s5.96,1.14,7.92,3.42c.28,.28,.41,.62,.39,1.02-.02,.4-.19,.74-.51,1.02-.28,.24-.62,.35-1.02,.33-.4-.02-.74-.17-1.02-.45-1.36-1.6-3.28-2.4-5.76-2.4s-4.56,.88-6,2.64c-1.44,1.76-2.16,4.24-2.16,7.44s.72,5.74,2.16,7.5c1.44,1.76,3.44,2.64,6,2.64s4.44-.78,5.76-2.34c.28-.32,.62-.5,1.02-.54,.4-.04,.74,.08,1.02,.36,.32,.24,.49,.56,.51,.96,.02,.4-.11,.76-.39,1.08-2,2.24-4.64,3.36-7.92,3.36Z"/><path class="g" d="M521.78,58.44c-3.4,0-6.08-1.17-8.04-3.51-1.96-2.34-2.94-5.51-2.94-9.51s.98-7.22,2.94-9.54c1.96-2.32,4.64-3.48,8.04-3.48s6.03,1.16,8.01,3.48c1.98,2.32,2.97,5.5,2.97,9.54s-.99,7.17-2.97,9.51c-1.98,2.34-4.65,3.51-8.01,3.51Zm0-2.88c2.6,0,4.6-.88,6-2.64,1.4-1.76,2.1-4.26,2.1-7.5s-.7-5.68-2.1-7.44c-1.4-1.76-3.4-2.64-6-2.64s-4.56,.88-6,2.64c-1.44,1.76-2.16,4.24-2.16,7.44s.72,5.74,2.16,7.5c1.44,1.76,3.44,2.64,6,2.64Z"/><path class="g" d="M540.38,58.44c-.4,0-.73-.13-.99-.39s-.39-.59-.39-.99v-23.28c0-.4,.13-.74,.39-1.02,.26-.28,.59-.42,.99-.42s.74,.14,1.02,.42c.28,.28,.42,.62,.42,1.02v1.98c.92-1.04,2.02-1.86,3.3-2.46,1.28-.6,2.66-.9,4.14-.9,2.76,0,4.93,.91,6.51,2.73,1.58,1.82,2.37,4.29,2.37,7.41v14.4c0,.4-.13,.74-.39,1.02-.26,.28-.59,.42-.99,.42s-.74-.14-1.02-.42-.42-.62-.42-1.02v-14.4c0-.92-.14-1.94-.42-3.06-.28-1.12-.85-2.09-1.71-2.91-.86-.82-2.17-1.23-3.93-1.23-2.32,0-4.14,.64-5.46,1.92-1.32,1.28-1.98,3.1-1.98,5.46v14.34c0,.4-.14,.73-.42,.99-.28,.26-.62,.39-1.02,.39Z"/><path class="g" d="M575.18,58.14c-1.64,0-2.93-.47-3.87-1.41-.94-.94-1.41-2.19-1.41-3.75v-16.86h-5.76c-.4,0-.73-.14-.99-.42-.26-.28-.39-.62-.39-1.02s.13-.73,.39-.99c.26-.26,.59-.39,.99-.39h5.76v-8.82c0-.4,.13-.74,.39-1.02,.26-.28,.59-.42,.99-.42s.74,.14,1.02,.42c.28,.28,.42,.62,.42,1.02v8.82h7.44c.4,0,.74,.13,1.02,.39,.28,.26,.42,.59,.42,.99s-.14,.74-.42,1.02-.62,.42-1.02,.42h-7.44v16.86c0,.16,.03,.43,.09,.81,.06,.38,.27,.72,.63,1.02,.36,.3,.94,.45,1.74,.45h4.68c.44,0,.8,.14,1.08,.42,.28,.28,.42,.62,.42,1.02s-.14,.74-.42,1.02-.64,.42-1.08,.42h-4.68Z"/><path class="g" d="M594.74,58.5c-.4,0-.73-.13-.99-.39s-.39-.59-.39-.99v-20.94h-6.9c-.4,0-.74-.15-1.02-.45-.28-.3-.42-.65-.42-1.05s.14-.73,.42-.99c.28-.26,.62-.39,1.02-.39h8.28c.44,0,.8,.13,1.08,.39,.28,.26,.42,.59,.42,.99v22.44c0,.4-.14,.73-.42,.99-.28,.26-.64,.39-1.08,.39Zm-.72-36.06c-.56,0-1.02-.16-1.38-.48-.36-.32-.54-.68-.54-1.08v-3.72c0-.4,.18-.77,.54-1.11,.36-.34,.82-.51,1.38-.51s1.01,.17,1.35,.51c.34,.34,.51,.71,.51,1.11v3.72c0,.4-.17,.76-.51,1.08-.34,.32-.79,.48-1.35,.48Z"/><path class="g" d="M605.54,58.44c-.4,0-.73-.13-.99-.39s-.39-.59-.39-.99v-23.28c0-.4,.13-.74,.39-1.02,.26-.28,.59-.42,.99-.42s.74,.14,1.02,.42c.28,.28,.42,.62,.42,1.02v1.98c.92-1.04,2.02-1.86,3.3-2.46,1.28-.6,2.66-.9,4.14-.9,2.76,0,4.93,.91,6.51,2.73,1.58,1.82,2.37,4.29,2.37,7.41v14.4c0,.4-.13,.74-.39,1.02-.26,.28-.59,.42-.99,.42s-.74-.14-1.02-.42-.42-.62-.42-1.02v-14.4c0-.92-.14-1.94-.42-3.06-.28-1.12-.85-2.09-1.71-2.91-.86-.82-2.17-1.23-3.93-1.23-2.32,0-4.14,.64-5.46,1.92-1.32,1.28-1.98,3.1-1.98,5.46v14.34c0,.4-.14,.73-.42,.99-.28,.26-.62,.39-1.02,.39Z"/><path class="g" d="M639.02,58.44c-2.76,0-4.93-.9-6.51-2.7s-2.37-4.28-2.37-7.44v-14.34c0-.4,.13-.74,.39-1.02,.26-.28,.59-.42,.99-.42s.74,.14,1.02,.42c.28,.28,.42,.62,.42,1.02v14.34c0,.92,.14,1.95,.42,3.09,.28,1.14,.85,2.13,1.71,2.97,.86,.84,2.17,1.26,3.93,1.26,2.36,0,4.19-.64,5.49-1.92,1.3-1.28,1.95-3.12,1.95-5.52v-14.28c0-.4,.14-.75,.42-1.05,.28-.3,.62-.45,1.02-.45s.73,.15,.99,.45c.26,.3,.39,.65,.39,1.05v23.16c0,.4-.13,.73-.39,.99-.26,.26-.59,.39-.99,.39s-.74-.13-1.02-.39c-.28-.26-.42-.59-.42-.99v-1.86c-.92,1-2.01,1.79-3.27,2.37-1.26,.58-2.65,.87-4.17,.87Z"/><path class="g" d="M666.5,58.44c-3.4,0-6.08-1.17-8.04-3.51-1.96-2.34-2.94-5.51-2.94-9.51s.98-7.22,2.94-9.54c1.96-2.32,4.64-3.48,8.04-3.48,2.96,0,5.45,1.02,7.47,3.06,2.02,2.04,3.11,4.8,3.27,8.28v.18c0,.36-.14,.68-.42,.96-.24,.28-.58,.42-1.02,.42h-17.4c0,3.08,.65,5.56,1.95,7.44,1.3,1.88,3.35,2.82,6.15,2.82,1.44,0,2.79-.31,4.05-.93,1.26-.62,2.23-1.43,2.91-2.43,.24-.32,.55-.52,.93-.6,.38-.08,.73,0,1.05,.24,.32,.2,.52,.5,.6,.9,.08,.4,0,.76-.24,1.08-.96,1.4-2.27,2.52-3.93,3.36-1.66,.84-3.45,1.26-5.37,1.26Zm-7.92-15.96h15.54c-.4-2.28-1.27-4.04-2.61-5.28-1.34-1.24-3.01-1.86-5.01-1.86-2.16,0-3.91,.62-5.25,1.86-1.34,1.24-2.23,3-2.67,5.28Z"/><path class="g" d="M688.4,58.44c-1,0-1.8-.37-2.4-1.11-.6-.74-.9-1.61-.9-2.61s.3-1.92,.9-2.64c.6-.72,1.4-1.08,2.4-1.08s1.85,.36,2.43,1.08,.87,1.6,.87,2.64-.29,1.87-.87,2.61c-.58,.74-1.39,1.11-2.43,1.11Z"/></g></g></g></g></g></g></svg>