<?xml version="1.0" encoding="UTF-8"?><svg xmlns="http://www.w3.org/2000/svg" viewBox="0 0 1349.62 63.73"><defs><style>.d{fill:#fff;}</style></defs><g id="a"/><g id="b"><g id="c"><g><path class="d" d="M2.14,63.64c-.57,0-1.07-.2-1.5-.6-.43-.4-.64-.88-.64-1.45V3.59c0-.57,.21-1.07,.64-1.5,.43-.43,.93-.64,1.5-.64,.63,0,1.14,.21,1.54,.64,.4,.43,.6,.93,.6,1.5V29.04h31.27V3.59c0-.57,.21-1.07,.64-1.5s.92-.64,1.5-.64c.63,0,1.12,.21,1.49,.64,.37,.43,.56,.93,.56,1.5V61.59c0,.57-.19,1.05-.56,1.45-.37,.4-.87,.6-1.49,.6-.57,0-1.07-.2-1.5-.6-.43-.4-.64-.88-.64-1.45v-28.28H4.27v28.28c0,.57-.2,1.05-.6,1.45-.4,.4-.91,.6-1.54,.6Z"/><path class="d" d="M65.86,63.64c-4.84,0-8.66-1.67-11.45-5-2.79-3.33-4.19-7.84-4.19-13.54s1.39-10.28,4.19-13.58c2.79-3.3,6.61-4.95,11.45-4.95s8.58,1.65,11.4,4.95c2.82,3.3,4.23,7.83,4.23,13.58s-1.41,10.21-4.23,13.54c-2.82,3.33-6.62,5-11.4,5Zm0-4.1c3.7,0,6.55-1.25,8.54-3.76,1.99-2.5,2.99-6.06,2.99-10.68s-1-8.09-2.99-10.59c-1.99-2.5-4.84-3.76-8.54-3.76s-6.49,1.25-8.54,3.76c-2.05,2.51-3.08,6.04-3.08,10.59s1.03,8.17,3.08,10.68c2.05,2.51,4.9,3.76,8.54,3.76Z"/><path class="d" d="M101.31,63.64c-.91,0-1.54-.43-1.88-1.28l-13.24-32.89c-.23-.51-.23-1.03,0-1.54,.23-.51,.6-.88,1.11-1.11,.51-.17,1.03-.16,1.54,.04,.51,.2,.88,.56,1.11,1.07l11.36,28.28,11.53-28.28c.23-.57,.6-.95,1.11-1.15,.51-.2,1.03-.21,1.54-.04,.46,.23,.81,.6,1.07,1.11s.24,1.03-.04,1.54l-13.24,32.97c-.34,.85-1,1.28-1.96,1.28Z"/><path class="d" d="M136.85,63.64c-4.84,0-8.66-1.67-11.45-5-2.79-3.33-4.19-7.84-4.19-13.54s1.39-10.28,4.19-13.58c2.79-3.3,6.61-4.95,11.45-4.95,4.21,0,7.76,1.45,10.64,4.36,2.88,2.9,4.43,6.83,4.66,11.79v.26c0,.51-.2,.97-.6,1.37-.34,.4-.83,.6-1.45,.6h-24.77c0,4.39,.93,7.92,2.78,10.59,1.85,2.68,4.77,4.01,8.76,4.01,2.05,0,3.97-.44,5.77-1.32,1.79-.88,3.17-2.04,4.14-3.46,.34-.46,.78-.74,1.32-.85,.54-.11,1.04,0,1.49,.34,.46,.29,.74,.71,.85,1.28,.11,.57,0,1.08-.34,1.54-1.37,1.99-3.23,3.59-5.6,4.78-2.36,1.2-4.91,1.79-7.65,1.79Zm-11.28-22.72h22.12c-.57-3.25-1.81-5.75-3.72-7.52-1.91-1.76-4.29-2.65-7.13-2.65-3.08,0-5.57,.88-7.47,2.65-1.91,1.77-3.18,4.27-3.8,7.52Z"/><path class="d" d="M163.84,63.64c-.57,0-1.05-.2-1.45-.6-.4-.4-.6-.85-.6-1.37V28.7c0-.57,.2-1.05,.6-1.45,.4-.4,.88-.6,1.45-.6s1.04,.2,1.41,.6c.37,.4,.56,.88,.56,1.45v2.14c.85-1.03,2.05-1.92,3.59-2.69s3.02-1.27,4.44-1.5c1.99-.28,4.02-.13,6.07,.47,2.05,.6,3.89,1.61,5.51,3.03,1.62,1.42,2.75,3.3,3.37,5.64,.17,.51,.11,1.01-.17,1.5-.29,.48-.68,.81-1.2,.98-.57,.12-1.1,.03-1.58-.26-.48-.29-.78-.68-.9-1.2-.46-1.65-1.25-2.96-2.39-3.93-1.14-.97-2.43-1.62-3.89-1.96s-2.86-.4-4.23-.17c-2.45,.29-4.5,1.2-6.15,2.73-1.65,1.54-2.48,3.99-2.48,7.35v20.84c0,.51-.19,.97-.56,1.37-.37,.4-.84,.6-1.41,.6Z"/><path class="d" d="M234.75,63.64c-4.84,0-8.66-1.67-11.45-5-2.79-3.33-4.19-7.84-4.19-13.54s1.39-10.28,4.19-13.58c2.79-3.3,6.61-4.95,11.45-4.95s8.58,1.65,11.4,4.95c2.82,3.3,4.23,7.83,4.23,13.58s-1.41,10.21-4.23,13.54c-2.82,3.33-6.62,5-11.4,5Zm0-4.1c3.7,0,6.55-1.25,8.54-3.76,1.99-2.5,2.99-6.06,2.99-10.68s-1-8.09-2.99-10.59c-1.99-2.5-4.84-3.76-8.54-3.76s-6.49,1.25-8.54,3.76c-2.05,2.51-3.08,6.04-3.08,10.59s1.03,8.17,3.08,10.68c2.05,2.51,4.9,3.76,8.54,3.76Z"/><path class="d" d="M270.2,63.64c-.91,0-1.54-.43-1.88-1.28l-13.24-32.89c-.23-.51-.23-1.03,0-1.54,.23-.51,.6-.88,1.11-1.11,.51-.17,1.03-.16,1.54,.04,.51,.2,.88,.56,1.11,1.07l11.36,28.28,11.53-28.28c.23-.57,.6-.95,1.11-1.15,.51-.2,1.03-.21,1.54-.04,.46,.23,.81,.6,1.07,1.11s.24,1.03-.04,1.54l-13.24,32.97c-.34,.85-1,1.28-1.96,1.28Z"/><path class="d" d="M305.73,63.64c-4.84,0-8.66-1.67-11.45-5-2.79-3.33-4.19-7.84-4.19-13.54s1.39-10.28,4.19-13.58c2.79-3.3,6.61-4.95,11.45-4.95,4.21,0,7.76,1.45,10.64,4.36,2.88,2.9,4.43,6.83,4.66,11.79v.26c0,.51-.2,.97-.6,1.37-.34,.4-.83,.6-1.45,.6h-24.77c0,4.39,.93,7.92,2.78,10.59,1.85,2.68,4.77,4.01,8.76,4.01,2.05,0,3.97-.44,5.77-1.32,1.79-.88,3.17-2.04,4.14-3.46,.34-.46,.78-.74,1.32-.85,.54-.11,1.04,0,1.49,.34,.46,.29,.74,.71,.85,1.28,.11,.57,0,1.08-.34,1.54-1.37,1.99-3.23,3.59-5.6,4.78-2.36,1.2-4.91,1.79-7.65,1.79Zm-11.28-22.72h22.12c-.57-3.25-1.81-5.75-3.72-7.52-1.91-1.76-4.29-2.65-7.13-2.65-3.08,0-5.57,.88-7.47,2.65-1.91,1.77-3.18,4.27-3.8,7.52Z"/><path class="d" d="M332.73,63.64c-.57,0-1.05-.2-1.45-.6-.4-.4-.6-.85-.6-1.37V28.7c0-.57,.2-1.05,.6-1.45,.4-.4,.88-.6,1.45-.6s1.04,.2,1.41,.6c.37,.4,.56,.88,.56,1.45v2.14c.85-1.03,2.05-1.92,3.59-2.69s3.02-1.27,4.44-1.5c1.99-.28,4.02-.13,6.07,.47,2.05,.6,3.89,1.61,5.51,3.03,1.62,1.42,2.75,3.3,3.37,5.64,.17,.51,.11,1.01-.17,1.5-.29,.48-.68,.81-1.2,.98-.57,.12-1.1,.03-1.58-.26-.48-.29-.78-.68-.9-1.2-.46-1.65-1.25-2.96-2.39-3.93-1.14-.97-2.43-1.62-3.89-1.96s-2.86-.4-4.23-.17c-2.45,.29-4.5,1.2-6.15,2.73-1.65,1.54-2.48,3.99-2.48,7.35v20.84c0,.51-.19,.97-.56,1.37-.37,.4-.84,.6-1.41,.6Z"/><path class="d" d="M403.37,63.21c-2.34,0-4.17-.67-5.51-2.01-1.34-1.34-2.01-3.12-2.01-5.34V31.86h-8.2c-.57,0-1.04-.2-1.41-.6-.37-.4-.56-.88-.56-1.45s.18-1.04,.56-1.41c.37-.37,.84-.56,1.41-.56h8.2V15.29c0-.57,.18-1.05,.56-1.45,.37-.4,.84-.6,1.41-.6s1.05,.2,1.45,.6c.4,.4,.6,.88,.6,1.45v12.56h10.59c.57,0,1.05,.19,1.45,.56,.4,.37,.6,.84,.6,1.41s-.2,1.05-.6,1.45c-.4,.4-.88,.6-1.45,.6h-10.59v24c0,.23,.04,.61,.13,1.15,.09,.54,.38,1.03,.9,1.45,.51,.43,1.34,.64,2.48,.64h6.66c.63,0,1.14,.2,1.54,.6,.4,.4,.6,.88,.6,1.45s-.2,1.05-.6,1.45c-.4,.4-.91,.6-1.54,.6h-6.66Z"/><path class="d" d="M424.13,63.73c-.57,0-1.05-.19-1.45-.56-.4-.37-.6-.84-.6-1.41V2.05c0-.57,.2-1.05,.6-1.45,.4-.4,.88-.6,1.45-.6s1.05,.2,1.45,.6c.4,.4,.6,.88,.6,1.45V31.27c1.31-1.48,2.88-2.63,4.7-3.46,1.82-.82,3.79-1.24,5.89-1.24,3.93,0,7.02,1.3,9.27,3.89,2.25,2.59,3.37,6.08,3.37,10.46v20.76c0,.57-.19,1.04-.56,1.41-.37,.37-.84,.55-1.41,.55s-1.05-.19-1.45-.55c-.4-.37-.6-.84-.6-1.41v-20.76c0-1.31-.2-2.76-.6-4.36-.4-1.59-1.21-2.97-2.43-4.14-1.23-1.17-3.09-1.75-5.6-1.75-2.96,0-5.47,.91-7.52,2.73-2.05,1.82-3.08,4.41-3.08,7.77v20.59c0,.57-.2,1.04-.6,1.41-.4,.37-.88,.56-1.45,.56Z"/><path class="d" d="M473.93,63.64c-4.84,0-8.66-1.67-11.45-5-2.79-3.33-4.19-7.84-4.19-13.54s1.39-10.28,4.19-13.58c2.79-3.3,6.61-4.95,11.45-4.95,4.21,0,7.76,1.45,10.64,4.36,2.88,2.9,4.43,6.83,4.66,11.79v.26c0,.51-.2,.97-.6,1.37-.34,.4-.83,.6-1.45,.6h-24.77c0,4.39,.93,7.92,2.78,10.59,1.85,2.68,4.77,4.01,8.76,4.01,2.05,0,3.97-.44,5.77-1.32,1.79-.88,3.17-2.04,4.14-3.46,.34-.46,.78-.74,1.32-.85,.54-.11,1.04,0,1.49,.34,.46,.29,.74,.71,.85,1.28,.11,.57,0,1.08-.34,1.54-1.37,1.99-3.23,3.59-5.6,4.78-2.36,1.2-4.91,1.79-7.65,1.79Zm-11.28-22.72h22.12c-.57-3.25-1.81-5.75-3.72-7.52-1.91-1.76-4.29-2.65-7.13-2.65-3.08,0-5.57,.88-7.47,2.65-1.91,1.77-3.18,4.27-3.8,7.52Z"/><path class="d" d="M536.72,63.64c-4.84,0-8.66-1.67-11.45-5-2.79-3.33-4.19-7.84-4.19-13.54s1.39-10.28,4.19-13.58c2.79-3.3,6.61-4.95,11.45-4.95s8.48,1.62,11.28,4.87c.4,.4,.58,.88,.56,1.45-.03,.57-.27,1.05-.73,1.45-.4,.34-.88,.5-1.45,.47-.57-.03-1.05-.24-1.45-.64-1.94-2.28-4.67-3.42-8.2-3.42s-6.49,1.25-8.54,3.76c-2.05,2.51-3.08,6.04-3.08,10.59s1.03,8.17,3.08,10.68c2.05,2.51,4.9,3.76,8.54,3.76s6.32-1.11,8.2-3.33c.4-.46,.88-.71,1.45-.77,.57-.06,1.05,.11,1.45,.51,.46,.34,.7,.8,.73,1.37,.03,.57-.16,1.08-.56,1.54-2.85,3.19-6.61,4.78-11.28,4.78Z"/><path class="d" d="M559.7,63.73c-.57,0-1.05-.19-1.45-.56-.4-.37-.6-.84-.6-1.41V2.05c0-.57,.2-1.05,.6-1.45,.4-.4,.88-.6,1.45-.6s1.05,.2,1.45,.6c.4,.4,.6,.88,.6,1.45V31.27c1.31-1.48,2.88-2.63,4.7-3.46,1.82-.82,3.79-1.24,5.89-1.24,3.93,0,7.02,1.3,9.27,3.89,2.25,2.59,3.37,6.08,3.37,10.46v20.76c0,.57-.19,1.04-.56,1.41-.37,.37-.84,.55-1.41,.55s-1.05-.19-1.45-.55c-.4-.37-.6-.84-.6-1.41v-20.76c0-1.31-.2-2.76-.6-4.36-.4-1.59-1.21-2.97-2.43-4.14-1.23-1.17-3.09-1.75-5.6-1.75-2.96,0-5.47,.91-7.52,2.73-2.05,1.82-3.08,4.41-3.08,7.77v20.59c0,.57-.2,1.04-.6,1.41-.4,.37-.88,.56-1.45,.56Z"/><path class="d" d="M621.2,63.73c-.57,0-1.05-.19-1.45-.56-.4-.37-.6-.84-.6-1.41v-.68l-10.51,2.05c-2.62,.51-4.84,.65-6.66,.43-1.82-.23-3.36-.8-4.61-1.71-.91-.74-1.64-1.67-2.18-2.78-.54-1.11-.87-2.38-.98-3.8-.34-3.3,.38-6.02,2.18-8.16s4.57-3.52,8.33-4.14l14.44-2.48v-2.39c0-1.14-.19-2.35-.56-3.63-.37-1.28-1.12-2.23-2.26-2.86-.91-.57-2.08-.85-3.5-.85-3.53,0-7.89,1.59-13.07,4.78-.51,.29-1.02,.36-1.54,.21-.51-.14-.91-.44-1.2-.9-.34-.51-.44-1.04-.3-1.58,.14-.54,.44-.93,.9-1.15,3.36-2.05,6.29-3.46,8.8-4.23,2.51-.77,4.64-1.15,6.41-1.15,1.2,0,2.23,.13,3.12,.38,.88,.26,1.64,.56,2.26,.9,1.65,.91,2.9,2.24,3.76,3.97,.85,1.74,1.28,3.77,1.28,6.11v23.66c0,.57-.19,1.04-.56,1.41-.37,.37-.87,.56-1.5,.56Zm-13.24-4.7l11.19-2.05v-12.39l-13.67,2.31c-2.34,.4-4.03,1.05-5.08,1.96-1.05,.91-1.69,1.89-1.92,2.95-.23,1.05-.31,2.06-.26,3.03,.17,1.77,.71,2.99,1.62,3.67,1.37,1.02,4.07,1.2,8.12,.51Z"/><path class="d" d="M633.34,63.64c-.57,0-1.05-.2-1.45-.6-.4-.4-.6-.85-.6-1.37V28.7c0-.57,.2-1.05,.6-1.45,.4-.4,.88-.6,1.45-.6s1.04,.2,1.41,.6c.37,.4,.56,.88,.56,1.45v2.14c.85-1.03,2.05-1.92,3.59-2.69s3.02-1.27,4.44-1.5c1.99-.28,4.02-.13,6.07,.47,2.05,.6,3.89,1.61,5.51,3.03,1.62,1.42,2.75,3.3,3.37,5.64,.17,.51,.11,1.01-.17,1.5-.29,.48-.68,.81-1.2,.98-.57,.12-1.1,.03-1.58-.26-.48-.29-.78-.68-.9-1.2-.46-1.65-1.25-2.96-2.39-3.93-1.14-.97-2.43-1.62-3.89-1.96s-2.86-.4-4.23-.17c-2.45,.29-4.5,1.2-6.15,2.73-1.65,1.54-2.48,3.99-2.48,7.35v20.84c0,.51-.19,.97-.56,1.37-.37,.4-.84,.6-1.41,.6Z"/><path class="d" d="M690.31,63.73c-.57,0-1.05-.19-1.45-.56-.4-.37-.6-.84-.6-1.41v-.68l-10.51,2.05c-2.62,.51-4.84,.65-6.66,.43-1.82-.23-3.36-.8-4.61-1.71-.91-.74-1.64-1.67-2.18-2.78-.54-1.11-.87-2.38-.98-3.8-.34-3.3,.38-6.02,2.18-8.16s4.57-3.52,8.33-4.14l14.44-2.48v-2.39c0-1.14-.19-2.35-.56-3.63-.37-1.28-1.12-2.23-2.26-2.86-.91-.57-2.08-.85-3.5-.85-3.53,0-7.89,1.59-13.07,4.78-.51,.29-1.02,.36-1.54,.21-.51-.14-.91-.44-1.2-.9-.34-.51-.44-1.04-.3-1.58,.14-.54,.44-.93,.9-1.15,3.36-2.05,6.29-3.46,8.8-4.23,2.51-.77,4.64-1.15,6.41-1.15,1.2,0,2.23,.13,3.12,.38,.88,.26,1.64,.56,2.26,.9,1.65,.91,2.9,2.24,3.76,3.97,.85,1.74,1.28,3.77,1.28,6.11v23.66c0,.57-.19,1.04-.56,1.41-.37,.37-.87,.56-1.5,.56Zm-13.24-4.7l11.19-2.05v-12.39l-13.67,2.31c-2.34,.4-4.03,1.05-5.08,1.96-1.05,.91-1.69,1.89-1.92,2.95-.23,1.05-.31,2.06-.26,3.03,.17,1.77,.71,2.99,1.62,3.67,1.37,1.02,4.07,1.2,8.12,.51Z"/><path class="d" d="M716.88,63.64c-4.84,0-8.66-1.67-11.45-5-2.79-3.33-4.19-7.84-4.19-13.54s1.39-10.28,4.19-13.58c2.79-3.3,6.61-4.95,11.45-4.95s8.48,1.62,11.28,4.87c.4,.4,.58,.88,.56,1.45-.03,.57-.27,1.05-.73,1.45-.4,.34-.88,.5-1.45,.47-.57-.03-1.05-.24-1.45-.64-1.94-2.28-4.67-3.42-8.2-3.42s-6.49,1.25-8.54,3.76c-2.05,2.51-3.08,6.04-3.08,10.59s1.03,8.17,3.08,10.68c2.05,2.51,4.9,3.76,8.54,3.76s6.32-1.11,8.2-3.33c.4-.46,.88-.71,1.45-.77,.57-.06,1.05,.11,1.45,.51,.46,.34,.7,.8,.73,1.37,.03,.57-.16,1.08-.56,1.54-2.85,3.19-6.61,4.78-11.28,4.78Z"/><path class="d" d="M750.79,63.21c-2.34,0-4.17-.67-5.51-2.01-1.34-1.34-2.01-3.12-2.01-5.34V31.86h-8.2c-.57,0-1.04-.2-1.41-.6-.37-.4-.56-.88-.56-1.45s.18-1.04,.56-1.41c.37-.37,.84-.56,1.41-.56h8.2V15.29c0-.57,.18-1.05,.56-1.45,.37-.4,.84-.6,1.41-.6s1.05,.2,1.45,.6c.4,.4,.6,.88,.6,1.45v12.56h10.59c.57,0,1.05,.19,1.45,.56,.4,.37,.6,.84,.6,1.41s-.2,1.05-.6,1.45c-.4,.4-.88,.6-1.45,.6h-10.59v24c0,.23,.04,.61,.13,1.15,.09,.54,.38,1.03,.9,1.45,.51,.43,1.34,.64,2.48,.64h6.66c.63,0,1.14,.2,1.54,.6,.4,.4,.6,.88,.6,1.45s-.2,1.05-.6,1.45c-.4,.4-.91,.6-1.54,.6h-6.66Z"/><path class="d" d="M781.03,63.64c-4.84,0-8.66-1.67-11.45-5-2.79-3.33-4.19-7.84-4.19-13.54s1.39-10.28,4.19-13.58c2.79-3.3,6.61-4.95,11.45-4.95,4.21,0,7.76,1.45,10.64,4.36,2.88,2.9,4.43,6.83,4.66,11.79v.26c0,.51-.2,.97-.6,1.37-.34,.4-.83,.6-1.45,.6h-24.77c0,4.39,.93,7.92,2.78,10.59,1.85,2.68,4.77,4.01,8.76,4.01,2.05,0,3.97-.44,5.77-1.32,1.79-.88,3.17-2.04,4.14-3.46,.34-.46,.78-.74,1.32-.85,.54-.11,1.04,0,1.49,.34,.46,.29,.74,.71,.85,1.28,.11,.57,0,1.08-.34,1.54-1.37,1.99-3.23,3.59-5.6,4.78-2.36,1.2-4.91,1.79-7.65,1.79Zm-11.28-22.72h22.12c-.57-3.25-1.81-5.75-3.72-7.52-1.91-1.76-4.29-2.65-7.13-2.65-3.08,0-5.57,.88-7.47,2.65-1.91,1.77-3.18,4.27-3.8,7.52Z"/><path class="d" d="M808.03,63.64c-.57,0-1.05-.2-1.45-.6-.4-.4-.6-.85-.6-1.37V28.7c0-.57,.2-1.05,.6-1.45,.4-.4,.88-.6,1.45-.6s1.04,.2,1.41,.6c.37,.4,.56,.88,.56,1.45v2.14c.85-1.03,2.05-1.92,3.59-2.69s3.02-1.27,4.44-1.5c1.99-.28,4.02-.13,6.07,.47,2.05,.6,3.89,1.61,5.51,3.03,1.62,1.42,2.75,3.3,3.37,5.64,.17,.51,.11,1.01-.17,1.5-.29,.48-.68,.81-1.2,.98-.57,.12-1.1,.03-1.58-.26-.48-.29-.78-.68-.9-1.2-.46-1.65-1.25-2.96-2.39-3.93-1.14-.97-2.43-1.62-3.89-1.96s-2.86-.4-4.23-.17c-2.45,.29-4.5,1.2-6.15,2.73-1.65,1.54-2.48,3.99-2.48,7.35v20.84c0,.51-.19,.97-.56,1.37-.37,.4-.84,.6-1.41,.6Z"/><path class="d" d="M854.07,63.64c-3.25,0-6.11-.71-8.59-2.14-2.48-1.42-4.23-3.33-5.25-5.72-.23-.51-.23-1.02,0-1.54,.23-.51,.6-.88,1.11-1.11s1.02-.23,1.54,0,.88,.6,1.11,1.11c.74,1.65,2.01,2.95,3.8,3.89s3.89,1.41,6.28,1.41,4.36-.24,5.72-.73c1.37-.48,2.35-1.08,2.95-1.79,.6-.71,.97-1.42,1.11-2.14,.14-.71,.21-1.27,.21-1.67,0-.85-.2-1.68-.6-2.48-.4-.8-1.25-1.55-2.56-2.26-1.31-.71-3.33-1.35-6.07-1.92-1.94-.4-3.94-.97-6.02-1.71-2.08-.74-3.83-1.78-5.25-3.12-1.42-1.34-2.14-3.09-2.14-5.25,.06-2.9,1.28-5.28,3.67-7.13,2.39-1.85,5.5-2.78,9.31-2.78,2.85,0,5.42,.61,7.73,1.84,2.31,1.22,4,2.89,5.08,5,.28,.46,.34,.95,.17,1.5-.17,.54-.48,.95-.94,1.24-.57,.23-1.11,.27-1.62,.13-.51-.14-.88-.47-1.11-.98-.63-1.14-1.71-2.18-3.25-3.12-1.54-.94-3.56-1.41-6.06-1.41-1.42,0-2.82,.19-4.19,.56-1.37,.37-2.49,.97-3.37,1.79-.88,.83-1.35,1.98-1.41,3.46,0,.34,.14,.87,.43,1.58,.28,.71,1.14,1.47,2.56,2.26,1.42,.8,3.81,1.54,7.18,2.22,1.99,.4,3.94,.98,5.85,1.75,1.91,.77,3.5,1.85,4.78,3.25,1.28,1.4,1.89,3.26,1.84,5.59,0,.97-.17,2.05-.51,3.25-.34,1.2-1,2.34-1.96,3.42-.97,1.08-2.38,1.98-4.23,2.69-1.85,.71-4.29,1.07-7.3,1.07Z"/><path class="d" d="M914.64,63.21c-2.34,0-4.17-.67-5.51-2.01-1.34-1.34-2.01-3.12-2.01-5.34V31.86h-8.2c-.57,0-1.04-.2-1.41-.6-.37-.4-.56-.88-.56-1.45s.18-1.04,.56-1.41c.37-.37,.84-.56,1.41-.56h8.2V15.29c0-.57,.18-1.05,.56-1.45,.37-.4,.84-.6,1.41-.6s1.05,.2,1.45,.6c.4,.4,.6,.88,.6,1.45v12.56h10.59c.57,0,1.05,.19,1.45,.56,.4,.37,.6,.84,.6,1.41s-.2,1.05-.6,1.45c-.4,.4-.88,.6-1.45,.6h-10.59v24c0,.23,.04,.61,.13,1.15,.09,.54,.38,1.03,.9,1.45,.51,.43,1.34,.64,2.48,.64h6.66c.63,0,1.14,.2,1.54,.6,.4,.4,.6,.88,.6,1.45s-.2,1.05-.6,1.45c-.4,.4-.91,.6-1.54,.6h-6.66Z"/><path class="d" d="M944.88,63.64c-4.84,0-8.66-1.67-11.45-5-2.79-3.33-4.19-7.84-4.19-13.54s1.39-10.28,4.19-13.58c2.79-3.3,6.61-4.95,11.45-4.95s8.58,1.65,11.4,4.95c2.82,3.3,4.23,7.83,4.23,13.58s-1.41,10.21-4.23,13.54c-2.82,3.33-6.62,5-11.4,5Zm0-4.1c3.7,0,6.55-1.25,8.54-3.76,1.99-2.5,2.99-6.06,2.99-10.68s-1-8.09-2.99-10.59c-1.99-2.5-4.84-3.76-8.54-3.76s-6.49,1.25-8.54,3.76c-2.05,2.51-3.08,6.04-3.08,10.59s1.03,8.17,3.08,10.68c2.05,2.51,4.9,3.76,8.54,3.76Z"/><path class="d" d="M1001.6,63.21c-2.28,0-4.12-.67-5.51-2.01-1.4-1.34-2.09-3.12-2.09-5.34V2.14c0-.57,.2-1.05,.6-1.45,.4-.4,.88-.6,1.45-.6s1.05,.2,1.45,.6c.4,.4,.6,.88,.6,1.45V55.87c0,.23,.04,.61,.13,1.15,.09,.54,.38,1.03,.9,1.45,.51,.43,1.34,.64,2.48,.64h6.75c.57,0,1.05,.2,1.45,.6,.4,.4,.6,.88,.6,1.45s-.2,1.05-.6,1.45c-.4,.4-.88,.6-1.45,.6h-6.75Z"/><path class="d" d="M1031.75,63.64c-4.84,0-8.66-1.67-11.45-5-2.79-3.33-4.19-7.84-4.19-13.54s1.39-10.28,4.19-13.58c2.79-3.3,6.61-4.95,11.45-4.95,4.21,0,7.76,1.45,10.64,4.36,2.88,2.9,4.43,6.83,4.66,11.79v.26c0,.51-.2,.97-.6,1.37-.34,.4-.83,.6-1.45,.6h-24.77c0,4.39,.93,7.92,2.78,10.59,1.85,2.68,4.77,4.01,8.76,4.01,2.05,0,3.97-.44,5.77-1.32,1.79-.88,3.17-2.04,4.14-3.46,.34-.46,.78-.74,1.32-.85,.54-.11,1.04,0,1.49,.34,.46,.29,.74,.71,.85,1.28,.11,.57,0,1.08-.34,1.54-1.37,1.99-3.23,3.59-5.6,4.78-2.36,1.2-4.91,1.79-7.65,1.79Zm-11.28-22.72h22.12c-.57-3.25-1.81-5.75-3.72-7.52-1.91-1.76-4.29-2.65-7.13-2.65-3.08,0-5.57,.88-7.47,2.65-1.91,1.77-3.18,4.27-3.8,7.52Z"/><path class="d" d="M1083.18,63.73c-.57,0-1.05-.19-1.45-.56-.4-.37-.6-.84-.6-1.41v-.68l-10.51,2.05c-2.62,.51-4.84,.65-6.66,.43-1.82-.23-3.36-.8-4.61-1.71-.91-.74-1.64-1.67-2.18-2.78-.54-1.11-.87-2.38-.98-3.8-.34-3.3,.38-6.02,2.18-8.16s4.57-3.52,8.33-4.14l14.44-2.48v-2.39c0-1.14-.19-2.35-.56-3.63-.37-1.28-1.12-2.23-2.26-2.86-.91-.57-2.08-.85-3.5-.85-3.53,0-7.89,1.59-13.07,4.78-.51,.29-1.02,.36-1.54,.21-.51-.14-.91-.44-1.2-.9-.34-.51-.44-1.04-.3-1.58,.14-.54,.44-.93,.9-1.15,3.36-2.05,6.29-3.46,8.8-4.23,2.51-.77,4.64-1.15,6.41-1.15,1.2,0,2.23,.13,3.12,.38,.88,.26,1.64,.56,2.26,.9,1.65,.91,2.9,2.24,3.76,3.97,.85,1.74,1.28,3.77,1.28,6.11v23.66c0,.57-.19,1.04-.56,1.41-.37,.37-.87,.56-1.5,.56Zm-13.24-4.7l11.19-2.05v-12.39l-13.67,2.31c-2.34,.4-4.03,1.05-5.08,1.96-1.05,.91-1.69,1.89-1.92,2.95-.23,1.05-.31,2.06-.26,3.03,.17,1.77,.71,2.99,1.62,3.67,1.37,1.02,4.07,1.2,8.12,.51Z"/><path class="d" d="M1095.31,63.64c-.57,0-1.05-.2-1.45-.6-.4-.4-.6-.85-.6-1.37V28.7c0-.57,.2-1.05,.6-1.45,.4-.4,.88-.6,1.45-.6s1.04,.2,1.41,.6c.37,.4,.56,.88,.56,1.45v2.14c.85-1.03,2.05-1.92,3.59-2.69s3.02-1.27,4.44-1.5c1.99-.28,4.02-.13,6.07,.47,2.05,.6,3.89,1.61,5.51,3.03,1.62,1.42,2.75,3.3,3.37,5.64,.17,.51,.11,1.01-.17,1.5-.29,.48-.68,.81-1.2,.98-.57,.12-1.1,.03-1.58-.26-.48-.29-.78-.68-.9-1.2-.46-1.65-1.25-2.96-2.39-3.93-1.14-.97-2.43-1.62-3.89-1.96s-2.86-.4-4.23-.17c-2.45,.29-4.5,1.2-6.15,2.73-1.65,1.54-2.48,3.99-2.48,7.35v20.84c0,.51-.19,.97-.56,1.37-.37,.4-.84,.6-1.41,.6Z"/><path class="d" d="M1130.33,63.64c-.57,0-1.04-.19-1.41-.55-.37-.37-.56-.84-.56-1.41V28.53c0-.57,.18-1.05,.56-1.45,.37-.4,.84-.6,1.41-.6s1.05,.2,1.45,.6c.4,.4,.6,.88,.6,1.45v2.82c1.31-1.48,2.88-2.65,4.7-3.5,1.82-.85,3.79-1.28,5.89-1.28,3.93,0,7.02,1.3,9.27,3.89,2.25,2.59,3.37,6.11,3.37,10.55v20.5c0,.57-.19,1.05-.56,1.45-.37,.4-.84,.6-1.41,.6s-1.05-.2-1.45-.6c-.4-.4-.6-.88-.6-1.45v-20.5c0-1.31-.2-2.76-.6-4.36-.4-1.59-1.21-2.98-2.43-4.14-1.23-1.17-3.09-1.75-5.6-1.75-3.3,0-5.89,.91-7.77,2.73-1.88,1.82-2.82,4.41-2.82,7.77v20.42c0,.57-.2,1.04-.6,1.41-.4,.37-.88,.55-1.45,.55Z"/><path class="d" d="M1190.39,63.73c-.57,0-1.04-.2-1.41-.6-.37-.4-.56-.85-.56-1.37V28.7c0-.51,.18-.98,.56-1.41,.37-.43,.84-.64,1.41-.64s1.05,.21,1.45,.64c.4,.43,.6,.9,.6,1.41v2.31c1.25-1.31,2.7-2.36,4.36-3.16,1.65-.8,3.42-1.2,5.3-1.2,2.33,0,4.38,.56,6.15,1.67,1.76,1.11,3.13,2.66,4.1,4.66,1.2-1.88,2.76-3.4,4.7-4.57,1.94-1.17,4.1-1.75,6.49-1.75,3.64,0,6.54,1.31,8.67,3.93,2.14,2.62,3.2,6.12,3.2,10.51v20.59c0,.51-.19,.97-.56,1.37-.37,.4-.84,.6-1.41,.6s-1.05-.2-1.45-.6c-.4-.4-.6-.85-.6-1.37v-20.59c0-.8-.09-1.76-.26-2.91-.17-1.14-.51-2.28-1.03-3.42-.51-1.14-1.3-2.09-2.35-2.86-1.05-.77-2.46-1.15-4.23-1.15-2.79,0-5.07,.98-6.83,2.95-1.77,1.96-2.65,4.43-2.65,7.39v20.59c0,.51-.19,.97-.56,1.37-.37,.4-.84,.6-1.41,.6s-1.07-.2-1.5-.6c-.43-.4-.64-.85-.64-1.37v-20.42c0-1.82-.27-3.53-.81-5.13-.54-1.59-1.38-2.89-2.52-3.89-1.14-1-2.65-1.5-4.53-1.5-2.56,0-4.81,.78-6.75,2.35-1.94,1.57-2.9,3.6-2.9,6.11v22.55c0,.51-.2,.97-.6,1.37-.4,.4-.88,.6-1.45,.6Z"/><path class="d" d="M1259.92,63.64c-4.84,0-8.66-1.67-11.45-5-2.79-3.33-4.19-7.84-4.19-13.54s1.39-10.28,4.19-13.58c2.79-3.3,6.61-4.95,11.45-4.95s8.58,1.65,11.4,4.95c2.82,3.3,4.23,7.83,4.23,13.58s-1.41,10.21-4.23,13.54c-2.82,3.33-6.62,5-11.4,5Zm0-4.1c3.7,0,6.55-1.25,8.54-3.76,1.99-2.5,2.99-6.06,2.99-10.68s-1-8.09-2.99-10.59c-1.99-2.5-4.84-3.76-8.54-3.76s-6.49,1.25-8.54,3.76c-2.05,2.51-3.08,6.04-3.08,10.59s1.03,8.17,3.08,10.68c2.05,2.51,4.9,3.76,8.54,3.76Z"/><path class="d" d="M1286.49,63.64c-.57,0-1.05-.2-1.45-.6-.4-.4-.6-.85-.6-1.37V28.7c0-.57,.2-1.05,.6-1.45,.4-.4,.88-.6,1.45-.6s1.04,.2,1.41,.6c.37,.4,.56,.88,.56,1.45v2.14c.85-1.03,2.05-1.92,3.59-2.69s3.02-1.27,4.44-1.5c1.99-.28,4.02-.13,6.07,.47,2.05,.6,3.89,1.61,5.51,3.03,1.62,1.42,2.75,3.3,3.37,5.64,.17,.51,.11,1.01-.17,1.5-.29,.48-.68,.81-1.2,.98-.57,.12-1.1,.03-1.58-.26-.48-.29-.78-.68-.9-1.2-.46-1.65-1.25-2.96-2.39-3.93-1.14-.97-2.43-1.62-3.89-1.96s-2.86-.4-4.23-.17c-2.45,.29-4.5,1.2-6.15,2.73-1.65,1.54-2.48,3.99-2.48,7.35v20.84c0,.51-.19,.97-.56,1.37-.37,.4-.84,.6-1.41,.6Z"/><path class="d" d="M1334.33,63.64c-4.84,0-8.66-1.67-11.45-5-2.79-3.33-4.19-7.84-4.19-13.54s1.39-10.28,4.19-13.58c2.79-3.3,6.61-4.95,11.45-4.95,4.21,0,7.76,1.45,10.64,4.36,2.88,2.9,4.43,6.83,4.66,11.79v.26c0,.51-.2,.97-.6,1.37-.34,.4-.83,.6-1.45,.6h-24.77c0,4.39,.93,7.92,2.78,10.59,1.85,2.68,4.77,4.01,8.76,4.01,2.05,0,3.97-.44,5.77-1.32,1.79-.88,3.17-2.04,4.14-3.46,.34-.46,.78-.74,1.32-.85,.54-.11,1.04,0,1.49,.34,.46,.29,.74,.71,.85,1.28,.11,.57,0,1.08-.34,1.54-1.37,1.99-3.23,3.59-5.6,4.78-2.36,1.2-4.91,1.79-7.65,1.79Zm-11.28-22.72h22.12c-.57-3.25-1.81-5.75-3.72-7.52-1.91-1.76-4.29-2.65-7.13-2.65-3.08,0-5.57,.88-7.47,2.65-1.91,1.77-3.18,4.27-3.8,7.52Z"/></g></g></g></svg>