<?xml version="1.0" encoding="UTF-8"?><svg xmlns="http://www.w3.org/2000/svg" viewBox="0 0 747.45 77.7"><defs><style>.f{fill:#9255a2;}.g{fill:#fff;}.h{isolation:isolate;}</style></defs><g id="a"/><g id="b"><g id="c"><g id="d"><g id="e"><rect class="f" width="747.45" height="77.7" rx="13.06" ry="13.06"/><g class="h" transform="translate(16.55 57.66)"><g class="h"><path class="g" d="M22.55,58.44c-.4,0-.75-.14-1.05-.42-.3-.28-.45-.62-.45-1.02V16.26c0-.72,.38-1.22,1.14-1.5,.72-.2,1.28,.04,1.68,.72l14.34,25.08,14.4-25.08c.16-.32,.41-.54,.75-.66,.34-.12,.65-.14,.93-.06,.76,.28,1.14,.78,1.14,1.5V57c0,.4-.15,.74-.45,1.02-.3,.28-.67,.42-1.11,.42-.4,0-.74-.14-1.02-.42-.28-.28-.42-.62-.42-1.02V21.84l-12.9,22.44c-.24,.52-.68,.78-1.32,.78-.56,0-1-.26-1.32-.78l-12.84-22.44V57c0,.4-.14,.74-.42,1.02-.28,.28-.64,.42-1.08,.42Z"/></g><g class="h"><path class="g" d="M73.73,58.44c-3.4,0-6.08-1.17-8.04-3.51-1.96-2.34-2.94-5.51-2.94-9.51s.98-7.22,2.94-9.54c1.96-2.32,4.64-3.48,8.04-3.48s6.03,1.16,8.01,3.48c1.98,2.32,2.97,5.5,2.97,9.54s-.99,7.17-2.97,9.51c-1.98,2.34-4.65,3.51-8.01,3.51Zm0-2.88c2.6,0,4.6-.88,6-2.64,1.4-1.76,2.1-4.26,2.1-7.5s-.7-5.68-2.1-7.44c-1.4-1.76-3.4-2.64-6-2.64s-4.56,.88-6,2.64c-1.44,1.76-2.16,4.24-2.16,7.44s.72,5.74,2.16,7.5c1.44,1.76,3.44,2.64,6,2.64Z"/><path class="g" d="M96.83,58.44c-.64,0-1.08-.3-1.32-.9l-9.3-23.1c-.16-.36-.16-.72,0-1.08,.16-.36,.42-.62,.78-.78,.36-.12,.72-.11,1.08,.03,.36,.14,.62,.39,.78,.75l7.98,19.86,8.1-19.86c.16-.4,.42-.67,.78-.81,.36-.14,.72-.15,1.08-.03,.32,.16,.57,.42,.75,.78s.17,.72-.03,1.08l-9.3,23.16c-.24,.6-.7,.9-1.38,.9Z"/></g><g class="h"><path class="g" d="M123.59,58.44c-3.4,0-6.08-1.17-8.04-3.51-1.96-2.34-2.94-5.51-2.94-9.51s.98-7.22,2.94-9.54c1.96-2.32,4.64-3.48,8.04-3.48,2.96,0,5.45,1.02,7.47,3.06,2.02,2.04,3.11,4.8,3.27,8.28v.18c0,.36-.14,.68-.42,.96-.24,.28-.58,.42-1.02,.42h-17.4c0,3.08,.65,5.56,1.95,7.44,1.3,1.88,3.35,2.82,6.15,2.82,1.44,0,2.79-.31,4.05-.93,1.26-.62,2.23-1.43,2.91-2.43,.24-.32,.55-.52,.93-.6,.38-.08,.73,0,1.05,.24,.32,.2,.52,.5,.6,.9,.08,.4,0,.76-.24,1.08-.96,1.4-2.27,2.52-3.93,3.36-1.66,.84-3.45,1.26-5.37,1.26Zm-7.92-15.96h15.54c-.4-2.28-1.27-4.04-2.61-5.28-1.34-1.24-3.01-1.86-5.01-1.86-2.16,0-3.91,.62-5.25,1.86-1.34,1.24-2.23,3-2.67,5.28Z"/><path class="g" d="M163.73,58.14c-1.6,0-2.89-.47-3.87-1.41-.98-.94-1.47-2.19-1.47-3.75V15.24c0-.4,.14-.74,.42-1.02s.62-.42,1.02-.42,.74,.14,1.02,.42c.28,.28,.42,.62,.42,1.02V52.98c0,.16,.03,.43,.09,.81,.06,.38,.27,.72,.63,1.02,.36,.3,.94,.45,1.74,.45h4.74c.4,0,.74,.14,1.02,.42,.28,.28,.42,.62,.42,1.02s-.14,.74-.42,1.02-.62,.42-1.02,.42h-4.74Z"/><path class="g" d="M184.91,58.44c-3.4,0-6.08-1.17-8.04-3.51-1.96-2.34-2.94-5.51-2.94-9.51s.98-7.22,2.94-9.54c1.96-2.32,4.64-3.48,8.04-3.48,2.96,0,5.45,1.02,7.47,3.06,2.02,2.04,3.11,4.8,3.27,8.28v.18c0,.36-.14,.68-.42,.96-.24,.28-.58,.42-1.02,.42h-17.4c0,3.08,.65,5.56,1.95,7.44,1.3,1.88,3.35,2.82,6.15,2.82,1.44,0,2.79-.31,4.05-.93,1.26-.62,2.23-1.43,2.91-2.43,.24-.32,.55-.52,.93-.6,.38-.08,.73,0,1.05,.24,.32,.2,.52,.5,.6,.9,.08,.4,0,.76-.24,1.08-.96,1.4-2.27,2.52-3.93,3.36-1.66,.84-3.45,1.26-5.37,1.26Zm-7.92-15.96h15.54c-.4-2.28-1.27-4.04-2.61-5.28-1.34-1.24-3.01-1.86-5.01-1.86-2.16,0-3.91,.62-5.25,1.86-1.34,1.24-2.23,3-2.67,5.28Z"/><path class="g" d="M207.41,58.5c-.4,0-.74-.13-1.02-.39-.28-.26-.42-.59-.42-.99v-20.94h-4.32c-.4,0-.74-.15-1.02-.45-.28-.3-.42-.63-.42-.99,0-.4,.14-.74,.42-1.02s.62-.42,1.02-.42h4.32v-8.82c0-5.88,2.98-8.82,8.94-8.82h3.54c.4,0,.73,.14,.99,.42,.26,.28,.39,.62,.39,1.02s-.13,.74-.39,1.02c-.26,.28-.59,.42-.99,.42h-3.54c-2.12,0-3.67,.47-4.65,1.41-.98,.94-1.47,2.45-1.47,4.53v8.82h9.72c.4,0,.74,.14,1.02,.42,.28,.28,.42,.62,.42,1.02,0,.36-.14,.69-.42,.99-.28,.3-.62,.45-1.02,.45h-9.72v20.94c0,.4-.13,.73-.39,.99-.26,.26-.59,.39-.99,.39Z"/><path class="g" d="M234.77,58.14c-1.64,0-2.93-.47-3.87-1.41-.94-.94-1.41-2.19-1.41-3.75v-16.86h-5.76c-.4,0-.73-.14-.99-.42-.26-.28-.39-.62-.39-1.02s.13-.73,.39-.99c.26-.26,.59-.39,.99-.39h5.76v-8.82c0-.4,.13-.74,.39-1.02,.26-.28,.59-.42,.99-.42s.74,.14,1.02,.42c.28,.28,.42,.62,.42,1.02v8.82h7.44c.4,0,.74,.13,1.02,.39,.28,.26,.42,.59,.42,.99s-.14,.74-.42,1.02-.62,.42-1.02,.42h-7.44v16.86c0,.16,.03,.43,.09,.81,.06,.38,.27,.72,.63,1.02,.36,.3,.94,.45,1.74,.45h4.68c.44,0,.8,.14,1.08,.42,.28,.28,.42,.62,.42,1.02s-.14,.74-.42,1.02-.64,.42-1.08,.42h-4.68Z"/><path class="g" d="M271.91,58.44c-2.76,0-4.93-.9-6.51-2.7-1.58-1.8-2.37-4.28-2.37-7.44v-14.34c0-.4,.13-.74,.39-1.02,.26-.28,.59-.42,.99-.42s.74,.14,1.02,.42c.28,.28,.42,.62,.42,1.02v14.34c0,.92,.14,1.95,.42,3.09,.28,1.14,.85,2.13,1.71,2.97,.86,.84,2.17,1.26,3.93,1.26,2.36,0,4.19-.64,5.49-1.92,1.3-1.28,1.95-3.12,1.95-5.52v-14.28c0-.4,.14-.75,.42-1.05,.28-.3,.62-.45,1.02-.45s.73,.15,.99,.45c.26,.3,.39,.65,.39,1.05v23.16c0,.4-.13,.73-.39,.99-.26,.26-.59,.39-.99,.39s-.74-.13-1.02-.39c-.28-.26-.42-.59-.42-.99v-1.86c-.92,1-2.01,1.79-3.27,2.37-1.26,.58-2.65,.87-4.17,.87Z"/><path class="g" d="M298.13,58.44c-2.28,0-4.29-.5-6.03-1.5-1.74-1-2.97-2.34-3.69-4.02-.16-.36-.16-.72,0-1.08,.16-.36,.42-.62,.78-.78s.72-.16,1.08,0c.36,.16,.62,.42,.78,.78,.52,1.16,1.41,2.07,2.67,2.73,1.26,.66,2.73,.99,4.41,.99s3.06-.17,4.02-.51c.96-.34,1.65-.76,2.07-1.26,.42-.5,.68-1,.78-1.5,.1-.5,.15-.89,.15-1.17,0-.6-.14-1.18-.42-1.74-.28-.56-.88-1.09-1.8-1.59-.92-.5-2.34-.95-4.26-1.35-1.36-.28-2.77-.68-4.23-1.2-1.46-.52-2.69-1.25-3.69-2.19-1-.94-1.5-2.17-1.5-3.69,.04-2.04,.9-3.71,2.58-5.01,1.68-1.3,3.86-1.95,6.54-1.95,2,0,3.81,.43,5.43,1.29s2.81,2.03,3.57,3.51c.2,.32,.24,.67,.12,1.05-.12,.38-.34,.67-.66,.87-.4,.16-.78,.19-1.14,.09-.36-.1-.62-.33-.78-.69-.44-.8-1.2-1.53-2.28-2.19s-2.5-.99-4.26-.99c-1,0-1.98,.13-2.94,.39-.96,.26-1.75,.68-2.37,1.26-.62,.58-.95,1.39-.99,2.43,0,.24,.1,.61,.3,1.11,.2,.5,.8,1.03,1.8,1.59,1,.56,2.68,1.08,5.04,1.56,1.4,.28,2.77,.69,4.11,1.23,1.34,.54,2.46,1.3,3.36,2.28,.9,.98,1.33,2.29,1.29,3.93,0,.68-.12,1.44-.36,2.28-.24,.84-.7,1.64-1.38,2.4-.68,.76-1.67,1.39-2.97,1.89-1.3,.5-3.01,.75-5.13,.75Z"/><path class="g" d="M321.77,58.5c-.4,0-.73-.13-.99-.39-.26-.26-.39-.59-.39-.99v-20.94h-6.9c-.4,0-.74-.15-1.02-.45-.28-.3-.42-.65-.42-1.05s.14-.73,.42-.99c.28-.26,.62-.39,1.02-.39h8.28c.44,0,.8,.13,1.08,.39,.28,.26,.42,.59,.42,.99v22.44c0,.4-.14,.73-.42,.99-.28,.26-.64,.39-1.08,.39Zm-.72-36.06c-.56,0-1.02-.16-1.38-.48-.36-.32-.54-.68-.54-1.08v-3.72c0-.4,.18-.77,.54-1.11,.36-.34,.82-.51,1.38-.51s1.01,.17,1.35,.51c.34,.34,.51,.71,.51,1.11v3.72c0,.4-.17,.76-.51,1.08-.34,.32-.79,.48-1.35,.48Z"/><path class="g" d="M332.56,58.44c-.4,0-.73-.13-.99-.39s-.39-.59-.39-.99v-23.28c0-.4,.13-.74,.39-1.02,.26-.28,.59-.42,.99-.42s.74,.14,1.02,.42c.28,.28,.42,.62,.42,1.02v1.98c.92-1.04,2.02-1.86,3.3-2.46,1.28-.6,2.66-.9,4.14-.9,2.76,0,4.93,.91,6.51,2.73,1.58,1.82,2.37,4.29,2.37,7.41v14.4c0,.4-.13,.74-.39,1.02-.26,.28-.59,.42-.99,.42s-.74-.14-1.02-.42-.42-.62-.42-1.02v-14.4c0-.92-.14-1.94-.42-3.06-.28-1.12-.85-2.09-1.71-2.91-.86-.82-2.17-1.23-3.93-1.23-2.32,0-4.14,.64-5.46,1.92-1.32,1.28-1.98,3.1-1.98,5.46v14.34c0,.4-.14,.73-.42,.99-.28,.26-.62,.39-1.02,.39Z"/><path class="g" d="M367.91,70.98c-2.12,0-3.95-.57-5.49-1.71-1.54-1.14-2.63-2.75-3.27-4.83-.12-.36-.1-.71,.06-1.05,.16-.34,.44-.57,.84-.69,.4-.16,.77-.14,1.11,.06,.34,.2,.57,.48,.69,.84,.92,3,2.94,4.5,6.06,4.5,2.04,0,3.65-.74,4.83-2.22,1.18-1.48,1.77-3.5,1.77-6.06v-8.04c-1.76,1.88-4.24,2.82-7.44,2.82s-5.8-1-7.68-3c-1.88-2-2.82-4.7-2.82-8.1s.94-6.09,2.82-8.07c1.88-1.98,4.44-2.97,7.68-2.97s5.72,.96,7.44,2.88v-1.5c0-.4,.14-.75,.42-1.05,.28-.3,.62-.45,1.02-.45s.73,.15,.99,.45c.26,.3,.39,.65,.39,1.05v25.98c0,3.28-.86,5.96-2.58,8.04-1.72,2.08-4,3.12-6.84,3.12Zm-.84-19.2c2.36,0,4.2-.69,5.52-2.07,1.32-1.38,1.98-3.45,1.98-6.21s-.66-4.76-1.98-6.12c-1.32-1.36-3.16-2.04-5.52-2.04s-4.33,.71-5.67,2.13c-1.34,1.42-2.01,3.43-2.01,6.03s.67,4.68,2.01,6.12c1.34,1.44,3.23,2.16,5.67,2.16Z"/><path class="g" d="M410.56,58.14c-1.64,0-2.93-.47-3.87-1.41-.94-.94-1.41-2.19-1.41-3.75v-16.86h-5.76c-.4,0-.73-.14-.99-.42-.26-.28-.39-.62-.39-1.02s.13-.73,.39-.99,.59-.39,.99-.39h5.76v-8.82c0-.4,.13-.74,.39-1.02,.26-.28,.59-.42,.99-.42s.74,.14,1.02,.42c.28,.28,.42,.62,.42,1.02v8.82h7.44c.4,0,.74,.13,1.02,.39,.28,.26,.42,.59,.42,.99s-.14,.74-.42,1.02-.62,.42-1.02,.42h-7.44v16.86c0,.16,.03,.43,.09,.81,.06,.38,.27,.72,.63,1.02,.36,.3,.94,.45,1.74,.45h4.68c.44,0,.8,.14,1.08,.42,.28,.28,.42,.62,.42,1.02s-.14,.74-.42,1.02-.64,.42-1.08,.42h-4.68Z"/><path class="g" d="M425.14,58.5c-.4,0-.74-.13-1.02-.39-.28-.26-.42-.59-.42-.99V15.18c0-.4,.14-.74,.42-1.02s.62-.42,1.02-.42,.74,.14,1.02,.42c.28,.28,.42,.62,.42,1.02v20.52c.92-1.04,2.02-1.85,3.3-2.43s2.66-.87,4.14-.87c2.76,0,4.93,.91,6.51,2.73,1.58,1.82,2.37,4.27,2.37,7.35v14.58c0,.4-.13,.73-.39,.99-.26,.26-.59,.39-.99,.39s-.74-.13-1.02-.39c-.28-.26-.42-.59-.42-.99v-14.58c0-.92-.14-1.94-.42-3.06-.28-1.12-.85-2.09-1.71-2.91-.86-.82-2.17-1.23-3.93-1.23-2.08,0-3.84,.64-5.28,1.92-1.44,1.28-2.16,3.1-2.16,5.46v14.46c0,.4-.14,.73-.42,.99-.28,.26-.62,.39-1.02,.39Z"/><path class="g" d="M460.12,58.44c-3.4,0-6.08-1.17-8.04-3.51-1.96-2.34-2.94-5.51-2.94-9.51s.98-7.22,2.94-9.54c1.96-2.32,4.64-3.48,8.04-3.48,2.96,0,5.45,1.02,7.47,3.06s3.11,4.8,3.27,8.28v.18c0,.36-.14,.68-.42,.96-.24,.28-.58,.42-1.02,.42h-17.4c0,3.08,.65,5.56,1.95,7.44,1.3,1.88,3.35,2.82,6.15,2.82,1.44,0,2.79-.31,4.05-.93,1.26-.62,2.23-1.43,2.91-2.43,.24-.32,.55-.52,.93-.6,.38-.08,.73,0,1.05,.24,.32,.2,.52,.5,.6,.9,.08,.4,0,.76-.24,1.08-.96,1.4-2.27,2.52-3.93,3.36-1.66,.84-3.45,1.26-5.37,1.26Zm-7.92-15.96h15.54c-.4-2.28-1.27-4.04-2.61-5.28-1.34-1.24-3.01-1.86-5.01-1.86-2.16,0-3.91,.62-5.25,1.86-1.34,1.24-2.23,3-2.67,5.28Z"/></g><g class="h"><path class="g" d="M512.44,58.5c-.4,0-.74-.13-1.02-.39-.28-.26-.42-.59-.42-.99v-.48l-7.38,1.44c-1.84,.36-3.4,.46-4.68,.3-1.28-.16-2.36-.56-3.24-1.2-.64-.52-1.15-1.17-1.53-1.95-.38-.78-.61-1.67-.69-2.67-.24-2.32,.27-4.23,1.53-5.73,1.26-1.5,3.21-2.47,5.85-2.91l10.14-1.74v-1.68c0-.8-.13-1.65-.39-2.55-.26-.9-.79-1.57-1.59-2.01-.64-.4-1.46-.6-2.46-.6-2.48,0-5.54,1.12-9.18,3.36-.36,.2-.72,.25-1.08,.15-.36-.1-.64-.31-.84-.63-.24-.36-.31-.73-.21-1.11,.1-.38,.31-.65,.63-.81,2.36-1.44,4.42-2.43,6.18-2.97,1.76-.54,3.26-.81,4.5-.81,.84,0,1.57,.09,2.19,.27s1.15,.39,1.59,.63c1.16,.64,2.04,1.57,2.64,2.79,.6,1.22,.9,2.65,.9,4.29v16.62c0,.4-.13,.73-.39,.99-.26,.26-.61,.39-1.05,.39Zm-9.3-3.3l7.86-1.44v-8.7l-9.6,1.62c-1.64,.28-2.83,.74-3.57,1.38s-1.19,1.33-1.35,2.07c-.16,.74-.22,1.45-.18,2.13,.12,1.24,.5,2.1,1.14,2.58,.96,.72,2.86,.84,5.7,.36Z"/></g><g class="h"><path class="g" d="M520.96,58.44c-.4,0-.74-.14-1.02-.42s-.42-.6-.42-.96v-23.16c0-.4,.14-.74,.42-1.02s.62-.42,1.02-.42,.73,.14,.99,.42c.26,.28,.39,.62,.39,1.02v1.5c.6-.72,1.44-1.35,2.52-1.89,1.08-.54,2.12-.89,3.12-1.05,1.4-.2,2.82-.09,4.26,.33,1.44,.42,2.73,1.13,3.87,2.13,1.14,1,1.93,2.32,2.37,3.96,.12,.36,.08,.71-.12,1.05-.2,.34-.48,.57-.84,.69-.4,.08-.77,.02-1.11-.18-.34-.2-.55-.48-.63-.84-.32-1.16-.88-2.08-1.68-2.76-.8-.68-1.71-1.14-2.73-1.38-1.02-.24-2.01-.28-2.97-.12-1.72,.2-3.16,.84-4.32,1.92-1.16,1.08-1.74,2.8-1.74,5.16v14.64c0,.36-.13,.68-.39,.96-.26,.28-.59,.42-.99,.42Z"/><path class="g" d="M545.62,58.44c-.4,0-.74-.14-1.02-.42s-.42-.6-.42-.96v-23.16c0-.4,.14-.74,.42-1.02s.62-.42,1.02-.42,.73,.14,.99,.42c.26,.28,.39,.62,.39,1.02v1.5c.6-.72,1.44-1.35,2.52-1.89s2.12-.89,3.12-1.05c1.4-.2,2.82-.09,4.26,.33,1.44,.42,2.73,1.13,3.87,2.13,1.14,1,1.93,2.32,2.37,3.96,.12,.36,.08,.71-.12,1.05-.2,.34-.48,.57-.84,.69-.4,.08-.77,.02-1.11-.18s-.55-.48-.63-.84c-.32-1.16-.88-2.08-1.68-2.76-.8-.68-1.71-1.14-2.73-1.38-1.02-.24-2.01-.28-2.97-.12-1.72,.2-3.16,.84-4.32,1.92s-1.74,2.8-1.74,5.16v14.64c0,.36-.13,.68-.39,.96-.26,.28-.59,.42-.99,.42Z"/></g><g class="h"><path class="g" d="M579.22,58.44c-3.4,0-6.08-1.17-8.04-3.51-1.96-2.34-2.94-5.51-2.94-9.51s.98-7.22,2.94-9.54c1.96-2.32,4.64-3.48,8.04-3.48s6.03,1.16,8.01,3.48c1.98,2.32,2.97,5.5,2.97,9.54s-.99,7.17-2.97,9.51c-1.98,2.34-4.65,3.51-8.01,3.51Zm0-2.88c2.6,0,4.6-.88,6-2.64,1.4-1.76,2.1-4.26,2.1-7.5s-.7-5.68-2.1-7.44c-1.4-1.76-3.4-2.64-6-2.64s-4.56,.88-6,2.64c-1.44,1.76-2.16,4.24-2.16,7.44s.72,5.74,2.16,7.5c1.44,1.76,3.44,2.64,6,2.64Z"/></g><g class="h"><path class="g" d="M599.2,58.44c-.72-.08-1.14-.46-1.26-1.14l-4.44-23.22c-.04-.4,.04-.77,.24-1.11,.2-.34,.5-.55,.9-.63,.4-.04,.76,.05,1.08,.27s.52,.51,.6,.87l3.6,18.9,5.94-12.9c.28-.56,.72-.84,1.32-.84s1.04,.28,1.32,.84l5.94,12.9,3.54-18.78c.08-.4,.28-.71,.6-.93,.32-.22,.68-.29,1.08-.21,.4,.04,.71,.23,.93,.57s.29,.71,.21,1.11l-4.44,23.16c-.12,.68-.52,1.06-1.2,1.14-.72,.08-1.22-.2-1.5-.84l-6.48-14.1-6.54,14.1c-.28,.64-.76,.92-1.44,.84Z"/><path class="g" d="M645.22,58.44c-.4,0-.74-.13-1.02-.39-.28-.26-.42-.59-.42-.99V15.18c0-.4,.14-.74,.42-1.02s.62-.42,1.02-.42,.74,.14,1.02,.42c.28,.28,.42,.62,.42,1.02v28.74l13.56-11.16c.32-.24,.67-.34,1.05-.3,.38,.04,.71,.22,.99,.54,.2,.28,.29,.61,.27,.99-.02,.38-.19,.71-.51,.99l-9.24,7.56,10.2,13.62c.28,.28,.38,.62,.3,1.02-.08,.4-.28,.72-.6,.96-.28,.24-.62,.33-1.02,.27-.4-.06-.72-.23-.96-.51l-10.08-13.56-3.96,3.24v9.48c0,.4-.14,.73-.42,.99-.28,.26-.62,.39-1.02,.39Z"/><path class="g" d="M679.06,58.44c-3.4,0-6.08-1.17-8.04-3.51-1.96-2.34-2.94-5.51-2.94-9.51s.98-7.22,2.94-9.54c1.96-2.32,4.64-3.48,8.04-3.48,2.96,0,5.45,1.02,7.47,3.06,2.02,2.04,3.11,4.8,3.27,8.28v.18c0,.36-.14,.68-.42,.96-.24,.28-.58,.42-1.02,.42h-17.4c0,3.08,.65,5.56,1.95,7.44,1.3,1.88,3.35,2.82,6.15,2.82,1.44,0,2.79-.31,4.05-.93,1.26-.62,2.23-1.43,2.91-2.43,.24-.32,.55-.52,.93-.6s.73,0,1.05,.24c.32,.2,.52,.5,.6,.9,.08,.4,0,.76-.24,1.08-.96,1.4-2.27,2.52-3.93,3.36-1.66,.84-3.45,1.26-5.37,1.26Zm-7.92-15.96h15.54c-.4-2.28-1.27-4.04-2.61-5.28-1.34-1.24-3.01-1.86-5.01-1.86-2.16,0-3.91,.62-5.25,1.86-1.34,1.24-2.23,3-2.67,5.28Z"/></g><g class="h"><path class="g" d="M701.26,70.98c-.4-.16-.68-.42-.84-.78-.16-.36-.16-.72,0-1.08l4.44-11.28-9.42-23.46c-.16-.36-.16-.72,0-1.08,.16-.36,.42-.62,.78-.78,.36-.12,.72-.11,1.08,.03,.36,.14,.62,.41,.78,.81l8.34,20.64,8.16-20.64c.16-.4,.41-.67,.75-.81,.34-.14,.71-.15,1.11-.03,.36,.16,.62,.42,.78,.78,.16,.36,.16,.72,0,1.08l-14.16,35.82c-.16,.36-.41,.61-.75,.75-.34,.14-.69,.15-1.05,.03Z"/></g><g class="h"><path class="g" d="M723.1,58.44c-1,0-1.8-.37-2.4-1.11-.6-.74-.9-1.61-.9-2.61s.3-1.92,.9-2.64c.6-.72,1.4-1.08,2.4-1.08s1.85,.36,2.43,1.08c.58,.72,.87,1.6,.87,2.64s-.29,1.87-.87,2.61c-.58,.74-1.39,1.11-2.43,1.11Z"/></g></g></g></g></g></g></svg>