<?xml version="1.0" encoding="UTF-8"?><svg id="Layer_2" xmlns="http://www.w3.org/2000/svg" viewBox="0 0 230.63 228.5"><defs><style>.cls-1{fill:#fff;}.cls-2{fill:#131921;}.cls-3{fill:#f46e6e;}</style></defs><g id="web"><g><g><g><path class="cls-1" d="M11.3,203.31c-.37,5.29,3,10.62,7.92,12.57s11.03,.35,14.38-3.76c2.6-3.2,3.46-7.42,4.9-11.29,1.43-3.87,3.94-7.85,7.96-8.81,5.87-1.4,11.01,4.4,13.1,10.06,2.09,5.66,2.92,12.15,7.22,16.39,3.14,3.1,7.91,4.44,12.2,3.42,4.29-1.01,7.96-4.34,9.38-8.52,1.16-3.4,.87-7.1,.76-10.69s.03-7.38,1.88-10.46c1.85-3.08,5.97-2.82,9.17-3.43,0,0,12.01-1.31,12.6,13.43,.17,4.3,.88,8.87,3.6,12.21,3.65,4.48,11.03,4.85,15.63,1.34,3.36-2.56,5.27-6.66,6.03-10.82,.75-4.16,.47-8.42,.19-12.64l.33-9.32c.1-45.99-8.64-91.99-25.61-134.73-6.18-15.57-14.61-31.91-29.89-38.77-16.59-7.45-37-.87-49.9,11.96-12.89,12.83-19.48,30.69-23.5,48.42-8.28,36.52,1.67,133.44,1.67,133.44Z"/><path class="cls-2" d="M5.04,203.31c-.09,13.74,13.53,23.55,26.39,17.97,6.28-2.73,9.45-8.14,11.62-14.36,1.68-4.82,4.34-12.8,9.19-5.53,3.58,5.37,3.64,12.47,7.24,17.95,3.66,5.57,9.85,9.15,16.58,9.15s12.97-3.7,16.43-9.31c4.11-6.67,2.1-13.75,2.98-21.01,.38-3.14,2.77-2.87,4.92-3.13-.28,.03,1.17-.01,1.53,.03-1.31-.17,1.68,.6,1.78,.67,1.17,.76,1.87,1.94,2.33,3.5,1.95,6.71,.64,13.07,5.4,18.99,4.01,4.98,10.51,6.9,16.7,5.81,6.26-1.11,11.2-5.5,13.84-11.18,3.11-6.7,2.54-13.42,2.48-20.6-.09-10.88,.3-21.64-.38-32.54-2.01-32.18-8.15-64.15-18.41-94.72C117.66,41.04,107.16,9.43,79.89,1.72,53.02-5.88,27.21,12.8,15.12,35.63,4.82,55.09,1.14,76.7,.34,98.44c-1.26,34.19,1.19,68.68,4.49,102.7,.07,.72,.14,1.44,.21,2.17,.81,7.94,13.35,8.02,12.52,0-2.69-26.22-4.38-52.62-4.86-78.97-.31-16.67-.72-34.05,2.48-50.49,4.39-22.49,14.42-48.2,36.99-57.86,10.65-4.56,22.91-4.78,32.81,1.71s15.17,16.8,19.65,26.84c11.84,26.58,19.27,55.71,23.67,84.4,3.57,23.31,4.5,47.08,3.93,70.62-.11,4.43-1.18,11.63-6.76,12.3-7.31,.88-6.11-9.61-6.96-14.13-1.41-7.55-6.74-13.6-14.44-14.91-3.51-.6-7.24-.17-10.67,.72-6.83,1.78-9.85,7.84-10.45,14.49-.51,5.63,2.37,16.24-5.66,17.83-7.38,1.46-9.13-7.45-10.75-12.56-2.07-6.52-5.42-12.93-11.79-16.15-5.88-2.97-12.72-1.46-17.23,3.23-2.37,2.47-3.88,5.61-5.07,8.78-1.04,2.78-1.54,6.16-3.37,8.55-4.16,5.44-11.57,1.97-11.53-4.4,.05-8.06-12.47-8.07-12.52,0Z"/></g><path class="cls-2" d="M39.39,63.4v24.89c0,8.06,12.52,8.07,12.52,0v-24.89c0-8.06-12.52-8.07-12.52,0h0Z"/><path class="cls-2" d="M71.13,56.7l.93,29.68c.25,8.04,12.78,8.08,12.52,0l-.93-29.68c-.25-8.04-12.78-8.08-12.52,0h0Z"/></g><g><g><path class="cls-1" d="M74.3,139.94c24.13,18.63,54.42,30.33,85.71,33.1,12,1.06,24.47,.78,35.6-3.51,11.12-4.3,20.7-13.24,22.64-24.24l.41-2.97c-2.17-13.34-9.49-25.9-20.34-34.91-10.85-9.01-25.14-14.39-39.71-14.95-16.47-.63-32.78,4.78-46.48,13.27-13.7,8.49-37.83,34.21-37.83,34.21Z"/><path class="cls-2" d="M72.07,143.75c22.26,16.98,48.89,28.13,76.57,32.32,23.96,3.63,57.16,3.91,70.63-20.74,1.98-3.61,3.38-7.71,3.64-11.85,.39-6.08-2.56-12.88-5.14-18.29-5.65-11.83-15.26-21.69-26.68-28.07-24.68-13.79-54.23-10.7-78.22,3.01-15.88,9.08-29.26,23.44-41.7,36.67-3.89,4.14,2.34,10.39,6.24,6.24,9.19-9.78,18.82-19.34,29.19-27.85,17.95-14.72,42.9-22.35,65.72-16.23,11.99,3.22,22.95,9.9,30.83,19.54,3.51,4.3,6.4,9.24,8.4,14.42,1.61,4.16,3.04,7.92,2.43,11.17-2.11,11.39-12.41,19.08-22.94,22.33-12.32,3.8-25.75,3.11-38.38,1.37-27.63-3.81-53.99-14.77-76.15-31.68-4.51-3.44-8.91,4.22-4.45,7.62Z"/></g><path class="cls-2" d="M155.82,87.99c-7.37,.02-14.58,2.06-19.6,7.74-4.55,5.16-6.68,11.87-8.47,18.38-2.26,8.2-5.02,16.27-4.87,24.89,.16,9.6,3.35,19.07,9.83,26.25,12.67,14.03,34.29,16.23,48.68,3.67,14.79-12.91,17.51-35.49,9.79-52.87-2.88-6.48-6.58-14.01-11.45-19.26-6.21-6.69-15.13-8.52-23.91-8.81-5.68-.19-5.67,8.64,0,8.83s12.19,1.01,16.69,5.23c3.3,3.1,5.21,7.4,7.33,11.33,7.37,13.65,9.92,29.45,.8,43.11s-26.23,15.83-38.6,5.53c-6.12-5.1-9.63-12.67-10.22-20.57-.54-7.18,1.32-13.59,3.21-20.4,1.52-5.49,2.68-11.29,5.55-16.28,3.36-5.84,8.68-7.93,15.24-7.95,5.68-.01,5.69-8.84,0-8.83Z"/><path class="cls-2" d="M160.92,113.66c-6.84,5.04-14.03,10.9-14.21,20.15s6.51,15.85,14.8,18.12c1.7,.46,4.21-.27,4.98-2.03,3.48-7.94,14.91-16.85,11.33-26.61-1.94-5.31-8.62-8.15-13.5-10.07-5.29-2.08-7.58,6.45-2.35,8.51,1.92,.75,7.38,2.86,7.56,5.31,.22,2.94-3.16,6.86-4.8,9.12-2.19,3.01-4.37,5.86-5.87,9.29l4.98-2.03c-5.22-1.43-9.62-5.85-8-11.69,1.27-4.59,5.9-7.77,9.53-10.45,4.52-3.33,.13-11-4.45-7.62Z"/><path class="cls-3" d="M89.74,80.03l130.49,103.43c5.9,4.68,14.32-3.63,8.36-8.36L98.1,71.67c-5.9-4.68-14.32,3.63-8.36,8.36h0Z"/></g></g></g></svg>