<?xml version="1.0" encoding="UTF-8"?><svg id="Layer_2" xmlns="http://www.w3.org/2000/svg" viewBox="0 0 629.2 373.68"><defs><style>.cls-1{fill:#9255a2;}.cls-2{fill:#ffc69f;}.cls-3{fill:#efcbea;}.cls-4{fill:#fffbf1;}.cls-5{fill:#c4dbb4;}.cls-6{fill:#fffb72;}</style></defs><g id="car"><g><g><path class="cls-1" d="M617.75,242.59c-.52,97.22-138.29,131.09-308.87,131.09S.63,339.81,0,242.59C-.82,115.25,138.29,66.56,308.87,66.56s309.69,23.72,308.87,176.03Z"/><path class="cls-1" d="M499.62,124.91c0,94.29-87.14,2.7-87.14,2.7,0,0,252.1-159.5,212.51-121.86l-125.36,119.16Z"/></g><g><path class="cls-4" d="M80.82,182.11c-.32,0-.6-.12-.84-.36-.24-.24-.36-.52-.36-.84v-31.2c0-.32,.12-.6,.36-.84,.24-.24,.52-.36,.84-.36h9.79c2.05,0,3.9,.5,5.57,1.51,1.66,1.01,3,2.34,4.01,4.01,1.01,1.66,1.51,3.52,1.51,5.57v11.38c0,2.05-.5,3.91-1.51,5.59s-2.34,3.02-4.01,4.03c-1.66,1.01-3.52,1.51-5.57,1.51h-9.79Zm1.2-2.4h8.59c1.6,0,3.06-.39,4.37-1.18,1.31-.78,2.36-1.84,3.14-3.17,.78-1.33,1.18-2.79,1.18-4.39v-11.38c0-1.6-.39-3.06-1.18-4.37-.78-1.31-1.83-2.36-3.14-3.14-1.31-.78-2.77-1.18-4.37-1.18h-8.59v28.8Z"/><path class="cls-4" d="M113.12,182.78c-.32,0-.58-.1-.79-.31-.21-.21-.31-.47-.31-.79v-16.75h-5.52c-.32,0-.59-.12-.82-.36-.22-.24-.34-.52-.34-.84s.11-.58,.34-.79c.22-.21,.5-.31,.82-.31h6.62c.35,0,.64,.1,.86,.31,.22,.21,.34,.47,.34,.79v17.95c0,.32-.11,.58-.34,.79-.22,.21-.51,.31-.86,.31Zm-.58-28.85c-.45,0-.82-.13-1.1-.38s-.43-.54-.43-.86v-2.98c0-.32,.14-.62,.43-.89,.29-.27,.66-.41,1.1-.41s.81,.14,1.08,.41c.27,.27,.41,.57,.41,.89v2.98c0,.32-.14,.61-.41,.86-.27,.26-.63,.38-1.08,.38Z"/><path class="cls-4" d="M136.4,182.78c-.32,0-.58-.1-.79-.31s-.31-.47-.31-.79v-2.02c-.74,.93-1.63,1.67-2.69,2.23-1.06,.56-2.27,.84-3.65,.84-2.72,0-4.86-.94-6.43-2.81-1.57-1.87-2.35-4.41-2.35-7.61s.78-5.78,2.35-7.63c1.57-1.86,3.71-2.78,6.43-2.78,1.38,0,2.59,.29,3.65,.86,1.06,.58,1.95,1.33,2.69,2.26v-16.85c0-.32,.1-.59,.31-.82,.21-.22,.47-.34,.79-.34s.59,.11,.82,.34c.22,.22,.34,.5,.34,.82v33.5c0,.32-.11,.58-.34,.79-.22,.21-.5,.31-.82,.31Zm-7.44-2.35c2.05,0,3.62-.7,4.7-2.11,1.09-1.41,1.63-3.41,1.63-6s-.54-4.54-1.63-5.95c-1.09-1.41-2.66-2.11-4.7-2.11s-3.65,.71-4.8,2.11c-1.15,1.41-1.73,3.39-1.73,5.95s.58,4.59,1.73,6c1.15,1.41,2.75,2.11,4.8,2.11Z"/><path class="cls-4" d="M160.59,192.77c-.32-.13-.54-.34-.67-.62s-.13-.58,0-.86l3.55-9.02-7.54-18.77c-.13-.29-.13-.58,0-.86,.13-.29,.34-.5,.62-.62,.29-.1,.58-.09,.86,.02,.29,.11,.5,.33,.62,.65l6.67,16.51,6.53-16.51c.13-.32,.33-.54,.6-.65,.27-.11,.57-.12,.89-.02,.29,.13,.5,.34,.62,.62s.13,.58,0,.86l-11.33,28.66c-.13,.29-.33,.49-.6,.6-.27,.11-.55,.12-.84,.02Z"/><path class="cls-4" d="M184.79,182.73c-2.72,0-4.86-.94-6.43-2.81-1.57-1.87-2.35-4.41-2.35-7.61s.78-5.78,2.35-7.63c1.57-1.86,3.71-2.78,6.43-2.78s4.82,.93,6.41,2.78c1.58,1.86,2.38,4.4,2.38,7.63s-.79,5.74-2.38,7.61-3.72,2.81-6.41,2.81Zm0-2.3c2.08,0,3.68-.7,4.8-2.11s1.68-3.41,1.68-6-.56-4.54-1.68-5.95c-1.12-1.41-2.72-2.11-4.8-2.11s-3.65,.71-4.8,2.11c-1.15,1.41-1.73,3.39-1.73,5.95s.58,4.59,1.73,6c1.15,1.41,2.75,2.11,4.8,2.11Z"/><path class="cls-4" d="M205.67,182.73c-2.21,0-3.94-.72-5.21-2.16-1.26-1.44-1.9-3.42-1.9-5.95v-11.47c0-.32,.1-.59,.31-.82,.21-.22,.47-.34,.79-.34s.59,.11,.82,.34c.22,.22,.34,.5,.34,.82v11.47c0,.74,.11,1.56,.34,2.47,.22,.91,.68,1.7,1.37,2.38,.69,.67,1.74,1.01,3.14,1.01,1.89,0,3.35-.51,4.39-1.54,1.04-1.02,1.56-2.5,1.56-4.42v-11.42c0-.32,.11-.6,.34-.84,.22-.24,.5-.36,.82-.36s.58,.12,.79,.36c.21,.24,.31,.52,.31,.84v18.53c0,.32-.1,.58-.31,.79-.21,.21-.47,.31-.79,.31s-.59-.1-.82-.31c-.22-.21-.34-.47-.34-.79v-1.49c-.74,.8-1.61,1.43-2.62,1.9-1.01,.46-2.12,.7-3.34,.7Z"/><path class="cls-4" d="M234.32,182.73c-.32,0-.59-.1-.82-.31s-.34-.47-.34-.79v-33.5c0-.32,.11-.59,.34-.82s.5-.34,.82-.34,.59,.11,.82,.34c.22,.22,.34,.5,.34,.82v22.99l10.85-8.93c.26-.19,.54-.27,.84-.24,.3,.03,.57,.18,.79,.43,.16,.22,.23,.49,.22,.79-.02,.3-.15,.57-.41,.79l-7.39,6.05,8.16,10.9c.22,.22,.3,.5,.24,.82-.06,.32-.22,.58-.48,.77-.22,.19-.5,.26-.82,.22-.32-.05-.58-.18-.77-.41l-8.06-10.85-3.17,2.59v7.58c0,.32-.11,.58-.34,.79-.22,.21-.5,.31-.82,.31Z"/><path class="cls-4" d="M254.19,182.73c-.32,0-.58-.1-.79-.31s-.31-.47-.31-.79v-18.62c0-.32,.1-.59,.31-.82,.21-.22,.47-.34,.79-.34s.59,.11,.82,.34c.22,.22,.34,.5,.34,.82v1.58c.74-.83,1.62-1.49,2.64-1.97,1.02-.48,2.13-.72,3.31-.72,2.21,0,3.94,.73,5.21,2.18,1.26,1.46,1.9,3.43,1.9,5.93v11.52c0,.32-.1,.59-.31,.82-.21,.22-.47,.34-.79,.34s-.59-.11-.82-.34-.34-.5-.34-.82v-11.52c0-.74-.11-1.55-.34-2.45-.22-.9-.68-1.67-1.37-2.33-.69-.66-1.74-.98-3.14-.98-1.86,0-3.31,.51-4.37,1.54-1.06,1.02-1.58,2.48-1.58,4.37v11.47c0,.32-.11,.58-.34,.79-.22,.21-.5,.31-.82,.31Z"/><path class="cls-4" d="M282.18,182.73c-2.72,0-4.86-.94-6.43-2.81-1.57-1.87-2.35-4.41-2.35-7.61s.78-5.78,2.35-7.63c1.57-1.86,3.71-2.78,6.43-2.78s4.82,.93,6.41,2.78c1.58,1.86,2.38,4.4,2.38,7.63s-.79,5.74-2.38,7.61-3.72,2.81-6.41,2.81Zm0-2.3c2.08,0,3.68-.7,4.8-2.11s1.68-3.41,1.68-6-.56-4.54-1.68-5.95c-1.12-1.41-2.72-2.11-4.8-2.11s-3.65,.71-4.8,2.11c-1.15,1.41-1.73,3.39-1.73,5.95s.58,4.59,1.73,6c1.15,1.41,2.75,2.11,4.8,2.11Z"/><path class="cls-4" d="M298.16,182.73c-.58-.06-.91-.37-1.01-.91l-3.55-18.58c-.03-.32,.03-.62,.19-.89,.16-.27,.4-.44,.72-.5,.32-.03,.61,.04,.86,.22,.26,.18,.42,.41,.48,.7l2.88,15.12,4.75-10.32c.22-.45,.58-.67,1.06-.67s.83,.22,1.06,.67l4.75,10.32,2.83-15.02c.06-.32,.22-.57,.48-.74,.26-.18,.54-.23,.86-.17,.32,.03,.57,.18,.74,.46,.18,.27,.23,.57,.17,.89l-3.55,18.53c-.1,.54-.42,.85-.96,.91-.58,.06-.98-.16-1.2-.67l-5.18-11.28-5.23,11.28c-.22,.51-.61,.74-1.15,.67Z"/><path class="cls-4" d="M318.66,189.21c-.32,0-.59-.1-.82-.31s-.34-.47-.34-.79c0-.35,.11-.63,.34-.84,.22-.21,.5-.31,.82-.31,.9,0,1.51-.18,1.85-.55,.34-.37,.5-1,.5-1.9v-1.82c-.06,0-.12,0-.17,.02-.05,.02-.1,.02-.17,.02-.8,0-1.44-.3-1.92-.89-.48-.59-.72-1.29-.72-2.09s.24-1.54,.72-2.11c.48-.58,1.12-.86,1.92-.86s1.43,.29,1.9,.86,.7,1.28,.7,2.11v4.75c0,3.14-1.54,4.7-4.61,4.7Z"/><path class="cls-4" d="M354.51,182.78c-.35,0-.65-.11-.89-.34-.24-.22-.36-.5-.36-.82v-30.72h-10.42c-.32,0-.59-.12-.82-.36-.22-.24-.34-.52-.34-.84s.11-.6,.34-.84c.22-.24,.5-.36,.82-.36h23.23c.32,0,.6,.12,.84,.36s.36,.52,.36,.84-.12,.6-.36,.84c-.24,.24-.52,.36-.84,.36h-10.42v30.72c0,.32-.11,.59-.34,.82-.22,.22-.5,.34-.82,.34Z"/><path class="cls-4" d="M383.79,182.78c-.32,0-.59-.1-.82-.31-.22-.21-.34-.47-.34-.79v-.38l-5.9,1.15c-1.47,.29-2.72,.37-3.74,.24-1.03-.13-1.89-.45-2.59-.96-.51-.42-.92-.94-1.22-1.56-.3-.62-.49-1.33-.55-2.14-.19-1.86,.22-3.38,1.22-4.58s2.57-1.98,4.68-2.33l8.11-1.39v-1.34c0-.64-.1-1.32-.31-2.04-.21-.72-.63-1.26-1.27-1.61-.51-.32-1.17-.48-1.97-.48-1.98,0-4.43,.9-7.34,2.69-.29,.16-.58,.2-.86,.12s-.51-.25-.67-.5c-.19-.29-.25-.58-.17-.89,.08-.3,.25-.52,.5-.65,1.89-1.15,3.54-1.94,4.94-2.38,1.41-.43,2.61-.65,3.6-.65,.67,0,1.26,.07,1.75,.22,.5,.14,.92,.31,1.27,.5,.93,.51,1.63,1.26,2.11,2.23,.48,.98,.72,2.12,.72,3.43v13.3c0,.32-.1,.58-.31,.79-.21,.21-.49,.31-.84,.31Zm-7.44-2.64l6.29-1.15v-6.96l-7.68,1.3c-1.31,.22-2.26,.59-2.86,1.1s-.95,1.06-1.08,1.66c-.13,.59-.18,1.16-.14,1.7,.1,.99,.4,1.68,.91,2.06,.77,.58,2.29,.67,4.56,.29Z"/><path class="cls-4" d="M394.16,192.77c-.32-.13-.54-.34-.67-.62s-.13-.58,0-.86l3.55-9.02-7.54-18.77c-.13-.29-.13-.58,0-.86,.13-.29,.34-.5,.62-.62,.29-.1,.58-.09,.86,.02,.29,.11,.5,.33,.62,.65l6.67,16.51,6.53-16.51c.13-.32,.33-.54,.6-.65,.27-.11,.57-.12,.89-.02,.29,.13,.5,.34,.62,.62s.13,.58,0,.86l-11.33,28.66c-.13,.29-.33,.49-.6,.6-.27,.11-.55,.12-.84,.02Z"/><path class="cls-4" d="M416.63,182.49c-1.28,0-2.31-.38-3.1-1.13-.79-.75-1.18-1.75-1.18-3v-30.19c0-.32,.11-.59,.34-.82,.22-.22,.5-.34,.82-.34s.59,.11,.82,.34c.22,.22,.34,.5,.34,.82v30.19c0,.13,.02,.34,.07,.65,.05,.3,.22,.58,.5,.82,.29,.24,.75,.36,1.39,.36h3.79c.32,0,.59,.11,.82,.34,.22,.22,.34,.5,.34,.82s-.11,.59-.34,.82c-.22,.22-.5,.34-.82,.34h-3.79Z"/><path class="cls-4" d="M440.15,182.78c-.32,0-.59-.1-.82-.31-.22-.21-.34-.47-.34-.79v-.38l-5.9,1.15c-1.47,.29-2.72,.37-3.74,.24-1.03-.13-1.89-.45-2.59-.96-.51-.42-.92-.94-1.22-1.56-.3-.62-.49-1.33-.55-2.14-.19-1.86,.22-3.38,1.22-4.58s2.57-1.98,4.68-2.33l8.11-1.39v-1.34c0-.64-.1-1.32-.31-2.04-.21-.72-.63-1.26-1.27-1.61-.51-.32-1.17-.48-1.97-.48-1.98,0-4.43,.9-7.34,2.69-.29,.16-.58,.2-.86,.12s-.51-.25-.67-.5c-.19-.29-.25-.58-.17-.89,.08-.3,.25-.52,.5-.65,1.89-1.15,3.54-1.94,4.94-2.38,1.41-.43,2.61-.65,3.6-.65,.67,0,1.26,.07,1.75,.22,.5,.14,.92,.31,1.27,.5,.93,.51,1.63,1.26,2.11,2.23,.48,.98,.72,2.12,.72,3.43v13.3c0,.32-.1,.58-.31,.79-.21,.21-.49,.31-.84,.31Zm-7.44-2.64l6.29-1.15v-6.96l-7.68,1.3c-1.31,.22-2.26,.59-2.86,1.1s-.95,1.06-1.08,1.66c-.13,.59-.18,1.16-.14,1.7,.1,.99,.4,1.68,.91,2.06,.77,.58,2.29,.67,4.56,.29Z"/><path class="cls-4" d="M464.87,182.49c-1.28,0-2.31-.38-3.1-1.13-.79-.75-1.18-1.75-1.18-3v-30.19c0-.32,.11-.59,.34-.82,.22-.22,.5-.34,.82-.34s.59,.11,.82,.34c.22,.22,.34,.5,.34,.82v30.19c0,.13,.02,.34,.07,.65,.05,.3,.22,.58,.5,.82,.29,.24,.75,.36,1.39,.36h3.79c.32,0,.59,.11,.82,.34,.22,.22,.34,.5,.34,.82s-.11,.59-.34,.82c-.22,.22-.5,.34-.82,.34h-3.79Z"/><path class="cls-4" d="M481.81,182.73c-2.72,0-4.86-.94-6.43-2.81-1.57-1.87-2.35-4.41-2.35-7.61s.78-5.78,2.35-7.63c1.57-1.86,3.71-2.78,6.43-2.78s4.82,.93,6.41,2.78c1.58,1.86,2.38,4.4,2.38,7.63s-.79,5.74-2.38,7.61-3.72,2.81-6.41,2.81Zm0-2.3c2.08,0,3.68-.7,4.8-2.11s1.68-3.41,1.68-6-.56-4.54-1.68-5.95c-1.12-1.41-2.72-2.11-4.8-2.11s-3.65,.71-4.8,2.11c-1.15,1.41-1.73,3.39-1.73,5.95s.58,4.59,1.73,6c1.15,1.41,2.75,2.11,4.8,2.11Z"/><path class="cls-4" d="M501.73,182.73c-.51,0-.86-.24-1.06-.72l-7.44-18.48c-.13-.29-.13-.58,0-.86,.13-.29,.34-.5,.62-.62,.29-.1,.58-.09,.86,.02,.29,.11,.5,.31,.62,.6l6.38,15.89,6.48-15.89c.13-.32,.34-.54,.62-.65s.58-.12,.86-.02c.26,.13,.46,.34,.6,.62,.14,.29,.14,.58-.02,.86l-7.44,18.53c-.19,.48-.56,.72-1.1,.72Z"/><path class="cls-4" d="M521.7,182.73c-2.72,0-4.86-.94-6.43-2.81-1.57-1.87-2.35-4.41-2.35-7.61s.78-5.78,2.35-7.63c1.57-1.86,3.71-2.78,6.43-2.78,2.37,0,4.36,.82,5.98,2.45s2.49,3.84,2.62,6.62v.14c0,.29-.11,.54-.34,.77-.19,.22-.46,.34-.82,.34h-13.92c0,2.46,.52,4.45,1.56,5.95,1.04,1.5,2.68,2.26,4.92,2.26,1.15,0,2.23-.25,3.24-.74s1.78-1.14,2.33-1.94c.19-.26,.44-.42,.74-.48s.58,0,.84,.19c.25,.16,.42,.4,.48,.72,.06,.32,0,.61-.19,.86-.77,1.12-1.82,2.02-3.14,2.69-1.33,.67-2.76,1.01-4.3,1.01Zm-6.34-12.77h12.43c-.32-1.82-1.02-3.23-2.09-4.22-1.07-.99-2.41-1.49-4.01-1.49-1.73,0-3.13,.5-4.2,1.49-1.07,.99-1.78,2.4-2.14,4.22Z"/><path class="cls-4" d="M543.01,182.73c-1.82,0-3.43-.4-4.82-1.2s-2.38-1.87-2.95-3.22c-.13-.29-.13-.58,0-.86s.34-.5,.62-.62c.29-.13,.58-.13,.86,0,.29,.13,.5,.34,.62,.62,.42,.93,1.13,1.66,2.14,2.18,1.01,.53,2.18,.79,3.53,.79s2.45-.14,3.22-.41c.77-.27,1.32-.61,1.66-1.01s.54-.8,.62-1.2c.08-.4,.12-.71,.12-.94,0-.48-.11-.94-.34-1.39-.22-.45-.7-.87-1.44-1.27-.74-.4-1.87-.76-3.41-1.08-1.09-.22-2.22-.54-3.38-.96-1.17-.42-2.15-1-2.95-1.75-.8-.75-1.2-1.74-1.2-2.95,.03-1.63,.72-2.97,2.06-4.01,1.34-1.04,3.09-1.56,5.23-1.56,1.6,0,3.05,.34,4.34,1.03,1.3,.69,2.25,1.62,2.86,2.81,.16,.26,.19,.54,.1,.84-.1,.3-.27,.54-.53,.7-.32,.13-.62,.15-.91,.07s-.5-.26-.62-.55c-.35-.64-.96-1.22-1.82-1.75-.86-.53-2-.79-3.41-.79-.8,0-1.58,.1-2.35,.31-.77,.21-1.4,.54-1.9,1.01-.5,.46-.76,1.11-.79,1.94,0,.19,.08,.49,.24,.89,.16,.4,.64,.82,1.44,1.27,.8,.45,2.14,.86,4.03,1.25,1.12,.22,2.21,.55,3.29,.98,1.07,.43,1.97,1.04,2.69,1.82s1.06,1.83,1.03,3.14c0,.54-.1,1.15-.29,1.82-.19,.67-.56,1.31-1.1,1.92-.54,.61-1.34,1.11-2.38,1.51-1.04,.4-2.41,.6-4.1,.6Z"/><path class="cls-2" d="M108.44,230.73c-2.72,0-4.86-.94-6.43-2.81-1.57-1.87-2.35-4.41-2.35-7.61s.78-5.78,2.35-7.63c1.57-1.86,3.71-2.78,6.43-2.78s4.77,.91,6.34,2.74c.22,.22,.33,.5,.31,.82-.02,.32-.15,.59-.41,.82-.22,.19-.5,.28-.82,.26-.32-.02-.59-.14-.82-.36-1.09-1.28-2.62-1.92-4.61-1.92s-3.65,.71-4.8,2.11c-1.15,1.41-1.73,3.39-1.73,5.95s.58,4.59,1.73,6c1.15,1.41,2.75,2.11,4.8,2.11s3.55-.62,4.61-1.87c.22-.26,.5-.4,.82-.43,.32-.03,.59,.06,.82,.29,.26,.19,.39,.45,.41,.77,.02,.32-.09,.61-.31,.86-1.6,1.79-3.71,2.69-6.34,2.69Z"/><path class="cls-2" d="M134.22,230.78c-.32,0-.59-.1-.82-.31-.22-.21-.34-.47-.34-.79v-.38l-5.9,1.15c-1.47,.29-2.72,.37-3.74,.24-1.03-.13-1.89-.45-2.59-.96-.51-.42-.92-.94-1.22-1.56-.3-.62-.49-1.33-.55-2.14-.19-1.86,.22-3.38,1.22-4.58,1.01-1.2,2.57-1.98,4.68-2.33l8.11-1.39v-1.34c0-.64-.1-1.32-.31-2.04-.21-.72-.63-1.26-1.27-1.61-.51-.32-1.17-.48-1.97-.48-1.98,0-4.43,.9-7.34,2.69-.29,.16-.58,.2-.87,.12-.29-.08-.51-.25-.67-.5-.19-.29-.25-.58-.17-.89,.08-.3,.25-.52,.5-.65,1.89-1.15,3.54-1.94,4.94-2.38,1.41-.43,2.61-.65,3.6-.65,.67,0,1.26,.07,1.75,.22,.5,.14,.92,.31,1.27,.5,.93,.51,1.63,1.26,2.11,2.23,.48,.98,.72,2.12,.72,3.43v13.3c0,.32-.1,.58-.31,.79-.21,.21-.49,.31-.84,.31Zm-7.44-2.64l6.29-1.15v-6.96l-7.68,1.3c-1.31,.22-2.26,.59-2.86,1.1s-.95,1.06-1.08,1.66c-.13,.59-.18,1.16-.14,1.7,.1,.99,.4,1.68,.91,2.06,.77,.58,2.29,.67,4.56,.29Z"/><path class="cls-2" d="M149,230.49c-1.31,0-2.34-.38-3.1-1.13-.75-.75-1.13-1.75-1.13-3v-13.49h-4.61c-.32,0-.58-.11-.79-.34-.21-.22-.31-.5-.31-.82s.1-.58,.31-.79c.21-.21,.47-.31,.79-.31h4.61v-7.06c0-.32,.1-.59,.31-.82,.21-.22,.47-.34,.79-.34s.59,.11,.82,.34c.22,.22,.34,.5,.34,.82v7.06h5.95c.32,0,.59,.1,.82,.31,.22,.21,.34,.47,.34,.79s-.11,.59-.34,.82c-.22,.22-.5,.34-.82,.34h-5.95v13.49c0,.13,.02,.34,.07,.65,.05,.3,.22,.58,.5,.82,.29,.24,.75,.36,1.39,.36h3.74c.35,0,.64,.11,.86,.34,.22,.22,.34,.5,.34,.82s-.11,.59-.34,.82c-.22,.22-.51,.34-.86,.34h-3.74Z"/><path class="cls-2" d="M165.95,230.73c-1.82,0-3.43-.4-4.82-1.2s-2.38-1.87-2.95-3.22c-.13-.29-.13-.58,0-.86s.34-.5,.62-.62c.29-.13,.58-.13,.86,0,.29,.13,.5,.34,.62,.62,.42,.93,1.13,1.66,2.14,2.18,1.01,.53,2.18,.79,3.53,.79s2.45-.14,3.22-.41c.77-.27,1.32-.61,1.66-1.01s.54-.8,.62-1.2c.08-.4,.12-.71,.12-.94,0-.48-.11-.94-.34-1.39-.22-.45-.7-.87-1.44-1.27-.74-.4-1.87-.76-3.41-1.08-1.09-.22-2.22-.54-3.38-.96-1.17-.42-2.15-1-2.95-1.75-.8-.75-1.2-1.74-1.2-2.95,.03-1.63,.72-2.97,2.06-4.01,1.34-1.04,3.09-1.56,5.23-1.56,1.6,0,3.05,.34,4.34,1.03,1.3,.69,2.25,1.62,2.86,2.81,.16,.26,.19,.54,.1,.84-.1,.3-.27,.54-.53,.7-.32,.13-.62,.15-.91,.07s-.5-.26-.62-.55c-.35-.64-.96-1.22-1.82-1.75-.86-.53-2-.79-3.41-.79-.8,0-1.58,.1-2.35,.31-.77,.21-1.4,.54-1.9,1.01-.5,.46-.76,1.11-.79,1.94,0,.19,.08,.49,.24,.89,.16,.4,.64,.82,1.44,1.27,.8,.45,2.14,.86,4.03,1.25,1.12,.22,2.21,.55,3.29,.98,1.07,.43,1.97,1.04,2.69,1.82s1.06,1.83,1.03,3.14c0,.54-.1,1.15-.29,1.82-.19,.67-.56,1.31-1.1,1.92-.54,.61-1.34,1.11-2.38,1.51-1.04,.4-2.41,.6-4.1,.6Z"/><path class="cls-4" d="M179.92,237.21c-.32,0-.59-.1-.82-.31s-.34-.47-.34-.79c0-.35,.11-.63,.34-.84,.22-.21,.5-.31,.82-.31,.9,0,1.51-.18,1.85-.55,.34-.37,.5-1,.5-1.9v-1.82c-.06,0-.12,0-.17,.02-.05,.02-.1,.02-.17,.02-.8,0-1.44-.3-1.92-.89-.48-.59-.72-1.29-.72-2.09s.24-1.54,.72-2.11c.48-.58,1.12-.86,1.92-.86s1.43,.29,1.9,.86,.7,1.28,.7,2.11v4.75c0,3.14-1.54,4.7-4.61,4.7Z"/><path class="cls-4" d="M212.03,230.49c-1.31,0-2.34-.38-3.1-1.13-.75-.75-1.13-1.75-1.13-3v-13.49h-4.61c-.32,0-.58-.11-.79-.34-.21-.22-.31-.5-.31-.82s.1-.58,.31-.79c.21-.21,.47-.31,.79-.31h4.61v-7.06c0-.32,.1-.59,.31-.82,.21-.22,.47-.34,.79-.34s.59,.11,.82,.34c.22,.22,.34,.5,.34,.82v7.06h5.95c.32,0,.59,.1,.82,.31,.22,.21,.34,.47,.34,.79s-.11,.59-.34,.82c-.22,.22-.5,.34-.82,.34h-5.95v13.49c0,.13,.02,.34,.07,.65,.05,.3,.22,.58,.5,.82,.29,.24,.75,.36,1.39,.36h3.74c.35,0,.64,.11,.86,.34,.22,.22,.34,.5,.34,.82s-.11,.59-.34,.82c-.22,.22-.51,.34-.86,.34h-3.74Z"/><path class="cls-4" d="M223.69,230.78c-.32,0-.59-.1-.82-.31-.22-.21-.34-.47-.34-.79v-33.55c0-.32,.11-.59,.34-.82s.5-.34,.82-.34,.59,.11,.82,.34c.22,.22,.34,.5,.34,.82v16.42c.74-.83,1.62-1.48,2.64-1.94,1.02-.46,2.13-.7,3.31-.7,2.21,0,3.94,.73,5.21,2.18,1.26,1.46,1.9,3.42,1.9,5.88v11.66c0,.32-.1,.58-.31,.79-.21,.21-.47,.31-.79,.31s-.59-.1-.82-.31c-.22-.21-.34-.47-.34-.79v-11.66c0-.74-.11-1.55-.34-2.45-.22-.9-.68-1.67-1.37-2.33-.69-.66-1.74-.98-3.14-.98-1.67,0-3.07,.51-4.22,1.54-1.15,1.02-1.73,2.48-1.73,4.37v11.57c0,.32-.11,.58-.34,.79-.22,.21-.5,.31-.82,.31Z"/><path class="cls-4" d="M251.68,230.73c-2.72,0-4.86-.94-6.43-2.81-1.57-1.87-2.35-4.41-2.35-7.61s.78-5.78,2.35-7.63c1.57-1.86,3.71-2.78,6.43-2.78,2.37,0,4.36,.82,5.98,2.45s2.49,3.84,2.62,6.62v.14c0,.29-.11,.54-.34,.77-.19,.22-.46,.34-.82,.34h-13.92c0,2.46,.52,4.45,1.56,5.95,1.04,1.5,2.68,2.26,4.92,2.26,1.15,0,2.23-.25,3.24-.74s1.78-1.14,2.33-1.94c.19-.26,.44-.42,.74-.48s.58,0,.84,.19c.25,.16,.42,.4,.48,.72,.06,.32,0,.61-.19,.86-.77,1.12-1.82,2.02-3.14,2.69-1.33,.67-2.76,1.01-4.3,1.01Zm-6.34-12.77h12.43c-.32-1.82-1.02-3.23-2.09-4.22-1.07-.99-2.41-1.49-4.01-1.49-1.73,0-3.13,.5-4.2,1.49-1.07,.99-1.78,2.4-2.14,4.22Z"/><path class="cls-4" d="M286.96,230.73c-2.72,0-4.86-.94-6.43-2.81-1.57-1.87-2.35-4.41-2.35-7.61s.78-5.78,2.35-7.63c1.57-1.86,3.71-2.78,6.43-2.78s4.77,.91,6.34,2.74c.22,.22,.33,.5,.31,.82-.02,.32-.15,.59-.41,.82-.22,.19-.5,.28-.82,.26-.32-.02-.59-.14-.82-.36-1.09-1.28-2.62-1.92-4.61-1.92s-3.65,.71-4.8,2.11c-1.15,1.41-1.73,3.39-1.73,5.95s.58,4.59,1.73,6c1.15,1.41,2.75,2.11,4.8,2.11s3.55-.62,4.61-1.87c.22-.26,.5-.4,.82-.43,.32-.03,.59,.06,.82,.29,.26,.19,.39,.45,.41,.77,.02,.32-.09,.61-.31,.86-1.6,1.79-3.71,2.69-6.34,2.69Z"/><path class="cls-4" d="M306.15,230.73c-2.72,0-4.86-.94-6.43-2.81-1.57-1.87-2.35-4.41-2.35-7.61s.78-5.78,2.35-7.63c1.57-1.86,3.71-2.78,6.43-2.78s4.82,.93,6.41,2.78c1.58,1.86,2.38,4.4,2.38,7.63s-.79,5.74-2.38,7.61-3.72,2.81-6.41,2.81Zm0-2.3c2.08,0,3.68-.7,4.8-2.11s1.68-3.41,1.68-6-.56-4.54-1.68-5.95c-1.12-1.41-2.72-2.11-4.8-2.11s-3.65,.71-4.8,2.11c-1.15,1.41-1.73,3.39-1.73,5.95s.58,4.59,1.73,6c1.15,1.41,2.75,2.11,4.8,2.11Z"/><path class="cls-4" d="M325.07,230.49c-1.28,0-2.31-.38-3.1-1.13-.79-.75-1.18-1.75-1.18-3v-30.19c0-.32,.11-.59,.34-.82,.22-.22,.5-.34,.82-.34s.59,.11,.82,.34c.22,.22,.34,.5,.34,.82v30.19c0,.13,.02,.34,.07,.65,.05,.3,.22,.58,.5,.82,.29,.24,.75,.36,1.39,.36h3.79c.32,0,.59,.11,.82,.34,.22,.22,.34,.5,.34,.82s-.11,.59-.34,.82c-.22,.22-.5,.34-.82,.34h-3.79Z"/><path class="cls-4" d="M342.01,230.73c-2.72,0-4.86-.94-6.43-2.81-1.57-1.87-2.35-4.41-2.35-7.61s.78-5.78,2.35-7.63c1.57-1.86,3.71-2.78,6.43-2.78s4.82,.93,6.41,2.78c1.58,1.86,2.38,4.4,2.38,7.63s-.79,5.74-2.38,7.61-3.72,2.81-6.41,2.81Zm0-2.3c2.08,0,3.68-.7,4.8-2.11s1.68-3.41,1.68-6-.56-4.54-1.68-5.95c-1.12-1.41-2.72-2.11-4.8-2.11s-3.65,.71-4.8,2.11c-1.15,1.41-1.73,3.39-1.73,5.95s.58,4.59,1.73,6c1.15,1.41,2.75,2.11,4.8,2.11Z"/><path class="cls-4" d="M362.89,230.73c-2.21,0-3.94-.72-5.21-2.16-1.26-1.44-1.9-3.42-1.9-5.95v-11.47c0-.32,.1-.59,.31-.82,.21-.22,.47-.34,.79-.34s.59,.11,.82,.34c.22,.22,.34,.5,.34,.82v11.47c0,.74,.11,1.56,.34,2.47,.22,.91,.68,1.7,1.37,2.38,.69,.67,1.74,1.01,3.14,1.01,1.89,0,3.35-.51,4.39-1.54,1.04-1.02,1.56-2.5,1.56-4.42v-11.42c0-.32,.11-.6,.34-.84,.22-.24,.5-.36,.82-.36s.58,.12,.79,.36c.21,.24,.31,.52,.31,.84v18.53c0,.32-.1,.58-.31,.79-.21,.21-.47,.31-.79,.31s-.59-.1-.82-.31c-.22-.21-.34-.47-.34-.79v-1.49c-.74,.8-1.61,1.43-2.62,1.9-1.01,.46-2.12,.7-3.34,.7Z"/><path class="cls-4" d="M377.72,230.73c-.32,0-.59-.11-.82-.34s-.34-.48-.34-.77v-18.53c0-.32,.11-.59,.34-.82s.5-.34,.82-.34,.58,.11,.79,.34c.21,.22,.31,.5,.31,.82v1.2c.48-.58,1.15-1.08,2.02-1.51,.86-.43,1.7-.71,2.5-.84,1.12-.16,2.26-.07,3.41,.26,1.15,.34,2.18,.91,3.1,1.7,.91,.8,1.54,1.86,1.9,3.17,.1,.29,.06,.57-.1,.84s-.38,.46-.67,.55c-.32,.06-.62,.02-.89-.14-.27-.16-.44-.38-.5-.67-.26-.93-.7-1.66-1.34-2.21-.64-.54-1.37-.91-2.18-1.1-.82-.19-1.61-.22-2.38-.1-1.38,.16-2.53,.67-3.46,1.54-.93,.86-1.39,2.24-1.39,4.13v11.71c0,.29-.1,.54-.31,.77-.21,.22-.47,.34-.79,.34Z"/><path class="cls-6" d="M413,240.77c-.32-.13-.54-.34-.67-.62s-.13-.58,0-.86l3.55-9.02-7.54-18.77c-.13-.29-.13-.58,0-.86,.13-.29,.34-.5,.62-.62,.29-.1,.58-.09,.86,.02,.29,.11,.5,.33,.62,.65l6.67,16.51,6.53-16.51c.13-.32,.33-.54,.6-.65,.27-.11,.57-.12,.89-.02,.29,.13,.5,.34,.62,.62s.13,.58,0,.86l-11.33,28.66c-.13,.29-.33,.49-.6,.6-.27,.11-.55,.12-.84,.02Z"/><path class="cls-6" d="M437.19,230.73c-2.72,0-4.86-.94-6.43-2.81-1.57-1.87-2.35-4.41-2.35-7.61s.78-5.78,2.35-7.63c1.57-1.86,3.71-2.78,6.43-2.78,2.37,0,4.36,.82,5.98,2.45s2.49,3.84,2.62,6.62v.14c0,.29-.11,.54-.34,.77-.19,.22-.46,.34-.82,.34h-13.92c0,2.46,.52,4.45,1.56,5.95,1.04,1.5,2.68,2.26,4.92,2.26,1.15,0,2.23-.25,3.24-.74s1.78-1.14,2.33-1.94c.19-.26,.44-.42,.74-.48s.58,0,.84,.19c.25,.16,.42,.4,.48,.72,.06,.32,0,.61-.19,.86-.77,1.12-1.82,2.02-3.14,2.69-1.33,.67-2.76,1.01-4.3,1.01Zm-6.34-12.77h12.43c-.32-1.82-1.02-3.23-2.09-4.22-1.07-.99-2.41-1.49-4.01-1.49-1.73,0-3.13,.5-4.2,1.49-1.07,.99-1.78,2.4-2.14,4.22Z"/><path class="cls-6" d="M456.34,230.49c-1.28,0-2.31-.38-3.1-1.13-.79-.75-1.18-1.75-1.18-3v-30.19c0-.32,.11-.59,.34-.82,.22-.22,.5-.34,.82-.34s.59,.11,.82,.34c.22,.22,.34,.5,.34,.82v30.19c0,.13,.02,.34,.07,.65,.05,.3,.22,.58,.5,.82,.29,.24,.75,.36,1.39,.36h3.79c.32,0,.59,.11,.82,.34,.22,.22,.34,.5,.34,.82s-.11,.59-.34,.82c-.22,.22-.5,.34-.82,.34h-3.79Z"/><path class="cls-6" d="M470.12,230.49c-1.28,0-2.31-.38-3.1-1.13-.79-.75-1.18-1.75-1.18-3v-30.19c0-.32,.11-.59,.34-.82,.22-.22,.5-.34,.82-.34s.59,.11,.82,.34c.22,.22,.34,.5,.34,.82v30.19c0,.13,.02,.34,.07,.65,.05,.3,.22,.58,.5,.82,.29,.24,.75,.36,1.39,.36h3.79c.32,0,.59,.11,.82,.34,.22,.22,.34,.5,.34,.82s-.11,.59-.34,.82c-.22,.22-.5,.34-.82,.34h-3.79Z"/><path class="cls-6" d="M487.06,230.73c-2.72,0-4.86-.94-6.43-2.81-1.57-1.87-2.35-4.41-2.35-7.61s.78-5.78,2.35-7.63c1.57-1.86,3.71-2.78,6.43-2.78s4.82,.93,6.41,2.78c1.58,1.86,2.38,4.4,2.38,7.63s-.79,5.74-2.38,7.61-3.72,2.81-6.41,2.81Zm0-2.3c2.08,0,3.68-.7,4.8-2.11s1.68-3.41,1.68-6-.56-4.54-1.68-5.95c-1.12-1.41-2.72-2.11-4.8-2.11s-3.65,.71-4.8,2.11c-1.15,1.41-1.73,3.39-1.73,5.95s.58,4.59,1.73,6c1.15,1.41,2.75,2.11,4.8,2.11Z"/><path class="cls-6" d="M503.05,230.73c-.58-.06-.91-.37-1.01-.91l-3.55-18.58c-.03-.32,.03-.62,.19-.89,.16-.27,.4-.44,.72-.5,.32-.03,.61,.04,.86,.22,.26,.18,.42,.41,.48,.7l2.88,15.12,4.75-10.32c.22-.45,.58-.67,1.06-.67s.83,.22,1.06,.67l4.75,10.32,2.83-15.02c.06-.32,.22-.57,.48-.74,.26-.18,.54-.23,.86-.17,.32,.03,.57,.18,.74,.46,.18,.27,.23,.57,.17,.89l-3.55,18.53c-.1,.54-.42,.85-.96,.91-.58,.06-.98-.16-1.2-.67l-5.18-11.28-5.23,11.28c-.22,.51-.61,.74-1.15,.67Z"/><path class="cls-4" d="M523.54,237.21c-.32,0-.59-.1-.82-.31s-.34-.47-.34-.79c0-.35,.11-.63,.34-.84,.22-.21,.5-.31,.82-.31,.9,0,1.51-.18,1.85-.55,.34-.37,.5-1,.5-1.9v-1.82c-.06,0-.12,0-.17,.02-.05,.02-.1,.02-.17,.02-.8,0-1.44-.3-1.92-.89-.48-.59-.72-1.29-.72-2.09s.24-1.54,.72-2.11c.48-.58,1.12-.86,1.92-.86s1.43,.29,1.9,.86,.7,1.28,.7,2.11v4.75c0,3.14-1.54,4.7-4.61,4.7Z"/><path class="cls-5" d="M97.48,288.81c-.32,0-.58-.11-.79-.34-.21-.22-.31-.5-.31-.82v-28.61c0-.32,.1-.59,.31-.82,.21-.22,.47-.34,.79-.34s.59,.11,.82,.34c.22,.22,.34,.5,.34,.82v1.78c.7-.9,1.56-1.61,2.57-2.14,1.01-.53,2.18-.79,3.53-.79,2.72,0,4.86,.93,6.43,2.78,1.57,1.86,2.35,4.4,2.35,7.63s-.78,5.74-2.35,7.61c-1.57,1.87-3.71,2.81-6.43,2.81-1.34,0-2.52-.26-3.53-.77-1.01-.51-1.86-1.22-2.57-2.11v11.81c0,.32-.11,.59-.34,.82-.22,.22-.5,.34-.82,.34Zm7.25-12.38c2.08,0,3.69-.7,4.82-2.11,1.14-1.41,1.7-3.41,1.7-6s-.57-4.54-1.7-5.95c-1.14-1.41-2.74-2.11-4.82-2.11-4.1,0-6.14,2.69-6.14,8.06s2.05,8.11,6.14,8.11Z"/><path class="cls-5" d="M123.06,278.78c-.32,0-.59-.1-.79-.31s-.31-.47-.31-.79v-16.75h-5.52c-.32,0-.59-.12-.82-.36-.22-.24-.34-.52-.34-.84s.11-.58,.34-.79c.22-.21,.5-.31,.82-.31h6.62c.35,0,.64,.1,.86,.31,.22,.21,.34,.47,.34,.79v17.95c0,.32-.11,.58-.34,.79-.22,.21-.51,.31-.86,.31Zm-.58-28.85c-.45,0-.82-.13-1.11-.38-.29-.26-.43-.54-.43-.86v-2.98c0-.32,.14-.62,.43-.89,.29-.27,.66-.41,1.11-.41s.81,.14,1.08,.41c.27,.27,.41,.57,.41,.89v2.98c0,.32-.14,.61-.41,.86-.27,.26-.63,.38-1.08,.38Z"/><path class="cls-5" d="M137.89,278.73c-1.82,0-3.43-.4-4.82-1.2s-2.38-1.87-2.95-3.22c-.13-.29-.13-.58,0-.86s.34-.5,.62-.62c.29-.13,.58-.13,.86,0,.29,.13,.5,.34,.62,.62,.42,.93,1.13,1.66,2.14,2.18,1.01,.53,2.18,.79,3.53,.79s2.45-.14,3.22-.41c.77-.27,1.32-.61,1.66-1.01s.54-.8,.62-1.2c.08-.4,.12-.71,.12-.94,0-.48-.11-.94-.34-1.39-.22-.45-.7-.87-1.44-1.27-.74-.4-1.87-.76-3.41-1.08-1.09-.22-2.22-.54-3.38-.96-1.17-.42-2.15-1-2.95-1.75-.8-.75-1.2-1.74-1.2-2.95,.03-1.63,.72-2.97,2.06-4.01,1.34-1.04,3.09-1.56,5.23-1.56,1.6,0,3.05,.34,4.34,1.03,1.3,.69,2.25,1.62,2.86,2.81,.16,.26,.19,.54,.1,.84-.1,.3-.27,.54-.53,.7-.32,.13-.62,.15-.91,.07s-.5-.26-.62-.55c-.35-.64-.96-1.22-1.82-1.75-.86-.53-2-.79-3.41-.79-.8,0-1.58,.1-2.35,.31-.77,.21-1.4,.54-1.9,1.01-.5,.46-.76,1.11-.79,1.94,0,.19,.08,.49,.24,.89,.16,.4,.64,.82,1.44,1.27,.8,.45,2.14,.86,4.03,1.25,1.12,.22,2.21,.55,3.29,.98,1.07,.43,1.97,1.04,2.69,1.82s1.06,1.83,1.03,3.14c0,.54-.1,1.15-.29,1.82-.19,.67-.56,1.31-1.1,1.92-.54,.61-1.34,1.11-2.38,1.51-1.04,.4-2.41,.6-4.1,.6Z"/><path class="cls-5" d="M158.96,278.49c-1.31,0-2.34-.38-3.1-1.13-.75-.75-1.13-1.75-1.13-3v-13.49h-4.61c-.32,0-.58-.11-.79-.34-.21-.22-.31-.5-.31-.82s.1-.58,.31-.79c.21-.21,.47-.31,.79-.31h4.61v-7.06c0-.32,.1-.59,.31-.82,.21-.22,.47-.34,.79-.34s.59,.11,.82,.34c.22,.22,.34,.5,.34,.82v7.06h5.95c.32,0,.59,.1,.82,.31,.22,.21,.34,.47,.34,.79s-.11,.59-.34,.82c-.22,.22-.5,.34-.82,.34h-5.95v13.49c0,.13,.02,.34,.07,.65,.05,.3,.22,.58,.5,.82,.29,.24,.75,.36,1.39,.36h3.74c.35,0,.64,.11,.86,.34,.22,.22,.34,.5,.34,.82s-.11,.59-.34,.82c-.22,.22-.51,.34-.86,.34h-3.74Z"/><path class="cls-5" d="M183.01,278.78c-.32,0-.59-.1-.82-.31-.22-.21-.34-.47-.34-.79v-.38l-5.9,1.15c-1.47,.29-2.72,.37-3.74,.24-1.03-.13-1.89-.45-2.59-.96-.51-.42-.92-.94-1.22-1.56-.3-.62-.49-1.33-.55-2.14-.19-1.86,.22-3.38,1.22-4.58s2.57-1.98,4.68-2.33l8.11-1.39v-1.34c0-.64-.1-1.32-.31-2.04-.21-.72-.63-1.26-1.27-1.61-.51-.32-1.17-.48-1.97-.48-1.98,0-4.43,.9-7.34,2.69-.29,.16-.58,.2-.86,.12s-.51-.25-.67-.5c-.19-.29-.25-.58-.17-.89,.08-.3,.25-.52,.5-.65,1.89-1.15,3.54-1.94,4.94-2.38,1.41-.43,2.61-.65,3.6-.65,.67,0,1.26,.07,1.75,.22,.5,.14,.92,.31,1.27,.5,.93,.51,1.63,1.26,2.11,2.23,.48,.98,.72,2.12,.72,3.43v13.3c0,.32-.1,.58-.31,.79-.21,.21-.49,.31-.84,.31Zm-7.44-2.64l6.29-1.15v-6.96l-7.68,1.3c-1.31,.22-2.26,.59-2.86,1.1s-.95,1.06-1.08,1.66c-.13,.59-.18,1.16-.14,1.7,.1,.99,.4,1.68,.91,2.06,.77,.58,2.29,.67,4.56,.29Z"/><path class="cls-5" d="M197.94,278.73c-2.72,0-4.86-.94-6.43-2.81-1.57-1.87-2.35-4.41-2.35-7.61s.78-5.78,2.35-7.63c1.57-1.86,3.71-2.78,6.43-2.78s4.77,.91,6.34,2.74c.22,.22,.33,.5,.31,.82-.02,.32-.15,.59-.41,.82-.22,.19-.5,.28-.82,.26-.32-.02-.59-.14-.82-.36-1.09-1.28-2.62-1.92-4.61-1.92s-3.65,.71-4.8,2.11c-1.15,1.41-1.73,3.39-1.73,5.95s.58,4.59,1.73,6c1.15,1.41,2.75,2.11,4.8,2.11s3.55-.62,4.61-1.87c.22-.26,.5-.4,.82-.43,.32-.03,.59,.06,.82,.29,.26,.19,.39,.45,.41,.77,.02,.32-.09,.61-.31,.86-1.6,1.79-3.71,2.69-6.34,2.69Z"/><path class="cls-5" d="M210.85,278.78c-.32,0-.59-.1-.82-.31-.22-.21-.34-.47-.34-.79v-33.55c0-.32,.11-.59,.34-.82s.5-.34,.82-.34,.59,.11,.82,.34c.22,.22,.34,.5,.34,.82v16.42c.74-.83,1.62-1.48,2.64-1.94,1.02-.46,2.13-.7,3.31-.7,2.21,0,3.94,.73,5.21,2.18,1.26,1.46,1.9,3.42,1.9,5.88v11.66c0,.32-.1,.58-.31,.79-.21,.21-.47,.31-.79,.31s-.59-.1-.82-.31c-.22-.21-.34-.47-.34-.79v-11.66c0-.74-.11-1.55-.34-2.45-.22-.9-.68-1.67-1.37-2.33-.69-.66-1.74-.98-3.14-.98-1.67,0-3.07,.51-4.22,1.54-1.15,1.02-1.73,2.48-1.73,4.37v11.57c0,.32-.11,.58-.34,.79-.22,.21-.5,.31-.82,.31Z"/><path class="cls-5" d="M236.53,278.78c-.32,0-.58-.1-.79-.31s-.31-.47-.31-.79v-16.75h-5.52c-.32,0-.59-.12-.82-.36-.22-.24-.34-.52-.34-.84s.11-.58,.34-.79c.22-.21,.5-.31,.82-.31h6.62c.35,0,.64,.1,.86,.31s.34,.47,.34,.79v17.95c0,.32-.11,.58-.34,.79-.22,.21-.51,.31-.86,.31Zm-.58-28.85c-.45,0-.82-.13-1.1-.38s-.43-.54-.43-.86v-2.98c0-.32,.14-.62,.43-.89,.29-.27,.66-.41,1.1-.41s.81,.14,1.08,.41c.27,.27,.41,.57,.41,.89v2.98c0,.32-.14,.61-.41,.86-.27,.26-.63,.38-1.08,.38Z"/><path class="cls-5" d="M252.37,278.73c-2.72,0-4.86-.94-6.43-2.81-1.57-1.87-2.35-4.41-2.35-7.61s.78-5.78,2.35-7.63c1.57-1.86,3.71-2.78,6.43-2.78s4.82,.93,6.41,2.78c1.58,1.86,2.38,4.4,2.38,7.63s-.79,5.74-2.38,7.61-3.72,2.81-6.41,2.81Zm0-2.3c2.08,0,3.68-.7,4.8-2.11s1.68-3.41,1.68-6-.56-4.54-1.68-5.95c-1.12-1.41-2.72-2.11-4.8-2.11s-3.65,.71-4.8,2.11c-1.15,1.41-1.73,3.39-1.73,5.95s.58,4.59,1.73,6c1.15,1.41,2.75,2.11,4.8,2.11Z"/><path class="cls-5" d="M285.1,278.78c-.32,0-.58-.1-.79-.31s-.31-.47-.31-.79v-16.75h-5.52c-.32,0-.59-.12-.82-.36-.22-.24-.34-.52-.34-.84s.11-.58,.34-.79c.22-.21,.5-.31,.82-.31h6.62c.35,0,.64,.1,.86,.31s.34,.47,.34,.79v17.95c0,.32-.11,.58-.34,.79-.22,.21-.51,.31-.86,.31Zm-.58-28.85c-.45,0-.82-.13-1.1-.38s-.43-.54-.43-.86v-2.98c0-.32,.14-.62,.43-.89,.29-.27,.66-.41,1.1-.41s.81,.14,1.08,.41c.27,.27,.41,.57,.41,.89v2.98c0,.32-.14,.61-.41,.86-.27,.26-.63,.38-1.08,.38Z"/><path class="cls-5" d="M300.94,278.73c-2.72,0-4.86-.94-6.43-2.81-1.57-1.87-2.35-4.41-2.35-7.61s.78-5.78,2.35-7.63c1.57-1.86,3.71-2.78,6.43-2.78s4.77,.91,6.34,2.74c.22,.22,.33,.5,.31,.82-.02,.32-.15,.59-.41,.82-.22,.19-.5,.28-.82,.26-.32-.02-.59-.14-.82-.36-1.09-1.28-2.62-1.92-4.61-1.92s-3.65,.71-4.8,2.11c-1.15,1.41-1.73,3.39-1.73,5.95s.58,4.59,1.73,6c1.15,1.41,2.75,2.11,4.8,2.11s3.55-.62,4.61-1.87c.22-.26,.5-.4,.82-.43,.32-.03,.59,.06,.82,.29,.26,.19,.39,.45,.41,.77,.02,.32-.09,.61-.31,.86-1.6,1.79-3.71,2.69-6.34,2.69Z"/><path class="cls-5" d="M320.14,278.73c-2.72,0-4.86-.94-6.43-2.81-1.57-1.87-2.35-4.41-2.35-7.61s.78-5.78,2.35-7.63c1.57-1.86,3.71-2.78,6.43-2.78,2.37,0,4.36,.82,5.98,2.45s2.49,3.84,2.62,6.62v.14c0,.29-.11,.54-.34,.77-.19,.22-.46,.34-.82,.34h-13.92c0,2.46,.52,4.45,1.56,5.95,1.04,1.5,2.68,2.26,4.92,2.26,1.15,0,2.23-.25,3.24-.74s1.78-1.14,2.33-1.94c.19-.26,.44-.42,.74-.48s.58,0,.84,.19c.25,.16,.42,.4,.48,.72,.06,.32,0,.61-.19,.86-.77,1.12-1.82,2.02-3.14,2.69-1.33,.67-2.76,1.01-4.3,1.01Zm-6.34-12.77h12.43c-.32-1.82-1.02-3.23-2.09-4.22-1.07-.99-2.41-1.49-4.01-1.49-1.73,0-3.13,.5-4.2,1.49-1.07,.99-1.78,2.4-2.14,4.22Z"/><path class="cls-5" d="M355.42,278.73c-2.72,0-4.86-.94-6.43-2.81-1.57-1.87-2.35-4.41-2.35-7.61s.78-5.78,2.35-7.63c1.57-1.86,3.71-2.78,6.43-2.78s4.77,.91,6.34,2.74c.22,.22,.33,.5,.31,.82-.02,.32-.15,.59-.41,.82-.22,.19-.5,.28-.82,.26-.32-.02-.59-.14-.82-.36-1.09-1.28-2.62-1.92-4.61-1.92s-3.65,.71-4.8,2.11c-1.15,1.41-1.73,3.39-1.73,5.95s.58,4.59,1.73,6c1.15,1.41,2.75,2.11,4.8,2.11s3.55-.62,4.61-1.87c.22-.26,.5-.4,.82-.43,.32-.03,.59,.06,.82,.29,.26,.19,.39,.45,.41,.77,.02,.32-.09,.61-.31,.86-1.6,1.79-3.71,2.69-6.34,2.69Z"/><path class="cls-5" d="M367.47,278.73c-.32,0-.59-.11-.82-.34s-.34-.48-.34-.77v-18.53c0-.32,.11-.59,.34-.82s.5-.34,.82-.34,.58,.11,.79,.34c.21,.22,.31,.5,.31,.82v1.2c.48-.58,1.15-1.08,2.02-1.51,.86-.43,1.7-.71,2.5-.84,1.12-.16,2.26-.07,3.41,.26,1.15,.34,2.18,.91,3.1,1.7,.91,.8,1.54,1.86,1.9,3.17,.1,.29,.06,.57-.1,.84s-.38,.46-.67,.55c-.32,.06-.62,.02-.89-.14-.27-.16-.44-.38-.5-.67-.26-.93-.7-1.66-1.34-2.21-.64-.54-1.37-.91-2.18-1.1-.82-.19-1.61-.22-2.38-.1-1.38,.16-2.53,.67-3.46,1.54-.93,.86-1.39,2.24-1.39,4.13v11.71c0,.29-.1,.54-.31,.77-.21,.22-.47,.34-.79,.34Z"/><path class="cls-5" d="M394.35,278.73c-2.72,0-4.86-.94-6.43-2.81-1.57-1.87-2.35-4.41-2.35-7.61s.78-5.78,2.35-7.63c1.57-1.86,3.71-2.78,6.43-2.78,2.37,0,4.36,.82,5.98,2.45s2.49,3.84,2.62,6.62v.14c0,.29-.11,.54-.34,.77-.19,.22-.46,.34-.82,.34h-13.92c0,2.46,.52,4.45,1.56,5.95,1.04,1.5,2.68,2.26,4.92,2.26,1.15,0,2.23-.25,3.24-.74s1.78-1.14,2.33-1.94c.19-.26,.44-.42,.74-.48s.58,0,.84,.19c.25,.16,.42,.4,.48,.72,.06,.32,0,.61-.19,.86-.77,1.12-1.82,2.02-3.14,2.69-1.33,.67-2.76,1.01-4.3,1.01Zm-6.34-12.77h12.43c-.32-1.82-1.02-3.23-2.09-4.22-1.07-.99-2.41-1.49-4.01-1.49-1.73,0-3.13,.5-4.2,1.49-1.07,.99-1.78,2.4-2.14,4.22Z"/><path class="cls-5" d="M423.25,278.78c-.32,0-.59-.1-.82-.31-.22-.21-.34-.47-.34-.79v-.38l-5.9,1.15c-1.47,.29-2.72,.37-3.74,.24-1.03-.13-1.89-.45-2.59-.96-.51-.42-.92-.94-1.22-1.56-.3-.62-.49-1.33-.55-2.14-.19-1.86,.22-3.38,1.22-4.58s2.57-1.98,4.68-2.33l8.11-1.39v-1.34c0-.64-.1-1.32-.31-2.04-.21-.72-.63-1.26-1.27-1.61-.51-.32-1.17-.48-1.97-.48-1.98,0-4.43,.9-7.34,2.69-.29,.16-.58,.2-.86,.12s-.51-.25-.67-.5c-.19-.29-.25-.58-.17-.89,.08-.3,.25-.52,.5-.65,1.89-1.15,3.54-1.94,4.94-2.38,1.41-.43,2.61-.65,3.6-.65,.67,0,1.26,.07,1.75,.22,.5,.14,.92,.31,1.27,.5,.93,.51,1.63,1.26,2.11,2.23,.48,.98,.72,2.12,.72,3.43v13.3c0,.32-.1,.58-.31,.79-.21,.21-.49,.31-.84,.31Zm-7.44-2.64l6.29-1.15v-6.96l-7.68,1.3c-1.31,.22-2.26,.59-2.86,1.1s-.95,1.06-1.08,1.66c-.13,.59-.18,1.16-.14,1.7,.1,.99,.4,1.68,.91,2.06,.77,.58,2.29,.67,4.56,.29Z"/><path class="cls-5" d="M430.01,278.78c-.32,0-.58-.11-.79-.34-.21-.22-.31-.48-.31-.77v-18.58c0-.29,.1-.55,.31-.79s.47-.36,.79-.36,.59,.12,.82,.36c.22,.24,.34,.5,.34,.79v1.3c.7-.74,1.52-1.33,2.45-1.78,.93-.45,1.92-.67,2.98-.67,1.31,0,2.46,.31,3.46,.94,.99,.62,1.76,1.5,2.3,2.62,.67-1.06,1.55-1.91,2.64-2.57,1.09-.66,2.3-.98,3.65-.98,2.05,0,3.67,.74,4.87,2.21,1.2,1.47,1.8,3.44,1.8,5.9v11.57c0,.29-.1,.54-.31,.77-.21,.22-.47,.34-.79,.34s-.59-.11-.82-.34c-.22-.22-.34-.48-.34-.77v-11.57c0-.45-.05-.99-.14-1.63-.1-.64-.29-1.28-.58-1.92-.29-.64-.73-1.18-1.32-1.61-.59-.43-1.38-.65-2.38-.65-1.57,0-2.85,.55-3.84,1.66-.99,1.1-1.49,2.49-1.49,4.15v11.57c0,.29-.1,.54-.31,.77-.21,.22-.47,.34-.79,.34s-.6-.11-.84-.34c-.24-.22-.36-.48-.36-.77v-11.47c0-1.02-.15-1.98-.46-2.88-.3-.9-.78-1.62-1.42-2.18-.64-.56-1.49-.84-2.54-.84-1.44,0-2.7,.44-3.79,1.32-1.09,.88-1.63,2.02-1.63,3.43v12.67c0,.29-.11,.54-.34,.77-.22,.22-.5,.34-.82,.34Z"/><path class="cls-4" d="M488.62,278.78c-.32,0-.59-.1-.82-.31-.22-.21-.34-.47-.34-.79v-.38l-5.9,1.15c-1.47,.29-2.72,.37-3.74,.24-1.03-.13-1.89-.45-2.59-.96-.51-.42-.92-.94-1.22-1.56-.3-.62-.49-1.33-.55-2.14-.19-1.86,.22-3.38,1.22-4.58s2.57-1.98,4.68-2.33l8.11-1.39v-1.34c0-.64-.1-1.32-.31-2.04-.21-.72-.63-1.26-1.27-1.61-.51-.32-1.17-.48-1.97-.48-1.98,0-4.43,.9-7.34,2.69-.29,.16-.58,.2-.86,.12s-.51-.25-.67-.5c-.19-.29-.25-.58-.17-.89,.08-.3,.25-.52,.5-.65,1.89-1.15,3.54-1.94,4.94-2.38,1.41-.43,2.61-.65,3.6-.65,.67,0,1.26,.07,1.75,.22,.5,.14,.92,.31,1.27,.5,.93,.51,1.63,1.26,2.11,2.23,.48,.98,.72,2.12,.72,3.43v13.3c0,.32-.1,.58-.31,.79-.21,.21-.49,.31-.84,.31Zm-7.44-2.64l6.29-1.15v-6.96l-7.68,1.3c-1.31,.22-2.26,.59-2.86,1.1s-.95,1.06-1.08,1.66c-.13,.59-.18,1.16-.14,1.7,.1,.99,.4,1.68,.91,2.06,.77,.58,2.29,.67,4.56,.29Z"/><path class="cls-4" d="M495.39,278.73c-.32,0-.58-.1-.79-.31s-.31-.47-.31-.79v-18.62c0-.32,.1-.59,.31-.82,.21-.22,.47-.34,.79-.34s.59,.11,.82,.34c.22,.22,.34,.5,.34,.82v1.58c.74-.83,1.62-1.49,2.64-1.97,1.02-.48,2.13-.72,3.31-.72,2.21,0,3.94,.73,5.21,2.18,1.26,1.46,1.9,3.43,1.9,5.93v11.52c0,.32-.1,.59-.31,.82-.21,.22-.47,.34-.79,.34s-.59-.11-.82-.34-.34-.5-.34-.82v-11.52c0-.74-.11-1.55-.34-2.45-.22-.9-.68-1.67-1.37-2.33-.69-.66-1.74-.98-3.14-.98-1.86,0-3.31,.51-4.37,1.54-1.06,1.02-1.58,2.48-1.58,4.37v11.47c0,.32-.11,.58-.34,.79-.22,.21-.5,.31-.82,.31Z"/><path class="cls-4" d="M530.81,278.78c-.32,0-.58-.1-.79-.31s-.31-.47-.31-.79v-2.02c-.74,.93-1.63,1.67-2.69,2.23-1.06,.56-2.27,.84-3.65,.84-2.72,0-4.86-.94-6.43-2.81-1.57-1.87-2.35-4.41-2.35-7.61s.78-5.78,2.35-7.63c1.57-1.86,3.71-2.78,6.43-2.78,1.38,0,2.59,.29,3.65,.86,1.06,.58,1.95,1.33,2.69,2.26v-16.85c0-.32,.1-.59,.31-.82,.21-.22,.47-.34,.79-.34s.59,.11,.82,.34c.22,.22,.34,.5,.34,.82v33.5c0,.32-.11,.58-.34,.79-.22,.21-.5,.31-.82,.31Zm-7.44-2.35c2.05,0,3.62-.7,4.7-2.11,1.09-1.41,1.63-3.41,1.63-6s-.54-4.54-1.63-5.95c-1.09-1.41-2.66-2.11-4.7-2.11s-3.65,.71-4.8,2.11c-1.15,1.41-1.73,3.39-1.73,5.95s.58,4.59,1.73,6c1.15,1.41,2.75,2.11,4.8,2.11Z"/><path class="cls-3" d="M202.76,326.73c-1.82,0-3.43-.4-4.82-1.2s-2.38-1.87-2.95-3.22c-.13-.29-.13-.58,0-.86s.34-.5,.62-.62c.29-.13,.58-.13,.86,0,.29,.13,.5,.34,.62,.62,.42,.93,1.13,1.66,2.14,2.18,1.01,.53,2.18,.79,3.53,.79s2.45-.14,3.22-.41c.77-.27,1.32-.61,1.66-1.01s.54-.8,.62-1.2c.08-.4,.12-.71,.12-.94,0-.48-.11-.94-.34-1.39-.22-.45-.7-.87-1.44-1.27-.74-.4-1.87-.76-3.41-1.08-1.09-.22-2.22-.54-3.38-.96-1.17-.42-2.15-1-2.95-1.75-.8-.75-1.2-1.74-1.2-2.95,.03-1.63,.72-2.97,2.06-4.01,1.34-1.04,3.09-1.56,5.23-1.56,1.6,0,3.05,.34,4.34,1.03,1.3,.69,2.25,1.62,2.86,2.81,.16,.26,.19,.54,.1,.84-.1,.3-.27,.54-.53,.7-.32,.13-.62,.15-.91,.07s-.5-.26-.62-.55c-.35-.64-.96-1.22-1.82-1.75-.86-.53-2-.79-3.41-.79-.8,0-1.58,.1-2.35,.31-.77,.21-1.4,.54-1.9,1.01-.5,.46-.76,1.11-.79,1.94,0,.19,.08,.49,.24,.89,.16,.4,.64,.82,1.44,1.27,.8,.45,2.14,.86,4.03,1.25,1.12,.22,2.21,.55,3.29,.98,1.07,.43,1.97,1.04,2.69,1.82s1.06,1.83,1.03,3.14c0,.54-.1,1.15-.29,1.82-.19,.67-.56,1.31-1.1,1.92-.54,.61-1.34,1.11-2.38,1.51-1.04,.4-2.41,.6-4.1,.6Z"/><path class="cls-3" d="M222.78,326.73c-2.21,0-3.94-.72-5.21-2.16-1.26-1.44-1.9-3.42-1.9-5.95v-11.47c0-.32,.1-.59,.31-.82,.21-.22,.47-.34,.79-.34s.59,.11,.82,.34c.22,.22,.34,.5,.34,.82v11.47c0,.74,.11,1.56,.34,2.47,.22,.91,.68,1.7,1.37,2.38,.69,.67,1.74,1.01,3.14,1.01,1.89,0,3.35-.51,4.39-1.54,1.04-1.02,1.56-2.5,1.56-4.42v-11.42c0-.32,.11-.6,.34-.84,.22-.24,.5-.36,.82-.36s.58,.12,.79,.36c.21,.24,.31,.52,.31,.84v18.53c0,.32-.1,.58-.31,.79-.21,.21-.47,.31-.79,.31s-.59-.1-.82-.31c-.22-.21-.34-.47-.34-.79v-1.49c-.74,.8-1.61,1.43-2.62,1.9-1.01,.46-2.12,.7-3.34,.7Z"/><path class="cls-3" d="M237.56,326.78c-.32,0-.58-.11-.79-.34-.21-.22-.31-.48-.31-.77v-18.58c0-.29,.1-.55,.31-.79s.47-.36,.79-.36,.59,.12,.82,.36c.22,.24,.34,.5,.34,.79v1.3c.7-.74,1.52-1.33,2.45-1.78,.93-.45,1.92-.67,2.98-.67,1.31,0,2.46,.31,3.46,.94,.99,.62,1.76,1.5,2.3,2.62,.67-1.06,1.55-1.91,2.64-2.57,1.09-.66,2.3-.98,3.65-.98,2.05,0,3.67,.74,4.87,2.21,1.2,1.47,1.8,3.44,1.8,5.9v11.57c0,.29-.1,.54-.31,.77-.21,.22-.47,.34-.79,.34s-.59-.11-.82-.34c-.22-.22-.34-.48-.34-.77v-11.57c0-.45-.05-.99-.14-1.63-.1-.64-.29-1.28-.58-1.92-.29-.64-.73-1.18-1.32-1.61-.59-.43-1.38-.65-2.38-.65-1.57,0-2.85,.55-3.84,1.66-.99,1.1-1.49,2.49-1.49,4.15v11.57c0,.29-.1,.54-.31,.77-.21,.22-.47,.34-.79,.34s-.6-.11-.84-.34c-.24-.22-.36-.48-.36-.77v-11.47c0-1.02-.15-1.98-.46-2.88-.3-.9-.78-1.62-1.42-2.18-.64-.56-1.49-.84-2.54-.84-1.44,0-2.7,.44-3.79,1.32-1.09,.88-1.63,2.02-1.63,3.43v12.67c0,.29-.11,.54-.34,.77-.22,.22-.5,.34-.82,.34Z"/><path class="cls-3" d="M268.47,326.78c-.32,0-.58-.11-.79-.34-.21-.22-.31-.48-.31-.77v-18.58c0-.29,.1-.55,.31-.79s.47-.36,.79-.36,.59,.12,.82,.36c.22,.24,.34,.5,.34,.79v1.3c.7-.74,1.52-1.33,2.45-1.78,.93-.45,1.92-.67,2.98-.67,1.31,0,2.46,.31,3.46,.94,.99,.62,1.76,1.5,2.3,2.62,.67-1.06,1.55-1.91,2.64-2.57,1.09-.66,2.3-.98,3.65-.98,2.05,0,3.67,.74,4.87,2.21,1.2,1.47,1.8,3.44,1.8,5.9v11.57c0,.29-.1,.54-.31,.77-.21,.22-.47,.34-.79,.34s-.59-.11-.82-.34c-.22-.22-.34-.48-.34-.77v-11.57c0-.45-.05-.99-.14-1.63-.1-.64-.29-1.28-.58-1.92-.29-.64-.73-1.18-1.32-1.61-.59-.43-1.38-.65-2.38-.65-1.57,0-2.85,.55-3.84,1.66-.99,1.1-1.49,2.49-1.49,4.15v11.57c0,.29-.1,.54-.31,.77-.21,.22-.47,.34-.79,.34s-.6-.11-.84-.34c-.24-.22-.36-.48-.36-.77v-11.47c0-1.02-.15-1.98-.46-2.88-.3-.9-.78-1.62-1.42-2.18-.64-.56-1.49-.84-2.54-.84-1.44,0-2.7,.44-3.79,1.32-1.09,.88-1.63,2.02-1.63,3.43v12.67c0,.29-.11,.54-.34,.77-.22,.22-.5,.34-.82,.34Z"/><path class="cls-3" d="M307.54,326.73c-2.72,0-4.86-.94-6.43-2.81-1.57-1.87-2.35-4.41-2.35-7.61s.78-5.78,2.35-7.63c1.57-1.86,3.71-2.78,6.43-2.78,2.37,0,4.36,.82,5.98,2.45s2.49,3.84,2.62,6.62v.14c0,.29-.11,.54-.34,.77-.19,.22-.46,.34-.82,.34h-13.92c0,2.46,.52,4.45,1.56,5.95,1.04,1.5,2.68,2.26,4.92,2.26,1.15,0,2.23-.25,3.24-.74s1.78-1.14,2.33-1.94c.19-.26,.44-.42,.74-.48s.58,0,.84,.19c.25,.16,.42,.4,.48,.72,.06,.32,0,.61-.19,.86-.77,1.12-1.82,2.02-3.14,2.69-1.33,.67-2.76,1.01-4.3,1.01Zm-6.34-12.77h12.43c-.32-1.82-1.02-3.23-2.09-4.22-1.07-.99-2.41-1.49-4.01-1.49-1.73,0-3.13,.5-4.2,1.49-1.07,.99-1.78,2.4-2.14,4.22Z"/><path class="cls-3" d="M322.71,326.73c-.32,0-.59-.11-.82-.34s-.34-.48-.34-.77v-18.53c0-.32,.11-.59,.34-.82s.5-.34,.82-.34,.58,.11,.79,.34c.21,.22,.31,.5,.31,.82v1.2c.48-.58,1.15-1.08,2.02-1.51,.86-.43,1.7-.71,2.5-.84,1.12-.16,2.26-.07,3.41,.26,1.15,.34,2.18,.91,3.1,1.7,.91,.8,1.54,1.86,1.9,3.17,.1,.29,.06,.57-.1,.84s-.38,.46-.67,.55c-.32,.06-.62,.02-.89-.14-.27-.16-.44-.38-.5-.67-.26-.93-.7-1.66-1.34-2.21-.64-.54-1.37-.91-2.18-1.1-.82-.19-1.61-.22-2.38-.1-1.38,.16-2.53,.67-3.46,1.54-.93,.86-1.39,2.24-1.39,4.13v11.71c0,.29-.1,.54-.31,.77-.21,.22-.47,.34-.79,.34Z"/><path class="cls-3" d="M349.45,326.49c-1.31,0-2.34-.38-3.1-1.13-.75-.75-1.13-1.75-1.13-3v-13.49h-4.61c-.32,0-.58-.11-.79-.34-.21-.22-.31-.5-.31-.82s.1-.58,.31-.79c.21-.21,.47-.31,.79-.31h4.61v-7.06c0-.32,.1-.59,.31-.82,.21-.22,.47-.34,.79-.34s.59,.11,.82,.34c.22,.22,.34,.5,.34,.82v7.06h5.95c.32,0,.59,.1,.82,.31,.22,.21,.34,.47,.34,.79s-.11,.59-.34,.82c-.22,.22-.5,.34-.82,.34h-5.95v13.49c0,.13,.02,.34,.07,.65,.05,.3,.22,.58,.5,.82,.29,.24,.75,.36,1.39,.36h3.74c.35,0,.64,.11,.86,.34,.22,.22,.34,.5,.34,.82s-.11,.59-.34,.82c-.22,.22-.51,.34-.86,.34h-3.74Z"/><path class="cls-3" d="M365.1,326.78c-.32,0-.58-.1-.79-.31s-.31-.47-.31-.79v-16.75h-5.52c-.32,0-.59-.12-.82-.36-.22-.24-.34-.52-.34-.84s.11-.58,.34-.79c.22-.21,.5-.31,.82-.31h6.62c.35,0,.64,.1,.86,.31s.34,.47,.34,.79v17.95c0,.32-.11,.58-.34,.79-.22,.21-.51,.31-.86,.31Zm-.58-28.85c-.45,0-.82-.13-1.1-.38s-.43-.54-.43-.86v-2.98c0-.32,.14-.62,.43-.89,.29-.27,.66-.41,1.1-.41s.81,.14,1.08,.41c.27,.27,.41,.57,.41,.89v2.98c0,.32-.14,.61-.41,.86-.27,.26-.63,.38-1.08,.38Z"/><path class="cls-3" d="M373.74,326.78c-.32,0-.58-.11-.79-.34-.21-.22-.31-.48-.31-.77v-18.58c0-.29,.1-.55,.31-.79s.47-.36,.79-.36,.59,.12,.82,.36c.22,.24,.34,.5,.34,.79v1.3c.7-.74,1.52-1.33,2.45-1.78,.93-.45,1.92-.67,2.98-.67,1.31,0,2.46,.31,3.46,.94,.99,.62,1.76,1.5,2.3,2.62,.67-1.06,1.55-1.91,2.64-2.57,1.09-.66,2.3-.98,3.65-.98,2.05,0,3.67,.74,4.87,2.21,1.2,1.47,1.8,3.44,1.8,5.9v11.57c0,.29-.1,.54-.31,.77-.21,.22-.47,.34-.79,.34s-.59-.11-.82-.34c-.22-.22-.34-.48-.34-.77v-11.57c0-.45-.05-.99-.14-1.63-.1-.64-.29-1.28-.58-1.92-.29-.64-.73-1.18-1.32-1.61-.59-.43-1.38-.65-2.38-.65-1.57,0-2.85,.55-3.84,1.66-.99,1.1-1.49,2.49-1.49,4.15v11.57c0,.29-.1,.54-.31,.77-.21,.22-.47,.34-.79,.34s-.6-.11-.84-.34c-.24-.22-.36-.48-.36-.77v-11.47c0-1.02-.15-1.98-.46-2.88-.3-.9-.78-1.62-1.42-2.18-.64-.56-1.49-.84-2.54-.84-1.44,0-2.7,.44-3.79,1.32-1.09,.88-1.63,2.02-1.63,3.43v12.67c0,.29-.11,.54-.34,.77-.22,.22-.5,.34-.82,.34Z"/><path class="cls-3" d="M412.81,326.73c-2.72,0-4.86-.94-6.43-2.81-1.57-1.87-2.35-4.41-2.35-7.61s.78-5.78,2.35-7.63c1.57-1.86,3.71-2.78,6.43-2.78,2.37,0,4.36,.82,5.98,2.45s2.49,3.84,2.62,6.62v.14c0,.29-.11,.54-.34,.77-.19,.22-.46,.34-.82,.34h-13.92c0,2.46,.52,4.45,1.56,5.95,1.04,1.5,2.68,2.26,4.92,2.26,1.15,0,2.23-.25,3.24-.74s1.78-1.14,2.33-1.94c.19-.26,.44-.42,.74-.48s.58,0,.84,.19c.25,.16,.42,.4,.48,.72,.06,.32,0,.61-.19,.86-.77,1.12-1.82,2.02-3.14,2.69-1.33,.67-2.76,1.01-4.3,1.01Zm-6.34-12.77h12.43c-.32-1.82-1.02-3.23-2.09-4.22-1.07-.99-2.41-1.49-4.01-1.49-1.73,0-3.13,.5-4.2,1.49-1.07,.99-1.78,2.4-2.14,4.22Z"/><path class="cls-4" d="M430.28,326.78c-.51,0-.92-.14-1.22-.43-.3-.29-.46-.59-.46-.91v-2.5c0-.35,.15-.66,.46-.94,.3-.27,.71-.41,1.22-.41,.54,0,.96,.14,1.25,.41,.29,.27,.43,.58,.43,.94v2.5c0,.32-.14,.62-.43,.91-.29,.29-.71,.43-1.25,.43Zm0-9.02c-.32,0-.59-.13-.82-.38-.22-.26-.34-.54-.34-.86v-23.47c0-.35,.11-.65,.34-.89,.22-.24,.5-.36,.82-.36,.35,0,.65,.12,.89,.36s.36,.54,.36,.89v23.47c0,.32-.12,.61-.36,.86-.24,.26-.54,.38-.89,.38Z"/></g></g></g></svg>