<?xml version="1.0" encoding="UTF-8"?><svg id="Layer_2" xmlns="http://www.w3.org/2000/svg" viewBox="0 0 948.1 200.42"><defs><style>.cls-1{fill:#f2f2f2;}</style></defs><g id="car"><g><path class="cls-1" d="M66.27,200.42c-20.84,0-37.1-5.83-48.77-17.5C5.83,171.25,0,154.99,0,134.15v-63.87C0,49.44,5.83,33.18,17.5,21.51,29.17,9.85,45.43,4.01,66.27,4.01c10.15,0,19.77,2.23,28.86,6.68,9.09,4.46,16.74,10.69,22.98,18.71,1.24,1.43,1.78,3.03,1.6,4.81-.18,1.78-.98,3.3-2.41,4.54-1.6,1.07-3.34,1.47-5.21,1.2-1.87-.27-3.34-1.02-4.41-2.27-4.99-6.41-11.14-11.4-18.44-14.96-7.31-3.56-14.96-5.34-22.98-5.34-16.57,0-29.53,4.68-38.88,14.03-9.35,9.35-14.03,22.31-14.03,38.88v63.87c0,16.57,4.68,29.53,14.03,38.88,9.35,9.35,22.31,14.03,38.88,14.03,8.02,0,15.67-1.74,22.98-5.21,7.3-3.47,13.45-8.42,18.44-14.83,1.07-1.42,2.54-2.27,4.41-2.54,1.87-.27,3.61,.23,5.21,1.47,1.42,1.07,2.23,2.54,2.41,4.41,.18,1.87-.36,3.52-1.6,4.94-6.24,8.02-13.9,14.21-22.98,18.57-9.09,4.36-18.71,6.55-28.86,6.55Z"/><path class="cls-1" d="M159.8,199.35c-1.78,0-3.3-.58-4.54-1.74-1.25-1.16-1.87-2.63-1.87-4.41V6.41c0-1.78,.62-3.29,1.87-4.54,1.24-1.24,2.76-1.87,4.54-1.87s3.29,.63,4.54,1.87c1.24,1.25,1.87,2.76,1.87,4.54V97.8c4.1-4.63,8.99-8.24,14.7-10.82,5.7-2.58,11.85-3.88,18.44-3.88,12.29,0,21.95,4.05,28.99,12.16,7.04,8.11,10.56,19.02,10.56,32.73v64.94c0,1.78-.58,3.25-1.74,4.41-1.16,1.16-2.63,1.74-4.41,1.74s-3.3-.58-4.54-1.74c-1.25-1.16-1.87-2.63-1.87-4.41v-64.94c0-4.1-.63-8.64-1.87-13.63-1.25-4.99-3.79-9.31-7.62-12.96-3.83-3.65-9.67-5.48-17.5-5.48-9.27,0-17.1,2.85-23.52,8.55-6.41,5.7-9.62,13.81-9.62,24.32v64.4c0,1.78-.63,3.25-1.87,4.41-1.25,1.16-2.76,1.74-4.54,1.74Z"/><path class="cls-1" d="M352.2,199.35c-1.78,0-3.3-.58-4.54-1.74-1.25-1.16-1.87-2.63-1.87-4.41v-2.14l-32.87,6.41c-8.2,1.6-15.14,2.05-20.84,1.34-5.7-.71-10.51-2.5-14.43-5.34-2.85-2.31-5.12-5.21-6.81-8.68-1.7-3.47-2.72-7.44-3.07-11.89-1.07-10.33,1.2-18.84,6.81-25.52,5.61-6.68,14.3-11,26.05-12.96l45.16-7.75v-7.48c0-3.56-.58-7.35-1.74-11.36-1.16-4.01-3.52-6.99-7.08-8.95-2.85-1.78-6.51-2.67-10.96-2.67-11.05,0-24.68,4.99-40.89,14.96-1.6,.89-3.21,1.12-4.81,.67-1.6-.44-2.85-1.38-3.74-2.81-1.07-1.6-1.38-3.25-.94-4.94,.44-1.69,1.38-2.89,2.81-3.61,10.51-6.41,19.68-10.82,27.52-13.23,7.84-2.41,14.52-3.61,20.04-3.61,3.74,0,6.99,.4,9.75,1.2,2.76,.8,5.12,1.74,7.08,2.81,5.16,2.85,9.09,6.99,11.76,12.43,2.67,5.44,4.01,11.8,4.01,19.11v74.02c0,1.78-.58,3.25-1.74,4.41-1.16,1.16-2.72,1.74-4.68,1.74Zm-41.42-14.7l35.01-6.41v-38.75l-42.76,7.22c-7.31,1.25-12.61,3.3-15.9,6.15-3.3,2.85-5.3,5.92-6.01,9.22-.71,3.3-.98,6.46-.8,9.49,.53,5.52,2.23,9.35,5.08,11.49,4.28,3.21,12.73,3.74,25.39,1.6Z"/><path class="cls-1" d="M390.14,199.08c-1.78,0-3.3-.63-4.54-1.87-1.25-1.25-1.87-2.67-1.87-4.28V89.79c0-1.78,.62-3.29,1.87-4.54,1.24-1.24,2.76-1.87,4.54-1.87s3.25,.63,4.41,1.87c1.16,1.25,1.74,2.76,1.74,4.54v6.68c2.67-3.21,6.41-6.01,11.22-8.42,4.81-2.4,9.44-3.96,13.9-4.68,6.23-.89,12.56-.4,18.97,1.47,6.41,1.87,12.16,5.04,17.24,9.49,5.08,4.46,8.59,10.33,10.56,17.64,.53,1.6,.35,3.17-.53,4.68-.89,1.52-2.14,2.54-3.74,3.07-1.78,.36-3.43,.09-4.94-.8-1.52-.89-2.45-2.14-2.81-3.74-1.43-5.16-3.92-9.26-7.48-12.29-3.57-3.03-7.62-5.08-12.16-6.15-4.54-1.07-8.95-1.25-13.23-.54-7.66,.89-14.08,3.74-19.24,8.55-5.17,4.81-7.75,12.47-7.75,22.98v65.2c0,1.6-.58,3.03-1.74,4.28-1.16,1.24-2.63,1.87-4.41,1.87Z"/><path class="cls-1" d="M526.96,199.35c-1.78,0-3.25-.58-4.41-1.74-1.16-1.16-1.74-2.63-1.74-4.41V99.94h-30.73c-1.78,0-3.3-.67-4.54-2-1.25-1.34-1.87-2.89-1.87-4.68s.62-3.25,1.87-4.41c1.24-1.16,2.76-1.74,4.54-1.74h36.88c1.96,0,3.56,.58,4.81,1.74,1.24,1.16,1.87,2.63,1.87,4.41v99.94c0,1.78-.63,3.25-1.87,4.41-1.25,1.16-2.85,1.74-4.81,1.74Zm-3.21-160.6c-2.5,0-4.54-.71-6.15-2.14-1.6-1.42-2.41-3.03-2.41-4.81V15.23c0-1.78,.8-3.43,2.41-4.94,1.6-1.51,3.65-2.27,6.15-2.27s4.5,.76,6.01,2.27c1.51,1.52,2.27,3.17,2.27,4.94V31.8c0,1.78-.76,3.39-2.27,4.81-1.52,1.43-3.52,2.14-6.01,2.14Z"/><path class="cls-1" d="M609.53,199.08c-10.15,0-19.11-2.23-26.86-6.68-7.75-4.45-13.23-10.42-16.43-17.9-.71-1.6-.71-3.21,0-4.81,.71-1.6,1.87-2.76,3.47-3.47,1.6-.71,3.21-.71,4.81,0,1.6,.71,2.76,1.87,3.47,3.47,2.31,5.17,6.28,9.22,11.89,12.16,5.61,2.94,12.16,4.41,19.64,4.41s13.63-.76,17.9-2.27c4.28-1.51,7.35-3.38,9.22-5.61,1.87-2.22,3.03-4.45,3.47-6.68,.44-2.23,.67-3.96,.67-5.21,0-2.67-.63-5.25-1.87-7.75-1.25-2.49-3.92-4.85-8.02-7.08-4.1-2.23-10.42-4.23-18.97-6.01-6.06-1.24-12.34-3.03-18.84-5.34-6.51-2.31-11.98-5.57-16.43-9.75-4.46-4.18-6.68-9.66-6.68-16.43,.18-9.09,4.01-16.52,11.49-22.31,7.48-5.79,17.19-8.68,29.13-8.68,8.91,0,16.97,1.92,24.18,5.75,7.22,3.83,12.51,9.04,15.9,15.63,.89,1.43,1.07,2.99,.53,4.68-.53,1.7-1.52,2.99-2.94,3.87-1.78,.71-3.47,.85-5.08,.4-1.6-.44-2.76-1.47-3.47-3.07-1.96-3.56-5.34-6.81-10.15-9.75s-11.14-4.41-18.97-4.41c-4.46,0-8.82,.58-13.09,1.74-4.28,1.16-7.8,3.03-10.56,5.61-2.76,2.58-4.23,6.19-4.41,10.82,0,1.07,.44,2.72,1.34,4.94,.89,2.23,3.56,4.59,8.02,7.08,4.45,2.5,11.93,4.81,22.45,6.95,6.23,1.25,12.33,3.07,18.3,5.48,5.97,2.41,10.96,5.79,14.96,10.15,4.01,4.37,5.92,10.2,5.75,17.5,0,3.03-.53,6.41-1.6,10.15s-3.12,7.31-6.15,10.69c-3.03,3.39-7.44,6.19-13.23,8.42-5.79,2.23-13.41,3.34-22.85,3.34Z"/><path class="cls-1" d="M687.56,199.35c-1.78,0-3.25-.63-4.41-1.87-1.16-1.25-1.74-2.67-1.74-4.28V89.79c0-1.6,.58-3.07,1.74-4.41,1.16-1.34,2.63-2,4.41-2s3.29,.67,4.54,2c1.24,1.34,1.87,2.81,1.87,4.41v7.21c3.92-4.1,8.46-7.39,13.63-9.89,5.17-2.49,10.69-3.74,16.57-3.74,7.3,0,13.72,1.74,19.24,5.21,5.52,3.47,9.8,8.33,12.83,14.56,3.74-5.88,8.64-10.64,14.7-14.3,6.05-3.65,12.83-5.48,20.31-5.48,11.4,0,20.44,4.1,27.12,12.29,6.68,8.2,10.02,19.15,10.02,32.87v64.4c0,1.6-.58,3.03-1.74,4.28-1.16,1.24-2.63,1.87-4.41,1.87s-3.3-.63-4.54-1.87c-1.25-1.25-1.87-2.67-1.87-4.28v-64.4c0-2.49-.27-5.52-.8-9.08-.54-3.56-1.6-7.12-3.21-10.69-1.6-3.56-4.05-6.55-7.35-8.95-3.3-2.4-7.71-3.61-13.23-3.61-8.73,0-15.86,3.07-21.38,9.22-5.52,6.15-8.28,13.85-8.28,23.11v64.4c0,1.6-.58,3.03-1.74,4.28-1.16,1.24-2.63,1.87-4.41,1.87s-3.34-.63-4.68-1.87c-1.34-1.25-2-2.67-2-4.28v-63.87c0-5.7-.85-11.04-2.54-16.03-1.7-4.99-4.32-9.04-7.88-12.16-3.57-3.12-8.28-4.68-14.16-4.68-8.02,0-15.06,2.45-21.11,7.35-6.06,4.9-9.09,11.27-9.09,19.11v70.55c0,1.6-.63,3.03-1.87,4.28-1.25,1.25-2.76,1.87-4.54,1.87Z"/><path class="cls-1" d="M941.68,199.35c-1.78,0-3.3-.58-4.54-1.74-1.25-1.16-1.87-2.63-1.87-4.41v-2.14l-32.87,6.41c-8.2,1.6-15.14,2.05-20.84,1.34-5.7-.71-10.51-2.5-14.43-5.34-2.85-2.31-5.12-5.21-6.81-8.68-1.7-3.47-2.72-7.44-3.07-11.89-1.07-10.33,1.2-18.84,6.81-25.52,5.61-6.68,14.3-11,26.05-12.96l45.16-7.75v-7.48c0-3.56-.58-7.35-1.74-11.36-1.16-4.01-3.52-6.99-7.08-8.95-2.85-1.78-6.5-2.67-10.96-2.67-11.05,0-24.68,4.99-40.88,14.96-1.6,.89-3.21,1.12-4.81,.67-1.6-.44-2.85-1.38-3.74-2.81-1.07-1.6-1.38-3.25-.94-4.94,.44-1.69,1.38-2.89,2.81-3.61,10.51-6.41,19.68-10.82,27.52-13.23,7.84-2.41,14.52-3.61,20.04-3.61,3.74,0,6.99,.4,9.75,1.2,2.76,.8,5.12,1.74,7.08,2.81,5.17,2.85,9.09,6.99,11.76,12.43,2.67,5.44,4.01,11.8,4.01,19.11v74.02c0,1.78-.58,3.25-1.74,4.41-1.16,1.16-2.72,1.74-4.68,1.74Zm-41.42-14.7l35.01-6.41v-38.75l-42.76,7.22c-7.31,1.25-12.61,3.3-15.9,6.15-3.3,2.85-5.3,5.92-6.01,9.22-.71,3.3-.98,6.46-.8,9.49,.53,5.52,2.23,9.35,5.08,11.49,4.28,3.21,12.73,3.74,25.39,1.6Z"/></g></g></svg>