<?xml version="1.0" encoding="UTF-8"?><svg id="Layer_2" xmlns="http://www.w3.org/2000/svg" viewBox="0 0 986.57 247.28"><defs><style>.cls-1{fill:#f2f2f2;}</style></defs><g id="car"><g><path class="cls-1" d="M6.68,187.59c-1.78,0-3.34-.67-4.68-2-1.34-1.34-2-2.89-2-4.68V7.22c0-1.78,.67-3.34,2-4.68C3.34,1.2,4.9,.54,6.68,.54H61.19c11.4,0,21.73,2.81,31,8.42,9.26,5.61,16.7,13.05,22.31,22.31,5.61,9.26,8.42,19.6,8.42,31v63.33c0,11.4-2.81,21.78-8.42,31.13s-13.05,16.83-22.31,22.45c-9.27,5.61-19.6,8.42-31,8.42H6.68Zm6.68-13.36H61.19c8.91,0,17.01-2.18,24.32-6.55,7.3-4.36,13.14-10.24,17.5-17.64,4.36-7.39,6.55-15.54,6.55-24.45V62.26c0-8.91-2.18-17.01-6.55-24.32-4.37-7.3-10.2-13.14-17.5-17.5-7.31-4.36-15.41-6.55-24.32-6.55H13.36V174.23Z"/><path class="cls-1" d="M196.67,191.06c-15.14,0-27.08-5.21-35.81-15.63-8.73-10.42-13.09-24.54-13.09-42.36s4.36-32.15,13.09-42.49c8.73-10.33,20.66-15.5,35.81-15.5,13.18,0,24.27,4.54,33.27,13.63,8.99,9.08,13.85,21.38,14.56,36.88v.8c0,1.6-.63,3.03-1.87,4.28-1.07,1.25-2.58,1.87-4.54,1.87h-77.49c0,13.72,2.89,24.76,8.68,33.14,5.79,8.38,14.92,12.56,27.39,12.56,6.41,0,12.43-1.38,18.04-4.14,5.61-2.76,9.93-6.37,12.96-10.82,1.07-1.42,2.45-2.31,4.14-2.67,1.69-.36,3.25,0,4.68,1.07,1.42,.89,2.31,2.23,2.67,4.01,.35,1.78,0,3.39-1.07,4.81-4.28,6.24-10.11,11.22-17.5,14.96-7.39,3.74-15.37,5.61-23.92,5.61Zm-35.27-71.08h69.21c-1.78-10.15-5.66-17.99-11.62-23.52-5.97-5.52-13.41-8.28-22.31-8.28-9.62,0-17.42,2.76-23.38,8.28-5.97,5.52-9.93,13.36-11.89,23.52Z"/><path class="cls-1" d="M270.43,189.73c-1.25-1.07-2-2.49-2.27-4.28-.27-1.78,.22-3.29,1.47-4.54l40.35-52.11-33.67-43.29c-1.07-1.42-1.47-2.98-1.2-4.68,.27-1.69,1.02-3.16,2.27-4.41,1.42-.89,2.98-1.24,4.68-1.07,1.69,.18,3.07,.98,4.14,2.41l31.8,40.88,31.8-40.88c1.07-1.42,2.45-2.23,4.14-2.41,1.69-.18,3.25,.27,4.68,1.34,1.42,1.07,2.23,2.45,2.4,4.14,.18,1.7-.27,3.25-1.34,4.68l-33.67,43.29,40.62,52.11c.89,1.25,1.24,2.76,1.07,4.54-.18,1.78-.98,3.21-2.4,4.28-1.25,1.07-2.76,1.47-4.54,1.2-1.78-.27-3.21-1.03-4.28-2.27l-38.48-49.44-38.48,49.44c-1.07,1.24-2.5,2-4.28,2.27-1.78,.27-3.39-.13-4.81-1.2Z"/><path class="cls-1" d="M437.17,189.73c-7.31,0-13.05-2.1-17.24-6.28-4.19-4.18-6.28-9.75-6.28-16.7V91.66h-25.65c-1.78,0-3.25-.62-4.41-1.87-1.16-1.24-1.74-2.76-1.74-4.54s.58-3.25,1.74-4.41c1.16-1.16,2.63-1.74,4.41-1.74h25.65V39.82c0-1.78,.58-3.29,1.74-4.54,1.16-1.24,2.63-1.87,4.41-1.87s3.29,.63,4.54,1.87c1.24,1.25,1.87,2.76,1.87,4.54v39.28h33.14c1.78,0,3.29,.58,4.54,1.74,1.24,1.16,1.87,2.63,1.87,4.41s-.63,3.3-1.87,4.54c-1.25,1.25-2.76,1.87-4.54,1.87h-33.14v75.09c0,.71,.13,1.92,.4,3.61,.27,1.7,1.2,3.21,2.81,4.54,1.6,1.34,4.18,2,7.75,2h20.84c1.96,0,3.56,.63,4.81,1.87,1.24,1.25,1.87,2.76,1.87,4.54s-.63,3.3-1.87,4.54c-1.25,1.24-2.85,1.87-4.81,1.87h-20.84Z"/><path class="cls-1" d="M531.77,191.06c-15.14,0-27.08-5.21-35.81-15.63-8.73-10.42-13.09-24.54-13.09-42.36s4.36-32.15,13.09-42.49c8.73-10.33,20.66-15.5,35.81-15.5,13.18,0,24.27,4.54,33.27,13.63,8.99,9.08,13.85,21.38,14.56,36.88v.8c0,1.6-.63,3.03-1.87,4.28-1.07,1.25-2.58,1.87-4.54,1.87h-77.49c0,13.72,2.89,24.76,8.68,33.14,5.79,8.38,14.92,12.56,27.39,12.56,6.41,0,12.43-1.38,18.04-4.14,5.61-2.76,9.93-6.37,12.96-10.82,1.07-1.42,2.45-2.31,4.14-2.67,1.69-.36,3.25,0,4.68,1.07,1.42,.89,2.31,2.23,2.67,4.01,.35,1.78,0,3.39-1.07,4.81-4.28,6.24-10.11,11.22-17.5,14.96-7.39,3.74-15.37,5.61-23.92,5.61Zm-35.27-71.08h69.21c-1.78-10.15-5.66-17.99-11.62-23.52-5.97-5.52-13.41-8.28-22.31-8.28-9.62,0-17.42,2.76-23.38,8.28-5.97,5.52-9.93,13.36-11.89,23.52Z"/><path class="cls-1" d="M616.21,191.06c-1.78,0-3.3-.63-4.54-1.87-1.25-1.25-1.87-2.67-1.87-4.28V81.77c0-1.78,.62-3.29,1.87-4.54,1.24-1.24,2.76-1.87,4.54-1.87s3.25,.63,4.41,1.87c1.16,1.25,1.74,2.76,1.74,4.54v6.68c2.67-3.21,6.41-6.01,11.22-8.42,4.81-2.4,9.44-3.96,13.9-4.68,6.23-.89,12.56-.4,18.97,1.47,6.41,1.87,12.16,5.04,17.24,9.49,5.08,4.46,8.59,10.33,10.56,17.64,.53,1.6,.35,3.17-.53,4.68-.89,1.52-2.14,2.54-3.74,3.07-1.78,.36-3.43,.09-4.94-.8-1.52-.89-2.45-2.14-2.81-3.74-1.43-5.16-3.92-9.26-7.48-12.29-3.57-3.03-7.62-5.08-12.16-6.15-4.54-1.07-8.95-1.25-13.23-.54-7.66,.89-14.08,3.74-19.24,8.55-5.17,4.81-7.75,12.47-7.75,22.98v65.2c0,1.6-.58,3.03-1.74,4.28-1.16,1.24-2.63,1.87-4.41,1.87Z"/><path class="cls-1" d="M753.03,191.33c-1.78,0-3.25-.58-4.41-1.74-1.16-1.16-1.74-2.63-1.74-4.41V91.92h-30.73c-1.78,0-3.3-.67-4.54-2-1.25-1.34-1.87-2.89-1.87-4.68s.62-3.25,1.87-4.41c1.24-1.16,2.76-1.74,4.54-1.74h36.88c1.96,0,3.56,.58,4.81,1.74,1.24,1.16,1.87,2.63,1.87,4.41v99.94c0,1.78-.63,3.25-1.87,4.41-1.25,1.16-2.85,1.74-4.81,1.74Zm-3.21-160.6c-2.5,0-4.54-.71-6.15-2.14-1.6-1.42-2.4-3.03-2.4-4.81V7.22c0-1.78,.8-3.43,2.4-4.94,1.6-1.51,3.65-2.27,6.15-2.27s4.5,.76,6.01,2.27c1.51,1.52,2.27,3.17,2.27,4.94V23.78c0,1.78-.76,3.39-2.27,4.81-1.52,1.43-3.52,2.14-6.01,2.14Z"/><path class="cls-1" d="M840.41,189.73c-7.31,0-13.05-2.1-17.24-6.28-4.19-4.18-6.28-9.75-6.28-16.7V91.66h-25.65c-1.78,0-3.25-.62-4.41-1.87-1.16-1.24-1.74-2.76-1.74-4.54s.58-3.25,1.74-4.41c1.16-1.16,2.63-1.74,4.41-1.74h25.65V39.82c0-1.78,.58-3.29,1.74-4.54,1.16-1.24,2.63-1.87,4.41-1.87s3.29,.63,4.54,1.87c1.24,1.25,1.87,2.76,1.87,4.54v39.28h33.14c1.78,0,3.29,.58,4.54,1.74,1.24,1.16,1.87,2.63,1.87,4.41s-.63,3.3-1.87,4.54c-1.25,1.25-2.76,1.87-4.54,1.87h-33.14v75.09c0,.71,.13,1.92,.4,3.61,.27,1.7,1.2,3.21,2.81,4.54s4.18,2,7.75,2h20.84c1.96,0,3.56,.63,4.81,1.87,1.24,1.25,1.87,2.76,1.87,4.54s-.63,3.3-1.87,4.54c-1.25,1.24-2.85,1.87-4.81,1.87h-20.84Z"/><path class="cls-1" d="M914.96,246.91c-1.78-.71-3.03-1.87-3.74-3.47-.71-1.6-.71-3.21,0-4.81l19.77-50.24-41.95-104.48c-.71-1.6-.71-3.21,0-4.81,.71-1.6,1.87-2.76,3.47-3.47,1.6-.53,3.21-.49,4.81,.13,1.6,.63,2.76,1.83,3.47,3.61l37.14,91.92,36.34-91.92c.71-1.78,1.82-2.98,3.34-3.61,1.51-.62,3.16-.67,4.94-.13,1.6,.71,2.76,1.87,3.47,3.47,.71,1.6,.71,3.21,0,4.81l-63.06,159.53c-.71,1.6-1.83,2.71-3.34,3.34-1.52,.62-3.07,.67-4.68,.13Z"/></g></g></svg>