<?xml version="1.0" encoding="UTF-8"?><svg id="Layer_2" xmlns="http://www.w3.org/2000/svg" viewBox="0 0 144.55 228.5"><defs><style>.cls-1{fill:#fff;}.cls-2{fill:#131921;}</style></defs><g id="web"><g><g><path class="cls-1" d="M11.3,203.31c-.37,5.29,3,10.62,7.92,12.57s11.03,.35,14.38-3.76c2.6-3.2,3.46-7.42,4.9-11.29s3.94-7.85,7.96-8.81c5.87-1.4,11.01,4.4,13.1,10.06,2.09,5.66,2.92,12.15,7.22,16.39,3.14,3.1,7.91,4.44,12.2,3.42s7.96-4.34,9.38-8.52c1.16-3.4,.87-7.1,.76-10.69-.11-3.59,.03-7.38,1.88-10.46,1.85-3.08,5.97-2.82,9.17-3.43,0,0,12.01-1.31,12.6,13.43,.17,4.3,.88,8.87,3.6,12.21,3.65,4.48,11.03,4.85,15.63,1.34,3.36-2.56,5.27-6.66,6.03-10.82s.47-8.42,.19-12.64l.33-9.32c.1-45.99-8.64-91.99-25.61-134.73-6.18-15.57-14.61-31.91-29.89-38.77-16.59-7.45-37-.87-49.9,11.96-12.89,12.83-19.48,30.69-23.5,48.42-8.28,36.52,1.67,133.44,1.67,133.44Z"/><path class="cls-2" d="M5.04,203.31c-.09,13.74,13.53,23.55,26.39,17.97,6.28-2.73,9.45-8.14,11.62-14.36,1.68-4.82,4.34-12.8,9.19-5.53,3.58,5.37,3.64,12.47,7.24,17.95s9.85,9.15,16.58,9.15,12.97-3.7,16.43-9.31c4.11-6.67,2.1-13.75,2.98-21.01,.38-3.14,2.77-2.87,4.92-3.13-.28,.03,1.17-.01,1.53,.03-1.31-.17,1.68,.6,1.78,.67,1.17,.76,1.87,1.94,2.33,3.5,1.95,6.71,.64,13.07,5.4,18.99,4.01,4.98,10.51,6.9,16.7,5.81s11.2-5.5,13.84-11.18c3.11-6.7,2.54-13.42,2.48-20.6-.09-10.88,.3-21.64-.38-32.54-2.01-32.18-8.15-64.15-18.41-94.72C117.66,41.04,107.16,9.43,79.89,1.72,53.02-5.88,27.21,12.8,15.12,35.63,4.82,55.09,1.14,76.7,.34,98.44c-1.26,34.19,1.19,68.68,4.49,102.7,.07,.72,.14,1.44,.21,2.17,.81,7.94,13.35,8.02,12.52,0-2.69-26.22-4.38-52.62-4.86-78.97-.31-16.67-.72-34.05,2.48-50.49,4.39-22.49,14.42-48.2,36.99-57.86,10.65-4.56,22.91-4.78,32.81,1.71,9.44,6.19,15.17,16.8,19.65,26.84,11.84,26.58,19.27,55.71,23.67,84.4,3.57,23.31,4.5,47.08,3.93,70.62-.11,4.43-1.18,11.63-6.76,12.3-7.31,.88-6.11-9.61-6.96-14.13-1.41-7.55-6.74-13.6-14.44-14.91-3.51-.6-7.24-.17-10.67,.72-6.83,1.78-9.85,7.84-10.45,14.49-.51,5.63,2.37,16.24-5.66,17.83-7.38,1.46-9.13-7.45-10.75-12.56-2.07-6.52-5.42-12.93-11.79-16.15-5.88-2.97-12.72-1.46-17.23,3.23-2.37,2.47-3.88,5.61-5.07,8.78-1.04,2.78-1.54,6.16-3.37,8.55-4.16,5.44-11.57,1.97-11.53-4.4,.05-8.06-12.47-8.07-12.52,0Z"/></g><path class="cls-2" d="M39.39,63.4v24.89c0,8.06,12.52,8.07,12.52,0v-24.89c0-8.06-12.52-8.07-12.52,0h0Z"/><path class="cls-2" d="M71.13,56.7l.93,29.68c.25,8.04,12.78,8.08,12.52,0l-.93-29.68c-.25-8.04-12.78-8.08-12.52,0h0Z"/></g></g></svg>