<?xml version="1.0" encoding="UTF-8"?><svg xmlns="http://www.w3.org/2000/svg" xmlns:xlink="http://www.w3.org/1999/xlink" viewBox="0 0 282.72 446.05"><defs><style>.f{fill:none;stroke:#282f59;stroke-miterlimit:10;stroke-width:3.24px;}.g{fill:#b2c478;}.h{fill:url(#d);}.i{fill:url(#e);}</style><radialGradient id="d" cx="134.43" cy="134.43" fx="134.43" fy="134.43" r="134.43" gradientTransform="matrix(1, 0, 0, 1, 0, 0)" gradientUnits="userSpaceOnUse"><stop offset="0" stop-color="#a5d28a"/><stop offset="1" stop-color="#8fdaa3" stop-opacity=".3"/></radialGradient><radialGradient id="e" cx="167.71" cy="237.58" fx="167.71" fy="237.58" r="166.41" gradientTransform="matrix(1, 0, 0, 1, 0, 0)" gradientUnits="userSpaceOnUse"><stop offset="0" stop-color="#a5d28a"/><stop offset="1" stop-color="#8fdaa3"/></radialGradient></defs><g id="a"/><g id="b"><g id="c"><circle class="h" cx="134.43" cy="134.43" r="134.43"/><g><g><path class="i" d="M181.06,91.11c67.62,29.34,108.33,103.29,98.61,177.74-1.08,16.19-6.47,31.29-16.19,46.4-4.32,5.4-7.55,10.79-12.95,16.19-11.87,9.71-23.74,18.34-37.77,23.74-21.58,6.47-45.32,7.55-65.82,17.26-11.87,6.47-19.42,17.26-19.42,30.21,1.08,17.26,10.79,34.53,28.35,40.58-1.91,.08-3.9,.24-5.85,.52-.02,0-.04,.01-.06,.01-34.58,1.26-65.64-29.07-63.15-64.26,1.21-16.93,9.46-33.55,22.65-44.32,14.96-12.23,35.24-16.52,53.02-22.97,15.75-5.71,29.33-15,37.46-30.02,8.59-15.86,9.6-35.22,1.14-51.38-18.17-34.72-66.43-30.72-99.06-36.2-16.43-2.76-34.18-9.26-42.29-24.95-7.19-13.92-6.9-31.98-1.2-46.36,1.79-4.52,4.25-8.78,7.25-12.61-.86-24.2,1.29-47.94,8.85-70.6,1.08-2.16,2.16-4.32,4.32-4.32,6.47,1.08,8.63,8.63,12.95,12.95,7.55,10.79,11.87,21.58,14.03,34.53,10.79-1.08,22.66-1.08,33.19-1.42,0,0,9.3-35.82,21.29-48.64,.94-1.01,2.17-2.08,3.51-1.77,1.2,.27,1.87,1.52,2.36,2.63,12,27.11,14.76,57.06,14.76,57.06Zm-12.2,10.61c1.1-12.27,.7-22.85-1.18-35.04-.94-6.03-2.34-12.25-6.12-17.05l-12.29,40.12,19.58,11.97Zm-6.57,26.58c.11-3.95-2.31-8.08-6.11-9.17s-7.79,.94-10.81,3.49c-7.81,6.59-11.99,17.28-10.71,27.42,0,0,8.77-2.93,12.53-4.93,3.5-1.87,7.02-3.76,9.92-6.46,2.88-2.71,5.09-6.38,5.19-10.34Zm-54.2,21.73c1.27-10.14-2.89-20.83-10.71-27.42-3.01-2.55-7.01-4.58-10.8-3.49-3.81,1.09-6.22,5.22-6.12,9.17,.11,3.96,2.31,7.63,5.2,10.34,2.88,2.71,6.42,4.6,9.92,6.46,3.74,2,12.52,4.93,12.52,4.93Zm-9.27-59.72l-17.05-38.35c-3.16,5.22-3.81,11.56-4.01,17.66-.4,12.31,.49,22.86,3.05,34.92l18.01-14.23Z"/><path class="g" d="M167.68,66.68c1.88,12.18,2.28,22.77,1.18,35.04l-19.58-11.97,12.29-40.12c3.78,4.8,5.18,11.02,6.12,17.05Z"/><path class="g" d="M156.18,119.12c3.8,1.09,6.22,5.22,6.11,9.17-.1,3.96-2.31,7.63-5.19,10.34-2.89,2.71-6.42,4.6-9.92,6.46-3.76,2-12.53,4.93-12.53,4.93-1.27-10.14,2.9-20.83,10.71-27.42,3.02-2.55,7.01-4.58,10.81-3.49Z"/><path class="g" d="M97.37,122.61c7.82,6.59,11.99,17.28,10.71,27.42,0,0-8.77-2.93-12.52-4.93-3.5-1.87-7.04-3.76-9.92-6.46-2.89-2.71-5.09-6.38-5.2-10.34-.1-3.95,2.31-8.08,6.12-9.17,3.79-1.09,7.79,.94,10.8,3.49Z"/><path class="g" d="M81.77,51.95l17.05,38.35-18.01,14.23c-2.57-12.05-3.45-22.61-3.05-34.92,.21-6.11,.85-12.44,4.01-17.66Z"/></g><g><path class="f" d="M147.18,145.1c3.5-1.87,7.02-3.76,9.92-6.46,2.88-2.71,5.09-6.38,5.19-10.34,.11-3.95-2.31-8.08-6.11-9.17s-7.79,.94-10.81,3.49c-7.81,6.59-11.99,17.28-10.71,27.42,0,0,8.77-2.93,12.53-4.93Z"/><path class="f" d="M95.57,145.1c-3.5-1.87-7.04-3.76-9.92-6.46-2.89-2.71-5.09-6.38-5.2-10.34-.1-3.95,2.31-8.08,6.12-9.17,3.79-1.09,7.79,.94,10.8,3.49,7.82,6.59,11.99,17.28,10.71,27.42,0,0-8.77-2.93-12.52-4.93Z"/><path class="f" d="M122.93,160.98c.29,3.54,.57,7.2-.53,10.57s-3.95,6.44-7.5,6.66"/><path class="f" d="M122.98,160.99c.29,4.02,.78,8.13,2.42,11.82,1.63,3.7,4.56,6.99,8.43,8.21"/><path class="f" d="M80.81,104.54c-2.57-12.05-3.45-22.61-3.05-34.92,.21-6.11,.85-12.44,4.01-17.66l17.05,38.35-18.01,14.23Z"/><path class="f" d="M168.86,101.72c1.1-12.27,.7-22.85-1.18-35.04-.94-6.03-2.34-12.25-6.12-17.05l-12.29,40.12,19.58,11.97Z"/><path class="f" d="M91.2,162.08c-5.61-.76-11.22-1.51-16.83-2.26"/><path class="f" d="M92.96,168.66c-4.31,1.94-8.61,3.9-12.91,5.85"/><path class="f" d="M149.93,168.18c5.62,2.58,10.87,5.97,15.54,10.04"/><path class="f" d="M150.91,162.14c5.63-1.55,11.28-3.11,16.91-4.66"/><path class="f" d="M149.96,443.77c-1.18,.17-2.34,.39-3.46,.67,3.13-.18,6.27-.76,9.38-1.2-17.56-6.05-27.27-23.32-28.35-40.58,0-12.95,7.55-23.74,19.42-30.21,20.5-9.71,44.24-10.79,65.82-17.26,14.03-5.4,25.9-14.03,37.77-23.74,5.4-5.4,8.63-10.79,12.95-16.19,9.71-15.11,15.11-30.21,16.19-46.4,9.71-74.45-30.99-148.4-98.61-177.74,0,0-2.76-29.95-14.76-57.06-.5-1.11-1.17-2.36-2.36-2.63-1.34-.31-2.57,.76-3.51,1.77-11.99,12.82-21.29,48.64-21.29,48.64-10.53,.35-22.4,.35-33.19,1.42-2.16-12.95-6.47-23.74-14.03-34.53-4.32-4.32-6.47-11.87-12.95-12.95-2.16,0-3.24,2.16-4.32,4.32-7.55,22.66-9.71,46.4-8.85,70.6"/><path class="f" d="M150.03,443.75c1.94-.08,3.88-.24,5.85-.52-1.91,.08-3.9,.24-5.85,.52"/><path class="f" d="M150.03,443.75s-.04,.01-.06,.01"/><path class="f" d="M65.81,110.7c-3,3.83-5.46,8.09-7.25,12.61-5.7,14.37-5.99,32.44,1.2,46.36,8.1,15.69,25.85,22.19,42.29,24.95,32.63,5.48,80.89,1.48,99.06,36.2,8.46,16.16,7.45,35.52-1.14,51.38-8.14,15.02-21.71,24.31-37.46,30.02-17.78,6.45-38.07,10.75-53.02,22.97-13.19,10.77-21.44,27.39-22.65,44.32-2.49,35.19,28.56,65.52,63.15,64.26"/></g></g></g></g></svg>