<?xml version="1.0" encoding="UTF-8"?><svg xmlns="http://www.w3.org/2000/svg" xmlns:xlink="http://www.w3.org/1999/xlink" viewBox="0 0 595.9 595.9"><defs><style>.e,.f,.g{fill:#fff;}.f{stroke:#131921;}.f,.g{stroke-miterlimit:10;stroke-width:3.12px;}.h{fill:#131921;}.g{stroke:#000;}.i{fill:url(#d);}</style><radialGradient id="d" cx="282.45" cy="306.81" fx="282.45" fy="306.81" r="171.26" gradientTransform="matrix(1, 0, 0, 1, 0, 0)" gradientUnits="userSpaceOnUse"><stop offset="0" stop-color="#a5d28a"/><stop offset="1" stop-color="#8fdaa3"/></radialGradient></defs><g id="a"/><g id="b"><g id="c"><g><circle class="e" cx="297.95" cy="297.95" r="297.95"/><circle class="h" cx="297.77" cy="298.2" r="272.06"/><path class="f" d="M300.85,449.58s80.08,10.04,101.57,20.61c21.49,10.57,67.36,38.8,67.36,38.8,0,2.19-39.88,28.42-67.36,40.41l-161.14-49.91,56.49-48.13,3.08-1.78Z"/><path class="f" d="M254.24,460.15s-60.32,6.34-70.86,14.8c-10.54,8.46-41.57,46.18-41.57,46.18,0,0,14.82,67.81,94.69,42.2l11.66-39.75-11.66,39.75c-4.84,7.42,97.75,28.43,165.92-13.93,0,0-16.04-41.15-36.92-55.42"/><path class="f" d="M236.5,408.57l17.74,51.58s33.69,30.66,43.54,12.16c9.85-18.5-7.07-42.65-7.07-63.74s-54.21,0-54.21,0Z"/><path class="h" d="M237.17,421.22c22.67,8.95,45.85,16.58,69.41,22.83,3.31,.88,6.64,1.57,10.03,.66,5.41-1.46,8.65-7.22,7.15-12.6-1.13-4.04-4.52-6.65-8.03-8.57-2.51-1.38-5.05-2.7-7.61-3.97-10.71-5.32-21.87-9.85-33.28-13.44-12.92-4.06-26.14-6.78-39.56-8.5v15.61l26.66,.25,13.21,.12c4.02,.04,8.08-.05,12.08,.44l-2.07-.28c2.23,.3,4.4,.81,6.49,1.68l-1.86-.79c1.17,.52,2.26,1.14,3.28,1.92l-1.58-1.22c.94,.76,1.76,1.6,2.5,2.55l-1.22-1.58c.63,.86,1.16,1.77,1.59,2.75l-.79-1.86c.35,.86,.6,1.73,.74,2.64l-.28-2.07c.1,.79,.11,1.56,.03,2.36l.28-2.07c-.12,.81-.32,1.55-.64,2.3l9.6-5.45-40.21-12.23-2.07,15.33,28.3,2.74c2.66,.26,5.45-1.67,6.74-3.87s1.52-5.6,0-7.88l-.16-.23,.79,1.86-.09-.25,.28,2.07c-.04-.17-.05-.35-.01-.52l-.28,2.07,.07-.26-.79,1.86c.07-.18,.15-.34,.27-.5l-1.22,1.58c.12-.16,.25-.3,.41-.43l-1.58,1.22c.16-.13,.32-.23,.51-.32l-1.86,.79c.18-.08,.37-.14,.57-.16l-2.07,.28c.22-.02,.44-.01,.66,.03l-2.07-.28c.24,.05,.47,.12,.7,.22l-1.86-.79c.34,.17,.64,.36,.95,.58l-1.58-1.22c.5,.41,.94,.85,1.38,1.32,2.8,2.99,8.25,3.04,11.04,0,2.94-3.2,2.98-7.85,0-11.04-3-3.2-7.42-5.46-11.85-3.99-5.52,1.83-9.17,8.71-5.65,13.98l6.74-11.74-28.3-2.74c-1.8-.17-4.32,.98-5.52,2.29s-1.91,2.74-2.15,4.48c-.52,3.87,1.84,7.42,5.59,8.56l40.21,12.23c1.82,.56,4.4,.26,6.01-.79,1.83-1.18,2.76-2.68,3.59-4.66,2.56-6.13,.03-12.91-3.85-17.79-3.49-4.4-9.09-6.98-14.55-7.86-5.87-.95-11.77-.84-17.69-.9l-17.44-.16-19.93-.19c-4.08-.04-7.99,3.62-7.8,7.8,.09,2.02,.75,4.11,2.29,5.52,1.63,1.5,3.34,2.01,5.52,2.29,.45,.06,.9,.12,1.34,.18l-2.07-.28c18.98,2.56,37.57,7.63,55.23,15.04l-1.86-.79c3.89,1.64,7.73,3.39,11.52,5.25,1.89,.93,3.77,1.89,5.64,2.88,1.75,.93,3.6,1.8,5.22,2.96l-1.58-1.22c.5,.39,.94,.79,1.35,1.27l-1.22-1.58c.21,.29,.38,.55,.54,.87l-.79-1.86c.09,.2,.15,.4,.19,.61l-.28-2.07c.04,.21,.05,.42,.03,.64l.28-2.07c-.02,.22-.08,.44-.16,.65l.79-1.86c-.07,.18-.17,.35-.28,.5l1.22-1.58c-.11,.15-.23,.28-.38,.4l1.58-1.22c-.23,.17-.45,.29-.71,.41l1.86-.79c-.28,.1-.55,.17-.84,.22l2.07-.28c-.64,.08-1.25,.07-1.89,0l2.07,.28c-2.25-.3-4.48-1.07-6.67-1.66-2.4-.65-4.79-1.31-7.18-1.99-4.86-1.38-9.7-2.82-14.52-4.31-9.57-2.97-19.07-6.17-28.49-9.59-5.35-1.95-10.67-3.97-15.96-6.06-1.77-.7-4.44-.13-6.01,.79s-3.16,2.8-3.59,4.66c-.46,2-.36,4.24,.79,6.01s2.67,2.8,4.66,3.59h0Z"/><path class="f" d="M294.28,172.79c-59.52-2.51-109.41,44.98-110.8,104.53s11.2,139.02,86.61,136.58c122.63-3.97,99.37-199.54,99.37-199.54,0,0-5.95-37.32-71.69-41.39-1.17-.07-2.34-.13-3.5-.18Z"/><path class="i" d="M204.31,231.74c-1.53,2.6,15.42,238.33,15.42,238.33,0,0-110.21,5.64-115.76-64.63-5.55-70.28,63.06-250.66,137.32-260.28,33.15-4.29,62.6,.04,85.05,6.15,27.04,7.36,49.32,26.5,61.12,51.91,32.91,70.92,106.13,200.46,57.72,235.49-43.01,31.12-89.63,27.72-89.63,27.72V254.89c0-22.52-15.47-42.08-37.37-47.29l-73.22-17.38c-5.84-1.39-11.94,.92-15.4,5.82l-25.23,35.7Z"/><path class="h" d="M437.27,304.93c-5.57-5.66-11.78-10.73-18.4-15.11s-13.2-8.07-20.42-10.32c-3.46-1.08-7.28-1.79-10.91-1.54-4.7,.31-8.8,1.79-12.42,4.82-6.91,5.78-7.19,15.74-5.02,23.78,.98,3.62,2.5,7.11,4.01,10.53,1.28,2.89,2.7,5.71,4.25,8.46,3.38,5.96,7.41,11.56,11.84,16.79,8.44,9.99,18.87,18.5,30.26,24.91s24.15,10.98,37.19,12.77c2.14,.29,4.28,.57,6.43,.76,1.89,.17,4.22-.99,5.52-2.29s2.37-3.57,2.29-5.52-.75-4.11-2.29-5.52-3.35-2.09-5.52-2.29c-1.45-.13-2.91-.29-4.35-.48l2.07,.28c-8.55-1.17-16.9-3.5-24.86-6.85l1.86,.79c-8.29-3.52-16.1-8.1-23.23-13.6l1.58,1.22c-7.02-5.45-13.34-11.74-18.78-18.77l1.22,1.58c-5.11-6.65-9.39-13.9-12.66-21.63l.79,1.86c-1.5-3.58-2.84-7.22-3.37-11.08l.28,2.07c-.21-1.72-.26-3.42-.03-5.14l-.28,2.07c.17-1.05,.43-2.07,.83-3.06l-.79,1.86c.38-.88,.85-1.68,1.43-2.44l-1.22,1.58c.52-.64,1.08-1.21,1.72-1.73l-1.58,1.22c.79-.61,1.64-1.1,2.55-1.49l-1.86,.79c1.04-.41,2.1-.68,3.2-.83l-2.07,.28c1.63-.2,3.25-.15,4.87,.04l-2.07-.28c2.9,.4,5.7,1.25,8.41,2.38l-1.86-.79c7.64,3.25,14.84,7.71,21.4,12.78l-1.58-1.22c3.72,2.9,7.25,6.03,10.55,9.4,2.87,2.92,8.2,3.09,11.04,0,2.88-3.14,3.06-7.93,0-11.04h0Z"/><path class="h" d="M374.06,293.18c3.09,7.35,6.58,14.48,10.75,21.28s8.87,13.21,13.98,19.29c9.82,11.71,21.49,21.91,34.28,30.26,7.01,4.58,14.41,8.54,22.1,11.83,2.01,.86,3.81,1.39,6.01,.79,1.81-.5,3.77-1.9,4.66-3.59,.96-1.81,1.44-4.01,.79-6.01-.58-1.79-1.77-3.89-3.59-4.66-11.29-4.83-21.9-11.11-31.63-18.6l1.58,1.22c-10.11-7.83-19.2-16.93-27.02-27.05l1.22,1.58c-7.56-9.83-13.88-20.58-18.73-31.99l.79,1.86-.15-.35c-.83-1.97-1.67-3.54-3.59-4.66-1.67-.98-4.14-1.39-6.01-.79s-3.71,1.78-4.66,3.59-1.58,4.13-.79,6.01h0Z"/><path class="g" d="M421.67,351.78c-31.22-28.92-50.7-70-35.62-82.18,12.03-9.71,34.85,9.32,35.62,21.06,.76,11.74-10.69-88.98,0-101.4,.11-.13,.22-.25,.33-.38,4.95-5.66,14.27-2.66,15.03,4.82,2.73,26.99,9.79,95.68,10.4,90.88,.36-2.86,5.17-68.81,6.98-93.69,.51-7.02,10-8.86,13.06-2.52,.06,.13,.12,.26,.19,.39,6.2,13.19,6.2,95.82,6.2,95.82,0,0-22.99,32.59,3.44,38.14,22.58,4.74,34.93-10.27,38.05-14.75,.21-.3,.69-.13,.64,.24-.89,7.92-6.1,45.61-24.69,53.62-33.79,14.55-48.98,9.07-69.63-10.05Z"/></g></g></g></svg>