<?xml version="1.0" encoding="UTF-8"?><svg id="Layer_2" xmlns="http://www.w3.org/2000/svg" viewBox="0 0 1177.64 254.66"><defs><style>.cls-1{fill:#f2f2f2;}</style></defs><g id="car"><g><path class="cls-1" d="M6.68,198.81c-1.78,0-3.34-.63-4.68-1.87-1.34-1.25-2-2.76-2-4.54V11.22c0-1.96,.67-3.61,2-4.95,1.34-1.34,2.89-2,4.68-2,1.96,0,3.56,.67,4.81,2,1.24,1.34,1.87,2.99,1.87,4.95V192.4c0,1.78-.63,3.29-1.87,4.54-1.25,1.24-2.85,1.87-4.81,1.87Z"/><path class="cls-1" d="M60.12,198.81c-1.78,0-3.25-.58-4.41-1.74-1.16-1.16-1.74-2.63-1.74-4.41V88.99c0-1.78,.58-3.29,1.74-4.54,1.16-1.24,2.63-1.87,4.41-1.87s3.29,.63,4.54,1.87c1.24,1.25,1.87,2.76,1.87,4.54v8.82c4.1-4.63,8.99-8.29,14.7-10.96,5.7-2.67,11.85-4.01,18.44-4.01,12.29,0,21.95,4.05,28.99,12.16,7.04,8.11,10.56,19.11,10.56,33v64.13c0,1.78-.58,3.29-1.74,4.54-1.16,1.24-2.63,1.87-4.41,1.87s-3.3-.63-4.54-1.87c-1.25-1.25-1.87-2.76-1.87-4.54v-64.13c0-4.1-.63-8.64-1.87-13.63-1.25-4.98-3.79-9.31-7.62-12.96-3.83-3.65-9.67-5.48-17.5-5.48-10.33,0-18.44,2.85-24.32,8.55-5.88,5.7-8.82,13.81-8.82,24.32v63.87c0,1.78-.63,3.25-1.87,4.41-1.25,1.16-2.76,1.74-4.54,1.74Z"/><path class="cls-1" d="M215.11,197.48c-7.31,0-13.05-2.1-17.24-6.28-4.19-4.18-6.28-9.75-6.28-16.7V99.41h-25.65c-1.78,0-3.25-.62-4.41-1.87-1.16-1.24-1.74-2.76-1.74-4.54s.58-3.25,1.74-4.41c1.16-1.16,2.63-1.74,4.41-1.74h25.65V47.57c0-1.78,.58-3.29,1.74-4.54,1.16-1.24,2.63-1.87,4.41-1.87s3.29,.63,4.54,1.87c1.24,1.25,1.87,2.76,1.87,4.54v39.28h33.14c1.78,0,3.29,.58,4.54,1.74,1.24,1.16,1.87,2.63,1.87,4.41s-.63,3.3-1.87,4.54c-1.25,1.25-2.76,1.87-4.54,1.87h-33.14v75.09c0,.71,.13,1.92,.4,3.61,.27,1.7,1.2,3.21,2.81,4.54s4.18,2.01,7.75,2.01h20.84c1.96,0,3.56,.62,4.81,1.87,1.24,1.25,1.87,2.76,1.87,4.54s-.63,3.3-1.87,4.54c-1.25,1.24-2.85,1.87-4.81,1.87h-20.84Z"/><path class="cls-1" d="M309.71,198.81c-15.14,0-27.08-5.21-35.81-15.63-8.73-10.42-13.09-24.54-13.09-42.36s4.36-32.15,13.09-42.49c8.73-10.33,20.66-15.5,35.81-15.5,13.18,0,24.27,4.54,33.27,13.63,8.99,9.08,13.85,21.38,14.56,36.88v.8c0,1.6-.63,3.03-1.87,4.28-1.07,1.25-2.58,1.87-4.54,1.87h-77.49c0,13.72,2.89,24.76,8.68,33.13,5.79,8.38,14.92,12.56,27.39,12.56,6.41,0,12.43-1.38,18.04-4.14,5.61-2.76,9.93-6.37,12.96-10.82,1.07-1.42,2.45-2.31,4.14-2.67,1.69-.36,3.25,0,4.68,1.07,1.42,.89,2.31,2.23,2.67,4.01,.35,1.78,0,3.39-1.07,4.81-4.28,6.24-10.11,11.22-17.5,14.96-7.39,3.74-15.37,5.61-23.92,5.61Zm-35.27-71.08h69.21c-1.78-10.15-5.66-17.99-11.62-23.52-5.97-5.52-13.41-8.28-22.31-8.28-9.62,0-17.42,2.76-23.38,8.28-5.97,5.53-9.93,13.36-11.89,23.52Z"/><path class="cls-1" d="M416.33,197.48c-7.13,0-12.87-2.1-17.24-6.28-4.37-4.18-6.55-9.75-6.55-16.7V6.41c0-1.78,.62-3.29,1.87-4.54,1.24-1.24,2.76-1.87,4.54-1.87s3.29,.63,4.54,1.87c1.24,1.25,1.87,2.76,1.87,4.54V174.5c0,.71,.13,1.92,.4,3.61,.27,1.7,1.2,3.21,2.81,4.54,1.6,1.34,4.18,2.01,7.75,2.01h21.11c1.78,0,3.29,.62,4.54,1.87,1.24,1.25,1.87,2.76,1.87,4.54s-.63,3.3-1.87,4.54c-1.25,1.24-2.76,1.87-4.54,1.87h-21.11Z"/><path class="cls-1" d="M493.02,197.48c-7.13,0-12.87-2.1-17.24-6.28-4.37-4.18-6.55-9.75-6.55-16.7V6.41c0-1.78,.62-3.29,1.87-4.54,1.24-1.24,2.76-1.87,4.54-1.87s3.29,.63,4.54,1.87c1.24,1.25,1.87,2.76,1.87,4.54V174.5c0,.71,.13,1.92,.4,3.61,.27,1.7,1.2,3.21,2.81,4.54,1.6,1.34,4.18,2.01,7.75,2.01h21.11c1.78,0,3.29,.62,4.54,1.87,1.24,1.25,1.87,2.76,1.87,4.54s-.63,3.3-1.87,4.54c-1.25,1.24-2.76,1.87-4.54,1.87h-21.11Z"/><path class="cls-1" d="M574.52,199.08c-1.78,0-3.25-.58-4.41-1.74-1.16-1.16-1.74-2.62-1.74-4.41V99.67h-30.73c-1.78,0-3.3-.67-4.54-2-1.25-1.34-1.87-2.89-1.87-4.68s.62-3.25,1.87-4.41c1.24-1.16,2.76-1.74,4.54-1.74h36.88c1.96,0,3.56,.58,4.81,1.74,1.24,1.16,1.87,2.63,1.87,4.41v99.94c0,1.78-.63,3.25-1.87,4.41-1.25,1.16-2.85,1.74-4.81,1.74Zm-3.21-160.6c-2.5,0-4.54-.71-6.15-2.14-1.6-1.42-2.41-3.03-2.41-4.81V14.96c0-1.78,.8-3.43,2.41-4.94,1.6-1.51,3.65-2.27,6.15-2.27s4.5,.76,6.01,2.27c1.51,1.52,2.27,3.16,2.27,4.94V31.53c0,1.78-.76,3.38-2.27,4.81-1.52,1.43-3.52,2.14-6.01,2.14Z"/><path class="cls-1" d="M664.31,254.66c-9.44,0-17.59-2.54-24.45-7.62-6.86-5.08-11.72-12.25-14.56-21.51-.53-1.6-.45-3.17,.27-4.68,.71-1.52,1.96-2.54,3.74-3.07,1.78-.71,3.43-.63,4.94,.27,1.51,.89,2.54,2.14,3.07,3.74,4.1,13.36,13.09,20.04,26.99,20.04,9.09,0,16.25-3.3,21.51-9.89,5.25-6.59,7.88-15.59,7.88-26.99v-35.81c-7.84,8.38-18.89,12.56-33.14,12.56s-25.83-4.45-34.2-13.36c-8.38-8.91-12.56-20.93-12.56-36.08s4.18-27.12,12.56-35.94c8.37-8.82,19.77-13.23,34.2-13.23s25.47,4.28,33.14,12.83v-6.68c0-1.78,.62-3.34,1.87-4.68,1.24-1.34,2.76-2,4.54-2s3.25,.67,4.41,2c1.16,1.34,1.74,2.9,1.74,4.68v115.71c0,14.61-3.83,26.54-11.49,35.81-7.66,9.26-17.82,13.9-30.46,13.9Zm-3.74-85.51c10.51,0,18.71-3.07,24.58-9.22s8.82-15.37,8.82-27.66-2.94-21.2-8.82-27.26c-5.88-6.05-14.08-9.09-24.58-9.09s-19.29,3.16-25.25,9.49c-5.97,6.33-8.95,15.28-8.95,26.86s2.98,20.84,8.95,27.26c5.97,6.41,14.38,9.62,25.25,9.62Z"/><path class="cls-1" d="M782.95,198.81c-15.14,0-27.08-5.21-35.81-15.63-8.73-10.42-13.09-24.54-13.09-42.36s4.36-32.15,13.09-42.49c8.73-10.33,20.66-15.5,35.81-15.5,13.18,0,24.27,4.54,33.27,13.63,8.99,9.08,13.85,21.38,14.56,36.88v.8c0,1.6-.63,3.03-1.87,4.28-1.07,1.25-2.58,1.87-4.54,1.87h-77.49c0,13.72,2.89,24.76,8.68,33.13,5.79,8.38,14.92,12.56,27.39,12.56,6.41,0,12.43-1.38,18.04-4.14,5.61-2.76,9.93-6.37,12.96-10.82,1.07-1.42,2.45-2.31,4.14-2.67,1.69-.36,3.25,0,4.68,1.07,1.42,.89,2.31,2.23,2.67,4.01,.35,1.78,0,3.39-1.07,4.81-4.28,6.24-10.11,11.22-17.5,14.96-7.39,3.74-15.37,5.61-23.92,5.61Zm-35.27-71.08h69.21c-1.78-10.15-5.66-17.99-11.62-23.52-5.97-5.52-13.41-8.28-22.31-8.28-9.62,0-17.42,2.76-23.38,8.28-5.97,5.53-9.93,13.36-11.89,23.52Z"/><path class="cls-1" d="M867.13,198.81c-1.78,0-3.25-.58-4.41-1.74-1.16-1.16-1.74-2.63-1.74-4.41V88.99c0-1.78,.58-3.29,1.74-4.54,1.16-1.24,2.63-1.87,4.41-1.87s3.29,.63,4.54,1.87c1.24,1.25,1.87,2.76,1.87,4.54v8.82c4.1-4.63,8.99-8.29,14.7-10.96,5.7-2.67,11.85-4.01,18.44-4.01,12.29,0,21.95,4.05,28.99,12.16,7.04,8.11,10.56,19.11,10.56,33v64.13c0,1.78-.58,3.29-1.74,4.54-1.16,1.24-2.63,1.87-4.41,1.87s-3.3-.63-4.54-1.87c-1.25-1.25-1.87-2.76-1.87-4.54v-64.13c0-4.1-.63-8.64-1.87-13.63-1.25-4.98-3.79-9.31-7.62-12.96-3.83-3.65-9.67-5.48-17.5-5.48-10.33,0-18.44,2.85-24.32,8.55-5.88,5.7-8.82,13.81-8.82,24.32v63.87c0,1.78-.63,3.25-1.87,4.41-1.25,1.16-2.76,1.74-4.54,1.74Z"/><path class="cls-1" d="M1022.92,198.81c-15.14,0-27.08-5.21-35.81-15.63-8.73-10.42-13.09-24.54-13.09-42.36s4.36-32.15,13.09-42.49c8.73-10.33,20.66-15.5,35.81-15.5s26.54,5.08,35.27,15.23c1.24,1.25,1.82,2.77,1.74,4.54-.09,1.78-.85,3.3-2.27,4.54-1.25,1.07-2.76,1.56-4.54,1.47-1.78-.09-3.3-.76-4.54-2-6.06-7.12-14.61-10.69-25.65-10.69s-20.31,3.92-26.72,11.76c-6.41,7.84-9.62,18.88-9.62,33.13s3.21,25.57,9.62,33.4c6.41,7.84,15.32,11.76,26.72,11.76s19.77-3.47,25.65-10.42c1.24-1.42,2.76-2.23,4.54-2.41,1.78-.17,3.29,.36,4.54,1.6,1.42,1.07,2.18,2.5,2.27,4.28,.09,1.78-.49,3.39-1.74,4.81-8.91,9.98-20.67,14.96-35.27,14.96Z"/><path class="cls-1" d="M1129.8,198.81c-15.14,0-27.08-5.21-35.81-15.63-8.73-10.42-13.09-24.54-13.09-42.36s4.36-32.15,13.09-42.49c8.73-10.33,20.66-15.5,35.81-15.5,13.18,0,24.27,4.54,33.27,13.63,8.99,9.08,13.85,21.38,14.56,36.88v.8c0,1.6-.63,3.03-1.87,4.28-1.07,1.25-2.58,1.87-4.54,1.87h-77.49c0,13.72,2.89,24.76,8.68,33.13,5.79,8.38,14.92,12.56,27.39,12.56,6.41,0,12.43-1.38,18.04-4.14,5.61-2.76,9.93-6.37,12.96-10.82,1.07-1.42,2.45-2.31,4.14-2.67,1.69-.36,3.25,0,4.68,1.07,1.42,.89,2.31,2.23,2.67,4.01,.35,1.78,0,3.39-1.07,4.81-4.28,6.24-10.11,11.22-17.5,14.96-7.39,3.74-15.37,5.61-23.92,5.61Zm-35.27-71.08h69.21c-1.78-10.15-5.66-17.99-11.62-23.52-5.97-5.52-13.41-8.28-22.31-8.28-9.62,0-17.42,2.76-23.38,8.28-5.97,5.53-9.93,13.36-11.89,23.52Z"/></g></g></svg>