<?xml version="1.0" encoding="UTF-8"?><svg id="Layer_2" xmlns="http://www.w3.org/2000/svg" viewBox="0 0 1228.67 199.08"><defs><style>.cls-1{fill:#f2f2f2;}</style></defs><g id="car"><g><path class="cls-1" d="M6.68,198.81c-1.78,0-3.34-.63-4.68-1.87-1.34-1.25-2-2.76-2-4.54V11.22c0-1.96,.67-3.61,2-4.94,1.34-1.34,2.89-2,4.68-2,1.96,0,3.56,.67,4.81,2,1.24,1.34,1.87,2.99,1.87,4.94V192.4c0,1.78-.63,3.29-1.87,4.54-1.25,1.24-2.85,1.87-4.81,1.87Z"/><path class="cls-1" d="M60.12,198.81c-1.78,0-3.25-.58-4.41-1.74s-1.74-2.63-1.74-4.41V88.99c0-1.78,.58-3.29,1.74-4.54,1.16-1.24,2.63-1.87,4.41-1.87s3.29,.63,4.54,1.87c1.24,1.25,1.87,2.76,1.87,4.54v8.82c4.1-4.63,8.99-8.28,14.7-10.96,5.7-2.67,11.85-4.01,18.44-4.01,12.29,0,21.95,4.05,28.99,12.16,7.04,8.11,10.56,19.11,10.56,33v64.13c0,1.78-.58,3.29-1.74,4.54-1.16,1.24-2.63,1.87-4.41,1.87s-3.3-.63-4.54-1.87c-1.25-1.25-1.87-2.76-1.87-4.54v-64.13c0-4.1-.63-8.64-1.87-13.63-1.25-4.99-3.79-9.31-7.62-12.96-3.83-3.65-9.67-5.48-17.5-5.48-10.33,0-18.44,2.85-24.32,8.55-5.88,5.7-8.82,13.81-8.82,24.32v63.87c0,1.78-.63,3.25-1.87,4.41-1.25,1.16-2.76,1.74-4.54,1.74Z"/><path class="cls-1" d="M215.11,197.48c-7.31,0-13.05-2.1-17.24-6.28-4.19-4.18-6.28-9.75-6.28-16.7V99.41h-25.65c-1.78,0-3.25-.62-4.41-1.87-1.16-1.24-1.74-2.76-1.74-4.54s.58-3.25,1.74-4.41c1.16-1.16,2.63-1.74,4.41-1.74h25.65V47.57c0-1.78,.58-3.29,1.74-4.54,1.16-1.24,2.63-1.87,4.41-1.87s3.29,.63,4.54,1.87c1.24,1.25,1.87,2.76,1.87,4.54v39.28h33.14c1.78,0,3.29,.58,4.54,1.74,1.24,1.16,1.87,2.63,1.87,4.41s-.63,3.3-1.87,4.54c-1.25,1.25-2.76,1.87-4.54,1.87h-33.14v75.09c0,.71,.13,1.92,.4,3.61,.27,1.7,1.2,3.21,2.81,4.54,1.6,1.34,4.18,2,7.75,2h20.84c1.96,0,3.56,.63,4.81,1.87,1.24,1.25,1.87,2.76,1.87,4.54s-.63,3.3-1.87,4.54c-1.25,1.24-2.85,1.87-4.81,1.87h-20.84Z"/><path class="cls-1" d="M302.23,199.08c-1.78,0-3.25-.58-4.41-1.74-1.16-1.16-1.74-2.63-1.74-4.41V99.67h-30.73c-1.78,0-3.3-.67-4.54-2-1.25-1.34-1.87-2.89-1.87-4.68s.62-3.25,1.87-4.41c1.24-1.16,2.76-1.74,4.54-1.74h36.88c1.96,0,3.56,.58,4.81,1.74,1.24,1.16,1.87,2.63,1.87,4.41v99.94c0,1.78-.63,3.25-1.87,4.41-1.25,1.16-2.85,1.74-4.81,1.74Zm-3.21-160.6c-2.5,0-4.54-.71-6.15-2.14-1.6-1.42-2.4-3.03-2.4-4.81V14.96c0-1.78,.8-3.43,2.4-4.94,1.6-1.51,3.65-2.27,6.15-2.27s4.5,.76,6.01,2.27c1.51,1.52,2.27,3.17,2.27,4.94V31.53c0,1.78-.76,3.39-2.27,4.81-1.52,1.43-3.52,2.14-6.01,2.14Z"/><path class="cls-1" d="M350.32,199.08c-1.78,0-3.25-.63-4.41-1.87-1.16-1.25-1.74-2.67-1.74-4.28V89.52c0-1.6,.58-3.07,1.74-4.41,1.16-1.34,2.63-2,4.41-2s3.29,.67,4.54,2c1.24,1.34,1.87,2.81,1.87,4.41v7.21c3.92-4.1,8.46-7.39,13.63-9.89,5.17-2.49,10.69-3.74,16.57-3.74,7.3,0,13.72,1.74,19.24,5.21,5.52,3.47,9.8,8.33,12.83,14.56,3.74-5.88,8.64-10.64,14.7-14.3,6.05-3.65,12.83-5.48,20.31-5.48,11.4,0,20.44,4.1,27.12,12.29,6.68,8.2,10.02,19.15,10.02,32.87v64.4c0,1.6-.58,3.03-1.74,4.28-1.16,1.24-2.63,1.87-4.41,1.87s-3.3-.63-4.54-1.87c-1.25-1.25-1.87-2.67-1.87-4.28v-64.4c0-2.49-.27-5.52-.8-9.08-.53-3.56-1.6-7.12-3.21-10.69-1.6-3.56-4.05-6.55-7.35-8.95-3.3-2.4-7.71-3.61-13.23-3.61-8.73,0-15.86,3.07-21.38,9.22-5.52,6.15-8.28,13.85-8.28,23.11v64.4c0,1.6-.58,3.03-1.74,4.28-1.16,1.24-2.63,1.87-4.41,1.87s-3.34-.63-4.68-1.87c-1.34-1.25-2-2.67-2-4.28v-63.87c0-5.7-.85-11.04-2.54-16.03-1.7-4.99-4.32-9.04-7.88-12.16-3.57-3.12-8.28-4.68-14.16-4.68-8.02,0-15.06,2.45-21.11,7.35-6.06,4.9-9.09,11.27-9.09,19.11v70.55c0,1.6-.63,3.03-1.87,4.28-1.25,1.25-2.76,1.87-4.54,1.87Z"/><path class="cls-1" d="M555.01,199.08c-1.78,0-3.25-.58-4.41-1.74-1.16-1.16-1.74-2.63-1.74-4.41V99.67h-30.73c-1.78,0-3.3-.67-4.54-2-1.25-1.34-1.87-2.89-1.87-4.68s.62-3.25,1.87-4.41c1.24-1.16,2.76-1.74,4.54-1.74h36.88c1.96,0,3.56,.58,4.81,1.74,1.24,1.16,1.87,2.63,1.87,4.41v99.94c0,1.78-.63,3.25-1.87,4.41-1.25,1.16-2.85,1.74-4.81,1.74Zm-3.21-160.6c-2.5,0-4.54-.71-6.15-2.14-1.6-1.42-2.41-3.03-2.41-4.81V14.96c0-1.78,.8-3.43,2.41-4.94,1.6-1.51,3.65-2.27,6.15-2.27s4.5,.76,6.01,2.27c1.51,1.52,2.27,3.17,2.27,4.94V31.53c0,1.78-.76,3.39-2.27,4.81-1.52,1.43-3.52,2.14-6.01,2.14Z"/><path class="cls-1" d="M684.62,199.08c-1.78,0-3.25-.58-4.41-1.74-1.16-1.16-1.74-2.63-1.74-4.41v-11.22c-4.1,5.17-9.09,9.31-14.96,12.43-5.88,3.11-12.65,4.68-20.31,4.68-15.14,0-27.08-5.21-35.81-15.63-8.73-10.42-13.09-24.54-13.09-42.36s4.36-32.15,13.09-42.49c8.73-10.33,20.66-15.5,35.81-15.5,7.66,0,14.43,1.6,20.31,4.81,5.88,3.21,10.86,7.39,14.96,12.56V6.41c0-1.78,.58-3.29,1.74-4.54,1.16-1.24,2.63-1.87,4.41-1.87s3.29,.63,4.54,1.87c1.24,1.25,1.87,2.76,1.87,4.54V192.93c0,1.78-.63,3.25-1.87,4.41-1.25,1.16-2.76,1.74-4.54,1.74Zm-41.42-13.09c11.4,0,20.13-3.92,26.19-11.76,6.05-7.84,9.09-18.97,9.09-33.4s-3.03-25.29-9.09-33.14c-6.06-7.84-14.79-11.76-26.19-11.76s-20.31,3.92-26.72,11.76c-6.41,7.84-9.62,18.89-9.62,33.14s3.21,25.57,9.62,33.4c6.41,7.84,15.32,11.76,26.72,11.76Z"/><path class="cls-1" d="M809.14,199.08c-1.78,0-3.3-.58-4.54-1.74-1.25-1.16-1.87-2.63-1.87-4.41v-2.14l-32.87,6.41c-8.2,1.6-15.14,2.05-20.84,1.34-5.7-.71-10.51-2.5-14.43-5.34-2.85-2.31-5.12-5.21-6.81-8.68-1.7-3.47-2.72-7.44-3.07-11.89-1.07-10.33,1.2-18.84,6.81-25.52,5.61-6.68,14.3-11,26.05-12.96l45.16-7.75v-7.48c0-3.56-.58-7.35-1.74-11.36-1.16-4.01-3.52-6.99-7.08-8.95-2.85-1.78-6.5-2.67-10.96-2.67-11.05,0-24.68,4.99-40.88,14.96-1.6,.89-3.21,1.12-4.81,.67-1.6-.44-2.85-1.38-3.74-2.81-1.07-1.6-1.38-3.25-.94-4.94,.44-1.69,1.38-2.89,2.81-3.61,10.51-6.41,19.68-10.82,27.52-13.23,7.84-2.41,14.52-3.61,20.04-3.61,3.74,0,6.99,.4,9.75,1.2,2.76,.8,5.12,1.74,7.08,2.81,5.17,2.85,9.09,6.99,11.76,12.43,2.67,5.44,4.01,11.8,4.01,19.11v74.02c0,1.78-.58,3.25-1.74,4.41-1.16,1.16-2.72,1.74-4.68,1.74Zm-41.42-14.7l35.01-6.41v-38.75l-42.76,7.22c-7.31,1.25-12.61,3.3-15.9,6.15-3.3,2.85-5.3,5.92-6.01,9.22-.71,3.3-.98,6.46-.8,9.49,.53,5.52,2.23,9.35,5.08,11.49,4.28,3.21,12.73,3.74,25.39,1.6Z"/><path class="cls-1" d="M891.44,197.48c-7.31,0-13.05-2.1-17.24-6.28-4.19-4.18-6.28-9.75-6.28-16.7V99.41h-25.65c-1.78,0-3.25-.62-4.41-1.87-1.16-1.24-1.74-2.76-1.74-4.54s.58-3.25,1.74-4.41c1.16-1.16,2.63-1.74,4.41-1.74h25.65V47.57c0-1.78,.58-3.29,1.74-4.54,1.16-1.24,2.63-1.87,4.41-1.87s3.29,.63,4.54,1.87c1.24,1.25,1.87,2.76,1.87,4.54v39.28h33.14c1.78,0,3.29,.58,4.54,1.74,1.24,1.16,1.87,2.63,1.87,4.41s-.63,3.3-1.87,4.54c-1.25,1.25-2.76,1.87-4.54,1.87h-33.14v75.09c0,.71,.13,1.92,.4,3.61,.27,1.7,1.2,3.21,2.81,4.54s4.18,2,7.75,2h20.84c1.96,0,3.56,.63,4.81,1.87,1.24,1.25,1.87,2.76,1.87,4.54s-.63,3.3-1.87,4.54c-1.25,1.24-2.85,1.87-4.81,1.87h-20.84Z"/><path class="cls-1" d="M978.56,199.08c-1.78,0-3.25-.58-4.41-1.74-1.16-1.16-1.74-2.63-1.74-4.41V99.67h-30.73c-1.78,0-3.3-.67-4.54-2-1.25-1.34-1.87-2.89-1.87-4.68s.62-3.25,1.87-4.41c1.24-1.16,2.76-1.74,4.54-1.74h36.88c1.96,0,3.56,.58,4.81,1.74,1.24,1.16,1.87,2.63,1.87,4.41v99.94c0,1.78-.63,3.25-1.87,4.41-1.25,1.16-2.85,1.74-4.81,1.74Zm-3.21-160.6c-2.5,0-4.54-.71-6.15-2.14-1.6-1.42-2.4-3.03-2.4-4.81V14.96c0-1.78,.8-3.43,2.4-4.94,1.6-1.51,3.65-2.27,6.15-2.27s4.5,.76,6.01,2.27c1.51,1.52,2.27,3.17,2.27,4.94V31.53c0,1.78-.76,3.39-2.27,4.81-1.52,1.43-3.52,2.14-6.01,2.14Z"/><path class="cls-1" d="M1066.74,198.81c-15.14,0-27.08-5.21-35.81-15.63-8.73-10.42-13.09-24.54-13.09-42.36s4.36-32.15,13.09-42.49c8.73-10.33,20.66-15.5,35.81-15.5s26.86,5.17,35.67,15.5c8.82,10.33,13.23,24.5,13.23,42.49s-4.41,31.93-13.23,42.36c-8.82,10.42-20.71,15.63-35.67,15.63Zm0-12.83c11.58,0,20.48-3.92,26.72-11.76,6.23-7.84,9.35-18.97,9.35-33.4s-3.12-25.29-9.35-33.14c-6.24-7.84-15.14-11.76-26.72-11.76s-20.31,3.92-26.72,11.76c-6.41,7.84-9.62,18.89-9.62,33.14s3.21,25.57,9.62,33.4c6.41,7.84,15.32,11.76,26.72,11.76Z"/><path class="cls-1" d="M1149.58,198.81c-1.78,0-3.25-.58-4.41-1.74-1.16-1.16-1.74-2.63-1.74-4.41V88.99c0-1.78,.58-3.29,1.74-4.54,1.16-1.24,2.63-1.87,4.41-1.87s3.29,.63,4.54,1.87c1.24,1.25,1.87,2.76,1.87,4.54v8.82c4.1-4.63,8.99-8.28,14.7-10.96,5.7-2.67,11.85-4.01,18.44-4.01,12.29,0,21.95,4.05,28.99,12.16,7.04,8.11,10.56,19.11,10.56,33v64.13c0,1.78-.58,3.29-1.74,4.54-1.16,1.24-2.63,1.87-4.41,1.87s-3.3-.63-4.54-1.87c-1.25-1.25-1.87-2.76-1.87-4.54v-64.13c0-4.1-.63-8.64-1.87-13.63-1.25-4.99-3.79-9.31-7.62-12.96-3.83-3.65-9.67-5.48-17.5-5.48-10.33,0-18.44,2.85-24.32,8.55-5.88,5.7-8.82,13.81-8.82,24.32v63.87c0,1.78-.63,3.25-1.87,4.41-1.25,1.16-2.76,1.74-4.54,1.74Z"/></g></g></svg>