<?xml version="1.0" encoding="UTF-8"?><svg id="Layer_2" xmlns="http://www.w3.org/2000/svg" viewBox="0 0 210.92 161.67"><defs><style>.cls-1{fill:#fff;}.cls-2{fill:#131921;}.cls-3{fill:#f46e6e;}</style></defs><g id="web"><g><g><path class="cls-1" d="M6.26,98.33c31.56,26.33,71.18,42.87,112.09,46.8,15.7,1.5,32.01,1.11,46.55-4.97,14.55-6.08,27.08-18.71,29.61-34.27l.53-4.19c-2.84-18.85-12.42-36.62-26.6-49.35-14.19-12.73-32.88-20.34-51.93-21.13-21.55-.9-42.88,6.75-60.79,18.76C37.83,61.98,6.26,98.33,6.26,98.33Z"/><path class="cls-2" d="M2.02,102.57c28.6,23.66,63.03,40,99.68,46.32,33.08,5.7,78.32,5.31,94.99-30.22,2.49-5.31,4.6-11.82,4.26-17.77-.48-8.45-4.08-17.38-7.62-24.94-7.45-15.94-19.88-29.48-35.02-38.41-33.4-19.7-74.36-13.93-105.61,7.25-11.81,8-21.99,18.51-31.83,28.75-6.44,6.7-12.76,13.54-18.86,20.55-5.04,5.8,3.41,14.33,8.49,8.49,11.91-13.7,24.41-27.13,37.98-39.2,22.93-20.39,55.45-31.95,85.74-23.24,15.19,4.37,28.8,13.34,38.73,25.63,4.97,6.15,9.06,13.26,11.88,20.65,2.1,5.51,4.82,12.27,3.84,18.22-2.24,13.63-13.14,24.35-25.44,29.74-15.76,6.91-34.06,6.23-50.76,4.09-37.24-4.78-73.07-20.47-101.98-44.39-5.91-4.89-14.44,3.56-8.49,8.49Z"/></g><path class="cls-2" d="M112.87,25.13c-9.98-.04-19.55,3.15-25.97,11.1-5.84,7.23-8.57,16.29-10.83,25.16-2.81,11.01-6.3,21.91-6.51,33.37-.24,13.15,3.24,26.68,11.33,37.19,15.61,20.3,44.35,25.64,64.25,8.39,20.28-17.59,24.4-49.41,15.03-73.57-3.76-9.68-8.78-20.66-15.44-28.74-7.91-9.6-19.92-12.52-31.86-12.9-7.72-.25-7.72,11.75,0,12,8.29,.27,16.71,1.77,22.44,8.28,4.32,4.9,6.76,11.32,9.71,17.07,10.01,19.56,11.59,44.17-2.04,62.61-5.52,7.48-13.79,13.37-23.29,13.96-9.45,.59-18.75-3.62-25.48-10.1-7.93-7.65-11.94-18.44-12.56-29.32-.57-10.03,1.96-19.09,4.4-28.68,1.98-7.81,3.51-16.11,7.48-23.22,4.22-7.56,10.8-10.63,19.34-10.6,7.72,.03,7.73-11.97,0-12Z"/><path class="cls-2" d="M118.21,62.33c-8.96,7.12-17.69,15.71-17.52,28.03s8.38,21.56,19.56,24.69c3.37,.94,6.19-1.18,7.38-4.19,4.42-11.16,18.76-22.35,14.34-35.8-2.22-6.76-10.33-11.06-16.49-13.67-3-1.27-6.39-.88-8.21,2.15-1.5,2.5-.83,6.95,2.15,8.21s10.11,3.87,11.22,7.25c1.27,3.86-4.09,10.83-6.05,13.74-3.28,4.84-6.37,9.47-8.53,14.93l7.38-4.19c-7.23-2.02-12.07-8.77-10.45-16.38,1.51-7.1,8.38-12.05,13.71-16.29,6.04-4.8-2.5-13.24-8.49-8.49Z"/><path class="cls-3" d="M26.24,13.41L196.9,159.62c7.82,6.7,19.24-4.62,11.37-11.37L37.61,2.05c-7.82-6.7-19.24,4.62-11.37,11.37h0Z"/></g></g></svg>