<?xml version="1.0" encoding="UTF-8"?><svg id="Layer_2" xmlns="http://www.w3.org/2000/svg" viewBox="0 0 136.53 202.84"><defs><style>.cls-1{fill:#fff;stroke:#131921;stroke-miterlimit:10;stroke-width:10.87px;}.cls-2{fill:#131921;}</style></defs><g id="web"><g><rect class="cls-1" x="5.43" y="5.43" width="125.66" height="191.97" rx="62.83" ry="62.83"/><path class="cls-2" d="M59.5,45.13l1.11,35.37c.29,9.3,14.79,9.34,14.49,0l-1.11-35.37c-.29-9.3-14.79-9.34-14.49,0h0Z"/><path class="cls-2" d="M64.17,8.62V52.27c0,3.5,5.43,3.5,5.43,0V8.62c0-3.5-5.43-3.5-5.43,0h0Z"/><path class="cls-2" d="M69.61,86.2c11.71,20.18,36.29,20.06,56.77,18.56,3.47-.25,3.5-5.69,0-5.43-18.35,1.34-41.45,2.43-52.08-15.87-1.76-3.02-6.45-.29-4.69,2.74h0Z"/></g></g></svg>