<?xml version="1.0" encoding="UTF-8"?><svg id="Layer_2" xmlns="http://www.w3.org/2000/svg" viewBox="0 0 285.52 167.01"><defs><style>.cls-1{fill:#131921;}</style></defs><g id="web"><g><path class="cls-1" d="M17.36,48.38c2.82-14.73,7.53-37.79,26.23-39.55,18.78-1.77,24.59,22.04,26.96,35.93,6.62,38.8,7.61,78.51,3.58,117.64l7.66-3.17c-20.99-26.15-28.85-61.62-21.2-94.22l-7.5,1.98c12.59,11,30.31,12.72,45.9,7.75,17.75-5.66,31.66-18.96,44.74-31.63l-7.66-3.17c.04,22.16,23.37,30.24,41.91,30.18,23.25-.07,46.71-4.59,68.68-12.01,5.44-1.84,3.11-10.51-2.39-8.66-18.53,6.26-37.74,10.21-57.28,11.37-14.92,.89-41.91,.09-41.95-20.88,0-3.93-4.88-5.86-7.66-3.17-11.27,10.91-23.07,22.6-37.98,28.34-12.95,4.99-29.04,5.08-39.96-4.46-2.42-2.11-6.68-1.51-7.5,1.98-8.44,35.96,.42,74.19,23.51,102.95,2.71,3.38,7.31,.22,7.66-3.17,3.68-35.78,3.01-71.84-1.96-107.46-2.1-15.08-3.83-32.17-14.14-44.19C58.19,.46,44.46-3.23,32.23,3.16,16.33,11.47,11.81,29.79,8.71,45.99c-1.08,5.64,7.57,8.06,8.66,2.39h0Z"/><path class="cls-1" d="M4.86,103.32l214.84-5.4,60.95-1.53c6.47-.16,6.49-10.23,0-10.07l-214.84,5.4-60.95,1.53c-6.47,.16-6.49,10.23,0,10.07h0Z"/></g></g></svg>