<?xml version="1.0" encoding="UTF-8"?><svg id="Layer_2" xmlns="http://www.w3.org/2000/svg" viewBox="0 0 1107.36 247.18"><defs><style>.cls-1{fill:#f2f2f2;}</style></defs><g id="car"><g><path class="cls-1" d="M6.68,191.33c-1.78,0-3.34-.63-4.68-1.87-1.34-1.25-2-2.76-2-4.54V7.22c0-1.78,.67-3.34,2-4.68S4.9,.54,6.68,.54h63.87c9.97,0,19.01,2.45,27.12,7.35,8.1,4.9,14.56,11.4,19.37,19.51,4.81,8.11,7.21,17.06,7.21,26.86s-2.41,18.8-7.21,26.99c-4.81,8.2-11.27,14.74-19.37,19.64-8.11,4.9-17.15,7.35-27.12,7.35H13.36v76.69c0,1.78-.63,3.29-1.87,4.54-1.25,1.25-2.85,1.87-4.81,1.87Zm6.68-96.47h57.19c7.48,0,14.25-1.82,20.31-5.48,6.05-3.65,10.91-8.55,14.56-14.7,3.65-6.15,5.48-12.96,5.48-20.44s-1.83-14.25-5.48-20.31c-3.65-6.05-8.51-10.91-14.56-14.56-6.06-3.65-12.83-5.48-20.31-5.48H13.36V94.86Z"/><path class="cls-1" d="M182.51,191.06c-15.14,0-27.08-5.21-35.81-15.63-8.73-10.42-13.09-24.54-13.09-42.36s4.36-32.15,13.09-42.49c8.73-10.33,20.66-15.5,35.81-15.5,13.18,0,24.27,4.54,33.27,13.63,8.99,9.08,13.85,21.38,14.56,36.88v.8c0,1.6-.63,3.03-1.87,4.28-1.07,1.25-2.58,1.87-4.54,1.87h-77.49c0,13.72,2.89,24.76,8.68,33.14,5.79,8.38,14.92,12.56,27.39,12.56,6.41,0,12.43-1.38,18.04-4.14,5.61-2.76,9.93-6.37,12.96-10.82,1.07-1.42,2.45-2.31,4.14-2.67,1.69-.36,3.25,0,4.68,1.07,1.42,.89,2.31,2.23,2.67,4.01,.35,1.78,0,3.39-1.07,4.81-4.28,6.24-10.11,11.22-17.5,14.96-7.39,3.74-15.37,5.61-23.92,5.61Zm-35.27-71.08h69.21c-1.78-10.15-5.66-17.99-11.62-23.52-5.97-5.52-13.41-8.28-22.31-8.28-9.62,0-17.42,2.76-23.38,8.28-5.97,5.52-9.93,13.36-11.89,23.52Z"/><path class="cls-1" d="M266.95,191.06c-1.78,0-3.3-.63-4.54-1.87-1.25-1.25-1.87-2.67-1.87-4.28V81.77c0-1.78,.62-3.29,1.87-4.54,1.24-1.24,2.76-1.87,4.54-1.87s3.25,.63,4.41,1.87c1.16,1.25,1.74,2.76,1.74,4.54v6.68c2.67-3.21,6.41-6.01,11.22-8.42,4.81-2.4,9.44-3.96,13.9-4.68,6.23-.89,12.56-.4,18.97,1.47,6.41,1.87,12.16,5.04,17.24,9.49,5.08,4.46,8.59,10.33,10.56,17.64,.53,1.6,.35,3.17-.53,4.68-.89,1.52-2.14,2.54-3.74,3.07-1.78,.36-3.43,.09-4.94-.8-1.52-.89-2.45-2.14-2.81-3.74-1.43-5.16-3.92-9.26-7.48-12.29-3.57-3.03-7.62-5.08-12.16-6.15-4.54-1.07-8.95-1.25-13.23-.54-7.66,.89-14.08,3.74-19.24,8.55-5.17,4.81-7.75,12.47-7.75,22.98v65.2c0,1.6-.58,3.03-1.74,4.28-1.16,1.24-2.63,1.87-4.41,1.87Z"/><path class="cls-1" d="M416.6,191.06c-15.14,0-27.08-5.21-35.81-15.63-8.73-10.42-13.09-24.54-13.09-42.36s4.36-32.15,13.09-42.49c8.73-10.33,20.66-15.5,35.81-15.5s26.54,5.08,35.27,15.23c1.24,1.25,1.82,2.76,1.74,4.54-.09,1.78-.85,3.3-2.27,4.54-1.25,1.07-2.76,1.56-4.54,1.47-1.78-.09-3.3-.76-4.54-2-6.06-7.12-14.61-10.69-25.65-10.69s-20.31,3.92-26.72,11.76c-6.41,7.84-9.62,18.89-9.62,33.14s3.21,25.57,9.62,33.4c6.41,7.84,15.32,11.76,26.72,11.76s19.77-3.47,25.65-10.42c1.24-1.42,2.76-2.23,4.54-2.41,1.78-.17,3.29,.36,4.54,1.6,1.42,1.07,2.18,2.5,2.27,4.28,.09,1.78-.49,3.39-1.74,4.81-8.91,9.98-20.67,14.96-35.27,14.96Z"/><path class="cls-1" d="M523.49,191.06c-15.14,0-27.08-5.21-35.81-15.63-8.73-10.42-13.09-24.54-13.09-42.36s4.36-32.15,13.09-42.49c8.73-10.33,20.66-15.5,35.81-15.5,13.18,0,24.27,4.54,33.27,13.63,8.99,9.08,13.85,21.38,14.56,36.88v.8c0,1.6-.63,3.03-1.87,4.28-1.07,1.25-2.58,1.87-4.54,1.87h-77.49c0,13.72,2.89,24.76,8.68,33.14,5.79,8.38,14.92,12.56,27.39,12.56,6.41,0,12.43-1.38,18.04-4.14,5.61-2.76,9.93-6.37,12.96-10.82,1.07-1.42,2.45-2.31,4.14-2.67,1.69-.36,3.25,0,4.68,1.07,1.42,.89,2.31,2.23,2.67,4.01,.35,1.78,0,3.39-1.07,4.81-4.28,6.24-10.11,11.22-17.5,14.96-7.39,3.74-15.37,5.61-23.92,5.61Zm-35.27-71.08h69.21c-1.78-10.15-5.66-17.99-11.62-23.52-5.97-5.52-13.41-8.28-22.31-8.28-9.62,0-17.42,2.76-23.38,8.28-5.97,5.52-9.93,13.36-11.89,23.52Z"/><path class="cls-1" d="M607.66,247.18c-1.78,0-3.25-.63-4.41-1.87-1.16-1.25-1.74-2.76-1.74-4.54V81.5c0-1.78,.58-3.29,1.74-4.54,1.16-1.25,2.63-1.87,4.41-1.87s3.29,.63,4.54,1.87c1.24,1.25,1.87,2.76,1.87,4.54v9.89c3.92-4.99,8.68-8.95,14.3-11.89,5.61-2.94,12.16-4.41,19.64-4.41,15.14,0,27.08,5.17,35.81,15.5,8.73,10.33,13.09,24.5,13.09,42.49s-4.37,31.93-13.09,42.36c-8.73,10.42-20.67,15.63-35.81,15.63-7.48,0-14.03-1.43-19.64-4.28-5.61-2.85-10.38-6.77-14.3-11.76v65.74c0,1.78-.63,3.29-1.87,4.54-1.25,1.25-2.76,1.87-4.54,1.87Zm40.35-68.94c11.58,0,20.53-3.92,26.86-11.76,6.32-7.84,9.49-18.97,9.49-33.4s-3.17-25.29-9.49-33.14c-6.33-7.84-15.28-11.76-26.86-11.76-22.81,0-34.2,14.96-34.2,44.89s11.4,45.16,34.2,45.16Z"/><path class="cls-1" d="M770.13,189.73c-7.31,0-13.05-2.1-17.24-6.28-4.19-4.18-6.28-9.75-6.28-16.7V91.66h-25.65c-1.78,0-3.25-.62-4.41-1.87-1.16-1.24-1.74-2.76-1.74-4.54s.58-3.25,1.74-4.41,2.63-1.74,4.41-1.74h25.65V39.82c0-1.78,.58-3.29,1.74-4.54,1.16-1.24,2.63-1.87,4.41-1.87s3.29,.63,4.54,1.87c1.24,1.25,1.87,2.76,1.87,4.54v39.28h33.14c1.78,0,3.29,.58,4.54,1.74,1.24,1.16,1.87,2.63,1.87,4.41s-.63,3.3-1.87,4.54c-1.25,1.25-2.76,1.87-4.54,1.87h-33.14v75.09c0,.71,.13,1.92,.4,3.61,.27,1.7,1.2,3.21,2.81,4.54s4.18,2,7.75,2h20.84c1.96,0,3.56,.63,4.81,1.87,1.24,1.25,1.87,2.76,1.87,4.54s-.63,3.3-1.87,4.54c-1.25,1.24-2.85,1.87-4.81,1.87h-20.84Z"/><path class="cls-1" d="M857.24,191.33c-1.78,0-3.25-.58-4.41-1.74-1.16-1.16-1.74-2.63-1.74-4.41V91.92h-30.73c-1.78,0-3.3-.67-4.54-2-1.25-1.34-1.87-2.89-1.87-4.68s.62-3.25,1.87-4.41c1.24-1.16,2.76-1.74,4.54-1.74h36.88c1.96,0,3.56,.58,4.81,1.74,1.24,1.16,1.87,2.63,1.87,4.41v99.94c0,1.78-.63,3.25-1.87,4.41-1.25,1.16-2.85,1.74-4.81,1.74Zm-3.21-160.6c-2.5,0-4.54-.71-6.15-2.14-1.6-1.42-2.4-3.03-2.4-4.81V7.22c0-1.78,.8-3.43,2.4-4.94,1.6-1.51,3.65-2.27,6.15-2.27s4.5,.76,6.01,2.27c1.51,1.52,2.27,3.17,2.27,4.94V23.78c0,1.78-.76,3.39-2.27,4.81-1.52,1.43-3.52,2.14-6.01,2.14Z"/><path class="cls-1" d="M945.43,191.06c-15.14,0-27.08-5.21-35.81-15.63-8.73-10.42-13.09-24.54-13.09-42.36s4.36-32.15,13.09-42.49c8.73-10.33,20.66-15.5,35.81-15.5s26.86,5.17,35.67,15.5c8.82,10.33,13.23,24.5,13.23,42.49s-4.41,31.93-13.23,42.36c-8.82,10.42-20.71,15.63-35.67,15.63Zm0-12.83c11.58,0,20.48-3.92,26.72-11.76,6.23-7.84,9.35-18.97,9.35-33.4s-3.12-25.29-9.35-33.14c-6.24-7.84-15.14-11.76-26.72-11.76s-20.31,3.92-26.72,11.76c-6.41,7.84-9.62,18.89-9.62,33.14s3.21,25.57,9.62,33.4c6.41,7.84,15.32,11.76,26.72,11.76Z"/><path class="cls-1" d="M1028.26,191.06c-1.78,0-3.25-.58-4.41-1.74-1.16-1.16-1.74-2.63-1.74-4.41V81.24c0-1.78,.58-3.29,1.74-4.54,1.16-1.24,2.63-1.87,4.41-1.87s3.29,.63,4.54,1.87c1.24,1.25,1.87,2.76,1.87,4.54v8.82c4.1-4.63,8.99-8.28,14.7-10.96,5.7-2.67,11.85-4.01,18.44-4.01,12.29,0,21.95,4.05,28.99,12.16,7.04,8.11,10.56,19.11,10.56,33v64.13c0,1.78-.58,3.29-1.74,4.54-1.16,1.24-2.63,1.87-4.41,1.87s-3.3-.63-4.54-1.87c-1.25-1.25-1.87-2.76-1.87-4.54V120.25c0-4.1-.63-8.64-1.87-13.63-1.25-4.99-3.79-9.31-7.62-12.96-3.83-3.65-9.67-5.48-17.5-5.48-10.33,0-18.44,2.85-24.32,8.55-5.88,5.7-8.82,13.81-8.82,24.32v63.87c0,1.78-.63,3.25-1.87,4.41-1.25,1.16-2.76,1.74-4.54,1.74Z"/></g></g></svg>