<?xml version="1.0" encoding="UTF-8"?><svg id="Layer_2" xmlns="http://www.w3.org/2000/svg" viewBox="0 0 165.13 190.43"><defs><style>.cls-1{fill:#131921;}</style></defs><g id="web"><path class="cls-1" d="M153.04,100.55l-50.3,29.35,11.9,4.84-12.27-49.74c-2.53-10.26-17.43-5.8-15.62,4.31l9.21,51.49c1.33,7.42,11.25,7.16,14.81,1.94,18.1-26.6,36.98-56.23,32.64-89.89-1.84-14.29-7.6-28.46-18.36-38.38C113.58,3.91,97.8-.92,82.35,.14,50.94,2.3,26.15,25.35,12.91,52.68-1.39,82.19-5.4,118.07,9.07,148.3c14.13,29.52,49.27,49.09,81.62,39.81,10-2.87,5.75-18.51-4.31-15.62-22.54,6.47-46.99-5.82-59.27-25.02-14.98-23.42-13.11-53.79-3.57-78.86,8.51-22.35,25.54-44.29,49.57-50.65,11.93-3.16,25.19-2.26,35.79,4.41,9.75,6.13,15.31,16.74,17.7,27.73,6.8,31.23-13.21,60.03-29.84,84.47l14.81,1.94-9.21-51.49-15.62,4.31,12.27,49.74c1.26,5.1,7.48,7.42,11.9,4.84l50.3-29.35c9-5.25,.86-19.26-8.18-13.99h0Z"/></g></svg>