<?xml version="1.0" encoding="UTF-8"?><svg id="Layer_2" xmlns="http://www.w3.org/2000/svg" viewBox="0 0 179.28 176.55"><defs><style>.cls-1{fill:#131921;}</style></defs><g id="web"><g><path class="cls-1" d="M49.17,10.68C14.82,44.76-3.38,93.62,.52,141.88c.28,3.43,5.51,5.83,7.26,1.97C23.8,108.47,50.73,78.95,84.59,59.91c4.37-2.46,.45-9.19-3.93-6.73C45.75,72.82,17.58,103.42,1.05,139.91l7.26,1.97C4.57,95.57,21.68,48.94,54.68,16.19c3.56-3.54-1.95-9.05-5.51-5.51h0Z"/><path class="cls-1" d="M45.73,7.49l123.56,166.82c3.95,5.33,12.99,.14,9-5.26L54.72,2.23c-3.95-5.33-12.99-.14-9,5.26h0Z"/></g></g></svg>