<?xml version="1.0" encoding="UTF-8"?><svg id="Layer_2" xmlns="http://www.w3.org/2000/svg" viewBox="0 0 918.1 254.93"><defs><style>.cls-1{fill:#f2f2f2;}</style></defs><g id="car"><g><path class="cls-1" d="M67.28,199.08c-12.83,0-24.94-2.23-36.34-6.68-11.4-4.45-20.84-10.69-28.33-18.71-3.57-3.03-3.47-6.15,.27-9.35,3.21-2.85,6.23-2.76,9.09,.27,6.23,6.59,14.25,11.76,24.05,15.5,9.8,3.74,20.22,5.61,31.27,5.61,15.32,0,27.26-3.11,35.81-9.35,8.55-6.23,12.83-14.87,12.83-25.92s-4.46-20.84-13.36-27.79c-8.91-6.95-22.81-11.84-41.69-14.7-18.35-3.03-31.89-8.82-40.62-17.37-8.73-8.55-13.09-20.48-13.09-35.81s5.08-28.19,15.23-37.01S46.61,4.54,64.6,4.54c9.26,0,18.88,1.78,28.86,5.34,9.98,3.57,19.24,8.46,27.79,14.7,3.38,2.85,3.74,5.97,1.07,9.35-2.67,3.56-5.7,4.01-9.09,1.34-7.31-5.52-15.28-9.79-23.92-12.83-8.64-3.03-16.88-4.54-24.72-4.54-13.9,0-24.72,3.25-32.47,9.75-7.75,6.5-11.62,15.54-11.62,27.12s3.43,20.35,10.29,26.86c6.86,6.5,17.59,10.91,32.2,13.23,22.8,3.39,39.55,9.58,50.24,18.57,10.69,9,16.03,21.34,16.03,37.01s-5.44,27.04-16.3,35.68c-10.87,8.64-26.1,12.96-45.69,12.96Z"/><path class="cls-1" d="M204.89,197.74c-7.31,0-13.05-2.1-17.24-6.28-4.19-4.18-6.28-9.75-6.28-16.7V99.67h-25.65c-1.78,0-3.25-.62-4.41-1.87-1.16-1.24-1.74-2.76-1.74-4.54s.58-3.25,1.74-4.41c1.16-1.16,2.63-1.74,4.41-1.74h25.65V47.83c0-1.78,.58-3.29,1.74-4.54,1.16-1.24,2.63-1.87,4.41-1.87s3.29,.62,4.54,1.87c1.24,1.25,1.87,2.77,1.87,4.54v39.28h33.14c1.78,0,3.29,.58,4.54,1.74,1.24,1.16,1.87,2.63,1.87,4.41s-.63,3.3-1.87,4.54c-1.25,1.25-2.76,1.87-4.54,1.87h-33.14v75.09c0,.71,.13,1.92,.4,3.61,.27,1.7,1.2,3.21,2.81,4.54,1.6,1.34,4.18,2,7.75,2h20.84c1.96,0,3.56,.63,4.81,1.87,1.24,1.25,1.87,2.76,1.87,4.54s-.63,3.3-1.87,4.54c-1.25,1.24-2.85,1.87-4.81,1.87h-20.84Z"/><path class="cls-1" d="M265.02,199.08c-1.78,0-3.3-.62-4.54-1.87-1.25-1.25-1.87-2.67-1.87-4.28V89.79c0-1.78,.62-3.29,1.87-4.54,1.24-1.24,2.76-1.87,4.54-1.87s3.25,.63,4.41,1.87c1.16,1.25,1.74,2.76,1.74,4.54v6.68c2.67-3.21,6.41-6.01,11.22-8.42,4.81-2.4,9.44-3.96,13.9-4.68,6.23-.89,12.56-.4,18.97,1.47,6.41,1.87,12.16,5.04,17.24,9.49,5.08,4.46,8.59,10.33,10.56,17.64,.53,1.6,.35,3.16-.53,4.68-.89,1.52-2.14,2.54-3.74,3.07-1.78,.36-3.43,.09-4.94-.8-1.52-.89-2.45-2.14-2.81-3.74-1.43-5.16-3.92-9.26-7.48-12.29-3.57-3.03-7.62-5.08-12.16-6.15-4.54-1.07-8.95-1.24-13.23-.54-7.66,.89-14.08,3.74-19.24,8.55-5.17,4.81-7.75,12.47-7.75,22.98v65.2c0,1.6-.58,3.03-1.74,4.28-1.16,1.24-2.63,1.87-4.41,1.87Z"/><path class="cls-1" d="M414.66,199.08c-15.14,0-27.08-5.21-35.81-15.63-8.73-10.42-13.09-24.54-13.09-42.36s4.36-32.15,13.09-42.49c8.73-10.33,20.66-15.5,35.81-15.5,13.18,0,24.27,4.54,33.27,13.63,8.99,9.09,13.85,21.38,14.56,36.88v.8c0,1.6-.63,3.03-1.87,4.28-1.07,1.25-2.58,1.87-4.54,1.87h-77.49c0,13.72,2.89,24.76,8.68,33.14,5.79,8.38,14.92,12.56,27.39,12.56,6.41,0,12.43-1.38,18.04-4.14,5.61-2.76,9.93-6.37,12.96-10.82,1.07-1.42,2.45-2.31,4.14-2.67,1.69-.36,3.25,0,4.68,1.07,1.42,.89,2.31,2.23,2.67,4.01,.35,1.78,0,3.38-1.07,4.81-4.28,6.24-10.11,11.22-17.5,14.96-7.39,3.74-15.37,5.61-23.92,5.61Zm-35.27-71.08h69.21c-1.78-10.15-5.66-17.99-11.62-23.52-5.97-5.52-13.41-8.29-22.31-8.29-9.62,0-17.42,2.77-23.38,8.29-5.97,5.52-9.93,13.36-11.89,23.52Z"/><path class="cls-1" d="M498.83,199.08c-1.78,0-3.25-.58-4.41-1.74-1.16-1.16-1.74-2.63-1.74-4.41V89.25c0-1.78,.58-3.29,1.74-4.54,1.16-1.24,2.63-1.87,4.41-1.87s3.29,.62,4.54,1.87c1.24,1.25,1.87,2.76,1.87,4.54v8.82c4.1-4.63,8.99-8.28,14.7-10.96,5.7-2.67,11.85-4.01,18.44-4.01,12.29,0,21.95,4.05,28.99,12.16,7.04,8.11,10.56,19.11,10.56,33v64.13c0,1.78-.58,3.29-1.74,4.54-1.16,1.24-2.63,1.87-4.41,1.87s-3.3-.63-4.54-1.87c-1.25-1.25-1.87-2.76-1.87-4.54v-64.13c0-4.1-.63-8.64-1.87-13.63-1.25-4.99-3.79-9.31-7.62-12.96-3.83-3.65-9.67-5.48-17.5-5.48-10.33,0-18.44,2.85-24.32,8.55-5.88,5.7-8.82,13.81-8.82,24.32v63.87c0,1.78-.63,3.25-1.87,4.41-1.25,1.16-2.76,1.74-4.54,1.74Z"/><path class="cls-1" d="M656.23,254.93c-9.44,0-17.6-2.54-24.45-7.62-6.86-5.08-11.72-12.25-14.56-21.51-.53-1.6-.45-3.16,.27-4.68,.71-1.52,1.96-2.54,3.74-3.07,1.78-.71,3.43-.62,4.94,.27,1.51,.89,2.54,2.14,3.07,3.74,4.1,13.36,13.09,20.04,26.99,20.04,9.09,0,16.25-3.3,21.51-9.89,5.25-6.59,7.88-15.59,7.88-26.99v-35.81c-7.84,8.38-18.89,12.56-33.14,12.56s-25.83-4.45-34.2-13.36c-8.38-8.91-12.56-20.93-12.56-36.07s4.18-27.12,12.56-35.94c8.37-8.82,19.77-13.23,34.2-13.23s25.47,4.28,33.14,12.83v-6.68c0-1.78,.62-3.34,1.87-4.68,1.24-1.34,2.76-2,4.54-2s3.25,.67,4.41,2c1.16,1.34,1.74,2.9,1.74,4.68v115.71c0,14.61-3.83,26.54-11.49,35.81-7.66,9.26-17.82,13.89-30.46,13.89Zm-3.74-85.51c10.51,0,18.71-3.07,24.58-9.22,5.88-6.14,8.82-15.37,8.82-27.66s-2.94-21.2-8.82-27.26c-5.88-6.05-14.08-9.09-24.58-9.09s-19.29,3.17-25.25,9.49c-5.97,6.33-8.95,15.28-8.95,26.86s2.98,20.84,8.95,27.26c5.97,6.41,14.38,9.62,25.25,9.62Z"/><path class="cls-1" d="M774.07,197.74c-7.31,0-13.05-2.1-17.24-6.28-4.19-4.18-6.28-9.75-6.28-16.7V99.67h-25.65c-1.78,0-3.25-.62-4.41-1.87-1.16-1.24-1.74-2.76-1.74-4.54s.58-3.25,1.74-4.41c1.16-1.16,2.63-1.74,4.41-1.74h25.65V47.83c0-1.78,.58-3.29,1.74-4.54,1.16-1.24,2.63-1.87,4.41-1.87s3.29,.62,4.54,1.87c1.24,1.25,1.87,2.77,1.87,4.54v39.28h33.14c1.78,0,3.29,.58,4.54,1.74,1.24,1.16,1.87,2.63,1.87,4.41s-.63,3.3-1.87,4.54c-1.25,1.25-2.76,1.87-4.54,1.87h-33.14v75.09c0,.71,.13,1.92,.4,3.61,.27,1.7,1.2,3.21,2.81,4.54s4.18,2,7.75,2h20.84c1.96,0,3.56,.63,4.81,1.87,1.24,1.25,1.87,2.76,1.87,4.54s-.63,3.3-1.87,4.54c-1.25,1.24-2.85,1.87-4.81,1.87h-20.84Z"/><path class="cls-1" d="M839,199.35c-1.78,0-3.3-.58-4.54-1.74-1.25-1.16-1.87-2.63-1.87-4.41V6.41c0-1.78,.62-3.29,1.87-4.54,1.24-1.24,2.76-1.87,4.54-1.87s3.29,.63,4.54,1.87c1.24,1.25,1.87,2.76,1.87,4.54V97.8c4.1-4.63,8.99-8.24,14.7-10.82,5.7-2.58,11.85-3.88,18.44-3.88,12.29,0,21.95,4.05,28.99,12.16,7.04,8.11,10.56,19.02,10.56,32.73v64.94c0,1.78-.58,3.25-1.74,4.41-1.16,1.16-2.63,1.74-4.41,1.74s-3.3-.58-4.54-1.74c-1.25-1.16-1.87-2.63-1.87-4.41v-64.94c0-4.1-.63-8.64-1.87-13.63-1.25-4.98-3.79-9.31-7.62-12.96-3.83-3.65-9.67-5.48-17.5-5.48-9.27,0-17.1,2.85-23.52,8.55-6.41,5.7-9.62,13.81-9.62,24.32v64.4c0,1.78-.63,3.25-1.87,4.41-1.25,1.16-2.76,1.74-4.54,1.74Z"/></g></g></svg>