<?xml version="1.0" encoding="UTF-8"?><svg id="Layer_2" xmlns="http://www.w3.org/2000/svg" viewBox="0 0 219.04 214.94"><defs><style>.cls-1{fill:#fff;}.cls-2{fill:#131921;}.cls-3{fill:#081726;}</style></defs><g id="web"><g><g><g><path class="cls-3" d="M25.96,112.4c23.24,19.39,52.42,31.57,82.55,34.46,11.56,1.11,23.57,.82,34.28-3.66,10.71-4.48,19.94-13.78,21.81-25.24l.39-3.09c-2.09-13.88-9.14-26.97-19.59-36.35-10.45-9.38-24.22-14.98-38.24-15.56-15.87-.66-31.58,4.97-44.77,13.82-13.19,8.84-36.43,35.62-36.43,35.62Z"/><path class="cls-2" d="M22.83,115.53c21.39,17.64,47.08,29.77,74.5,34.29,24.28,4.01,57.01,3.28,69.01-22.77,1.69-3.68,3.05-8.06,3.07-12.18,.02-6.14-3-13.13-5.52-18.6-5.39-11.68-14.36-21.64-25.36-28.29-24.21-14.62-53.83-10.87-76.95,4.05-14.87,9.6-27.22,23.97-38.75,37.24-3.72,4.27,2.51,10.55,6.25,6.25,8.61-9.9,17.64-19.59,27.4-28.36,16.61-14.92,40.06-23.83,62.28-18.01,11.24,2.94,21.4,9.23,28.95,18.07,3.87,4.53,7.06,9.8,9.32,15.31,1.74,4.26,3.91,9.66,3.27,14.34-1.35,9.99-9.6,17.94-18.43,21.93-11.68,5.28-25.39,4.75-37.81,3.14-27.42-3.55-53.69-15.09-75-32.67-4.36-3.59-10.64,2.63-6.25,6.25Z"/></g><g><path class="cls-1" d="M104.47,62.92c-20.04-.42-21.14,18.88-25.23,32.65-3.52,11.84-3.21,25.25,3.09,35.87,6.3,10.62,19.29,17.58,31.31,14.78,11.38-2.65,19.61-13.16,22.86-24.38,3.5-12.1,2.11-25.54-3.81-36.66-5.92-11.12-8.18-21.86-28.22-22.27Z"/><path class="cls-2" d="M104.47,58.5c-7.57,.02-14.52,2.42-19.34,8.45-4.27,5.34-6.19,12.09-7.85,18.61-2.18,8.57-4.86,17.03-4.7,25.98,.17,9.52,2.99,19.1,9.06,26.55,11.62,14.23,32.25,17.66,46.5,5.34,15.02-12.98,18.03-36.32,11.19-54.19-2.72-7.11-6.47-15.35-11.39-21.24-5.91-7.07-14.61-9.19-23.47-9.51-5.69-.21-5.68,8.63,0,8.84,5.97,.22,12.07,1.23,16.28,5.83,3.21,3.51,5.02,8.16,7.15,12.35,7.15,14.1,8.84,30.96-.05,44.82s-25.35,15.83-37.06,4.68-9.89-27.88-6.18-42.33c2.96-11.54,5.24-25.31,19.86-25.35,5.69-.01,5.7-8.85,0-8.84Z"/></g><g><path class="cls-1" d="M111.53,89.02c-4.46,3.53-9.15,7.38-10.91,12.79-1.24,3.81-.81,8.13,1.15,11.62s5.42,6.11,9.32,7.03c1.45-4.03,4.19-7.44,6.56-11.01,2.36-3.57,4.44-7.61,4.26-11.89s-10.37-8.54-10.37-8.54Z"/><path class="cls-2" d="M108.4,85.89c-6.71,5.34-13.25,11.84-12.87,21.09,.36,8.62,6.26,15.34,14.37,17.74,2.48,.73,4.55-.91,5.44-3.09,3.3-8.13,13.45-16.17,10.69-26.01-1.45-5.19-7.68-8.47-12.27-10.43-5.17-2.21-9.68,5.4-4.46,7.63,1.29,.55,2.55,1.18,3.77,1.87,2.36,1.33,4.22,2.16,4.31,4.84,.11,3.44-3.6,7.72-5.38,10.34-2.05,3.02-3.81,6.01-5.19,9.4l5.44-3.09c-5.46-1.61-9.07-6.73-7.57-12.49,1.3-5.01,6.12-8.5,9.97-11.57,4.45-3.54-1.84-9.76-6.25-6.25Z"/></g></g><path class="cls-2" d="M181.46,11.89l-24.99,40.86,10.97,1.43-5.31-22.58c-1.61-6.84-11.41-4.93-11.79,1.6-.63,10.86-.05,22.98,9.41,30.13s21.36,2.3,30.35-3.78c6.36-4.3,.36-14.7-6.06-10.36-4.85,3.28-12.64,9.1-18.02,3.77-5.02-4.98-4.05-13.36-3.68-19.75l-11.79,1.6,5.31,22.58c1.21,5.17,8.37,5.68,10.97,1.43l24.99-40.86c4.04-6.61-6.33-12.64-10.36-6.06h0Z"/><path class="cls-2" d="M37.18,212l25.81-46.21c2.6-4.65-1.68-10.03-6.78-8.81l-35.76,8.55c-7.56,1.81-4.32,13.07,3.19,11.57,9.52-1.9,19.03-3.87,28.56-5.69,1.07-.2,3.07-.34,3.09-.32,1.09,.88,1.56,5.6,1.94,6.98l4.23,15.39c2.04,7.44,13.62,4.28,11.57-3.19-1.94-7.05-3.69-14.18-5.82-21.17-1.5-4.93-4.12-8.81-9.47-9.84s-11.69,1.16-17.02,2.23l-20.27,4.04,3.19,11.57,35.76-8.55-6.78-8.81-25.81,46.21c-3.77,6.75,6.59,12.81,10.36,6.06h0Z"/><path class="cls-2" d="M169.14,158.09l.24,23.87c.06,6.23,9.38,6.19,9.64,0l.5-11.66c.11-2.52-.9-8.5,1.54-9.47,1.03-.41,4.25,1.13,5.2,1.39l5.65,1.55,11.29,3.1,2.56-9.3-14.48-3.89c-4.19-1.12-8.68-2.95-13.02-3.28-6.49-.48-10.52,5.57-7.28,11.37,1.88,3.37,5.49,5.99,8.24,8.59l10.02,9.47,21.48,20.3c4.51,4.26,11.34-2.55,6.82-6.82l-28.64-27.06c-2.23-2.11-4.54-5.21-7.16-6.77l-1.43-1.35-2.21,2c.06,.27,4.23,1.14,4.83,1.3l20.27,5.44c6,1.61,8.55-7.65,2.56-9.3l-17.88-4.91c-4.37-1.2-9.37-2.78-13.47,.09-3.28,2.3-3.94,6.03-4.21,9.76-.46,6.46-.55,12.97-.83,19.44h9.64l-.24-23.87c-.06-6.2-9.7-6.22-9.64,0h0Z"/><path class="cls-2" d="M49.82,43.49l-.19-23.88c-.05-6.23-9.37-6.18-9.64,0l-.52,11.66c-.11,2.53,.88,8.5-1.57,9.45-1.04,.4-4.24-1.13-5.2-1.4l-5.64-1.56-11.29-3.13-2.56,9.3,14.47,3.91c4.19,1.13,8.67,2.97,13.01,3.3,6.49,.49,10.52-5.56,7.29-11.36-1.88-3.37-5.48-6-8.22-8.61l-10.01-9.49L8.3,1.35C3.8-2.91-3.03,3.89,1.48,8.17l28.59,27.12c2.22,2.11,4.53,5.22,7.15,6.78l1.43,1.36,2.2-2c-.06-.27-4.23-1.14-4.82-1.3l-20.26-5.48c-6-1.62-8.55,7.64-2.56,9.3l17.87,4.95c4.37,1.21,9.37,2.79,13.47-.07,3.29-2.3,3.94-6.03,4.22-9.76,.48-6.46,.58-12.97,.87-19.44h-9.64l.19,23.88c.05,6.2,9.69,6.22,9.64,0h0Z"/></g></g></svg>