<?xml version="1.0" encoding="UTF-8"?><svg id="Layer_2" xmlns="http://www.w3.org/2000/svg" viewBox="0 0 916.75 888.12"><defs><style>.cls-1{fill:#fff;}</style></defs><g id="car"><g><path class="cls-1" d="M32.49,96.02c-6.19,0-12.05-1.08-17.55-3.23-5.51-2.15-10.07-5.16-13.68-9.03-1.72-1.46-1.68-2.97,.13-4.52,1.55-1.38,3.01-1.33,4.39,.13,3.01,3.18,6.88,5.68,11.61,7.48,4.73,1.81,9.76,2.71,15.1,2.71,7.4,0,13.16-1.5,17.29-4.52,4.13-3.01,6.19-7.18,6.19-12.52s-2.15-10.07-6.45-13.42c-4.3-3.36-11.01-5.72-20.13-7.1-8.86-1.46-15.4-4.26-19.62-8.39-4.22-4.13-6.32-9.89-6.32-17.29s2.45-13.62,7.36-17.87C15.71,4.19,22.51,2.07,31.2,2.07c4.47,0,9.12,.86,13.94,2.58,4.82,1.72,9.29,4.09,13.42,7.1,1.63,1.38,1.81,2.88,.52,4.52-1.29,1.72-2.75,1.94-4.39,.65-3.53-2.67-7.38-4.73-11.55-6.19-4.17-1.46-8.15-2.19-11.94-2.19-6.71,0-11.94,1.57-15.68,4.71-3.74,3.14-5.61,7.51-5.61,13.1s1.66,9.83,4.97,12.97c3.31,3.14,8.5,5.27,15.55,6.39,11.01,1.63,19.1,4.62,24.26,8.97,5.16,4.35,7.74,10.3,7.74,17.87s-2.63,13.06-7.87,17.23c-5.25,4.17-12.6,6.26-22.07,6.26Z"/><path class="cls-1" d="M96.11,96.02c-5.94,0-10.6-1.94-14-5.81-3.4-3.87-5.1-9.21-5.1-16v-30.84c0-.86,.28-1.59,.84-2.19,.56-.6,1.27-.9,2.13-.9s1.59,.3,2.19,.9c.6,.6,.9,1.33,.9,2.19v30.84c0,1.98,.3,4.19,.9,6.65,.6,2.45,1.83,4.58,3.68,6.39,1.85,1.81,4.67,2.71,8.45,2.71,5.08,0,9.01-1.38,11.81-4.13,2.79-2.75,4.19-6.71,4.19-11.87v-30.71c0-.86,.3-1.61,.9-2.26,.6-.65,1.33-.97,2.19-.97s1.57,.32,2.13,.97c.56,.65,.84,1.4,.84,2.26v49.81c0,.86-.28,1.57-.84,2.13-.56,.56-1.27,.84-2.13,.84s-1.59-.28-2.19-.84c-.6-.56-.9-1.27-.9-2.13v-4c-1.98,2.15-4.32,3.85-7.03,5.1s-5.7,1.87-8.97,1.87Z"/><path class="cls-1" d="M135.86,96.02c-.86,0-1.57-.28-2.13-.84-.56-.56-.84-1.27-.84-2.13V42.97c0-.86,.28-1.59,.84-2.19,.56-.6,1.27-.9,2.13-.9s1.59,.3,2.19,.9c.6,.6,.9,1.33,.9,2.19v4.26c1.98-2.24,4.34-4,7.1-5.29,2.75-1.29,5.72-1.94,8.9-1.94,5.94,0,10.6,1.96,14,5.87,3.4,3.92,5.1,9.23,5.1,15.94v30.97c0,.86-.28,1.59-.84,2.19-.56,.6-1.27,.9-2.13,.9s-1.59-.3-2.19-.9c-.6-.6-.9-1.33-.9-2.19v-30.97c0-1.98-.3-4.17-.9-6.58-.6-2.41-1.83-4.5-3.68-6.26-1.85-1.76-4.67-2.65-8.45-2.65-4.99,0-8.9,1.38-11.74,4.13-2.84,2.75-4.26,6.67-4.26,11.74v30.84c0,.86-.3,1.57-.9,2.13-.6,.56-1.33,.84-2.19,.84Z"/><path class="cls-1" d="M189.16,96.02c-.86,0-1.57-.28-2.13-.84-.56-.56-.84-1.27-.84-2.13V42.97c0-.86,.28-1.59,.84-2.19,.56-.6,1.27-.9,2.13-.9s1.59,.3,2.19,.9c.6,.6,.9,1.33,.9,2.19v4.26c1.98-2.24,4.34-4,7.1-5.29,2.75-1.29,5.72-1.94,8.9-1.94,5.94,0,10.6,1.96,14,5.87,3.4,3.92,5.1,9.23,5.1,15.94v30.97c0,.86-.28,1.59-.84,2.19-.56,.6-1.27,.9-2.13,.9s-1.59-.3-2.19-.9c-.6-.6-.9-1.33-.9-2.19v-30.97c0-1.98-.3-4.17-.9-6.58-.6-2.41-1.83-4.5-3.68-6.26-1.85-1.76-4.67-2.65-8.45-2.65-4.99,0-8.9,1.38-11.74,4.13-2.84,2.75-4.26,6.67-4.26,11.74v30.84c0,.86-.3,1.57-.9,2.13-.6,.56-1.33,.84-2.19,.84Z"/><path class="cls-1" d="M258.2,96.14c-.86,0-1.57-.28-2.13-.84s-.84-1.27-.84-2.13V48.14h-14.84c-.86,0-1.59-.32-2.19-.97-.6-.65-.9-1.4-.9-2.26s.3-1.57,.9-2.13c.6-.56,1.33-.84,2.19-.84h17.81c.95,0,1.72,.28,2.32,.84,.6,.56,.9,1.27,.9,2.13v48.27c0,.86-.3,1.57-.9,2.13-.6,.56-1.38,.84-2.32,.84Zm-1.55-77.56c-1.21,0-2.19-.34-2.97-1.03-.77-.69-1.16-1.46-1.16-2.32V7.23c0-.86,.39-1.66,1.16-2.39,.77-.73,1.76-1.1,2.97-1.1s2.17,.37,2.9,1.1c.73,.73,1.1,1.53,1.1,2.39V15.23c0,.86-.37,1.64-1.1,2.32-.73,.69-1.7,1.03-2.9,1.03Z"/><path class="cls-1" d="M281.43,96.02c-.86,0-1.57-.28-2.13-.84-.56-.56-.84-1.27-.84-2.13V42.97c0-.86,.28-1.59,.84-2.19,.56-.6,1.27-.9,2.13-.9s1.59,.3,2.19,.9c.6,.6,.9,1.33,.9,2.19v4.26c1.98-2.24,4.34-4,7.1-5.29,2.75-1.29,5.72-1.94,8.9-1.94,5.94,0,10.6,1.96,14,5.87,3.4,3.92,5.1,9.23,5.1,15.94v30.97c0,.86-.28,1.59-.84,2.19-.56,.6-1.27,.9-2.13,.9s-1.59-.3-2.19-.9c-.6-.6-.9-1.33-.9-2.19v-30.97c0-1.98-.3-4.17-.9-6.58-.6-2.41-1.83-4.5-3.68-6.26-1.85-1.76-4.67-2.65-8.45-2.65-4.99,0-8.9,1.38-11.74,4.13-2.84,2.75-4.26,6.67-4.26,11.74v30.84c0,.86-.3,1.57-.9,2.13-.6,.56-1.33,.84-2.19,.84Z"/><path class="cls-1" d="M357.44,122.99c-4.56,0-8.5-1.23-11.81-3.68-3.31-2.45-5.66-5.92-7.03-10.39-.26-.77-.21-1.53,.13-2.26,.34-.73,.95-1.23,1.81-1.48,.86-.35,1.66-.3,2.39,.13,.73,.43,1.23,1.03,1.48,1.81,1.98,6.45,6.32,9.68,13.03,9.68,4.39,0,7.85-1.59,10.39-4.77,2.54-3.18,3.81-7.53,3.81-13.04v-17.29c-3.79,4.04-9.12,6.07-16,6.07s-12.48-2.15-16.52-6.45c-4.04-4.3-6.07-10.11-6.07-17.42s2.02-13.1,6.07-17.36c4.04-4.26,9.55-6.39,16.52-6.39s12.3,2.06,16,6.19v-3.23c0-.86,.3-1.61,.9-2.26,.6-.65,1.33-.97,2.19-.97s1.57,.32,2.13,.97c.56,.65,.84,1.4,.84,2.26v55.88c0,7.05-1.85,12.82-5.55,17.29-3.7,4.47-8.6,6.71-14.71,6.71Zm-1.81-41.3c5.08,0,9.03-1.48,11.87-4.45,2.84-2.97,4.26-7.42,4.26-13.36s-1.42-10.24-4.26-13.16c-2.84-2.92-6.8-4.39-11.87-4.39s-9.31,1.53-12.2,4.58c-2.88,3.05-4.32,7.38-4.32,12.97s1.44,10.07,4.32,13.16c2.88,3.1,6.95,4.65,12.2,4.65Z"/><path class="cls-1" d="M397.97,94.34c-.86,0-1.61-.32-2.26-.97-.64-.65-.97-1.4-.97-2.26V7.23c0-.86,.32-1.61,.97-2.26,.65-.64,1.4-.97,2.26-.97h26.33c5.5,0,10.5,1.36,14.97,4.07,4.47,2.71,8.07,6.3,10.78,10.78,2.71,4.47,4.07,9.47,4.07,14.97v30.58c0,5.51-1.35,10.52-4.07,15.04-2.71,4.52-6.3,8.13-10.78,10.84-4.47,2.71-9.46,4.07-14.97,4.07h-26.33Zm3.23-6.45h23.1c4.3,0,8.21-1.05,11.74-3.16,3.53-2.11,6.34-4.95,8.45-8.52,2.11-3.57,3.16-7.5,3.16-11.81v-30.58c0-4.3-1.05-8.21-3.16-11.74-2.11-3.53-4.93-6.34-8.45-8.45-3.53-2.11-7.44-3.16-11.74-3.16h-23.1V87.89Z"/><path class="cls-1" d="M506.11,96.14c-.86,0-1.59-.28-2.19-.84-.6-.56-.9-1.27-.9-2.13v-1.03l-15.87,3.1c-3.96,.77-7.31,.99-10.07,.65-2.75-.34-5.08-1.21-6.97-2.58-1.38-1.12-2.47-2.52-3.29-4.19-.82-1.68-1.31-3.59-1.48-5.74-.52-4.99,.58-9.1,3.29-12.32,2.71-3.23,6.9-5.31,12.58-6.26l21.81-3.74v-3.61c0-1.72-.28-3.55-.84-5.48-.56-1.94-1.7-3.38-3.42-4.32-1.38-.86-3.14-1.29-5.29-1.29-5.33,0-11.92,2.41-19.75,7.23-.77,.43-1.55,.54-2.32,.32-.77-.21-1.38-.67-1.81-1.36-.52-.77-.67-1.57-.45-2.39,.21-.82,.67-1.4,1.36-1.74,5.08-3.1,9.5-5.23,13.29-6.39,3.79-1.16,7.01-1.74,9.68-1.74,1.81,0,3.38,.19,4.71,.58,1.33,.39,2.47,.84,3.42,1.35,2.49,1.38,4.39,3.38,5.68,6,1.29,2.63,1.94,5.7,1.94,9.23v35.75c0,.86-.28,1.57-.84,2.13-.56,.56-1.31,.84-2.26,.84Zm-20-7.1l16.91-3.1v-18.71l-20.65,3.48c-3.53,.6-6.09,1.59-7.68,2.97-1.59,1.38-2.56,2.86-2.9,4.45-.34,1.59-.47,3.12-.39,4.58,.26,2.67,1.07,4.52,2.45,5.55,2.06,1.55,6.15,1.81,12.26,.77Z"/><path class="cls-1" d="M537.73,95.37c-3.44,0-6.22-1.01-8.32-3.03-2.11-2.02-3.16-4.71-3.16-8.07V3.1c0-.86,.3-1.59,.9-2.19s1.33-.9,2.19-.9,1.59,.3,2.19,.9c.6,.6,.9,1.33,.9,2.19V84.27c0,.34,.07,.93,.19,1.74,.13,.82,.58,1.55,1.35,2.19s2.02,.97,3.74,.97h10.19c.86,0,1.59,.3,2.19,.9,.6,.6,.9,1.33,.9,2.19s-.3,1.59-.9,2.19c-.6,.6-1.33,.9-2.19,.9h-10.19Z"/><path class="cls-1" d="M583.28,96.02c-7.31,0-13.08-2.52-17.29-7.55-4.22-5.03-6.32-11.85-6.32-20.46s2.11-15.53,6.32-20.52c4.21-4.99,9.98-7.49,17.29-7.49,6.37,0,11.72,2.19,16.07,6.58,4.34,4.39,6.69,10.32,7.03,17.81v.39c0,.77-.3,1.46-.9,2.06-.52,.6-1.25,.9-2.19,.9h-37.43c0,6.63,1.4,11.96,4.19,16,2.79,4.04,7.21,6.07,13.23,6.07,3.1,0,6-.67,8.71-2,2.71-1.33,4.79-3.07,6.26-5.23,.52-.69,1.18-1.12,2-1.29,.82-.17,1.57,0,2.26,.52,.69,.43,1.12,1.08,1.29,1.94,.17,.86,0,1.63-.52,2.32-2.07,3.01-4.88,5.42-8.45,7.23-3.57,1.81-7.42,2.71-11.55,2.71Zm-17.03-34.33h33.42c-.86-4.9-2.73-8.69-5.61-11.36-2.88-2.67-6.47-4-10.78-4-4.65,0-8.41,1.33-11.29,4-2.88,2.67-4.8,6.45-5.74,11.36Z"/><path class="cls-1" d="M78.3,249.02c-.86,0-1.61-.3-2.26-.9-.64-.6-.97-1.33-.97-2.19v-87.63c0-1.63,.77-2.67,2.32-3.1,1.55-.43,2.79,.04,3.74,1.42,8,12.73,14.86,23.62,20.58,32.65,5.72,9.03,10.45,16.52,14.2,22.46,3.74,5.94,6.69,10.6,8.84,14,2.15,3.4,4.08,6.47,5.81,9.23v-76.66c0-.86,.34-1.61,1.03-2.26,.69-.65,1.46-.97,2.32-.97s1.59,.32,2.19,.97c.6,.65,.9,1.4,.9,2.26v87.63c0,1.55-.73,2.54-2.19,2.97-1.55,.43-2.8,0-3.74-1.29-8-12.73-14.84-23.62-20.52-32.65-5.68-9.03-10.41-16.52-14.2-22.46-3.79-5.94-6.75-10.6-8.9-14-2.15-3.4-4.13-6.47-5.94-9.23v76.66c0,.86-.3,1.59-.9,2.19-.6,.6-1.38,.9-2.32,.9Z"/><path class="cls-1" d="M176.51,249.02c-7.31,0-13.08-2.52-17.29-7.55-4.22-5.03-6.32-11.85-6.32-20.46s2.11-15.53,6.32-20.52c4.21-4.99,9.98-7.49,17.29-7.49,6.37,0,11.72,2.19,16.07,6.58,4.34,4.39,6.69,10.32,7.03,17.81v.39c0,.77-.3,1.46-.9,2.06-.52,.6-1.25,.9-2.19,.9h-37.43c0,6.63,1.4,11.96,4.19,16,2.79,4.04,7.21,6.07,13.23,6.07,3.1,0,6-.67,8.71-2,2.71-1.33,4.79-3.07,6.26-5.23,.52-.69,1.18-1.12,2-1.29,.82-.17,1.57,0,2.26,.52,.69,.43,1.12,1.08,1.29,1.94,.17,.86,0,1.63-.52,2.32-2.07,3.01-4.88,5.42-8.45,7.23-3.57,1.81-7.42,2.71-11.55,2.71Zm-17.03-34.33h33.42c-.86-4.9-2.73-8.69-5.61-11.36-2.88-2.67-6.47-4-10.78-4-4.65,0-8.41,1.33-11.29,4-2.88,2.67-4.8,6.45-5.74,11.36Z"/><path class="cls-1" d="M224,249.02c-1.55-.17-2.45-.99-2.71-2.45l-9.55-49.94c-.09-.86,.08-1.66,.52-2.39,.43-.73,1.08-1.18,1.94-1.35,.86-.08,1.63,.11,2.32,.58,.69,.47,1.12,1.1,1.29,1.87l7.74,40.65,12.78-27.75c.6-1.2,1.55-1.81,2.84-1.81s2.24,.6,2.84,1.81l12.78,27.75,7.61-40.39c.17-.86,.6-1.53,1.29-2,.69-.47,1.46-.62,2.32-.45,.86,.09,1.53,.5,2,1.23,.47,.73,.62,1.53,.45,2.39l-9.55,49.81c-.26,1.46-1.12,2.28-2.58,2.45-1.55,.17-2.63-.43-3.23-1.81l-13.94-30.33-14.07,30.33c-.6,1.38-1.64,1.98-3.1,1.81Z"/><path class="cls-1" d="M348.67,249.02c-.86,0-1.61-.3-2.26-.9-.65-.6-.97-1.33-.97-2.19v-37.3l-30.33-48.52c-.52-.77-.67-1.59-.45-2.45,.21-.86,.67-1.55,1.36-2.07,.86-.43,1.72-.56,2.58-.39,.86,.17,1.5,.65,1.94,1.42l28.13,44.91,27.75-44.91c.52-.77,1.2-1.27,2.06-1.48,.86-.21,1.68-.06,2.45,.45,.69,.52,1.14,1.21,1.36,2.07,.21,.86,.06,1.68-.45,2.45l-29.94,48.52v37.3c0,.86-.3,1.59-.9,2.19-.6,.6-1.38,.9-2.32,.9Z"/><path class="cls-1" d="M403.51,249.02c-7.31,0-13.08-2.52-17.29-7.55-4.22-5.03-6.32-11.85-6.32-20.46s2.11-15.53,6.32-20.52c4.21-4.99,9.98-7.49,17.29-7.49s12.97,2.5,17.23,7.49c4.26,4.99,6.39,11.83,6.39,20.52s-2.13,15.42-6.39,20.46c-4.26,5.03-10,7.55-17.23,7.55Zm0-6.19c5.59,0,9.89-1.89,12.91-5.68,3.01-3.79,4.52-9.16,4.52-16.13s-1.51-12.21-4.52-16c-3.01-3.79-7.31-5.68-12.91-5.68s-9.81,1.89-12.91,5.68c-3.1,3.79-4.65,9.12-4.65,16s1.55,12.35,4.65,16.13c3.1,3.79,7.4,5.68,12.91,5.68Z"/><path class="cls-1" d="M443.65,249.02c-.86,0-1.59-.3-2.19-.9-.6-.6-.9-1.29-.9-2.06v-49.81c0-.86,.3-1.59,.9-2.19s1.33-.9,2.19-.9,1.57,.3,2.13,.9c.56,.6,.84,1.33,.84,2.19v3.23c1.29-1.55,3.1-2.9,5.42-4.06,2.32-1.16,4.56-1.91,6.71-2.26,3.01-.43,6.07-.19,9.16,.71,3.1,.9,5.87,2.43,8.32,4.58,2.45,2.15,4.15,4.99,5.1,8.52,.26,.77,.17,1.53-.26,2.26-.43,.73-1.03,1.23-1.81,1.48-.86,.17-1.66,.04-2.39-.39-.73-.43-1.18-1.03-1.36-1.81-.69-2.49-1.89-4.47-3.61-5.94-1.72-1.46-3.68-2.45-5.87-2.97-2.19-.52-4.32-.6-6.39-.26-3.7,.43-6.8,1.81-9.29,4.13-2.5,2.32-3.74,6.02-3.74,11.1v31.49c0,.77-.28,1.46-.84,2.06-.56,.6-1.27,.9-2.13,.9Z"/><path class="cls-1" d="M499.01,249.02c-.86,0-1.59-.28-2.19-.84-.6-.56-.9-1.27-.9-2.13v-90.08c0-.86,.3-1.59,.9-2.19,.6-.6,1.33-.9,2.19-.9s1.59,.3,2.19,.9c.6,.6,.9,1.33,.9,2.19v61.82l29.17-24c.69-.52,1.44-.73,2.26-.65,.82,.09,1.53,.47,2.13,1.16,.43,.6,.62,1.31,.58,2.13-.04,.82-.41,1.53-1.1,2.13l-19.87,16.26,21.94,29.29c.6,.6,.82,1.33,.65,2.19-.17,.86-.6,1.55-1.29,2.06-.6,.52-1.33,.71-2.19,.58-.86-.13-1.55-.5-2.07-1.1l-21.68-29.17-8.52,6.97v20.39c0,.86-.3,1.57-.9,2.13-.6,.56-1.33,.84-2.19,.84Z"/><path class="cls-1" d="M224.71,400.34c-.86,0-1.61-.32-2.26-.97-.64-.65-.97-1.4-.97-2.26v-83.88c0-.86,.32-1.61,.97-2.26,.65-.64,1.4-.97,2.26-.97h45.3c.95,0,1.72,.32,2.32,.97,.6,.65,.9,1.4,.9,2.26s-.3,1.61-.9,2.26c-.6,.64-1.38,.97-2.32,.97h-42.07v34.71h34.97c.86,0,1.61,.3,2.26,.9,.65,.6,.97,1.38,.97,2.32,0,.86-.32,1.61-.97,2.26-.65,.65-1.4,.97-2.26,.97h-34.97v36.26h42.07c.95,0,1.72,.3,2.32,.9,.6,.6,.9,1.38,.9,2.32,0,.86-.3,1.61-.9,2.26-.6,.65-1.38,.97-2.32,.97h-45.3Z"/><path class="cls-1" d="M325.37,402.14c-.86,0-1.59-.28-2.19-.84-.6-.56-.9-1.27-.9-2.13v-1.03l-15.87,3.1c-3.96,.77-7.31,.99-10.07,.65-2.75-.34-5.08-1.21-6.97-2.58-1.38-1.12-2.47-2.52-3.29-4.19-.82-1.68-1.31-3.59-1.48-5.74-.52-4.99,.58-9.1,3.29-12.32,2.71-3.23,6.9-5.31,12.58-6.26l21.81-3.74v-3.61c0-1.72-.28-3.55-.84-5.48-.56-1.94-1.7-3.38-3.42-4.32-1.38-.86-3.14-1.29-5.29-1.29-5.33,0-11.92,2.41-19.75,7.23-.77,.43-1.55,.54-2.32,.32-.77-.21-1.38-.67-1.81-1.36-.52-.77-.67-1.57-.45-2.39,.21-.82,.67-1.4,1.36-1.74,5.08-3.1,9.5-5.23,13.29-6.39,3.79-1.16,7.01-1.74,9.68-1.74,1.81,0,3.38,.19,4.71,.58,1.33,.39,2.47,.84,3.42,1.35,2.49,1.38,4.39,3.38,5.68,6,1.29,2.63,1.94,5.7,1.94,9.23v35.75c0,.86-.28,1.57-.84,2.13-.56,.56-1.31,.84-2.26,.84Zm-20-7.1l16.91-3.1v-18.71l-20.65,3.48c-3.53,.6-6.09,1.59-7.68,2.97-1.59,1.38-2.56,2.86-2.9,4.45-.34,1.59-.47,3.12-.39,4.58,.26,2.67,1.07,4.52,2.45,5.55,2.06,1.55,6.15,1.81,12.26,.77Z"/><path class="cls-1" d="M343.7,402.02c-.86,0-1.59-.3-2.19-.9-.6-.6-.9-1.29-.9-2.06v-49.81c0-.86,.3-1.59,.9-2.19s1.33-.9,2.19-.9,1.57,.3,2.13,.9c.56,.6,.84,1.33,.84,2.19v3.23c1.29-1.55,3.1-2.9,5.42-4.06,2.32-1.16,4.56-1.91,6.71-2.26,3.01-.43,6.07-.19,9.16,.71,3.1,.9,5.87,2.43,8.32,4.58,2.45,2.15,4.15,4.99,5.1,8.52,.26,.77,.17,1.53-.26,2.26-.43,.73-1.03,1.23-1.81,1.48-.86,.17-1.66,.04-2.39-.39-.73-.43-1.18-1.03-1.36-1.81-.69-2.49-1.89-4.47-3.61-5.94-1.72-1.46-3.68-2.45-5.87-2.97-2.19-.52-4.32-.6-6.39-.26-3.7,.43-6.8,1.81-9.29,4.13-2.5,2.32-3.74,6.02-3.74,11.1v31.49c0,.77-.28,1.46-.84,2.06-.56,.6-1.27,.9-2.13,.9Z"/><path class="cls-1" d="M415.58,401.37c-3.53,0-6.3-1.01-8.32-3.03-2.02-2.02-3.03-4.71-3.03-8.07v-36.26h-12.39c-.86,0-1.57-.3-2.13-.9-.56-.6-.84-1.33-.84-2.19s.28-1.57,.84-2.13,1.27-.84,2.13-.84h12.39v-18.97c0-.86,.28-1.59,.84-2.19,.56-.6,1.27-.9,2.13-.9s1.59,.3,2.19,.9c.6,.6,.9,1.33,.9,2.19v18.97h16c.86,0,1.59,.28,2.19,.84,.6,.56,.9,1.27,.9,2.13s-.3,1.59-.9,2.19c-.6,.6-1.33,.9-2.19,.9h-16v36.26c0,.34,.06,.93,.19,1.74,.13,.82,.58,1.55,1.36,2.19s2.02,.97,3.74,.97h10.07c.95,0,1.72,.3,2.32,.9,.6,.6,.9,1.33,.9,2.19s-.3,1.59-.9,2.19c-.6,.6-1.38,.9-2.32,.9h-10.07Z"/><path class="cls-1" d="M446.94,402.14c-.86,0-1.59-.28-2.19-.84-.6-.56-.9-1.27-.9-2.13v-90.21c0-.86,.3-1.59,.9-2.19,.6-.6,1.33-.9,2.19-.9s1.59,.3,2.19,.9c.6,.6,.9,1.33,.9,2.19v44.14c1.98-2.24,4.34-3.98,7.1-5.23,2.75-1.25,5.72-1.87,8.9-1.87,5.94,0,10.6,1.96,14,5.87,3.4,3.92,5.1,9.18,5.1,15.81v31.36c0,.86-.28,1.57-.84,2.13-.56,.56-1.27,.84-2.13,.84s-1.59-.28-2.19-.84c-.6-.56-.9-1.27-.9-2.13v-31.36c0-1.98-.3-4.17-.9-6.58-.6-2.41-1.83-4.49-3.68-6.26-1.85-1.76-4.67-2.65-8.45-2.65-4.47,0-8.26,1.38-11.36,4.13-3.1,2.75-4.65,6.67-4.65,11.74v31.1c0,.86-.3,1.57-.9,2.13-.6,.56-1.33,.84-2.19,.84Z"/><path class="cls-1" d="M409.84,706.34c-.86,0-1.61-.32-2.26-.97s-.97-1.4-.97-2.26c0-4.82,.95-9.63,2.84-14.45,1.89-4.82,4.58-9.33,8.07-13.55,3.48-4.21,7.68-7.79,12.58-10.71,5.59-3.44,9.85-6.78,12.78-10,2.92-3.23,4.92-6.32,6-9.29,1.08-2.97,1.61-5.83,1.61-8.58,0-4.82-1.61-8.69-4.84-11.62-3.23-2.92-7.42-4.39-12.58-4.39-4.65,0-8.65,1.1-12,3.29-3.36,2.19-5.85,5.4-7.49,9.61-.34,.86-.93,1.46-1.74,1.81-.82,.35-1.61,.35-2.39,0-.86-.34-1.46-.92-1.81-1.74-.34-.82-.34-1.66,0-2.52,2.15-5.33,5.44-9.49,9.87-12.45,4.43-2.97,9.61-4.45,15.55-4.45,4.65,0,8.78,.95,12.39,2.84,3.61,1.89,6.43,4.54,8.45,7.94,2.02,3.4,3.03,7.29,3.03,11.68,0,6.11-1.83,11.92-5.48,17.42-3.66,5.51-9.66,10.8-18,15.87-5.76,3.53-10.41,8.07-13.94,13.61-3.53,5.55-5.59,11.03-6.19,16.46h41.17c.95,0,1.72,.3,2.32,.9,.6,.6,.9,1.38,.9,2.32,0,.86-.3,1.61-.9,2.26-.6,.65-1.38,.97-2.32,.97h-44.65Z"/><path class="cls-1" d="M495.53,708.02c-5.68,0-10.22-1.33-13.62-4-3.4-2.67-5.96-6.24-7.68-10.71-1.72-4.47-2.86-9.51-3.42-15.1-.56-5.59-.84-11.31-.84-17.16s.28-11.57,.84-17.16c.56-5.59,1.7-10.62,3.42-15.1,1.72-4.47,4.28-8.04,7.68-10.71,3.4-2.67,7.94-4,13.62-4s9.94,1.27,13.29,3.81c3.36,2.54,5.89,6.02,7.61,10.45,1.72,4.43,2.86,9.47,3.42,15.1,.56,5.64,.84,11.51,.84,17.62s-.28,12.11-.84,17.75c-.56,5.64-1.7,10.65-3.42,15.03-1.72,4.39-4.26,7.85-7.61,10.39-3.36,2.54-7.79,3.81-13.29,3.81Zm0-6.45c2.84,0,5.4-.54,7.68-1.61,2.28-1.08,4.24-3.05,5.87-5.94,1.63-2.88,2.9-6.97,3.81-12.26,.9-5.29,1.36-12.2,1.36-20.71s-.45-15.42-1.36-20.71c-.9-5.29-2.17-9.38-3.81-12.26-1.64-2.88-3.59-4.86-5.87-5.94-2.28-1.07-4.84-1.61-7.68-1.61-2.5,0-4.88,.45-7.16,1.36-2.28,.9-4.32,2.71-6.13,5.42s-3.23,6.78-4.26,12.2c-1.03,5.42-1.55,12.61-1.55,21.55s.52,16.24,1.55,21.62c1.03,5.38,2.45,9.42,4.26,12.13,1.81,2.71,3.85,4.52,6.13,5.42,2.28,.9,4.67,1.35,7.16,1.35Z"/><path class="cls-1" d="M540.57,706.34c-.86,0-1.61-.32-2.26-.97s-.97-1.4-.97-2.26c0-.95,.32-1.72,.97-2.32,.65-.6,1.4-.9,2.26-.9h14.97v-77.82l-15.87,5.81c-.86,.26-1.7,.22-2.52-.13-.82-.34-1.4-.95-1.74-1.81-.26-.95-.22-1.81,.13-2.58,.34-.77,.95-1.29,1.81-1.55l20.26-7.49c1.03-.43,2.07-.3,3.1,.39,.86,.69,1.29,1.59,1.29,2.71v82.46h14.45c.95,0,1.72,.3,2.32,.9,.6,.6,.9,1.38,.9,2.32,0,.86-.3,1.61-.9,2.26-.6,.65-1.38,.97-2.32,.97h-35.88Z"/><path class="cls-1" d="M596.19,709.31c-.86,.17-1.66,.02-2.39-.45-.73-.47-1.18-1.14-1.35-2-.26-.86-.15-1.68,.32-2.45,.47-.77,1.18-1.2,2.13-1.29,5.94-1.38,11.66-3.96,17.16-7.74,5.5-3.78,10.39-8.34,14.65-13.68,4.26-5.33,7.63-11.08,10.13-17.23,2.5-6.15,3.74-12.24,3.74-18.26,0-8-1.87-14.26-5.61-18.78-3.74-4.52-8.93-6.77-15.55-6.77-6.02,0-10.84,1.68-14.45,5.03-3.61,3.36-5.42,7.83-5.42,13.42,0,4.9,2.32,8.73,6.97,11.49,3.01,1.81,6.39,2.67,10.13,2.58,3.74-.08,7.38-1.07,10.91-2.97,.77-.43,1.59-.52,2.45-.26,.86,.26,1.46,.82,1.81,1.68,.43,.77,.54,1.59,.32,2.45-.22,.86-.71,1.51-1.48,1.94-4.47,2.41-9.16,3.61-14.07,3.61s-9.38-1.16-13.42-3.48c-3.18-1.89-5.66-4.34-7.42-7.36-1.76-3.01-2.65-6.24-2.65-9.68,0-4.99,1.1-9.36,3.29-13.1,2.19-3.74,5.27-6.65,9.23-8.71,3.96-2.07,8.56-3.1,13.81-3.1,5.59,0,10.45,1.31,14.58,3.94,4.13,2.62,7.33,6.32,9.61,11.1,2.28,4.78,3.42,10.43,3.42,16.97s-1.35,13.62-4.07,20.46c-2.71,6.84-6.43,13.19-11.16,19.04-4.73,5.85-10.15,10.86-16.26,15.03-6.11,4.17-12.56,7.03-19.36,8.58Z"/><path class="cls-1" d="M509.98,859.34c-.86,0-1.61-.32-2.26-.97s-.97-1.4-.97-2.26c0-.95,.32-1.72,.97-2.32,.65-.6,1.4-.9,2.26-.9h14.97v-77.82l-15.87,5.81c-.86,.26-1.7,.22-2.52-.13-.82-.34-1.4-.95-1.74-1.81-.26-.95-.22-1.81,.13-2.58,.34-.77,.95-1.29,1.81-1.55l20.26-7.49c1.03-.43,2.07-.3,3.1,.39,.86,.69,1.29,1.59,1.29,2.71v82.46h14.45c.95,0,1.72,.3,2.32,.9,.6,.6,.9,1.38,.9,2.32,0,.86-.3,1.61-.9,2.26-.6,.65-1.38,.97-2.32,.97h-35.88Z"/><path class="cls-1" d="M569.48,859.34c-.86,0-1.61-.32-2.26-.97s-.97-1.4-.97-2.26c0-.95,.32-1.72,.97-2.32,.65-.6,1.4-.9,2.26-.9h14.97v-77.82l-15.87,5.81c-.86,.26-1.7,.22-2.52-.13-.82-.34-1.4-.95-1.74-1.81-.26-.95-.22-1.81,.13-2.58,.34-.77,.95-1.29,1.81-1.55l20.26-7.49c1.03-.43,2.07-.3,3.1,.39,.86,.69,1.29,1.59,1.29,2.71v82.46h14.45c.95,0,1.72,.3,2.32,.9,.6,.6,.9,1.38,.9,2.32,0,.86-.3,1.61-.9,2.26-.6,.65-1.38,.97-2.32,.97h-35.88Z"/><path class="cls-1" d="M633.1,821.27c-2.15,0-3.87-.79-5.16-2.39-1.29-1.59-1.94-3.46-1.94-5.61s.65-4.15,1.94-5.74c1.29-1.59,3.01-2.39,5.16-2.39s3.98,.8,5.23,2.39c1.25,1.59,1.87,3.51,1.87,5.74s-.62,4.02-1.87,5.61c-1.25,1.59-2.99,2.39-5.23,2.39Zm0,39.75c-2.15,0-3.87-.8-5.16-2.39-1.29-1.59-1.94-3.46-1.94-5.61s.65-4.13,1.94-5.68c1.29-1.55,3.01-2.32,5.16-2.32s3.98,.77,5.23,2.32c1.25,1.55,1.87,3.44,1.87,5.68s-.62,4.02-1.87,5.61c-1.25,1.59-2.99,2.39-5.23,2.39Z"/><path class="cls-1" d="M659.17,859.34c-.86,0-1.61-.32-2.26-.97s-.97-1.4-.97-2.26c0-4.82,.95-9.63,2.84-14.45,1.89-4.82,4.58-9.33,8.07-13.55,3.48-4.21,7.68-7.79,12.58-10.71,5.59-3.44,9.85-6.78,12.78-10,2.92-3.23,4.92-6.32,6-9.29,1.08-2.97,1.61-5.83,1.61-8.58,0-4.82-1.61-8.69-4.84-11.62-3.23-2.92-7.42-4.39-12.58-4.39-4.65,0-8.65,1.1-12,3.29-3.36,2.19-5.85,5.4-7.49,9.61-.34,.86-.93,1.46-1.74,1.81-.82,.35-1.61,.35-2.39,0-.86-.34-1.46-.92-1.81-1.74-.34-.82-.34-1.66,0-2.52,2.15-5.33,5.44-9.49,9.87-12.45,4.43-2.97,9.61-4.45,15.55-4.45,4.65,0,8.78,.95,12.39,2.84,3.61,1.89,6.43,4.54,8.45,7.94,2.02,3.4,3.03,7.29,3.03,11.68,0,6.11-1.83,11.92-5.48,17.42-3.66,5.51-9.66,10.8-18,15.87-5.76,3.53-10.41,8.07-13.94,13.61-3.53,5.55-5.59,11.03-6.19,16.46h41.17c.95,0,1.72,.3,2.32,.9,.6,.6,.9,1.38,.9,2.32,0,.86-.3,1.61-.9,2.26-.6,.65-1.38,.97-2.32,.97h-44.65Z"/><path class="cls-1" d="M720.72,862.31c-.86,.17-1.66,.02-2.39-.45-.73-.47-1.18-1.14-1.35-2-.26-.86-.15-1.68,.32-2.45,.47-.77,1.18-1.2,2.13-1.29,5.94-1.38,11.66-3.96,17.16-7.74,5.5-3.78,10.39-8.34,14.65-13.68,4.26-5.33,7.63-11.08,10.13-17.23,2.5-6.15,3.74-12.24,3.74-18.26,0-8-1.87-14.26-5.61-18.78-3.74-4.52-8.93-6.77-15.55-6.77-6.02,0-10.84,1.68-14.45,5.03-3.61,3.36-5.42,7.83-5.42,13.42,0,4.9,2.32,8.73,6.97,11.49,3.01,1.81,6.39,2.67,10.13,2.58,3.74-.08,7.38-1.07,10.91-2.97,.77-.43,1.59-.52,2.45-.26,.86,.26,1.46,.82,1.81,1.68,.43,.77,.54,1.59,.32,2.45-.22,.86-.71,1.51-1.48,1.94-4.47,2.41-9.16,3.61-14.07,3.61s-9.38-1.16-13.42-3.48c-3.18-1.89-5.66-4.34-7.42-7.36-1.76-3.01-2.65-6.24-2.65-9.68,0-4.99,1.1-9.36,3.29-13.1,2.19-3.74,5.27-6.65,9.23-8.71,3.96-2.07,8.56-3.1,13.81-3.1,5.59,0,10.45,1.31,14.58,3.94,4.13,2.62,7.33,6.32,9.61,11.1,2.28,4.78,3.42,10.43,3.42,16.97s-1.35,13.62-4.07,20.46c-2.71,6.84-6.43,13.19-11.16,19.04-4.73,5.85-10.15,10.86-16.26,15.03-6.11,4.17-12.56,7.03-19.36,8.58Z"/><path class="cls-1" d="M789.25,888.12c-.86,0-1.57-.3-2.13-.9-.56-.6-.84-1.33-.84-2.19v-76.92c0-.86,.28-1.59,.84-2.19,.56-.6,1.27-.9,2.13-.9s1.59,.3,2.19,.9c.6,.6,.9,1.33,.9,2.19v4.77c1.89-2.41,4.19-4.32,6.9-5.74,2.71-1.42,5.87-2.13,9.49-2.13,7.31,0,13.08,2.5,17.29,7.49,4.21,4.99,6.32,11.83,6.32,20.52s-2.11,15.42-6.32,20.46c-4.22,5.03-9.98,7.55-17.29,7.55-3.61,0-6.78-.69-9.49-2.06-2.71-1.38-5.01-3.27-6.9-5.68v31.75c0,.86-.3,1.59-.9,2.19-.6,.6-1.33,.9-2.19,.9Zm19.49-33.29c5.59,0,9.91-1.89,12.97-5.68,3.05-3.79,4.58-9.16,4.58-16.13s-1.53-12.21-4.58-16c-3.06-3.79-7.38-5.68-12.97-5.68-11.01,0-16.52,7.23-16.52,21.68s5.5,21.81,16.52,21.81Z"/><path class="cls-1" d="M848.74,861.14c-.86,0-1.57-.3-2.13-.9-.56-.6-.84-1.29-.84-2.06v-49.94c0-.77,.28-1.48,.84-2.13,.56-.65,1.27-.97,2.13-.97s1.59,.32,2.19,.97c.6,.65,.9,1.36,.9,2.13v3.48c1.89-1.98,4.08-3.57,6.58-4.78,2.49-1.2,5.16-1.81,8-1.81,3.53,0,6.62,.84,9.29,2.52,2.67,1.68,4.73,4.02,6.19,7.03,1.81-2.84,4.17-5.14,7.1-6.9,2.92-1.76,6.19-2.65,9.81-2.65,5.5,0,9.87,1.98,13.1,5.94,3.23,3.96,4.84,9.25,4.84,15.87v31.1c0,.77-.28,1.46-.84,2.06-.56,.6-1.27,.9-2.13,.9s-1.59-.3-2.19-.9-.9-1.29-.9-2.06v-31.1c0-1.2-.13-2.67-.39-4.39-.26-1.72-.77-3.44-1.55-5.16-.77-1.72-1.96-3.16-3.55-4.32-1.59-1.16-3.72-1.74-6.39-1.74-4.22,0-7.66,1.48-10.32,4.45-2.67,2.97-4,6.69-4,11.16v31.1c0,.77-.28,1.46-.84,2.06-.56,.6-1.27,.9-2.13,.9s-1.61-.3-2.26-.9c-.64-.6-.97-1.29-.97-2.06v-30.84c0-2.75-.41-5.33-1.23-7.74-.82-2.41-2.09-4.37-3.81-5.87-1.72-1.5-4-2.26-6.84-2.26-3.87,0-7.27,1.18-10.2,3.55-2.93,2.37-4.39,5.44-4.39,9.23v34.07c0,.77-.3,1.46-.9,2.06-.6,.6-1.33,.9-2.19,.9Z"/></g></g></svg>