<?xml version="1.0" encoding="UTF-8"?><svg id="Layer_2" xmlns="http://www.w3.org/2000/svg" viewBox="0 0 1666.82 252.17"><defs><style>.cls-1{fill:#fff;}</style></defs><g id="car"><g><path class="cls-1" d="M2.07,95.5c-.86-.26-1.46-.8-1.81-1.61-.34-.82-.34-1.66,0-2.52L32.65,4c.6-1.38,1.63-2.06,3.1-2.06s2.49,.69,3.1,2.06l32.52,87.37c.34,.86,.32,1.7-.07,2.52-.39,.82-1.01,1.36-1.87,1.61-.77,.34-1.57,.32-2.39-.06-.82-.39-1.4-1.01-1.74-1.87L35.75,14.45,17.81,62.33h24.39c.86,0,1.59,.32,2.19,.97,.6,.65,.9,1.44,.9,2.39,0,.86-.3,1.59-.9,2.19-.6,.6-1.33,.9-2.19,.9H15.36l-9.16,24.78c-.34,.86-.9,1.48-1.68,1.87-.77,.39-1.59,.41-2.45,.06Z"/><path class="cls-1" d="M138.21,96.14c-4.9,0-9.23-1.08-12.97-3.23-3.74-2.15-6.39-5.03-7.94-8.65-.34-.77-.34-1.55,0-2.32,.34-.77,.9-1.33,1.68-1.68,.77-.34,1.55-.34,2.32,0,.77,.34,1.33,.9,1.68,1.68,1.12,2.5,3.03,4.45,5.74,5.87,2.71,1.42,5.87,2.13,9.49,2.13s6.58-.37,8.65-1.1c2.07-.73,3.55-1.63,4.45-2.71,.9-1.07,1.46-2.15,1.68-3.23,.21-1.08,.32-1.91,.32-2.52,0-1.29-.3-2.54-.9-3.74-.6-1.2-1.89-2.34-3.87-3.42-1.98-1.07-5.03-2.04-9.16-2.9-2.93-.6-5.96-1.46-9.1-2.58-3.14-1.12-5.79-2.69-7.94-4.71-2.15-2.02-3.23-4.67-3.23-7.94,.08-4.39,1.94-7.98,5.55-10.78,3.61-2.79,8.3-4.19,14.07-4.19,4.3,0,8.19,.93,11.68,2.77,3.49,1.85,6.04,4.37,7.68,7.55,.43,.69,.52,1.44,.26,2.26-.26,.82-.73,1.44-1.42,1.87-.86,.34-1.68,.41-2.45,.19-.77-.21-1.33-.71-1.68-1.48-.95-1.72-2.58-3.29-4.9-4.71-2.32-1.42-5.38-2.13-9.16-2.13-2.15,0-4.26,.28-6.32,.84-2.07,.56-3.76,1.46-5.1,2.71-1.33,1.25-2.04,2.99-2.13,5.23,0,.52,.21,1.31,.65,2.39,.43,1.08,1.72,2.22,3.87,3.42,2.15,1.21,5.76,2.32,10.84,3.36,3.01,.6,5.96,1.48,8.84,2.65,2.88,1.16,5.29,2.8,7.23,4.9,1.94,2.11,2.86,4.93,2.77,8.45,0,1.46-.26,3.1-.77,4.9s-1.51,3.53-2.97,5.16c-1.46,1.64-3.59,2.99-6.39,4.07-2.8,1.08-6.47,1.61-11.03,1.61Z"/><path class="cls-1" d="M195.25,96.14c-7.31,0-13.08-2.52-17.29-7.55-4.22-5.03-6.32-11.85-6.32-20.46s2.11-15.53,6.32-20.52c4.21-4.99,9.98-7.49,17.29-7.49s12.97,2.5,17.23,7.49c4.26,4.99,6.39,11.83,6.39,20.52s-2.13,15.42-6.39,20.46c-4.26,5.03-10,7.55-17.23,7.55Zm0-6.19c5.59,0,9.89-1.89,12.91-5.68,3.01-3.79,4.52-9.16,4.52-16.13s-1.51-12.21-4.52-16c-3.01-3.79-7.31-5.68-12.91-5.68s-9.81,1.89-12.9,5.68c-3.1,3.79-4.65,9.12-4.65,16s1.55,12.35,4.65,16.13c3.1,3.79,7.4,5.68,12.9,5.68Z"/><path class="cls-1" d="M253.33,96.14c-7.31,0-13.08-2.52-17.29-7.55-4.22-5.03-6.32-11.85-6.32-20.46s2.11-15.53,6.32-20.52c4.21-4.99,9.98-7.49,17.29-7.49s12.82,2.45,17.04,7.36c.6,.6,.88,1.33,.84,2.19-.04,.86-.41,1.59-1.1,2.19-.6,.52-1.33,.75-2.19,.71-.86-.04-1.59-.36-2.19-.97-2.93-3.44-7.06-5.16-12.39-5.16s-9.81,1.89-12.91,5.68c-3.1,3.79-4.65,9.12-4.65,16s1.55,12.35,4.65,16.13c3.1,3.79,7.4,5.68,12.91,5.68s9.55-1.68,12.39-5.03c.6-.69,1.33-1.08,2.19-1.16,.86-.08,1.59,.17,2.19,.77,.69,.52,1.05,1.21,1.1,2.07,.04,.86-.24,1.63-.84,2.32-4.3,4.82-9.98,7.23-17.04,7.23Z"/><path class="cls-1" d="M298.75,96.27c-.86,0-1.57-.28-2.13-.84s-.84-1.27-.84-2.13V48.27h-14.84c-.86,0-1.59-.32-2.19-.97-.6-.65-.9-1.4-.9-2.26s.3-1.57,.9-2.13c.6-.56,1.33-.84,2.19-.84h17.81c.95,0,1.72,.28,2.32,.84,.6,.56,.9,1.27,.9,2.13v48.27c0,.86-.3,1.57-.9,2.13-.6,.56-1.38,.84-2.32,.84Zm-1.55-77.56c-1.21,0-2.19-.34-2.97-1.03-.77-.69-1.16-1.46-1.16-2.32V7.36c0-.86,.39-1.66,1.16-2.39,.77-.73,1.76-1.1,2.97-1.1s2.17,.37,2.9,1.1c.73,.73,1.1,1.53,1.1,2.39V15.36c0,.86-.37,1.64-1.1,2.32-.73,.69-1.7,1.03-2.9,1.03Z"/><path class="cls-1" d="M341.34,96.14c-7.31,0-13.08-2.52-17.29-7.55-4.22-5.03-6.32-11.85-6.32-20.46s2.11-15.53,6.32-20.52c4.21-4.99,9.98-7.49,17.29-7.49,6.37,0,11.72,2.19,16.07,6.58,4.34,4.39,6.69,10.32,7.03,17.81v.39c0,.77-.3,1.46-.9,2.06-.52,.6-1.25,.9-2.19,.9h-37.43c0,6.63,1.4,11.96,4.19,16,2.79,4.04,7.21,6.07,13.23,6.07,3.1,0,6-.67,8.71-2,2.71-1.33,4.79-3.07,6.26-5.23,.52-.69,1.18-1.12,2-1.29,.82-.17,1.57,0,2.26,.52,.69,.43,1.12,1.08,1.29,1.94,.17,.86,0,1.63-.52,2.32-2.07,3.01-4.88,5.42-8.45,7.23-3.57,1.81-7.42,2.71-11.55,2.71Zm-17.03-34.33h33.42c-.86-4.9-2.73-8.69-5.61-11.36-2.88-2.67-6.47-4-10.78-4-4.65,0-8.41,1.33-11.29,4-2.88,2.67-4.8,6.45-5.74,11.36Z"/><path class="cls-1" d="M400.96,95.5c-3.53,0-6.3-1.01-8.32-3.03-2.02-2.02-3.03-4.71-3.03-8.07V48.14h-12.39c-.86,0-1.57-.3-2.13-.9-.56-.6-.84-1.33-.84-2.19s.28-1.57,.84-2.13,1.27-.84,2.13-.84h12.39V23.1c0-.86,.28-1.59,.84-2.19,.56-.6,1.27-.9,2.13-.9s1.59,.3,2.19,.9c.6,.6,.9,1.33,.9,2.19v18.97h16c.86,0,1.59,.28,2.19,.84,.6,.56,.9,1.27,.9,2.13s-.3,1.59-.9,2.19c-.6,.6-1.33,.9-2.19,.9h-16v36.26c0,.34,.06,.93,.19,1.74,.13,.82,.58,1.55,1.36,2.19s2.02,.97,3.74,.97h10.07c.95,0,1.72,.3,2.32,.9,.6,.6,.9,1.33,.9,2.19s-.3,1.59-.9,2.19c-.6,.6-1.38,.9-2.32,.9h-10.07Z"/><path class="cls-1" d="M436.96,123.12c-.86-.34-1.46-.9-1.81-1.68-.34-.77-.34-1.55,0-2.32l9.55-24.26-20.26-50.46c-.34-.77-.34-1.55,0-2.32,.34-.77,.9-1.33,1.68-1.68,.77-.26,1.55-.24,2.32,.06,.77,.3,1.33,.88,1.68,1.74l17.94,44.39,17.55-44.39c.34-.86,.88-1.44,1.61-1.74,.73-.3,1.53-.32,2.39-.06,.77,.34,1.33,.9,1.68,1.68,.34,.77,.34,1.55,0,2.32l-30.46,77.04c-.34,.77-.88,1.31-1.61,1.61-.73,.3-1.48,.32-2.26,.06Z"/><path class="cls-1" d="M540.72,96.14c-7.31,0-13.08-2.52-17.29-7.55-4.22-5.03-6.32-11.85-6.32-20.46s2.11-15.53,6.32-20.52c4.21-4.99,9.98-7.49,17.29-7.49s12.97,2.5,17.23,7.49c4.26,4.99,6.39,11.83,6.39,20.52s-2.13,15.42-6.39,20.46c-4.26,5.03-10,7.55-17.23,7.55Zm0-6.19c5.59,0,9.89-1.89,12.91-5.68,3.01-3.79,4.52-9.16,4.52-16.13s-1.51-12.21-4.52-16c-3.01-3.79-7.31-5.68-12.91-5.68s-9.81,1.89-12.91,5.68c-3.1,3.79-4.65,9.12-4.65,16s1.55,12.35,4.65,16.13c3.1,3.79,7.4,5.68,12.91,5.68Z"/><path class="cls-1" d="M585.89,96.27c-.86,0-1.59-.28-2.19-.84-.6-.56-.9-1.27-.9-2.13V48.27h-9.29c-.86,0-1.59-.32-2.19-.97-.6-.65-.9-1.35-.9-2.13,0-.86,.3-1.59,.9-2.19,.6-.6,1.33-.9,2.19-.9h9.29V23.1c0-12.65,6.41-18.97,19.23-18.97h7.61c.86,0,1.57,.3,2.13,.9,.56,.6,.84,1.33,.84,2.19s-.28,1.59-.84,2.19c-.56,.6-1.27,.9-2.13,.9h-7.61c-4.56,0-7.89,1.01-10,3.03-2.11,2.02-3.16,5.27-3.16,9.74v18.97h20.91c.86,0,1.59,.3,2.19,.9,.6,.6,.9,1.33,.9,2.19,0,.77-.3,1.48-.9,2.13-.6,.65-1.33,.97-2.19,.97h-20.91v45.04c0,.86-.28,1.57-.84,2.13-.56,.56-1.27,.84-2.13,.84Z"/><path class="cls-1" d="M660.74,96.14c-.86,0-1.59-.3-2.19-.9-.6-.6-.9-1.29-.9-2.06V43.36c0-.86,.3-1.59,.9-2.19s1.33-.9,2.19-.9,1.57,.3,2.13,.9c.56,.6,.84,1.33,.84,2.19v3.23c1.29-1.55,3.1-2.9,5.42-4.06,2.32-1.16,4.56-1.91,6.71-2.26,3.01-.43,6.07-.19,9.16,.71,3.1,.9,5.87,2.43,8.32,4.58,2.45,2.15,4.15,4.99,5.1,8.52,.26,.77,.17,1.53-.26,2.26-.43,.73-1.03,1.23-1.81,1.48-.86,.17-1.66,.04-2.39-.39-.73-.43-1.18-1.03-1.36-1.81-.69-2.49-1.89-4.47-3.61-5.94-1.72-1.46-3.68-2.45-5.87-2.97-2.19-.52-4.32-.6-6.39-.26-3.7,.43-6.8,1.81-9.29,4.13-2.5,2.32-3.74,6.02-3.74,11.1v31.49c0,.77-.28,1.46-.84,2.06-.56,.6-1.27,.9-2.13,.9Z"/><path class="cls-1" d="M733.01,96.14c-7.31,0-13.08-2.52-17.29-7.55-4.22-5.03-6.32-11.85-6.32-20.46s2.11-15.53,6.32-20.52c4.21-4.99,9.98-7.49,17.29-7.49,6.37,0,11.72,2.19,16.07,6.58,4.34,4.39,6.69,10.32,7.03,17.81v.39c0,.77-.3,1.46-.9,2.06-.52,.6-1.25,.9-2.19,.9h-37.43c0,6.63,1.4,11.96,4.19,16,2.79,4.04,7.21,6.07,13.23,6.07,3.1,0,6-.67,8.71-2,2.71-1.33,4.79-3.07,6.26-5.23,.52-.69,1.18-1.12,2-1.29,.82-.17,1.57,0,2.26,.52,.69,.43,1.12,1.08,1.29,1.94,.17,.86,0,1.63-.52,2.32-2.07,3.01-4.88,5.42-8.45,7.23-3.57,1.81-7.42,2.71-11.55,2.71Zm-17.03-34.33h33.42c-.86-4.9-2.73-8.69-5.61-11.36-2.88-2.67-6.47-4-10.78-4-4.65,0-8.41,1.33-11.29,4-2.88,2.67-4.8,6.45-5.74,11.36Z"/><path class="cls-1" d="M810.69,96.27c-.86,0-1.59-.28-2.19-.84-.6-.56-.9-1.27-.9-2.13v-1.03l-15.87,3.1c-3.96,.77-7.31,.99-10.07,.65-2.75-.34-5.08-1.21-6.97-2.58-1.38-1.12-2.47-2.52-3.29-4.19-.82-1.68-1.31-3.59-1.48-5.74-.52-4.99,.58-9.1,3.29-12.32,2.71-3.23,6.9-5.31,12.58-6.26l21.81-3.74v-3.61c0-1.72-.28-3.55-.84-5.48-.56-1.94-1.7-3.38-3.42-4.32-1.38-.86-3.14-1.29-5.29-1.29-5.33,0-11.92,2.41-19.75,7.23-.77,.43-1.55,.54-2.32,.32-.77-.21-1.38-.67-1.81-1.36-.52-.77-.67-1.57-.45-2.39,.21-.82,.67-1.4,1.36-1.74,5.08-3.1,9.5-5.23,13.29-6.39,3.79-1.16,7.01-1.74,9.68-1.74,1.81,0,3.38,.19,4.71,.58,1.33,.39,2.47,.84,3.42,1.35,2.49,1.38,4.39,3.38,5.68,6,1.29,2.63,1.94,5.7,1.94,9.23v35.75c0,.86-.28,1.57-.84,2.13-.56,.56-1.31,.84-2.26,.84Zm-20-7.1l16.91-3.1v-18.71l-20.65,3.48c-3.53,.6-6.09,1.59-7.68,2.97-1.59,1.38-2.56,2.86-2.9,4.45-.34,1.59-.47,3.12-.39,4.58,.26,2.67,1.07,4.52,2.45,5.55,2.06,1.55,6.15,1.81,12.26,.77Z"/><path class="cls-1" d="M831.47,123.25c-.86,0-1.57-.3-2.13-.9-.56-.6-.84-1.33-.84-2.19V43.23c0-.86,.28-1.59,.84-2.19,.56-.6,1.27-.9,2.13-.9s1.59,.3,2.19,.9c.6,.6,.9,1.33,.9,2.19v4.77c1.89-2.41,4.19-4.32,6.9-5.74,2.71-1.42,5.87-2.13,9.49-2.13,7.31,0,13.08,2.5,17.29,7.49,4.21,4.99,6.32,11.83,6.32,20.52s-2.11,15.42-6.32,20.46c-4.22,5.03-9.98,7.55-17.29,7.55-3.61,0-6.78-.69-9.49-2.06-2.71-1.38-5.01-3.27-6.9-5.68v31.75c0,.86-.3,1.59-.9,2.19-.6,.6-1.33,.9-2.19,.9Zm19.49-33.29c5.59,0,9.91-1.89,12.97-5.68,3.05-3.79,4.58-9.16,4.58-16.13s-1.53-12.21-4.58-16c-3.06-3.79-7.38-5.68-12.97-5.68-11.01,0-16.52,7.23-16.52,21.68s5.5,21.81,16.52,21.81Z"/><path class="cls-1" d="M909.03,96.14c-7.31,0-13.08-2.52-17.29-7.55-4.22-5.03-6.32-11.85-6.32-20.46s2.11-15.53,6.32-20.52c4.21-4.99,9.98-7.49,17.29-7.49,6.37,0,11.72,2.19,16.07,6.58,4.34,4.39,6.69,10.32,7.03,17.81v.39c0,.77-.3,1.46-.9,2.06-.52,.6-1.25,.9-2.19,.9h-37.43c0,6.63,1.4,11.96,4.19,16,2.79,4.04,7.21,6.07,13.23,6.07,3.1,0,6-.67,8.71-2,2.71-1.33,4.79-3.07,6.26-5.23,.52-.69,1.18-1.12,2-1.29,.82-.17,1.57,0,2.26,.52,.69,.43,1.12,1.08,1.29,1.94,.17,.86,0,1.63-.52,2.32-2.07,3.01-4.88,5.42-8.45,7.23-3.57,1.81-7.42,2.71-11.55,2.71Zm-17.03-34.33h33.42c-.86-4.9-2.73-8.69-5.61-11.36-2.88-2.67-6.47-4-10.78-4-4.65,0-8.41,1.33-11.29,4-2.88,2.67-4.8,6.45-5.74,11.36Z"/><path class="cls-1" d="M949.81,96.14c-.86,0-1.59-.3-2.19-.9-.6-.6-.9-1.29-.9-2.06V43.36c0-.86,.3-1.59,.9-2.19s1.33-.9,2.19-.9,1.57,.3,2.13,.9c.56,.6,.84,1.33,.84,2.19v3.23c1.29-1.55,3.1-2.9,5.42-4.06,2.32-1.16,4.56-1.91,6.71-2.26,3.01-.43,6.07-.19,9.16,.71,3.1,.9,5.87,2.43,8.32,4.58,2.45,2.15,4.15,4.99,5.1,8.52,.26,.77,.17,1.53-.26,2.26-.43,.73-1.03,1.23-1.81,1.48-.86,.17-1.66,.04-2.39-.39-.73-.43-1.18-1.03-1.36-1.81-.69-2.49-1.89-4.47-3.61-5.94-1.72-1.46-3.68-2.45-5.87-2.97-2.19-.52-4.32-.6-6.39-.26-3.7,.43-6.8,1.81-9.29,4.13-2.5,2.32-3.74,6.02-3.74,11.1v31.49c0,.77-.28,1.46-.84,2.06-.56,.6-1.27,.9-2.13,.9Z"/><path class="cls-1" d="M1019.37,96.14c-4.9,0-9.23-1.08-12.97-3.23-3.74-2.15-6.39-5.03-7.94-8.65-.34-.77-.34-1.55,0-2.32,.34-.77,.9-1.33,1.68-1.68,.77-.34,1.55-.34,2.32,0,.77,.34,1.33,.9,1.68,1.68,1.12,2.5,3.03,4.45,5.74,5.87,2.71,1.42,5.87,2.13,9.49,2.13s6.58-.37,8.65-1.1c2.07-.73,3.55-1.63,4.45-2.71,.9-1.07,1.46-2.15,1.68-3.23,.21-1.08,.32-1.91,.32-2.52,0-1.29-.3-2.54-.9-3.74-.6-1.2-1.89-2.34-3.87-3.42-1.98-1.07-5.03-2.04-9.16-2.9-2.93-.6-5.96-1.46-9.1-2.58-3.14-1.12-5.79-2.69-7.94-4.71-2.15-2.02-3.23-4.67-3.23-7.94,.08-4.39,1.94-7.98,5.55-10.78,3.61-2.79,8.3-4.19,14.07-4.19,4.3,0,8.19,.93,11.68,2.77,3.49,1.85,6.04,4.37,7.68,7.55,.43,.69,.52,1.44,.26,2.26-.26,.82-.73,1.44-1.42,1.87-.86,.34-1.68,.41-2.45,.19-.77-.21-1.33-.71-1.68-1.48-.95-1.72-2.58-3.29-4.9-4.71-2.32-1.42-5.38-2.13-9.16-2.13-2.15,0-4.26,.28-6.32,.84-2.07,.56-3.76,1.46-5.1,2.71-1.33,1.25-2.04,2.99-2.13,5.23,0,.52,.21,1.31,.65,2.39,.43,1.08,1.72,2.22,3.87,3.42,2.15,1.21,5.76,2.32,10.84,3.36,3.01,.6,5.96,1.48,8.84,2.65,2.88,1.16,5.29,2.8,7.23,4.9,1.94,2.11,2.86,4.93,2.77,8.45,0,1.46-.26,3.1-.77,4.9s-1.51,3.53-2.97,5.16c-1.46,1.64-3.59,2.99-6.39,4.07-2.8,1.08-6.47,1.61-11.03,1.61Z"/><path class="cls-1" d="M1092.03,96.14c-.86,0-1.59-.3-2.19-.9-.6-.6-.9-1.29-.9-2.06V43.36c0-.86,.3-1.59,.9-2.19s1.33-.9,2.19-.9,1.57,.3,2.13,.9c.56,.6,.84,1.33,.84,2.19v3.23c1.29-1.55,3.1-2.9,5.42-4.06,2.32-1.16,4.56-1.91,6.71-2.26,3.01-.43,6.07-.19,9.16,.71,3.1,.9,5.87,2.43,8.32,4.58,2.45,2.15,4.15,4.99,5.1,8.52,.26,.77,.17,1.53-.26,2.26-.43,.73-1.03,1.23-1.81,1.48-.86,.17-1.66,.04-2.39-.39-.73-.43-1.18-1.03-1.36-1.81-.69-2.49-1.89-4.47-3.61-5.94-1.72-1.46-3.68-2.45-5.87-2.97-2.19-.52-4.32-.6-6.39-.26-3.7,.43-6.8,1.81-9.29,4.13-2.5,2.32-3.74,6.02-3.74,11.1v31.49c0,.77-.28,1.46-.84,2.06-.56,.6-1.27,.9-2.13,.9Z"/><path class="cls-1" d="M1164.29,96.14c-7.31,0-13.08-2.52-17.29-7.55-4.22-5.03-6.32-11.85-6.32-20.46s2.11-15.53,6.32-20.52c4.21-4.99,9.98-7.49,17.29-7.49,6.37,0,11.72,2.19,16.07,6.58,4.34,4.39,6.69,10.32,7.03,17.81v.39c0,.77-.3,1.46-.9,2.06-.52,.6-1.25,.9-2.19,.9h-37.43c0,6.63,1.4,11.96,4.19,16,2.79,4.04,7.21,6.07,13.23,6.07,3.1,0,6-.67,8.71-2,2.71-1.33,4.79-3.07,6.26-5.23,.52-.69,1.18-1.12,2-1.29,.82-.17,1.57,0,2.26,.52,.69,.43,1.12,1.08,1.29,1.94,.17,.86,0,1.63-.52,2.32-2.07,3.01-4.88,5.42-8.45,7.23-3.57,1.81-7.42,2.71-11.55,2.71Zm-17.03-34.33h33.42c-.86-4.9-2.73-8.69-5.61-11.36-2.88-2.67-6.47-4-10.78-4-4.65,0-8.41,1.33-11.29,4-2.88,2.67-4.8,6.45-5.74,11.36Z"/><path class="cls-1" d="M1221.59,96.14c-4.9,0-9.23-1.08-12.97-3.23-3.74-2.15-6.39-5.03-7.94-8.65-.34-.77-.34-1.55,0-2.32,.34-.77,.9-1.33,1.68-1.68,.77-.34,1.55-.34,2.32,0,.77,.34,1.33,.9,1.68,1.68,1.12,2.5,3.03,4.45,5.74,5.87,2.71,1.42,5.87,2.13,9.49,2.13s6.58-.37,8.65-1.1c2.07-.73,3.55-1.63,4.45-2.71,.9-1.07,1.46-2.15,1.68-3.23,.21-1.08,.32-1.91,.32-2.52,0-1.29-.3-2.54-.9-3.74-.6-1.2-1.89-2.34-3.87-3.42-1.98-1.07-5.03-2.04-9.16-2.9-2.93-.6-5.96-1.46-9.1-2.58-3.14-1.12-5.79-2.69-7.94-4.71-2.15-2.02-3.23-4.67-3.23-7.94,.08-4.39,1.94-7.98,5.55-10.78,3.61-2.79,8.3-4.19,14.07-4.19,4.3,0,8.19,.93,11.68,2.77,3.49,1.85,6.04,4.37,7.68,7.55,.43,.69,.52,1.44,.26,2.26-.26,.82-.73,1.44-1.42,1.87-.86,.34-1.68,.41-2.45,.19-.77-.21-1.33-.71-1.68-1.48-.95-1.72-2.58-3.29-4.9-4.71-2.32-1.42-5.38-2.13-9.16-2.13-2.15,0-4.26,.28-6.32,.84-2.07,.56-3.76,1.46-5.1,2.71-1.33,1.25-2.04,2.99-2.13,5.23,0,.52,.21,1.31,.65,2.39,.43,1.08,1.72,2.22,3.87,3.42,2.15,1.21,5.76,2.32,10.84,3.36,3.01,.6,5.96,1.48,8.84,2.65,2.88,1.16,5.29,2.8,7.23,4.9,1.94,2.11,2.86,4.93,2.77,8.45,0,1.46-.26,3.1-.77,4.9s-1.51,3.53-2.97,5.16c-1.46,1.64-3.59,2.99-6.39,4.07-2.8,1.08-6.47,1.61-11.03,1.61Z"/><path class="cls-1" d="M1272.44,96.27c-.86,0-1.57-.28-2.13-.84s-.84-1.27-.84-2.13V48.27h-14.84c-.86,0-1.59-.32-2.19-.97-.6-.65-.9-1.4-.9-2.26s.3-1.57,.9-2.13c.6-.56,1.33-.84,2.19-.84h17.81c.95,0,1.72,.28,2.32,.84,.6,.56,.9,1.27,.9,2.13v48.27c0,.86-.3,1.57-.9,2.13-.6,.56-1.38,.84-2.32,.84Zm-1.55-77.56c-1.21,0-2.19-.34-2.97-1.03-.77-.69-1.16-1.46-1.16-2.32V7.36c0-.86,.39-1.66,1.16-2.39,.77-.73,1.76-1.1,2.97-1.1s2.17,.37,2.9,1.1c.73,.73,1.1,1.53,1.1,2.39V15.36c0,.86-.37,1.64-1.1,2.32-.73,.69-1.7,1.03-2.9,1.03Z"/><path class="cls-1" d="M1335.03,96.27c-.86,0-1.57-.28-2.13-.84s-.84-1.27-.84-2.13v-5.42c-1.98,2.5-4.39,4.5-7.23,6-2.84,1.5-6.11,2.26-9.81,2.26-7.31,0-13.08-2.52-17.29-7.55-4.22-5.03-6.32-11.85-6.32-20.46s2.11-15.53,6.32-20.52c4.21-4.99,9.98-7.49,17.29-7.49,3.7,0,6.97,.77,9.81,2.32,2.84,1.55,5.25,3.57,7.23,6.07V3.23c0-.86,.28-1.59,.84-2.19,.56-.6,1.27-.9,2.13-.9s1.59,.3,2.19,.9c.6,.6,.9,1.33,.9,2.19V93.31c0,.86-.3,1.57-.9,2.13-.6,.56-1.33,.84-2.19,.84Zm-20-6.32c5.5,0,9.72-1.89,12.65-5.68,2.92-3.79,4.39-9.16,4.39-16.13s-1.46-12.21-4.39-16c-2.93-3.79-7.14-5.68-12.65-5.68s-9.81,1.89-12.91,5.68c-3.1,3.79-4.65,9.12-4.65,16s1.55,12.35,4.65,16.13c3.1,3.79,7.4,5.68,12.91,5.68Z"/><path class="cls-1" d="M1377.49,96.14c-7.31,0-13.08-2.52-17.29-7.55-4.22-5.03-6.32-11.85-6.32-20.46s2.11-15.53,6.32-20.52c4.21-4.99,9.98-7.49,17.29-7.49,6.37,0,11.72,2.19,16.07,6.58,4.34,4.39,6.69,10.32,7.03,17.81v.39c0,.77-.3,1.46-.9,2.06-.52,.6-1.25,.9-2.19,.9h-37.43c0,6.63,1.4,11.96,4.19,16,2.79,4.04,7.21,6.07,13.23,6.07,3.1,0,6-.67,8.71-2,2.71-1.33,4.79-3.07,6.26-5.23,.52-.69,1.18-1.12,2-1.29,.82-.17,1.57,0,2.26,.52,.69,.43,1.12,1.08,1.29,1.94,.17,.86,0,1.63-.52,2.32-2.07,3.01-4.88,5.42-8.45,7.23-3.57,1.81-7.42,2.71-11.55,2.71Zm-17.03-34.33h33.42c-.86-4.9-2.73-8.69-5.61-11.36-2.88-2.67-6.47-4-10.78-4-4.65,0-8.41,1.33-11.29,4-2.88,2.67-4.8,6.45-5.74,11.36Z"/><path class="cls-1" d="M1455.43,96.27c-.86,0-1.59-.28-2.19-.84-.6-.56-.9-1.27-.9-2.13V3.1c0-.86,.3-1.59,.9-2.19,.6-.6,1.33-.9,2.19-.9s1.59,.3,2.19,.9c.6,.6,.9,1.33,.9,2.19V47.23c1.98-2.24,4.34-3.98,7.1-5.23,2.75-1.25,5.72-1.87,8.9-1.87,5.94,0,10.6,1.96,14,5.87,3.4,3.92,5.1,9.18,5.1,15.81v31.36c0,.86-.28,1.57-.84,2.13-.56,.56-1.27,.84-2.13,.84s-1.59-.28-2.19-.84c-.6-.56-.9-1.27-.9-2.13v-31.36c0-1.98-.3-4.17-.9-6.58-.6-2.41-1.83-4.49-3.68-6.26-1.85-1.76-4.67-2.65-8.45-2.65-4.47,0-8.26,1.38-11.36,4.13-3.1,2.75-4.65,6.67-4.65,11.74v31.1c0,.86-.3,1.57-.9,2.13-.6,.56-1.33,.84-2.19,.84Z"/><path class="cls-1" d="M1530.67,96.14c-7.31,0-13.08-2.52-17.29-7.55-4.22-5.03-6.32-11.85-6.32-20.46s2.11-15.53,6.32-20.52c4.21-4.99,9.98-7.49,17.29-7.49,6.37,0,11.72,2.19,16.07,6.58,4.34,4.39,6.69,10.32,7.03,17.81v.39c0,.77-.3,1.46-.9,2.06-.52,.6-1.25,.9-2.19,.9h-37.43c0,6.63,1.4,11.96,4.19,16,2.79,4.04,7.21,6.07,13.23,6.07,3.1,0,6-.67,8.71-2,2.71-1.33,4.79-3.07,6.26-5.23,.52-.69,1.18-1.12,2-1.29,.82-.17,1.57,0,2.26,.52,.69,.43,1.12,1.08,1.29,1.94,.17,.86,0,1.63-.52,2.32-2.07,3.01-4.88,5.42-8.45,7.23-3.57,1.81-7.42,2.71-11.55,2.71Zm-17.03-34.33h33.42c-.86-4.9-2.73-8.69-5.61-11.36-2.88-2.67-6.47-4-10.78-4-4.65,0-8.41,1.33-11.29,4-2.88,2.67-4.8,6.45-5.74,11.36Z"/><path class="cls-1" d="M1571.45,96.14c-.86,0-1.59-.3-2.19-.9-.6-.6-.9-1.29-.9-2.06V43.36c0-.86,.3-1.59,.9-2.19s1.33-.9,2.19-.9,1.57,.3,2.13,.9c.56,.6,.84,1.33,.84,2.19v3.23c1.29-1.55,3.1-2.9,5.42-4.06,2.32-1.16,4.56-1.91,6.71-2.26,3.01-.43,6.07-.19,9.16,.71,3.1,.9,5.87,2.43,8.32,4.58,2.45,2.15,4.15,4.99,5.1,8.52,.26,.77,.17,1.53-.26,2.26-.43,.73-1.03,1.23-1.81,1.48-.86,.17-1.66,.04-2.39-.39-.73-.43-1.18-1.03-1.36-1.81-.69-2.49-1.89-4.47-3.61-5.94-1.72-1.46-3.68-2.45-5.87-2.97-2.19-.52-4.32-.6-6.39-.26-3.7,.43-6.8,1.81-9.29,4.13-2.5,2.32-3.74,6.02-3.74,11.1v31.49c0,.77-.28,1.46-.84,2.06-.56,.6-1.27,.9-2.13,.9Z"/><path class="cls-1" d="M1643.72,96.14c-7.31,0-13.08-2.52-17.29-7.55-4.22-5.03-6.32-11.85-6.32-20.46s2.11-15.53,6.32-20.52c4.21-4.99,9.98-7.49,17.29-7.49,6.37,0,11.72,2.19,16.07,6.58,4.34,4.39,6.69,10.32,7.03,17.81v.39c0,.77-.3,1.46-.9,2.06-.52,.6-1.25,.9-2.19,.9h-37.43c0,6.63,1.4,11.96,4.19,16,2.79,4.04,7.21,6.07,13.23,6.07,3.1,0,6-.67,8.71-2,2.71-1.33,4.79-3.07,6.26-5.23,.52-.69,1.18-1.12,2-1.29,.82-.17,1.57,0,2.26,.52,.69,.43,1.12,1.08,1.29,1.94,.17,.86,0,1.63-.52,2.32-2.07,3.01-4.88,5.42-8.45,7.23-3.57,1.81-7.42,2.71-11.55,2.71Zm-17.03-34.33h33.42c-.86-4.9-2.73-8.69-5.61-11.36-2.88-2.67-6.47-4-10.78-4-4.65,0-8.41,1.33-11.29,4-2.88,2.67-4.8,6.45-5.74,11.36Z"/><path class="cls-1" d="M353.02,225.2c-.86,0-1.59-.28-2.19-.84-.6-.56-.9-1.27-.9-2.13v-90.08c0-.86,.3-1.59,.9-2.19,.6-.6,1.33-.9,2.19-.9s1.59,.3,2.19,.9c.6,.6,.9,1.33,.9,2.19v61.82l29.17-24c.69-.52,1.44-.73,2.26-.65,.82,.09,1.53,.47,2.13,1.16,.43,.6,.62,1.31,.58,2.13-.04,.82-.41,1.53-1.1,2.13l-19.87,16.26,21.94,29.29c.6,.6,.82,1.33,.65,2.19-.17,.86-.6,1.55-1.29,2.06-.6,.52-1.33,.71-2.19,.58-.86-.13-1.55-.5-2.07-1.1l-21.68-29.17-8.52,6.97v20.39c0,.86-.3,1.57-.9,2.13-.6,.56-1.33,.84-2.19,.84Z"/><path class="cls-1" d="M406.45,225.2c-.86,0-1.57-.28-2.13-.84-.56-.56-.84-1.27-.84-2.13v-50.07c0-.86,.28-1.59,.84-2.19,.56-.6,1.27-.9,2.13-.9s1.59,.3,2.19,.9c.6,.6,.9,1.33,.9,2.19v4.26c1.98-2.24,4.34-4,7.1-5.29,2.75-1.29,5.72-1.94,8.9-1.94,5.94,0,10.6,1.96,14,5.87,3.4,3.92,5.1,9.23,5.1,15.94v30.97c0,.86-.28,1.59-.84,2.19-.56,.6-1.27,.9-2.13,.9s-1.59-.3-2.19-.9c-.6-.6-.9-1.33-.9-2.19v-30.97c0-1.98-.3-4.17-.9-6.58-.6-2.41-1.83-4.5-3.68-6.26-1.85-1.76-4.67-2.65-8.45-2.65-4.99,0-8.9,1.38-11.74,4.13-2.84,2.75-4.26,6.67-4.26,11.74v30.84c0,.86-.3,1.57-.9,2.13-.6,.56-1.33,.84-2.19,.84Z"/><path class="cls-1" d="M481.68,225.2c-7.31,0-13.08-2.52-17.29-7.55-4.22-5.03-6.32-11.85-6.32-20.46s2.11-15.53,6.32-20.52c4.21-4.99,9.98-7.49,17.29-7.49s12.97,2.5,17.23,7.49c4.26,4.99,6.39,11.83,6.39,20.52s-2.13,15.42-6.39,20.46c-4.26,5.03-10,7.55-17.23,7.55Zm0-6.19c5.59,0,9.89-1.89,12.91-5.68,3.01-3.79,4.52-9.16,4.52-16.13s-1.51-12.21-4.52-16c-3.01-3.79-7.31-5.68-12.91-5.68s-9.81,1.89-12.91,5.68c-3.1,3.79-4.65,9.12-4.65,16s1.55,12.35,4.65,16.13c3.1,3.79,7.4,5.68,12.91,5.68Z"/><path class="cls-1" d="M524.66,225.2c-1.55-.17-2.45-.99-2.71-2.45l-9.55-49.94c-.09-.86,.08-1.66,.52-2.39,.43-.73,1.08-1.18,1.94-1.35,.86-.08,1.63,.11,2.32,.58,.69,.47,1.12,1.1,1.29,1.87l7.74,40.65,12.78-27.75c.6-1.2,1.55-1.81,2.84-1.81s2.24,.6,2.84,1.81l12.78,27.75,7.61-40.39c.17-.86,.6-1.53,1.29-2,.69-.47,1.46-.62,2.32-.45,.86,.09,1.53,.5,2,1.23,.47,.73,.62,1.53,.45,2.39l-9.55,49.81c-.26,1.46-1.12,2.28-2.58,2.45-1.55,.17-2.63-.43-3.23-1.81l-13.94-30.33-14.07,30.33c-.6,1.38-1.64,1.98-3.1,1.81Z"/><path class="cls-1" d="M586.34,225.2c-.86,0-1.57-.28-2.13-.84-.56-.56-.84-1.27-.84-2.13v-50.07c0-.86,.28-1.59,.84-2.19,.56-.6,1.27-.9,2.13-.9s1.59,.3,2.19,.9c.6,.6,.9,1.33,.9,2.19v4.26c1.98-2.24,4.34-4,7.1-5.29,2.75-1.29,5.72-1.94,8.9-1.94,5.94,0,10.6,1.96,14,5.87,3.4,3.92,5.1,9.23,5.1,15.94v30.97c0,.86-.28,1.59-.84,2.19-.56,.6-1.27,.9-2.13,.9s-1.59-.3-2.19-.9c-.6-.6-.9-1.33-.9-2.19v-30.97c0-1.98-.3-4.17-.9-6.58-.6-2.41-1.83-4.5-3.68-6.26-1.85-1.76-4.67-2.65-8.45-2.65-4.99,0-8.9,1.38-11.74,4.13-2.84,2.75-4.26,6.67-4.26,11.74v30.84c0,.86-.3,1.57-.9,2.13-.6,.56-1.33,.84-2.19,.84Z"/><path class="cls-1" d="M714.1,225.33c-.86,0-1.59-.28-2.19-.84-.6-.56-.9-1.27-.9-2.13v-1.03l-15.87,3.1c-3.96,.77-7.31,.99-10.07,.65-2.75-.34-5.08-1.21-6.97-2.58-1.38-1.12-2.47-2.52-3.29-4.19-.82-1.68-1.31-3.59-1.48-5.74-.52-4.99,.58-9.1,3.29-12.32,2.71-3.23,6.9-5.31,12.58-6.26l21.81-3.74v-3.61c0-1.72-.28-3.55-.84-5.48-.56-1.94-1.7-3.38-3.42-4.32-1.38-.86-3.14-1.29-5.29-1.29-5.33,0-11.92,2.41-19.75,7.23-.77,.43-1.55,.54-2.32,.32-.77-.21-1.38-.67-1.81-1.36-.52-.77-.67-1.57-.45-2.39,.21-.82,.67-1.4,1.36-1.74,5.08-3.1,9.5-5.23,13.29-6.39,3.79-1.16,7.01-1.74,9.68-1.74,1.81,0,3.38,.19,4.71,.58,1.33,.39,2.47,.84,3.42,1.35,2.49,1.38,4.39,3.38,5.68,6,1.29,2.63,1.94,5.7,1.94,9.23v35.75c0,.86-.28,1.57-.84,2.13-.56,.56-1.31,.84-2.26,.84Zm-20-7.1l16.91-3.1v-18.71l-20.65,3.48c-3.53,.6-6.09,1.59-7.68,2.97-1.59,1.38-2.56,2.86-2.9,4.45-.34,1.59-.47,3.12-.39,4.58,.26,2.67,1.07,4.52,2.45,5.55,2.06,1.55,6.15,1.81,12.26,.77Z"/><path class="cls-1" d="M751.53,225.2c-4.9,0-9.23-1.08-12.97-3.23-3.74-2.15-6.39-5.03-7.94-8.65-.34-.77-.34-1.55,0-2.32,.34-.77,.9-1.33,1.68-1.68,.77-.34,1.55-.34,2.32,0,.77,.34,1.33,.9,1.68,1.68,1.12,2.5,3.03,4.45,5.74,5.87,2.71,1.42,5.87,2.13,9.49,2.13s6.58-.37,8.65-1.1c2.07-.73,3.55-1.63,4.45-2.71,.9-1.07,1.46-2.15,1.68-3.23,.21-1.08,.32-1.91,.32-2.52,0-1.29-.3-2.54-.9-3.74-.6-1.2-1.89-2.34-3.87-3.42-1.98-1.07-5.03-2.04-9.16-2.9-2.93-.6-5.96-1.46-9.1-2.58-3.14-1.12-5.79-2.69-7.94-4.71-2.15-2.02-3.23-4.67-3.23-7.94,.08-4.39,1.94-7.98,5.55-10.78,3.61-2.79,8.3-4.19,14.07-4.19,4.3,0,8.19,.93,11.68,2.77,3.49,1.85,6.04,4.37,7.68,7.55,.43,.69,.52,1.44,.26,2.26-.26,.82-.73,1.44-1.42,1.87-.86,.34-1.68,.41-2.45,.19-.77-.21-1.33-.71-1.68-1.48-.95-1.72-2.58-3.29-4.9-4.71-2.32-1.42-5.38-2.13-9.16-2.13-2.15,0-4.26,.28-6.32,.84-2.07,.56-3.76,1.46-5.1,2.71-1.33,1.25-2.04,2.99-2.13,5.23,0,.52,.21,1.31,.65,2.39,.43,1.08,1.72,2.22,3.87,3.42,2.15,1.21,5.76,2.32,10.84,3.36,3.01,.6,5.96,1.48,8.84,2.65,2.88,1.16,5.29,2.8,7.23,4.9,1.94,2.11,2.86,4.93,2.77,8.45,0,1.46-.26,3.1-.77,4.9s-1.51,3.53-2.97,5.16c-1.46,1.64-3.59,2.99-6.39,4.07-2.8,1.08-6.47,1.61-11.03,1.61Z"/><path class="cls-1" d="M829.09,225.2c-.86,0-1.61-.3-2.26-.9-.65-.6-.97-1.33-.97-2.19v-87.5c0-.95,.32-1.74,.97-2.39s1.4-.97,2.26-.97c.95,0,1.72,.32,2.32,.97,.6,.65,.9,1.44,.9,2.39v87.5c0,.86-.3,1.59-.9,2.19-.6,.6-1.38,.9-2.32,.9Z"/><path class="cls-1" d="M854.9,225.2c-.86,0-1.57-.28-2.13-.84-.56-.56-.84-1.27-.84-2.13v-50.07c0-.86,.28-1.59,.84-2.19,.56-.6,1.27-.9,2.13-.9s1.59,.3,2.19,.9c.6,.6,.9,1.33,.9,2.19v4.26c1.98-2.24,4.34-4,7.1-5.29,2.75-1.29,5.72-1.94,8.9-1.94,5.94,0,10.6,1.96,14,5.87,3.4,3.92,5.1,9.23,5.1,15.94v30.97c0,.86-.28,1.59-.84,2.19-.56,.6-1.27,.9-2.13,.9s-1.59-.3-2.19-.9c-.6-.6-.9-1.33-.9-2.19v-30.97c0-1.98-.3-4.17-.9-6.58-.6-2.41-1.83-4.5-3.68-6.26-1.85-1.76-4.67-2.65-8.45-2.65-4.99,0-8.9,1.38-11.74,4.13-2.84,2.75-4.26,6.67-4.26,11.74v30.84c0,.86-.3,1.57-.9,2.13-.6,.56-1.33,.84-2.19,.84Z"/><path class="cls-1" d="M950.14,225.33c-.86,0-1.57-.28-2.13-.84s-.84-1.27-.84-2.13v-5.42c-1.98,2.5-4.39,4.5-7.23,6-2.84,1.5-6.11,2.26-9.81,2.26-7.31,0-13.08-2.52-17.29-7.55-4.22-5.03-6.32-11.85-6.32-20.46s2.11-15.53,6.32-20.52c4.21-4.99,9.98-7.49,17.29-7.49,3.7,0,6.97,.77,9.81,2.32,2.84,1.55,5.25,3.57,7.23,6.07v-45.3c0-.86,.28-1.59,.84-2.19,.56-.6,1.27-.9,2.13-.9s1.59,.3,2.19,.9c.6,.6,.9,1.33,.9,2.19v90.08c0,.86-.3,1.57-.9,2.13-.6,.56-1.33,.84-2.19,.84Zm-20-6.32c5.5,0,9.72-1.89,12.65-5.68,2.92-3.79,4.39-9.16,4.39-16.13s-1.46-12.21-4.39-16c-2.93-3.79-7.14-5.68-12.65-5.68s-9.81,1.89-12.91,5.68c-3.1,3.79-4.65,9.12-4.65,16s1.55,12.35,4.65,16.13c3.1,3.79,7.4,5.68,12.91,5.68Z"/><path class="cls-1" d="M986.4,225.33c-.86,0-1.57-.28-2.13-.84s-.84-1.27-.84-2.13v-45.04h-14.84c-.86,0-1.59-.32-2.19-.97-.6-.65-.9-1.4-.9-2.26s.3-1.57,.9-2.13c.6-.56,1.33-.84,2.19-.84h17.81c.95,0,1.72,.28,2.32,.84,.6,.56,.9,1.27,.9,2.13v48.27c0,.86-.3,1.57-.9,2.13-.6,.56-1.38,.84-2.32,.84Zm-1.55-77.56c-1.21,0-2.19-.34-2.97-1.03-.77-.69-1.16-1.46-1.16-2.32v-8c0-.86,.39-1.66,1.16-2.39,.77-.73,1.76-1.1,2.97-1.1s2.17,.37,2.9,1.1c.73,.73,1.1,1.53,1.1,2.39v8c0,.86-.37,1.64-1.1,2.32-.73,.69-1.7,1.03-2.9,1.03Z"/><path class="cls-1" d="M1029.76,252.17c-4.56,0-8.5-1.23-11.81-3.68-3.31-2.45-5.66-5.92-7.03-10.39-.26-.77-.21-1.53,.13-2.26,.34-.73,.95-1.23,1.81-1.48,.86-.35,1.66-.3,2.39,.13,.73,.43,1.23,1.03,1.48,1.81,1.98,6.45,6.32,9.68,13.03,9.68,4.39,0,7.85-1.59,10.39-4.77,2.54-3.18,3.81-7.53,3.81-13.04v-17.29c-3.79,4.04-9.12,6.07-16,6.07s-12.48-2.15-16.52-6.45c-4.04-4.3-6.07-10.11-6.07-17.42s2.02-13.1,6.07-17.36c4.04-4.26,9.55-6.39,16.52-6.39s12.3,2.06,16,6.19v-3.23c0-.86,.3-1.61,.9-2.26,.6-.65,1.33-.97,2.19-.97s1.57,.32,2.13,.97c.56,.65,.84,1.4,.84,2.26v55.88c0,7.05-1.85,12.82-5.55,17.29-3.7,4.47-8.6,6.71-14.71,6.71Zm-1.81-41.3c5.08,0,9.03-1.48,11.87-4.45,2.84-2.97,4.26-7.42,4.26-13.36s-1.42-10.24-4.26-13.16c-2.84-2.92-6.8-4.39-11.87-4.39s-9.31,1.53-12.2,4.58c-2.88,3.05-4.32,7.38-4.32,12.97s1.44,10.07,4.32,13.16c2.88,3.1,6.95,4.65,12.2,4.65Z"/><path class="cls-1" d="M1087.06,225.2c-7.31,0-13.08-2.52-17.29-7.55-4.22-5.03-6.32-11.85-6.32-20.46s2.11-15.53,6.32-20.52c4.21-4.99,9.98-7.49,17.29-7.49s12.97,2.5,17.23,7.49c4.26,4.99,6.39,11.83,6.39,20.52s-2.13,15.42-6.39,20.46c-4.26,5.03-10,7.55-17.23,7.55Zm0-6.19c5.59,0,9.89-1.89,12.91-5.68,3.01-3.79,4.52-9.16,4.52-16.13s-1.51-12.21-4.52-16c-3.01-3.79-7.31-5.68-12.91-5.68s-9.81,1.89-12.91,5.68c-3.1,3.79-4.65,9.12-4.65,16s1.55,12.35,4.65,16.13c3.1,3.79,7.4,5.68,12.91,5.68Z"/><path class="cls-1" d="M1164.49,225.2c-.86,0-1.61-.3-2.26-.9-.64-.6-.97-1.33-.97-2.19v-85.69c0-.86,.32-1.61,.97-2.26,.65-.64,1.4-.97,2.26-.97h46.72c.86,0,1.61,.32,2.26,.97,.65,.65,.97,1.4,.97,2.26s-.32,1.61-.97,2.26c-.65,.64-1.4,.97-2.26,.97h-43.49v34.84c.08,0,.17-.02,.26-.06,.08-.04,.17-.06,.26-.06h35.75c.95,0,1.74,.3,2.39,.9,.64,.6,.97,1.38,.97,2.32,0,.86-.32,1.61-.97,2.26s-1.44,.97-2.39,.97h-36.26v41.3c0,.86-.3,1.59-.9,2.19-.6,.6-1.38,.9-2.32,.9Z"/><path class="cls-1" d="M1242.44,225.2c-7.31,0-13.08-2.52-17.29-7.55-4.22-5.03-6.32-11.85-6.32-20.46s2.11-15.53,6.32-20.52c4.21-4.99,9.98-7.49,17.29-7.49s12.97,2.5,17.23,7.49c4.26,4.99,6.39,11.83,6.39,20.52s-2.13,15.42-6.39,20.46c-4.26,5.03-10,7.55-17.23,7.55Zm0-6.19c5.59,0,9.89-1.89,12.91-5.68,3.01-3.79,4.52-9.16,4.52-16.13s-1.51-12.21-4.52-16c-3.01-3.79-7.31-5.68-12.91-5.68s-9.81,1.89-12.91,5.68c-3.1,3.79-4.65,9.12-4.65,16s1.55,12.35,4.65,16.13c3.1,3.79,7.4,5.68,12.91,5.68Z"/><path class="cls-1" d="M1301.28,252.17c-4.56,0-8.5-1.23-11.81-3.68-3.31-2.45-5.66-5.92-7.03-10.39-.26-.77-.21-1.53,.13-2.26,.34-.73,.95-1.23,1.81-1.48,.86-.35,1.66-.3,2.39,.13,.73,.43,1.23,1.03,1.48,1.81,1.98,6.45,6.32,9.68,13.03,9.68,4.39,0,7.85-1.59,10.39-4.77,2.54-3.18,3.81-7.53,3.81-13.04v-17.29c-3.79,4.04-9.12,6.07-16,6.07s-12.48-2.15-16.52-6.45c-4.04-4.3-6.07-10.11-6.07-17.42s2.02-13.1,6.07-17.36c4.04-4.26,9.55-6.39,16.52-6.39s12.3,2.06,16,6.19v-3.23c0-.86,.3-1.61,.9-2.26,.6-.65,1.33-.97,2.19-.97s1.57,.32,2.13,.97c.56,.65,.84,1.4,.84,2.26v55.88c0,7.05-1.85,12.82-5.55,17.29-3.7,4.47-8.6,6.71-14.71,6.71Zm-1.81-41.3c5.08,0,9.03-1.48,11.87-4.45,2.84-2.97,4.26-7.42,4.26-13.36s-1.42-10.24-4.26-13.16c-2.84-2.92-6.8-4.39-11.87-4.39s-9.31,1.53-12.2,4.58c-2.88,3.05-4.32,7.38-4.32,12.97s1.44,10.07,4.32,13.16c2.88,3.1,6.95,4.65,12.2,4.65Z"/></g></g></svg>