<?xml version="1.0" encoding="UTF-8"?><svg id="Layer_2" xmlns="http://www.w3.org/2000/svg" viewBox="0 0 988.16 379.03"><defs><style>.cls-1{fill:#fff;}</style></defs><g id="car"><g><path class="cls-1" d="M32,93.95c-6.45,0-12.07-1.33-16.84-4-4.78-2.67-8.5-6.41-11.16-11.23-2.67-4.82-4-10.41-4-16.78v-29.94c0-6.45,1.33-12.07,4-16.84,2.67-4.77,6.39-8.5,11.16-11.16C19.94,1.33,25.55,0,32,0s12.07,1.33,16.84,4c4.77,2.67,8.5,6.39,11.16,11.16,2.67,4.78,4,10.39,4,16.84v29.94c0,6.37-1.33,11.96-4,16.78-2.67,4.82-6.39,8.56-11.16,11.23-4.78,2.67-10.39,4-16.84,4Zm0-6.45c5.16,0,9.66-1.05,13.49-3.16,3.83-2.11,6.79-5.1,8.9-8.97,2.11-3.87,3.16-8.34,3.16-13.42v-29.94c0-5.16-1.05-9.66-3.16-13.49-2.11-3.83-5.08-6.79-8.9-8.9-3.83-2.11-8.32-3.16-13.49-3.16s-9.66,1.05-13.49,3.16c-3.83,2.11-6.8,5.08-8.91,8.9-2.11,3.83-3.16,8.32-3.16,13.49v29.94c0,5.08,1.05,9.55,3.16,13.42,2.11,3.87,5.08,6.86,8.91,8.97,3.83,2.11,8.32,3.16,13.49,3.16Z"/><path class="cls-1" d="M82.85,93.95c-.86,0-1.57-.28-2.13-.84s-.84-1.27-.84-2.13V40.91c0-.86,.28-1.59,.84-2.19,.56-.6,1.27-.9,2.13-.9s1.59,.3,2.19,.9c.6,.6,.9,1.33,.9,2.19v4.26c1.98-2.24,4.34-4,7.1-5.29,2.75-1.29,5.72-1.94,8.9-1.94,5.94,0,10.6,1.96,14,5.87,3.4,3.92,5.1,9.23,5.1,15.94v30.97c0,.86-.28,1.59-.84,2.19-.56,.6-1.27,.9-2.13,.9s-1.59-.3-2.19-.9-.9-1.33-.9-2.19v-30.97c0-1.98-.3-4.17-.9-6.58-.6-2.41-1.83-4.5-3.68-6.26-1.85-1.76-4.67-2.65-8.45-2.65-4.99,0-8.9,1.38-11.74,4.13-2.84,2.75-4.26,6.67-4.26,11.74v30.84c0,.86-.3,1.57-.9,2.13-.6,.56-1.33,.84-2.19,.84Z"/><path class="cls-1" d="M158.09,93.95c-7.31,0-13.08-2.52-17.29-7.55-4.22-5.03-6.32-11.85-6.32-20.46s2.11-15.53,6.32-20.52c4.21-4.99,9.98-7.49,17.29-7.49,6.37,0,11.72,2.19,16.07,6.58,4.34,4.39,6.69,10.32,7.03,17.81v.39c0,.77-.3,1.46-.9,2.06-.52,.6-1.25,.9-2.19,.9h-37.42c0,6.63,1.4,11.96,4.19,16,2.79,4.04,7.21,6.07,13.23,6.07,3.1,0,6-.67,8.71-2,2.71-1.33,4.8-3.07,6.26-5.23,.52-.69,1.18-1.12,2-1.29,.82-.17,1.57,0,2.26,.52,.69,.43,1.12,1.08,1.29,1.94,.17,.86,0,1.63-.52,2.32-2.06,3.01-4.88,5.42-8.45,7.23-3.57,1.81-7.42,2.71-11.55,2.71Zm-17.04-34.33h33.42c-.86-4.9-2.73-8.69-5.61-11.36-2.88-2.67-6.47-4-10.78-4-4.65,0-8.41,1.33-11.29,4-2.88,2.67-4.8,6.45-5.74,11.36Z"/><path class="cls-1" d="M252.94,93.95c-7.31,0-13.08-2.52-17.29-7.55-4.22-5.03-6.32-11.85-6.32-20.46s2.11-15.53,6.32-20.52c4.21-4.99,9.98-7.49,17.29-7.49s12.97,2.5,17.23,7.49c4.26,4.99,6.39,11.83,6.39,20.52s-2.13,15.42-6.39,20.46-10,7.55-17.23,7.55Zm0-6.19c5.59,0,9.89-1.89,12.91-5.68,3.01-3.79,4.52-9.16,4.52-16.13s-1.51-12.21-4.52-16c-3.01-3.79-7.31-5.68-12.91-5.68s-9.81,1.89-12.91,5.68c-3.1,3.79-4.65,9.12-4.65,16s1.55,12.35,4.65,16.13c3.1,3.79,7.4,5.68,12.91,5.68Z"/><path class="cls-1" d="M298.11,94.08c-.86,0-1.59-.28-2.19-.84-.6-.56-.9-1.27-.9-2.13V46.07h-9.29c-.86,0-1.59-.32-2.19-.97-.6-.65-.9-1.35-.9-2.13,0-.86,.3-1.59,.9-2.19,.6-.6,1.33-.9,2.19-.9h9.29V20.91c0-12.65,6.41-18.97,19.23-18.97h7.61c.86,0,1.57,.3,2.13,.9,.56,.6,.84,1.33,.84,2.19s-.28,1.59-.84,2.19c-.56,.6-1.27,.9-2.13,.9h-7.61c-4.56,0-7.89,1.01-10,3.03-2.11,2.02-3.16,5.27-3.16,9.74v18.97h20.91c.86,0,1.59,.3,2.19,.9,.6,.6,.9,1.33,.9,2.19,0,.77-.3,1.48-.9,2.13-.6,.65-1.33,.97-2.19,.97h-20.91v45.04c0,.86-.28,1.57-.84,2.13-.56,.56-1.27,.84-2.13,.84Z"/><path class="cls-1" d="M372.83,94.08c-.86,0-1.57-.3-2.13-.9-.56-.6-.84-1.29-.84-2.06V41.17c0-.77,.28-1.48,.84-2.13,.56-.65,1.27-.97,2.13-.97s1.59,.32,2.19,.97c.6,.65,.9,1.36,.9,2.13v3.48c1.89-1.98,4.09-3.57,6.58-4.78,2.49-1.2,5.16-1.81,8-1.81,3.53,0,6.62,.84,9.29,2.52,2.67,1.68,4.73,4.02,6.19,7.03,1.81-2.84,4.17-5.14,7.1-6.9,2.92-1.76,6.2-2.65,9.81-2.65,5.5,0,9.87,1.98,13.1,5.94,3.23,3.96,4.84,9.25,4.84,15.87v31.1c0,.77-.28,1.46-.84,2.06-.56,.6-1.27,.9-2.13,.9s-1.59-.3-2.19-.9c-.6-.6-.9-1.29-.9-2.06v-31.1c0-1.2-.13-2.67-.39-4.39-.26-1.72-.77-3.44-1.55-5.16-.77-1.72-1.96-3.16-3.55-4.32-1.59-1.16-3.72-1.74-6.39-1.74-4.22,0-7.66,1.48-10.32,4.45-2.67,2.97-4,6.69-4,11.16v31.1c0,.77-.28,1.46-.84,2.06-.56,.6-1.27,.9-2.13,.9s-1.61-.3-2.26-.9c-.65-.6-.97-1.29-.97-2.06v-30.84c0-2.75-.41-5.33-1.23-7.74-.82-2.41-2.09-4.37-3.81-5.87-1.72-1.5-4-2.26-6.84-2.26-3.87,0-7.27,1.18-10.2,3.55-2.93,2.37-4.39,5.44-4.39,9.23v34.07c0,.77-.3,1.46-.9,2.06-.6,.6-1.33,.9-2.19,.9Z"/><path class="cls-1" d="M495.55,94.08c-.86,0-1.59-.28-2.19-.84-.6-.56-.9-1.27-.9-2.13v-1.03l-15.87,3.1c-3.96,.77-7.31,.99-10.07,.65-2.75-.34-5.08-1.21-6.97-2.58-1.38-1.12-2.47-2.52-3.29-4.19-.82-1.68-1.31-3.59-1.48-5.74-.52-4.99,.58-9.1,3.29-12.32s6.9-5.31,12.58-6.26l21.81-3.74v-3.61c0-1.72-.28-3.55-.84-5.48-.56-1.94-1.7-3.38-3.42-4.32-1.38-.86-3.14-1.29-5.29-1.29-5.34,0-11.92,2.41-19.75,7.23-.77,.43-1.55,.54-2.32,.32-.77-.21-1.38-.67-1.81-1.36-.52-.77-.67-1.57-.45-2.39,.21-.82,.67-1.4,1.36-1.74,5.08-3.1,9.51-5.23,13.29-6.39,3.79-1.16,7.01-1.74,9.68-1.74,1.81,0,3.38,.19,4.71,.58,1.33,.39,2.47,.84,3.42,1.35,2.49,1.38,4.39,3.38,5.68,6,1.29,2.63,1.94,5.7,1.94,9.23v35.75c0,.86-.28,1.57-.84,2.13-.56,.56-1.31,.84-2.26,.84Zm-20-7.1l16.91-3.1v-18.71l-20.65,3.48c-3.53,.6-6.09,1.59-7.68,2.97-1.59,1.38-2.56,2.86-2.9,4.45-.34,1.59-.47,3.12-.39,4.58,.26,2.67,1.07,4.52,2.45,5.55,2.06,1.55,6.15,1.81,12.26,.77Z"/><path class="cls-1" d="M513.75,93.95c-.86,0-1.57-.28-2.13-.84s-.84-1.27-.84-2.13V40.91c0-.86,.28-1.59,.84-2.19,.56-.6,1.27-.9,2.13-.9s1.59,.3,2.19,.9c.6,.6,.9,1.33,.9,2.19v4.26c1.98-2.24,4.34-4,7.1-5.29,2.75-1.29,5.72-1.94,8.9-1.94,5.94,0,10.6,1.96,14,5.87,3.4,3.92,5.1,9.23,5.1,15.94v30.97c0,.86-.28,1.59-.84,2.19-.56,.6-1.27,.9-2.13,.9s-1.59-.3-2.19-.9c-.6-.6-.9-1.33-.9-2.19v-30.97c0-1.98-.3-4.17-.9-6.58-.6-2.41-1.83-4.5-3.68-6.26-1.85-1.76-4.67-2.65-8.45-2.65-4.99,0-8.9,1.38-11.74,4.13-2.84,2.75-4.26,6.67-4.26,11.74v30.84c0,.86-.3,1.57-.9,2.13-.6,.56-1.33,.84-2.19,.84Z"/><path class="cls-1" d="M576.73,120.92c-.86-.34-1.46-.9-1.81-1.68-.34-.77-.34-1.55,0-2.32l9.55-24.26-20.26-50.46c-.34-.77-.34-1.55,0-2.32,.34-.77,.9-1.33,1.68-1.68,.77-.26,1.55-.24,2.32,.06,.77,.3,1.33,.88,1.68,1.74l17.94,44.39,17.55-44.39c.34-.86,.88-1.44,1.61-1.74,.73-.3,1.53-.32,2.39-.06,.77,.34,1.33,.9,1.68,1.68,.34,.77,.34,1.55,0,2.32l-30.46,77.04c-.34,.77-.88,1.31-1.61,1.61-.73,.3-1.48,.32-2.26,.06Z"/><path class="cls-1" d="M661.26,93.95c-.86,0-1.59-.3-2.19-.9-.6-.6-.9-1.29-.9-2.06V41.17c0-.86,.3-1.59,.9-2.19s1.33-.9,2.19-.9,1.57,.3,2.13,.9c.56,.6,.84,1.33,.84,2.19v3.23c1.29-1.55,3.1-2.9,5.42-4.06,2.32-1.16,4.56-1.91,6.71-2.26,3.01-.43,6.07-.19,9.16,.71,3.1,.9,5.87,2.43,8.32,4.58,2.45,2.15,4.15,4.99,5.1,8.52,.26,.77,.17,1.53-.26,2.26-.43,.73-1.03,1.23-1.81,1.48-.86,.17-1.66,.04-2.39-.39-.73-.43-1.18-1.03-1.36-1.81-.69-2.49-1.89-4.47-3.61-5.94-1.72-1.46-3.68-2.45-5.87-2.97-2.19-.52-4.32-.6-6.39-.26-3.7,.43-6.8,1.81-9.29,4.13-2.5,2.32-3.74,6.02-3.74,11.1v31.49c0,.77-.28,1.46-.84,2.06-.56,.6-1.27,.9-2.13,.9Z"/><path class="cls-1" d="M733.52,93.95c-7.31,0-13.08-2.52-17.29-7.55-4.22-5.03-6.32-11.85-6.32-20.46s2.11-15.53,6.32-20.52c4.21-4.99,9.98-7.49,17.29-7.49,6.37,0,11.72,2.19,16.07,6.58,4.34,4.39,6.69,10.32,7.03,17.81v.39c0,.77-.3,1.46-.9,2.06-.52,.6-1.25,.9-2.19,.9h-37.43c0,6.63,1.4,11.96,4.19,16,2.79,4.04,7.21,6.07,13.23,6.07,3.1,0,6-.67,8.71-2,2.71-1.33,4.79-3.07,6.26-5.23,.52-.69,1.18-1.12,2-1.29,.82-.17,1.57,0,2.26,.52,.69,.43,1.12,1.08,1.29,1.94,.17,.86,0,1.63-.52,2.32-2.07,3.01-4.88,5.42-8.45,7.23-3.57,1.81-7.42,2.71-11.55,2.71Zm-17.03-34.33h33.42c-.86-4.9-2.73-8.69-5.61-11.36-2.88-2.67-6.47-4-10.78-4-4.65,0-8.41,1.33-11.29,4-2.88,2.67-4.8,6.45-5.74,11.36Z"/><path class="cls-1" d="M811.21,94.08c-.86,0-1.59-.28-2.19-.84-.6-.56-.9-1.27-.9-2.13v-1.03l-15.87,3.1c-3.96,.77-7.31,.99-10.07,.65-2.75-.34-5.08-1.21-6.97-2.58-1.38-1.12-2.47-2.52-3.29-4.19-.82-1.68-1.31-3.59-1.48-5.74-.52-4.99,.58-9.1,3.29-12.32,2.71-3.23,6.9-5.31,12.58-6.26l21.81-3.74v-3.61c0-1.72-.28-3.55-.84-5.48-.56-1.94-1.7-3.38-3.42-4.32-1.38-.86-3.14-1.29-5.29-1.29-5.33,0-11.92,2.41-19.75,7.23-.77,.43-1.55,.54-2.32,.32-.77-.21-1.38-.67-1.81-1.36-.52-.77-.67-1.57-.45-2.39,.21-.82,.67-1.4,1.36-1.74,5.08-3.1,9.5-5.23,13.29-6.39,3.79-1.16,7.01-1.74,9.68-1.74,1.81,0,3.38,.19,4.71,.58,1.33,.39,2.47,.84,3.42,1.35,2.49,1.38,4.39,3.38,5.68,6,1.29,2.63,1.94,5.7,1.94,9.23v35.75c0,.86-.28,1.57-.84,2.13-.56,.56-1.31,.84-2.26,.84Zm-20-7.1l16.91-3.1v-18.71l-20.65,3.48c-3.53,.6-6.09,1.59-7.68,2.97-1.59,1.38-2.56,2.86-2.9,4.45-.34,1.59-.47,3.12-.39,4.58,.26,2.67,1.07,4.52,2.45,5.55,2.06,1.55,6.15,1.81,12.26,.77Z"/><path class="cls-1" d="M831.99,121.05c-.86,0-1.57-.3-2.13-.9-.56-.6-.84-1.33-.84-2.19V41.04c0-.86,.28-1.59,.84-2.19,.56-.6,1.27-.9,2.13-.9s1.59,.3,2.19,.9c.6,.6,.9,1.33,.9,2.19v4.77c1.89-2.41,4.19-4.32,6.9-5.74,2.71-1.42,5.87-2.13,9.49-2.13,7.31,0,13.08,2.5,17.29,7.49,4.21,4.99,6.32,11.83,6.32,20.52s-2.11,15.42-6.32,20.46c-4.22,5.03-9.98,7.55-17.29,7.55-3.61,0-6.78-.69-9.49-2.06-2.71-1.38-5.01-3.27-6.9-5.68v31.75c0,.86-.3,1.59-.9,2.19-.6,.6-1.33,.9-2.19,.9Zm19.49-33.29c5.59,0,9.91-1.89,12.97-5.68,3.05-3.79,4.58-9.16,4.58-16.13s-1.53-12.21-4.58-16c-3.06-3.79-7.38-5.68-12.97-5.68-11.01,0-16.52,7.23-16.52,21.68s5.5,21.81,16.52,21.81Z"/><path class="cls-1" d="M909.55,93.95c-7.31,0-13.08-2.52-17.29-7.55-4.22-5.03-6.32-11.85-6.32-20.46s2.11-15.53,6.32-20.52c4.21-4.99,9.98-7.49,17.29-7.49,6.37,0,11.72,2.19,16.07,6.58,4.34,4.39,6.69,10.32,7.03,17.81v.39c0,.77-.3,1.46-.9,2.06-.52,.6-1.25,.9-2.19,.9h-37.43c0,6.63,1.4,11.96,4.19,16,2.79,4.04,7.21,6.07,13.23,6.07,3.1,0,6-.67,8.71-2,2.71-1.33,4.79-3.07,6.26-5.23,.52-.69,1.18-1.12,2-1.29,.82-.17,1.57,0,2.26,.52,.69,.43,1.12,1.08,1.29,1.94,.17,.86,0,1.63-.52,2.32-2.07,3.01-4.88,5.42-8.45,7.23-3.57,1.81-7.42,2.71-11.55,2.71Zm-17.03-34.33h33.42c-.86-4.9-2.73-8.69-5.61-11.36-2.88-2.67-6.47-4-10.78-4-4.65,0-8.41,1.33-11.29,4-2.88,2.67-4.8,6.45-5.74,11.36Z"/><path class="cls-1" d="M950.33,93.95c-.86,0-1.59-.3-2.19-.9-.6-.6-.9-1.29-.9-2.06V41.17c0-.86,.3-1.59,.9-2.19s1.33-.9,2.19-.9,1.57,.3,2.13,.9c.56,.6,.84,1.33,.84,2.19v3.23c1.29-1.55,3.1-2.9,5.42-4.06,2.32-1.16,4.56-1.91,6.71-2.26,3.01-.43,6.07-.19,9.16,.71,3.1,.9,5.87,2.43,8.32,4.58,2.45,2.15,4.15,4.99,5.1,8.52,.26,.77,.17,1.53-.26,2.26-.43,.73-1.03,1.23-1.81,1.48-.86,.17-1.66,.04-2.39-.39-.73-.43-1.18-1.03-1.36-1.81-.69-2.49-1.89-4.47-3.61-5.94-1.72-1.46-3.68-2.45-5.87-2.97-2.19-.52-4.32-.6-6.39-.26-3.7,.43-6.8,1.81-9.29,4.13-2.5,2.32-3.74,6.02-3.74,11.1v31.49c0,.77-.28,1.46-.84,2.06-.56,.6-1.27,.9-2.13,.9Z"/><path class="cls-1" d="M101.31,223c-4.9,0-9.23-1.08-12.97-3.23-3.74-2.15-6.39-5.03-7.94-8.65-.34-.77-.34-1.55,0-2.32,.34-.77,.9-1.33,1.68-1.68,.77-.34,1.55-.34,2.32,0,.77,.34,1.33,.9,1.68,1.68,1.12,2.5,3.03,4.45,5.74,5.87,2.71,1.42,5.87,2.13,9.49,2.13s6.58-.37,8.65-1.1c2.06-.73,3.55-1.63,4.45-2.71,.9-1.07,1.46-2.15,1.68-3.23,.21-1.08,.32-1.91,.32-2.52,0-1.29-.3-2.54-.9-3.74-.6-1.2-1.89-2.34-3.87-3.42-1.98-1.07-5.03-2.04-9.16-2.9-2.93-.6-5.96-1.46-9.1-2.58-3.14-1.12-5.79-2.69-7.94-4.71-2.15-2.02-3.23-4.67-3.23-7.94,.08-4.39,1.94-7.98,5.55-10.78,3.61-2.79,8.3-4.19,14.07-4.19,4.3,0,8.2,.93,11.68,2.77,3.48,1.85,6.04,4.37,7.68,7.55,.43,.69,.52,1.44,.26,2.26-.26,.82-.73,1.44-1.42,1.87-.86,.34-1.68,.41-2.45,.19-.77-.21-1.33-.71-1.68-1.48-.95-1.72-2.58-3.29-4.9-4.71-2.32-1.42-5.38-2.13-9.16-2.13-2.15,0-4.26,.28-6.32,.84-2.07,.56-3.76,1.46-5.1,2.71-1.33,1.25-2.04,2.99-2.13,5.23,0,.52,.21,1.31,.65,2.39,.43,1.08,1.72,2.22,3.87,3.42,2.15,1.21,5.76,2.32,10.84,3.36,3.01,.6,5.96,1.48,8.84,2.65,2.88,1.16,5.29,2.8,7.23,4.9,1.94,2.11,2.86,4.93,2.77,8.45,0,1.46-.26,3.1-.77,4.9-.52,1.81-1.51,3.53-2.97,5.16-1.46,1.64-3.59,2.99-6.39,4.07-2.8,1.08-6.47,1.61-11.03,1.61Z"/><path class="cls-1" d="M158.35,223c-7.31,0-13.08-2.52-17.29-7.55-4.22-5.03-6.32-11.85-6.32-20.46s2.11-15.53,6.32-20.52c4.21-4.99,9.98-7.49,17.29-7.49s12.97,2.5,17.23,7.49c4.26,4.99,6.39,11.83,6.39,20.52s-2.13,15.42-6.39,20.46-10,7.55-17.23,7.55Zm0-6.19c5.59,0,9.89-1.89,12.91-5.68,3.01-3.79,4.52-9.16,4.52-16.13s-1.51-12.21-4.52-16c-3.01-3.79-7.31-5.68-12.91-5.68s-9.81,1.89-12.91,5.68c-3.1,3.79-4.65,9.12-4.65,16s1.55,12.35,4.65,16.13c3.1,3.79,7.4,5.68,12.91,5.68Z"/><path class="cls-1" d="M216.42,223c-7.31,0-13.08-2.52-17.29-7.55-4.22-5.03-6.32-11.85-6.32-20.46s2.11-15.53,6.32-20.52c4.21-4.99,9.98-7.49,17.29-7.49s12.82,2.45,17.04,7.36c.6,.6,.88,1.33,.84,2.19-.04,.86-.41,1.59-1.1,2.19-.6,.52-1.33,.75-2.19,.71-.86-.04-1.59-.36-2.19-.97-2.93-3.44-7.06-5.16-12.39-5.16s-9.81,1.89-12.91,5.68c-3.1,3.79-4.65,9.12-4.65,16s1.55,12.35,4.65,16.13c3.1,3.79,7.4,5.68,12.91,5.68s9.55-1.68,12.39-5.03c.6-.69,1.33-1.08,2.19-1.16,.86-.08,1.59,.17,2.19,.77,.69,.52,1.05,1.21,1.1,2.07,.04,.86-.24,1.63-.84,2.32-4.3,4.82-9.98,7.23-17.04,7.23Z"/><path class="cls-1" d="M261.84,223.13c-.86,0-1.57-.28-2.13-.84s-.84-1.27-.84-2.13v-45.04h-14.84c-.86,0-1.59-.32-2.19-.97-.6-.65-.9-1.4-.9-2.26s.3-1.57,.9-2.13c.6-.56,1.33-.84,2.19-.84h17.81c.95,0,1.72,.28,2.32,.84,.6,.56,.9,1.27,.9,2.13v48.27c0,.86-.3,1.57-.9,2.13-.6,.56-1.38,.84-2.32,.84Zm-1.55-77.56c-1.21,0-2.19-.34-2.97-1.03-.77-.69-1.16-1.46-1.16-2.32v-8c0-.86,.39-1.66,1.16-2.39,.77-.73,1.76-1.1,2.97-1.1s2.17,.37,2.9,1.1c.73,.73,1.1,1.53,1.1,2.39v8c0,.86-.37,1.64-1.1,2.32-.73,.69-1.7,1.03-2.9,1.03Z"/><path class="cls-1" d="M304.43,223c-7.31,0-13.08-2.52-17.29-7.55-4.22-5.03-6.32-11.85-6.32-20.46s2.11-15.53,6.32-20.52c4.21-4.99,9.98-7.49,17.29-7.49,6.37,0,11.72,2.19,16.07,6.58,4.34,4.39,6.69,10.32,7.03,17.81v.39c0,.77-.3,1.46-.9,2.06-.52,.6-1.25,.9-2.19,.9h-37.42c0,6.63,1.4,11.96,4.19,16,2.79,4.04,7.21,6.07,13.23,6.07,3.1,0,6-.67,8.71-2,2.71-1.33,4.8-3.07,6.26-5.23,.52-.69,1.18-1.12,2-1.29,.82-.17,1.57,0,2.26,.52,.69,.43,1.12,1.08,1.29,1.94,.17,.86,0,1.63-.52,2.32-2.06,3.01-4.88,5.42-8.45,7.23-3.57,1.81-7.42,2.71-11.55,2.71Zm-17.04-34.33h33.42c-.86-4.9-2.73-8.69-5.61-11.36-2.88-2.67-6.47-4-10.78-4-4.65,0-8.41,1.33-11.29,4-2.88,2.67-4.8,6.45-5.74,11.36Z"/><path class="cls-1" d="M364.05,222.36c-3.53,0-6.3-1.01-8.32-3.03-2.02-2.02-3.03-4.71-3.03-8.07v-36.26h-12.39c-.86,0-1.57-.3-2.13-.9-.56-.6-.84-1.33-.84-2.19s.28-1.57,.84-2.13,1.27-.84,2.13-.84h12.39v-18.97c0-.86,.28-1.59,.84-2.19,.56-.6,1.27-.9,2.13-.9s1.59,.3,2.19,.9c.6,.6,.9,1.33,.9,2.19v18.97h16c.86,0,1.59,.28,2.19,.84,.6,.56,.9,1.27,.9,2.13s-.3,1.59-.9,2.19-1.33,.9-2.19,.9h-16v36.26c0,.34,.06,.93,.19,1.74,.13,.82,.58,1.55,1.35,2.19,.77,.65,2.02,.97,3.74,.97h10.07c.95,0,1.72,.3,2.32,.9,.6,.6,.9,1.33,.9,2.19s-.3,1.59-.9,2.19c-.6,.6-1.38,.9-2.32,.9h-10.07Z"/><path class="cls-1" d="M406.12,223.13c-.86,0-1.57-.28-2.13-.84s-.84-1.27-.84-2.13v-45.04h-14.84c-.86,0-1.59-.32-2.19-.97-.6-.65-.9-1.4-.9-2.26s.3-1.57,.9-2.13c.6-.56,1.33-.84,2.19-.84h17.81c.95,0,1.72,.28,2.32,.84,.6,.56,.9,1.27,.9,2.13v48.27c0,.86-.3,1.57-.9,2.13-.6,.56-1.38,.84-2.32,.84Zm-1.55-77.56c-1.21,0-2.19-.34-2.97-1.03-.77-.69-1.16-1.46-1.16-2.32v-8c0-.86,.39-1.66,1.16-2.39,.77-.73,1.76-1.1,2.97-1.1s2.17,.37,2.9,1.1c.73,.73,1.1,1.53,1.1,2.39v8c0,.86-.37,1.64-1.1,2.32-.73,.69-1.7,1.03-2.9,1.03Z"/><path class="cls-1" d="M448.71,223c-7.31,0-13.08-2.52-17.29-7.55-4.22-5.03-6.32-11.85-6.32-20.46s2.11-15.53,6.32-20.52c4.21-4.99,9.98-7.49,17.29-7.49,6.37,0,11.72,2.19,16.07,6.58,4.34,4.39,6.69,10.32,7.03,17.81v.39c0,.77-.3,1.46-.9,2.06-.52,.6-1.25,.9-2.19,.9h-37.42c0,6.63,1.4,11.96,4.19,16,2.79,4.04,7.21,6.07,13.23,6.07,3.1,0,6-.67,8.71-2,2.71-1.33,4.8-3.07,6.26-5.23,.52-.69,1.18-1.12,2-1.29,.82-.17,1.57,0,2.26,.52,.69,.43,1.12,1.08,1.29,1.94,.17,.86,0,1.63-.52,2.32-2.06,3.01-4.88,5.42-8.45,7.23-3.57,1.81-7.42,2.71-11.55,2.71Zm-17.04-34.33h33.42c-.86-4.9-2.73-8.69-5.61-11.36-2.88-2.67-6.47-4-10.78-4-4.65,0-8.41,1.33-11.29,4-2.88,2.67-4.8,6.45-5.74,11.36Z"/><path class="cls-1" d="M506.01,223c-4.9,0-9.23-1.08-12.97-3.23s-6.39-5.03-7.94-8.65c-.34-.77-.34-1.55,0-2.32,.34-.77,.9-1.33,1.68-1.68,.77-.34,1.55-.34,2.32,0,.77,.34,1.33,.9,1.68,1.68,1.12,2.5,3.03,4.45,5.74,5.87,2.71,1.42,5.87,2.13,9.49,2.13s6.58-.37,8.65-1.1c2.06-.73,3.55-1.63,4.45-2.71,.9-1.07,1.46-2.15,1.68-3.23,.21-1.08,.32-1.91,.32-2.52,0-1.29-.3-2.54-.9-3.74-.6-1.2-1.89-2.34-3.87-3.42-1.98-1.07-5.03-2.04-9.16-2.9-2.93-.6-5.96-1.46-9.1-2.58-3.14-1.12-5.79-2.69-7.94-4.71-2.15-2.02-3.23-4.67-3.23-7.94,.08-4.39,1.94-7.98,5.55-10.78,3.61-2.79,8.3-4.19,14.07-4.19,4.3,0,8.19,.93,11.68,2.77,3.48,1.85,6.04,4.37,7.68,7.55,.43,.69,.52,1.44,.26,2.26-.26,.82-.73,1.44-1.42,1.87-.86,.34-1.68,.41-2.45,.19-.77-.21-1.33-.71-1.68-1.48-.95-1.72-2.58-3.29-4.9-4.71-2.32-1.42-5.38-2.13-9.16-2.13-2.15,0-4.26,.28-6.32,.84-2.06,.56-3.76,1.46-5.1,2.71-1.33,1.25-2.04,2.99-2.13,5.23,0,.52,.21,1.31,.65,2.39,.43,1.08,1.72,2.22,3.87,3.42,2.15,1.21,5.76,2.32,10.84,3.36,3.01,.6,5.96,1.48,8.84,2.65,2.88,1.16,5.29,2.8,7.23,4.9,1.94,2.11,2.86,4.93,2.78,8.45,0,1.46-.26,3.1-.77,4.9-.52,1.81-1.51,3.53-2.97,5.16-1.46,1.64-3.59,2.99-6.39,4.07-2.8,1.08-6.47,1.61-11.03,1.61Z"/><path class="cls-1" d="M615.57,223.13c-.86,0-1.59-.28-2.19-.84-.6-.56-.9-1.27-.9-2.13v-1.03l-15.87,3.1c-3.96,.77-7.31,.99-10.07,.65-2.75-.34-5.08-1.21-6.97-2.58-1.38-1.12-2.47-2.52-3.29-4.19-.82-1.68-1.31-3.59-1.48-5.74-.52-4.99,.58-9.1,3.29-12.32s6.9-5.31,12.58-6.26l21.81-3.74v-3.61c0-1.72-.28-3.55-.84-5.48-.56-1.94-1.7-3.38-3.42-4.32-1.38-.86-3.14-1.29-5.29-1.29-5.34,0-11.92,2.41-19.75,7.23-.77,.43-1.55,.54-2.32,.32-.77-.21-1.38-.67-1.81-1.36-.52-.77-.67-1.57-.45-2.39,.21-.82,.67-1.4,1.35-1.74,5.08-3.1,9.51-5.23,13.29-6.39,3.79-1.16,7.01-1.74,9.68-1.74,1.81,0,3.38,.19,4.71,.58,1.33,.39,2.47,.84,3.42,1.35,2.5,1.38,4.39,3.38,5.68,6,1.29,2.63,1.94,5.7,1.94,9.23v35.75c0,.86-.28,1.57-.84,2.13-.56,.56-1.31,.84-2.26,.84Zm-20-7.1l16.91-3.1v-18.71l-20.65,3.48c-3.53,.6-6.09,1.59-7.68,2.97-1.59,1.38-2.56,2.86-2.9,4.45-.34,1.59-.47,3.12-.39,4.58,.26,2.67,1.08,4.52,2.45,5.55,2.07,1.55,6.15,1.81,12.26,.77Z"/><path class="cls-1" d="M633.9,223c-.86,0-1.59-.3-2.19-.9-.6-.6-.9-1.29-.9-2.06v-49.81c0-.86,.3-1.59,.9-2.19s1.33-.9,2.19-.9,1.57,.3,2.13,.9c.56,.6,.84,1.33,.84,2.19v3.23c1.29-1.55,3.1-2.9,5.42-4.06,2.32-1.16,4.56-1.91,6.71-2.26,3.01-.43,6.07-.19,9.16,.71,3.1,.9,5.87,2.43,8.32,4.58,2.45,2.15,4.15,4.99,5.1,8.52,.26,.77,.17,1.53-.26,2.26-.43,.73-1.03,1.23-1.81,1.48-.86,.17-1.66,.04-2.39-.39-.73-.43-1.18-1.03-1.36-1.81-.69-2.49-1.89-4.47-3.61-5.94-1.72-1.46-3.68-2.45-5.87-2.97-2.19-.52-4.32-.6-6.39-.26-3.7,.43-6.8,1.81-9.29,4.13-2.5,2.32-3.74,6.02-3.74,11.1v31.49c0,.77-.28,1.46-.84,2.06-.56,.6-1.27,.9-2.13,.9Z"/><path class="cls-1" d="M706.17,223c-7.31,0-13.08-2.52-17.29-7.55-4.22-5.03-6.32-11.85-6.32-20.46s2.11-15.53,6.32-20.52c4.21-4.99,9.98-7.49,17.29-7.49s12.97,2.5,17.23,7.49c4.26,4.99,6.39,11.83,6.39,20.52s-2.13,15.42-6.39,20.46c-4.26,5.03-10,7.55-17.23,7.55Zm0-6.19c5.59,0,9.89-1.89,12.91-5.68,3.01-3.79,4.52-9.16,4.52-16.13s-1.51-12.21-4.52-16c-3.01-3.79-7.31-5.68-12.91-5.68s-9.81,1.89-12.91,5.68c-3.1,3.79-4.65,9.12-4.65,16s1.55,12.35,4.65,16.13c3.1,3.79,7.4,5.68,12.91,5.68Z"/><path class="cls-1" d="M762.31,223c-5.94,0-10.6-1.94-14-5.81-3.4-3.87-5.1-9.21-5.1-16v-30.84c0-.86,.28-1.59,.84-2.19,.56-.6,1.27-.9,2.13-.9s1.59,.3,2.19,.9c.6,.6,.9,1.33,.9,2.19v30.84c0,1.98,.3,4.19,.9,6.65,.6,2.45,1.83,4.58,3.68,6.39,1.85,1.81,4.67,2.71,8.45,2.71,5.08,0,9.01-1.38,11.81-4.13,2.79-2.75,4.19-6.71,4.19-11.87v-30.71c0-.86,.3-1.61,.9-2.26,.6-.65,1.33-.97,2.19-.97s1.57,.32,2.13,.97c.56,.65,.84,1.4,.84,2.26v49.81c0,.86-.28,1.57-.84,2.13-.56,.56-1.27,.84-2.13,.84s-1.59-.28-2.19-.84c-.6-.56-.9-1.27-.9-2.13v-4c-1.98,2.15-4.32,3.85-7.03,5.1s-5.7,1.87-8.97,1.87Z"/><path class="cls-1" d="M802.05,223c-.86,0-1.57-.28-2.13-.84-.56-.56-.84-1.27-.84-2.13v-50.07c0-.86,.28-1.59,.84-2.19,.56-.6,1.27-.9,2.13-.9s1.59,.3,2.19,.9c.6,.6,.9,1.33,.9,2.19v4.26c1.98-2.24,4.34-4,7.1-5.29,2.75-1.29,5.72-1.94,8.9-1.94,5.94,0,10.6,1.96,14,5.87,3.4,3.92,5.1,9.23,5.1,15.94v30.97c0,.86-.28,1.59-.84,2.19-.56,.6-1.27,.9-2.13,.9s-1.59-.3-2.19-.9c-.6-.6-.9-1.33-.9-2.19v-30.97c0-1.98-.3-4.17-.9-6.58-.6-2.41-1.83-4.5-3.68-6.26-1.85-1.76-4.67-2.65-8.45-2.65-4.99,0-8.9,1.38-11.74,4.13-2.84,2.75-4.26,6.67-4.26,11.74v30.84c0,.86-.3,1.57-.9,2.13-.6,.56-1.33,.84-2.19,.84Z"/><path class="cls-1" d="M897.29,223.13c-.86,0-1.57-.28-2.13-.84s-.84-1.27-.84-2.13v-5.42c-1.98,2.5-4.39,4.5-7.23,6-2.84,1.5-6.11,2.26-9.81,2.26-7.31,0-13.08-2.52-17.29-7.55-4.22-5.03-6.32-11.85-6.32-20.46s2.11-15.53,6.32-20.52c4.21-4.99,9.98-7.49,17.29-7.49,3.7,0,6.97,.77,9.81,2.32,2.84,1.55,5.25,3.57,7.23,6.07v-45.3c0-.86,.28-1.59,.84-2.19,.56-.6,1.27-.9,2.13-.9s1.59,.3,2.19,.9c.6,.6,.9,1.33,.9,2.19v90.08c0,.86-.3,1.57-.9,2.13-.6,.56-1.33,.84-2.19,.84Zm-20-6.32c5.5,0,9.72-1.89,12.65-5.68,2.92-3.79,4.39-9.16,4.39-16.13s-1.46-12.21-4.39-16c-2.93-3.79-7.14-5.68-12.65-5.68s-9.81,1.89-12.91,5.68c-3.1,3.79-4.65,9.12-4.65,16s1.55,12.35,4.65,16.13c3.1,3.79,7.4,5.68,12.91,5.68Z"/><path class="cls-1" d="M265.59,351.41c-3.53,0-6.3-1.01-8.32-3.03-2.02-2.02-3.03-4.71-3.03-8.07v-36.26h-12.39c-.86,0-1.57-.3-2.13-.9-.56-.6-.84-1.33-.84-2.19s.28-1.57,.84-2.13,1.27-.84,2.13-.84h12.39v-18.97c0-.86,.28-1.59,.84-2.19,.56-.6,1.27-.9,2.13-.9s1.59,.3,2.19,.9c.6,.6,.9,1.33,.9,2.19v18.97h16c.86,0,1.59,.28,2.19,.84,.6,.56,.9,1.27,.9,2.13s-.3,1.59-.9,2.19c-.6,.6-1.33,.9-2.19,.9h-16v36.26c0,.34,.06,.93,.19,1.74,.13,.82,.58,1.55,1.36,2.19s2.02,.97,3.74,.97h10.07c.95,0,1.72,.3,2.32,.9,.6,.6,.9,1.33,.9,2.19s-.3,1.59-.9,2.19c-.6,.6-1.38,.9-2.32,.9h-10.07Z"/><path class="cls-1" d="M296.95,352.18c-.86,0-1.59-.28-2.19-.84-.6-.56-.9-1.27-.9-2.13v-90.21c0-.86,.3-1.59,.9-2.19s1.33-.9,2.19-.9,1.59,.3,2.19,.9c.6,.6,.9,1.33,.9,2.19v44.14c1.98-2.24,4.34-3.98,7.1-5.23,2.75-1.25,5.72-1.87,8.9-1.87,5.94,0,10.6,1.96,14,5.87,3.4,3.92,5.1,9.18,5.1,15.81v31.36c0,.86-.28,1.57-.84,2.13-.56,.56-1.27,.84-2.13,.84s-1.59-.28-2.19-.84c-.6-.56-.9-1.27-.9-2.13v-31.36c0-1.98-.3-4.17-.9-6.58-.6-2.41-1.83-4.49-3.68-6.26-1.85-1.76-4.67-2.65-8.45-2.65-4.47,0-8.26,1.38-11.36,4.13-3.1,2.75-4.65,6.67-4.65,11.74v31.1c0,.86-.3,1.57-.9,2.13-.6,.56-1.33,.84-2.19,.84Z"/><path class="cls-1" d="M372.19,352.06c-7.31,0-13.08-2.52-17.29-7.55-4.22-5.03-6.32-11.85-6.32-20.46s2.11-15.53,6.32-20.52c4.21-4.99,9.98-7.49,17.29-7.49,6.37,0,11.72,2.19,16.07,6.58,4.34,4.39,6.69,10.32,7.03,17.81v.39c0,.77-.3,1.46-.9,2.06-.52,.6-1.25,.9-2.19,.9h-37.43c0,6.63,1.4,11.96,4.19,16,2.79,4.04,7.21,6.07,13.23,6.07,3.1,0,6-.67,8.71-2,2.71-1.33,4.79-3.07,6.26-5.23,.52-.69,1.18-1.12,2-1.29,.82-.17,1.57,0,2.26,.52,.69,.43,1.12,1.08,1.29,1.94,.17,.86,0,1.63-.52,2.32-2.06,3.01-4.88,5.42-8.45,7.23-3.57,1.81-7.42,2.71-11.55,2.71Zm-17.04-34.33h33.42c-.86-4.9-2.73-8.69-5.61-11.36-2.88-2.67-6.47-4-10.78-4-4.65,0-8.41,1.33-11.29,4-2.88,2.67-4.8,6.45-5.74,11.36Z"/><path class="cls-1" d="M467.81,379.03c-4.56,0-8.5-1.23-11.81-3.68-3.31-2.45-5.66-5.92-7.03-10.39-.26-.77-.22-1.53,.13-2.26,.34-.73,.95-1.23,1.81-1.48,.86-.35,1.66-.3,2.39,.13,.73,.43,1.23,1.03,1.48,1.81,1.98,6.45,6.32,9.68,13.04,9.68,4.39,0,7.85-1.59,10.39-4.77,2.54-3.18,3.81-7.53,3.81-13.04v-17.29c-3.79,4.04-9.12,6.07-16,6.07s-12.48-2.15-16.52-6.45c-4.04-4.3-6.07-10.11-6.07-17.42s2.02-13.1,6.07-17.36c4.04-4.26,9.55-6.39,16.52-6.39s12.3,2.06,16,6.19v-3.23c0-.86,.3-1.61,.9-2.26,.6-.65,1.33-.97,2.19-.97s1.57,.32,2.13,.97c.56,.65,.84,1.4,.84,2.26v55.88c0,7.05-1.85,12.82-5.55,17.29-3.7,4.47-8.6,6.71-14.71,6.71Zm-1.81-41.3c5.08,0,9.03-1.48,11.87-4.45,2.84-2.97,4.26-7.42,4.26-13.36s-1.42-10.24-4.26-13.16c-2.84-2.92-6.8-4.39-11.87-4.39s-9.31,1.53-12.2,4.58c-2.88,3.05-4.32,7.38-4.32,12.97s1.44,10.07,4.32,13.16c2.88,3.1,6.95,4.65,12.2,4.65Z"/><path class="cls-1" d="M516.59,351.41c-3.44,0-6.22-1.01-8.32-3.03-2.11-2.02-3.16-4.71-3.16-8.07v-81.17c0-.86,.3-1.59,.9-2.19,.6-.6,1.33-.9,2.19-.9s1.59,.3,2.19,.9c.6,.6,.9,1.33,.9,2.19v81.17c0,.34,.06,.93,.19,1.74,.13,.82,.58,1.55,1.35,2.19,.77,.65,2.02,.97,3.74,.97h10.2c.86,0,1.59,.3,2.19,.9,.6,.6,.9,1.33,.9,2.19s-.3,1.59-.9,2.19c-.6,.6-1.33,.9-2.19,.9h-10.2Z"/><path class="cls-1" d="M562.15,352.06c-7.31,0-13.08-2.52-17.29-7.55-4.22-5.03-6.32-11.85-6.32-20.46s2.11-15.53,6.32-20.52c4.21-4.99,9.98-7.49,17.29-7.49s12.97,2.5,17.23,7.49c4.26,4.99,6.39,11.83,6.39,20.52s-2.13,15.42-6.39,20.46-10,7.55-17.23,7.55Zm0-6.19c5.59,0,9.89-1.89,12.91-5.68,3.01-3.79,4.52-9.16,4.52-16.13s-1.51-12.21-4.52-16c-3.01-3.79-7.31-5.68-12.91-5.68s-9.81,1.89-12.91,5.68c-3.1,3.79-4.65,9.12-4.65,16s1.55,12.35,4.65,16.13c3.1,3.79,7.4,5.68,12.91,5.68Z"/><path class="cls-1" d="M604.6,352.18c-.86,0-1.59-.28-2.19-.84-.6-.56-.9-1.27-.9-2.13v-90.47c0-.86,.3-1.61,.9-2.26,.6-.65,1.33-.97,2.19-.97s1.59,.32,2.19,.97c.6,.65,.9,1.4,.9,2.26v45.68c1.98-2.5,4.39-4.52,7.23-6.07,2.84-1.55,6.15-2.32,9.94-2.32,7.23,0,12.95,2.5,17.16,7.49,4.21,4.99,6.32,11.83,6.32,20.52s-2.11,15.42-6.32,20.46c-4.22,5.03-9.94,7.55-17.16,7.55-3.79,0-7.1-.75-9.94-2.26-2.84-1.5-5.25-3.5-7.23-6v5.42c0,.86-.3,1.57-.9,2.13-.6,.56-1.33,.84-2.19,.84Zm20.26-6.32c5.5,0,9.76-1.89,12.78-5.68,3.01-3.79,4.52-9.16,4.52-16.13s-1.51-12.21-4.52-16c-3.01-3.79-7.27-5.68-12.78-5.68s-9.83,1.89-12.71,5.68c-2.88,3.79-4.32,9.12-4.32,16s1.44,12.35,4.32,16.13c2.88,3.79,7.12,5.68,12.71,5.68Z"/><path class="cls-1" d="M682.81,352.06c-7.31,0-13.08-2.52-17.29-7.55-4.22-5.03-6.32-11.85-6.32-20.46s2.11-15.53,6.32-20.52c4.21-4.99,9.98-7.49,17.29-7.49,6.37,0,11.72,2.19,16.07,6.58,4.34,4.39,6.69,10.32,7.03,17.81v.39c0,.77-.3,1.46-.9,2.06-.52,.6-1.25,.9-2.19,.9h-37.43c0,6.63,1.4,11.96,4.19,16,2.79,4.04,7.21,6.07,13.23,6.07,3.1,0,6-.67,8.71-2,2.71-1.33,4.79-3.07,6.26-5.23,.52-.69,1.18-1.12,2-1.29,.82-.17,1.57,0,2.26,.52,.69,.43,1.12,1.08,1.29,1.94,.17,.86,0,1.63-.52,2.32-2.07,3.01-4.88,5.42-8.45,7.23-3.57,1.81-7.42,2.71-11.55,2.71Zm-17.03-34.33h33.42c-.86-4.9-2.73-8.69-5.61-11.36-2.88-2.67-6.47-4-10.78-4-4.65,0-8.41,1.33-11.29,4-2.88,2.67-4.8,6.45-5.74,11.36Z"/><path class="cls-1" d="M725.91,369.48c-.86,0-1.59-.28-2.19-.84-.6-.56-.9-1.27-.9-2.13,0-.95,.3-1.7,.9-2.26,.6-.56,1.33-.84,2.19-.84,2.41,0,4.07-.5,4.97-1.48,.9-.99,1.35-2.69,1.35-5.1v-4.9c-.17,0-.32,.02-.45,.06-.13,.04-.28,.06-.45,.06-2.15,0-3.87-.8-5.16-2.39-1.29-1.59-1.94-3.46-1.94-5.61s.65-4.13,1.94-5.68c1.29-1.55,3.01-2.32,5.16-2.32s3.85,.77,5.1,2.32c1.25,1.55,1.87,3.44,1.87,5.68v12.78c0,8.43-4.13,12.65-12.39,12.65Z"/></g></g></svg>