<?xml version="1.0" encoding="UTF-8"?><svg id="Layer_2" xmlns="http://www.w3.org/2000/svg" viewBox="0 0 223.2 233.45"><defs><style>.cls-1{fill:#131921;}</style></defs><g id="web"><g><path class="cls-1" d="M175.3,92.88c-30.85,.8-61.72,.98-92.57,1.17-10.53,.06-21.06,.12-31.6,.15-13.07,.04-28.87,4.03-38.72-7.17-8.57-9.75-.57-20.69,9.22-25.24,10.7-4.97,23.39-4.04,33.57,1.68,3.09,1.74,7.77-1.2,6.41-4.93-7.35-20.21,3.3-42.83,24.38-48.57,20.46-5.57,40.78,7.75,45.29,28.15,.57,2.6,4.16,4.19,6.41,2.61,12.41-8.74,29.51-11.02,42.97-3.15,5.92,3.46,11.08,9.11,11.83,16.18,.68,6.44-2.14,12.76-7.97,15.75-3.75,1.92-2.11,8.47,2.2,8.13,7.98-.63,17.76-1.74,24.19,4.12,7.36,6.71,2.18,15.85-6.68,17.04s-19.34-3.26-27.77-5.77c-5.39-1.6-7.7,6.82-2.32,8.42,13.16,3.91,31.43,11.38,43.28,.7,7.68-6.92,7.52-18.22,.63-25.59-8.11-8.67-20.4-8.51-31.33-7.64l2.2,8.13c7.54-3.87,11.82-11.71,12.33-20.03,.58-9.36-4.33-18.01-11.5-23.72-16.12-12.85-40.03-11.68-56.46-.1l6.41,2.61C134.17,10.77,108.52-5.21,83.67,1.56c-25.38,6.91-39.44,34.64-30.48,59.31l6.41-4.93c-17.61-9.89-45.9-8.23-56.79,11.16-4.91,8.74-3.16,18.78,3.42,26.11,7.84,8.72,19.85,10.85,31.05,10.47,26.24-.88,52.5-.9,78.78-1.15,19.74-.19,39.49-.4,59.23-.91,5.61-.15,5.63-8.87,0-8.73Z"/><path class="cls-1" d="M56.21,101.17V229.24c0,5.62,8.73,5.62,8.73,0V101.17c0-5.62-8.73-5.62-8.73,0h0Z"/><path class="cls-1" d="M84.56,100.84v84.04c0,5.62,8.73,5.62,8.73,0V100.84c0-5.62-8.73-5.62-8.73,0h0Z"/><path class="cls-1" d="M106.9,99.17v116.73c0,5.62,8.73,5.62,8.73,0V99.17c0-5.62-8.73-5.62-8.73,0h0Z"/><path class="cls-1" d="M129.25,100.5v80.04c0,5.62,8.73,5.62,8.73,0V100.5c0-5.62-8.73-5.62-8.73,0h0Z"/><path class="cls-1" d="M152.26,98.5v100.05c0,5.62,8.73,5.62,8.73,0V98.5c0-5.62-8.73-5.62-8.73,0h0Z"/></g></g></svg>